<svg width="60" height="62" viewBox="0 0 60 62" fill="none" xmlns="http://www.w3.org/2000/svg">
  <!-- Soft heart glow -->
  <path d="M30 58C30 58 2 38 2 20C2 10 10 2 20 2C25.5 2 29 5.5 30 9C31 5.5 34.5 2 40 2C50 2 58 10 58 20C58 38 30 58 30 58Z" fill="#FF6B6B" opacity="0.1"/>

  <!-- Calendar body -->
  <rect x="17" y="20" width="26" height="21" rx="4" fill="white" stroke="#FF6B6B" stroke-width="2"/>
  <!-- Calendar top bar -->
  <rect x="17" y="20" width="26" height="8" rx="4" fill="#FF6B6B"/>
  <rect x="17" y="24" width="26" height="4" fill="#FF6B6B"/>
  <!-- Calendar pegs -->
  <rect x="23" y="17" width="2.4" height="6" rx="1.2" fill="#FF6B6B"/>
  <rect x="34.6" y="17" width="2.4" height="6" rx="1.2" fill="#FF6B6B"/>

  <!-- Calendar dots -->
  <circle cx="24" cy="33" r="1.8" fill="#FF6B6B" opacity="0.4"/>
  <circle cx="30" cy="33" r="1.8" fill="#FF6B6B"/>
  <circle cx="36" cy="33" r="1.8" fill="#FF6B6B" opacity="0.4"/>
  <circle cx="24" cy="38" r="1.8" fill="#FF6B6B" opacity="0.25"/>
  <circle cx="30" cy="38" r="1.8" fill="#FF6B6B" opacity="0.4"/>
  <circle cx="36" cy="38" r="1.8" fill="#FF6B6B" opacity="0.25"/>

  <!-- Heart outline -->
  <path d="M30 58C30 58 2 38 2 20C2 10 10 2 20 2C25.5 2 29 5.5 30 9C31 5.5 34.5 2 40 2C50 2 58 10 58 20C58 38 30 58 30 58Z" stroke="#FF6B6B" stroke-width="2.5" stroke-linecap="round" stroke-linejoin="round"/>
</svg>
