
<svg width="393" height="852" viewBox="0 0 393 852" fill="none" xmlns="http://www.w3.org/2000/svg">
    <g clip-path="url(#clip0_46_1483)">
        <path d="M393 0H0V852H393V0Z" fill="url(#paint0_linear_46_1483)"/>
        <path d="M36.8313 23.9418C37.3924 23.9418 37.9322 24.0359 38.4506 24.2241C38.9727 24.4123 39.4379 24.7124 39.8462 25.1243C40.2582 25.5362 40.5831 26.0831 40.821 26.7649C41.0625 27.4432 41.185 28.2759 41.1886 29.2631C41.1886 30.19 41.0838 31.0174 40.8743 31.7454C40.6683 32.4698 40.3718 33.0859 39.9847 33.5938C39.5977 34.1016 39.1307 34.4886 38.5838 34.755C38.0369 35.0178 37.4261 35.1491 36.7514 35.1491C36.0234 35.1491 35.3807 35.0089 34.8232 34.7283C34.2656 34.4442 33.8164 34.0589 33.4755 33.5724C33.1381 33.0824 32.9339 32.532 32.8629 31.9212H35.1374C35.2262 32.3189 35.4126 32.6278 35.6967 32.848C35.9808 33.0646 36.3324 33.1729 36.7514 33.1729C37.4616 33.1729 38.0014 32.864 38.3707 32.2461C38.7401 31.6246 38.9265 30.7741 38.93 29.6946H38.8555C38.6921 30.0142 38.4719 30.2894 38.195 30.5202C37.918 30.7475 37.6001 30.9233 37.2415 31.0476C36.8864 31.1719 36.5082 31.234 36.1069 31.234C35.4641 31.234 34.8906 31.0831 34.3864 30.7812C33.8821 30.4794 33.4844 30.0639 33.1932 29.5348C32.902 29.0057 32.7564 28.402 32.7564 27.7237C32.7528 26.9922 32.9215 26.3406 33.2624 25.7688C33.6033 25.1971 34.0792 24.7496 34.69 24.4265C35.3043 24.0998 36.0181 23.9382 36.8313 23.9418ZM36.8473 25.7528C36.4886 25.7528 36.169 25.8381 35.8885 26.0085C35.6115 26.179 35.3913 26.408 35.228 26.6957C35.0682 26.9833 34.9901 27.3047 34.9936 27.6598C34.9936 28.0185 35.0717 28.3416 35.228 28.6293C35.3878 28.9134 35.6044 29.1406 35.8778 29.3111C36.1548 29.478 36.4709 29.5614 36.826 29.5614C37.0923 29.5614 37.3391 29.5117 37.5664 29.4123C37.7937 29.3129 37.9908 29.1761 38.1577 29.0021C38.3281 28.8246 38.4613 28.6204 38.5572 28.3896C38.6531 28.1587 38.701 27.9137 38.701 27.6545C38.6974 27.31 38.6158 26.994 38.456 26.7063C38.2962 26.4187 38.076 26.1879 37.7955 26.0138C37.5149 25.8398 37.1989 25.7528 36.8473 25.7528ZM44.1342 33.7322C43.7827 33.7322 43.4808 33.608 43.2287 33.3594C42.9801 33.1108 42.8558 32.8089 42.8558 32.4538C42.8558 32.1058 42.9801 31.8075 43.2287 31.5589C43.4808 31.3104 43.7827 31.1861 44.1342 31.1861C44.4751 31.1861 44.7734 31.3104 45.0291 31.5589C45.2848 31.8075 45.4126 32.1058 45.4126 32.4538C45.4126 32.6882 45.3523 32.9031 45.2315 33.0984C45.1143 33.2901 44.9599 33.4446 44.7681 33.5618C44.5763 33.6754 44.3651 33.7322 44.1342 33.7322ZM44.1342 28.3789C43.7827 28.3789 43.4808 28.2546 43.2287 28.006C42.9801 27.7575 42.8558 27.4556 42.8558 27.1005C42.8558 26.7525 42.9801 26.456 43.2287 26.2109C43.4808 25.9624 43.7827 25.8381 44.1342 25.8381C44.4751 25.8381 44.7734 25.9624 45.0291 26.2109C45.2848 26.456 45.4126 26.7525 45.4126 27.1005C45.4126 27.3384 45.3523 27.555 45.2315 27.7504C45.1143 27.9421 44.9599 28.0948 44.7681 28.2085C44.5763 28.3221 44.3651 28.3789 44.1342 28.3789ZM47.0892 33.0824V31.266L51.6436 24.0909H53.2096V26.6051H52.2828L49.4117 31.1488V31.234H55.8836V33.0824H47.0892ZM52.3254 35V32.5284L52.368 31.7241V24.0909H54.5306V35H52.3254ZM62.02 24.0909V35H59.7135V26.2802H59.6496L57.1514 27.8462V25.8008L59.852 24.0909H62.02Z" fill="#191F28"/>
        <path opacity="0.4" d="M333 26H331C330.448 26 330 26.4477 330 27V33C330 33.5523 330.448 34 331 34H333C333.552 34 334 33.5523 334 33V27C334 26.4477 333.552 26 333 26Z" fill="#191F28"/>
        <path opacity="0.6" d="M340 24H338C337.448 24 337 24.4477 337 25V33C337 33.5523 337.448 34 338 34H340C340.552 34 341 33.5523 341 33V25C341 24.4477 340.552 24 340 24Z" fill="#191F28"/>
        <path opacity="0.8" d="M347 22H345C344.448 22 344 22.4477 344 23V33C344 33.5523 344.448 34 345 34H347C347.552 34 348 33.5523 348 33V23C348 22.4477 347.552 22 347 22Z" fill="#191F28"/>
        <path d="M354 22H352C351.448 22 351 22.4477 351 23V33C351 33.5523 351.448 34 352 34H354C354.552 34 355 33.5523 355 33V23C355 22.4477 354.552 22 354 22Z" fill="#191F28"/>
        <path d="M381 24H365C363.343 24 362 25.3431 362 27V31C362 32.6569 363.343 34 365 34H381C382.657 34 384 32.6569 384 31V27C384 25.3431 382.657 24 381 24Z" stroke="#191F28" stroke-width="1.2"/>
        <path d="M378.5 26H365.5C364.672 26 364 26.6716 364 27.5V30.5C364 31.3284 364.672 32 365.5 32H378.5C379.328 32 380 31.3284 380 30.5V27.5C380 26.6716 379.328 26 378.5 26Z" fill="#191F28"/>
        <path d="M385 27H384.5C384.224 27 384 27.2239 384 27.5V30.5C384 30.7761 384.224 31 384.5 31H385C385.276 31 385.5 30.7761 385.5 30.5V27.5C385.5 27.2239 385.276 27 385 27Z" fill="#191F28"/>
        <path d="M196 418C196 418 166 396 166 378C166 366 175 356 186 356C191 356 195 359 196 364C197 359 201 356 206 356C217 356 226 366 226 378C226 396 196 418 196 418Z" stroke="#FF6B6B" stroke-width="2.5"/>
        <path d="M206 376H186C183.791 376 182 377.791 182 380V394C182 396.209 183.791 398 186 398H206C208.209 398 210 396.209 210 394V380C210 377.791 208.209 376 206 376Z" stroke="#FF6B6B" stroke-width="1.8"/>
        <path d="M182 383H210" stroke="#FF6B6B" stroke-width="1.2"/>
        <path d="M190 379C190.552 379 191 378.552 191 378C191 377.448 190.552 377 190 377C189.448 377 189 377.448 189 378C189 378.552 189.448 379 190 379Z" fill="#FF6B6B"/>
        <path d="M202 379C202.552 379 203 378.552 203 378C203 377.448 202.552 377 202 377C201.448 377 201 377.448 201 378C201 378.552 201.448 379 202 379Z" fill="#FF6B6B"/>
        <path opacity="0.5" d="M190.2 387H187.8C187.358 387 187 387.358 187 387.8V389.2C187 389.642 187.358 390 187.8 390H190.2C190.642 390 191 389.642 191 389.2V387.8C191 387.358 190.642 387 190.2 387Z" fill="#FF6B6B"/>
        <path d="M197.2 387H194.8C194.358 387 194 387.358 194 387.8V389.2C194 389.642 194.358 390 194.8 390H197.2C197.642 390 198 389.642 198 389.2V387.8C198 387.358 197.642 387 197.2 387Z" fill="#FF6B6B"/>
        <path opacity="0.3" d="M204.2 387H201.8C201.358 387 201 387.358 201 387.8V389.2C201 389.642 201.358 390 201.8 390H204.2C204.642 390 205 389.642 205 389.2V387.8C205 387.358 204.642 387 204.2 387Z" fill="#FF6B6B"/>
        <path opacity="0.3" d="M190.2 392H187.8C187.358 392 187 392.358 187 392.8V394.2C187 394.642 187.358 395 187.8 395H190.2C190.642 395 191 394.642 191 394.2V392.8C191 392.358 190.642 392 190.2 392Z" fill="#FF6B6B"/>
        <path opacity="0.5" d="M197.2 392H194.8C194.358 392 194 392.358 194 392.8V394.2C194 394.642 194.358 395 194.8 395H197.2C197.642 395 198 394.642 198 394.2V392.8C198 392.358 197.642 392 197.2 392Z" fill="#FF6B6B"/>
        <path d="M177.699 431.212H181.157V455.366H177.699V431.212ZM162.645 446.76H164.725C166.406 446.76 167.88 446.743 169.145 446.708C170.428 446.673 171.598 446.604 172.655 446.5C173.73 446.396 174.804 446.24 175.879 446.032L176.191 448.892C175.099 449.1 173.998 449.265 172.889 449.386C171.797 449.49 170.592 449.559 169.275 449.594C167.958 449.611 166.441 449.62 164.725 449.62H162.645V446.76ZM162.645 433.344H174.241V436.152H166.077V447.852H162.645V433.344ZM187.343 433.422H202.579V436.178H187.343V433.422ZM185.107 449.36H206.895V452.168H185.107V449.36ZM200.759 433.422H204.217V436.282C204.217 437.409 204.2 438.553 204.165 439.714C204.148 440.875 204.078 442.115 203.957 443.432C203.853 444.749 203.645 446.24 203.333 447.904L199.875 447.592C200.187 446.049 200.395 444.628 200.499 443.328C200.62 442.028 200.69 440.806 200.707 439.662C200.742 438.501 200.759 437.374 200.759 436.282V433.422ZM224.391 431.186H227.875V455.34H224.391V431.186ZM227.121 440.104H231.359V442.964H227.121V440.104ZM209.935 446.708H211.963C213.332 446.708 214.615 446.691 215.811 446.656C217.007 446.604 218.168 446.526 219.295 446.422C220.422 446.301 221.574 446.136 222.753 445.928L223.091 448.788C221.878 448.996 220.682 449.161 219.503 449.282C218.342 449.403 217.146 449.481 215.915 449.516C214.684 449.551 213.367 449.568 211.963 449.568H209.935V446.708ZM209.935 433.422H221.167V436.204H213.393V448.06H209.935V433.422Z" fill="#191F28"/>
        <path d="M148.219 467.249H149.298V479.027H148.219V467.249ZM140.432 475.192H141.381C142.161 475.192 142.863 475.183 143.487 475.166C144.111 475.149 144.701 475.11 145.255 475.049C145.819 474.988 146.391 474.906 146.971 474.802L147.075 475.712C146.486 475.825 145.905 475.911 145.333 475.972C144.761 476.024 144.159 476.063 143.526 476.089C142.894 476.106 142.179 476.115 141.381 476.115H140.432V475.192ZM140.432 468.367H145.983V469.264H141.511V475.53H140.432V468.367ZM154.744 468.939H155.628V470.837C155.628 471.461 155.542 472.076 155.368 472.683C155.195 473.281 154.952 473.849 154.64 474.386C154.337 474.915 153.982 475.383 153.574 475.79C153.167 476.197 152.729 476.518 152.261 476.752L151.637 475.894C152.062 475.686 152.461 475.404 152.833 475.049C153.215 474.694 153.548 474.286 153.834 473.827C154.12 473.368 154.341 472.882 154.497 472.371C154.662 471.86 154.744 471.348 154.744 470.837V468.939ZM154.965 468.939H155.836V470.837C155.836 471.331 155.914 471.825 156.07 472.319C156.235 472.804 156.46 473.264 156.746 473.697C157.041 474.122 157.375 474.499 157.747 474.828C158.129 475.157 158.536 475.417 158.969 475.608L158.371 476.466C157.895 476.241 157.448 475.937 157.032 475.556C156.616 475.175 156.252 474.737 155.94 474.243C155.637 473.74 155.399 473.203 155.225 472.631C155.052 472.05 154.965 471.452 154.965 470.837V468.939ZM152.014 468.458H158.579V469.355H152.014V468.458ZM160.178 467.249H161.257V479.014H160.178V467.249ZM164.194 472.267H165.052C165.806 472.267 166.465 472.263 167.028 472.254C167.592 472.237 168.116 472.211 168.601 472.176C169.087 472.133 169.585 472.068 170.096 471.981L170.187 472.852C169.667 472.939 169.156 473.004 168.653 473.047C168.159 473.082 167.622 473.108 167.041 473.125C166.469 473.134 165.806 473.138 165.052 473.138H164.194V472.267ZM164.194 467.977H169.485V468.848H165.26V472.8H164.194V467.977ZM164.948 470.083H169.173V470.915H164.948V470.083ZM169.979 469.953H172.449V470.824H169.979V469.953ZM172.189 467.249H173.255V473.593H172.189V467.249ZM165.689 474.126H173.255V476.869H166.781V478.585H165.715V476.063H172.189V474.984H165.689V474.126ZM165.715 478.026H173.697V478.884H165.715V478.026ZM180.369 468.497H187.935V469.381H180.369V468.497ZM179.212 476.401H189.833V477.298H179.212V476.401ZM187.35 468.497H188.416V469.68C188.416 470.174 188.407 470.703 188.39 471.266C188.381 471.821 188.346 472.436 188.286 473.112C188.225 473.788 188.121 474.551 187.974 475.4L186.882 475.283C187.038 474.486 187.146 473.753 187.207 473.086C187.276 472.419 187.315 471.803 187.324 471.24C187.341 470.677 187.35 470.157 187.35 469.68V468.497ZM191.158 473.073H201.818V473.944H191.158V473.073ZM195.942 473.385H197.008V475.387H195.942V473.385ZM192.575 474.698H193.641V475.985H199.387V474.698H200.453V478.858H192.575V474.698ZM193.641 476.804V478.013H199.387V476.804H193.641ZM192.51 467.496H200.453V470.187H193.602V471.747H192.536V469.394H199.387V468.328H192.51V467.496ZM192.536 471.305H200.7V472.137H192.536V471.305ZM214.742 467.249H215.821V479.027H214.742V467.249ZM215.574 471.89H217.745V472.787H215.574V471.89ZM207.293 475.179H208.216C208.935 475.179 209.594 475.17 210.192 475.153C210.798 475.127 211.379 475.084 211.934 475.023C212.497 474.962 213.069 474.88 213.65 474.776L213.78 475.699C213.173 475.803 212.584 475.885 212.012 475.946C211.448 476.007 210.859 476.046 210.244 476.063C209.628 476.08 208.952 476.089 208.216 476.089H207.293V475.179ZM207.293 468.393H212.74V469.277H208.359V475.595H207.293V468.393ZM227.286 467.249H228.365V479.027H227.286V467.249ZM222.164 468.159C222.744 468.159 223.256 468.328 223.698 468.666C224.148 468.995 224.499 469.468 224.751 470.083C225.011 470.698 225.141 471.422 225.141 472.254C225.141 473.086 225.011 473.81 224.751 474.425C224.499 475.04 224.148 475.517 223.698 475.855C223.256 476.193 222.744 476.362 222.164 476.362C221.583 476.362 221.067 476.193 220.617 475.855C220.166 475.517 219.811 475.04 219.551 474.425C219.299 473.81 219.174 473.086 219.174 472.254C219.174 471.422 219.299 470.698 219.551 470.083C219.811 469.468 220.166 468.995 220.617 468.666C221.067 468.328 221.583 468.159 222.164 468.159ZM222.164 469.121C221.774 469.121 221.431 469.251 221.137 469.511C220.851 469.762 220.625 470.126 220.461 470.603C220.296 471.071 220.214 471.621 220.214 472.254C220.214 472.887 220.296 473.441 220.461 473.918C220.625 474.386 220.851 474.75 221.137 475.01C221.431 475.27 221.774 475.4 222.164 475.4C222.545 475.4 222.879 475.27 223.165 475.01C223.459 474.75 223.689 474.386 223.854 473.918C224.018 473.441 224.101 472.887 224.101 472.254C224.101 471.621 224.018 471.071 223.854 470.603C223.689 470.126 223.459 469.762 223.165 469.511C222.879 469.251 222.545 469.121 222.164 469.121ZM233.837 468.159C234.409 468.159 234.916 468.328 235.358 468.666C235.8 468.995 236.142 469.468 236.385 470.083C236.636 470.698 236.762 471.422 236.762 472.254C236.762 473.086 236.636 473.81 236.385 474.425C236.142 475.04 235.8 475.517 235.358 475.855C234.916 476.193 234.409 476.362 233.837 476.362C233.273 476.362 232.766 476.193 232.316 475.855C231.874 475.517 231.527 475.04 231.276 474.425C231.033 473.81 230.912 473.086 230.912 472.254C230.912 471.422 231.033 470.698 231.276 470.083C231.527 469.468 231.874 468.995 232.316 468.666C232.766 468.328 233.273 468.159 233.837 468.159ZM233.837 469.121C233.464 469.121 233.135 469.251 232.849 469.511C232.563 469.762 232.337 470.126 232.173 470.603C232.017 471.071 231.939 471.621 231.939 472.254C231.939 472.887 232.017 473.441 232.173 473.918C232.337 474.386 232.563 474.75 232.849 475.01C233.135 475.27 233.464 475.4 233.837 475.4C234.218 475.4 234.552 475.27 234.838 475.01C235.124 474.75 235.345 474.386 235.501 473.918C235.665 473.441 235.748 472.887 235.748 472.254C235.748 471.621 235.665 471.071 235.501 470.603C235.345 470.126 235.124 469.762 234.838 469.511C234.552 469.251 234.218 469.121 233.837 469.121ZM239.31 467.249H240.376V479.027H239.31V467.249ZM236.411 471.734H239.791V472.605H236.411V471.734ZM251.23 467.249H252.296V479.027H251.23V467.249ZM243.339 475.283H244.314C244.981 475.283 245.622 475.274 246.238 475.257C246.862 475.231 247.49 475.188 248.123 475.127C248.764 475.066 249.431 474.98 250.125 474.867L250.229 475.751C249.171 475.924 248.175 476.041 247.239 476.102C246.303 476.154 245.328 476.18 244.314 476.18H243.339V475.283ZM243.313 468.341H248.747V472.54H244.431V475.621H243.339V471.669H247.655V469.225H243.313V468.341Z" fill="#8B95A1"/>
        <path opacity="0.25" d="M180 543.5C181.933 543.5 183.5 541.933 183.5 540C183.5 538.067 181.933 536.5 180 536.5C178.067 536.5 176.5 538.067 176.5 540C176.5 541.933 178.067 543.5 180 543.5Z" fill="#FF6B6B"/>
        <path opacity="0.25" d="M196 543.5C197.933 543.5 199.5 541.933 199.5 540C199.5 538.067 197.933 536.5 196 536.5C194.067 536.5 192.5 538.067 192.5 540C192.5 541.933 194.067 543.5 196 543.5Z" fill="#FF6B6B"/>
        <path opacity="0.25" d="M212 543.5C213.933 543.5 215.5 541.933 215.5 540C215.5 538.067 213.933 536.5 212 536.5C210.067 536.5 208.5 538.067 208.5 540C208.5 541.933 210.067 543.5 212 543.5Z" fill="#FF6B6B"/>
        <path d="M169.3 804C169.253 803.604 169.063 803.297 168.729 803.078C168.396 802.859 167.987 802.75 167.503 802.75C167.149 802.75 166.839 802.807 166.573 802.922C166.31 803.036 166.104 803.194 165.956 803.395C165.81 803.595 165.737 803.823 165.737 804.078C165.737 804.292 165.788 804.475 165.89 804.629C165.994 804.78 166.127 804.906 166.288 805.008C166.45 805.107 166.619 805.189 166.796 805.254C166.973 805.316 167.136 805.367 167.284 805.406L168.097 805.625C168.305 805.68 168.537 805.755 168.792 805.852C169.05 805.948 169.296 806.079 169.53 806.246C169.767 806.41 169.963 806.621 170.116 806.879C170.27 807.137 170.347 807.453 170.347 807.828C170.347 808.26 170.233 808.651 170.007 809C169.783 809.349 169.455 809.626 169.022 809.832C168.593 810.038 168.071 810.141 167.456 810.141C166.883 810.141 166.387 810.048 165.968 809.863C165.551 809.678 165.223 809.421 164.983 809.09C164.746 808.759 164.612 808.375 164.581 807.938H165.581C165.607 808.24 165.709 808.49 165.886 808.687C166.065 808.883 166.292 809.029 166.565 809.125C166.841 809.219 167.138 809.266 167.456 809.266C167.826 809.266 168.158 809.206 168.452 809.086C168.746 808.964 168.979 808.794 169.151 808.578C169.323 808.359 169.409 808.104 169.409 807.812C169.409 807.547 169.335 807.331 169.187 807.164C169.038 806.997 168.843 806.862 168.601 806.758C168.358 806.654 168.097 806.562 167.815 806.484L166.831 806.203C166.206 806.023 165.711 805.767 165.347 805.434C164.982 805.1 164.8 804.664 164.8 804.125C164.8 803.677 164.921 803.286 165.163 802.953C165.408 802.617 165.736 802.357 166.147 802.172C166.562 801.984 167.024 801.891 167.534 801.891C168.05 801.891 168.508 801.983 168.909 802.168C169.31 802.35 169.628 802.6 169.862 802.918C170.099 803.236 170.224 803.596 170.237 804H169.3ZM174.611 802V810H173.643V803.016H173.596L171.643 804.312V803.328L173.643 802H174.611ZM190.178 805.57V806.43H179.178V805.57H190.178ZM198.615 804C198.568 803.604 198.378 803.297 198.045 803.078C197.712 802.859 197.303 802.75 196.818 802.75C196.464 802.75 196.154 802.807 195.889 802.922C195.626 803.036 195.42 803.194 195.271 803.395C195.126 803.595 195.053 803.823 195.053 804.078C195.053 804.292 195.104 804.475 195.205 804.629C195.309 804.78 195.442 804.906 195.604 805.008C195.765 805.107 195.934 805.189 196.111 805.254C196.288 805.316 196.451 805.367 196.6 805.406L197.412 805.625C197.62 805.68 197.852 805.755 198.107 805.852C198.365 805.948 198.611 806.079 198.846 806.246C199.083 806.41 199.278 806.621 199.432 806.879C199.585 807.137 199.662 807.453 199.662 807.828C199.662 808.26 199.549 808.651 199.322 809C199.098 809.349 198.77 809.626 198.338 809.832C197.908 810.038 197.386 810.141 196.771 810.141C196.199 810.141 195.702 810.048 195.283 809.863C194.867 809.678 194.538 809.421 194.299 809.09C194.062 808.759 193.928 808.375 193.896 807.938H194.896C194.923 808.24 195.024 808.49 195.201 808.687C195.381 808.883 195.607 809.029 195.881 809.125C196.157 809.219 196.454 809.266 196.771 809.266C197.141 809.266 197.473 809.206 197.768 809.086C198.062 808.964 198.295 808.794 198.467 808.578C198.639 808.359 198.725 808.104 198.725 807.812C198.725 807.547 198.65 807.331 198.502 807.164C198.354 806.997 198.158 806.862 197.916 806.758C197.674 806.654 197.412 806.562 197.131 806.484L196.146 806.203C195.521 806.023 195.027 805.767 194.662 805.434C194.298 805.1 194.115 804.664 194.115 804.125C194.115 803.677 194.236 803.286 194.479 802.953C194.723 802.617 195.051 802.357 195.463 802.172C195.877 801.984 196.339 801.891 196.85 801.891C197.365 801.891 197.824 801.983 198.225 802.168C198.626 802.35 198.943 802.6 199.178 802.918C199.415 803.236 199.54 803.596 199.553 804H198.615ZM201.13 812.25V804H202.021V804.953H202.13C202.198 804.849 202.291 804.716 202.411 804.555C202.534 804.391 202.708 804.245 202.935 804.117C203.164 803.987 203.474 803.922 203.864 803.922C204.369 803.922 204.815 804.048 205.2 804.301C205.586 804.553 205.886 804.911 206.103 805.375C206.319 805.839 206.427 806.385 206.427 807.016C206.427 807.651 206.319 808.202 206.103 808.668C205.886 809.132 205.587 809.491 205.204 809.746C204.821 809.999 204.38 810.125 203.88 810.125C203.494 810.125 203.186 810.061 202.954 809.934C202.722 809.803 202.544 809.656 202.419 809.492C202.294 809.326 202.198 809.187 202.13 809.078H202.052V812.25H201.13ZM202.036 807C202.036 807.453 202.103 807.853 202.235 808.199C202.368 808.543 202.562 808.812 202.817 809.008C203.073 809.201 203.385 809.297 203.755 809.297C204.14 809.297 204.462 809.195 204.72 808.992C204.98 808.786 205.175 808.51 205.306 808.164C205.438 807.815 205.505 807.427 205.505 807C205.505 806.578 205.44 806.198 205.31 805.859C205.182 805.518 204.988 805.249 204.728 805.051C204.47 804.85 204.146 804.75 203.755 804.75C203.38 804.75 203.065 804.845 202.81 805.035C202.554 805.223 202.362 805.486 202.231 805.824C202.101 806.16 202.036 806.552 202.036 807ZM208.755 802V810H207.833V802H208.755ZM212.209 810.141C211.829 810.141 211.484 810.069 211.174 809.926C210.864 809.78 210.618 809.57 210.436 809.297C210.253 809.021 210.162 808.687 210.162 808.297C210.162 807.953 210.23 807.674 210.365 807.461C210.501 807.245 210.682 807.076 210.908 806.953C211.135 806.831 211.385 806.74 211.658 806.68C211.934 806.617 212.212 806.568 212.49 806.531C212.855 806.484 213.15 806.449 213.377 806.426C213.606 806.4 213.773 806.357 213.877 806.297C213.984 806.237 214.037 806.133 214.037 805.984V805.953C214.037 805.568 213.932 805.268 213.721 805.055C213.512 804.841 213.196 804.734 212.771 804.734C212.331 804.734 211.986 804.831 211.736 805.023C211.486 805.216 211.311 805.422 211.209 805.641L210.334 805.328C210.49 804.964 210.699 804.68 210.959 804.477C211.222 804.271 211.508 804.128 211.818 804.047C212.131 803.964 212.438 803.922 212.74 803.922C212.933 803.922 213.154 803.945 213.404 803.992C213.657 804.036 213.9 804.129 214.135 804.27C214.372 804.41 214.568 804.622 214.725 804.906C214.881 805.19 214.959 805.57 214.959 806.047V810H214.037V809.187H213.99C213.928 809.318 213.824 809.457 213.678 809.605C213.532 809.754 213.338 809.88 213.096 809.984C212.854 810.089 212.558 810.141 212.209 810.141ZM212.35 809.312C212.714 809.312 213.021 809.241 213.271 809.098C213.524 808.954 213.714 808.77 213.842 808.543C213.972 808.316 214.037 808.078 214.037 807.828V806.984C213.998 807.031 213.912 807.074 213.779 807.113C213.649 807.15 213.498 807.182 213.326 807.211C213.157 807.237 212.992 807.26 212.83 807.281C212.671 807.299 212.542 807.315 212.443 807.328C212.204 807.359 211.98 807.41 211.771 807.48C211.566 807.548 211.399 807.651 211.271 807.789C211.146 807.924 211.084 808.109 211.084 808.344C211.084 808.664 211.202 808.906 211.439 809.07C211.679 809.232 211.982 809.312 212.35 809.312ZM220.892 805.344L220.063 805.578C220.011 805.44 219.935 805.306 219.833 805.176C219.734 805.043 219.599 804.934 219.427 804.848C219.255 804.762 219.035 804.719 218.767 804.719C218.399 804.719 218.093 804.803 217.849 804.973C217.606 805.139 217.485 805.352 217.485 805.609C217.485 805.839 217.569 806.02 217.735 806.152C217.902 806.285 218.162 806.396 218.517 806.484L219.407 806.703C219.944 806.833 220.343 807.033 220.606 807.301C220.869 807.566 221.001 807.909 221.001 808.328C221.001 808.672 220.902 808.979 220.704 809.25C220.509 809.521 220.235 809.734 219.884 809.891C219.532 810.047 219.123 810.125 218.657 810.125C218.045 810.125 217.539 809.992 217.138 809.727C216.737 809.461 216.483 809.073 216.376 808.562L217.251 808.344C217.334 808.667 217.492 808.909 217.724 809.07C217.958 809.232 218.264 809.312 218.642 809.312C219.071 809.312 219.412 809.221 219.665 809.039C219.92 808.854 220.048 808.633 220.048 808.375C220.048 808.167 219.975 807.992 219.829 807.852C219.683 807.708 219.459 807.602 219.157 807.531L218.157 807.297C217.608 807.167 217.204 806.965 216.946 806.691C216.691 806.415 216.563 806.07 216.563 805.656C216.563 805.318 216.659 805.018 216.849 804.758C217.041 804.497 217.303 804.293 217.634 804.145C217.967 803.996 218.345 803.922 218.767 803.922C219.36 803.922 219.826 804.052 220.165 804.312C220.506 804.573 220.748 804.917 220.892 805.344ZM223.311 806.391V810H222.389V802H223.311V804.937H223.389C223.529 804.628 223.74 804.382 224.021 804.199C224.305 804.014 224.683 803.922 225.154 803.922C225.563 803.922 225.921 804.004 226.229 804.168C226.536 804.329 226.774 804.578 226.943 804.914C227.115 805.247 227.201 805.672 227.201 806.188V810H226.279V806.25C226.279 805.773 226.156 805.405 225.908 805.145C225.663 804.882 225.324 804.75 224.889 804.75C224.587 804.75 224.316 804.814 224.076 804.941C223.839 805.069 223.652 805.255 223.514 805.5C223.378 805.745 223.311 806.042 223.311 806.391Z" fill="#D1D6DB"/>
    </g>
    <defs>
        <linearGradient id="paint0_linear_46_1483" x1="0" y1="0" x2="0" y2="852" gradientUnits="userSpaceOnUse">
            <stop stop-color="white"/>
            <stop offset="1" stop-color="#FFF8F8"/>
        </linearGradient>
        <clipPath id="clip0_46_1483">
            <rect width="393" height="852" fill="white"/>
        </clipPath>
    </defs>
</svg>
