
<svg width="393" height="852" viewBox="0 0 393 852" fill="none" xmlns="http://www.w3.org/2000/svg">
    <g clip-path="url(#clip0_46_1396)">
        <path d="M393 0H0V852H393V0Z" fill="white"/>
        <path d="M36.8313 23.9418C37.3924 23.9418 37.9322 24.0359 38.4506 24.2241C38.9727 24.4123 39.4379 24.7124 39.8462 25.1243C40.2582 25.5362 40.5831 26.0831 40.821 26.7649C41.0625 27.4432 41.185 28.2759 41.1886 29.2631C41.1886 30.19 41.0838 31.0174 40.8743 31.7454C40.6683 32.4698 40.3718 33.0859 39.9847 33.5938C39.5977 34.1016 39.1307 34.4886 38.5838 34.755C38.0369 35.0178 37.4261 35.1491 36.7514 35.1491C36.0234 35.1491 35.3807 35.0089 34.8232 34.7283C34.2656 34.4442 33.8164 34.0589 33.4755 33.5724C33.1381 33.0824 32.9339 32.532 32.8629 31.9212H35.1374C35.2262 32.3189 35.4126 32.6278 35.6967 32.848C35.9808 33.0646 36.3324 33.1729 36.7514 33.1729C37.4616 33.1729 38.0014 32.864 38.3707 32.2461C38.7401 31.6246 38.9265 30.7741 38.93 29.6946H38.8555C38.6921 30.0142 38.4719 30.2894 38.195 30.5202C37.918 30.7475 37.6001 30.9233 37.2415 31.0476C36.8864 31.1719 36.5082 31.234 36.1069 31.234C35.4641 31.234 34.8906 31.0831 34.3864 30.7812C33.8821 30.4794 33.4844 30.0639 33.1932 29.5348C32.902 29.0057 32.7564 28.402 32.7564 27.7237C32.7528 26.9922 32.9215 26.3406 33.2624 25.7688C33.6033 25.1971 34.0792 24.7496 34.69 24.4265C35.3043 24.0998 36.0181 23.9382 36.8313 23.9418ZM36.8473 25.7528C36.4886 25.7528 36.169 25.8381 35.8885 26.0085C35.6115 26.179 35.3913 26.408 35.228 26.6957C35.0682 26.9833 34.9901 27.3047 34.9936 27.6598C34.9936 28.0185 35.0717 28.3416 35.228 28.6293C35.3878 28.9134 35.6044 29.1406 35.8778 29.3111C36.1548 29.478 36.4709 29.5614 36.826 29.5614C37.0923 29.5614 37.3391 29.5117 37.5664 29.4123C37.7937 29.3129 37.9908 29.1761 38.1577 29.0021C38.3281 28.8246 38.4613 28.6204 38.5572 28.3896C38.6531 28.1587 38.701 27.9137 38.701 27.6545C38.6974 27.31 38.6158 26.994 38.456 26.7063C38.2962 26.4187 38.076 26.1879 37.7955 26.0138C37.5149 25.8398 37.1989 25.7528 36.8473 25.7528ZM44.1342 33.7322C43.7827 33.7322 43.4808 33.608 43.2287 33.3594C42.9801 33.1108 42.8558 32.8089 42.8558 32.4538C42.8558 32.1058 42.9801 31.8075 43.2287 31.5589C43.4808 31.3104 43.7827 31.1861 44.1342 31.1861C44.4751 31.1861 44.7734 31.3104 45.0291 31.5589C45.2848 31.8075 45.4126 32.1058 45.4126 32.4538C45.4126 32.6882 45.3523 32.9031 45.2315 33.0984C45.1143 33.2901 44.9599 33.4446 44.7681 33.5618C44.5763 33.6754 44.3651 33.7322 44.1342 33.7322ZM44.1342 28.3789C43.7827 28.3789 43.4808 28.2546 43.2287 28.006C42.9801 27.7575 42.8558 27.4556 42.8558 27.1005C42.8558 26.7525 42.9801 26.456 43.2287 26.2109C43.4808 25.9624 43.7827 25.8381 44.1342 25.8381C44.4751 25.8381 44.7734 25.9624 45.0291 26.2109C45.2848 26.456 45.4126 26.7525 45.4126 27.1005C45.4126 27.3384 45.3523 27.555 45.2315 27.7504C45.1143 27.9421 44.9599 28.0948 44.7681 28.2085C44.5763 28.3221 44.3651 28.3789 44.1342 28.3789ZM47.0892 33.0824V31.266L51.6436 24.0909H53.2096V26.6051H52.2828L49.4117 31.1488V31.234H55.8836V33.0824H47.0892ZM52.3254 35V32.5284L52.368 31.7241V24.0909H54.5306V35H52.3254ZM62.02 24.0909V35H59.7135V26.2802H59.6496L57.1514 27.8462V25.8008L59.852 24.0909H62.02Z" fill="#191F28"/>
        <path d="M197 242C197 242 179 228 179 217C179 210 184 204 191 204C194 204 197 206 197 209C197 206 200 204 203 204C210 204 215 210 215 217C215 228 197 242 197 242Z" stroke="#FF6B6B" stroke-width="2"/>
        <path d="M203 216H191C189.343 216 188 217.343 188 219V227C188 228.657 189.343 230 191 230H203C204.657 230 206 228.657 206 227V219C206 217.343 204.657 216 203 216Z" stroke="#FF6B6B" stroke-width="1.4"/>
        <path d="M188 221H206" stroke="#FF6B6B"/>
        <path d="M107.318 268.888H110.51V291.184H107.318V268.888ZM93.4218 283.24H95.3418C96.8938 283.24 98.2538 283.224 99.4218 283.192C100.606 283.16 101.686 283.096 102.662 283C103.654 282.904 104.646 282.76 105.638 282.568L105.926 285.208C104.918 285.4 103.902 285.552 102.878 285.664C101.87 285.76 100.758 285.824 99.5418 285.856C98.3258 285.872 96.9258 285.88 95.3418 285.88H93.4218V283.24ZM93.4218 270.856H104.126V273.448H96.5898V284.248H93.4218V270.856ZM119.508 272.416H122.052V274.912C122.052 276.192 121.916 277.448 121.644 278.68C121.388 279.912 120.996 281.072 120.468 282.16C119.956 283.232 119.308 284.184 118.524 285.016C117.74 285.832 116.828 286.48 115.788 286.96L113.964 284.44C114.892 284.008 115.7 283.448 116.388 282.76C117.092 282.072 117.668 281.304 118.116 280.456C118.58 279.592 118.924 278.688 119.148 277.744C119.388 276.784 119.508 275.84 119.508 274.912V272.416ZM120.204 272.416H122.724V274.912C122.724 275.792 122.836 276.688 123.06 277.6C123.3 278.496 123.644 279.352 124.092 280.168C124.54 280.968 125.108 281.688 125.796 282.328C126.484 282.968 127.3 283.48 128.244 283.864L126.492 286.408C125.436 285.944 124.516 285.32 123.732 284.536C122.948 283.752 122.292 282.848 121.764 281.824C121.236 280.8 120.844 279.704 120.588 278.536C120.332 277.352 120.204 276.144 120.204 274.912V272.416ZM114.852 271.024H127.332V273.664H114.852V271.024ZM129.396 268.912H132.588V291.136H129.396V268.912ZM137.242 277.72H138.994C140.322 277.72 141.506 277.72 142.546 277.72C143.586 277.704 144.562 277.664 145.474 277.6C146.386 277.536 147.314 277.432 148.258 277.288L148.474 279.76C147.514 279.904 146.562 280.016 145.618 280.096C144.69 280.16 143.69 280.2 142.618 280.216C141.562 280.216 140.354 280.216 138.994 280.216H137.242V277.72ZM137.242 270.136H147.514V272.584H140.434V279.352H137.242V270.136ZM139.618 273.952H146.842V276.28H139.618V273.952ZM148.138 273.616H152.218V276.112H148.138V273.616ZM151.618 268.888H154.81V280.648H151.618V268.888ZM140.122 281.464H154.81V287.32H143.314V290.128H140.17V285.064H151.666V283.888H140.122V281.464ZM140.17 288.568H155.458V290.992H140.17V288.568ZM165.931 270.928H179.995V273.472H165.931V270.928ZM163.867 285.64H183.979V288.232H163.867V285.64ZM178.315 270.928H181.507V273.568C181.507 274.608 181.491 275.664 181.459 276.736C181.443 277.808 181.379 278.952 181.267 280.168C181.171 281.384 180.979 282.76 180.691 284.296L177.499 284.008C177.787 282.584 177.979 281.272 178.075 280.072C178.187 278.872 178.251 277.744 178.267 276.688C178.299 275.616 178.315 274.576 178.315 273.568V270.928ZM185.945 279.664H206.057V282.136H185.945V279.664ZM194.369 280.504H197.561V284.032H194.369V280.504ZM188.441 283.096H191.585V284.872H200.537V283.096H203.681V290.896H188.441V283.096ZM191.585 287.176V288.496H200.537V287.176H191.585ZM188.393 269.224H203.609V274.984H191.585V277.528H188.441V272.752H200.465V271.6H188.393V269.224ZM188.441 276.184H204.041V278.56H188.441V276.184ZM227.762 268.864H230.978V291.16H227.762V268.864ZM230.282 277.096H234.194V279.736H230.282V277.096ZM214.418 283.192H216.29C217.554 283.192 218.738 283.176 219.842 283.144C220.946 283.096 222.018 283.024 223.058 282.928C224.098 282.816 225.162 282.664 226.25 282.472L226.562 285.112C225.442 285.304 224.338 285.456 223.25 285.568C222.178 285.68 221.074 285.752 219.938 285.784C218.802 285.816 217.586 285.832 216.29 285.832H214.418V283.192ZM214.418 270.928H224.786V273.496H217.61V284.44H214.418V270.928ZM250.896 268.864H254.088V291.16H250.896V268.864ZM242.112 270.424C243.248 270.424 244.256 270.752 245.136 271.408C246.016 272.048 246.704 272.968 247.2 274.168C247.712 275.352 247.968 276.752 247.968 278.368C247.968 280 247.712 281.416 247.2 282.616C246.704 283.8 246.016 284.72 245.136 285.376C244.256 286.016 243.248 286.336 242.112 286.336C240.992 286.336 239.992 286.016 239.112 285.376C238.232 284.72 237.536 283.8 237.024 282.616C236.528 281.416 236.28 280 236.28 278.368C236.28 276.752 236.528 275.352 237.024 274.168C237.536 272.968 238.232 272.048 239.112 271.408C239.992 270.752 240.992 270.424 242.112 270.424ZM242.112 273.328C241.568 273.328 241.088 273.52 240.672 273.904C240.256 274.288 239.928 274.856 239.688 275.608C239.464 276.344 239.352 277.264 239.352 278.368C239.352 279.456 239.464 280.384 239.688 281.152C239.928 281.904 240.256 282.472 240.672 282.856C241.088 283.24 241.568 283.432 242.112 283.432C242.672 283.432 243.16 283.24 243.576 282.856C243.992 282.472 244.312 281.904 244.536 281.152C244.776 280.384 244.896 279.456 244.896 278.368C244.896 277.264 244.776 276.344 244.536 275.608C244.312 274.856 243.992 274.288 243.576 273.904C243.16 273.52 242.672 273.328 242.112 273.328ZM263.806 270.424C264.91 270.424 265.894 270.752 266.758 271.408C267.638 272.048 268.318 272.968 268.798 274.168C269.294 275.352 269.542 276.752 269.542 278.368C269.542 280 269.294 281.416 268.798 282.616C268.318 283.8 267.638 284.72 266.758 285.376C265.894 286.016 264.91 286.336 263.806 286.336C262.702 286.336 261.718 286.016 260.854 285.376C259.99 284.72 259.31 283.8 258.814 282.616C258.318 281.416 258.07 280 258.07 278.368C258.07 276.752 258.318 275.352 258.814 274.168C259.31 272.968 259.99 272.048 260.854 271.408C261.718 270.752 262.702 270.424 263.806 270.424ZM263.806 273.328C263.278 273.328 262.806 273.52 262.39 273.904C261.99 274.288 261.678 274.856 261.454 275.608C261.23 276.344 261.118 277.264 261.118 278.368C261.118 279.456 261.23 280.384 261.454 281.152C261.678 281.904 261.99 282.472 262.39 282.856C262.806 283.24 263.278 283.432 263.806 283.432C264.366 283.432 264.846 283.24 265.246 282.856C265.646 282.472 265.958 281.904 266.182 281.152C266.406 280.384 266.518 279.456 266.518 278.368C266.518 277.264 266.406 276.344 266.182 275.608C265.958 274.856 265.646 274.288 265.246 273.904C264.846 273.52 264.366 273.328 263.806 273.328ZM273.19 268.864H276.382V291.16H273.19V268.864ZM268.606 276.904H274.534V279.448H268.606V276.904ZM295.1 268.864H298.316V291.16H295.1V268.864ZM281.012 283.384H282.98C284.292 283.384 285.532 283.368 286.7 283.336C287.868 283.288 289.012 283.216 290.132 283.12C291.252 283.008 292.396 282.848 293.564 282.64L293.9 285.208C292.108 285.528 290.34 285.744 288.596 285.856C286.868 285.952 284.996 286 282.98 286H281.012V283.384ZM280.964 270.76H291.452V279.376H284.252V284.368H281.012V276.856H288.212V273.328H280.964V270.76Z" fill="#191F28"/>
        <path d="M96.1844 314.474H107.664V315.454H96.1844V314.474ZM101.294 311.408H102.442V314.796H101.294V311.408ZM101.252 305.262H102.274V306.242C102.274 306.793 102.176 307.311 101.98 307.796C101.794 308.272 101.532 308.72 101.196 309.14C100.86 309.551 100.473 309.919 100.034 310.246C99.605 310.573 99.143 310.848 98.6484 311.072C98.1537 311.296 97.6497 311.459 97.1364 311.562L96.6324 310.596C97.0804 310.521 97.5237 310.391 97.9624 310.204C98.4104 310.008 98.8304 309.775 99.2224 309.504C99.6144 309.224 99.9644 308.916 100.272 308.58C100.58 308.235 100.818 307.866 100.986 307.474C101.164 307.073 101.252 306.662 101.252 306.242V305.262ZM101.462 305.262H102.47V306.242C102.47 306.671 102.559 307.082 102.736 307.474C102.914 307.866 103.156 308.235 103.464 308.58C103.772 308.916 104.122 309.224 104.514 309.504C104.916 309.784 105.336 310.017 105.774 310.204C106.222 310.391 106.67 310.521 107.118 310.596L106.614 311.562C106.101 311.459 105.597 311.296 105.102 311.072C104.608 310.848 104.141 310.573 103.702 310.246C103.264 309.919 102.876 309.551 102.54 309.14C102.204 308.72 101.938 308.267 101.742 307.782C101.556 307.297 101.462 306.783 101.462 306.242V305.262ZM115.839 305.724H118.681V306.648H115.839V305.724ZM115.839 307.992H118.681V308.916H115.839V307.992ZM118.317 304.422H119.479V311.058H118.317V304.422ZM111.331 311.674H119.479V314.67H112.493V316.602H111.359V313.802H118.331V312.598H111.331V311.674ZM111.359 316H119.941V316.924H111.359V316ZM112.227 304.744H113.151V306.074C113.151 306.83 113.002 307.544 112.703 308.216C112.414 308.888 112.008 309.476 111.485 309.98C110.963 310.475 110.356 310.848 109.665 311.1L109.063 310.204C109.53 310.036 109.955 309.812 110.337 309.532C110.729 309.243 111.065 308.916 111.345 308.552C111.625 308.188 111.84 307.796 111.989 307.376C112.148 306.947 112.227 306.513 112.227 306.074V304.744ZM112.437 304.744H113.361V306.074C113.361 306.494 113.436 306.905 113.585 307.306C113.735 307.698 113.945 308.067 114.215 308.412C114.495 308.757 114.827 309.065 115.209 309.336C115.592 309.597 116.007 309.807 116.455 309.966L115.853 310.862C115.181 310.61 114.589 310.246 114.075 309.77C113.562 309.294 113.161 308.739 112.871 308.104C112.582 307.469 112.437 306.793 112.437 306.074V304.744ZM130.794 307.936H133.594V308.888H130.794V307.936ZM130.696 311.114H133.566V312.066H130.696V311.114ZM135.526 304.422H136.646V317.092H135.526V304.422ZM132.978 304.758H134.084V316.448H132.978V304.758ZM130.164 306.032H131.284C131.284 307.133 131.125 308.193 130.808 309.21C130.49 310.218 129.982 311.161 129.282 312.038C128.591 312.906 127.681 313.681 126.552 314.362L125.866 313.522C126.855 312.925 127.667 312.253 128.302 311.506C128.936 310.75 129.403 309.933 129.702 309.056C130.01 308.169 130.164 307.231 130.164 306.242V306.032ZM126.426 306.032H130.612V306.984H126.426V306.032ZM145.521 307.712H148.363V308.678H145.521V307.712ZM148.013 304.422H149.175V311.968H148.013V304.422ZM145.003 312.36C145.88 312.36 146.631 312.453 147.257 312.64C147.891 312.827 148.377 313.097 148.713 313.452C149.049 313.797 149.217 314.222 149.217 314.726C149.217 315.473 148.839 316.051 148.083 316.462C147.336 316.873 146.309 317.078 145.003 317.078C143.696 317.078 142.665 316.873 141.909 316.462C141.162 316.051 140.789 315.473 140.789 314.726C140.789 314.222 140.957 313.797 141.293 313.452C141.638 313.097 142.123 312.827 142.749 312.64C143.383 312.453 144.135 312.36 145.003 312.36ZM145.003 313.27C144.368 313.27 143.822 313.326 143.365 313.438C142.907 313.55 142.553 313.713 142.301 313.928C142.058 314.143 141.937 314.409 141.937 314.726C141.937 315.025 142.058 315.281 142.301 315.496C142.553 315.711 142.907 315.879 143.365 316C143.822 316.112 144.368 316.168 145.003 316.168C145.647 316.168 146.193 316.112 146.641 316C147.098 315.879 147.448 315.711 147.691 315.496C147.943 315.281 148.069 315.025 148.069 314.726C148.069 314.409 147.943 314.143 147.691 313.928C147.448 313.713 147.098 313.55 146.641 313.438C146.193 313.326 145.647 313.27 145.003 313.27ZM141.979 305.71H142.931V306.732C142.931 307.507 142.781 308.235 142.483 308.916C142.193 309.588 141.783 310.181 141.251 310.694C140.719 311.198 140.103 311.585 139.403 311.856L138.801 310.932C139.277 310.764 139.706 310.535 140.089 310.246C140.481 309.957 140.817 309.625 141.097 309.252C141.386 308.879 141.605 308.477 141.755 308.048C141.904 307.619 141.979 307.18 141.979 306.732V305.71ZM142.203 305.71H143.155V306.718C143.155 307.259 143.281 307.787 143.533 308.3C143.785 308.813 144.144 309.266 144.611 309.658C145.077 310.05 145.614 310.358 146.221 310.582L145.633 311.506C144.942 311.254 144.34 310.89 143.827 310.414C143.313 309.929 142.912 309.369 142.623 308.734C142.343 308.099 142.203 307.427 142.203 306.718V305.71ZM139.165 305.346H145.927V306.298H139.165V305.346ZM157.35 305.234C158.236 305.234 159.025 305.379 159.716 305.668C160.406 305.957 160.952 306.363 161.354 306.886C161.755 307.409 161.956 308.02 161.956 308.72C161.956 309.429 161.755 310.045 161.354 310.568C160.952 311.091 160.406 311.497 159.716 311.786C159.025 312.075 158.236 312.22 157.35 312.22C156.482 312.22 155.698 312.075 154.998 311.786C154.307 311.497 153.761 311.091 153.36 310.568C152.958 310.045 152.758 309.429 152.758 308.72C152.758 308.02 152.958 307.409 153.36 306.886C153.761 306.363 154.307 305.957 154.998 305.668C155.698 305.379 156.482 305.234 157.35 305.234ZM157.35 306.172C156.687 306.172 156.094 306.279 155.572 306.494C155.049 306.709 154.634 307.007 154.326 307.39C154.018 307.763 153.864 308.207 153.864 308.72C153.864 309.224 154.018 309.667 154.326 310.05C154.634 310.433 155.049 310.731 155.572 310.946C156.094 311.161 156.687 311.268 157.35 311.268C158.022 311.268 158.619 311.161 159.142 310.946C159.664 310.731 160.075 310.433 160.374 310.05C160.682 309.667 160.836 309.224 160.836 308.72C160.836 308.207 160.682 307.763 160.374 307.39C160.075 307.007 159.664 306.709 159.142 306.494C158.619 306.279 158.022 306.172 157.35 306.172ZM151.638 314.446H163.118V315.412H151.638V314.446ZM164.516 314.558H175.996V315.524H164.516V314.558ZM169.654 311.856H170.802V314.964H169.654V311.856ZM165.916 305.36H174.568V309.196H167.092V311.73H165.944V308.272H173.42V306.312H165.916V305.36ZM165.944 311.24H174.862V312.192H165.944V311.24ZM185.127 316.139C184.471 316.139 183.886 316.027 183.372 315.801C182.862 315.576 182.456 315.263 182.154 314.862C181.856 314.457 181.693 313.988 181.667 313.455H182.92C182.946 313.783 183.059 314.066 183.258 314.305C183.457 314.54 183.717 314.722 184.038 314.852C184.36 314.981 184.716 315.045 185.107 315.045C185.545 315.045 185.933 314.969 186.271 314.817C186.609 314.664 186.874 314.452 187.066 314.18C187.258 313.909 187.354 313.594 187.354 313.236C187.354 312.861 187.262 312.531 187.076 312.246C186.89 311.958 186.619 311.733 186.261 311.57C185.903 311.408 185.465 311.327 184.948 311.327H184.133V310.233H184.948C185.353 310.233 185.707 310.16 186.012 310.014C186.32 309.868 186.561 309.663 186.733 309.398C186.909 309.133 186.996 308.821 186.996 308.463C186.996 308.118 186.92 307.818 186.768 307.563C186.615 307.308 186.4 307.109 186.121 306.967C185.846 306.824 185.522 306.753 185.147 306.753C184.796 306.753 184.464 306.817 184.153 306.947C183.844 307.073 183.593 307.257 183.397 307.499C183.201 307.737 183.095 308.026 183.079 308.364H181.886C181.906 307.83 182.066 307.363 182.368 306.962C182.67 306.557 183.064 306.242 183.551 306.017C184.042 305.792 184.58 305.679 185.167 305.679C185.797 305.679 186.337 305.807 186.788 306.062C187.238 306.314 187.585 306.647 187.827 307.061C188.069 307.475 188.19 307.923 188.19 308.403C188.19 308.977 188.039 309.466 187.737 309.87C187.439 310.274 187.033 310.554 186.519 310.71V310.79C187.162 310.896 187.664 311.169 188.026 311.61C188.387 312.048 188.567 312.589 188.567 313.236C188.567 313.789 188.417 314.286 188.115 314.727C187.817 315.165 187.409 315.509 186.892 315.761C186.375 316.013 185.787 316.139 185.127 316.139ZM190.247 314.53H201.727V315.496H190.247V314.53ZM195.399 311.66H196.547V315.048H195.399V311.66ZM195.385 307.082H196.421V307.362C196.421 308.006 196.286 308.594 196.015 309.126C195.744 309.649 195.371 310.115 194.895 310.526C194.419 310.927 193.878 311.263 193.271 311.534C192.664 311.795 192.016 311.982 191.325 312.094L190.877 311.184C191.493 311.081 192.072 310.918 192.613 310.694C193.164 310.47 193.644 310.19 194.055 309.854C194.475 309.518 194.802 309.14 195.035 308.72C195.268 308.3 195.385 307.847 195.385 307.362V307.082ZM195.539 307.082H196.561V307.362C196.561 307.847 196.678 308.3 196.911 308.72C197.144 309.14 197.466 309.518 197.877 309.854C198.297 310.19 198.778 310.47 199.319 310.694C199.87 310.918 200.453 311.081 201.069 311.184L200.621 312.094C199.94 311.982 199.291 311.795 198.675 311.534C198.068 311.263 197.527 310.927 197.051 310.526C196.584 310.115 196.216 309.649 195.945 309.126C195.674 308.594 195.539 308.006 195.539 307.362V307.082ZM191.311 306.424H200.635V307.376H191.311V306.424ZM195.399 304.688H196.547V306.774H195.399V304.688ZM203.644 305.57H209.468V311.422H203.644V305.57ZM208.334 306.508H204.778V310.484H208.334V306.508ZM211.792 304.422H212.954V313.704H211.792V304.422ZM212.59 308.272H214.816V309.238H212.59V308.272ZM205.072 315.86H213.514V316.812H205.072V315.86ZM205.072 312.822H206.22V316.266H205.072V312.822ZM221.143 309.35H223.523V310.302H221.143V309.35ZM225.651 304.422H226.771V317.092H225.651V304.422ZM223.131 304.688H224.237V316.448H223.131V304.688ZM218.847 305.486C219.397 305.486 219.873 305.663 220.275 306.018C220.685 306.373 221.003 306.881 221.227 307.544C221.451 308.207 221.563 308.986 221.563 309.882C221.563 310.787 221.451 311.571 221.227 312.234C221.003 312.897 220.685 313.41 220.275 313.774C219.873 314.129 219.397 314.306 218.847 314.306C218.315 314.306 217.843 314.129 217.433 313.774C217.031 313.41 216.719 312.897 216.495 312.234C216.271 311.571 216.159 310.787 216.159 309.882C216.159 308.986 216.271 308.207 216.495 307.544C216.719 306.881 217.031 306.373 217.433 306.018C217.843 305.663 218.315 305.486 218.847 305.486ZM218.847 306.564C218.52 306.564 218.235 306.699 217.993 306.97C217.75 307.241 217.563 307.623 217.433 308.118C217.302 308.613 217.237 309.201 217.237 309.882C217.237 310.563 217.302 311.156 217.433 311.66C217.563 312.155 217.75 312.537 217.993 312.808C218.235 313.079 218.52 313.214 218.847 313.214C219.183 313.214 219.472 313.079 219.715 312.808C219.967 312.537 220.158 312.155 220.289 311.66C220.419 311.156 220.485 310.563 220.485 309.882C220.485 309.201 220.419 308.613 220.289 308.118C220.158 307.623 219.967 307.241 219.715 306.97C219.472 306.699 219.183 306.564 218.847 306.564ZM236.153 305.514H237.119V307.782C237.119 308.51 237.026 309.219 236.839 309.91C236.662 310.591 236.405 311.231 236.069 311.828C235.742 312.416 235.355 312.939 234.907 313.396C234.468 313.844 233.988 314.199 233.465 314.46L232.751 313.494C233.227 313.279 233.67 312.971 234.081 312.57C234.492 312.169 234.851 311.716 235.159 311.212C235.467 310.699 235.71 310.148 235.887 309.56C236.064 308.972 236.153 308.379 236.153 307.782V305.514ZM236.349 305.514H237.315V307.782C237.315 308.361 237.399 308.93 237.567 309.49C237.744 310.05 237.987 310.582 238.295 311.086C238.612 311.581 238.972 312.019 239.373 312.402C239.784 312.775 240.222 313.069 240.689 313.284L239.989 314.208C239.476 313.965 239 313.625 238.561 313.186C238.122 312.747 237.735 312.243 237.399 311.674C237.072 311.105 236.816 310.489 236.629 309.826C236.442 309.163 236.349 308.482 236.349 307.782V305.514ZM242.019 304.422H243.181V317.106H242.019V304.422ZM248.822 305.724H249.774V306.746C249.774 307.521 249.625 308.244 249.326 308.916C249.037 309.579 248.631 310.157 248.108 310.652C247.585 311.137 246.969 311.506 246.26 311.758L245.644 310.862C246.279 310.638 246.834 310.316 247.31 309.896C247.786 309.476 248.155 309 248.416 308.468C248.687 307.927 248.822 307.353 248.822 306.746V305.724ZM249.032 305.724H249.984V306.746C249.984 307.297 250.11 307.829 250.362 308.342C250.614 308.855 250.969 309.308 251.426 309.7C251.893 310.092 252.434 310.395 253.05 310.61L252.462 311.52C251.771 311.268 251.165 310.909 250.642 310.442C250.129 309.966 249.732 309.411 249.452 308.776C249.172 308.141 249.032 307.465 249.032 306.746V305.724ZM245.994 305.304H252.77V306.256H245.994V305.304ZM254.366 304.422H255.528V312.052H254.366V304.422ZM255.206 307.754H257.39V308.734H255.206V307.754ZM247.296 312.724H255.528V317.092H254.366V313.676H247.296V312.724ZM267.161 304.422H268.309V317.092H267.161V304.422ZM268.043 309.63H270.381V310.61H268.043V309.63ZM258.509 306.452H265.971V307.404H258.509V306.452ZM262.303 308.44C262.9 308.44 263.428 308.566 263.885 308.818C264.352 309.07 264.716 309.415 264.977 309.854C265.248 310.283 265.383 310.783 265.383 311.352C265.383 311.921 265.248 312.425 264.977 312.864C264.716 313.303 264.352 313.648 263.885 313.9C263.428 314.143 262.9 314.264 262.303 314.264C261.706 314.264 261.174 314.143 260.707 313.9C260.25 313.648 259.886 313.303 259.615 312.864C259.344 312.425 259.209 311.921 259.209 311.352C259.209 310.783 259.344 310.283 259.615 309.854C259.886 309.415 260.25 309.07 260.707 308.818C261.174 308.566 261.706 308.44 262.303 308.44ZM262.303 309.406C261.92 309.406 261.58 309.49 261.281 309.658C260.982 309.826 260.744 310.055 260.567 310.344C260.399 310.633 260.315 310.969 260.315 311.352C260.315 311.735 260.399 312.075 260.567 312.374C260.744 312.663 260.982 312.892 261.281 313.06C261.58 313.219 261.92 313.298 262.303 313.298C262.676 313.298 263.012 313.219 263.311 313.06C263.61 312.892 263.843 312.663 264.011 312.374C264.188 312.075 264.277 311.735 264.277 311.352C264.277 310.969 264.188 310.633 264.011 310.344C263.843 310.055 263.61 309.826 263.311 309.658C263.012 309.49 262.676 309.406 262.303 309.406ZM261.701 304.576H262.863V306.872H261.701V304.576ZM276.442 308.958H278.878V309.924H276.442V308.958ZM274.09 305.612H275V308.034C275 308.687 274.93 309.331 274.79 309.966C274.659 310.601 274.463 311.198 274.202 311.758C273.95 312.318 273.642 312.822 273.278 313.27C272.914 313.718 272.503 314.082 272.046 314.362L271.318 313.494C271.747 313.233 272.134 312.906 272.48 312.514C272.825 312.122 273.114 311.683 273.348 311.198C273.59 310.703 273.772 310.19 273.894 309.658C274.024 309.117 274.09 308.575 274.09 308.034V305.612ZM274.314 305.612H275.21V307.992C275.21 308.496 275.266 309.005 275.378 309.518C275.499 310.022 275.667 310.507 275.882 310.974C276.106 311.431 276.381 311.851 276.708 312.234C277.034 312.617 277.403 312.934 277.814 313.186L277.156 314.082C276.698 313.802 276.292 313.447 275.938 313.018C275.583 312.579 275.284 312.089 275.042 311.548C274.799 310.997 274.617 310.419 274.496 309.812C274.374 309.205 274.314 308.599 274.314 307.992V305.612ZM281.104 304.422H282.224V317.092H281.104V304.422ZM278.528 304.688H279.62V316.448H278.528V304.688ZM287.151 310.946H288.299V314.726H287.151V310.946ZM291.827 310.946H292.989V314.726H291.827V310.946ZM284.337 314.502H295.817V315.468H284.337V314.502ZM290.049 305.22C290.945 305.22 291.738 305.355 292.429 305.626C293.119 305.897 293.661 306.275 294.053 306.76C294.454 307.245 294.655 307.819 294.655 308.482C294.655 309.135 294.454 309.709 294.053 310.204C293.661 310.689 293.119 311.067 292.429 311.338C291.738 311.599 290.945 311.73 290.049 311.73C289.162 311.73 288.369 311.599 287.669 311.338C286.978 311.067 286.437 310.689 286.045 310.204C285.653 309.709 285.457 309.135 285.457 308.482C285.457 307.819 285.653 307.245 286.045 306.76C286.437 306.275 286.978 305.897 287.669 305.626C288.369 305.355 289.162 305.22 290.049 305.22ZM290.049 306.144C289.377 306.144 288.779 306.242 288.257 306.438C287.734 306.634 287.323 306.909 287.025 307.264C286.726 307.609 286.577 308.015 286.577 308.482C286.577 308.949 286.726 309.359 287.025 309.714C287.323 310.059 287.734 310.33 288.257 310.526C288.779 310.722 289.377 310.82 290.049 310.82C290.73 310.82 291.332 310.722 291.855 310.526C292.377 310.33 292.788 310.059 293.087 309.714C293.385 309.359 293.535 308.949 293.535 308.482C293.535 308.015 293.385 307.609 293.087 307.264C292.788 306.909 292.377 306.634 291.855 306.438C291.332 306.242 290.73 306.144 290.049 306.144Z" fill="#8B95A1"/>
        <path d="M357 400H36C29.3726 400 24 405.373 24 412V440C24 446.627 29.3726 452 36 452H357C363.627 452 369 446.627 369 440V412C369 405.373 363.627 400 357 400Z" fill="#FEE500"/>
        <path d="M59.9999 416C53.5999 416 48.3999 419.8 48.3999 424.6C48.3999 427.6 50.3999 430.2 53.3999 431.6L52.1999 435.6C52.0999 435.9 52.3999 436.1 52.5999 435.9L56.9999 433.2C57.8999 433.4 58.9999 433.4 59.9999 433.4C66.3999 433.4 71.5999 429.6 71.5999 424.6C71.5999 419.8 66.3999 416 59.9999 416Z" fill="#3C1E1E"/>
        <path d="M144.934 420.765H146.869C146.869 421.845 146.784 422.875 146.614 423.855C146.454 424.835 146.154 425.765 145.714 426.645C145.274 427.525 144.649 428.35 143.839 429.12C143.029 429.89 141.974 430.605 140.674 431.265L139.609 429.735C140.689 429.195 141.574 428.62 142.264 428.01C142.964 427.39 143.504 426.73 143.884 426.03C144.274 425.32 144.544 424.55 144.694 423.72C144.854 422.89 144.934 421.99 144.934 421.02V420.765ZM140.479 420.765H146.104V422.355H140.479V420.765ZM144.979 424.17V425.7L139.999 426.18L139.744 424.485L144.979 424.17ZM148.549 419.415H150.559V433.305H148.549V419.415ZM150.049 424.74H152.494V426.375H150.049V424.74ZM158.733 420.765H160.668C160.668 421.845 160.583 422.875 160.413 423.855C160.253 424.835 159.953 425.765 159.513 426.645C159.073 427.525 158.448 428.35 157.638 429.12C156.828 429.89 155.773 430.605 154.473 431.265L153.408 429.735C154.488 429.195 155.373 428.62 156.063 428.01C156.763 427.39 157.303 426.73 157.683 426.03C158.073 425.32 158.343 424.55 158.493 423.72C158.653 422.89 158.733 421.99 158.733 421.02V420.765ZM154.278 420.765H159.903V422.355H154.278V420.765ZM158.778 424.17V425.7L153.798 426.18L153.543 424.485L158.778 424.17ZM162.348 419.415H164.358V433.305H162.348V419.415ZM163.848 424.74H166.293V426.375H163.848V424.74ZM172.562 427.245H174.542V430.41H172.562V427.245ZM173.552 420.15C174.542 420.15 175.427 420.31 176.207 420.63C176.997 420.94 177.617 421.38 178.067 421.95C178.517 422.52 178.742 423.195 178.742 423.975C178.742 424.745 178.517 425.42 178.067 426C177.617 426.58 176.997 427.03 176.207 427.35C175.427 427.66 174.542 427.815 173.552 427.815C172.572 427.815 171.687 427.66 170.897 427.35C170.117 427.03 169.497 426.58 169.037 426C168.587 425.42 168.362 424.745 168.362 423.975C168.362 423.195 168.587 422.52 169.037 421.95C169.497 421.38 170.117 420.94 170.897 420.63C171.687 420.31 172.572 420.15 173.552 420.15ZM173.552 421.725C172.922 421.725 172.362 421.815 171.872 421.995C171.392 422.175 171.012 422.43 170.732 422.76C170.462 423.09 170.327 423.495 170.327 423.975C170.327 424.445 170.462 424.85 170.732 425.19C171.012 425.52 171.392 425.775 171.872 425.955C172.362 426.135 172.922 426.225 173.552 426.225C174.192 426.225 174.752 426.135 175.232 425.955C175.722 425.775 176.102 425.52 176.372 425.19C176.642 424.85 176.777 424.445 176.777 423.975C176.777 423.495 176.642 423.09 176.372 422.76C176.102 422.43 175.722 422.175 175.232 421.995C174.752 421.815 174.192 421.725 173.552 421.725ZM167.282 430.095H179.867V431.715H167.282V430.095ZM181.08 430.185H193.665V431.805H181.08V430.185ZM186.36 427.545H188.34V430.83H186.36V427.545ZM182.505 420.33H192.24V424.965H184.5V427.29H182.52V423.405H190.26V421.92H182.505V420.33ZM182.52 426.51H192.555V428.1H182.52V426.51ZM201.726 420.51H203.361V422.52C203.361 423.42 203.281 424.285 203.121 425.115C202.961 425.935 202.716 426.705 202.386 427.425C202.066 428.135 201.651 428.765 201.141 429.315C200.641 429.855 200.046 430.285 199.356 430.605L198.171 428.955C198.781 428.685 199.306 428.33 199.746 427.89C200.196 427.44 200.566 426.93 200.856 426.36C201.146 425.78 201.361 425.165 201.501 424.515C201.651 423.865 201.726 423.2 201.726 422.52V420.51ZM202.116 420.51H203.736V422.52C203.736 423.17 203.806 423.805 203.946 424.425C204.086 425.045 204.296 425.63 204.576 426.18C204.866 426.73 205.226 427.22 205.656 427.65C206.096 428.07 206.611 428.405 207.201 428.655L206.046 430.275C205.376 429.965 204.791 429.55 204.291 429.03C203.801 428.51 203.396 427.91 203.076 427.23C202.756 426.54 202.516 425.8 202.356 425.01C202.196 424.21 202.116 423.38 202.116 422.52V420.51ZM207.876 419.415H209.871V433.35H207.876V419.415ZM215.24 420.855H216.875V421.725C216.875 422.605 216.73 423.435 216.44 424.215C216.16 424.995 215.73 425.68 215.15 426.27C214.58 426.85 213.855 427.285 212.975 427.575L211.94 426.03C212.71 425.77 213.335 425.415 213.815 424.965C214.305 424.515 214.665 424.01 214.895 423.45C215.125 422.88 215.24 422.305 215.24 421.725V420.855ZM215.63 420.855H217.25V421.725C217.25 422.265 217.36 422.805 217.58 423.345C217.8 423.875 218.145 424.355 218.615 424.785C219.095 425.205 219.705 425.535 220.445 425.775L219.44 427.335C218.57 427.055 217.855 426.63 217.295 426.06C216.735 425.49 216.315 424.835 216.035 424.095C215.765 423.345 215.63 422.555 215.63 421.725V420.855ZM212.465 420.255H219.98V421.845H212.465V420.255ZM221.075 419.445H223.07V427.8H221.075V419.445ZM222.53 422.79H224.915V424.44H222.53V422.79ZM213.8 428.415H223.07V433.335H221.075V430.005H213.8V428.415ZM234.843 419.445H236.838V433.335H234.843V419.445ZM236.388 424.86H238.833V426.51H236.388V424.86ZM225.873 421.485H233.973V423.075H225.873V421.485ZM229.953 423.87C230.623 423.87 231.223 424.015 231.753 424.305C232.283 424.585 232.698 424.97 232.998 425.46C233.308 425.95 233.463 426.52 233.463 427.17C233.463 427.82 233.308 428.395 232.998 428.895C232.698 429.385 232.283 429.775 231.753 430.065C231.233 430.345 230.633 430.485 229.953 430.485C229.283 430.485 228.678 430.345 228.138 430.065C227.608 429.775 227.188 429.385 226.878 428.895C226.578 428.395 226.428 427.82 226.428 427.17C226.428 426.52 226.578 425.95 226.878 425.46C227.188 424.97 227.608 424.585 228.138 424.305C228.678 424.015 229.283 423.87 229.953 423.87ZM229.953 425.49C229.633 425.49 229.353 425.555 229.113 425.685C228.873 425.815 228.683 426.005 228.543 426.255C228.403 426.505 228.333 426.81 228.333 427.17C228.333 427.52 228.403 427.825 228.543 428.085C228.683 428.335 228.873 428.53 229.113 428.67C229.353 428.8 229.633 428.865 229.953 428.865C230.263 428.865 230.538 428.8 230.778 428.67C231.018 428.53 231.208 428.335 231.348 428.085C231.488 427.825 231.558 427.52 231.558 427.17C231.558 426.81 231.488 426.505 231.348 426.255C231.208 426.005 231.018 425.815 230.778 425.685C230.538 425.555 230.263 425.49 229.953 425.49ZM228.933 419.67H230.943V422.1H228.933V419.67ZM249.317 419.43H251.312V433.32H249.317V419.43ZM245.222 420.87H247.187C247.187 421.93 247.082 422.945 246.872 423.915C246.672 424.875 246.332 425.78 245.852 426.63C245.382 427.48 244.732 428.27 243.902 429C243.082 429.72 242.057 430.38 240.827 430.98L239.777 429.405C241.117 428.755 242.182 428.04 242.972 427.26C243.772 426.47 244.347 425.58 244.697 424.59C245.047 423.59 245.222 422.47 245.222 421.23V420.87ZM240.527 420.87H246.152V422.46H240.527V420.87Z" fill="#3C1E1E"/>
        <path d="M357 464H36C29.3726 464 24 469.373 24 476V504C24 510.627 29.3726 516 36 516H357C363.627 516 369 510.627 369 504V476C369 469.373 363.627 464 357 464Z" fill="#03C75A"/>
        <path d="M65.4692 483.909V497H63.0786L57.3833 488.761H57.2874V497H54.5196V483.909H56.9486L62.5992 492.142H62.7142V483.909H65.4692Z" fill="white"/>
        <path d="M140.209 484.765H142.174V492.835H140.209V484.765ZM140.209 492.325H141.184C142.014 492.325 142.799 492.3 143.539 492.25C144.289 492.2 145.064 492.095 145.864 491.935L146.119 493.6C145.289 493.77 144.479 493.88 143.689 493.93C142.899 493.98 142.064 494.005 141.184 494.005H140.209V492.325ZM149.734 483.43H151.639V497.32H149.734V483.43ZM144.064 487.825H147.244V489.43H144.064V487.825ZM146.794 483.67H148.654V496.705H146.794V483.67ZM163.008 483.415H165.003V497.35H163.008V483.415ZM157.518 484.39C158.228 484.39 158.858 484.595 159.408 485.005C159.958 485.405 160.388 485.98 160.698 486.73C161.018 487.47 161.178 488.345 161.178 489.355C161.178 490.375 161.018 491.26 160.698 492.01C160.388 492.75 159.958 493.325 159.408 493.735C158.858 494.135 158.228 494.335 157.518 494.335C156.818 494.335 156.193 494.135 155.643 493.735C155.093 493.325 154.658 492.75 154.338 492.01C154.028 491.26 153.873 490.375 153.873 489.355C153.873 488.345 154.028 487.47 154.338 486.73C154.658 485.98 155.093 485.405 155.643 485.005C156.193 484.595 156.818 484.39 157.518 484.39ZM157.518 486.205C157.178 486.205 156.878 486.325 156.618 486.565C156.358 486.805 156.153 487.16 156.003 487.63C155.863 488.09 155.793 488.665 155.793 489.355C155.793 490.035 155.863 490.615 156.003 491.095C156.153 491.565 156.358 491.92 156.618 492.16C156.878 492.4 157.178 492.52 157.518 492.52C157.868 492.52 158.173 492.4 158.433 492.16C158.693 491.92 158.893 491.565 159.033 491.095C159.183 490.615 159.258 490.035 159.258 489.355C159.258 488.665 159.183 488.09 159.033 487.63C158.893 487.16 158.693 486.805 158.433 486.565C158.173 486.325 157.868 486.205 157.518 486.205ZM176.942 483.415H178.937V497.35H176.942V483.415ZM173.792 488.305H177.512V489.91H173.792V488.305ZM167.792 484.51H169.772V487.885H172.502V484.51H174.467V494.08H167.792V484.51ZM169.772 489.43V492.49H172.502V489.43H169.772ZM181.08 494.185H193.665V495.805H181.08V494.185ZM186.36 491.545H188.34V494.83H186.36V491.545ZM182.505 484.33H192.24V488.965H184.5V491.29H182.52V487.405H190.26V485.92H182.505V484.33ZM182.52 490.51H192.555V492.1H182.52V490.51ZM201.726 484.51H203.361V486.52C203.361 487.42 203.281 488.285 203.121 489.115C202.961 489.935 202.716 490.705 202.386 491.425C202.066 492.135 201.651 492.765 201.141 493.315C200.641 493.855 200.046 494.285 199.356 494.605L198.171 492.955C198.781 492.685 199.306 492.33 199.746 491.89C200.196 491.44 200.566 490.93 200.856 490.36C201.146 489.78 201.361 489.165 201.501 488.515C201.651 487.865 201.726 487.2 201.726 486.52V484.51ZM202.116 484.51H203.736V486.52C203.736 487.17 203.806 487.805 203.946 488.425C204.086 489.045 204.296 489.63 204.576 490.18C204.866 490.73 205.226 491.22 205.656 491.65C206.096 492.07 206.611 492.405 207.201 492.655L206.046 494.275C205.376 493.965 204.791 493.55 204.291 493.03C203.801 492.51 203.396 491.91 203.076 491.23C202.756 490.54 202.516 489.8 202.356 489.01C202.196 488.21 202.116 487.38 202.116 486.52V484.51ZM207.876 483.415H209.871V497.35H207.876V483.415ZM215.24 484.855H216.875V485.725C216.875 486.605 216.73 487.435 216.44 488.215C216.16 488.995 215.73 489.68 215.15 490.27C214.58 490.85 213.855 491.285 212.975 491.575L211.94 490.03C212.71 489.77 213.335 489.415 213.815 488.965C214.305 488.515 214.665 488.01 214.895 487.45C215.125 486.88 215.24 486.305 215.24 485.725V484.855ZM215.63 484.855H217.25V485.725C217.25 486.265 217.36 486.805 217.58 487.345C217.8 487.875 218.145 488.355 218.615 488.785C219.095 489.205 219.705 489.535 220.445 489.775L219.44 491.335C218.57 491.055 217.855 490.63 217.295 490.06C216.735 489.49 216.315 488.835 216.035 488.095C215.765 487.345 215.63 486.555 215.63 485.725V484.855ZM212.465 484.255H219.98V485.845H212.465V484.255ZM221.075 483.445H223.07V491.8H221.075V483.445ZM222.53 486.79H224.915V488.44H222.53V486.79ZM213.8 492.415H223.07V497.335H221.075V494.005H213.8V492.415ZM234.843 483.445H236.838V497.335H234.843V483.445ZM236.388 488.86H238.833V490.51H236.388V488.86ZM225.873 485.485H233.973V487.075H225.873V485.485ZM229.953 487.87C230.623 487.87 231.223 488.015 231.753 488.305C232.283 488.585 232.698 488.97 232.998 489.46C233.308 489.95 233.463 490.52 233.463 491.17C233.463 491.82 233.308 492.395 232.998 492.895C232.698 493.385 232.283 493.775 231.753 494.065C231.233 494.345 230.633 494.485 229.953 494.485C229.283 494.485 228.678 494.345 228.138 494.065C227.608 493.775 227.188 493.385 226.878 492.895C226.578 492.395 226.428 491.82 226.428 491.17C226.428 490.52 226.578 489.95 226.878 489.46C227.188 488.97 227.608 488.585 228.138 488.305C228.678 488.015 229.283 487.87 229.953 487.87ZM229.953 489.49C229.633 489.49 229.353 489.555 229.113 489.685C228.873 489.815 228.683 490.005 228.543 490.255C228.403 490.505 228.333 490.81 228.333 491.17C228.333 491.52 228.403 491.825 228.543 492.085C228.683 492.335 228.873 492.53 229.113 492.67C229.353 492.8 229.633 492.865 229.953 492.865C230.263 492.865 230.538 492.8 230.778 492.67C231.018 492.53 231.208 492.335 231.348 492.085C231.488 491.825 231.558 491.52 231.558 491.17C231.558 490.81 231.488 490.505 231.348 490.255C231.208 490.005 231.018 489.815 230.778 489.685C230.538 489.555 230.263 489.49 229.953 489.49ZM228.933 483.67H230.943V486.1H228.933V483.67ZM249.317 483.43H251.312V497.32H249.317V483.43ZM245.222 484.87H247.187C247.187 485.93 247.082 486.945 246.872 487.915C246.672 488.875 246.332 489.78 245.852 490.63C245.382 491.48 244.732 492.27 243.902 493C243.082 493.72 242.057 494.38 240.827 494.98L239.777 493.405C241.117 492.755 242.182 492.04 242.972 491.26C243.772 490.47 244.347 489.58 244.697 488.59C245.047 487.59 245.222 486.47 245.222 485.23V484.87ZM240.527 484.87H246.152V486.46H240.527V484.87Z" fill="white"/>
        <path d="M357 528H36C29.3726 528 24 533.373 24 540V568C24 574.627 29.3726 580 36 580H357C363.627 580 369 574.627 369 568V540C369 533.373 363.627 528 357 528Z" fill="#191F28"/>
        <path d="M61.95 544.15C61.14 545.05 59.88 545.68 58.8 545.68C58.71 544.6 59.16 543.43 59.88 542.62C60.69 541.72 61.95 541.09 62.94 541C63.03 542.08 62.67 543.16 61.95 544.15ZM62.94 545.95C61.32 545.86 59.97 546.85 59.16 546.85C58.35 546.85 57.18 545.95 55.92 546.04C54.21 546.04 52.59 546.94 51.69 548.47C49.89 551.35 51.15 555.67 52.95 558.01C53.76 559.18 54.84 560.44 56.19 560.44C57.36 560.35 57.81 559.72 59.34 559.72C60.78 559.72 61.23 560.44 62.49 560.35C63.84 560.35 64.74 559.18 65.55 558.01C66.09 557.2 66.45 556.39 66.72 555.49C64.38 554.5 63.3 552.07 63.48 549.64C63.57 547.84 64.56 546.31 62.94 545.95Z" fill="white"/>
        <path d="M140.967 560H138.496L142.262 549.091H145.234L148.994 560H146.523L143.79 551.584H143.705L140.967 560ZM140.813 555.712H146.651V557.512H140.813V555.712ZM150.265 563.068V551.818H152.502V553.192H152.603C152.703 552.972 152.847 552.749 153.035 552.521C153.227 552.29 153.475 552.099 153.781 551.946C154.089 551.79 154.473 551.712 154.931 551.712C155.528 551.712 156.078 551.868 156.582 552.18C157.087 552.489 157.49 552.956 157.792 553.581C158.093 554.203 158.244 554.982 158.244 555.92C158.244 556.832 158.097 557.603 157.802 558.232C157.511 558.857 157.113 559.331 156.609 559.654C156.108 559.973 155.547 560.133 154.926 560.133C154.485 560.133 154.111 560.06 153.802 559.915C153.496 559.769 153.246 559.586 153.051 559.366C152.855 559.142 152.706 558.917 152.603 558.69H152.534V563.068H150.265ZM152.486 555.909C152.486 556.396 152.554 556.82 152.689 557.182C152.824 557.544 153.019 557.827 153.275 558.029C153.53 558.228 153.841 558.327 154.207 558.327C154.576 558.327 154.888 558.226 155.144 558.024C155.4 557.818 155.593 557.534 155.725 557.172C155.86 556.806 155.927 556.385 155.927 555.909C155.927 555.437 155.862 555.021 155.73 554.663C155.599 554.304 155.405 554.023 155.15 553.821C154.894 553.619 154.58 553.517 154.207 553.517C153.837 553.517 153.525 553.615 153.269 553.81C153.017 554.006 152.824 554.283 152.689 554.641C152.554 555 152.486 555.423 152.486 555.909ZM159.757 563.068V551.818H161.994V553.192H162.096C162.195 552.972 162.339 552.749 162.527 552.521C162.719 552.29 162.967 552.099 163.273 551.946C163.582 551.79 163.965 551.712 164.423 551.712C165.02 551.712 165.57 551.868 166.075 552.18C166.579 552.489 166.982 552.956 167.284 553.581C167.586 554.203 167.737 554.982 167.737 555.92C167.737 556.832 167.589 557.603 167.294 558.232C167.003 558.857 166.605 559.331 166.101 559.654C165.6 559.973 165.039 560.133 164.418 560.133C163.978 560.133 163.603 560.06 163.294 559.915C162.989 559.769 162.738 559.586 162.543 559.366C162.348 559.142 162.199 558.917 162.096 558.69H162.026V563.068H159.757ZM161.978 555.909C161.978 556.396 162.046 556.82 162.181 557.182C162.316 557.544 162.511 557.827 162.767 558.029C163.022 558.228 163.333 558.327 163.699 558.327C164.068 558.327 164.381 558.226 164.636 558.024C164.892 557.818 165.086 557.534 165.217 557.172C165.352 556.806 165.419 556.385 165.419 555.909C165.419 555.437 165.354 555.021 165.222 554.663C165.091 554.304 164.897 554.023 164.642 553.821C164.386 553.619 164.072 553.517 163.699 553.517C163.33 553.517 163.017 553.615 162.761 553.81C162.509 554.006 162.316 554.283 162.181 554.641C162.046 555 161.978 555.423 161.978 555.909ZM171.518 549.091V560H169.249V549.091H171.518ZM177.065 560.16C176.223 560.16 175.499 559.989 174.892 559.648C174.288 559.304 173.823 558.817 173.496 558.189C173.169 557.557 173.006 556.809 173.006 555.946C173.006 555.105 173.169 554.366 173.496 553.73C173.823 553.095 174.283 552.599 174.876 552.244C175.472 551.889 176.172 551.712 176.974 551.712C177.514 551.712 178.017 551.799 178.482 551.973C178.951 552.143 179.359 552.401 179.707 552.745C180.059 553.089 180.332 553.523 180.527 554.045C180.723 554.563 180.82 555.17 180.82 555.866V556.49H173.911V555.083H178.684C178.684 554.757 178.613 554.467 178.471 554.215C178.329 553.963 178.132 553.766 177.88 553.624C177.631 553.478 177.342 553.406 177.012 553.406C176.667 553.406 176.362 553.485 176.095 553.645C175.833 553.801 175.627 554.013 175.478 554.279C175.328 554.542 175.252 554.835 175.248 555.158V556.495C175.248 556.9 175.323 557.25 175.472 557.544C175.625 557.839 175.84 558.066 176.117 558.226C176.394 558.386 176.722 558.466 177.102 558.466C177.354 558.466 177.585 558.43 177.795 558.359C178.004 558.288 178.184 558.182 178.333 558.04C178.482 557.898 178.595 557.724 178.674 557.518L180.772 557.656C180.666 558.161 180.447 558.601 180.117 558.977C179.79 559.35 179.368 559.641 178.849 559.851C178.334 560.057 177.74 560.16 177.065 560.16ZM182.011 558.185H194.596V559.805H182.011V558.185ZM187.291 555.545H189.271V558.83H187.291V555.545ZM183.436 548.33H193.171V552.965H185.431V555.29H183.451V551.405H191.191V549.92H183.436V548.33ZM183.451 554.51H193.486V556.1H183.451V554.51ZM202.656 548.51H204.291V550.52C204.291 551.42 204.211 552.285 204.051 553.115C203.891 553.935 203.646 554.705 203.316 555.425C202.996 556.135 202.581 556.765 202.071 557.315C201.571 557.855 200.976 558.285 200.286 558.605L199.101 556.955C199.711 556.685 200.236 556.33 200.676 555.89C201.126 555.44 201.496 554.93 201.786 554.36C202.076 553.78 202.291 553.165 202.431 552.515C202.581 551.865 202.656 551.2 202.656 550.52V548.51ZM203.046 548.51H204.666V550.52C204.666 551.17 204.736 551.805 204.876 552.425C205.016 553.045 205.226 553.63 205.506 554.18C205.796 554.73 206.156 555.22 206.586 555.65C207.026 556.07 207.541 556.405 208.131 556.655L206.976 558.275C206.306 557.965 205.721 557.55 205.221 557.03C204.731 556.51 204.326 555.91 204.006 555.23C203.686 554.54 203.446 553.8 203.286 553.01C203.126 552.21 203.046 551.38 203.046 550.52V548.51ZM208.806 547.415H210.801V561.35H208.806V547.415ZM216.17 548.855H217.805V549.725C217.805 550.605 217.66 551.435 217.37 552.215C217.09 552.995 216.66 553.68 216.08 554.27C215.51 554.85 214.785 555.285 213.905 555.575L212.87 554.03C213.64 553.77 214.265 553.415 214.745 552.965C215.235 552.515 215.595 552.01 215.825 551.45C216.055 550.88 216.17 550.305 216.17 549.725V548.855ZM216.56 548.855H218.18V549.725C218.18 550.265 218.29 550.805 218.51 551.345C218.73 551.875 219.075 552.355 219.545 552.785C220.025 553.205 220.635 553.535 221.375 553.775L220.37 555.335C219.5 555.055 218.785 554.63 218.225 554.06C217.665 553.49 217.245 552.835 216.965 552.095C216.695 551.345 216.56 550.555 216.56 549.725V548.855ZM213.395 548.255H220.91V549.845H213.395V548.255ZM222.005 547.445H224V555.8H222.005V547.445ZM223.46 550.79H225.845V552.44H223.46V550.79ZM214.73 556.415H224V561.335H222.005V558.005H214.73V556.415ZM235.774 547.445H237.769V561.335H235.774V547.445ZM237.319 552.86H239.764V554.51H237.319V552.86ZM226.804 549.485H234.904V551.075H226.804V549.485ZM230.884 551.87C231.554 551.87 232.154 552.015 232.684 552.305C233.214 552.585 233.629 552.97 233.929 553.46C234.239 553.95 234.394 554.52 234.394 555.17C234.394 555.82 234.239 556.395 233.929 556.895C233.629 557.385 233.214 557.775 232.684 558.065C232.164 558.345 231.564 558.485 230.884 558.485C230.214 558.485 229.609 558.345 229.069 558.065C228.539 557.775 228.119 557.385 227.809 556.895C227.509 556.395 227.359 555.82 227.359 555.17C227.359 554.52 227.509 553.95 227.809 553.46C228.119 552.97 228.539 552.585 229.069 552.305C229.609 552.015 230.214 551.87 230.884 551.87ZM230.884 553.49C230.564 553.49 230.284 553.555 230.044 553.685C229.804 553.815 229.614 554.005 229.474 554.255C229.334 554.505 229.264 554.81 229.264 555.17C229.264 555.52 229.334 555.825 229.474 556.085C229.614 556.335 229.804 556.53 230.044 556.67C230.284 556.8 230.564 556.865 230.884 556.865C231.194 556.865 231.469 556.8 231.709 556.67C231.949 556.53 232.139 556.335 232.279 556.085C232.419 555.825 232.489 555.52 232.489 555.17C232.489 554.81 232.419 554.505 232.279 554.255C232.139 554.005 231.949 553.815 231.709 553.685C231.469 553.555 231.194 553.49 230.884 553.49ZM229.864 547.67H231.874V550.1H229.864V547.67ZM250.248 547.43H252.243V561.32H250.248V547.43ZM246.153 548.87H248.118C248.118 549.93 248.013 550.945 247.803 551.915C247.603 552.875 247.263 553.78 246.783 554.63C246.313 555.48 245.663 556.27 244.833 557C244.013 557.72 242.988 558.38 241.758 558.98L240.708 557.405C242.048 556.755 243.113 556.04 243.903 555.26C244.703 554.47 245.278 553.58 245.628 552.59C245.978 551.59 246.153 550.47 246.153 549.23V548.87ZM241.458 548.87H247.083V550.46H241.458V548.87Z" fill="white"/>
        <path d="M50.1742 638.764H60.0142V639.592H50.1742V638.764ZM54.5782 636.448H55.5622V639.112H54.5782V636.448ZM51.3742 630.88H58.7902V634.168H52.3822V636.34H51.3982V633.376H57.8062V631.696H51.3742V630.88ZM51.3982 635.92H59.0422V636.736H51.3982V635.92ZM62.2813 631.228H69.2653V632.044H62.2813V631.228ZM61.2133 638.524H71.0173V639.352H61.2133V638.524ZM68.7253 631.228H69.7093V632.32C69.7093 632.776 69.7013 633.264 69.6853 633.784C69.6773 634.296 69.6453 634.864 69.5893 635.488C69.5333 636.112 69.4373 636.816 69.3013 637.6L68.2933 637.492C68.4373 636.756 68.5373 636.08 68.5933 635.464C68.6573 634.848 68.6933 634.28 68.7013 633.76C68.7173 633.24 68.7253 632.76 68.7253 632.32V631.228ZM80.1483 630.088H81.1443V638.008H80.1483V630.088ZM74.1723 639.88H81.4803V640.696H74.1723V639.88ZM74.1723 637.204H75.1683V640.156H74.1723V637.204ZM75.3243 630.844C75.8683 630.844 76.3523 630.956 76.7763 631.18C77.2003 631.404 77.5363 631.72 77.7843 632.128C78.0323 632.528 78.1563 632.988 78.1563 633.508C78.1563 634.028 78.0323 634.492 77.7843 634.9C77.5363 635.3 77.2003 635.616 76.7763 635.848C76.3523 636.072 75.8683 636.184 75.3243 636.184C74.7883 636.184 74.3043 636.072 73.8723 635.848C73.4483 635.616 73.1123 635.3 72.8643 634.9C72.6163 634.492 72.4923 634.028 72.4923 633.508C72.4923 632.988 72.6163 632.528 72.8643 632.128C73.1123 631.72 73.4483 631.404 73.8723 631.18C74.3043 630.956 74.7883 630.844 75.3243 630.844ZM75.3243 631.708C74.9723 631.708 74.6563 631.784 74.3763 631.936C74.0963 632.088 73.8723 632.3 73.7043 632.572C73.5443 632.844 73.4643 633.156 73.4643 633.508C73.4643 633.868 73.5443 634.184 73.7043 634.456C73.8723 634.72 74.0963 634.928 74.3763 635.08C74.6563 635.232 74.9723 635.308 75.3243 635.308C75.6763 635.308 75.9923 635.232 76.2723 635.08C76.5603 634.928 76.7843 634.72 76.9443 634.456C77.1043 634.184 77.1843 633.868 77.1843 633.508C77.1843 633.156 77.1043 632.844 76.9443 632.572C76.7843 632.3 76.5603 632.088 76.2723 631.936C75.9923 631.784 75.6763 631.708 75.3243 631.708ZM89.5224 631.012H90.3504V632.956C90.3504 633.58 90.2704 634.188 90.1104 634.78C89.9584 635.364 89.7384 635.912 89.4504 636.424C89.1704 636.928 88.8384 637.376 88.4544 637.768C88.0784 638.152 87.6664 638.456 87.2184 638.68L86.6064 637.852C87.0144 637.668 87.3944 637.404 87.7464 637.06C88.0984 636.716 88.4064 636.328 88.6704 635.896C88.9344 635.456 89.1424 634.984 89.2944 634.48C89.4464 633.976 89.5224 633.468 89.5224 632.956V631.012ZM89.6904 631.012H90.5184V632.956C90.5184 633.452 90.5904 633.94 90.7344 634.42C90.8864 634.9 91.0944 635.356 91.3584 635.788C91.6304 636.212 91.9384 636.588 92.2824 636.916C92.6344 637.236 93.0104 637.488 93.4104 637.672L92.8104 638.464C92.3704 638.256 91.9624 637.964 91.5864 637.588C91.2104 637.212 90.8784 636.78 90.5904 636.292C90.3104 635.804 90.0904 635.276 89.9304 634.708C89.7704 634.14 89.6904 633.556 89.6904 632.956V631.012ZM94.5504 630.076H95.5464V640.948H94.5504V630.076ZM108.964 630.076H109.96V640.948H108.964V630.076ZM104.236 630.916C104.772 630.916 105.244 631.072 105.652 631.384C106.068 631.688 106.392 632.124 106.624 632.692C106.864 633.26 106.984 633.928 106.984 634.696C106.984 635.464 106.864 636.132 106.624 636.7C106.392 637.268 106.068 637.708 105.652 638.02C105.244 638.332 104.772 638.488 104.236 638.488C103.7 638.488 103.224 638.332 102.808 638.02C102.392 637.708 102.064 637.268 101.824 636.7C101.592 636.132 101.476 635.464 101.476 634.696C101.476 633.928 101.592 633.26 101.824 632.692C102.064 632.124 102.392 631.688 102.808 631.384C103.224 631.072 103.7 630.916 104.236 630.916ZM104.236 631.804C103.876 631.804 103.56 631.924 103.288 632.164C103.024 632.396 102.816 632.732 102.664 633.172C102.512 633.604 102.436 634.112 102.436 634.696C102.436 635.28 102.512 635.792 102.664 636.232C102.816 636.664 103.024 637 103.288 637.24C103.56 637.48 103.876 637.6 104.236 637.6C104.588 637.6 104.896 637.48 105.16 637.24C105.432 637 105.644 636.664 105.796 636.232C105.948 635.792 106.024 635.28 106.024 634.696C106.024 634.112 105.948 633.604 105.796 633.172C105.644 632.732 105.432 632.396 105.16 632.164C104.896 631.924 104.588 631.804 104.236 631.804ZM114.532 633.76H115.528V635.8H114.532V633.76ZM118.516 633.76H119.5V635.8H118.516V633.76ZM112.12 635.44H121.924V636.244H112.12V635.44ZM117.016 637.072C118.176 637.072 119.084 637.236 119.74 637.564C120.396 637.892 120.724 638.364 120.724 638.98C120.724 639.604 120.396 640.08 119.74 640.408C119.084 640.744 118.176 640.912 117.016 640.912C115.856 640.912 114.944 640.744 114.28 640.408C113.624 640.08 113.296 639.604 113.296 638.98C113.296 638.364 113.624 637.892 114.28 637.564C114.944 637.236 115.856 637.072 117.016 637.072ZM117.016 637.84C116.448 637.84 115.96 637.884 115.552 637.972C115.152 638.06 114.844 638.192 114.628 638.368C114.412 638.536 114.304 638.74 114.304 638.98C114.304 639.236 114.412 639.452 114.628 639.628C114.844 639.796 115.152 639.924 115.552 640.012C115.96 640.1 116.448 640.144 117.016 640.144C117.584 640.144 118.068 640.1 118.468 640.012C118.876 639.924 119.188 639.796 119.404 639.628C119.62 639.452 119.728 639.236 119.728 638.98C119.728 638.74 119.62 638.536 119.404 638.368C119.188 638.192 118.876 638.06 118.468 637.972C118.068 637.884 117.584 637.84 117.016 637.84ZM117.016 630.28C117.8 630.28 118.476 630.36 119.044 630.52C119.62 630.68 120.06 630.912 120.364 631.216C120.676 631.512 120.832 631.872 120.832 632.296C120.832 632.712 120.676 633.072 120.364 633.376C120.06 633.68 119.62 633.912 119.044 634.072C118.476 634.224 117.8 634.3 117.016 634.3C116.232 634.3 115.552 634.224 114.976 634.072C114.408 633.912 113.968 633.68 113.656 633.376C113.352 633.072 113.2 632.712 113.2 632.296C113.2 631.872 113.352 631.512 113.656 631.216C113.968 630.912 114.408 630.68 114.976 630.52C115.552 630.36 116.232 630.28 117.016 630.28ZM117.016 631.06C116.448 631.06 115.952 631.108 115.528 631.204C115.112 631.3 114.788 631.44 114.556 631.624C114.332 631.808 114.22 632.032 114.22 632.296C114.22 632.552 114.332 632.776 114.556 632.968C114.788 633.152 115.112 633.292 115.528 633.388C115.952 633.484 116.448 633.532 117.016 633.532C117.6 633.532 118.1 633.484 118.516 633.388C118.932 633.292 119.252 633.152 119.476 632.968C119.7 632.776 119.812 632.552 119.812 632.296C119.812 632.032 119.7 631.808 119.476 631.624C119.252 631.44 118.932 631.3 118.516 631.204C118.1 631.108 117.6 631.06 117.016 631.06ZM131.283 631.732H133.155V632.56H131.283V631.732ZM131.283 634.048H133.155V634.888H131.283V634.048ZM130.587 630.076H131.583V636.52H130.587V630.076ZM124.527 637.036H131.583V640.936H130.587V637.852H124.527V637.036ZM126.183 630.724C126.735 630.724 127.223 630.836 127.647 631.06C128.071 631.276 128.403 631.576 128.643 631.96C128.891 632.344 129.015 632.788 129.015 633.292C129.015 633.804 128.891 634.252 128.643 634.636C128.403 635.02 128.071 635.32 127.647 635.536C127.223 635.752 126.735 635.86 126.183 635.86C125.647 635.86 125.163 635.752 124.731 635.536C124.307 635.32 123.971 635.02 123.723 634.636C123.475 634.252 123.351 633.804 123.351 633.292C123.351 632.788 123.475 632.344 123.723 631.96C123.971 631.576 124.307 631.276 124.731 631.06C125.163 630.836 125.647 630.724 126.183 630.724ZM126.183 631.576C125.831 631.576 125.515 631.648 125.235 631.792C124.955 631.936 124.731 632.14 124.563 632.404C124.403 632.66 124.323 632.956 124.323 633.292C124.323 633.636 124.403 633.94 124.563 634.204C124.731 634.46 124.955 634.66 125.235 634.804C125.515 634.948 125.831 635.02 126.183 635.02C126.543 635.02 126.863 634.948 127.143 634.804C127.423 634.66 127.643 634.46 127.803 634.204C127.971 633.94 128.055 633.636 128.055 633.292C128.055 632.956 127.971 632.66 127.803 632.404C127.643 632.14 127.423 631.936 127.143 631.792C126.863 631.648 126.543 631.576 126.183 631.576ZM134.786 630.916H139.586V631.744H134.786V630.916ZM136.418 633.34H137.402V636.052H136.418V633.34ZM139.19 630.916H140.162V631.492C140.162 631.852 140.15 632.3 140.126 632.836C140.11 633.372 140.03 633.996 139.886 634.708L138.902 634.612C139.046 633.892 139.13 633.28 139.154 632.776C139.178 632.272 139.19 631.844 139.19 631.492V630.916ZM141.638 630.076H142.646V638.248H141.638V630.076ZM142.19 633.604H144.194V634.444H142.19V633.604ZM135.782 639.88H142.994V640.696H135.782V639.88ZM135.782 637.504H136.778V640.12H135.782V637.504ZM134.234 636.52L134.126 635.704C134.766 635.704 135.474 635.696 136.25 635.68C137.026 635.664 137.814 635.632 138.614 635.584C139.414 635.528 140.182 635.452 140.918 635.356L140.978 636.088C140.234 636.216 139.462 636.312 138.662 636.376C137.862 636.44 137.082 636.48 136.322 636.496C135.57 636.512 134.874 636.52 134.234 636.52ZM145.729 631.264H150.625V632.08H145.729V631.264ZM147.421 634.372H148.405V638.044H147.421V634.372ZM150.217 631.264H151.201V631.852C151.201 632.292 151.185 632.868 151.153 633.58C151.129 634.292 151.041 635.152 150.889 636.16L149.905 636.076C150.065 635.092 150.157 634.252 150.181 633.556C150.205 632.86 150.217 632.292 150.217 631.852V631.264ZM152.557 630.076H153.553V640.936H152.557V630.076ZM153.277 634.612H155.281V635.464H153.277V634.612ZM145.249 638.56L145.129 637.732C145.777 637.724 146.485 637.716 147.253 637.708C148.029 637.692 148.813 637.66 149.605 637.612C150.405 637.564 151.169 637.496 151.897 637.408L151.957 638.152C151.205 638.272 150.433 638.36 149.641 638.416C148.857 638.472 148.089 638.512 147.337 638.536C146.585 638.552 145.889 638.56 145.249 638.56ZM167.883 630.076H168.843V640.936H167.883V630.076ZM166.131 634.444H168.219V635.26H166.131V634.444ZM163.335 631.48H164.283C164.283 632.176 164.215 632.856 164.079 633.52C163.943 634.184 163.719 634.824 163.407 635.44C163.103 636.048 162.691 636.62 162.171 637.156C161.651 637.684 161.003 638.168 160.227 638.608L159.651 637.9C160.563 637.388 161.287 636.808 161.823 636.16C162.359 635.512 162.743 634.812 162.975 634.06C163.215 633.3 163.335 632.5 163.335 631.66V631.48ZM160.071 631.48H163.659V632.296H160.071V631.48ZM165.483 630.364H166.419V640.396H165.483V630.364ZM178.586 630.088H179.582V638.008H178.586V630.088ZM172.61 639.88H179.918V640.696H172.61V639.88ZM172.61 637.204H173.606V640.156H172.61V637.204ZM173.762 630.844C174.306 630.844 174.79 630.956 175.214 631.18C175.638 631.404 175.974 631.72 176.222 632.128C176.47 632.528 176.594 632.988 176.594 633.508C176.594 634.028 176.47 634.492 176.222 634.9C175.974 635.3 175.638 635.616 175.214 635.848C174.79 636.072 174.306 636.184 173.762 636.184C173.226 636.184 172.742 636.072 172.31 635.848C171.886 635.616 171.55 635.3 171.302 634.9C171.054 634.492 170.93 634.028 170.93 633.508C170.93 632.988 171.054 632.528 171.302 632.128C171.55 631.72 171.886 631.404 172.31 631.18C172.742 630.956 173.226 630.844 173.762 630.844ZM173.762 631.708C173.41 631.708 173.094 631.784 172.814 631.936C172.534 632.088 172.31 632.3 172.142 632.572C171.982 632.844 171.902 633.156 171.902 633.508C171.902 633.868 171.982 634.184 172.142 634.456C172.31 634.72 172.534 634.928 172.814 635.08C173.094 635.232 173.41 635.308 173.762 635.308C174.114 635.308 174.43 635.232 174.71 635.08C174.998 634.928 175.222 634.72 175.382 634.456C175.542 634.184 175.622 633.868 175.622 633.508C175.622 633.156 175.542 632.844 175.382 632.572C175.222 632.3 174.998 632.088 174.71 631.936C174.43 631.784 174.114 631.708 173.762 631.708ZM187.525 632.896H189.961V633.724H187.525V632.896ZM189.661 630.076H190.657V636.544H189.661V630.076ZM187.081 636.88C187.833 636.88 188.477 636.96 189.013 637.12C189.557 637.28 189.973 637.512 190.261 637.816C190.549 638.112 190.693 638.476 190.693 638.908C190.693 639.548 190.369 640.044 189.721 640.396C189.081 640.748 188.201 640.924 187.081 640.924C185.961 640.924 185.077 640.748 184.429 640.396C183.789 640.044 183.469 639.548 183.469 638.908C183.469 638.476 183.613 638.112 183.901 637.816C184.197 637.512 184.613 637.28 185.149 637.12C185.693 636.96 186.337 636.88 187.081 636.88ZM187.081 637.66C186.537 637.66 186.069 637.708 185.677 637.804C185.285 637.9 184.981 638.04 184.765 638.224C184.557 638.408 184.453 638.636 184.453 638.908C184.453 639.164 184.557 639.384 184.765 639.568C184.981 639.752 185.285 639.896 185.677 640C186.069 640.096 186.537 640.144 187.081 640.144C187.633 640.144 188.101 640.096 188.485 640C188.877 639.896 189.177 639.752 189.385 639.568C189.601 639.384 189.709 639.164 189.709 638.908C189.709 638.636 189.601 638.408 189.385 638.224C189.177 638.04 188.877 637.9 188.485 637.804C188.101 637.708 187.633 637.66 187.081 637.66ZM184.489 631.18H185.305V632.056C185.305 632.72 185.177 633.344 184.921 633.928C184.673 634.504 184.321 635.012 183.865 635.452C183.409 635.884 182.881 636.216 182.281 636.448L181.765 635.656C182.173 635.512 182.541 635.316 182.869 635.068C183.205 634.82 183.493 634.536 183.733 634.216C183.981 633.896 184.169 633.552 184.297 633.184C184.425 632.816 184.489 632.44 184.489 632.056V631.18ZM184.681 631.18H185.497V632.044C185.497 632.508 185.605 632.96 185.821 633.4C186.037 633.84 186.345 634.228 186.745 634.564C187.145 634.9 187.605 635.164 188.125 635.356L187.621 636.148C187.029 635.932 186.513 635.62 186.073 635.212C185.633 634.796 185.289 634.316 185.041 633.772C184.801 633.228 184.681 632.652 184.681 632.044V631.18ZM182.077 630.868H187.873V631.684H182.077V630.868ZM192.768 638.728H202.608V639.556H192.768V638.728ZM197.172 636.124H198.156V638.968H197.172V636.124ZM193.92 630.844H194.916V632.776H200.436V630.844H201.42V636.4H193.92V630.844ZM194.916 633.592V635.584H200.436V633.592H194.916ZM211.739 630.076H212.735V640.948H211.739V630.076ZM209.411 634.432H212.027V635.248H209.411V634.432ZM206.567 632.656H207.359V633.592C207.359 634.16 207.287 634.716 207.143 635.26C206.999 635.796 206.791 636.296 206.519 636.76C206.247 637.224 205.931 637.636 205.571 637.996C205.211 638.348 204.815 638.628 204.383 638.836L203.831 638.068C204.223 637.876 204.587 637.624 204.923 637.312C205.259 637 205.551 636.644 205.799 636.244C206.047 635.844 206.235 635.42 206.363 634.972C206.499 634.516 206.567 634.056 206.567 633.592V632.656ZM206.759 632.656H207.551V633.592C207.551 634.04 207.619 634.48 207.755 634.912C207.899 635.336 208.095 635.74 208.343 636.124C208.591 636.508 208.883 636.852 209.219 637.156C209.563 637.452 209.935 637.692 210.335 637.876L209.783 638.644C209.343 638.444 208.939 638.172 208.571 637.828C208.203 637.484 207.883 637.092 207.611 636.652C207.339 636.204 207.127 635.72 206.975 635.2C206.831 634.68 206.759 634.144 206.759 633.592V632.656ZM204.119 631.96H209.963V632.764H204.119V631.96ZM206.567 630.28H207.563V632.404H206.567V630.28ZM222.754 630.076H223.738V640.948H222.754V630.076ZM215.47 637.492H216.37C216.986 637.492 217.578 637.484 218.146 637.468C218.722 637.444 219.302 637.404 219.886 637.348C220.478 637.292 221.094 637.212 221.734 637.108L221.83 637.924C220.854 638.084 219.934 638.192 219.07 638.248C218.206 638.296 217.306 638.32 216.37 638.32H215.47V637.492ZM215.446 631.084H220.462V634.96H216.478V637.804H215.47V634.156H219.454V631.9H215.446V631.084ZM230.853 636.892C231.589 636.892 232.221 636.972 232.749 637.132C233.285 637.292 233.697 637.52 233.985 637.816C234.273 638.112 234.417 638.472 234.417 638.896C234.417 639.32 234.273 639.684 233.985 639.988C233.697 640.292 233.285 640.524 232.749 640.684C232.221 640.844 231.589 640.924 230.853 640.924C230.117 640.924 229.481 640.844 228.945 640.684C228.409 640.524 227.997 640.292 227.709 639.988C227.421 639.684 227.277 639.32 227.277 638.896C227.277 638.472 227.421 638.112 227.709 637.816C227.997 637.52 228.409 637.292 228.945 637.132C229.481 636.972 230.117 636.892 230.853 636.892ZM230.853 637.684C230.317 637.684 229.853 637.732 229.461 637.828C229.077 637.924 228.781 638.064 228.573 638.248C228.365 638.424 228.261 638.64 228.261 638.896C228.261 639.16 228.365 639.384 228.573 639.568C228.781 639.752 229.077 639.892 229.461 639.988C229.853 640.084 230.317 640.132 230.853 640.132C231.389 640.132 231.849 640.084 232.233 639.988C232.617 639.892 232.913 639.752 233.121 639.568C233.329 639.384 233.433 639.16 233.433 638.896C233.433 638.64 233.329 638.424 233.121 638.248C232.913 638.064 232.617 637.924 232.233 637.828C231.849 637.732 231.389 637.684 230.853 637.684ZM233.313 630.076H234.309V636.592H233.313V630.076ZM234.033 632.8H235.905V633.64H234.033V632.8ZM226.329 630.76H227.313V632.392H230.373V630.76H231.357V635.764H226.329V630.76ZM227.313 633.184V634.96H230.373V633.184H227.313ZM239.864 631.816H240.68V632.284C240.68 632.916 240.552 633.504 240.296 634.048C240.04 634.584 239.68 635.052 239.216 635.452C238.76 635.844 238.224 636.14 237.608 636.34L237.128 635.572C237.536 635.436 237.904 635.26 238.232 635.044C238.568 634.82 238.856 634.564 239.096 634.276C239.344 633.988 239.532 633.676 239.66 633.34C239.796 632.996 239.864 632.644 239.864 632.284V631.816ZM240.032 631.816H240.848V632.284C240.848 632.62 240.916 632.948 241.052 633.268C241.188 633.58 241.38 633.872 241.628 634.144C241.876 634.408 242.168 634.644 242.504 634.852C242.848 635.052 243.22 635.212 243.62 635.332L243.152 636.112C242.544 635.928 242.004 635.652 241.532 635.284C241.06 634.908 240.692 634.464 240.428 633.952C240.164 633.44 240.032 632.884 240.032 632.284V631.816ZM237.404 631.348H243.296V632.152H237.404V631.348ZM239.864 630.028H240.86V631.708H239.864V630.028ZM244.82 630.088H245.816V636.508H244.82V630.088ZM238.808 637.06H245.816V640.792H238.808V637.06ZM244.844 637.864H239.78V639.976H244.844V637.864ZM252.367 634.3H254.407V635.116H252.367V634.3ZM256.231 630.076H257.191V640.936H256.231V630.076ZM254.071 630.304H255.019V640.384H254.071V630.304ZM250.399 630.988C250.871 630.988 251.279 631.14 251.623 631.444C251.975 631.748 252.247 632.184 252.439 632.752C252.631 633.32 252.727 633.988 252.727 634.756C252.727 635.532 252.631 636.204 252.439 636.772C252.247 637.34 251.975 637.78 251.623 638.092C251.279 638.396 250.871 638.548 250.399 638.548C249.943 638.548 249.539 638.396 249.187 638.092C248.843 637.78 248.575 637.34 248.383 636.772C248.191 636.204 248.095 635.532 248.095 634.756C248.095 633.988 248.191 633.32 248.383 632.752C248.575 632.184 248.843 631.748 249.187 631.444C249.539 631.14 249.943 630.988 250.399 630.988ZM250.399 631.912C250.119 631.912 249.875 632.028 249.667 632.26C249.459 632.492 249.299 632.82 249.187 633.244C249.075 633.668 249.019 634.172 249.019 634.756C249.019 635.34 249.075 635.848 249.187 636.28C249.299 636.704 249.459 637.032 249.667 637.264C249.875 637.496 250.119 637.612 250.399 637.612C250.687 637.612 250.935 637.496 251.143 637.264C251.359 637.032 251.523 636.704 251.635 636.28C251.747 635.848 251.803 635.34 251.803 634.756C251.803 634.172 251.747 633.668 251.635 633.244C251.523 632.82 251.359 632.492 251.143 632.26C250.935 632.028 250.687 631.912 250.399 631.912ZM262.377 635.428H272.193V636.232H262.377V635.428ZM266.793 633.688H267.765V635.764H266.793V633.688ZM263.613 633.376H271.041V634.18H263.613V633.376ZM263.613 630.58H270.969V631.372H264.597V633.856H263.613V630.58ZM267.273 637.012C268.433 637.012 269.341 637.184 269.997 637.528C270.653 637.864 270.981 638.344 270.981 638.968C270.981 639.592 270.653 640.072 269.997 640.408C269.341 640.752 268.433 640.924 267.273 640.924C266.113 640.924 265.201 640.752 264.537 640.408C263.881 640.072 263.553 639.592 263.553 638.968C263.553 638.344 263.881 637.864 264.537 637.528C265.201 637.184 266.113 637.012 267.273 637.012ZM267.261 637.792C266.701 637.792 266.217 637.84 265.809 637.936C265.409 638.024 265.101 638.156 264.885 638.332C264.669 638.5 264.561 638.712 264.561 638.968C264.561 639.216 264.669 639.428 264.885 639.604C265.101 639.78 265.409 639.912 265.809 640C266.217 640.096 266.701 640.144 267.261 640.144C267.837 640.144 268.325 640.096 268.725 640C269.133 639.912 269.445 639.78 269.661 639.604C269.877 639.428 269.985 639.216 269.985 638.968C269.985 638.712 269.877 638.5 269.661 638.332C269.445 638.156 269.133 638.024 268.725 637.936C268.325 637.84 267.837 637.792 267.261 637.792ZM276.932 630.868C277.5 630.868 278 630.976 278.432 631.192C278.872 631.4 279.216 631.696 279.464 632.08C279.712 632.464 279.836 632.912 279.836 633.424C279.836 633.928 279.712 634.376 279.464 634.768C279.216 635.152 278.872 635.452 278.432 635.668C278 635.876 277.5 635.98 276.932 635.98C276.372 635.98 275.872 635.876 275.432 635.668C274.992 635.452 274.644 635.152 274.388 634.768C274.14 634.376 274.016 633.928 274.016 633.424C274.016 632.912 274.14 632.464 274.388 632.08C274.644 631.696 274.992 631.4 275.432 631.192C275.872 630.976 276.372 630.868 276.932 630.868ZM276.932 631.732C276.564 631.732 276.232 631.804 275.936 631.948C275.648 632.084 275.42 632.28 275.252 632.536C275.084 632.792 275 633.088 275 633.424C275 633.76 275.084 634.056 275.252 634.312C275.42 634.568 275.648 634.768 275.936 634.912C276.232 635.048 276.564 635.116 276.932 635.116C277.308 635.116 277.64 635.048 277.928 634.912C278.216 634.768 278.444 634.568 278.612 634.312C278.78 634.056 278.864 633.76 278.864 633.424C278.864 633.088 278.78 632.792 278.612 632.536C278.444 632.28 278.216 632.084 277.928 631.948C277.64 631.804 277.308 631.732 276.932 631.732ZM281.264 630.076H282.26V640.948H281.264V630.076ZM273.608 638.572L273.476 637.732C274.14 637.732 274.868 637.728 275.66 637.72C276.452 637.704 277.268 637.672 278.108 637.624C278.956 637.568 279.772 637.48 280.556 637.36L280.64 638.092C279.824 638.244 278.996 638.356 278.156 638.428C277.324 638.492 276.52 638.532 275.744 638.548C274.968 638.564 274.256 638.572 273.608 638.572ZM291.811 630.076H292.795V640.936H291.811V630.076ZM292.567 634.54H294.571V635.38H292.567V634.54ZM284.395 631.816H290.791V632.632H284.395V631.816ZM287.647 633.52C288.159 633.52 288.611 633.628 289.003 633.844C289.403 634.06 289.715 634.356 289.939 634.732C290.171 635.1 290.287 635.528 290.287 636.016C290.287 636.504 290.171 636.936 289.939 637.312C289.715 637.688 289.403 637.984 289.003 638.2C288.611 638.408 288.159 638.512 287.647 638.512C287.135 638.512 286.679 638.408 286.279 638.2C285.887 637.984 285.575 637.688 285.343 637.312C285.111 636.936 284.995 636.504 284.995 636.016C284.995 635.528 285.111 635.1 285.343 634.732C285.575 634.356 285.887 634.06 286.279 633.844C286.679 633.628 287.135 633.52 287.647 633.52ZM287.647 634.348C287.319 634.348 287.027 634.42 286.771 634.564C286.515 634.708 286.311 634.904 286.159 635.152C286.015 635.4 285.943 635.688 285.943 636.016C285.943 636.344 286.015 636.636 286.159 636.892C286.311 637.14 286.515 637.336 286.771 637.48C287.027 637.616 287.319 637.684 287.647 637.684C287.967 637.684 288.255 637.616 288.511 637.48C288.767 637.336 288.967 637.14 289.111 636.892C289.263 636.636 289.339 636.344 289.339 636.016C289.339 635.688 289.263 635.4 289.111 635.152C288.967 634.904 288.767 634.708 288.511 634.564C288.255 634.42 287.967 634.348 287.647 634.348ZM287.131 630.208H288.127V632.176H287.131V630.208ZM303.763 630.076H304.723V640.936H303.763V630.076ZM299.047 634.516H301.783V635.32H299.047V634.516ZM301.507 630.364H302.443V640.384H301.507V630.364ZM299.179 631.456H300.139C300.139 632.4 300.003 633.308 299.731 634.18C299.467 635.044 299.035 635.852 298.435 636.604C297.835 637.348 297.047 638.012 296.071 638.596L295.495 637.876C296.343 637.364 297.039 636.788 297.583 636.148C298.127 635.5 298.527 634.8 298.783 634.048C299.047 633.288 299.179 632.484 299.179 631.636V631.456ZM295.963 631.456H299.551V632.272H295.963V631.456ZM313.005 633.76H314.001V635.548H313.005V633.76ZM317.805 630.088H318.801V636.328H317.805V630.088ZM310.089 636.076L309.945 635.26C310.609 635.26 311.333 635.256 312.117 635.248C312.909 635.232 313.717 635.2 314.541 635.152C315.373 635.096 316.169 635.016 316.929 634.912L316.989 635.62C316.205 635.756 315.405 635.856 314.589 635.92C313.773 635.984 312.981 636.024 312.213 636.04C311.445 636.056 310.737 636.068 310.089 636.076ZM310.917 633.256H316.125V634.048H310.917V633.256ZM310.917 630.616H316.029V631.432H311.913V633.556H310.917V630.616ZM311.697 636.82H312.681V637.96H317.829V636.82H318.801V640.792H311.697V636.82ZM312.681 638.728V639.976H317.829V638.728H312.681ZM328.844 630.076H329.828V640.936H328.844V630.076ZM321.632 631.144H322.616V637.864H321.632V631.144ZM321.632 637.276H322.52C323.352 637.276 324.196 637.24 325.052 637.168C325.916 637.088 326.804 636.956 327.716 636.772L327.848 637.612C326.904 637.812 325.996 637.952 325.124 638.032C324.252 638.104 323.384 638.14 322.52 638.14H321.632V637.276ZM339.331 630.076H340.327V640.948H339.331V630.076ZM340.099 634.36H342.103V635.188H340.099V634.36ZM332.455 637.396H333.307C333.971 637.396 334.579 637.388 335.131 637.372C335.691 637.348 336.227 637.308 336.739 637.252C337.259 637.196 337.787 637.12 338.323 637.024L338.443 637.876C337.883 637.972 337.339 638.048 336.811 638.104C336.291 638.16 335.747 638.196 335.179 638.212C334.611 638.228 333.987 638.236 333.307 638.236H332.455V637.396ZM332.455 631.132H337.483V631.948H333.439V637.78H332.455V631.132Z" fill="#B0B8C1"/>
        <path d="M153.69 840.545C153.647 840.186 153.475 839.906 153.172 839.707C152.868 839.509 152.497 839.409 152.056 839.409C151.734 839.409 151.453 839.461 151.211 839.565C150.972 839.67 150.785 839.813 150.65 839.995C150.518 840.177 150.451 840.384 150.451 840.616C150.451 840.811 150.498 840.978 150.59 841.117C150.685 841.254 150.805 841.369 150.952 841.462C151.099 841.552 151.253 841.626 151.414 841.685C151.575 841.742 151.723 841.788 151.858 841.824L152.596 842.023C152.786 842.072 152.996 842.141 153.228 842.229C153.463 842.316 153.686 842.436 153.9 842.587C154.115 842.737 154.292 842.928 154.432 843.163C154.572 843.397 154.642 843.685 154.642 844.026C154.642 844.419 154.539 844.774 154.333 845.091C154.129 845.408 153.831 845.66 153.438 845.847C153.047 846.034 152.573 846.128 152.014 846.128C151.493 846.128 151.042 846.044 150.661 845.876C150.282 845.708 149.984 845.473 149.766 845.173C149.551 844.872 149.429 844.523 149.4 844.125H150.309C150.333 844.4 150.425 844.627 150.586 844.807C150.75 844.984 150.956 845.117 151.204 845.205C151.455 845.29 151.725 845.332 152.014 845.332C152.35 845.332 152.652 845.278 152.919 845.169C153.187 845.058 153.399 844.904 153.555 844.707C153.711 844.509 153.789 844.277 153.789 844.011C153.789 843.77 153.722 843.573 153.587 843.422C153.452 843.27 153.275 843.147 153.054 843.053C152.834 842.958 152.596 842.875 152.341 842.804L151.446 842.548C150.877 842.385 150.428 842.152 150.096 841.849C149.765 841.546 149.599 841.149 149.599 840.659C149.599 840.252 149.709 839.897 149.929 839.594C150.152 839.288 150.45 839.052 150.824 838.884C151.201 838.713 151.621 838.628 152.085 838.628C152.554 838.628 152.97 838.712 153.335 838.88C153.699 839.046 153.988 839.273 154.201 839.562C154.417 839.851 154.53 840.179 154.542 840.545H153.69ZM155.962 846V845.361L158.362 842.733C158.644 842.425 158.876 842.158 159.058 841.93C159.241 841.701 159.376 841.485 159.463 841.284C159.553 841.08 159.598 840.867 159.598 840.645C159.598 840.389 159.537 840.168 159.414 839.981C159.293 839.794 159.127 839.649 158.916 839.548C158.706 839.446 158.469 839.395 158.206 839.395C157.927 839.395 157.683 839.453 157.475 839.569C157.269 839.683 157.109 839.842 156.995 840.048C156.884 840.254 156.828 840.496 156.828 840.773H155.99C155.99 840.347 156.088 839.973 156.285 839.651C156.481 839.329 156.749 839.078 157.088 838.898C157.428 838.718 157.811 838.628 158.235 838.628C158.661 838.628 159.038 838.718 159.367 838.898C159.696 839.078 159.954 839.32 160.142 839.626C160.329 839.931 160.422 840.271 160.422 840.645C160.422 840.912 160.374 841.174 160.276 841.43C160.182 841.683 160.016 841.966 159.779 842.278C159.545 842.589 159.219 842.967 158.803 843.415L157.169 845.162V845.219H160.55V846H155.962ZM165.156 841.973V842.754H161.974V841.973H165.156ZM169.173 838.727V846H168.292V839.651H168.25L166.474 840.83V839.935L168.292 838.727H169.173ZM183.324 841.973V842.754H173.324V841.973H183.324ZM190.995 840.545C190.952 840.186 190.779 839.906 190.476 839.707C190.173 839.509 189.801 839.409 189.361 839.409C189.039 839.409 188.757 839.461 188.516 839.565C188.277 839.67 188.09 839.813 187.955 839.995C187.822 840.177 187.756 840.384 187.756 840.616C187.756 840.811 187.802 840.978 187.895 841.117C187.989 841.254 188.11 841.369 188.257 841.462C188.404 841.552 188.557 841.626 188.718 841.685C188.879 841.742 189.027 841.788 189.162 841.824L189.901 842.023C190.09 842.072 190.301 842.141 190.533 842.229C190.767 842.316 190.991 842.436 191.204 842.587C191.42 842.737 191.597 842.928 191.737 843.163C191.877 843.397 191.946 843.685 191.946 844.026C191.946 844.419 191.843 844.774 191.637 845.091C191.434 845.408 191.136 845.66 190.743 845.847C190.352 846.034 189.877 846.128 189.319 846.128C188.798 846.128 188.347 846.044 187.966 845.876C187.587 845.708 187.288 845.473 187.071 845.173C186.855 844.872 186.733 844.523 186.705 844.125H187.614C187.638 844.4 187.73 844.627 187.891 844.807C188.054 844.984 188.26 845.117 188.509 845.205C188.76 845.29 189.03 845.332 189.319 845.332C189.655 845.332 189.957 845.278 190.224 845.169C190.492 845.058 190.703 844.904 190.86 844.707C191.016 844.509 191.094 844.277 191.094 844.011C191.094 843.77 191.027 843.573 190.892 843.422C190.757 843.27 190.579 843.147 190.359 843.053C190.139 842.958 189.901 842.875 189.645 842.804L188.75 842.548C188.182 842.385 187.732 842.152 187.401 841.849C187.069 841.546 186.904 841.149 186.904 840.659C186.904 840.252 187.014 839.897 187.234 839.594C187.457 839.288 187.755 839.052 188.129 838.884C188.505 838.713 188.926 838.628 189.39 838.628C189.858 838.628 190.275 838.712 190.64 838.88C191.004 839.046 191.293 839.273 191.506 839.562C191.721 839.851 191.835 840.179 191.847 840.545H190.995ZM195.497 846.114C195.004 846.114 194.572 845.996 194.2 845.762C193.831 845.528 193.542 845.2 193.334 844.778C193.128 844.357 193.025 843.865 193.025 843.301C193.025 842.733 193.128 842.237 193.334 841.813C193.542 841.389 193.831 841.06 194.2 840.826C194.572 840.592 195.004 840.474 195.497 840.474C195.989 840.474 196.42 840.592 196.789 840.826C197.161 841.06 197.45 841.389 197.656 841.813C197.864 842.237 197.968 842.733 197.968 843.301C197.968 843.865 197.864 844.357 197.656 844.778C197.45 845.2 197.161 845.528 196.789 845.762C196.42 845.996 195.989 846.114 195.497 846.114ZM195.497 845.361C195.871 845.361 196.178 845.265 196.42 845.073C196.661 844.881 196.84 844.629 196.956 844.317C197.072 844.004 197.13 843.666 197.13 843.301C197.13 842.937 197.072 842.597 196.956 842.282C196.84 841.967 196.661 841.713 196.42 841.518C196.178 841.324 195.871 841.227 195.497 841.227C195.123 841.227 194.815 841.324 194.573 841.518C194.332 841.713 194.153 841.967 194.037 842.282C193.921 842.597 193.863 842.937 193.863 843.301C193.863 843.666 193.921 844.004 194.037 844.317C194.153 844.629 194.332 844.881 194.573 845.073C194.815 845.265 195.123 845.361 195.497 845.361ZM201.463 846.114C200.952 846.114 200.512 845.993 200.142 845.751C199.773 845.51 199.489 845.177 199.29 844.754C199.091 844.33 198.992 843.846 198.992 843.301C198.992 842.747 199.094 842.258 199.297 841.835C199.503 841.408 199.79 841.076 200.157 840.837C200.526 840.595 200.957 840.474 201.449 840.474C201.833 840.474 202.178 840.545 202.486 840.688C202.794 840.83 203.046 841.028 203.243 841.284C203.439 841.54 203.561 841.838 203.608 842.179H202.77C202.706 841.93 202.564 841.71 202.344 841.518C202.126 841.324 201.833 841.227 201.463 841.227C201.137 841.227 200.85 841.312 200.604 841.483C200.36 841.651 200.17 841.889 200.032 842.197C199.897 842.502 199.83 842.861 199.83 843.273C199.83 843.694 199.896 844.061 200.029 844.374C200.164 844.686 200.353 844.929 200.597 845.102C200.843 845.274 201.132 845.361 201.463 845.361C201.681 845.361 201.879 845.323 202.056 845.247C202.234 845.171 202.384 845.062 202.507 844.92C202.631 844.778 202.718 844.608 202.77 844.409H203.608C203.561 844.731 203.444 845.021 203.257 845.279C203.072 845.535 202.827 845.738 202.522 845.89C202.219 846.039 201.866 846.114 201.463 846.114ZM204.833 846V840.545H205.672V846H204.833ZM205.26 839.636C205.096 839.636 204.955 839.581 204.837 839.469C204.721 839.358 204.663 839.224 204.663 839.068C204.663 838.912 204.721 838.778 204.837 838.667C204.955 838.556 205.096 838.5 205.26 838.5C205.423 838.5 205.563 838.556 205.679 838.667C205.797 838.778 205.856 838.912 205.856 839.068C205.856 839.224 205.797 839.358 205.679 839.469C205.563 839.581 205.423 839.636 205.26 839.636ZM208.812 846.128C208.466 846.128 208.152 846.063 207.871 845.933C207.589 845.8 207.365 845.609 207.199 845.361C207.034 845.11 206.951 844.807 206.951 844.452C206.951 844.139 207.012 843.886 207.135 843.692C207.259 843.495 207.423 843.341 207.629 843.23C207.835 843.119 208.062 843.036 208.311 842.982C208.562 842.925 208.814 842.88 209.067 842.847C209.399 842.804 209.667 842.772 209.873 842.751C210.082 842.727 210.233 842.688 210.328 842.634C210.425 842.579 210.474 842.484 210.474 842.349V842.321C210.474 841.971 210.378 841.698 210.186 841.504C209.997 841.31 209.709 841.213 209.323 841.213C208.923 841.213 208.609 841.301 208.382 841.476C208.155 841.651 207.995 841.838 207.903 842.037L207.107 841.753C207.249 841.421 207.439 841.163 207.675 840.979C207.914 840.792 208.175 840.661 208.456 840.588C208.741 840.512 209.02 840.474 209.295 840.474C209.47 840.474 209.671 840.496 209.898 840.538C210.128 840.579 210.349 840.663 210.562 840.79C210.778 840.918 210.956 841.111 211.099 841.369C211.241 841.627 211.312 841.973 211.312 842.406V846H210.474V845.261H210.431C210.374 845.38 210.279 845.506 210.147 845.641C210.014 845.776 209.838 845.891 209.618 845.986C209.398 846.08 209.129 846.128 208.812 846.128ZM208.939 845.375C209.271 845.375 209.55 845.31 209.778 845.18C210.007 845.049 210.18 844.881 210.296 844.675C210.414 844.469 210.474 844.253 210.474 844.026V843.259C210.438 843.301 210.36 843.34 210.239 843.376C210.121 843.409 209.983 843.438 209.827 843.464C209.673 843.488 209.523 843.509 209.376 843.528C209.232 843.545 209.115 843.559 209.025 843.571C208.807 843.599 208.603 843.646 208.414 843.71C208.227 843.771 208.075 843.865 207.959 843.99C207.846 844.113 207.789 844.281 207.789 844.494C207.789 844.786 207.897 845.006 208.112 845.155C208.33 845.302 208.606 845.375 208.939 845.375ZM213.679 838.727V846H212.841V838.727H213.679ZM218.14 846V838.727H219.021V845.219H222.402V846H218.14ZM225.868 846.114C225.375 846.114 224.943 845.996 224.572 845.762C224.202 845.528 223.913 845.2 223.705 844.778C223.499 844.357 223.396 843.865 223.396 843.301C223.396 842.733 223.499 842.237 223.705 841.813C223.913 841.389 224.202 841.06 224.572 840.826C224.943 840.592 225.375 840.474 225.868 840.474C226.36 840.474 226.791 840.592 227.16 840.826C227.532 841.06 227.821 841.389 228.027 841.813C228.235 842.237 228.339 842.733 228.339 843.301C228.339 843.865 228.235 844.357 228.027 844.778C227.821 845.2 227.532 845.528 227.16 845.762C226.791 845.996 226.36 846.114 225.868 846.114ZM225.868 845.361C226.242 845.361 226.55 845.265 226.791 845.073C227.032 844.881 227.211 844.629 227.327 844.317C227.443 844.004 227.501 843.666 227.501 843.301C227.501 842.937 227.443 842.597 227.327 842.282C227.211 841.967 227.032 841.713 226.791 841.518C226.55 841.324 226.242 841.227 225.868 841.227C225.494 841.227 225.186 841.324 224.944 841.518C224.703 841.713 224.524 841.967 224.408 842.282C224.292 842.597 224.234 842.937 224.234 843.301C224.234 843.666 224.292 844.004 224.408 844.317C224.524 844.629 224.703 844.881 224.944 845.073C225.186 845.265 225.494 845.361 225.868 845.361ZM231.82 848.159C231.415 848.159 231.067 848.107 230.776 848.003C230.485 847.901 230.242 847.766 230.048 847.598C229.857 847.432 229.704 847.255 229.59 847.065L230.258 846.597C230.334 846.696 230.429 846.81 230.545 846.938C230.661 847.068 230.82 847.18 231.021 847.275C231.225 847.372 231.491 847.42 231.82 847.42C232.261 847.42 232.624 847.314 232.911 847.101C233.197 846.888 233.34 846.554 233.34 846.099V844.991H233.269C233.208 845.091 233.12 845.214 233.006 845.361C232.895 845.505 232.734 845.634 232.523 845.748C232.315 845.859 232.033 845.915 231.678 845.915C231.238 845.915 230.843 845.811 230.492 845.602C230.144 845.394 229.868 845.091 229.665 844.693C229.464 844.295 229.363 843.812 229.363 843.244C229.363 842.686 229.461 842.199 229.658 841.785C229.854 841.368 230.128 841.046 230.478 840.819C230.828 840.589 231.233 840.474 231.692 840.474C232.048 840.474 232.329 840.534 232.538 840.652C232.748 840.768 232.909 840.901 233.021 841.05C233.134 841.196 233.222 841.317 233.283 841.412H233.369V840.545H234.178V846.156C234.178 846.625 234.072 847.006 233.859 847.3C233.648 847.596 233.364 847.812 233.006 847.95C232.651 848.089 232.256 848.159 231.82 848.159ZM231.792 845.162C232.128 845.162 232.412 845.085 232.644 844.931C232.876 844.777 233.053 844.556 233.173 844.267C233.294 843.978 233.354 843.633 233.354 843.23C233.354 842.837 233.295 842.49 233.177 842.19C233.058 841.889 232.883 841.653 232.651 841.483C232.419 841.312 232.133 841.227 231.792 841.227C231.437 841.227 231.141 841.317 230.904 841.497C230.67 841.677 230.493 841.919 230.375 842.222C230.259 842.525 230.201 842.861 230.201 843.23C230.201 843.609 230.26 843.944 230.379 844.235C230.499 844.524 230.677 844.751 230.911 844.917C231.148 845.08 231.442 845.162 231.792 845.162ZM235.712 846V840.545H236.55V846H235.712ZM236.138 839.636C235.975 839.636 235.834 839.581 235.716 839.469C235.6 839.358 235.542 839.224 235.542 839.068C235.542 838.912 235.6 838.778 235.716 838.667C235.834 838.556 235.975 838.5 236.138 838.5C236.302 838.5 236.442 838.556 236.558 838.667C236.676 838.778 236.735 838.912 236.735 839.068C236.735 839.224 236.676 839.358 236.558 839.469C236.442 839.581 236.302 839.636 236.138 839.636ZM238.923 842.719V846H238.085V840.545H238.895V841.398H238.966C239.094 841.121 239.288 840.898 239.548 840.73C239.809 840.56 240.145 840.474 240.557 840.474C240.926 840.474 241.249 840.55 241.526 840.702C241.803 840.851 242.019 841.078 242.173 841.384C242.327 841.687 242.404 842.07 242.404 842.534V846H241.566V842.591C241.566 842.162 241.454 841.829 241.232 841.589C241.009 841.348 240.704 841.227 240.316 841.227C240.048 841.227 239.809 841.285 239.598 841.401C239.39 841.517 239.225 841.687 239.105 841.909C238.984 842.132 238.923 842.402 238.923 842.719Z" fill="#D1D6DB"/>
    </g>
    <defs>
        <clipPath id="clip0_46_1396">
            <rect width="393" height="852" fill="white"/>
        </clipPath>
    </defs>
</svg>
