
<svg width="393" height="852" viewBox="0 0 393 852" fill="none" xmlns="http://www.w3.org/2000/svg">
    <path d="M393 0H0V852H393V0Z" fill="white"/>
    <path opacity="0.4" d="M393 0H0V852H393V0Z" fill="black"/>
    <path d="M369 430H24C10.7452 430 0 440.745 0 454V828C0 841.255 10.7452 852 24 852H369C382.255 852 393 841.255 393 828V454C393 440.745 382.255 430 369 430Z" fill="white"/>
    <path d="M220 440H174C172.895 440 172 440.895 172 442C172 443.105 172.895 444 174 444H220C221.105 444 222 443.105 222 442C222 440.895 221.105 440 220 440Z" fill="#D1D6DB"/>
    <path d="M24.738 479.768H39.84V481.712H24.738V479.768ZM31.092 476.546H33.468V480.758H31.092V476.546ZM31.074 470.39H33.18V470.75C33.18 471.554 33.024 472.31 32.712 473.018C32.4 473.714 31.938 474.344 31.326 474.908C30.726 475.472 29.988 475.946 29.112 476.33C28.236 476.714 27.222 476.978 26.07 477.122L25.206 475.214C26.226 475.094 27.102 474.89 27.834 474.602C28.578 474.302 29.184 473.942 29.652 473.522C30.132 473.102 30.486 472.658 30.714 472.19C30.954 471.71 31.074 471.23 31.074 470.75V470.39ZM31.38 470.39H33.486V470.75C33.486 471.23 33.6 471.71 33.828 472.19C34.068 472.658 34.422 473.102 34.89 473.522C35.37 473.942 35.982 474.302 36.726 474.602C37.47 474.89 38.346 475.094 39.354 475.214L38.49 477.122C37.338 476.978 36.324 476.714 35.448 476.33C34.572 475.946 33.828 475.472 33.216 474.908C32.616 474.344 32.16 473.714 31.848 473.018C31.536 472.31 31.38 471.554 31.38 470.75V470.39ZM26.016 469.184H38.526V471.092H26.016V469.184ZM31.092 467.15H33.468V469.958H31.092V467.15ZM53.3206 466.916H55.6066V483.584H53.3206V466.916ZM51.1066 473.342H53.8786V475.268H51.1066V473.342ZM49.5946 467.204H51.8086V482.81H49.5946V467.204ZM41.7646 477.86H42.9166C43.6126 477.86 44.2726 477.854 44.8966 477.842C45.5206 477.818 46.1386 477.776 46.7506 477.716C47.3746 477.644 48.0106 477.554 48.6586 477.446L48.8566 479.39C48.1846 479.51 47.5306 479.606 46.8946 479.678C46.2586 479.75 45.6166 479.798 44.9686 479.822C44.3206 479.834 43.6366 479.84 42.9166 479.84H41.7646V477.86ZM41.7646 468.86H47.9026V470.786H44.1226V478.814H41.7646V468.86ZM63.7132 468.302H74.2252V470.228H63.7132V468.302ZM62.0032 479.75H77.0872V481.676H62.0032V479.75ZM73.2532 468.302H75.6292V469.778C75.6292 470.45 75.6172 471.17 75.5932 471.938C75.5812 472.706 75.5212 473.564 75.4132 474.512C75.3052 475.46 75.1252 476.546 74.8732 477.77L72.4972 477.518C72.8812 475.826 73.1032 474.356 73.1632 473.108C73.2232 471.848 73.2532 470.738 73.2532 469.778V468.302ZM73.6852 472.316V474.134L63.5152 474.674L63.2092 472.64L73.6852 472.316ZM67.3492 475.754H69.7612V480.452H67.3492V475.754ZM80.3438 474.62H92.0618V476.51H80.3438V474.62ZM78.5798 479.642H93.6818V481.586H78.5798V479.642ZM80.3438 468.284H91.9358V470.228H82.7198V475.412H80.3438V468.284ZM105.776 466.898H108.188V483.566H105.776V466.898ZM107.576 473.288H110.51V475.25H107.576V473.288ZM101.402 468.626H103.76C103.76 470.294 103.52 471.872 103.04 473.36C102.572 474.848 101.792 476.216 100.7 477.464C99.6204 478.7 98.1564 479.78 96.3084 480.704L94.9584 478.886C96.4224 478.13 97.6284 477.278 98.5764 476.33C99.5364 475.382 100.244 474.308 100.7 473.108C101.168 471.896 101.402 470.546 101.402 469.058V468.626ZM95.8764 468.626H102.644V470.552H95.8764V468.626ZM118.851 467.924H120.723V469.85C120.723 470.798 120.591 471.722 120.327 472.622C120.063 473.51 119.649 474.308 119.085 475.016C118.521 475.724 117.783 476.27 116.871 476.654L115.629 474.818C116.397 474.47 117.015 474.032 117.483 473.504C117.963 472.964 118.311 472.376 118.527 471.74C118.743 471.104 118.851 470.474 118.851 469.85V467.924ZM119.301 467.924H121.173V469.85C121.173 470.45 121.275 471.038 121.479 471.614C121.683 472.178 122.013 472.694 122.469 473.162C122.937 473.63 123.531 474.014 124.251 474.314L122.991 476.132C122.127 475.784 121.419 475.292 120.867 474.656C120.327 474.008 119.931 473.276 119.679 472.46C119.427 471.632 119.301 470.762 119.301 469.85V467.924ZM127.779 466.934H130.065V477.122H127.779V466.934ZM125.781 470.984H128.427V472.91H125.781V470.984ZM124.269 467.24H126.501V476.6H124.269V467.24ZM124.413 477.356C125.577 477.356 126.585 477.482 127.437 477.734C128.301 477.974 128.967 478.328 129.435 478.796C129.903 479.264 130.137 479.822 130.137 480.47C130.137 481.13 129.903 481.694 129.435 482.162C128.967 482.63 128.301 482.984 127.437 483.224C126.585 483.476 125.577 483.602 124.413 483.602C123.249 483.602 122.235 483.476 121.371 483.224C120.507 482.984 119.841 482.63 119.373 482.162C118.905 481.694 118.671 481.13 118.671 480.47C118.671 479.822 118.905 479.264 119.373 478.796C119.841 478.328 120.507 477.974 121.371 477.734C122.235 477.482 123.249 477.356 124.413 477.356ZM124.413 479.156C123.333 479.156 122.499 479.264 121.911 479.48C121.335 479.696 121.047 480.026 121.047 480.47C121.047 480.914 121.335 481.25 121.911 481.478C122.499 481.694 123.333 481.802 124.413 481.802C125.121 481.802 125.721 481.754 126.213 481.658C126.717 481.55 127.095 481.4 127.347 481.208C127.611 481.016 127.743 480.77 127.743 480.47C127.743 480.026 127.455 479.696 126.879 479.48C126.303 479.264 125.481 479.156 124.413 479.156ZM136.292 467.798H138.272V469.274C138.272 470.39 138.098 471.44 137.75 472.424C137.414 473.408 136.898 474.266 136.202 474.998C135.506 475.73 134.612 476.282 133.52 476.654L132.26 474.728C133.22 474.428 133.994 473.996 134.582 473.432C135.17 472.868 135.602 472.226 135.878 471.506C136.154 470.786 136.292 470.042 136.292 469.274V467.798ZM136.778 467.798H138.722V469.166C138.722 469.898 138.848 470.606 139.1 471.29C139.352 471.962 139.754 472.562 140.306 473.09C140.858 473.606 141.572 474.008 142.448 474.296L141.206 476.168C140.186 475.808 139.346 475.286 138.686 474.602C138.038 473.918 137.558 473.114 137.246 472.19C136.934 471.254 136.778 470.246 136.778 469.166V467.798ZM143.96 466.934H146.372V476.69H143.96V466.934ZM140.72 477.122C142.484 477.122 143.876 477.41 144.896 477.986C145.916 478.55 146.426 479.336 146.426 480.344C146.426 481.376 145.916 482.174 144.896 482.738C143.876 483.314 142.484 483.602 140.72 483.602C138.956 483.602 137.564 483.314 136.544 482.738C135.524 482.174 135.014 481.376 135.014 480.344C135.014 479.336 135.524 478.55 136.544 477.986C137.564 477.41 138.956 477.122 140.72 477.122ZM140.72 478.976C140 478.976 139.394 479.024 138.902 479.12C138.41 479.216 138.032 479.372 137.768 479.588C137.516 479.792 137.39 480.044 137.39 480.344C137.39 480.656 137.516 480.92 137.768 481.136C138.032 481.34 138.41 481.496 138.902 481.604C139.394 481.7 140 481.748 140.72 481.748C141.44 481.748 142.046 481.7 142.538 481.604C143.03 481.496 143.402 481.34 143.654 481.136C143.906 480.92 144.032 480.656 144.032 480.344C144.032 480.044 143.906 479.792 143.654 479.588C143.402 479.372 143.03 479.216 142.538 479.12C142.046 479.024 141.44 478.976 140.72 478.976ZM140.918 469.958H144.32V471.902H140.918V469.958ZM152.184 472.712H154.434V476.294H152.184V472.712ZM149.142 476.816L148.908 474.98C149.448 474.98 150.054 474.98 150.726 474.98C151.398 474.968 152.1 474.95 152.832 474.926C153.564 474.902 154.29 474.866 155.01 474.818C155.742 474.758 156.414 474.686 157.026 474.602L157.17 476.24C156.318 476.408 155.4 476.534 154.416 476.618C153.444 476.702 152.496 476.756 151.572 476.78C150.648 476.792 149.838 476.804 149.142 476.816ZM161.13 466.916H163.398V477.104H161.13V466.916ZM159.312 471.236H161.85V473.162H159.312V471.236ZM157.692 467.24H159.924V477.014H157.692V467.24ZM149.826 471.614H156.738V473.504H149.826V471.614ZM149.826 467.87H156.702V469.76H152.148V472.442H149.826V467.87ZM152.76 477.716H154.542V478.112C154.542 478.904 154.41 479.66 154.146 480.38C153.882 481.1 153.468 481.724 152.904 482.252C152.352 482.78 151.632 483.182 150.744 483.458L149.646 481.712C150.378 481.496 150.972 481.208 151.428 480.848C151.896 480.476 152.232 480.056 152.436 479.588C152.652 479.108 152.76 478.616 152.76 478.112V477.716ZM153.39 477.716H155.082V478.112C155.082 478.592 155.178 479.078 155.37 479.57C155.562 480.05 155.862 480.494 156.27 480.902C156.69 481.298 157.23 481.622 157.89 481.874L156.972 483.602C156.096 483.302 155.394 482.864 154.866 482.288C154.338 481.724 153.96 481.076 153.732 480.344C153.504 479.612 153.39 478.868 153.39 478.112V477.716ZM158.826 477.716H160.518V478.112C160.518 478.844 160.398 479.576 160.158 480.308C159.93 481.028 159.552 481.682 159.024 482.27C158.508 482.858 157.824 483.302 156.972 483.602L156.018 481.874C156.69 481.598 157.23 481.256 157.638 480.848C158.046 480.44 158.346 479.996 158.538 479.516C158.73 479.036 158.826 478.568 158.826 478.112V477.716ZM159.402 477.716H161.184V478.112C161.184 478.628 161.292 479.126 161.508 479.606C161.724 480.086 162.06 480.512 162.516 480.884C162.984 481.244 163.584 481.52 164.316 481.712L163.2 483.458C162.324 483.194 161.604 482.798 161.04 482.27C160.476 481.742 160.062 481.124 159.798 480.416C159.534 479.708 159.402 478.94 159.402 478.112V477.716ZM170.093 468.068C170.921 468.068 171.659 468.314 172.307 468.806C172.967 469.286 173.477 469.976 173.837 470.876C174.209 471.764 174.395 472.814 174.395 474.026C174.395 475.25 174.209 476.312 173.837 477.212C173.477 478.1 172.967 478.79 172.307 479.282C171.659 479.762 170.921 480.002 170.093 480.002C169.265 480.002 168.527 479.762 167.879 479.282C167.231 478.79 166.721 478.1 166.349 477.212C165.977 476.312 165.791 475.25 165.791 474.026C165.791 472.814 165.977 471.764 166.349 470.876C166.721 469.976 167.231 469.286 167.879 468.806C168.527 468.314 169.265 468.068 170.093 468.068ZM170.093 470.246C169.697 470.246 169.343 470.39 169.031 470.678C168.731 470.966 168.497 471.392 168.329 471.956C168.161 472.508 168.077 473.198 168.077 474.026C168.077 474.842 168.161 475.538 168.329 476.114C168.497 476.678 168.731 477.104 169.031 477.392C169.343 477.68 169.697 477.824 170.093 477.824C170.513 477.824 170.873 477.68 171.173 477.392C171.473 477.104 171.707 476.678 171.875 476.114C172.043 475.538 172.127 474.842 172.127 474.026C172.127 473.198 172.043 472.508 171.875 471.956C171.707 471.392 171.473 470.966 171.173 470.678C170.873 470.39 170.513 470.246 170.093 470.246ZM177.131 466.898H179.525V483.62H177.131V466.898ZM173.693 472.928H178.139V474.836H173.693V472.928ZM185.409 475.394H187.803V480.056H185.409V475.394ZM191.457 475.394H193.851V480.056H191.457V475.394ZM182.097 479.714H197.199V481.658H182.097V479.714ZM189.621 467.744C190.821 467.744 191.889 467.93 192.825 468.302C193.773 468.674 194.511 469.196 195.039 469.868C195.579 470.528 195.849 471.314 195.849 472.226C195.849 473.126 195.579 473.912 195.039 474.584C194.511 475.244 193.773 475.76 192.825 476.132C191.889 476.504 190.821 476.69 189.621 476.69C188.433 476.69 187.365 476.504 186.417 476.132C185.481 475.76 184.743 475.244 184.203 474.584C183.663 473.912 183.393 473.126 183.393 472.226C183.393 471.314 183.663 470.528 184.203 469.868C184.743 469.196 185.481 468.674 186.417 468.302C187.365 467.93 188.433 467.744 189.621 467.744ZM189.621 469.598C188.853 469.598 188.175 469.706 187.587 469.922C187.011 470.126 186.561 470.42 186.237 470.804C185.913 471.188 185.751 471.662 185.751 472.226C185.751 472.766 185.913 473.234 186.237 473.63C186.561 474.014 187.011 474.314 187.587 474.53C188.175 474.734 188.853 474.836 189.621 474.836C190.401 474.836 191.079 474.734 191.655 474.53C192.243 474.314 192.693 474.014 193.005 473.63C193.329 473.234 193.491 472.766 193.491 472.226C193.491 471.662 193.329 471.188 193.005 470.804C192.693 470.42 192.243 470.126 191.655 469.922C191.079 469.706 190.401 469.598 189.621 469.598ZM202.258 468.909L202.009 478.075H199.669L199.414 468.909H202.258ZM200.839 482.166C200.417 482.166 200.055 482.017 199.752 481.719C199.45 481.416 199.301 481.054 199.305 480.632C199.301 480.214 199.45 479.857 199.752 479.558C200.055 479.26 200.417 479.111 200.839 479.111C201.244 479.111 201.6 479.26 201.907 479.558C202.213 479.857 202.369 480.214 202.373 480.632C202.369 480.913 202.294 481.171 202.15 481.406C202.009 481.636 201.824 481.821 201.593 481.962C201.363 482.098 201.112 482.166 200.839 482.166Z" fill="#191F28"/>
    <path d="M353 506H40C31.1634 506 24 513.163 24 522V570C24 578.837 31.1634 586 40 586H353C361.837 586 369 578.837 369 570V522C369 513.163 361.837 506 353 506Z" fill="#FFF5F5"/>
    <path d="M132.685 555H127.082L135.619 530.273H142.356L150.88 555H145.278L139.084 535.923H138.891L132.685 555ZM132.335 545.281H145.567V549.362H132.335V545.281ZM162.851 555.338C161.048 555.338 159.442 555.028 158.034 554.408C156.633 553.781 155.526 552.919 154.713 551.825C153.908 550.722 153.494 549.45 153.47 548.009H158.734C158.766 548.613 158.963 549.144 159.326 549.603C159.696 550.054 160.187 550.404 160.799 550.653C161.41 550.903 162.099 551.028 162.863 551.028C163.66 551.028 164.364 550.887 164.976 550.605C165.588 550.323 166.067 549.933 166.413 549.434C166.759 548.935 166.932 548.359 166.932 547.707C166.932 547.047 166.747 546.464 166.377 545.957C166.015 545.442 165.491 545.039 164.807 544.749C164.131 544.46 163.326 544.315 162.392 544.315H160.086V540.475H162.392C163.181 540.475 163.877 540.338 164.481 540.065C165.093 539.791 165.568 539.413 165.906 538.93C166.244 538.439 166.413 537.867 166.413 537.215C166.413 536.595 166.264 536.052 165.966 535.585C165.676 535.11 165.266 534.74 164.735 534.474C164.212 534.209 163.6 534.076 162.9 534.076C162.191 534.076 161.543 534.205 160.956 534.462C160.368 534.712 159.897 535.07 159.543 535.537C159.189 536.004 159 536.551 158.975 537.179H153.965C153.989 535.754 154.395 534.499 155.184 533.412C155.973 532.325 157.036 531.476 158.372 530.864C159.716 530.245 161.233 529.935 162.924 529.935C164.63 529.935 166.123 530.245 167.403 530.864C168.683 531.484 169.677 532.321 170.385 533.376C171.102 534.422 171.456 535.597 171.448 536.901C171.456 538.286 171.025 539.441 170.156 540.366C169.295 541.292 168.172 541.88 166.787 542.129V542.322C168.606 542.556 169.991 543.188 170.941 544.218C171.899 545.24 172.373 546.52 172.365 548.058C172.373 549.466 171.967 550.718 171.146 551.812C170.333 552.907 169.21 553.768 167.777 554.396C166.345 555.024 164.703 555.338 162.851 555.338ZM181.17 530.273L186.157 538.7H186.35L191.361 530.273H197.265L189.719 542.636L197.434 555H191.421L186.35 546.56H186.157L181.086 555H175.097L182.836 542.636L175.242 530.273H181.17ZM209.375 529.935C210.647 529.935 211.87 530.148 213.045 530.575C214.229 531.001 215.283 531.681 216.209 532.615C217.142 533.549 217.879 534.788 218.418 536.334C218.965 537.871 219.243 539.759 219.251 541.996C219.251 544.097 219.014 545.973 218.539 547.623C218.072 549.265 217.4 550.661 216.523 551.812C215.645 552.964 214.587 553.841 213.347 554.445C212.108 555.04 210.723 555.338 209.194 555.338C207.544 555.338 206.087 555.02 204.823 554.384C203.559 553.74 202.541 552.867 201.768 551.764C201.004 550.653 200.541 549.406 200.38 548.021H205.535C205.737 548.923 206.159 549.623 206.803 550.122C207.447 550.613 208.244 550.859 209.194 550.859C210.804 550.859 212.027 550.158 212.864 548.758C213.701 547.349 214.124 545.421 214.132 542.974H213.963C213.593 543.699 213.094 544.323 212.466 544.846C211.838 545.361 211.117 545.759 210.305 546.041C209.5 546.323 208.642 546.464 207.733 546.464C206.276 546.464 204.976 546.122 203.833 545.438C202.69 544.753 201.788 543.812 201.128 542.612C200.468 541.413 200.138 540.045 200.138 538.507C200.13 536.849 200.513 535.372 201.285 534.076C202.058 532.78 203.137 531.766 204.521 531.033C205.914 530.293 207.532 529.927 209.375 529.935ZM209.411 534.04C208.598 534.04 207.874 534.233 207.238 534.619C206.61 535.006 206.111 535.525 205.741 536.177C205.378 536.829 205.201 537.557 205.209 538.362C205.209 539.175 205.386 539.908 205.741 540.56C206.103 541.204 206.594 541.719 207.214 542.105C207.841 542.483 208.558 542.673 209.363 542.673C209.966 542.673 210.526 542.56 211.041 542.335C211.556 542.109 212.003 541.799 212.381 541.405C212.768 541.002 213.069 540.54 213.287 540.016C213.504 539.493 213.613 538.938 213.613 538.35C213.605 537.569 213.42 536.853 213.057 536.201C212.695 535.549 212.196 535.026 211.56 534.631C210.924 534.237 210.208 534.04 209.411 534.04ZM223.018 555V530.273H228.246V541.175H228.572L237.471 530.273H243.737L234.561 541.344L243.846 555H237.591L230.818 544.834L228.246 547.973V555H223.018ZM246.315 555V551.233L255.117 543.083C255.865 542.359 256.493 541.707 257 541.127C257.515 540.548 257.906 539.98 258.171 539.425C258.437 538.861 258.57 538.254 258.57 537.602C258.57 536.877 258.405 536.253 258.075 535.73C257.745 535.199 257.294 534.792 256.722 534.511C256.151 534.221 255.503 534.076 254.779 534.076C254.022 534.076 253.362 534.229 252.798 534.535C252.235 534.841 251.8 535.279 251.494 535.851C251.189 536.422 251.036 537.103 251.036 537.891H246.073C246.073 536.273 246.44 534.869 247.172 533.678C247.905 532.486 248.931 531.565 250.251 530.913C251.571 530.261 253.092 529.935 254.815 529.935C256.586 529.935 258.127 530.249 259.439 530.876C260.759 531.496 261.785 532.357 262.518 533.46C263.25 534.563 263.617 535.827 263.617 537.251C263.617 538.185 263.432 539.107 263.061 540.016C262.699 540.926 262.051 541.936 261.117 543.047C260.184 544.15 258.868 545.474 257.169 547.019L253.559 550.557V550.726H263.943V555H246.315Z" fill="#FF6B6B"/>
    <path d="M178 610H36C29.3726 610 24 615.373 24 622V646C24 652.627 29.3726 658 36 658H178C184.627 658 190 652.627 190 646V622C190 615.373 184.627 610 178 610Z" stroke="#FF6B6B" stroke-width="1.5"/>
    <path d="M81.5121 629.346H89.6881V630.844H81.5121V629.346ZM80.1821 638.25H91.9141V639.748H80.1821V638.25ZM88.9321 629.346H90.7801V630.494C90.7801 631.017 90.7707 631.577 90.7521 632.174C90.7427 632.771 90.6961 633.439 90.6121 634.176C90.5281 634.913 90.3881 635.758 90.1921 636.71L88.3441 636.514C88.6427 635.198 88.8154 634.055 88.8621 633.084C88.9087 632.104 88.9321 631.241 88.9321 630.494V629.346ZM89.2681 632.468V633.882L81.3581 634.302L81.1201 632.72L89.2681 632.468ZM84.3401 635.142H86.2161V638.796H84.3401V635.142ZM94.447 634.26H103.561V635.73H94.447V634.26ZM93.075 638.166H104.821V639.678H93.075V638.166ZM94.447 629.332H103.463V630.844H96.295V634.876H94.447V629.332ZM109.18 634.68H120.912V636.164H109.18V634.68ZM114.108 633.028H115.956V634.988H114.108V633.028ZM110.482 637.06H119.498V641.246H117.636V638.516H110.482V637.06ZM110.678 628.604H112.512V629.738H117.58V628.604H119.428V633.602H110.678V628.604ZM112.512 631.138V632.146H117.58V631.138H112.512ZM124.985 629.276H126.483V631.152C126.483 631.955 126.413 632.739 126.273 633.504C126.133 634.26 125.914 634.965 125.615 635.618C125.326 636.271 124.957 636.855 124.509 637.368C124.061 637.872 123.534 638.273 122.927 638.572L121.807 637.074C122.358 636.822 122.829 636.486 123.221 636.066C123.622 635.646 123.954 635.17 124.215 634.638C124.476 634.106 124.668 633.546 124.789 632.958C124.92 632.361 124.985 631.759 124.985 631.152V629.276ZM125.349 629.276H126.847V631.152C126.847 631.74 126.903 632.319 127.015 632.888C127.136 633.457 127.318 633.999 127.561 634.512C127.813 635.016 128.126 635.469 128.499 635.87C128.872 636.271 129.32 636.603 129.843 636.864L128.709 638.348C128.13 638.049 127.626 637.657 127.197 637.172C126.777 636.677 126.432 636.113 126.161 635.478C125.89 634.834 125.685 634.148 125.545 633.42C125.414 632.683 125.349 631.927 125.349 631.152V629.276ZM130.347 628.282H132.223V641.246H130.347V628.282ZM131.817 633.266H134.099V634.806H131.817V633.266Z" fill="#FF6B6B"/>
    <path d="M357 610H214C207.373 610 202 615.373 202 622V646C202 652.627 207.373 658 214 658H357C363.627 658 369 652.627 369 646V622C369 615.373 363.627 610 357 610Z" fill="#FF6B6B"/>
    <path d="M265.598 636.346C266.532 636.346 267.344 636.444 268.034 636.64C268.725 636.836 269.257 637.116 269.63 637.48C270.013 637.844 270.204 638.283 270.204 638.796C270.204 639.3 270.013 639.734 269.63 640.098C269.257 640.471 268.725 640.756 268.034 640.952C267.344 641.148 266.532 641.246 265.598 641.246C264.674 641.246 263.867 641.148 263.176 640.952C262.486 640.756 261.949 640.471 261.566 640.098C261.193 639.734 261.006 639.3 261.006 638.796C261.006 638.283 261.193 637.844 261.566 637.48C261.949 637.116 262.486 636.836 263.176 636.64C263.867 636.444 264.674 636.346 265.598 636.346ZM265.598 637.746C265.02 637.746 264.525 637.783 264.114 637.858C263.704 637.933 263.391 638.049 263.176 638.208C262.971 638.367 262.868 638.563 262.868 638.796C262.868 639.029 262.971 639.225 263.176 639.384C263.391 639.533 263.704 639.65 264.114 639.734C264.525 639.809 265.02 639.846 265.598 639.846C266.186 639.846 266.686 639.809 267.096 639.734C267.507 639.65 267.82 639.533 268.034 639.384C268.249 639.225 268.356 639.029 268.356 638.796C268.356 638.563 268.249 638.367 268.034 638.208C267.82 638.049 267.507 637.933 267.096 637.858C266.686 637.783 266.186 637.746 265.598 637.746ZM261.146 628.856H269.364V630.312H261.146V628.856ZM259.844 634.064H271.506V635.534H259.844V634.064ZM264.156 631.796H266.018V634.428H264.156V631.796ZM268.272 628.856H270.134V629.92C270.134 630.433 270.12 630.97 270.092 631.53C270.064 632.09 269.957 632.706 269.77 633.378L267.922 633.196C268.1 632.533 268.202 631.945 268.23 631.432C268.258 630.919 268.272 630.415 268.272 629.92V628.856ZM275.341 636.472H277.231V641.232H275.341V636.472ZM279.821 636.472H281.711V641.232H279.821V636.472ZM272.695 635.492H284.427V636.99H272.695V635.492ZM278.533 628.716C279.457 628.716 280.269 628.833 280.969 629.066C281.678 629.299 282.229 629.635 282.621 630.074C283.013 630.513 283.209 631.026 283.209 631.614C283.209 632.202 283.013 632.715 282.621 633.154C282.229 633.583 281.678 633.919 280.969 634.162C280.269 634.395 279.457 634.512 278.533 634.512C277.609 634.512 276.792 634.395 276.083 634.162C275.383 633.919 274.832 633.583 274.431 633.154C274.039 632.715 273.843 632.202 273.843 631.614C273.843 631.026 274.039 630.513 274.431 630.074C274.832 629.635 275.383 629.299 276.083 629.066C276.792 628.833 277.609 628.716 278.533 628.716ZM278.533 630.186C277.964 630.186 277.469 630.242 277.049 630.354C276.638 630.466 276.321 630.629 276.097 630.844C275.873 631.049 275.761 631.306 275.761 631.614C275.761 631.922 275.873 632.183 276.097 632.398C276.321 632.603 276.638 632.762 277.049 632.874C277.469 632.977 277.964 633.028 278.533 633.028C279.102 633.028 279.592 632.977 280.003 632.874C280.414 632.762 280.731 632.603 280.955 632.398C281.188 632.183 281.305 631.922 281.305 631.614C281.305 631.306 281.188 631.049 280.955 630.844C280.731 630.629 280.414 630.466 280.003 630.354C279.592 630.242 279.102 630.186 278.533 630.186ZM293.876 628.282H295.738V641.246H293.876V628.282ZM295.318 633.336H297.6V634.876H295.318V633.336ZM285.504 630.186H293.064V631.67H285.504V630.186ZM289.312 632.412C289.937 632.412 290.497 632.547 290.992 632.818C291.487 633.079 291.874 633.439 292.154 633.896C292.443 634.353 292.588 634.885 292.588 635.492C292.588 636.099 292.443 636.635 292.154 637.102C291.874 637.559 291.487 637.923 290.992 638.194C290.507 638.455 289.947 638.586 289.312 638.586C288.687 638.586 288.122 638.455 287.618 638.194C287.123 637.923 286.731 637.559 286.442 637.102C286.162 636.635 286.022 636.099 286.022 635.492C286.022 634.885 286.162 634.353 286.442 633.896C286.731 633.439 287.123 633.079 287.618 632.818C288.122 632.547 288.687 632.412 289.312 632.412ZM289.312 633.924C289.013 633.924 288.752 633.985 288.528 634.106C288.304 634.227 288.127 634.405 287.996 634.638C287.865 634.871 287.8 635.156 287.8 635.492C287.8 635.819 287.865 636.103 287.996 636.346C288.127 636.579 288.304 636.761 288.528 636.892C288.752 637.013 289.013 637.074 289.312 637.074C289.601 637.074 289.858 637.013 290.082 636.892C290.306 636.761 290.483 636.579 290.614 636.346C290.745 636.103 290.81 635.819 290.81 635.492C290.81 635.156 290.745 634.871 290.614 634.638C290.483 634.405 290.306 634.227 290.082 634.106C289.858 633.985 289.601 633.924 289.312 633.924ZM288.36 628.492H290.236V630.76H288.36V628.492ZM307.385 628.268H309.247V641.232H307.385V628.268ZM303.563 629.612H305.397C305.397 630.601 305.299 631.549 305.103 632.454C304.916 633.35 304.599 634.195 304.151 634.988C303.712 635.781 303.106 636.519 302.331 637.2C301.566 637.872 300.609 638.488 299.461 639.048L298.481 637.578C299.732 636.971 300.726 636.304 301.463 635.576C302.21 634.839 302.746 634.008 303.073 633.084C303.4 632.151 303.563 631.105 303.563 629.948V629.612ZM299.181 629.612H304.431V631.096H299.181V629.612Z" fill="white"/>
    <path d="M96.5256 687.86H97.4096V689.056C97.4096 689.81 97.2753 690.512 97.0066 691.162C96.7466 691.812 96.374 692.38 95.8886 692.865C95.4033 693.342 94.8356 693.706 94.1856 693.957L93.6006 693.099C94.1986 692.882 94.7143 692.57 95.1476 692.163C95.5896 691.756 95.9276 691.288 96.1616 690.759C96.4043 690.222 96.5256 689.654 96.5256 689.056V687.86ZM96.7206 687.86H97.5916V689.147C97.5916 689.537 97.661 689.923 97.7996 690.304C97.9383 690.677 98.1333 691.023 98.3846 691.344C98.6446 691.665 98.948 691.951 99.2946 692.202C99.6413 692.445 100.027 692.64 100.452 692.787L99.8796 693.632C99.2556 693.398 98.7053 693.06 98.2286 692.618C97.752 692.167 97.3793 691.647 97.1106 691.058C96.8506 690.46 96.7206 689.823 96.7206 689.147V687.86ZM101.713 687.249H102.792V694.386H101.713V687.249ZM102.493 690.291H104.521V691.201H102.493V690.291ZM99.0476 694.698C99.845 694.698 100.53 694.785 101.102 694.958C101.682 695.123 102.129 695.365 102.441 695.686C102.753 696.007 102.909 696.392 102.909 696.843C102.909 697.294 102.753 697.679 102.441 698C102.129 698.321 101.682 698.563 101.102 698.728C100.53 698.901 99.845 698.988 99.0476 698.988C98.2503 698.988 97.5613 698.901 96.9806 698.728C96.4 698.563 95.9536 698.321 95.6416 698C95.3296 697.679 95.1736 697.294 95.1736 696.843C95.1736 696.392 95.3296 696.007 95.6416 695.686C95.9536 695.365 96.4 695.123 96.9806 694.958C97.5613 694.785 98.2503 694.698 99.0476 694.698ZM99.0476 695.556C98.467 695.556 97.9643 695.608 97.5396 695.712C97.1236 695.816 96.803 695.963 96.5776 696.154C96.3523 696.345 96.2396 696.574 96.2396 696.843C96.2396 697.12 96.3523 697.354 96.5776 697.545C96.803 697.736 97.1236 697.883 97.5396 697.987C97.9643 698.082 98.467 698.13 99.0476 698.13C99.6283 698.13 100.127 698.082 100.543 697.987C100.959 697.883 101.279 697.736 101.505 697.545C101.73 697.354 101.843 697.12 101.843 696.843C101.843 696.574 101.73 696.345 101.505 696.154C101.279 695.963 100.959 695.816 100.543 695.712C100.127 695.608 99.6283 695.556 99.0476 695.556ZM114.569 687.249H115.596V699.014H114.569V687.249ZM112.58 691.968H114.842V692.852H112.58V691.968ZM111.904 687.509H112.905V698.403H111.904V687.509ZM106.041 695.205H106.808C107.388 695.205 107.913 695.201 108.381 695.192C108.857 695.175 109.308 695.14 109.733 695.088C110.166 695.036 110.608 694.962 111.059 694.867L111.163 695.764C110.695 695.859 110.24 695.933 109.798 695.985C109.364 696.037 108.905 696.072 108.42 696.089C107.943 696.106 107.406 696.115 106.808 696.115H106.041V695.205ZM106.041 688.679H110.409V689.563H107.12V695.621H106.041V688.679ZM122.966 694.633C123.763 694.633 124.448 694.72 125.02 694.893C125.6 695.066 126.047 695.313 126.359 695.634C126.671 695.955 126.827 696.345 126.827 696.804C126.827 697.263 126.671 697.658 126.359 697.987C126.047 698.316 125.6 698.568 125.02 698.741C124.448 698.914 123.763 699.001 122.966 699.001C122.168 699.001 121.479 698.914 120.899 698.741C120.318 698.568 119.872 698.316 119.56 697.987C119.248 697.658 119.092 697.263 119.092 696.804C119.092 696.345 119.248 695.955 119.56 695.634C119.872 695.313 120.318 695.066 120.899 694.893C121.479 694.72 122.168 694.633 122.966 694.633ZM122.966 695.491C122.385 695.491 121.882 695.543 121.458 695.647C121.042 695.751 120.721 695.903 120.496 696.102C120.27 696.293 120.158 696.527 120.158 696.804C120.158 697.09 120.27 697.333 120.496 697.532C120.721 697.731 121.042 697.883 121.458 697.987C121.882 698.091 122.385 698.143 122.966 698.143C123.546 698.143 124.045 698.091 124.461 697.987C124.877 697.883 125.197 697.731 125.423 697.532C125.648 697.333 125.761 697.09 125.761 696.804C125.761 696.527 125.648 696.293 125.423 696.102C125.197 695.903 124.877 695.751 124.461 695.647C124.045 695.543 123.546 695.491 122.966 695.491ZM125.631 687.249H126.71V694.308H125.631V687.249ZM126.411 690.2H128.439V691.11H126.411V690.2ZM118.065 687.99H119.131V689.758H122.446V687.99H123.512V693.411H118.065V687.99ZM119.131 690.616V692.54H122.446V690.616H119.131ZM138.084 687.249H139.163V699.027H138.084V687.249ZM132.962 688.159C133.542 688.159 134.054 688.328 134.496 688.666C134.946 688.995 135.297 689.468 135.549 690.083C135.809 690.698 135.939 691.422 135.939 692.254C135.939 693.086 135.809 693.81 135.549 694.425C135.297 695.04 134.946 695.517 134.496 695.855C134.054 696.193 133.542 696.362 132.962 696.362C132.381 696.362 131.865 696.193 131.415 695.855C130.964 695.517 130.609 695.04 130.349 694.425C130.097 693.81 129.972 693.086 129.972 692.254C129.972 691.422 130.097 690.698 130.349 690.083C130.609 689.468 130.964 688.995 131.415 688.666C131.865 688.328 132.381 688.159 132.962 688.159ZM132.962 689.121C132.572 689.121 132.229 689.251 131.935 689.511C131.649 689.762 131.423 690.126 131.259 690.603C131.094 691.071 131.012 691.621 131.012 692.254C131.012 692.887 131.094 693.441 131.259 693.918C131.423 694.386 131.649 694.75 131.935 695.01C132.229 695.27 132.572 695.4 132.962 695.4C133.343 695.4 133.677 695.27 133.963 695.01C134.257 694.75 134.487 694.386 134.652 693.918C134.816 693.441 134.899 692.887 134.899 692.254C134.899 691.621 134.816 691.071 134.652 690.603C134.487 690.126 134.257 689.762 133.963 689.511C133.677 689.251 133.343 689.121 132.962 689.121ZM153.699 687.249H154.778V699.027H153.699V687.249ZM148.577 688.159C149.157 688.159 149.669 688.328 150.111 688.666C150.561 688.995 150.912 689.468 151.164 690.083C151.424 690.698 151.554 691.422 151.554 692.254C151.554 693.086 151.424 693.81 151.164 694.425C150.912 695.04 150.561 695.517 150.111 695.855C149.669 696.193 149.157 696.362 148.577 696.362C147.996 696.362 147.48 696.193 147.03 695.855C146.579 695.517 146.224 695.04 145.964 694.425C145.712 693.81 145.587 693.086 145.587 692.254C145.587 691.422 145.712 690.698 145.964 690.083C146.224 689.468 146.579 688.995 147.03 688.666C147.48 688.328 147.996 688.159 148.577 688.159ZM148.577 689.121C148.187 689.121 147.844 689.251 147.55 689.511C147.264 689.762 147.038 690.126 146.874 690.603C146.709 691.071 146.627 691.621 146.627 692.254C146.627 692.887 146.709 693.441 146.874 693.918C147.038 694.386 147.264 694.75 147.55 695.01C147.844 695.27 148.187 695.4 148.577 695.4C148.958 695.4 149.292 695.27 149.578 695.01C149.872 694.75 150.102 694.386 150.267 693.918C150.431 693.441 150.514 692.887 150.514 692.254C150.514 691.621 150.431 691.071 150.267 690.603C150.102 690.126 149.872 689.762 149.578 689.511C149.292 689.251 148.958 689.121 148.577 689.121ZM162.047 688.393H169.496V689.277H162.047V688.393ZM160.773 696.518H171.394V697.415H160.773V696.518ZM169.054 688.393H170.107V689.511C170.107 689.988 170.098 690.495 170.081 691.032C170.072 691.569 170.033 692.159 169.964 692.8C169.903 693.433 169.791 694.152 169.626 694.958L168.56 694.841C168.803 693.697 168.946 692.696 168.989 691.838C169.032 690.98 169.054 690.204 169.054 689.511V688.393ZM169.301 691.214V692.033L161.878 692.462L161.709 691.526L169.301 691.214ZM164.907 693.476H165.973V696.843H164.907V693.476ZM174.084 692.891H182.157V693.775H174.084V692.891ZM172.732 696.518H183.392V697.415H172.732V696.518ZM174.084 688.341H182.04V689.225H175.15V693.281H174.084V688.341ZM184.678 692.709H195.338V693.541H184.678V692.709ZM185.952 694.477H194.012V696.986H187.044V698.364H185.978V696.245H192.946V695.257H185.952V694.477ZM185.978 698.078H194.389V698.858H185.978V698.078ZM186.03 687.6H193.973V690.044H187.122V691.318H186.056V689.316H192.907V688.367H186.03V687.6ZM186.056 691.058H194.181V691.838H186.056V691.058ZM208.86 687.249H209.939V693.567H208.86V687.249ZM202.373 694.152H203.426V695.569H208.873V694.152H209.939V698.858H202.373V694.152ZM203.426 696.427V697.974H208.873V696.427H203.426ZM203.634 687.808C204.232 687.808 204.761 687.925 205.22 688.159C205.68 688.384 206.039 688.701 206.299 689.108C206.568 689.515 206.702 689.988 206.702 690.525C206.702 691.054 206.568 691.526 206.299 691.942C206.039 692.349 205.68 692.666 205.22 692.891C204.761 693.116 204.232 693.229 203.634 693.229C203.045 693.229 202.516 693.116 202.048 692.891C201.589 692.666 201.225 692.349 200.956 691.942C200.696 691.526 200.566 691.054 200.566 690.525C200.566 689.988 200.696 689.515 200.956 689.108C201.225 688.701 201.589 688.384 202.048 688.159C202.516 687.925 203.045 687.808 203.634 687.808ZM203.634 688.718C203.244 688.718 202.898 688.796 202.594 688.952C202.291 689.099 202.053 689.312 201.879 689.589C201.706 689.858 201.619 690.17 201.619 690.525C201.619 690.872 201.706 691.184 201.879 691.461C202.053 691.73 202.291 691.942 202.594 692.098C202.898 692.254 203.244 692.332 203.634 692.332C204.024 692.332 204.371 692.254 204.674 692.098C204.978 691.942 205.216 691.73 205.389 691.461C205.563 691.184 205.649 690.872 205.649 690.525C205.649 690.17 205.563 689.858 205.389 689.589C205.216 689.312 204.978 689.099 204.674 688.952C204.371 688.796 204.024 688.718 203.634 688.718ZM212.759 693.086H213.591C214.363 693.086 215.021 693.082 215.567 693.073C216.122 693.056 216.625 693.025 217.075 692.982C217.535 692.939 217.998 692.874 218.466 692.787L218.57 693.671C218.215 693.732 217.864 693.784 217.517 693.827C217.171 693.862 216.807 693.888 216.425 693.905C216.044 693.922 215.624 693.935 215.164 693.944C214.705 693.953 214.181 693.957 213.591 693.957H212.759V693.086ZM212.733 687.964H217.79V691.292H213.825V693.606H212.759V690.46H216.724V688.835H212.733V687.964ZM220.858 687.262H221.937V694.49H220.858V687.262ZM218.57 689.004H221.105V689.875H218.57V689.004ZM218.57 691.435H221.105V692.319H218.57V691.435ZM214.072 695.114H221.937V699.027H220.858V695.998H214.072V695.114ZM232.193 687.249H233.259V699.014H232.193V687.249ZM233.012 692.085H235.183V692.995H233.012V692.085ZM224.159 689.134H231.088V690.018H224.159V689.134ZM227.682 690.98C228.237 690.98 228.727 691.097 229.151 691.331C229.585 691.565 229.923 691.886 230.165 692.293C230.417 692.692 230.542 693.155 230.542 693.684C230.542 694.213 230.417 694.681 230.165 695.088C229.923 695.495 229.585 695.816 229.151 696.05C228.727 696.275 228.237 696.388 227.682 696.388C227.128 696.388 226.634 696.275 226.2 696.05C225.776 695.816 225.438 695.495 225.186 695.088C224.935 694.681 224.809 694.213 224.809 693.684C224.809 693.155 224.935 692.692 225.186 692.293C225.438 691.886 225.776 691.565 226.2 691.331C226.634 691.097 227.128 690.98 227.682 690.98ZM227.682 691.877C227.327 691.877 227.011 691.955 226.733 692.111C226.456 692.267 226.235 692.479 226.07 692.748C225.914 693.017 225.836 693.329 225.836 693.684C225.836 694.039 225.914 694.356 226.07 694.633C226.235 694.902 226.456 695.114 226.733 695.27C227.011 695.417 227.327 695.491 227.682 695.491C228.029 695.491 228.341 695.417 228.618 695.27C228.896 695.114 229.112 694.902 229.268 694.633C229.433 694.356 229.515 694.039 229.515 693.684C229.515 693.329 229.433 693.017 229.268 692.748C229.112 692.479 228.896 692.267 228.618 692.111C228.341 691.955 228.029 691.877 227.682 691.877ZM227.123 687.392H228.202V689.524H227.123V687.392ZM241.825 689.316H245.101V690.213H241.825V689.316ZM241.825 691.838H245.127V692.722H241.825V691.838ZM236.729 688.276H242.085V693.775H236.729V688.276ZM241.032 689.147H237.782V692.917H241.032V689.147ZM244.776 687.262H245.855V695.842H244.776V687.262ZM238.302 697.87H246.128V698.754H238.302V697.87ZM238.302 695.075H239.381V698.273H238.302V695.075ZM257.232 689.095H260.768V689.979H257.232V689.095ZM257.232 691.903H260.768V692.787H257.232V691.903ZM260.391 687.262H261.47V695.946H260.391V687.262ZM253.969 697.87H261.795V698.754H253.969V697.87ZM253.969 695.049H255.035V698.247H253.969V695.049ZM255.009 688.003C255.581 688.003 256.093 688.129 256.543 688.38C257.003 688.631 257.362 688.978 257.622 689.42C257.891 689.862 258.025 690.369 258.025 690.941C258.025 691.522 257.891 692.033 257.622 692.475C257.362 692.917 257.003 693.264 256.543 693.515C256.093 693.766 255.581 693.892 255.009 693.892C254.429 693.892 253.909 693.766 253.449 693.515C252.999 693.264 252.639 692.917 252.37 692.475C252.11 692.033 251.98 691.522 251.98 690.941C251.98 690.369 252.11 689.862 252.37 689.42C252.639 688.978 252.999 688.631 253.449 688.38C253.909 688.129 254.429 688.003 255.009 688.003ZM255.009 688.965C254.628 688.965 254.286 689.052 253.982 689.225C253.679 689.39 253.441 689.624 253.267 689.927C253.094 690.222 253.007 690.564 253.007 690.954C253.007 691.335 253.094 691.678 253.267 691.981C253.441 692.284 253.679 692.523 253.982 692.696C254.286 692.861 254.628 692.943 255.009 692.943C255.382 692.943 255.72 692.861 256.023 692.696C256.327 692.523 256.565 692.284 256.738 691.981C256.912 691.678 256.998 691.335 256.998 690.954C256.998 690.564 256.912 690.222 256.738 689.927C256.565 689.624 256.327 689.39 256.023 689.225C255.72 689.052 255.382 688.965 255.009 688.965ZM272.35 687.249H273.429V693.255H272.35V687.249ZM268.632 687.834H269.802C269.802 688.813 269.581 689.68 269.139 690.434C268.706 691.188 268.082 691.825 267.267 692.345C266.453 692.856 265.473 693.246 264.329 693.515L263.952 692.631C264.966 692.397 265.82 692.076 266.513 691.669C267.207 691.253 267.731 690.768 268.086 690.213C268.45 689.65 268.632 689.03 268.632 688.354V687.834ZM264.55 687.834H269.113V688.718H264.55V687.834ZM269.373 688.952H272.519V689.797H269.373V688.952ZM269.269 691.201H272.454V692.046H269.269V691.201ZM265.863 693.788H273.429V696.674H266.955V698.546H265.889V695.855H272.35V694.659H265.863V693.788ZM265.889 698.026H273.819V698.897H265.889V698.026ZM278.212 692.982H279.239V695.751H278.212V692.982ZM275.729 696.479L275.573 695.569C275.989 695.569 276.449 695.569 276.951 695.569C277.463 695.56 277.991 695.547 278.537 695.53C279.083 695.504 279.625 695.474 280.162 695.439C280.7 695.404 281.198 695.357 281.657 695.296L281.722 696.089C281.09 696.193 280.409 696.275 279.681 696.336C278.953 696.397 278.243 696.436 277.549 696.453C276.865 696.47 276.258 696.479 275.729 696.479ZM284.608 687.249H285.648V699.014H284.608V687.249ZM282.827 692.137H284.933V693.021H282.827V692.137ZM282.19 687.509H283.204V698.39H282.19V687.509ZM276.184 692.319H281.254V693.19H276.184V692.319ZM276.184 688.445H281.15V689.329H277.237V692.592H276.184V688.445ZM290.288 693.307H291.354V696.817H290.288V693.307ZM294.63 693.307H295.709V696.817H294.63V693.307ZM287.675 696.609H298.335V697.506H287.675V696.609ZM292.979 687.99C293.811 687.99 294.548 688.116 295.189 688.367C295.831 688.618 296.333 688.969 296.697 689.42C297.07 689.871 297.256 690.404 297.256 691.019C297.256 691.626 297.07 692.159 296.697 692.618C296.333 693.069 295.831 693.42 295.189 693.671C294.548 693.914 293.811 694.035 292.979 694.035C292.156 694.035 291.419 693.914 290.769 693.671C290.128 693.42 289.625 693.069 289.261 692.618C288.897 692.159 288.715 691.626 288.715 691.019C288.715 690.404 288.897 689.871 289.261 689.42C289.625 688.969 290.128 688.618 290.769 688.367C291.419 688.116 292.156 687.99 292.979 687.99ZM292.979 688.848C292.355 688.848 291.801 688.939 291.315 689.121C290.83 689.303 290.449 689.559 290.171 689.888C289.894 690.209 289.755 690.586 289.755 691.019C289.755 691.452 289.894 691.834 290.171 692.163C290.449 692.484 290.83 692.735 291.315 692.917C291.801 693.099 292.355 693.19 292.979 693.19C293.612 693.19 294.171 693.099 294.656 692.917C295.142 692.735 295.523 692.484 295.8 692.163C296.078 691.834 296.216 691.452 296.216 691.019C296.216 690.586 296.078 690.209 295.8 689.888C295.523 689.559 295.142 689.303 294.656 689.121C294.171 688.939 293.612 688.848 292.979 688.848Z" fill="#8B95A1"/>
    <path d="M124.61 721.132H131.486V721.948H124.61V721.132ZM123.434 728.632H133.238V729.46H123.434V728.632ZM131.078 721.132H132.05V722.164C132.05 722.604 132.042 723.072 132.026 723.568C132.018 724.064 131.982 724.608 131.918 725.2C131.862 725.784 131.758 726.448 131.606 727.192L130.622 727.084C130.846 726.028 130.978 725.104 131.018 724.312C131.058 723.52 131.078 722.804 131.078 722.164V721.132ZM131.306 723.736V724.492L124.454 724.888L124.298 724.024L131.306 723.736ZM127.25 725.824H128.234V728.932H127.25V725.824ZM135.721 725.284H143.173V726.1H135.721V725.284ZM134.473 728.632H144.313V729.46H134.473V728.632ZM135.721 721.084H143.065V721.9H136.705V725.644H135.721V721.084ZM146.832 723.34H154.212V724.144H146.832V723.34ZM145.5 725.596H155.34V726.412H145.5V725.596ZM146.832 720.472H147.816V723.748H146.832V720.472ZM146.76 729.856H154.272V730.672H146.76V729.856ZM146.76 727.504H147.756V730.072H146.76V727.504ZM160.23 730V729.233L163.11 726.08C163.448 725.71 163.727 725.389 163.945 725.116C164.164 724.841 164.326 724.582 164.431 724.341C164.539 724.097 164.593 723.841 164.593 723.574C164.593 723.267 164.519 723.001 164.372 722.777C164.227 722.553 164.028 722.379 163.775 722.257C163.522 722.135 163.238 722.074 162.923 722.074C162.588 722.074 162.295 722.143 162.045 722.283C161.798 722.419 161.606 722.611 161.47 722.858C161.336 723.105 161.269 723.395 161.269 723.727H160.264C160.264 723.216 160.382 722.767 160.617 722.381C160.853 721.994 161.174 721.693 161.58 721.477C161.99 721.261 162.448 721.153 162.957 721.153C163.468 721.153 163.921 721.261 164.316 721.477C164.711 721.693 165.021 721.984 165.245 722.351C165.47 722.717 165.582 723.125 165.582 723.574C165.582 723.895 165.524 724.209 165.407 724.516C165.294 724.82 165.095 725.159 164.811 725.534C164.529 725.906 164.139 726.361 163.639 726.898L161.678 728.994V729.062H165.735V730H160.23ZM167.103 728.21V727.341L170.938 721.273H171.569V722.619H171.143L168.245 727.205V727.273H173.41V728.21H167.103ZM171.211 730V727.946V727.541V721.273H172.217V730H171.211ZM177.56 721.012H178.388V722.956C178.388 723.58 178.308 724.188 178.148 724.78C177.996 725.364 177.776 725.912 177.488 726.424C177.208 726.928 176.876 727.376 176.492 727.768C176.116 728.152 175.704 728.456 175.256 728.68L174.644 727.852C175.052 727.668 175.432 727.404 175.784 727.06C176.136 726.716 176.444 726.328 176.708 725.896C176.972 725.456 177.18 724.984 177.332 724.48C177.484 723.976 177.56 723.468 177.56 722.956V721.012ZM177.728 721.012H178.556V722.956C178.556 723.452 178.628 723.94 178.772 724.42C178.924 724.9 179.132 725.356 179.396 725.788C179.668 726.212 179.976 726.588 180.32 726.916C180.672 727.236 181.048 727.488 181.448 727.672L180.848 728.464C180.408 728.256 180 727.964 179.624 727.588C179.248 727.212 178.916 726.78 178.628 726.292C178.348 725.804 178.128 725.276 177.968 724.708C177.808 724.14 177.728 723.556 177.728 722.956V721.012ZM182.588 720.076H183.584V730.948H182.588V720.076ZM193.159 720.076H194.167V728.008H193.159V720.076ZM193.855 723.364H195.763V724.204H193.855V723.364ZM190.195 720.916H191.251C191.251 721.852 191.043 722.7 190.627 723.46C190.219 724.22 189.635 724.88 188.875 725.44C188.115 726 187.215 726.444 186.175 726.772L185.755 725.968C186.667 725.68 187.455 725.308 188.119 724.852C188.783 724.396 189.295 723.872 189.655 723.28C190.015 722.688 190.195 722.048 190.195 721.36V720.916ZM186.199 720.916H190.711V721.744H186.199V720.916ZM187.399 729.88H194.635V730.696H187.399V729.88ZM187.399 727.204H188.395V730.204H187.399V727.204ZM200.673 721.312H209.397V722.128H200.673V721.312ZM200.157 727.12H209.997V727.936H200.157V727.12ZM204.561 727.78H205.545V730.948H204.561V727.78ZM205.053 722.752C206.157 722.752 207.021 722.908 207.645 723.22C208.269 723.532 208.581 723.98 208.581 724.564C208.581 725.132 208.269 725.576 207.645 725.896C207.021 726.208 206.157 726.364 205.053 726.364C203.949 726.364 203.085 726.208 202.461 725.896C201.837 725.576 201.525 725.132 201.525 724.564C201.525 723.98 201.837 723.532 202.461 723.22C203.085 722.908 203.949 722.752 205.053 722.752ZM205.053 723.508C204.261 723.508 203.645 723.6 203.205 723.784C202.773 723.96 202.557 724.22 202.557 724.564C202.557 724.892 202.773 725.148 203.205 725.332C203.645 725.516 204.261 725.608 205.053 725.608C205.845 725.608 206.457 725.516 206.889 725.332C207.329 725.148 207.549 724.892 207.549 724.564C207.549 724.22 207.329 723.96 206.889 723.784C206.457 723.6 205.845 723.508 205.053 723.508ZM204.561 720.016H205.545V721.852H204.561V720.016ZM215.015 721.06H220.007V726.076H215.015V721.06ZM219.035 721.864H215.987V725.272H219.035V721.864ZM221.999 720.076H222.995V728.032H221.999V720.076ZM222.683 723.376H224.591V724.204H222.683V723.376ZM216.239 729.88H223.475V730.696H216.239V729.88ZM216.239 727.276H217.223V730.228H216.239V727.276ZM228.358 726.436H229.33V729.1H228.358V726.436ZM231.826 726.424H232.798V729.088H231.826V726.424ZM225.61 728.764H235.45V729.592H225.61V728.764ZM226.81 720.88H234.226V724.168H227.818V726.34H226.834V723.364H233.242V721.696H226.81V720.88ZM226.834 725.908H234.478V726.724H226.834V725.908ZM239.745 723.76H240.741V725.548H239.745V723.76ZM244.545 720.088H245.541V726.328H244.545V720.088ZM236.829 726.076L236.685 725.26C237.349 725.26 238.073 725.256 238.857 725.248C239.649 725.232 240.457 725.2 241.281 725.152C242.113 725.096 242.909 725.016 243.669 724.912L243.729 725.62C242.945 725.756 242.145 725.856 241.329 725.92C240.513 725.984 239.721 726.024 238.953 726.04C238.185 726.056 237.477 726.068 236.829 726.076ZM237.657 723.256H242.865V724.048H237.657V723.256ZM237.657 720.616H242.769V721.432H238.653V723.556H237.657V720.616ZM238.437 726.82H239.421V727.96H244.569V726.82H245.541V730.792H238.437V726.82ZM239.421 728.728V729.976H244.569V728.728H239.421ZM255.584 720.076H256.568V730.936H255.584V720.076ZM248.372 721.144H249.356V727.864H248.372V721.144ZM248.372 727.276H249.26C250.092 727.276 250.936 727.24 251.792 727.168C252.656 727.088 253.544 726.956 254.456 726.772L254.588 727.612C253.644 727.812 252.736 727.952 251.864 728.032C250.992 728.104 250.124 728.14 249.26 728.14H248.372V727.276ZM266.071 720.076H267.067V730.948H266.071V720.076ZM266.839 724.36H268.843V725.188H266.839V724.36ZM259.195 727.396H260.047C260.711 727.396 261.319 727.388 261.871 727.372C262.431 727.348 262.967 727.308 263.479 727.252C263.999 727.196 264.527 727.12 265.063 727.024L265.183 727.876C264.623 727.972 264.079 728.048 263.551 728.104C263.031 728.16 262.487 728.196 261.919 728.212C261.351 728.228 260.727 728.236 260.047 728.236H259.195V727.396ZM259.195 721.132H264.223V721.948H260.179V727.78H259.195V721.132Z" fill="#B0B8C1"/>
    <path d="M142.259 840.545C142.217 840.186 142.044 839.906 141.741 839.707C141.438 839.509 141.066 839.409 140.626 839.409C140.304 839.409 140.022 839.461 139.781 839.565C139.542 839.67 139.354 839.813 139.22 839.995C139.087 840.177 139.021 840.384 139.021 840.616C139.021 840.811 139.067 840.978 139.159 841.117C139.254 841.254 139.375 841.369 139.521 841.462C139.668 841.552 139.822 841.626 139.983 841.685C140.144 841.742 140.292 841.788 140.427 841.824L141.166 842.023C141.355 842.072 141.566 842.141 141.798 842.229C142.032 842.316 142.256 842.436 142.469 842.587C142.684 842.737 142.862 842.928 143.002 843.163C143.141 843.397 143.211 843.685 143.211 844.026C143.211 844.419 143.108 844.774 142.902 845.091C142.698 845.408 142.4 845.66 142.007 845.847C141.617 846.034 141.142 846.128 140.583 846.128C140.062 846.128 139.611 846.044 139.23 845.876C138.851 845.708 138.553 845.473 138.335 845.173C138.12 844.872 137.998 844.523 137.97 844.125H138.879C138.902 844.4 138.995 844.627 139.156 844.807C139.319 844.984 139.525 845.117 139.774 845.205C140.024 845.29 140.294 845.332 140.583 845.332C140.919 845.332 141.221 845.278 141.489 845.169C141.756 845.058 141.968 844.904 142.124 844.707C142.281 844.509 142.359 844.277 142.359 844.011C142.359 843.77 142.291 843.573 142.156 843.422C142.021 843.27 141.844 843.147 141.624 843.053C141.403 842.958 141.166 842.875 140.91 842.804L140.015 842.548C139.447 842.385 138.997 842.152 138.666 841.849C138.334 841.546 138.168 841.149 138.168 840.659C138.168 840.252 138.278 839.897 138.499 839.594C138.721 839.288 139.02 839.052 139.394 838.884C139.77 838.713 140.19 838.628 140.654 838.628C141.123 838.628 141.54 838.712 141.904 838.88C142.269 839.046 142.558 839.273 142.771 839.562C142.986 839.851 143.1 840.179 143.112 840.545H142.259ZM146.989 846.099C146.52 846.099 146.102 846.019 145.735 845.858C145.37 845.697 145.08 845.473 144.865 845.187C144.652 844.898 144.536 844.563 144.517 844.182H145.412C145.431 844.416 145.511 844.619 145.653 844.789C145.795 844.957 145.981 845.087 146.211 845.18C146.44 845.272 146.695 845.318 146.974 845.318C147.287 845.318 147.564 845.264 147.805 845.155C148.047 845.046 148.236 844.894 148.373 844.7C148.511 844.506 148.579 844.281 148.579 844.026C148.579 843.758 148.513 843.522 148.381 843.319C148.248 843.113 148.054 842.952 147.798 842.836C147.543 842.72 147.23 842.662 146.861 842.662H146.278V841.881H146.861C147.15 841.881 147.403 841.829 147.621 841.724C147.841 841.62 148.012 841.473 148.136 841.284C148.261 841.095 148.324 840.872 148.324 840.616C148.324 840.37 148.269 840.156 148.16 839.974C148.052 839.791 147.898 839.649 147.699 839.548C147.502 839.446 147.27 839.395 147.003 839.395C146.752 839.395 146.515 839.441 146.293 839.533C146.072 839.623 145.892 839.755 145.753 839.928C145.613 840.098 145.537 840.304 145.525 840.545H144.673C144.687 840.164 144.802 839.83 145.018 839.544C145.233 839.255 145.515 839.03 145.863 838.869C146.213 838.708 146.598 838.628 147.017 838.628C147.467 838.628 147.853 838.719 148.175 838.901C148.497 839.081 148.744 839.319 148.917 839.615C149.09 839.911 149.176 840.231 149.176 840.574C149.176 840.983 149.068 841.333 148.853 841.621C148.64 841.91 148.35 842.11 147.983 842.222V842.278C148.442 842.354 148.801 842.549 149.059 842.864C149.317 843.177 149.446 843.564 149.446 844.026C149.446 844.421 149.338 844.776 149.123 845.091C148.91 845.403 148.619 845.65 148.249 845.83C147.88 846.009 147.46 846.099 146.989 846.099ZM151.324 846H150.401L153.072 838.727H153.981L156.651 846H155.728L153.555 839.878H153.498L151.324 846ZM151.665 843.159H155.387V843.94H151.665V843.159ZM160.795 841.973V842.754H157.614V841.973H160.795ZM161.914 846V845.361L164.315 842.733C164.596 842.425 164.828 842.158 165.011 841.93C165.193 841.701 165.328 841.485 165.415 841.284C165.505 841.08 165.55 840.867 165.55 840.645C165.55 840.389 165.489 840.168 165.366 839.981C165.245 839.794 165.079 839.649 164.869 839.548C164.658 839.446 164.421 839.395 164.158 839.395C163.879 839.395 163.635 839.453 163.427 839.569C163.221 839.683 163.061 839.842 162.947 840.048C162.836 840.254 162.78 840.496 162.78 840.773H161.942C161.942 840.347 162.041 839.973 162.237 839.651C162.434 839.329 162.701 839.078 163.04 838.898C163.381 838.718 163.763 838.628 164.187 838.628C164.613 838.628 164.99 838.718 165.32 838.898C165.649 839.078 165.907 839.32 166.094 839.626C166.281 839.931 166.374 840.271 166.374 840.645C166.374 840.912 166.326 841.174 166.229 841.43C166.134 841.683 165.968 841.966 165.731 842.278C165.497 842.589 165.172 842.967 164.755 843.415L163.121 845.162V845.219H166.502V846H161.914ZM180.028 841.973V842.754H170.028V841.973H180.028ZM189.574 841H188.693C188.641 840.747 188.55 840.524 188.42 840.332C188.292 840.141 188.136 839.98 187.951 839.849C187.769 839.717 187.566 839.617 187.344 839.551C187.121 839.485 186.889 839.452 186.648 839.452C186.207 839.452 185.808 839.563 185.451 839.786C185.096 840.008 184.813 840.336 184.602 840.769C184.394 841.202 184.29 841.734 184.29 842.364C184.29 842.993 184.394 843.525 184.602 843.958C184.813 844.391 185.096 844.719 185.451 844.942C185.808 845.164 186.207 845.276 186.648 845.276C186.889 845.276 187.121 845.242 187.344 845.176C187.566 845.11 187.769 845.012 187.951 844.881C188.136 844.749 188.292 844.587 188.42 844.395C188.55 844.201 188.641 843.978 188.693 843.727H189.574C189.507 844.099 189.387 844.432 189.212 844.725C189.036 845.019 188.819 845.268 188.558 845.474C188.298 845.678 188.005 845.833 187.681 845.94C187.359 846.046 187.015 846.099 186.648 846.099C186.027 846.099 185.476 845.948 184.993 845.645C184.51 845.342 184.13 844.911 183.853 844.352C183.576 843.794 183.437 843.131 183.437 842.364C183.437 841.597 183.576 840.934 183.853 840.375C184.13 839.816 184.51 839.385 184.993 839.082C185.476 838.779 186.027 838.628 186.648 838.628C187.015 838.628 187.359 838.681 187.681 838.788C188.005 838.894 188.298 839.05 188.558 839.256C188.819 839.46 189.036 839.709 189.212 840.002C189.387 840.293 189.507 840.626 189.574 841ZM193.099 846.114C192.607 846.114 192.175 845.996 191.803 845.762C191.434 845.528 191.145 845.2 190.937 844.778C190.731 844.357 190.628 843.865 190.628 843.301C190.628 842.733 190.731 842.237 190.937 841.813C191.145 841.389 191.434 841.06 191.803 840.826C192.175 840.592 192.607 840.474 193.099 840.474C193.592 840.474 194.022 840.592 194.392 840.826C194.763 841.06 195.052 841.389 195.258 841.813C195.467 842.237 195.571 842.733 195.571 843.301C195.571 843.865 195.467 844.357 195.258 844.778C195.052 845.2 194.763 845.528 194.392 845.762C194.022 845.996 193.592 846.114 193.099 846.114ZM193.099 845.361C193.473 845.361 193.781 845.265 194.022 845.073C194.264 844.881 194.443 844.629 194.559 844.317C194.675 844.004 194.733 843.666 194.733 843.301C194.733 842.937 194.675 842.597 194.559 842.282C194.443 841.967 194.264 841.713 194.022 841.518C193.781 841.324 193.473 841.227 193.099 841.227C192.725 841.227 192.417 841.324 192.176 841.518C191.934 841.713 191.756 841.967 191.64 842.282C191.524 842.597 191.466 842.937 191.466 843.301C191.466 843.666 191.524 844.004 191.64 844.317C191.756 844.629 191.934 844.881 192.176 845.073C192.417 845.265 192.725 845.361 193.099 845.361ZM198.91 846.114C198.455 846.114 198.054 845.999 197.706 845.769C197.358 845.537 197.086 845.21 196.889 844.789C196.693 844.365 196.594 843.865 196.594 843.287C196.594 842.714 196.693 842.217 196.889 841.795C197.086 841.374 197.359 841.049 197.709 840.819C198.06 840.589 198.465 840.474 198.924 840.474C199.279 840.474 199.56 840.534 199.766 840.652C199.974 840.768 200.132 840.901 200.241 841.05C200.353 841.196 200.439 841.317 200.501 841.412H200.572V838.727H201.41V846H200.6V845.162H200.501C200.439 845.261 200.351 845.387 200.238 845.538C200.124 845.687 199.962 845.821 199.751 845.94C199.541 846.056 199.26 846.114 198.91 846.114ZM199.023 845.361C199.36 845.361 199.644 845.273 199.876 845.098C200.108 844.92 200.284 844.675 200.405 844.363C200.525 844.048 200.586 843.685 200.586 843.273C200.586 842.866 200.527 842.509 200.408 842.204C200.29 841.896 200.115 841.657 199.883 841.487C199.651 841.314 199.364 841.227 199.023 841.227C198.668 841.227 198.372 841.318 198.136 841.501C197.901 841.681 197.725 841.926 197.606 842.236C197.49 842.544 197.432 842.889 197.432 843.273C197.432 843.661 197.492 844.014 197.61 844.331C197.731 844.646 197.908 844.897 198.143 845.084C198.379 845.268 198.673 845.361 199.023 845.361ZM205.348 846.114C204.822 846.114 204.369 845.998 203.988 845.766C203.609 845.531 203.317 845.205 203.111 844.786C202.907 844.364 202.805 843.874 202.805 843.315C202.805 842.757 202.907 842.264 203.111 841.838C203.317 841.41 203.603 841.076 203.97 840.837C204.339 840.595 204.77 840.474 205.263 840.474C205.547 840.474 205.827 840.522 206.104 840.616C206.381 840.711 206.633 840.865 206.861 841.078C207.088 841.289 207.269 841.568 207.404 841.916C207.539 842.264 207.606 842.693 207.606 843.202V843.557H203.402V842.832H206.754C206.754 842.525 206.693 842.25 206.57 842.009C206.449 841.767 206.276 841.576 206.051 841.437C205.829 841.297 205.566 841.227 205.263 841.227C204.929 841.227 204.64 841.31 204.396 841.476C204.155 841.639 203.969 841.852 203.839 842.115C203.708 842.378 203.643 842.66 203.643 842.96V843.443C203.643 843.855 203.714 844.204 203.856 844.491C204.001 844.775 204.201 844.991 204.457 845.141C204.712 845.287 205.009 845.361 205.348 845.361C205.568 845.361 205.767 845.33 205.945 845.268C206.124 845.205 206.28 845.11 206.41 844.984C206.54 844.857 206.641 844.698 206.712 844.509L207.521 844.736C207.436 845.01 207.293 845.252 207.092 845.46C206.89 845.666 206.642 845.827 206.346 845.943C206.05 846.057 205.717 846.114 205.348 846.114ZM216.779 841C216.701 840.761 216.598 840.547 216.47 840.357C216.345 840.165 216.194 840.002 216.019 839.867C215.846 839.732 215.65 839.629 215.43 839.558C215.209 839.487 214.968 839.452 214.705 839.452C214.274 839.452 213.882 839.563 213.53 839.786C213.177 840.008 212.896 840.336 212.688 840.769C212.48 841.202 212.376 841.734 212.376 842.364C212.376 842.993 212.481 843.525 212.692 843.958C212.902 844.391 213.188 844.719 213.547 844.942C213.907 845.164 214.312 845.276 214.762 845.276C215.179 845.276 215.546 845.187 215.863 845.009C216.182 844.829 216.431 844.576 216.609 844.249C216.789 843.92 216.878 843.533 216.878 843.088L217.148 843.145H214.961V842.364H217.731V843.145C217.731 843.744 217.603 844.265 217.347 844.707C217.094 845.15 216.744 845.493 216.296 845.737C215.851 845.979 215.34 846.099 214.762 846.099C214.118 846.099 213.552 845.948 213.065 845.645C212.579 845.342 212.2 844.911 211.928 844.352C211.658 843.794 211.523 843.131 211.523 842.364C211.523 841.788 211.6 841.271 211.754 840.812C211.91 840.35 212.131 839.957 212.415 839.633C212.699 839.308 213.035 839.06 213.423 838.887C213.811 838.714 214.239 838.628 214.705 838.628C215.089 838.628 215.446 838.686 215.778 838.802C216.111 838.915 216.409 839.078 216.669 839.288C216.932 839.497 217.151 839.746 217.326 840.038C217.501 840.326 217.622 840.647 217.688 841H216.779ZM221.412 846.114C220.887 846.114 220.433 845.998 220.052 845.766C219.674 845.531 219.381 845.205 219.175 844.786C218.972 844.364 218.87 843.874 218.87 843.315C218.87 842.757 218.972 842.264 219.175 841.838C219.381 841.41 219.668 841.076 220.035 840.837C220.404 840.595 220.835 840.474 221.327 840.474C221.611 840.474 221.892 840.522 222.169 840.616C222.446 840.711 222.698 840.865 222.925 841.078C223.152 841.289 223.334 841.568 223.468 841.916C223.603 842.264 223.671 842.693 223.671 843.202V843.557H219.466V842.832H222.819C222.819 842.525 222.757 842.25 222.634 842.009C222.513 841.767 222.34 841.576 222.116 841.437C221.893 841.297 221.63 841.227 221.327 841.227C220.993 841.227 220.705 841.31 220.461 841.476C220.219 841.639 220.033 841.852 219.903 842.115C219.773 842.378 219.708 842.66 219.708 842.96V843.443C219.708 843.855 219.779 844.204 219.921 844.491C220.065 844.775 220.265 844.991 220.521 845.141C220.777 845.287 221.074 845.361 221.412 845.361C221.633 845.361 221.831 845.33 222.009 845.268C222.189 845.205 222.344 845.11 222.474 844.984C222.604 844.857 222.705 844.698 222.776 844.509L223.586 844.736C223.5 845.01 223.357 845.252 223.156 845.46C222.955 845.666 222.706 845.827 222.41 845.943C222.114 846.057 221.782 846.114 221.412 846.114ZM225.784 842.719V846H224.946V840.545H225.755V841.398H225.826C225.954 841.121 226.148 840.898 226.409 840.73C226.669 840.56 227.005 840.474 227.417 840.474C227.787 840.474 228.11 840.55 228.387 840.702C228.664 840.851 228.879 841.078 229.033 841.384C229.187 841.687 229.264 842.07 229.264 842.534V846H228.426V842.591C228.426 842.162 228.315 841.829 228.092 841.589C227.87 841.348 227.564 841.227 227.176 841.227C226.908 841.227 226.669 841.285 226.459 841.401C226.25 841.517 226.086 841.687 225.965 841.909C225.844 842.132 225.784 842.402 225.784 842.719ZM233.082 846.114C232.557 846.114 232.103 845.998 231.722 845.766C231.343 845.531 231.051 845.205 230.845 844.786C230.641 844.364 230.54 843.874 230.54 843.315C230.54 842.757 230.641 842.264 230.845 841.838C231.051 841.41 231.338 841.076 231.704 840.837C232.074 840.595 232.505 840.474 232.997 840.474C233.281 840.474 233.562 840.522 233.839 840.616C234.116 840.711 234.368 840.865 234.595 841.078C234.822 841.289 235.003 841.568 235.138 841.916C235.273 842.264 235.341 842.693 235.341 843.202V843.557H231.136V842.832H234.489C234.489 842.525 234.427 842.25 234.304 842.009C234.183 841.767 234.01 841.576 233.785 841.437C233.563 841.297 233.3 841.227 232.997 841.227C232.663 841.227 232.374 841.31 232.131 841.476C231.889 841.639 231.703 841.852 231.573 842.115C231.443 842.378 231.378 842.66 231.378 842.96V843.443C231.378 843.855 231.449 844.204 231.591 844.491C231.735 844.775 231.935 844.991 232.191 845.141C232.447 845.287 232.744 845.361 233.082 845.361C233.302 845.361 233.501 845.33 233.679 845.268C233.859 845.205 234.014 845.11 234.144 844.984C234.274 844.857 234.375 844.698 234.446 844.509L235.256 844.736C235.17 845.01 235.027 845.252 234.826 845.46C234.625 845.666 234.376 845.827 234.08 845.943C233.784 846.057 233.452 846.114 233.082 846.114ZM236.616 846V840.545H237.425V841.369H237.482C237.582 841.099 237.762 840.88 238.022 840.712C238.282 840.544 238.576 840.46 238.903 840.46C238.964 840.46 239.041 840.461 239.133 840.464C239.226 840.466 239.296 840.47 239.343 840.474V841.327C239.315 841.32 239.249 841.309 239.148 841.295C239.048 841.278 238.943 841.27 238.832 841.27C238.566 841.27 238.33 841.326 238.121 841.437C237.915 841.546 237.752 841.697 237.631 841.891C237.513 842.083 237.454 842.302 237.454 842.548V846H236.616ZM241.941 846.128C241.596 846.128 241.282 846.063 241 845.933C240.719 845.8 240.495 845.609 240.329 845.361C240.164 845.11 240.081 844.807 240.081 844.452C240.081 844.139 240.142 843.886 240.265 843.692C240.388 843.495 240.553 843.341 240.759 843.23C240.965 843.119 241.192 843.036 241.441 842.982C241.692 842.925 241.944 842.88 242.197 842.847C242.529 842.804 242.797 842.772 243.003 842.751C243.212 842.727 243.363 842.688 243.458 842.634C243.555 842.579 243.603 842.484 243.603 842.349V842.321C243.603 841.971 243.508 841.698 243.316 841.504C243.126 841.31 242.839 841.213 242.453 841.213C242.053 841.213 241.739 841.301 241.512 841.476C241.285 841.651 241.125 841.838 241.032 842.037L240.237 841.753C240.379 841.421 240.568 841.163 240.805 840.979C241.044 840.792 241.305 840.661 241.586 840.588C241.87 840.512 242.15 840.474 242.424 840.474C242.6 840.474 242.801 840.496 243.028 840.538C243.258 840.579 243.479 840.663 243.692 840.79C243.908 840.918 244.086 841.111 244.228 841.369C244.37 841.627 244.441 841.973 244.441 842.406V846H243.603V845.261H243.561C243.504 845.38 243.409 845.506 243.277 845.641C243.144 845.776 242.968 845.891 242.748 845.986C242.527 846.08 242.259 846.128 241.941 846.128ZM242.069 845.375C242.401 845.375 242.68 845.31 242.907 845.18C243.137 845.049 243.31 844.881 243.426 844.675C243.544 844.469 243.603 844.253 243.603 844.026V843.259C243.568 843.301 243.49 843.34 243.369 843.376C243.251 843.409 243.113 843.438 242.957 843.464C242.803 843.488 242.653 843.509 242.506 843.528C242.362 843.545 242.245 843.559 242.155 843.571C241.937 843.599 241.733 843.646 241.544 843.71C241.357 843.771 241.205 843.865 241.089 843.99C240.976 844.113 240.919 844.281 240.919 844.494C240.919 844.786 241.026 845.006 241.242 845.155C241.46 845.302 241.736 845.375 242.069 845.375ZM248.343 840.545V841.256H245.517V840.545H248.343ZM246.34 839.239H247.179V844.438C247.179 844.674 247.213 844.852 247.282 844.97C247.353 845.086 247.443 845.164 247.551 845.205C247.663 845.242 247.78 845.261 247.903 845.261C247.995 845.261 248.071 845.257 248.13 845.247C248.189 845.235 248.237 845.226 248.272 845.219L248.443 845.972C248.386 845.993 248.307 846.014 248.205 846.036C248.103 846.059 247.974 846.071 247.818 846.071C247.581 846.071 247.349 846.02 247.122 845.918C246.897 845.817 246.71 845.661 246.561 845.453C246.414 845.245 246.34 844.982 246.34 844.665V839.239ZM251.832 846.114C251.307 846.114 250.853 845.998 250.472 845.766C250.093 845.531 249.801 845.205 249.595 844.786C249.391 844.364 249.29 843.874 249.29 843.315C249.29 842.757 249.391 842.264 249.595 841.838C249.801 841.41 250.088 841.076 250.454 840.837C250.824 840.595 251.255 840.474 251.747 840.474C252.031 840.474 252.312 840.522 252.589 840.616C252.866 840.711 253.118 840.865 253.345 841.078C253.572 841.289 253.753 841.568 253.888 841.916C254.023 842.264 254.091 842.693 254.091 843.202V843.557H249.886V842.832H253.239C253.239 842.525 253.177 842.25 253.054 842.009C252.933 841.767 252.76 841.576 252.535 841.437C252.313 841.297 252.05 841.227 251.747 841.227C251.413 841.227 251.124 841.31 250.881 841.476C250.639 841.639 250.453 841.852 250.323 842.115C250.193 842.378 250.128 842.66 250.128 842.96V843.443C250.128 843.855 250.199 844.204 250.341 844.491C250.485 844.775 250.685 844.991 250.941 845.141C251.197 845.287 251.494 845.361 251.832 845.361C252.052 845.361 252.251 845.33 252.429 845.268C252.609 845.205 252.764 845.11 252.894 844.984C253.024 844.857 253.125 844.698 253.196 844.509L254.006 844.736C253.92 845.01 253.777 845.252 253.576 845.46C253.375 845.666 253.126 845.827 252.83 845.943C252.534 846.057 252.202 846.114 251.832 846.114Z" fill="white"/>
</svg>
