
<svg width="393" height="852" viewBox="0 0 393 852" fill="none" xmlns="http://www.w3.org/2000/svg">
    <path d="M393 0H0V852H393V0Z" fill="white"/>
    <path opacity="0.4" d="M393 0H0V852H393V0Z" fill="black"/>
    <path d="M369 490H24C10.7452 490 0 500.745 0 514V828C0 841.255 10.7452 852 24 852H369C382.255 852 393 841.255 393 828V514C393 500.745 382.255 490 369 490Z" fill="white"/>
    <path d="M220 500H174C172.895 500 172 500.895 172 502C172 503.105 172.895 504 174 504H220C221.105 504 222 503.105 222 502C222 500.895 221.105 500 220 500Z" fill="#D1D6DB"/>
    <path d="M24.738 539.768H39.84V541.712H24.738V539.768ZM31.092 536.546H33.468V540.758H31.092V536.546ZM31.074 530.39H33.18V530.75C33.18 531.554 33.024 532.31 32.712 533.018C32.4 533.714 31.938 534.344 31.326 534.908C30.726 535.472 29.988 535.946 29.112 536.33C28.236 536.714 27.222 536.978 26.07 537.122L25.206 535.214C26.226 535.094 27.102 534.89 27.834 534.602C28.578 534.302 29.184 533.942 29.652 533.522C30.132 533.102 30.486 532.658 30.714 532.19C30.954 531.71 31.074 531.23 31.074 530.75V530.39ZM31.38 530.39H33.486V530.75C33.486 531.23 33.6 531.71 33.828 532.19C34.068 532.658 34.422 533.102 34.89 533.522C35.37 533.942 35.982 534.302 36.726 534.602C37.47 534.89 38.346 535.094 39.354 535.214L38.49 537.122C37.338 536.978 36.324 536.714 35.448 536.33C34.572 535.946 33.828 535.472 33.216 534.908C32.616 534.344 32.16 533.714 31.848 533.018C31.536 532.31 31.38 531.554 31.38 530.75V530.39ZM26.016 529.184H38.526V531.092H26.016V529.184ZM31.092 527.15H33.468V529.958H31.092V527.15ZM53.3206 526.916H55.6066V543.584H53.3206V526.916ZM51.1066 533.342H53.8786V535.268H51.1066V533.342ZM49.5946 527.204H51.8086V542.81H49.5946V527.204ZM41.7646 537.86H42.9166C43.6126 537.86 44.2726 537.854 44.8966 537.842C45.5206 537.818 46.1386 537.776 46.7506 537.716C47.3746 537.644 48.0106 537.554 48.6586 537.446L48.8566 539.39C48.1846 539.51 47.5306 539.606 46.8946 539.678C46.2586 539.75 45.6166 539.798 44.9686 539.822C44.3206 539.834 43.6366 539.84 42.9166 539.84H41.7646V537.86ZM41.7646 528.86H47.9026V530.786H44.1226V538.814H41.7646V528.86ZM63.7132 528.302H74.2252V530.228H63.7132V528.302ZM62.0032 539.75H77.0872V541.676H62.0032V539.75ZM73.2532 528.302H75.6292V529.778C75.6292 530.45 75.6172 531.17 75.5932 531.938C75.5812 532.706 75.5212 533.564 75.4132 534.512C75.3052 535.46 75.1252 536.546 74.8732 537.77L72.4972 537.518C72.8812 535.826 73.1032 534.356 73.1632 533.108C73.2232 531.848 73.2532 530.738 73.2532 529.778V528.302ZM73.6852 532.316V534.134L63.5152 534.674L63.2092 532.64L73.6852 532.316ZM67.3492 535.754H69.7612V540.452H67.3492V535.754ZM80.3438 534.62H92.0618V536.51H80.3438V534.62ZM78.5798 539.642H93.6818V541.586H78.5798V539.642ZM80.3438 528.284H91.9358V530.228H82.7198V535.412H80.3438V528.284ZM95.1384 534.404H110.222V536.132H95.1384V534.404ZM96.8304 536.978H108.44V540.938H99.2244V542.36H96.8484V539.426H106.082V538.598H96.8304V536.978ZM96.8484 541.838H108.908V543.458H96.8484V541.838ZM96.9744 527.204H108.386V531.146H99.3684V532.496H97.0104V529.634H106.028V528.824H96.9744V527.204ZM97.0104 532.01H108.692V533.63H97.0104V532.01ZM127.311 526.934H129.705V535.88H127.311V526.934ZM118.635 536.618H120.993V538.166H127.329V536.618H129.705V543.422H118.635V536.618ZM120.993 540.002V541.514H127.329V540.002H120.993ZM120.633 527.618C121.497 527.618 122.271 527.786 122.955 528.122C123.639 528.458 124.179 528.92 124.575 529.508C124.971 530.096 125.169 530.774 125.169 531.542C125.169 532.31 124.971 532.994 124.575 533.594C124.179 534.182 123.639 534.644 122.955 534.98C122.271 535.316 121.497 535.484 120.633 535.484C119.769 535.484 118.995 535.316 118.311 534.98C117.627 534.644 117.087 534.182 116.691 533.594C116.295 532.994 116.097 532.31 116.097 531.542C116.097 530.774 116.295 530.096 116.691 529.508C117.087 528.92 117.627 528.458 118.311 528.122C118.995 527.786 119.769 527.618 120.633 527.618ZM120.633 529.58C120.213 529.58 119.835 529.658 119.499 529.814C119.163 529.97 118.899 530.198 118.707 530.498C118.527 530.786 118.437 531.134 118.437 531.542C118.437 531.962 118.527 532.322 118.707 532.622C118.899 532.91 119.163 533.132 119.499 533.288C119.835 533.432 120.213 533.504 120.633 533.504C121.053 533.504 121.425 533.432 121.749 533.288C122.085 533.132 122.349 532.91 122.541 532.622C122.733 532.322 122.829 531.962 122.829 531.542C122.829 531.134 122.733 530.786 122.541 530.498C122.349 530.198 122.085 529.97 121.749 529.814C121.425 529.658 121.053 529.58 120.633 529.58ZM133.052 534.854H134.312C135.356 534.854 136.25 534.848 136.994 534.836C137.75 534.812 138.44 534.77 139.064 534.71C139.688 534.65 140.306 534.566 140.918 534.458L141.17 536.366C140.678 536.45 140.192 536.522 139.712 536.582C139.244 536.642 138.74 536.684 138.2 536.708C137.672 536.732 137.09 536.75 136.454 536.762C135.83 536.774 135.116 536.78 134.312 536.78H133.052V534.854ZM133.016 527.87H140.342V533.126H135.428V536.132H133.052V531.344H137.984V529.778H133.016V527.87ZM143.96 526.934H146.372V537.212H143.96V526.934ZM141.296 529.238H144.41V531.146H141.296V529.238ZM141.296 532.784H144.41V534.692H141.296V532.784ZM134.942 537.968H146.372V543.602H143.96V539.858H134.942V537.968ZM159.654 526.934H162.048V543.602H159.654V526.934ZM161.508 533.432H164.442V535.412H161.508V533.432ZM148.89 529.382H158.61V531.29H148.89V529.382ZM153.786 532.244C154.59 532.244 155.31 532.418 155.946 532.766C156.582 533.102 157.08 533.564 157.44 534.152C157.812 534.74 157.998 535.424 157.998 536.204C157.998 536.984 157.812 537.674 157.44 538.274C157.08 538.862 156.582 539.33 155.946 539.678C155.322 540.014 154.602 540.182 153.786 540.182C152.982 540.182 152.256 540.014 151.608 539.678C150.972 539.33 150.468 538.862 150.096 538.274C149.736 537.674 149.556 536.984 149.556 536.204C149.556 535.424 149.736 534.74 150.096 534.152C150.468 533.564 150.972 533.102 151.608 532.766C152.256 532.418 152.982 532.244 153.786 532.244ZM153.786 534.188C153.402 534.188 153.066 534.266 152.778 534.422C152.49 534.578 152.262 534.806 152.094 535.106C151.926 535.406 151.842 535.772 151.842 536.204C151.842 536.624 151.926 536.99 152.094 537.302C152.262 537.602 152.49 537.836 152.778 538.004C153.066 538.16 153.402 538.238 153.786 538.238C154.158 538.238 154.488 538.16 154.776 538.004C155.064 537.836 155.292 537.602 155.46 537.302C155.628 536.99 155.712 536.624 155.712 536.204C155.712 535.772 155.628 535.406 155.46 535.106C155.292 534.806 155.064 534.578 154.776 534.422C154.488 534.266 154.158 534.188 153.786 534.188ZM152.562 527.204H154.974V530.12H152.562V527.204ZM172.091 532.532H174.863V534.476H172.091V532.532ZM168.545 528.374H170.363V531.164C170.363 532.112 170.297 533.042 170.165 533.954C170.033 534.866 169.817 535.724 169.517 536.528C169.229 537.332 168.845 538.058 168.365 538.706C167.897 539.342 167.327 539.864 166.655 540.272L165.215 538.472C165.839 538.1 166.361 537.644 166.781 537.104C167.201 536.564 167.543 535.97 167.807 535.322C168.071 534.674 168.257 534.002 168.365 533.306C168.485 532.598 168.545 531.884 168.545 531.164V528.374ZM169.067 528.374H170.849V531.056C170.849 531.74 170.897 532.418 170.993 533.09C171.101 533.762 171.269 534.404 171.497 535.016C171.725 535.628 172.025 536.192 172.397 536.708C172.781 537.224 173.261 537.668 173.837 538.04L172.523 539.912C171.875 539.504 171.323 538.988 170.867 538.364C170.423 537.728 170.069 537.014 169.805 536.222C169.541 535.43 169.349 534.596 169.229 533.72C169.121 532.844 169.067 531.956 169.067 531.056V528.374ZM177.563 526.916H179.849V543.584H177.563V526.916ZM174.179 527.186H176.411V542.846H174.179V527.186ZM185.409 535.394H187.803V540.056H185.409V535.394ZM191.457 535.394H193.851V540.056H191.457V535.394ZM182.097 539.714H197.199V541.658H182.097V539.714ZM189.621 527.744C190.821 527.744 191.889 527.93 192.825 528.302C193.773 528.674 194.511 529.196 195.039 529.868C195.579 530.528 195.849 531.314 195.849 532.226C195.849 533.126 195.579 533.912 195.039 534.584C194.511 535.244 193.773 535.76 192.825 536.132C191.889 536.504 190.821 536.69 189.621 536.69C188.433 536.69 187.365 536.504 186.417 536.132C185.481 535.76 184.743 535.244 184.203 534.584C183.663 533.912 183.393 533.126 183.393 532.226C183.393 531.314 183.663 530.528 184.203 529.868C184.743 529.196 185.481 528.674 186.417 528.302C187.365 527.93 188.433 527.744 189.621 527.744ZM189.621 529.598C188.853 529.598 188.175 529.706 187.587 529.922C187.011 530.126 186.561 530.42 186.237 530.804C185.913 531.188 185.751 531.662 185.751 532.226C185.751 532.766 185.913 533.234 186.237 533.63C186.561 534.014 187.011 534.314 187.587 534.53C188.175 534.734 188.853 534.836 189.621 534.836C190.401 534.836 191.079 534.734 191.655 534.53C192.243 534.314 192.693 534.014 193.005 533.63C193.329 533.234 193.491 532.766 193.491 532.226C193.491 531.662 193.329 531.188 193.005 530.804C192.693 530.42 192.243 530.126 191.655 529.922C191.079 529.706 190.401 529.598 189.621 529.598Z" fill="#191F28"/>
    <path d="M27.51 553.86H28.394V555.056C28.394 555.81 28.2597 556.512 27.991 557.162C27.731 557.812 27.3583 558.38 26.873 558.865C26.3877 559.342 25.82 559.706 25.17 559.957L24.585 559.099C25.183 558.882 25.6987 558.57 26.132 558.163C26.574 557.756 26.912 557.288 27.146 556.759C27.3887 556.222 27.51 555.654 27.51 555.056V553.86ZM27.705 553.86H28.576V555.147C28.576 555.537 28.6453 555.923 28.784 556.304C28.9227 556.677 29.1177 557.023 29.369 557.344C29.629 557.665 29.9323 557.951 30.279 558.202C30.6257 558.445 31.0113 558.64 31.436 558.787L30.864 559.632C30.24 559.398 29.6897 559.06 29.213 558.618C28.7363 558.167 28.3637 557.647 28.095 557.058C27.835 556.46 27.705 555.823 27.705 555.147V553.86ZM32.697 553.249H33.776V560.386H32.697V553.249ZM33.477 556.291H35.505V557.201H33.477V556.291ZM30.032 560.698C30.8293 560.698 31.514 560.785 32.086 560.958C32.6667 561.123 33.113 561.365 33.425 561.686C33.737 562.007 33.893 562.392 33.893 562.843C33.893 563.294 33.737 563.679 33.425 564C33.113 564.321 32.6667 564.563 32.086 564.728C31.514 564.901 30.8293 564.988 30.032 564.988C29.2347 564.988 28.5457 564.901 27.965 564.728C27.3843 564.563 26.938 564.321 26.626 564C26.314 563.679 26.158 563.294 26.158 562.843C26.158 562.392 26.314 562.007 26.626 561.686C26.938 561.365 27.3843 561.123 27.965 560.958C28.5457 560.785 29.2347 560.698 30.032 560.698ZM30.032 561.556C29.4513 561.556 28.9487 561.608 28.524 561.712C28.108 561.816 27.7873 561.963 27.562 562.154C27.3367 562.345 27.224 562.574 27.224 562.843C27.224 563.12 27.3367 563.354 27.562 563.545C27.7873 563.736 28.108 563.883 28.524 563.987C28.9487 564.082 29.4513 564.13 30.032 564.13C30.6127 564.13 31.111 564.082 31.527 563.987C31.943 563.883 32.2637 563.736 32.489 563.545C32.7143 563.354 32.827 563.12 32.827 562.843C32.827 562.574 32.7143 562.345 32.489 562.154C32.2637 561.963 31.943 561.816 31.527 561.712C31.111 561.608 30.6127 561.556 30.032 561.556ZM45.553 553.249H46.58V565.014H45.553V553.249ZM43.564 557.968H45.826V558.852H43.564V557.968ZM42.888 553.509H43.889V564.403H42.888V553.509ZM37.025 561.205H37.792C38.3727 561.205 38.897 561.201 39.365 561.192C39.8417 561.175 40.2923 561.14 40.717 561.088C41.1503 561.036 41.5923 560.962 42.043 560.867L42.147 561.764C41.679 561.859 41.224 561.933 40.782 561.985C40.3487 562.037 39.8893 562.072 39.404 562.089C38.9273 562.106 38.39 562.115 37.792 562.115H37.025V561.205ZM37.025 554.679H41.393V555.563H38.104V561.621H37.025V554.679ZM53.95 560.633C54.7473 560.633 55.432 560.72 56.004 560.893C56.5846 561.066 57.031 561.313 57.343 561.634C57.655 561.955 57.811 562.345 57.811 562.804C57.811 563.263 57.655 563.658 57.343 563.987C57.031 564.316 56.5846 564.568 56.004 564.741C55.432 564.914 54.7473 565.001 53.95 565.001C53.1526 565.001 52.4636 564.914 51.883 564.741C51.3023 564.568 50.856 564.316 50.544 563.987C50.232 563.658 50.076 563.263 50.076 562.804C50.076 562.345 50.232 561.955 50.544 561.634C50.856 561.313 51.3023 561.066 51.883 560.893C52.4636 560.72 53.1526 560.633 53.95 560.633ZM53.95 561.491C53.3693 561.491 52.8666 561.543 52.442 561.647C52.026 561.751 51.7053 561.903 51.48 562.102C51.2546 562.293 51.142 562.527 51.142 562.804C51.142 563.09 51.2546 563.333 51.48 563.532C51.7053 563.731 52.026 563.883 52.442 563.987C52.8666 564.091 53.3693 564.143 53.95 564.143C54.5306 564.143 55.029 564.091 55.445 563.987C55.861 563.883 56.1816 563.731 56.407 563.532C56.6323 563.333 56.745 563.09 56.745 562.804C56.745 562.527 56.6323 562.293 56.407 562.102C56.1816 561.903 55.861 561.751 55.445 561.647C55.029 561.543 54.5306 561.491 53.95 561.491ZM56.615 553.249H57.694V560.308H56.615V553.249ZM57.395 556.2H59.423V557.11H57.395V556.2ZM49.049 553.99H50.115V555.758H53.43V553.99H54.496V559.411H49.049V553.99ZM50.115 556.616V558.54H53.43V556.616H50.115ZM65.298 557.825H67.508V558.709H65.298V557.825ZM69.484 553.249H70.524V565.014H69.484V553.249ZM67.144 553.496H68.171V564.416H67.144V553.496ZM63.166 554.237C63.6773 554.237 64.1193 554.402 64.492 554.731C64.8733 555.06 65.168 555.533 65.376 556.148C65.584 556.763 65.688 557.487 65.688 558.319C65.688 559.16 65.584 559.888 65.376 560.503C65.168 561.118 64.8733 561.595 64.492 561.933C64.1193 562.262 63.6773 562.427 63.166 562.427C62.672 562.427 62.2343 562.262 61.853 561.933C61.4803 561.595 61.19 561.118 60.982 560.503C60.774 559.888 60.67 559.16 60.67 558.319C60.67 557.487 60.774 556.763 60.982 556.148C61.19 555.533 61.4803 555.06 61.853 554.731C62.2343 554.402 62.672 554.237 63.166 554.237ZM63.166 555.238C62.8626 555.238 62.5983 555.364 62.373 555.615C62.1476 555.866 61.9743 556.222 61.853 556.681C61.7316 557.14 61.671 557.686 61.671 558.319C61.671 558.952 61.7316 559.502 61.853 559.97C61.9743 560.429 62.1476 560.785 62.373 561.036C62.5983 561.287 62.8626 561.413 63.166 561.413C63.478 561.413 63.7466 561.287 63.972 561.036C64.206 560.785 64.3836 560.429 64.505 559.97C64.6263 559.502 64.687 558.952 64.687 558.319C64.687 557.686 64.6263 557.14 64.505 556.681C64.3836 556.222 64.206 555.866 63.972 555.615C63.7466 555.364 63.478 555.238 63.166 555.238ZM81.4429 553.249H82.4829V565.014H81.4429V553.249ZM76.3339 558.059H79.2979V558.93H76.3339V558.059ZM78.9989 553.561H80.0129V564.416H78.9989V553.561ZM76.4769 554.744H77.5169C77.5169 555.767 77.3696 556.75 77.0749 557.695C76.7889 558.631 76.3209 559.506 75.6709 560.321C75.0209 561.127 74.1673 561.846 73.1099 562.479L72.4859 561.699C73.4046 561.144 74.1586 560.52 74.7479 559.827C75.3373 559.125 75.7706 558.367 76.0479 557.552C76.3339 556.729 76.4769 555.858 76.4769 554.939V554.744ZM72.9929 554.744H76.8799V555.628H72.9929V554.744ZM96.1482 553.249H97.2272V560.126H96.1482V553.249ZM96.9282 556.083H98.9562V556.98H96.9282V556.083ZM88.5822 553.912H89.6482V555.706H92.9632V553.912H94.0292V559.398H88.5822V553.912ZM89.6482 556.564V558.527H92.9632V556.564H89.6482ZM89.8692 560.776H97.3182V561.647H90.9482V564.598H89.8692V560.776ZM89.8692 563.974H97.5392V564.845H89.8692V563.974ZM100.06 559.437H110.681V560.308H100.06V559.437ZM101.425 563.87H109.498V564.754H101.425V563.87ZM101.425 561.348H102.504V564.13H101.425V561.348ZM105.364 553.652C106.205 553.652 106.933 553.747 107.548 553.938C108.172 554.12 108.653 554.389 108.991 554.744C109.329 555.091 109.498 555.507 109.498 555.992C109.498 556.477 109.329 556.898 108.991 557.253C108.653 557.608 108.172 557.881 107.548 558.072C106.933 558.254 106.205 558.345 105.364 558.345C104.523 558.345 103.791 558.254 103.167 558.072C102.552 557.881 102.075 557.608 101.737 557.253C101.399 556.898 101.23 556.477 101.23 555.992C101.23 555.507 101.399 555.091 101.737 554.744C102.075 554.389 102.552 554.12 103.167 553.938C103.791 553.747 104.523 553.652 105.364 553.652ZM105.364 554.523C104.757 554.523 104.224 554.584 103.765 554.705C103.314 554.818 102.963 554.987 102.712 555.212C102.461 555.429 102.335 555.689 102.335 555.992C102.335 556.295 102.461 556.56 102.712 556.785C102.963 557.002 103.314 557.171 103.765 557.292C104.224 557.405 104.757 557.461 105.364 557.461C105.988 557.461 106.525 557.405 106.976 557.292C107.427 557.171 107.773 557.002 108.016 556.785C108.267 556.56 108.393 556.295 108.393 555.992C108.393 555.689 108.267 555.429 108.016 555.212C107.773 554.987 107.427 554.818 106.976 554.705C106.525 554.584 105.988 554.523 105.364 554.523ZM119.143 564.129C118.756 564.123 118.368 564.049 117.98 563.908C117.592 563.766 117.238 563.528 116.918 563.192C116.598 562.854 116.341 562.397 116.147 561.821C115.953 561.242 115.856 560.516 115.856 559.642C115.856 558.805 115.935 558.063 116.092 557.417C116.249 556.768 116.477 556.221 116.775 555.778C117.074 555.332 117.434 554.993 117.855 554.762C118.28 554.532 118.759 554.416 119.291 554.416C119.82 554.416 120.291 554.522 120.704 554.735C121.119 554.944 121.458 555.236 121.719 555.612C121.981 555.987 122.15 556.42 122.227 556.909H121.101C120.996 556.484 120.793 556.132 120.491 555.852C120.19 555.572 119.79 555.432 119.291 555.432C118.559 555.432 117.981 555.75 117.56 556.387C117.141 557.025 116.93 557.919 116.927 559.07H117.001C117.174 558.808 117.378 558.585 117.615 558.4C117.855 558.212 118.12 558.068 118.409 557.966C118.699 557.865 119.005 557.814 119.328 557.814C119.87 557.814 120.365 557.949 120.814 558.22C121.264 558.488 121.624 558.859 121.895 559.333C122.166 559.804 122.301 560.344 122.301 560.953C122.301 561.538 122.17 562.073 121.909 562.56C121.647 563.043 121.279 563.428 120.805 563.714C120.334 563.997 119.78 564.135 119.143 564.129ZM119.143 563.114C119.531 563.114 119.879 563.017 120.187 562.823C120.497 562.629 120.742 562.369 120.921 562.043C121.102 561.716 121.193 561.353 121.193 560.953C121.193 560.562 121.105 560.207 120.93 559.887C120.758 559.564 120.519 559.307 120.214 559.116C119.913 558.925 119.568 558.83 119.18 558.83C118.888 558.83 118.615 558.888 118.363 559.005C118.111 559.119 117.889 559.276 117.698 559.476C117.511 559.676 117.363 559.905 117.255 560.164C117.147 560.419 117.094 560.688 117.094 560.972C117.094 561.347 117.181 561.698 117.357 562.024C117.535 562.35 117.778 562.614 118.086 562.814C118.397 563.014 118.749 563.114 119.143 563.114ZM126.687 554.939H127.558V556.837C127.558 557.452 127.471 558.063 127.298 558.67C127.124 559.268 126.882 559.836 126.57 560.373C126.266 560.902 125.915 561.374 125.517 561.79C125.118 562.197 124.689 562.518 124.23 562.752L123.593 561.894C124.017 561.686 124.412 561.404 124.776 561.049C125.148 560.685 125.478 560.273 125.764 559.814C126.05 559.346 126.275 558.861 126.44 558.358C126.604 557.847 126.687 557.34 126.687 556.837V554.939ZM126.895 554.939H127.753V556.837C127.753 557.305 127.826 557.777 127.974 558.254C128.13 558.731 128.346 559.186 128.624 559.619C128.901 560.052 129.222 560.442 129.586 560.789C129.958 561.127 130.353 561.4 130.769 561.608L130.158 562.466C129.698 562.232 129.269 561.92 128.871 561.53C128.472 561.131 128.125 560.681 127.831 560.178C127.536 559.675 127.306 559.138 127.142 558.566C126.977 557.994 126.895 557.418 126.895 556.837V554.939ZM124.009 554.458H130.353V555.355H124.009V554.458ZM131.744 553.249H132.823V565.014H131.744V553.249ZM132.576 557.994H134.747V558.904H132.576V557.994ZM144.314 553.249H145.38V565.027H144.314V553.249ZM136.423 561.283H137.398C138.065 561.283 138.706 561.274 139.322 561.257C139.946 561.231 140.574 561.188 141.207 561.127C141.848 561.066 142.515 560.98 143.209 560.867L143.313 561.751C142.255 561.924 141.259 562.041 140.323 562.102C139.387 562.154 138.412 562.18 137.398 562.18H136.423V561.283ZM136.397 554.341H141.831V558.54H137.515V561.621H136.423V557.669H140.739V555.225H136.397V554.341ZM152.636 554.393H160.085V555.277H152.636V554.393ZM151.362 562.518H161.983V563.415H151.362V562.518ZM159.643 554.393H160.696V555.511C160.696 555.988 160.687 556.495 160.67 557.032C160.661 557.569 160.622 558.159 160.553 558.8C160.492 559.433 160.38 560.152 160.215 560.958L159.149 560.841C159.392 559.697 159.535 558.696 159.578 557.838C159.621 556.98 159.643 556.204 159.643 555.511V554.393ZM159.89 557.214V558.033L152.467 558.462L152.298 557.526L159.89 557.214ZM155.496 559.476H156.562V562.843H155.496V559.476ZM164.673 558.891H172.746V559.775H164.673V558.891ZM163.321 562.518H173.981V563.415H163.321V562.518ZM164.673 554.341H172.629V555.225H165.739V559.281H164.673V554.341ZM175.267 558.709H185.927V559.541H175.267V558.709ZM176.541 560.477H184.601V562.986H177.633V564.364H176.567V562.245H183.535V561.257H176.541V560.477ZM176.567 564.078H184.978V564.858H176.567V564.078ZM176.619 553.6H184.562V556.044H177.711V557.318H176.645V555.316H183.496V554.367H176.619V553.6ZM176.645 557.058H184.77V557.838H176.645V557.058ZM199.449 553.249H200.528V559.567H199.449V553.249ZM192.962 560.152H194.015V561.569H199.462V560.152H200.528V564.858H192.962V560.152ZM194.015 562.427V563.974H199.462V562.427H194.015ZM194.223 553.808C194.821 553.808 195.35 553.925 195.809 554.159C196.268 554.384 196.628 554.701 196.888 555.108C197.157 555.515 197.291 555.988 197.291 556.525C197.291 557.054 197.157 557.526 196.888 557.942C196.628 558.349 196.268 558.666 195.809 558.891C195.35 559.116 194.821 559.229 194.223 559.229C193.634 559.229 193.105 559.116 192.637 558.891C192.178 558.666 191.814 558.349 191.545 557.942C191.285 557.526 191.155 557.054 191.155 556.525C191.155 555.988 191.285 555.515 191.545 555.108C191.814 554.701 192.178 554.384 192.637 554.159C193.105 553.925 193.634 553.808 194.223 553.808ZM194.223 554.718C193.833 554.718 193.486 554.796 193.183 554.952C192.88 555.099 192.641 555.312 192.468 555.589C192.295 555.858 192.208 556.17 192.208 556.525C192.208 556.872 192.295 557.184 192.468 557.461C192.641 557.73 192.88 557.942 193.183 558.098C193.486 558.254 193.833 558.332 194.223 558.332C194.613 558.332 194.96 558.254 195.263 558.098C195.566 557.942 195.805 557.73 195.978 557.461C196.151 557.184 196.238 556.872 196.238 556.525C196.238 556.17 196.151 555.858 195.978 555.589C195.805 555.312 195.566 555.099 195.263 554.952C194.96 554.796 194.613 554.718 194.223 554.718ZM203.348 559.086H204.18C204.951 559.086 205.61 559.082 206.156 559.073C206.711 559.056 207.213 559.025 207.664 558.982C208.123 558.939 208.587 558.874 209.055 558.787L209.159 559.671C208.804 559.732 208.453 559.784 208.106 559.827C207.759 559.862 207.395 559.888 207.014 559.905C206.633 559.922 206.212 559.935 205.753 559.944C205.294 559.953 204.769 559.957 204.18 559.957H203.348V559.086ZM203.322 553.964H208.379V557.292H204.414V559.606H203.348V556.46H207.313V554.835H203.322V553.964ZM211.447 553.262H212.526V560.49H211.447V553.262ZM209.159 555.004H211.694V555.875H209.159V555.004ZM209.159 557.435H211.694V558.319H209.159V557.435ZM204.661 561.114H212.526V565.027H211.447V561.998H204.661V561.114ZM214.787 555.264H220.624V556.148H214.787V555.264ZM217.712 556.928C218.206 556.928 218.639 557.041 219.012 557.266C219.393 557.491 219.692 557.808 219.909 558.215C220.126 558.614 220.234 559.077 220.234 559.606C220.234 560.135 220.126 560.603 219.909 561.01C219.692 561.409 219.393 561.725 219.012 561.959C218.639 562.184 218.206 562.297 217.712 562.297C217.227 562.297 216.793 562.184 216.412 561.959C216.031 561.725 215.732 561.409 215.515 561.01C215.298 560.603 215.19 560.135 215.19 559.606C215.19 559.077 215.298 558.614 215.515 558.215C215.732 557.816 216.031 557.504 216.412 557.279C216.793 557.045 217.227 556.928 217.712 556.928ZM217.712 557.838C217.417 557.838 217.149 557.916 216.906 558.072C216.672 558.219 216.486 558.427 216.347 558.696C216.217 558.956 216.152 559.259 216.152 559.606C216.152 559.953 216.217 560.26 216.347 560.529C216.486 560.798 216.672 561.006 216.906 561.153C217.149 561.3 217.417 561.374 217.712 561.374C218.015 561.374 218.284 561.3 218.518 561.153C218.752 561.006 218.934 560.798 219.064 560.529C219.203 560.26 219.272 559.953 219.272 559.606C219.272 559.259 219.203 558.956 219.064 558.696C218.934 558.427 218.752 558.219 218.518 558.072C218.284 557.916 218.015 557.838 217.712 557.838ZM223.731 553.249H224.758V565.014H223.731V553.249ZM221.846 558.202H224.069V559.086H221.846V558.202ZM221.209 553.522H222.223V564.442H221.209V553.522ZM217.179 553.6H218.245V555.797H217.179V553.6ZM231.478 554.419H232.414V554.913C232.414 555.329 232.332 555.723 232.167 556.096C232.002 556.469 231.773 556.815 231.478 557.136C231.183 557.448 230.841 557.725 230.451 557.968C230.061 558.211 229.641 558.419 229.19 558.592C228.748 558.757 228.289 558.878 227.812 558.956L227.396 558.098C227.812 558.046 228.215 557.951 228.605 557.812C229.004 557.665 229.376 557.491 229.723 557.292C230.07 557.093 230.373 556.867 230.633 556.616C230.902 556.365 231.11 556.096 231.257 555.81C231.404 555.515 231.478 555.216 231.478 554.913V554.419ZM231.751 554.419H232.687V554.913C232.687 555.216 232.761 555.515 232.908 555.81C233.055 556.096 233.259 556.365 233.519 556.616C233.788 556.867 234.095 557.093 234.442 557.292C234.789 557.491 235.157 557.665 235.547 557.812C235.946 557.951 236.353 558.046 236.769 558.098L236.366 558.956C235.889 558.878 235.426 558.757 234.975 558.592C234.524 558.419 234.104 558.211 233.714 557.968C233.324 557.725 232.982 557.448 232.687 557.136C232.392 556.815 232.163 556.469 231.998 556.096C231.833 555.723 231.751 555.329 231.751 554.913V554.419ZM231.53 560.529H232.596V565.001H231.53V560.529ZM226.772 559.944H237.393V560.828H226.772V559.944ZM227.773 553.977H236.379V554.848H227.773V553.977ZM243.359 557.461H245.621V558.358H243.359V557.461ZM241.175 554.354H242.02V556.603C242.02 557.21 241.955 557.808 241.825 558.397C241.704 558.986 241.522 559.541 241.279 560.061C241.045 560.581 240.759 561.049 240.421 561.465C240.083 561.881 239.702 562.219 239.277 562.479L238.601 561.673C239 561.43 239.359 561.127 239.68 560.763C240.001 560.399 240.269 559.992 240.486 559.541C240.711 559.082 240.88 558.605 240.993 558.111C241.114 557.608 241.175 557.106 241.175 556.603V554.354ZM241.383 554.354H242.215V556.564C242.215 557.032 242.267 557.504 242.371 557.981C242.484 558.449 242.64 558.9 242.839 559.333C243.047 559.758 243.303 560.148 243.606 560.503C243.909 560.858 244.252 561.153 244.633 561.387L244.022 562.219C243.597 561.959 243.22 561.63 242.891 561.231C242.562 560.824 242.284 560.369 242.059 559.866C241.834 559.355 241.665 558.817 241.552 558.254C241.439 557.691 241.383 557.127 241.383 556.564V554.354ZM247.688 553.249H248.728V565.014H247.688V553.249ZM245.296 553.496H246.31V564.416H245.296V553.496ZM253.303 559.307H254.369V562.817H253.303V559.307ZM257.645 559.307H258.724V562.817H257.645V559.307ZM250.69 562.609H261.35V563.506H250.69V562.609ZM255.994 553.99C256.826 553.99 257.563 554.116 258.204 554.367C258.845 554.618 259.348 554.969 259.712 555.42C260.085 555.871 260.271 556.404 260.271 557.019C260.271 557.626 260.085 558.159 259.712 558.618C259.348 559.069 258.845 559.42 258.204 559.671C257.563 559.914 256.826 560.035 255.994 560.035C255.171 560.035 254.434 559.914 253.784 559.671C253.143 559.42 252.64 559.069 252.276 558.618C251.912 558.159 251.73 557.626 251.73 557.019C251.73 556.404 251.912 555.871 252.276 555.42C252.64 554.969 253.143 554.618 253.784 554.367C254.434 554.116 255.171 553.99 255.994 553.99ZM255.994 554.848C255.37 554.848 254.815 554.939 254.33 555.121C253.845 555.303 253.463 555.559 253.186 555.888C252.909 556.209 252.77 556.586 252.77 557.019C252.77 557.452 252.909 557.834 253.186 558.163C253.463 558.484 253.845 558.735 254.33 558.917C254.815 559.099 255.37 559.19 255.994 559.19C256.627 559.19 257.186 559.099 257.671 558.917C258.156 558.735 258.538 558.484 258.815 558.163C259.092 557.834 259.231 557.452 259.231 557.019C259.231 556.586 259.092 556.209 258.815 555.888C258.538 555.559 258.156 555.303 257.671 555.121C257.186 554.939 256.627 554.848 255.994 554.848Z" fill="#8B95A1"/>
    <path d="M66 590H42C35.3726 590 30 595.373 30 602V634C30 640.627 35.3726 646 42 646H66C72.6274 646 78 640.627 78 634V602C78 595.373 72.6274 590 66 590Z" fill="#F7F8FA" stroke="#E5E8EB" stroke-width="1.2"/>
    <path d="M122 590H98C91.3726 590 86 595.373 86 602V634C86 640.627 91.3726 646 98 646H122C128.627 646 134 640.627 134 634V602C134 595.373 128.627 590 122 590Z" fill="#F7F8FA" stroke="#E5E8EB" stroke-width="1.2"/>
    <path d="M178 590H154C147.373 590 142 595.373 142 602V634C142 640.627 147.373 646 154 646H178C184.627 646 190 640.627 190 634V602C190 595.373 184.627 590 178 590Z" fill="#F7F8FA" stroke="#FF6B6B" stroke-width="1.5"/>
    <path d="M166 606V630" stroke="#FF6B6B" stroke-width="1.5"/>
    <path d="M234 590H210C203.373 590 198 595.373 198 602V634C198 640.627 203.373 646 210 646H234C240.627 646 246 640.627 246 634V602C246 595.373 240.627 590 234 590Z" fill="#F7F8FA" stroke="#E5E8EB" stroke-width="1.2"/>
    <path d="M290 590H266C259.373 590 254 595.373 254 602V634C254 640.627 259.373 646 266 646H290C296.627 646 302 640.627 302 634V602C302 595.373 296.627 590 290 590Z" fill="#F7F8FA" stroke="#E5E8EB" stroke-width="1.2"/>
    <path d="M346 590H322C315.373 590 310 595.373 310 602V634C310 640.627 315.373 646 322 646H346C352.627 646 358 640.627 358 634V602C358 595.373 352.627 590 346 590Z" fill="#F7F8FA" stroke="#E5E8EB" stroke-width="1.2"/>
    <path d="M357 770H36C29.3726 770 24 775.373 24 782V810C24 816.627 29.3726 822 36 822H357C363.627 822 369 816.627 369 810V782C369 775.373 363.627 770 357 770Z" fill="#E5E8EB"/>
    <path d="M172.122 790.755H173.742V791.265C173.742 792.055 173.597 792.805 173.307 793.515C173.027 794.215 172.597 794.825 172.017 795.345C171.447 795.865 170.717 796.25 169.827 796.5L168.897 794.94C169.657 794.73 170.272 794.44 170.742 794.07C171.222 793.69 171.572 793.255 171.792 792.765C172.012 792.275 172.122 791.775 172.122 791.265V790.755ZM172.497 790.755H174.117V791.265C174.117 791.735 174.227 792.2 174.447 792.66C174.677 793.11 175.027 793.515 175.497 793.875C175.967 794.235 176.572 794.515 177.312 794.715L176.412 796.26C175.532 796.02 174.802 795.655 174.222 795.165C173.642 794.665 173.207 794.08 172.917 793.41C172.637 792.74 172.497 792.025 172.497 791.265V790.755ZM169.392 789.81H176.862V791.37H169.392V789.81ZM172.122 788.385H174.117V790.5H172.122V788.385ZM177.942 788.445H179.937V796.575H177.942V788.445ZM179.397 791.67H181.782V793.32H179.397V791.67ZM170.907 797.16H179.937V802.185H170.907V797.16ZM177.987 798.72H172.872V800.61H177.987V798.72ZM189.026 791.265H192.806V792.87H189.026V791.265ZM189.026 795.585H192.806V797.19H189.026V795.585ZM186.611 789.39C187.301 789.39 187.916 789.595 188.456 790.005C189.006 790.405 189.431 790.98 189.731 791.73C190.041 792.47 190.196 793.345 190.196 794.355C190.196 795.375 190.041 796.26 189.731 797.01C189.431 797.75 189.006 798.325 188.456 798.735C187.916 799.135 187.301 799.335 186.611 799.335C185.921 799.335 185.306 799.135 184.766 798.735C184.226 798.325 183.801 797.75 183.491 797.01C183.181 796.26 183.026 795.375 183.026 794.355C183.026 793.345 183.181 792.47 183.491 791.73C183.801 790.98 184.226 790.405 184.766 790.005C185.306 789.595 185.921 789.39 186.611 789.39ZM186.611 791.205C186.281 791.205 185.986 791.325 185.726 791.565C185.476 791.805 185.276 792.16 185.126 792.63C184.986 793.09 184.916 793.665 184.916 794.355C184.916 795.035 184.986 795.615 185.126 796.095C185.276 796.565 185.476 796.92 185.726 797.16C185.986 797.4 186.281 797.52 186.611 797.52C186.961 797.52 187.261 797.4 187.511 797.16C187.761 796.92 187.956 796.565 188.096 796.095C188.236 795.615 188.306 795.035 188.306 794.355C188.306 793.665 188.236 793.09 188.096 792.63C187.956 792.16 187.761 791.805 187.511 791.565C187.261 791.325 186.961 791.205 186.611 791.205ZM192.476 788.415H194.471V802.35H192.476V788.415ZM205.51 788.445H207.505V802.335H205.51V788.445ZM207.055 793.86H209.5V795.51H207.055V793.86ZM196.54 790.485H204.64V792.075H196.54V790.485ZM200.62 792.87C201.29 792.87 201.89 793.015 202.42 793.305C202.95 793.585 203.365 793.97 203.665 794.46C203.975 794.95 204.13 795.52 204.13 796.17C204.13 796.82 203.975 797.395 203.665 797.895C203.365 798.385 202.95 798.775 202.42 799.065C201.9 799.345 201.3 799.485 200.62 799.485C199.95 799.485 199.345 799.345 198.805 799.065C198.275 798.775 197.855 798.385 197.545 797.895C197.245 797.395 197.095 796.82 197.095 796.17C197.095 795.52 197.245 794.95 197.545 794.46C197.855 793.97 198.275 793.585 198.805 793.305C199.345 793.015 199.95 792.87 200.62 792.87ZM200.62 794.49C200.3 794.49 200.02 794.555 199.78 794.685C199.54 794.815 199.35 795.005 199.21 795.255C199.07 795.505 199 795.81 199 796.17C199 796.52 199.07 796.825 199.21 797.085C199.35 797.335 199.54 797.53 199.78 797.67C200.02 797.8 200.3 797.865 200.62 797.865C200.93 797.865 201.205 797.8 201.445 797.67C201.685 797.53 201.875 797.335 202.015 797.085C202.155 796.825 202.225 796.52 202.225 796.17C202.225 795.81 202.155 795.505 202.015 795.255C201.875 795.005 201.685 794.815 201.445 794.685C201.205 794.555 200.93 794.49 200.62 794.49ZM199.6 788.67H201.61V791.1H199.6V788.67ZM219.984 788.43H221.979V802.32H219.984V788.43ZM215.889 789.87H217.854C217.854 790.93 217.749 791.945 217.539 792.915C217.339 793.875 216.999 794.78 216.519 795.63C216.049 796.48 215.399 797.27 214.569 798C213.749 798.72 212.724 799.38 211.494 799.98L210.444 798.405C211.784 797.755 212.849 797.04 213.639 796.26C214.439 795.47 215.014 794.58 215.364 793.59C215.714 792.59 215.889 791.47 215.889 790.23V789.87ZM211.194 789.87H216.819V791.46H211.194V789.87Z" fill="#B0B8C1"/>
    <path d="M152.611 840.545C152.568 840.186 152.395 839.906 152.092 839.707C151.789 839.509 151.418 839.409 150.977 839.409C150.655 839.409 150.374 839.461 150.132 839.565C149.893 839.67 149.706 839.813 149.571 839.995C149.439 840.177 149.372 840.384 149.372 840.616C149.372 840.811 149.418 840.978 149.511 841.117C149.605 841.254 149.726 841.369 149.873 841.462C150.02 841.552 150.174 841.626 150.335 841.685C150.496 841.742 150.644 841.788 150.778 841.824L151.517 842.023C151.707 842.072 151.917 842.141 152.149 842.229C152.384 842.316 152.607 842.436 152.82 842.587C153.036 842.737 153.213 842.928 153.353 843.163C153.493 843.397 153.563 843.685 153.563 844.026C153.563 844.419 153.46 844.774 153.254 845.091C153.05 845.408 152.752 845.66 152.359 845.847C151.968 846.034 151.493 846.128 150.935 846.128C150.414 846.128 149.963 846.044 149.582 845.876C149.203 845.708 148.905 845.473 148.687 845.173C148.471 844.872 148.35 844.523 148.321 844.125H149.23C149.254 844.4 149.346 844.627 149.507 844.807C149.671 844.984 149.877 845.117 150.125 845.205C150.376 845.29 150.646 845.332 150.935 845.332C151.271 845.332 151.573 845.278 151.84 845.169C152.108 845.058 152.32 844.904 152.476 844.707C152.632 844.509 152.71 844.277 152.71 844.011C152.71 843.77 152.643 843.573 152.508 843.422C152.373 843.27 152.195 843.147 151.975 843.053C151.755 842.958 151.517 842.875 151.261 842.804L150.367 842.548C149.798 842.385 149.349 842.152 149.017 841.849C148.686 841.546 148.52 841.149 148.52 840.659C148.52 840.252 148.63 839.897 148.85 839.594C149.073 839.288 149.371 839.052 149.745 838.884C150.122 838.713 150.542 838.628 151.006 838.628C151.475 838.628 151.891 838.712 152.256 838.88C152.62 839.046 152.909 839.273 153.122 839.562C153.338 839.851 153.451 840.179 153.463 840.545H152.611ZM157.34 846.099C156.871 846.099 156.454 846.019 156.087 845.858C155.722 845.697 155.432 845.473 155.217 845.187C155.003 844.898 154.887 844.563 154.869 844.182H155.763C155.782 844.416 155.863 844.619 156.005 844.789C156.147 844.957 156.333 845.087 156.562 845.18C156.792 845.272 157.047 845.318 157.326 845.318C157.638 845.318 157.915 845.264 158.157 845.155C158.398 845.046 158.588 844.894 158.725 844.7C158.862 844.506 158.931 844.281 158.931 844.026C158.931 843.758 158.865 843.522 158.732 843.319C158.6 843.113 158.405 842.952 158.15 842.836C157.894 842.72 157.582 842.662 157.212 842.662H156.63V841.881H157.212C157.501 841.881 157.754 841.829 157.972 841.724C158.192 841.62 158.364 841.473 158.487 841.284C158.613 841.095 158.675 840.872 158.675 840.616C158.675 840.37 158.621 840.156 158.512 839.974C158.403 839.791 158.249 839.649 158.05 839.548C157.854 839.446 157.622 839.395 157.354 839.395C157.103 839.395 156.867 839.441 156.644 839.533C156.424 839.623 156.244 839.755 156.104 839.928C155.965 840.098 155.889 840.304 155.877 840.545H155.025C155.039 840.164 155.154 839.83 155.369 839.544C155.585 839.255 155.866 839.03 156.214 838.869C156.565 838.708 156.949 838.628 157.369 838.628C157.818 838.628 158.204 838.719 158.526 838.901C158.848 839.081 159.096 839.319 159.268 839.615C159.441 839.911 159.528 840.231 159.528 840.574C159.528 840.983 159.42 841.333 159.204 841.621C158.991 841.91 158.701 842.11 158.334 842.222V842.278C158.794 842.354 159.152 842.549 159.41 842.864C159.668 843.177 159.797 843.564 159.797 844.026C159.797 844.421 159.69 844.776 159.474 845.091C159.261 845.403 158.97 845.65 158.601 845.83C158.231 846.009 157.811 846.099 157.34 846.099ZM161.676 846H160.753L163.423 838.727H164.332L167.003 846H166.079L163.906 839.878H163.849L161.676 846ZM162.017 843.159H165.739V843.94H162.017V843.159ZM171.147 841.973V842.754H167.965V841.973H171.147ZM175.164 838.727V846H174.283V839.651H174.241L172.465 840.83V839.935L174.283 838.727H175.164ZM189.315 841.973V842.754H179.315V841.973H189.315ZM198.861 841H197.98C197.928 840.747 197.837 840.524 197.707 840.332C197.579 840.141 197.423 839.98 197.238 839.849C197.056 839.717 196.853 839.617 196.631 839.551C196.408 839.485 196.176 839.452 195.935 839.452C195.494 839.452 195.095 839.563 194.738 839.786C194.383 840.008 194.1 840.336 193.889 840.769C193.681 841.202 193.577 841.734 193.577 842.364C193.577 842.993 193.681 843.525 193.889 843.958C194.1 844.391 194.383 844.719 194.738 844.942C195.095 845.164 195.494 845.276 195.935 845.276C196.176 845.276 196.408 845.242 196.631 845.176C196.853 845.11 197.056 845.012 197.238 844.881C197.423 844.749 197.579 844.587 197.707 844.395C197.837 844.201 197.928 843.978 197.98 843.727H198.861C198.795 844.099 198.674 844.432 198.499 844.725C198.323 845.019 198.106 845.268 197.845 845.474C197.585 845.678 197.292 845.833 196.968 845.94C196.646 846.046 196.302 846.099 195.935 846.099C195.314 846.099 194.763 845.948 194.28 845.645C193.797 845.342 193.417 844.911 193.14 844.352C192.863 843.794 192.725 843.131 192.725 842.364C192.725 841.597 192.863 840.934 193.14 840.375C193.417 839.816 193.797 839.385 194.28 839.082C194.763 838.779 195.314 838.628 195.935 838.628C196.302 838.628 196.646 838.681 196.968 838.788C197.292 838.894 197.585 839.05 197.845 839.256C198.106 839.46 198.323 839.709 198.499 840.002C198.674 840.293 198.795 840.626 198.861 841ZM202.386 846.114C201.894 846.114 201.462 845.996 201.09 845.762C200.721 845.528 200.432 845.2 200.224 844.778C200.018 844.357 199.915 843.865 199.915 843.301C199.915 842.733 200.018 842.237 200.224 841.813C200.432 841.389 200.721 841.06 201.09 840.826C201.462 840.592 201.894 840.474 202.386 840.474C202.879 840.474 203.31 840.592 203.679 840.826C204.051 841.06 204.339 841.389 204.545 841.813C204.754 842.237 204.858 842.733 204.858 843.301C204.858 843.865 204.754 844.357 204.545 844.778C204.339 845.2 204.051 845.528 203.679 845.762C203.31 845.996 202.879 846.114 202.386 846.114ZM202.386 845.361C202.76 845.361 203.068 845.265 203.31 845.073C203.551 844.881 203.73 844.629 203.846 844.317C203.962 844.004 204.02 843.666 204.02 843.301C204.02 842.937 203.962 842.597 203.846 842.282C203.73 841.967 203.551 841.713 203.31 841.518C203.068 841.324 202.76 841.227 202.386 841.227C202.012 841.227 201.704 841.324 201.463 841.518C201.222 841.713 201.043 841.967 200.927 842.282C200.811 842.597 200.753 842.937 200.753 843.301C200.753 843.666 200.811 844.004 200.927 844.317C201.043 844.629 201.222 844.881 201.463 845.073C201.704 845.265 202.012 845.361 202.386 845.361ZM208.197 846.114C207.742 846.114 207.341 845.999 206.993 845.769C206.645 845.537 206.373 845.21 206.176 844.789C205.98 844.365 205.881 843.865 205.881 843.287C205.881 842.714 205.98 842.217 206.176 841.795C206.373 841.374 206.646 841.049 206.997 840.819C207.347 840.589 207.752 840.474 208.211 840.474C208.566 840.474 208.847 840.534 209.053 840.652C209.261 840.768 209.42 840.901 209.528 841.05C209.64 841.196 209.726 841.317 209.788 841.412H209.859V838.727H210.697V846H209.887V845.162H209.788C209.726 845.261 209.639 845.387 209.525 845.538C209.411 845.687 209.249 845.821 209.038 845.94C208.828 846.056 208.547 846.114 208.197 846.114ZM208.31 845.361C208.647 845.361 208.931 845.273 209.163 845.098C209.395 844.92 209.571 844.675 209.692 844.363C209.813 844.048 209.873 843.685 209.873 843.273C209.873 842.866 209.814 842.509 209.695 842.204C209.577 841.896 209.402 841.657 209.17 841.487C208.938 841.314 208.651 841.227 208.31 841.227C207.955 841.227 207.659 841.318 207.423 841.501C207.188 841.681 207.012 841.926 206.894 842.236C206.778 842.544 206.72 842.889 206.72 843.273C206.72 843.661 206.779 844.014 206.897 844.331C207.018 844.646 207.195 844.897 207.43 845.084C207.667 845.268 207.96 845.361 208.31 845.361ZM214.635 846.114C214.109 846.114 213.656 845.998 213.275 845.766C212.896 845.531 212.604 845.205 212.398 844.786C212.194 844.364 212.092 843.874 212.092 843.315C212.092 842.757 212.194 842.264 212.398 841.838C212.604 841.41 212.89 841.076 213.257 840.837C213.627 840.595 214.057 840.474 214.55 840.474C214.834 840.474 215.114 840.522 215.391 840.616C215.668 840.711 215.921 840.865 216.148 841.078C216.375 841.289 216.556 841.568 216.691 841.916C216.826 842.264 216.894 842.693 216.894 843.202V843.557H212.689V842.832H216.041C216.041 842.525 215.98 842.25 215.857 842.009C215.736 841.767 215.563 841.576 215.338 841.437C215.116 841.297 214.853 841.227 214.55 841.227C214.216 841.227 213.927 841.31 213.683 841.476C213.442 841.639 213.256 841.852 213.126 842.115C212.996 842.378 212.93 842.66 212.93 842.96V843.443C212.93 843.855 213.002 844.204 213.144 844.491C213.288 844.775 213.488 844.991 213.744 845.141C213.999 845.287 214.296 845.361 214.635 845.361C214.855 845.361 215.054 845.33 215.232 845.268C215.412 845.205 215.567 845.11 215.697 844.984C215.827 844.857 215.928 844.698 215.999 844.509L216.808 844.736C216.723 845.01 216.58 845.252 216.379 845.46C216.177 845.666 215.929 845.827 215.633 845.943C215.337 846.057 215.004 846.114 214.635 846.114ZM221.975 838.727V846H221.095V838.727H221.975ZM224.465 842.719V846H223.627V840.545H224.437V841.398H224.508C224.636 841.121 224.83 840.898 225.09 840.73C225.351 840.56 225.687 840.474 226.099 840.474C226.468 840.474 226.791 840.55 227.068 840.702C227.345 840.851 227.561 841.078 227.715 841.384C227.869 841.687 227.946 842.07 227.946 842.534V846H227.108V842.591C227.108 842.162 226.996 841.829 226.774 841.589C226.551 841.348 226.246 841.227 225.858 841.227C225.59 841.227 225.351 841.285 225.14 841.401C224.932 841.517 224.767 841.687 224.647 841.909C224.526 842.132 224.465 842.402 224.465 842.719ZM229.477 848.045V840.545H230.287V841.412H230.386C230.448 841.317 230.533 841.196 230.642 841.05C230.753 840.901 230.912 840.768 231.118 840.652C231.326 840.534 231.608 840.474 231.963 840.474C232.422 840.474 232.827 840.589 233.177 840.819C233.528 841.049 233.801 841.374 233.998 841.795C234.194 842.217 234.292 842.714 234.292 843.287C234.292 843.865 234.194 844.365 233.998 844.789C233.801 845.21 233.529 845.537 233.181 845.769C232.833 845.999 232.432 846.114 231.977 846.114C231.627 846.114 231.346 846.056 231.135 845.94C230.925 845.821 230.763 845.687 230.649 845.538C230.535 845.387 230.448 845.261 230.386 845.162H230.315V848.045H229.477ZM230.301 843.273C230.301 843.685 230.361 844.048 230.482 844.363C230.603 844.675 230.779 844.92 231.011 845.098C231.243 845.273 231.527 845.361 231.863 845.361C232.214 845.361 232.506 845.268 232.741 845.084C232.977 844.897 233.155 844.646 233.273 844.331C233.394 844.014 233.454 843.661 233.454 843.273C233.454 842.889 233.395 842.544 233.277 842.236C233.161 841.926 232.984 841.681 232.748 841.501C232.513 841.318 232.218 841.227 231.863 841.227C231.522 841.227 231.236 841.314 231.004 841.487C230.772 841.657 230.597 841.896 230.478 842.204C230.36 842.509 230.301 842.866 230.301 843.273ZM239.008 843.77V840.545H239.846V846H239.008V845.077H238.951C238.824 845.354 238.625 845.589 238.355 845.783C238.085 845.975 237.744 846.071 237.332 846.071C236.991 846.071 236.688 845.996 236.423 845.847C236.158 845.696 235.95 845.469 235.798 845.165C235.647 844.86 235.571 844.475 235.571 844.011V840.545H236.409V843.955C236.409 844.352 236.52 844.67 236.743 844.906C236.968 845.143 237.254 845.261 237.602 845.261C237.81 845.261 238.022 845.208 238.238 845.102C238.455 844.995 238.638 844.832 238.785 844.612C238.934 844.391 239.008 844.111 239.008 843.77ZM243.753 840.545V841.256H240.927V840.545H243.753ZM241.751 839.239H242.589V844.438C242.589 844.674 242.623 844.852 242.692 844.97C242.763 845.086 242.853 845.164 242.962 845.205C243.073 845.242 243.19 845.261 243.313 845.261C243.405 845.261 243.481 845.257 243.54 845.247C243.6 845.235 243.647 845.226 243.682 845.219L243.853 845.972C243.796 845.993 243.717 846.014 243.615 846.036C243.513 846.059 243.384 846.071 243.228 846.071C242.991 846.071 242.759 846.02 242.532 845.918C242.307 845.817 242.12 845.661 241.971 845.453C241.824 845.245 241.751 844.982 241.751 844.665V839.239Z" fill="white"/>
</svg>
