
<svg width="393" height="852" viewBox="0 0 393 852" fill="none" xmlns="http://www.w3.org/2000/svg">
    <path d="M393 0H0V852H393V0Z" fill="white"/>
    <path d="M36.8313 23.9418C37.3924 23.9418 37.9322 24.0359 38.4506 24.2241C38.9727 24.4123 39.4379 24.7124 39.8462 25.1243C40.2582 25.5362 40.5831 26.0831 40.821 26.7649C41.0625 27.4432 41.185 28.2759 41.1886 29.2631C41.1886 30.19 41.0838 31.0174 40.8743 31.7454C40.6683 32.4698 40.3718 33.0859 39.9847 33.5938C39.5977 34.1016 39.1307 34.4886 38.5838 34.755C38.0369 35.0178 37.4261 35.1491 36.7514 35.1491C36.0234 35.1491 35.3807 35.0089 34.8232 34.7283C34.2656 34.4442 33.8164 34.0589 33.4755 33.5724C33.1381 33.0824 32.9339 32.532 32.8629 31.9212H35.1374C35.2262 32.3189 35.4126 32.6278 35.6967 32.848C35.9808 33.0646 36.3324 33.1729 36.7514 33.1729C37.4616 33.1729 38.0014 32.864 38.3707 32.2461C38.7401 31.6246 38.9265 30.7741 38.93 29.6946H38.8555C38.6921 30.0142 38.4719 30.2894 38.195 30.5202C37.918 30.7475 37.6001 30.9233 37.2415 31.0476C36.8864 31.1719 36.5082 31.234 36.1069 31.234C35.4641 31.234 34.8906 31.0831 34.3864 30.7812C33.8821 30.4794 33.4844 30.0639 33.1932 29.5348C32.902 29.0057 32.7564 28.402 32.7564 27.7237C32.7528 26.9922 32.9215 26.3406 33.2624 25.7688C33.6033 25.1971 34.0792 24.7496 34.69 24.4265C35.3043 24.0998 36.0181 23.9382 36.8313 23.9418ZM36.8473 25.7528C36.4886 25.7528 36.169 25.8381 35.8885 26.0085C35.6115 26.179 35.3913 26.408 35.228 26.6957C35.0682 26.9833 34.9901 27.3047 34.9936 27.6598C34.9936 28.0185 35.0717 28.3416 35.228 28.6293C35.3878 28.9134 35.6044 29.1406 35.8778 29.3111C36.1548 29.478 36.4709 29.5614 36.826 29.5614C37.0923 29.5614 37.3391 29.5117 37.5664 29.4123C37.7937 29.3129 37.9908 29.1761 38.1577 29.0021C38.3281 28.8246 38.4613 28.6204 38.5572 28.3896C38.6531 28.1587 38.701 27.9137 38.701 27.6545C38.6974 27.31 38.6158 26.994 38.456 26.7063C38.2962 26.4187 38.076 26.1879 37.7955 26.0138C37.5149 25.8398 37.1989 25.7528 36.8473 25.7528ZM44.1342 33.7322C43.7827 33.7322 43.4808 33.608 43.2287 33.3594C42.9801 33.1108 42.8558 32.8089 42.8558 32.4538C42.8558 32.1058 42.9801 31.8075 43.2287 31.5589C43.4808 31.3104 43.7827 31.1861 44.1342 31.1861C44.4751 31.1861 44.7734 31.3104 45.0291 31.5589C45.2848 31.8075 45.4126 32.1058 45.4126 32.4538C45.4126 32.6882 45.3523 32.9031 45.2315 33.0984C45.1143 33.2901 44.9599 33.4446 44.7681 33.5618C44.5763 33.6754 44.3651 33.7322 44.1342 33.7322ZM44.1342 28.3789C43.7827 28.3789 43.4808 28.2546 43.2287 28.006C42.9801 27.7575 42.8558 27.4556 42.8558 27.1005C42.8558 26.7525 42.9801 26.456 43.2287 26.2109C43.4808 25.9624 43.7827 25.8381 44.1342 25.8381C44.4751 25.8381 44.7734 25.9624 45.0291 26.2109C45.2848 26.456 45.4126 26.7525 45.4126 27.1005C45.4126 27.3384 45.3523 27.555 45.2315 27.7504C45.1143 27.9421 44.9599 28.0948 44.7681 28.2085C44.5763 28.3221 44.3651 28.3789 44.1342 28.3789ZM47.0892 33.0824V31.266L51.6436 24.0909H53.2096V26.6051H52.2828L49.4117 31.1488V31.234H55.8836V33.0824H47.0892ZM52.3254 35V32.5284L52.368 31.7241V24.0909H54.5306V35H52.3254ZM62.02 24.0909V35H59.7135V26.2802H59.6496L57.1514 27.8462V25.8008L59.852 24.0909H62.02Z" fill="#191F28"/>
    <path d="M30.4205 87H25.2642V72.4545H30.4631C31.9261 72.4545 33.1856 72.7457 34.2415 73.3281C35.2973 73.9058 36.1094 74.7367 36.6776 75.821C37.2505 76.9053 37.5369 78.2027 37.5369 79.7131C37.5369 81.2282 37.2505 82.5303 36.6776 83.6193C36.1094 84.7083 35.2926 85.544 34.2273 86.1264C33.1667 86.7088 31.8977 87 30.4205 87ZM28.3395 84.3651H30.2926C31.2017 84.3651 31.9664 84.2041 32.5866 83.8821C33.2116 83.5554 33.6804 83.0511 33.9929 82.3693C34.3101 81.6828 34.4688 80.7973 34.4688 79.7131C34.4688 78.6383 34.3101 77.7599 33.9929 77.0781C33.6804 76.3963 33.214 75.8944 32.5938 75.5724C31.9735 75.2505 31.2088 75.0895 30.2997 75.0895H28.3395V84.3651ZM42.869 87.206C42.1729 87.206 41.5527 87.0852 41.0082 86.8438C40.4637 86.5975 40.0328 86.2353 39.7156 85.7571C39.4031 85.2741 39.2468 84.6728 39.2468 83.9531C39.2468 83.3471 39.3581 82.8381 39.5806 82.4261C39.8031 82.0142 40.1062 81.6828 40.4897 81.4318C40.8732 81.1809 41.3088 80.9915 41.7965 80.8636C42.2889 80.7358 42.805 80.6458 43.3448 80.5938C43.9793 80.5275 44.4906 80.4659 44.8789 80.4091C45.2672 80.3475 45.5489 80.2576 45.7241 80.1392C45.8993 80.0208 45.9869 79.8456 45.9869 79.6136V79.571C45.9869 79.1212 45.8448 78.7732 45.5607 78.527C45.2814 78.2808 44.8836 78.1577 44.3675 78.1577C43.823 78.1577 43.3898 78.2784 43.0678 78.5199C42.7459 78.7566 42.5328 79.0549 42.4286 79.4148L39.6303 79.1875C39.7724 78.5246 40.0517 77.9517 40.4684 77.4688C40.8851 76.9811 41.4225 76.607 42.0806 76.3466C42.7435 76.0814 43.5105 75.9489 44.3817 75.9489C44.9878 75.9489 45.5678 76.0199 46.1218 76.1619C46.6805 76.304 47.1753 76.5241 47.6062 76.8224C48.0418 77.1207 48.3851 77.5043 48.636 77.973C48.887 78.437 49.0124 78.9934 49.0124 79.642V87H46.1431V85.4872H46.0579C45.8827 85.8281 45.6483 86.1288 45.3548 86.3892C45.0612 86.6449 44.7085 86.8461 44.2965 86.9929C43.8846 87.1349 43.4087 87.206 42.869 87.206ZM43.7354 85.1179C44.1805 85.1179 44.5735 85.0303 44.9144 84.8551C45.2553 84.6752 45.5228 84.4337 45.717 84.1307C45.9111 83.8277 46.0082 83.4844 46.0082 83.1009V81.9432C45.9135 82.0047 45.7833 82.0616 45.6175 82.1136C45.4566 82.161 45.2743 82.206 45.0707 82.2486C44.8671 82.2865 44.6635 82.322 44.4599 82.3551C44.2563 82.3835 44.0716 82.4096 43.9059 82.4332C43.5508 82.4853 43.2406 82.5682 42.9755 82.6818C42.7103 82.7955 42.5044 82.9493 42.3576 83.1435C42.2108 83.3329 42.1374 83.5696 42.1374 83.8537C42.1374 84.2656 42.2866 84.5805 42.5849 84.7983C42.8879 85.0114 43.2714 85.1179 43.7354 85.1179ZM57.1623 76.0909V78.3636H50.5927V76.0909H57.1623ZM52.0842 73.4773H55.1097V83.6477C55.1097 83.9271 55.1523 84.1449 55.2376 84.3011C55.3228 84.4527 55.4412 84.5592 55.5927 84.6207C55.7489 84.6823 55.9289 84.7131 56.1325 84.7131C56.2745 84.7131 56.4165 84.7012 56.5586 84.6776C56.7006 84.6491 56.8095 84.6278 56.8853 84.6136L57.3612 86.8651C57.2096 86.9124 56.9966 86.9669 56.7219 87.0284C56.4473 87.0947 56.1135 87.1349 55.7205 87.1491C54.9914 87.1776 54.3522 87.0805 53.8029 86.858C53.2584 86.6354 52.8346 86.2898 52.5316 85.821C52.2286 85.3523 52.0794 84.7604 52.0842 84.0455V73.4773ZM63.9876 87.2131C62.8654 87.2131 61.8995 86.9858 61.0898 86.5312C60.2849 86.072 59.6647 85.4233 59.229 84.5852C58.7934 83.7424 58.5756 82.7457 58.5756 81.5952C58.5756 80.473 58.7934 79.4882 59.229 78.6406C59.6647 77.7931 60.2778 77.1326 61.0685 76.6591C61.864 76.1856 62.7968 75.9489 63.8668 75.9489C64.5865 75.9489 65.2565 76.0649 65.8768 76.2969C66.5018 76.5241 67.0463 76.8674 67.5103 77.3267C67.979 77.786 68.3436 78.3636 68.604 79.0597C68.8645 79.7509 68.9947 80.5606 68.9947 81.4886V82.3196H59.783V80.4446H66.1467C66.1467 80.009 66.052 79.6231 65.8626 79.2869C65.6732 78.9508 65.4104 78.688 65.0742 78.4986C64.7428 78.3045 64.3569 78.2074 63.9165 78.2074C63.4573 78.2074 63.0501 78.3139 62.695 78.527C62.3446 78.7353 62.07 79.017 61.8711 79.3722C61.6722 79.7225 61.5704 80.1132 61.5657 80.544V82.3267C61.5657 82.8665 61.6651 83.3329 61.864 83.7259C62.0676 84.1188 62.354 84.4219 62.7234 84.6349C63.0927 84.848 63.5307 84.9545 64.0373 84.9545C64.3735 84.9545 64.6812 84.9072 64.9606 84.8125C65.2399 84.7178 65.479 84.5758 65.6779 84.3864C65.8768 84.197 66.0283 83.965 66.1325 83.6903L68.9308 83.875C68.7887 84.5473 68.4975 85.1345 68.0572 85.6364C67.6216 86.1335 67.0581 86.5218 66.3668 86.8011C65.6803 87.0758 64.8872 87.2131 63.9876 87.2131ZM80.8111 87H75.6548V72.4545H80.8537C82.3168 72.4545 83.5762 72.7457 84.6321 73.3281C85.688 73.9058 86.5 74.7367 87.0682 75.821C87.6411 76.9053 87.9276 78.2027 87.9276 79.7131C87.9276 81.2282 87.6411 82.5303 87.0682 83.6193C86.5 84.7083 85.6832 85.544 84.6179 86.1264C83.5573 86.7088 82.2884 87 80.8111 87ZM78.7301 84.3651H80.6832C81.5923 84.3651 82.357 84.2041 82.9773 83.8821C83.6023 83.5554 84.071 83.0511 84.3835 82.3693C84.7008 81.6828 84.8594 80.7973 84.8594 79.7131C84.8594 78.6383 84.7008 77.7599 84.3835 77.0781C84.071 76.3963 83.6046 75.8944 82.9844 75.5724C82.3641 75.2505 81.5994 75.0895 80.6903 75.0895H78.7301V84.3651ZM90.1488 87V76.0909H93.1744V87H90.1488ZM91.6687 74.6847C91.2189 74.6847 90.833 74.5355 90.511 74.2372C90.1938 73.9342 90.0352 73.572 90.0352 73.1506C90.0352 72.7339 90.1938 72.3764 90.511 72.0781C90.833 71.7751 91.2189 71.6236 91.6687 71.6236C92.1185 71.6236 92.502 71.7751 92.8192 72.0781C93.1412 72.3764 93.3022 72.7339 93.3022 73.1506C93.3022 73.572 93.1412 73.9342 92.8192 74.2372C92.502 74.5355 92.1185 74.6847 91.6687 74.6847ZM98.7088 87.206C98.0128 87.206 97.3925 87.0852 96.848 86.8438C96.3035 86.5975 95.8726 86.2353 95.5554 85.7571C95.2429 85.2741 95.0866 84.6728 95.0866 83.9531C95.0866 83.3471 95.1979 82.8381 95.4205 82.4261C95.643 82.0142 95.946 81.6828 96.3295 81.4318C96.7131 81.1809 97.1487 80.9915 97.6364 80.8636C98.1288 80.7358 98.6449 80.6458 99.1847 80.5938C99.8191 80.5275 100.33 80.4659 100.719 80.4091C101.107 80.3475 101.389 80.2576 101.564 80.1392C101.739 80.0208 101.827 79.8456 101.827 79.6136V79.571C101.827 79.1212 101.685 78.7732 101.401 78.527C101.121 78.2808 100.723 78.1577 100.207 78.1577C99.6629 78.1577 99.2296 78.2784 98.9077 78.5199C98.5857 78.7566 98.3726 79.0549 98.2685 79.4148L95.4702 79.1875C95.6122 78.5246 95.8916 77.9517 96.3082 77.4688C96.7249 76.9811 97.2623 76.607 97.9205 76.3466C98.5833 76.0814 99.3504 75.9489 100.222 75.9489C100.828 75.9489 101.408 76.0199 101.962 76.1619C102.52 76.304 103.015 76.5241 103.446 76.8224C103.882 77.1207 104.225 77.5043 104.476 77.973C104.727 78.437 104.852 78.9934 104.852 79.642V87H101.983V85.4872H101.898C101.723 85.8281 101.488 86.1288 101.195 86.3892C100.901 86.6449 100.548 86.8461 100.136 86.9929C99.7244 87.1349 99.2486 87.206 98.7088 87.206ZM99.5753 85.1179C100.02 85.1179 100.413 85.0303 100.754 84.8551C101.095 84.6752 101.363 84.4337 101.557 84.1307C101.751 83.8277 101.848 83.4844 101.848 83.1009V81.9432C101.753 82.0047 101.623 82.0616 101.457 82.1136C101.296 82.161 101.114 82.206 100.911 82.2486C100.707 82.2865 100.503 82.322 100.3 82.3551C100.096 82.3835 99.9115 82.4096 99.7457 82.4332C99.3906 82.4853 99.0805 82.5682 98.8153 82.6818C98.5502 82.7955 98.3442 82.9493 98.1974 83.1435C98.0507 83.3329 97.9773 83.5696 97.9773 83.8537C97.9773 84.2656 98.1264 84.5805 98.4247 84.7983C98.7277 85.0114 99.1113 85.1179 99.5753 85.1179ZM107.2 87V76.0909H110.133V77.9943H110.246C110.445 77.3172 110.779 76.8059 111.248 76.4602C111.717 76.1098 112.256 75.9347 112.867 75.9347C113.019 75.9347 113.182 75.9441 113.357 75.9631C113.532 75.982 113.686 76.008 113.819 76.0412V78.7259C113.677 78.6832 113.48 78.6454 113.229 78.6122C112.978 78.5791 112.749 78.5625 112.54 78.5625C112.095 78.5625 111.698 78.6596 111.347 78.8537C111.002 79.0431 110.727 79.3082 110.523 79.6491C110.325 79.9901 110.225 80.383 110.225 80.8281V87H107.2ZM117.583 91.0909C117.2 91.0909 116.84 91.0601 116.504 90.9986C116.172 90.9418 115.897 90.8684 115.68 90.7784L116.362 88.5199C116.717 88.6288 117.036 88.688 117.32 88.6974C117.609 88.7069 117.858 88.6406 118.066 88.4986C118.279 88.3565 118.452 88.1151 118.585 87.7741L118.762 87.3125L114.849 76.0909H118.031L120.289 84.1023H120.403L122.683 76.0909H125.886L121.646 88.179C121.442 88.7661 121.165 89.2775 120.815 89.7131C120.469 90.1534 120.031 90.492 119.501 90.7287C118.97 90.9702 118.331 91.0909 117.583 91.0909Z" fill="#191F28"/>
    <path d="M226 250H170C165.582 250 162 253.582 162 258V332C162 336.418 165.582 340 170 340H226C230.418 340 234 336.418 234 332V258C234 253.582 230.418 250 226 250Z" stroke="#E5E8EB" stroke-width="2"/>
    <path d="M226 250H178C173.582 250 170 253.582 170 258V332C170 336.418 173.582 340 178 340H226C230.418 340 234 336.418 234 332V258C234 253.582 230.418 250 226 250Z" stroke="#D1D6DB" stroke-width="2"/>
    <path d="M184 250V340" stroke="#D1D6DB" stroke-dasharray="4 4"/>
    <path d="M198 288C198 288 188 280 188 274C188 270 191 267 194 267C196 267 198 269 198 271C198 269 200 267 202 267C205 267 208 270 208 274C208 280 198 288 198 288Z" stroke="#FF6B6B" stroke-width="1.5"/>
    <path d="M160.466 294.091V293.989C160.477 292.903 160.591 292.04 160.807 291.398C161.023 290.756 161.33 290.236 161.727 289.838C162.125 289.44 162.602 289.074 163.159 288.739C163.494 288.534 163.795 288.293 164.062 288.014C164.33 287.73 164.54 287.403 164.693 287.034C164.852 286.665 164.932 286.256 164.932 285.807C164.932 285.25 164.801 284.767 164.54 284.358C164.278 283.949 163.929 283.634 163.491 283.412C163.054 283.19 162.568 283.08 162.034 283.08C161.568 283.08 161.119 283.176 160.688 283.369C160.256 283.562 159.895 283.866 159.605 284.281C159.315 284.696 159.148 285.239 159.102 285.909H156.955C157 284.943 157.25 284.116 157.705 283.429C158.165 282.741 158.77 282.216 159.52 281.852C160.276 281.489 161.114 281.307 162.034 281.307C163.034 281.307 163.903 281.506 164.642 281.903C165.386 282.301 165.96 282.847 166.364 283.54C166.773 284.233 166.977 285.023 166.977 285.909C166.977 286.534 166.881 287.099 166.688 287.605C166.5 288.111 166.227 288.562 165.869 288.96C165.517 289.358 165.091 289.71 164.591 290.017C164.091 290.33 163.69 290.659 163.389 291.006C163.088 291.347 162.869 291.753 162.733 292.224C162.597 292.696 162.523 293.284 162.511 293.989V294.091H160.466ZM161.557 299.136C161.136 299.136 160.776 298.986 160.474 298.685C160.173 298.384 160.023 298.023 160.023 297.602C160.023 297.182 160.173 296.821 160.474 296.52C160.776 296.219 161.136 296.068 161.557 296.068C161.977 296.068 162.338 296.219 162.639 296.52C162.94 296.821 163.091 297.182 163.091 297.602C163.091 297.881 163.02 298.136 162.878 298.369C162.741 298.602 162.557 298.79 162.324 298.932C162.097 299.068 161.841 299.136 161.557 299.136Z" fill="#E5E8EB"/>
    <path d="M239.349 276.318V276.241C239.358 275.428 239.443 274.78 239.605 274.298C239.767 273.817 239.997 273.427 240.295 273.129C240.594 272.83 240.952 272.555 241.369 272.304C241.621 272.151 241.847 271.969 242.047 271.761C242.247 271.548 242.405 271.303 242.52 271.026C242.639 270.749 242.699 270.442 242.699 270.105C242.699 269.687 242.601 269.325 242.405 269.018C242.209 268.712 241.947 268.475 241.619 268.309C241.29 268.143 240.926 268.06 240.526 268.06C240.176 268.06 239.839 268.132 239.516 268.277C239.192 268.422 238.921 268.65 238.704 268.961C238.487 269.272 238.361 269.679 238.327 270.182H236.716C236.75 269.457 236.938 268.837 237.278 268.322C237.624 267.806 238.077 267.412 238.64 267.139C239.207 266.866 239.835 266.73 240.526 266.73C241.276 266.73 241.928 266.879 242.482 267.178C243.04 267.476 243.47 267.885 243.773 268.405C244.08 268.925 244.233 269.517 244.233 270.182C244.233 270.651 244.161 271.075 244.016 271.454C243.875 271.833 243.67 272.172 243.402 272.47C243.138 272.768 242.818 273.033 242.443 273.263C242.068 273.497 241.768 273.744 241.542 274.004C241.316 274.26 241.152 274.565 241.05 274.918C240.947 275.272 240.892 275.713 240.884 276.241V276.318H239.349ZM240.168 280.102C239.852 280.102 239.582 279.989 239.356 279.763C239.13 279.538 239.017 279.267 239.017 278.952C239.017 278.636 239.13 278.366 239.356 278.14C239.582 277.914 239.852 277.801 240.168 277.801C240.483 277.801 240.754 277.914 240.979 278.14C241.205 278.366 241.318 278.636 241.318 278.952C241.318 279.161 241.265 279.352 241.158 279.527C241.056 279.702 240.918 279.842 240.743 279.949C240.572 280.051 240.381 280.102 240.168 280.102Z" fill="#E5E8EB"/>
    <path d="M83.5732 376.842C84.3778 376.842 85.0862 377.074 85.6982 377.539C86.3215 377.992 86.8088 378.644 87.1602 379.494C87.5228 380.333 87.7042 381.324 87.7042 382.469C87.7042 383.625 87.5228 384.628 87.1602 385.478C86.8088 386.317 86.3215 386.968 85.6982 387.433C85.0862 387.886 84.3778 388.113 83.5732 388.113C82.7685 388.113 82.0545 387.886 81.4312 387.433C80.8078 386.968 80.3148 386.317 79.9522 385.478C79.6008 384.628 79.4252 383.625 79.4252 382.469C79.4252 381.324 79.6008 380.333 79.9522 379.494C80.3148 378.644 80.8078 377.992 81.4312 377.539C82.0545 377.074 82.7685 376.842 83.5732 376.842ZM83.5732 378.899C83.1878 378.899 82.8422 379.035 82.5362 379.307C82.2415 379.579 82.0092 379.981 81.8392 380.514C81.6805 381.035 81.6012 381.687 81.6012 382.469C81.6012 383.24 81.6805 383.897 81.8392 384.441C82.0092 384.974 82.2415 385.376 82.5362 385.648C82.8422 385.92 83.1878 386.056 83.5732 386.056C83.9585 386.056 84.2985 385.92 84.5932 385.648C84.8878 385.376 85.1145 384.974 85.2732 384.441C85.4432 383.897 85.5282 383.24 85.5282 382.469C85.5282 381.687 85.4432 381.035 85.2732 380.514C85.1145 379.981 84.8878 379.579 84.5932 379.307C84.2985 379.035 83.9585 378.899 83.5732 378.899ZM89.4042 375.771H91.6822V391.513H89.4042V375.771ZM91.1892 381.704H93.9602V383.557H91.1892V381.704ZM98.8038 377.386H100.674V378.372C100.674 379.358 100.509 380.299 100.181 381.194C99.8635 382.078 99.3762 382.849 98.7188 383.506C98.0615 384.163 97.2228 384.656 96.2028 384.985L95.0468 383.234C95.9308 382.951 96.6448 382.554 97.1888 382.044C97.7442 381.523 98.1522 380.945 98.4128 380.31C98.6735 379.664 98.8038 379.018 98.8038 378.372V377.386ZM99.2798 377.386H101.116V378.372C101.116 378.837 101.189 379.301 101.337 379.766C101.484 380.219 101.705 380.65 102 381.058C102.306 381.466 102.691 381.834 103.156 382.163C103.62 382.492 104.17 382.758 104.805 382.962L103.666 384.73C102.68 384.413 101.864 383.937 101.218 383.302C100.572 382.667 100.084 381.925 99.7558 381.075C99.4385 380.214 99.2798 379.313 99.2798 378.372V377.386ZM105.808 375.754H108.069V385.257H105.808V375.754ZM97.3418 385.954H108.069V391.513H105.808V387.739H97.3418V385.954ZM95.6588 376.689H104.227V378.474H95.6588V376.689ZM118.088 378.389H119.924V378.967C119.924 379.862 119.76 380.712 119.431 381.517C119.114 382.31 118.626 383.002 117.969 383.591C117.323 384.18 116.496 384.617 115.487 384.9L114.433 383.132C115.294 382.894 115.991 382.565 116.524 382.146C117.068 381.715 117.465 381.222 117.714 380.667C117.963 380.112 118.088 379.545 118.088 378.967V378.389ZM118.513 378.389H120.349V378.967C120.349 379.5 120.474 380.027 120.723 380.548C120.984 381.058 121.38 381.517 121.913 381.925C122.446 382.333 123.131 382.65 123.97 382.877L122.95 384.628C121.953 384.356 121.125 383.942 120.468 383.387C119.811 382.82 119.318 382.157 118.989 381.398C118.672 380.639 118.513 379.828 118.513 378.967V378.389ZM114.994 377.318H123.46V379.086H114.994V377.318ZM118.088 375.703H120.349V378.1H118.088V375.703ZM124.684 375.771H126.945V384.985H124.684V375.771ZM126.333 379.426H129.036V381.296H126.333V379.426ZM116.711 385.648H126.945V391.343H116.711V385.648ZM124.735 387.416H118.938V389.558H124.735V387.416ZM137.246 378.967H141.53V380.786H137.246V378.967ZM137.246 383.863H141.53V385.682H137.246V383.863ZM134.509 376.842C135.291 376.842 135.988 377.074 136.6 377.539C137.223 377.992 137.705 378.644 138.045 379.494C138.396 380.333 138.572 381.324 138.572 382.469C138.572 383.625 138.396 384.628 138.045 385.478C137.705 386.317 137.223 386.968 136.6 387.433C135.988 387.886 135.291 388.113 134.509 388.113C133.727 388.113 133.03 387.886 132.418 387.433C131.806 386.968 131.324 386.317 130.973 385.478C130.621 384.628 130.446 383.625 130.446 382.469C130.446 381.324 130.621 380.333 130.973 379.494C131.324 378.644 131.806 377.992 132.418 377.539C133.03 377.074 133.727 376.842 134.509 376.842ZM134.509 378.899C134.135 378.899 133.8 379.035 133.506 379.307C133.222 379.579 132.996 379.981 132.826 380.514C132.667 381.035 132.588 381.687 132.588 382.469C132.588 383.24 132.667 383.897 132.826 384.441C132.996 384.974 133.222 385.376 133.506 385.648C133.8 385.92 134.135 386.056 134.509 386.056C134.905 386.056 135.245 385.92 135.529 385.648C135.812 385.376 136.033 384.974 136.192 384.441C136.35 383.897 136.43 383.24 136.43 382.469C136.43 381.687 136.35 381.035 136.192 380.514C136.033 379.981 135.812 379.579 135.529 379.307C135.245 379.035 134.905 378.899 134.509 378.899ZM141.156 375.737H143.417V391.53H141.156V375.737ZM155.765 383.676H158.009V386.447H155.765V383.676ZM149.764 382.911H164.01V384.713H149.764V382.911ZM156.853 385.818C158.553 385.818 159.89 386.067 160.865 386.566C161.84 387.053 162.327 387.756 162.327 388.674C162.327 389.569 161.84 390.266 160.865 390.765C159.89 391.264 158.553 391.513 156.853 391.513C155.153 391.513 153.816 391.264 152.841 390.765C151.878 390.266 151.396 389.569 151.396 388.674C151.396 387.756 151.878 387.053 152.841 386.566C153.816 386.067 155.153 385.818 156.853 385.818ZM156.853 387.535C156.15 387.535 155.561 387.575 155.085 387.654C154.62 387.733 154.269 387.858 154.031 388.028C153.793 388.187 153.674 388.402 153.674 388.674C153.674 388.923 153.793 389.133 154.031 389.303C154.269 389.473 154.62 389.598 155.085 389.677C155.561 389.756 156.15 389.796 156.853 389.796C157.556 389.796 158.139 389.756 158.604 389.677C159.08 389.598 159.437 389.473 159.675 389.303C159.913 389.133 160.032 388.923 160.032 388.674C160.032 388.402 159.913 388.187 159.675 388.028C159.437 387.858 159.08 387.733 158.604 387.654C158.139 387.575 157.556 387.535 156.853 387.535ZM155.34 377.25H157.346V377.624C157.346 378.1 157.261 378.553 157.091 378.984C156.921 379.415 156.666 379.817 156.326 380.191C155.997 380.554 155.584 380.882 155.085 381.177C154.586 381.472 154.008 381.715 153.351 381.908C152.694 382.101 151.963 382.237 151.158 382.316L150.376 380.531C151.067 380.474 151.679 380.378 152.212 380.242C152.756 380.106 153.221 379.942 153.606 379.749C154.003 379.545 154.326 379.33 154.575 379.103C154.836 378.865 155.028 378.621 155.153 378.372C155.278 378.123 155.34 377.873 155.34 377.624V377.25ZM156.445 377.25H158.434V377.624C158.434 377.873 158.496 378.128 158.621 378.389C158.746 378.638 158.933 378.876 159.182 379.103C159.443 379.33 159.766 379.545 160.151 379.749C160.548 379.942 161.012 380.106 161.545 380.242C162.089 380.378 162.707 380.474 163.398 380.531L162.616 382.316C161.811 382.237 161.08 382.101 160.423 381.908C159.766 381.715 159.188 381.477 158.689 381.194C158.202 380.899 157.788 380.571 157.448 380.208C157.119 379.834 156.87 379.432 156.7 379.001C156.53 378.559 156.445 378.1 156.445 377.624V377.25ZM151.073 376.417H162.735V378.202H151.073V376.417ZM176.232 375.771H178.493V387.076H176.232V375.771ZM168.004 389.422H178.901V391.241H168.004V389.422ZM168.004 385.954H170.265V390.17H168.004V385.954ZM169.925 376.774C170.729 376.774 171.455 376.944 172.101 377.284C172.747 377.624 173.257 378.094 173.631 378.695C174.016 379.296 174.209 379.987 174.209 380.769C174.209 381.528 174.016 382.214 173.631 382.826C173.257 383.427 172.747 383.903 172.101 384.254C171.455 384.594 170.729 384.764 169.925 384.764C169.12 384.764 168.395 384.594 167.749 384.254C167.103 383.903 166.587 383.427 166.202 382.826C165.828 382.214 165.641 381.528 165.641 380.769C165.641 379.987 165.828 379.296 166.202 378.695C166.587 378.094 167.103 377.624 167.749 377.284C168.395 376.944 169.12 376.774 169.925 376.774ZM169.925 378.712C169.539 378.712 169.188 378.797 168.871 378.967C168.553 379.126 168.304 379.358 168.123 379.664C167.941 379.959 167.851 380.327 167.851 380.769C167.851 381.188 167.941 381.551 168.123 381.857C168.304 382.152 168.553 382.384 168.871 382.554C169.188 382.713 169.539 382.792 169.925 382.792C170.31 382.792 170.661 382.713 170.979 382.554C171.296 382.384 171.545 382.152 171.727 381.857C171.908 381.551 171.999 381.188 171.999 380.769C171.999 380.327 171.908 379.959 171.727 379.664C171.545 379.358 171.296 379.126 170.979 378.967C170.661 378.797 170.31 378.712 169.925 378.712ZM195.04 375.737H197.318V391.53H195.04V375.737ZM196.825 381.568H199.596V383.438H196.825V381.568ZM185.588 385.886H186.914C187.809 385.886 188.648 385.875 189.43 385.852C190.212 385.818 190.971 385.767 191.708 385.699C192.445 385.62 193.198 385.512 193.969 385.376L194.19 387.246C193.397 387.382 192.615 387.49 191.844 387.569C191.085 387.648 190.303 387.699 189.498 387.722C188.693 387.745 187.832 387.756 186.914 387.756H185.588V385.886ZM185.588 377.199H192.932V379.018H187.849V386.77H185.588V377.199ZM211.427 375.737H213.688V391.53H211.427V375.737ZM205.205 376.842C206.009 376.842 206.723 377.074 207.347 377.539C207.97 377.992 208.457 378.644 208.809 379.494C209.171 380.333 209.353 381.324 209.353 382.469C209.353 383.625 209.171 384.628 208.809 385.478C208.457 386.317 207.97 386.968 207.347 387.433C206.723 387.886 206.009 388.113 205.205 388.113C204.411 388.113 203.703 387.886 203.08 387.433C202.456 386.968 201.963 386.317 201.601 385.478C201.249 384.628 201.074 383.625 201.074 382.469C201.074 381.324 201.249 380.333 201.601 379.494C201.963 378.644 202.456 377.992 203.08 377.539C203.703 377.074 204.411 376.842 205.205 376.842ZM205.205 378.899C204.819 378.899 204.479 379.035 204.185 379.307C203.89 379.579 203.658 379.981 203.488 380.514C203.329 381.035 203.25 381.687 203.25 382.469C203.25 383.24 203.329 383.897 203.488 384.441C203.658 384.974 203.89 385.376 204.185 385.648C204.479 385.92 204.819 386.056 205.205 386.056C205.601 386.056 205.947 385.92 206.242 385.648C206.536 385.376 206.763 384.974 206.922 384.441C207.092 383.897 207.177 383.24 207.177 382.469C207.177 381.687 207.092 381.035 206.922 380.514C206.763 379.981 206.536 379.579 206.242 379.307C205.947 379.035 205.601 378.899 205.205 378.899ZM220.571 376.842C221.353 376.842 222.05 377.074 222.662 377.539C223.286 377.992 223.767 378.644 224.107 379.494C224.459 380.333 224.634 381.324 224.634 382.469C224.634 383.625 224.459 384.628 224.107 385.478C223.767 386.317 223.286 386.968 222.662 387.433C222.05 387.886 221.353 388.113 220.571 388.113C219.789 388.113 219.092 387.886 218.48 387.433C217.868 386.968 217.387 386.317 217.035 385.478C216.684 384.628 216.508 383.625 216.508 382.469C216.508 381.324 216.684 380.333 217.035 379.494C217.387 378.644 217.868 377.992 218.48 377.539C219.092 377.074 219.789 376.842 220.571 376.842ZM220.571 378.899C220.197 378.899 219.863 379.035 219.568 379.307C219.285 379.579 219.064 379.981 218.905 380.514C218.747 381.035 218.667 381.687 218.667 382.469C218.667 383.24 218.747 383.897 218.905 384.441C219.064 384.974 219.285 385.376 219.568 385.648C219.863 385.92 220.197 386.056 220.571 386.056C220.968 386.056 221.308 385.92 221.591 385.648C221.875 385.376 222.096 384.974 222.254 384.441C222.413 383.897 222.492 383.24 222.492 382.469C222.492 381.687 222.413 381.035 222.254 380.514C222.096 379.981 221.875 379.579 221.591 379.307C221.308 379.035 220.968 378.899 220.571 378.899ZM227.218 375.737H229.479V391.53H227.218V375.737ZM223.971 381.432H228.17V383.234H223.971V381.432ZM242.738 375.737H245.016V391.53H242.738V375.737ZM232.759 386.022H234.153C235.082 386.022 235.961 386.011 236.788 385.988C237.615 385.954 238.426 385.903 239.219 385.835C240.012 385.756 240.823 385.642 241.65 385.495L241.888 387.314C240.619 387.541 239.366 387.694 238.131 387.773C236.907 387.841 235.581 387.875 234.153 387.875H232.759V386.022ZM232.725 377.08H240.154V383.183H235.054V386.719H232.759V381.398H237.859V378.899H232.725V377.08ZM257.595 375.737H259.873V391.479H257.595V375.737ZM259.295 381.772H262.066V383.625H259.295V381.772ZM253.464 377.369H255.691C255.691 378.944 255.464 380.435 255.011 381.84C254.569 383.245 253.832 384.537 252.801 385.716C251.781 386.883 250.398 387.903 248.653 388.776L247.378 387.059C248.76 386.345 249.899 385.54 250.795 384.645C251.701 383.75 252.37 382.735 252.801 381.602C253.243 380.457 253.464 379.182 253.464 377.777V377.369ZM248.245 377.369H254.637V379.188H248.245V377.369ZM268.838 384.985H270.946V386.532H272.51V384.985H274.584V391.343H268.838V384.985ZM270.946 388.164V389.643H272.51V388.164H270.946ZM277.032 384.849H278.732V386.022C278.732 386.793 278.624 387.541 278.409 388.266C278.193 388.98 277.842 389.615 277.355 390.17C276.879 390.737 276.25 391.173 275.468 391.479L274.363 389.796C274.997 389.535 275.507 389.207 275.893 388.81C276.289 388.402 276.578 387.96 276.76 387.484C276.941 386.997 277.032 386.509 277.032 386.022V384.849ZM277.542 384.849H279.276V386.022C279.276 386.566 279.361 387.087 279.531 387.586C279.712 388.073 279.995 388.51 280.381 388.895C280.777 389.28 281.293 389.581 281.928 389.796L280.806 391.479C280.012 391.196 279.378 390.782 278.902 390.238C278.426 389.694 278.08 389.065 277.865 388.351C277.649 387.626 277.542 386.849 277.542 386.022V384.849ZM275.077 379.137H279.021V380.956H275.077V379.137ZM271.456 376.349C272.249 376.349 272.957 376.508 273.581 376.825C274.215 377.142 274.714 377.579 275.077 378.134C275.439 378.689 275.621 379.33 275.621 380.055C275.621 380.78 275.439 381.426 275.077 381.993C274.714 382.548 274.215 382.985 273.581 383.302C272.957 383.619 272.249 383.778 271.456 383.778C270.674 383.778 269.965 383.619 269.331 383.302C268.707 382.985 268.214 382.548 267.852 381.993C267.489 381.426 267.308 380.78 267.308 380.055C267.308 379.33 267.489 378.689 267.852 378.134C268.214 377.579 268.707 377.142 269.331 376.825C269.965 376.508 270.674 376.349 271.456 376.349ZM271.456 378.202C271.07 378.202 270.725 378.276 270.419 378.423C270.124 378.57 269.892 378.786 269.722 379.069C269.552 379.341 269.467 379.67 269.467 380.055C269.467 380.44 269.552 380.775 269.722 381.058C269.892 381.341 270.124 381.557 270.419 381.704C270.725 381.851 271.07 381.925 271.456 381.925C271.841 381.925 272.181 381.851 272.476 381.704C272.782 381.557 273.02 381.341 273.19 381.058C273.36 380.775 273.445 380.44 273.445 380.055C273.445 379.67 273.36 379.341 273.19 379.069C273.02 378.786 272.782 378.57 272.476 378.423C272.181 378.276 271.841 378.202 271.456 378.202ZM278.018 375.771H280.296V384.101H278.018V375.771ZM287.06 376.842C287.843 376.842 288.54 377.074 289.152 377.539C289.775 377.992 290.257 378.644 290.597 379.494C290.948 380.333 291.124 381.324 291.124 382.469C291.124 383.625 290.948 384.628 290.597 385.478C290.257 386.317 289.775 386.968 289.152 387.433C288.54 387.886 287.843 388.113 287.06 388.113C286.279 388.113 285.582 387.886 284.97 387.433C284.358 386.968 283.876 386.317 283.525 385.478C283.173 384.628 282.998 383.625 282.998 382.469C282.998 381.324 283.173 380.333 283.525 379.494C283.876 378.644 284.358 377.992 284.97 377.539C285.582 377.074 286.279 376.842 287.06 376.842ZM287.06 378.899C286.687 378.899 286.352 379.035 286.058 379.307C285.774 379.579 285.553 379.981 285.395 380.514C285.236 381.035 285.157 381.687 285.157 382.469C285.157 383.24 285.236 383.897 285.395 384.441C285.553 384.974 285.774 385.376 286.058 385.648C286.352 385.92 286.687 386.056 287.06 386.056C287.457 386.056 287.797 385.92 288.081 385.648C288.364 385.376 288.585 384.974 288.744 384.441C288.902 383.897 288.982 383.24 288.982 382.469C288.982 381.687 288.902 381.035 288.744 380.514C288.585 379.981 288.364 379.579 288.081 379.307C287.797 379.035 287.457 378.899 287.06 378.899ZM293.708 375.737H295.969V391.53H293.708V375.737ZM290.461 381.432H294.66V383.234H290.461V381.432ZM301.526 383.761H303.787V388.164H301.526V383.761ZM307.238 383.761H309.499V388.164H307.238V383.761ZM298.398 387.841H312.661V389.677H298.398V387.841ZM305.504 376.536C306.638 376.536 307.646 376.712 308.53 377.063C309.426 377.414 310.123 377.907 310.621 378.542C311.131 379.165 311.386 379.908 311.386 380.769C311.386 381.619 311.131 382.361 310.621 382.996C310.123 383.619 309.426 384.107 308.53 384.458C307.646 384.809 306.638 384.985 305.504 384.985C304.382 384.985 303.374 384.809 302.478 384.458C301.594 384.107 300.897 383.619 300.387 382.996C299.877 382.361 299.622 381.619 299.622 380.769C299.622 379.908 299.877 379.165 300.387 378.542C300.897 377.907 301.594 377.414 302.478 377.063C303.374 376.712 304.382 376.536 305.504 376.536ZM305.504 378.287C304.779 378.287 304.139 378.389 303.583 378.593C303.039 378.786 302.614 379.063 302.308 379.426C302.002 379.789 301.849 380.236 301.849 380.769C301.849 381.279 302.002 381.721 302.308 382.095C302.614 382.458 303.039 382.741 303.583 382.945C304.139 383.138 304.779 383.234 305.504 383.234C306.241 383.234 306.881 383.138 307.425 382.945C307.981 382.741 308.406 382.458 308.7 382.095C309.006 381.721 309.159 381.279 309.159 380.769C309.159 380.236 309.006 379.789 308.7 379.426C308.406 379.063 307.981 378.786 307.425 378.593C306.881 378.389 306.241 378.287 305.504 378.287Z" fill="#191F28"/>
    <path d="M79.8849 412.635H90.5449V413.532H79.8849V412.635ZM84.6689 409.97H85.7349V413.116H84.6689V409.97ZM84.6559 405.719H85.6179V405.979C85.6179 406.577 85.4922 407.123 85.2409 407.617C84.9895 408.102 84.6429 408.536 84.2009 408.917C83.7589 409.29 83.2562 409.602 82.6929 409.853C82.1295 410.096 81.5272 410.269 80.8859 410.373L80.4699 409.528C81.0419 409.433 81.5792 409.281 82.0819 409.073C82.5932 408.865 83.0395 408.605 83.4209 408.293C83.8109 407.981 84.1142 407.63 84.3309 407.24C84.5475 406.85 84.6559 406.43 84.6559 405.979V405.719ZM84.7989 405.719H85.7479V405.979C85.7479 406.43 85.8562 406.85 86.0729 407.24C86.2895 407.63 86.5885 407.981 86.9699 408.293C87.3599 408.605 87.8062 408.865 88.3089 409.073C88.8202 409.281 89.3619 409.433 89.9339 409.528L89.5179 410.373C88.8852 410.269 88.2829 410.096 87.7109 409.853C87.1475 409.602 86.6449 409.29 86.2029 408.917C85.7695 408.536 85.4272 408.102 85.1759 407.617C84.9245 407.123 84.7989 406.577 84.7989 405.979V405.719ZM80.8729 405.108H89.5309V405.992H80.8729V405.108ZM84.6689 403.496H85.7349V405.433H84.6689V403.496ZM100.788 403.249H101.815V415.014H100.788V403.249ZM98.7988 407.968H101.061V408.852H98.7988V407.968ZM98.1228 403.509H99.1238V414.403H98.1228V403.509ZM92.2598 411.205H93.0268C93.6075 411.205 94.1318 411.201 94.5998 411.192C95.0765 411.175 95.5272 411.14 95.9518 411.088C96.3852 411.036 96.8272 410.962 97.2778 410.867L97.3818 411.764C96.9138 411.859 96.4588 411.933 96.0168 411.985C95.5835 412.037 95.1242 412.072 94.6388 412.089C94.1622 412.106 93.6248 412.115 93.0268 412.115H92.2598V411.205ZM92.2598 404.679H96.6278V405.563H93.3388V411.621H92.2598V404.679ZM108.733 404.393H116.182V405.277H108.733V404.393ZM107.459 412.518H118.08V413.415H107.459V412.518ZM115.74 404.393H116.793V405.511C116.793 405.988 116.784 406.495 116.767 407.032C116.758 407.569 116.719 408.159 116.65 408.8C116.589 409.433 116.477 410.152 116.312 410.958L115.246 410.841C115.489 409.697 115.632 408.696 115.675 407.838C115.718 406.98 115.74 406.204 115.74 405.511V404.393ZM115.987 407.214V408.033L108.564 408.462L108.395 407.526L115.987 407.214ZM111.593 409.476H112.659V412.843H111.593V409.476ZM120.77 408.891H128.843V409.775H120.77V408.891ZM119.418 412.518H130.078V413.415H119.418V412.518ZM120.77 404.341H128.726V405.225H121.836V409.281H120.77V404.341ZM131.364 408.709H142.024V409.541H131.364V408.709ZM132.638 410.477H140.698V412.986H133.73V414.364H132.664V412.245H139.632V411.257H132.638V410.477ZM132.664 414.078H141.075V414.858H132.664V414.078ZM132.716 403.6H140.659V406.044H133.808V407.318H132.742V405.316H139.593V404.367H132.716V403.6ZM132.742 407.058H140.867V407.838H132.742V407.058ZM155.546 403.249H156.625V409.567H155.546V403.249ZM149.059 410.152H150.112V411.569H155.559V410.152H156.625V414.858H149.059V410.152ZM150.112 412.427V413.974H155.559V412.427H150.112ZM150.32 403.808C150.918 403.808 151.447 403.925 151.906 404.159C152.366 404.384 152.725 404.701 152.985 405.108C153.254 405.515 153.388 405.988 153.388 406.525C153.388 407.054 153.254 407.526 152.985 407.942C152.725 408.349 152.366 408.666 151.906 408.891C151.447 409.116 150.918 409.229 150.32 409.229C149.731 409.229 149.202 409.116 148.734 408.891C148.275 408.666 147.911 408.349 147.642 407.942C147.382 407.526 147.252 407.054 147.252 406.525C147.252 405.988 147.382 405.515 147.642 405.108C147.911 404.701 148.275 404.384 148.734 404.159C149.202 403.925 149.731 403.808 150.32 403.808ZM150.32 404.718C149.93 404.718 149.584 404.796 149.28 404.952C148.977 405.099 148.739 405.312 148.565 405.589C148.392 405.858 148.305 406.17 148.305 406.525C148.305 406.872 148.392 407.184 148.565 407.461C148.739 407.73 148.977 407.942 149.28 408.098C149.584 408.254 149.93 408.332 150.32 408.332C150.71 408.332 151.057 408.254 151.36 408.098C151.664 407.942 151.902 407.73 152.075 407.461C152.249 407.184 152.335 406.872 152.335 406.525C152.335 406.17 152.249 405.858 152.075 405.589C151.902 405.312 151.664 405.099 151.36 404.952C151.057 404.796 150.71 404.718 150.32 404.718ZM159.445 409.086H160.277C161.049 409.086 161.707 409.082 162.253 409.073C162.808 409.056 163.311 409.025 163.761 408.982C164.221 408.939 164.684 408.874 165.152 408.787L165.256 409.671C164.901 409.732 164.55 409.784 164.203 409.827C163.857 409.862 163.493 409.888 163.111 409.905C162.73 409.922 162.31 409.935 161.85 409.944C161.391 409.953 160.867 409.957 160.277 409.957H159.445V409.086ZM159.419 403.964H164.476V407.292H160.511V409.606H159.445V406.46H163.41V404.835H159.419V403.964ZM167.544 403.262H168.623V410.49H167.544V403.262ZM165.256 405.004H167.791V405.875H165.256V405.004ZM165.256 407.435H167.791V408.319H165.256V407.435ZM160.758 411.114H168.623V415.027H167.544V411.998H160.758V411.114ZM178.879 403.249H179.945V415.014H178.879V403.249ZM179.698 408.085H181.869V408.995H179.698V408.085ZM170.845 405.134H177.774V406.018H170.845V405.134ZM174.368 406.98C174.923 406.98 175.413 407.097 175.837 407.331C176.271 407.565 176.609 407.886 176.851 408.293C177.103 408.692 177.228 409.155 177.228 409.684C177.228 410.213 177.103 410.681 176.851 411.088C176.609 411.495 176.271 411.816 175.837 412.05C175.413 412.275 174.923 412.388 174.368 412.388C173.814 412.388 173.32 412.275 172.886 412.05C172.462 411.816 172.124 411.495 171.872 411.088C171.621 410.681 171.495 410.213 171.495 409.684C171.495 409.155 171.621 408.692 171.872 408.293C172.124 407.886 172.462 407.565 172.886 407.331C173.32 407.097 173.814 406.98 174.368 406.98ZM174.368 407.877C174.013 407.877 173.697 407.955 173.419 408.111C173.142 408.267 172.921 408.479 172.756 408.748C172.6 409.017 172.522 409.329 172.522 409.684C172.522 410.039 172.6 410.356 172.756 410.633C172.921 410.902 173.142 411.114 173.419 411.27C173.697 411.417 174.013 411.491 174.368 411.491C174.715 411.491 175.027 411.417 175.304 411.27C175.582 411.114 175.798 410.902 175.954 410.633C176.119 410.356 176.201 410.039 176.201 409.684C176.201 409.329 176.119 409.017 175.954 408.748C175.798 408.479 175.582 408.267 175.304 408.111C175.027 407.955 174.715 407.877 174.368 407.877ZM173.809 403.392H174.888V405.524H173.809V403.392ZM191.462 403.249H192.528V415.014H191.462V403.249ZM188.719 407.968H191.943V408.865H188.719V407.968ZM187.692 404.523H188.745C188.745 405.355 188.65 406.165 188.459 406.954C188.277 407.734 187.978 408.475 187.562 409.177C187.155 409.879 186.613 410.533 185.937 411.14C185.261 411.747 184.434 412.293 183.454 412.778L182.856 411.933C183.714 411.517 184.447 411.049 185.053 410.529C185.669 410.009 186.171 409.446 186.561 408.839C186.951 408.224 187.237 407.574 187.419 406.889C187.601 406.196 187.692 405.463 187.692 404.692V404.523ZM183.376 404.523H188.251V405.394H183.376V404.523ZM203.577 407.942H205.735V408.839H203.577V407.942ZM202.784 403.249H203.863V415.001H202.784V403.249ZM195.296 404.406H196.362V411.686H195.296V404.406ZM195.296 411.127H196.232C197.09 411.127 197.97 411.088 198.871 411.01C199.781 410.932 200.722 410.793 201.692 410.594L201.822 411.504C200.817 411.703 199.855 411.842 198.936 411.92C198.026 411.989 197.125 412.024 196.232 412.024H195.296V411.127ZM208.759 412.707L208.686 413.206C208.633 413.557 208.553 413.932 208.445 414.332C208.341 414.732 208.232 415.109 208.118 415.463C208.004 415.817 207.91 416.099 207.836 416.308H207.005C207.045 416.111 207.097 415.851 207.162 415.528C207.227 415.205 207.291 414.843 207.356 414.443C207.424 414.046 207.479 413.64 207.522 413.224L207.578 412.707H208.759ZM216.557 404.354H217.402V406.603C217.402 407.218 217.337 407.821 217.207 408.41C217.077 408.991 216.895 409.541 216.661 410.061C216.427 410.581 216.137 411.049 215.79 411.465C215.452 411.872 215.071 412.206 214.646 412.466L213.957 411.673C214.364 411.43 214.724 411.127 215.036 410.763C215.357 410.399 215.63 409.992 215.855 409.541C216.089 409.082 216.262 408.605 216.375 408.111C216.496 407.608 216.557 407.106 216.557 406.603V404.354ZM216.739 404.354H217.597V406.538C217.597 407.023 217.649 407.504 217.753 407.981C217.866 408.458 218.026 408.908 218.234 409.333C218.451 409.758 218.711 410.143 219.014 410.49C219.317 410.837 219.664 411.114 220.054 411.322L219.404 412.167C218.979 411.924 218.598 411.608 218.26 411.218C217.931 410.819 217.653 410.369 217.428 409.866C217.203 409.363 217.029 408.83 216.908 408.267C216.795 407.704 216.739 407.127 216.739 406.538V404.354ZM223.044 403.249H224.084V415.014H223.044V403.249ZM221.172 407.981H223.434V408.865H221.172V407.981ZM220.457 403.496H221.484V414.416H220.457V403.496ZM226.046 412.661H236.706V413.558H226.046V412.661ZM230.817 410.152H231.883V413.038H230.817V410.152ZM227.346 404.12H235.38V407.682H228.438V410.035H227.372V406.824H234.314V405.004H227.346V404.12ZM227.372 409.58H235.653V410.464H227.372V409.58ZM242.142 404.315H247.55V409.749H242.142V404.315ZM246.497 405.186H243.195V408.878H246.497V405.186ZM249.708 403.249H250.787V411.868H249.708V403.249ZM250.449 406.824H252.516V407.721H250.449V406.824ZM243.468 413.87H251.307V414.754H243.468V413.87ZM243.468 411.049H244.534V414.247H243.468V411.049ZM253.62 408.163H264.254V409.034H253.62V408.163ZM255.037 406.343H262.98V407.214H255.037V406.343ZM255.037 403.639H262.863V404.51H256.103V407.032H255.037V403.639ZM254.907 410.061H262.876V412.817H255.986V414.299H254.933V412.011H261.823V410.906H254.907V410.061ZM254.933 414.013H263.227V414.871H254.933V414.013ZM268.712 404.159C269.284 404.159 269.791 404.328 270.233 404.666C270.675 404.995 271.018 405.468 271.26 406.083C271.512 406.698 271.637 407.422 271.637 408.254C271.637 409.086 271.512 409.81 271.26 410.425C271.018 411.04 270.675 411.517 270.233 411.855C269.791 412.193 269.284 412.362 268.712 412.362C268.149 412.362 267.642 412.193 267.191 411.855C266.749 411.517 266.403 411.04 266.151 410.425C265.909 409.81 265.787 409.086 265.787 408.254C265.787 407.422 265.909 406.698 266.151 406.083C266.403 405.468 266.749 404.995 267.191 404.666C267.642 404.328 268.149 404.159 268.712 404.159ZM268.712 405.121C268.34 405.121 268.01 405.251 267.724 405.511C267.438 405.762 267.213 406.126 267.048 406.603C266.892 407.071 266.814 407.621 266.814 408.254C266.814 408.887 266.892 409.441 267.048 409.918C267.213 410.386 267.438 410.75 267.724 411.01C268.01 411.27 268.34 411.4 268.712 411.4C269.094 411.4 269.427 411.27 269.713 411.01C269.999 410.75 270.22 410.386 270.376 409.918C270.541 409.441 270.623 408.887 270.623 408.254C270.623 407.621 270.541 407.071 270.376 406.603C270.22 406.126 269.999 405.762 269.713 405.511C269.427 405.251 269.094 405.121 268.712 405.121ZM274.185 403.249H275.251V415.027H274.185V403.249ZM271.286 407.734H274.666V408.605H271.286V407.734ZM277.538 412.622H288.198V413.519H277.538V412.622ZM282.309 409.801H283.375V412.882H282.309V409.801ZM278.786 404.081H279.865V406.174H285.845V404.081H286.911V410.1H278.786V404.081ZM279.865 407.058V409.216H285.845V407.058H279.865ZM294.125 407.461H296.387V408.358H294.125V407.461ZM291.941 404.354H292.786V406.603C292.786 407.21 292.721 407.808 292.591 408.397C292.47 408.986 292.288 409.541 292.045 410.061C291.811 410.581 291.525 411.049 291.187 411.465C290.849 411.881 290.468 412.219 290.043 412.479L289.367 411.673C289.766 411.43 290.126 411.127 290.446 410.763C290.767 410.399 291.036 409.992 291.252 409.541C291.478 409.082 291.647 408.605 291.759 408.111C291.881 407.608 291.941 407.106 291.941 406.603V404.354ZM292.149 404.354H292.981V406.564C292.981 407.032 293.033 407.504 293.137 407.981C293.25 408.449 293.406 408.9 293.605 409.333C293.813 409.758 294.069 410.148 294.372 410.503C294.676 410.858 295.018 411.153 295.399 411.387L294.788 412.219C294.364 411.959 293.987 411.63 293.657 411.231C293.328 410.824 293.051 410.369 292.825 409.866C292.6 409.355 292.431 408.817 292.318 408.254C292.206 407.691 292.149 407.127 292.149 406.564V404.354ZM298.454 403.249H299.494V415.014H298.454V403.249ZM296.062 403.496H297.076V414.416H296.062V403.496ZM304.069 409.307H305.135V412.817H304.069V409.307ZM308.411 409.307H309.49V412.817H308.411V409.307ZM301.456 412.609H312.116V413.506H301.456V412.609ZM306.76 403.99C307.592 403.99 308.329 404.116 308.97 404.367C309.611 404.618 310.114 404.969 310.478 405.42C310.851 405.871 311.037 406.404 311.037 407.019C311.037 407.626 310.851 408.159 310.478 408.618C310.114 409.069 309.611 409.42 308.97 409.671C308.329 409.914 307.592 410.035 306.76 410.035C305.937 410.035 305.2 409.914 304.55 409.671C303.909 409.42 303.406 409.069 303.042 408.618C302.678 408.159 302.496 407.626 302.496 407.019C302.496 406.404 302.678 405.871 303.042 405.42C303.406 404.969 303.909 404.618 304.55 404.367C305.2 404.116 305.937 403.99 306.76 403.99ZM306.76 404.848C306.136 404.848 305.581 404.939 305.096 405.121C304.611 405.303 304.229 405.559 303.952 405.888C303.675 406.209 303.536 406.586 303.536 407.019C303.536 407.452 303.675 407.834 303.952 408.163C304.229 408.484 304.611 408.735 305.096 408.917C305.581 409.099 306.136 409.19 306.76 409.19C307.393 409.19 307.952 409.099 308.437 408.917C308.922 408.735 309.304 408.484 309.581 408.163C309.858 407.834 309.997 407.452 309.997 407.019C309.997 406.586 309.858 406.209 309.581 405.888C309.304 405.559 308.922 405.303 308.437 405.121C307.952 404.939 307.393 404.848 306.76 404.848Z" fill="#8B95A1"/>
    <path d="M357 460H36C29.3726 460 24 465.373 24 472V500C24 506.627 29.3726 512 36 512H357C363.627 512 369 506.627 369 500V472C369 465.373 363.627 460 357 460Z" stroke="#FF6B6B" stroke-width="1.5"/>
    <path d="M137.948 489.14H150.533V490.76H137.948V489.14ZM143.243 486.455H145.223V489.965H143.243V486.455ZM143.228 481.325H144.983V481.625C144.983 482.295 144.853 482.925 144.593 483.515C144.333 484.095 143.948 484.62 143.438 485.09C142.938 485.56 142.323 485.955 141.593 486.275C140.863 486.595 140.018 486.815 139.058 486.935L138.338 485.345C139.188 485.245 139.918 485.075 140.528 484.835C141.148 484.585 141.653 484.285 142.043 483.935C142.443 483.585 142.738 483.215 142.928 482.825C143.128 482.425 143.228 482.025 143.228 481.625V481.325ZM143.483 481.325H145.238V481.625C145.238 482.025 145.333 482.425 145.523 482.825C145.723 483.215 146.018 483.585 146.408 483.935C146.808 484.285 147.318 484.585 147.938 484.835C148.558 485.075 149.288 485.245 150.128 485.345L149.408 486.935C148.448 486.815 147.603 486.595 146.873 486.275C146.143 485.955 145.523 485.56 145.013 485.09C144.513 484.62 144.133 484.095 143.873 483.515C143.613 482.925 143.483 482.295 143.483 481.625V481.325ZM139.013 480.32H149.438V481.91H139.013V480.32ZM143.243 478.625H145.223V480.965H143.243V478.625ZM161.767 478.43H163.672V492.32H161.767V478.43ZM159.922 483.785H162.232V485.39H159.922V483.785ZM158.662 478.67H160.507V491.675H158.662V478.67ZM152.137 487.55H153.097C153.677 487.55 154.227 487.545 154.747 487.535C155.267 487.515 155.782 487.48 156.292 487.43C156.812 487.37 157.342 487.295 157.882 487.205L158.047 488.825C157.487 488.925 156.942 489.005 156.412 489.065C155.882 489.125 155.347 489.165 154.807 489.185C154.267 489.195 153.697 489.2 153.097 489.2H152.137V487.55ZM152.137 480.05H157.252V481.655H154.102V488.345H152.137V480.05ZM170.427 479.585H179.187V481.19H170.427V479.585ZM169.002 489.125H181.572V490.73H169.002V489.125ZM178.377 479.585H180.357V480.815C180.357 481.375 180.347 481.975 180.327 482.615C180.317 483.255 180.267 483.97 180.177 484.76C180.087 485.55 179.937 486.455 179.727 487.475L177.747 487.265C178.067 485.855 178.252 484.63 178.302 483.59C178.352 482.54 178.377 481.615 178.377 480.815V479.585ZM178.737 482.93V484.445L170.262 484.895L170.007 483.2L178.737 482.93ZM173.457 485.795H175.467V489.71H173.457V485.795ZM184.286 484.85H194.051V486.425H184.286V484.85ZM182.816 489.035H195.401V490.655H182.816V489.035ZM184.286 479.57H193.946V481.19H186.266V485.51H184.286V479.57ZM209.627 478.445H211.622V485.9H209.627V478.445ZM202.397 486.515H204.362V487.805H209.642V486.515H211.622V492.185H202.397V486.515ZM204.362 489.335V490.595H209.642V489.335H204.362ZM204.062 479.015C204.782 479.015 205.427 479.155 205.997 479.435C206.567 479.715 207.017 480.1 207.347 480.59C207.677 481.08 207.842 481.645 207.842 482.285C207.842 482.925 207.677 483.495 207.347 483.995C207.017 484.485 206.567 484.87 205.997 485.15C205.427 485.43 204.782 485.57 204.062 485.57C203.342 485.57 202.697 485.43 202.127 485.15C201.557 484.87 201.107 484.485 200.777 483.995C200.447 483.495 200.282 482.925 200.282 482.285C200.282 481.645 200.447 481.08 200.777 480.59C201.107 480.1 201.557 479.715 202.127 479.435C202.697 479.155 203.342 479.015 204.062 479.015ZM204.062 480.65C203.712 480.65 203.397 480.715 203.117 480.845C202.837 480.975 202.617 481.165 202.457 481.415C202.307 481.655 202.232 481.945 202.232 482.285C202.232 482.635 202.307 482.935 202.457 483.185C202.617 483.425 202.837 483.61 203.117 483.74C203.397 483.86 203.712 483.92 204.062 483.92C204.412 483.92 204.722 483.86 204.992 483.74C205.272 483.61 205.492 483.425 205.652 483.185C205.812 482.935 205.892 482.635 205.892 482.285C205.892 481.945 205.812 481.655 205.652 481.415C205.492 481.165 205.272 480.975 204.992 480.845C204.722 480.715 204.412 480.65 204.062 480.65ZM214.411 485.045H215.461C216.331 485.045 217.076 485.04 217.696 485.03C218.326 485.01 218.901 484.975 219.421 484.925C219.941 484.875 220.456 484.805 220.966 484.715L221.176 486.305C220.766 486.375 220.361 486.435 219.961 486.485C219.571 486.535 219.151 486.57 218.701 486.59C218.261 486.61 217.776 486.625 217.246 486.635C216.726 486.645 216.131 486.65 215.461 486.65H214.411V485.045ZM214.381 479.225H220.486V483.605H216.391V486.11H214.411V482.12H218.521V480.815H214.381V479.225ZM223.501 478.445H225.511V487.01H223.501V478.445ZM221.281 480.365H223.876V481.955H221.281V480.365ZM221.281 483.32H223.876V484.91H221.281V483.32ZM215.986 487.64H225.511V492.335H223.501V489.215H215.986V487.64ZM236.579 478.445H238.574V492.335H236.579V478.445ZM238.124 483.86H240.569V485.51H238.124V483.86ZM227.609 480.485H235.709V482.075H227.609V480.485ZM231.689 482.87C232.359 482.87 232.959 483.015 233.489 483.305C234.019 483.585 234.434 483.97 234.734 484.46C235.044 484.95 235.199 485.52 235.199 486.17C235.199 486.82 235.044 487.395 234.734 487.895C234.434 488.385 234.019 488.775 233.489 489.065C232.969 489.345 232.369 489.485 231.689 489.485C231.019 489.485 230.414 489.345 229.874 489.065C229.344 488.775 228.924 488.385 228.614 487.895C228.314 487.395 228.164 486.82 228.164 486.17C228.164 485.52 228.314 484.95 228.614 484.46C228.924 483.97 229.344 483.585 229.874 483.305C230.414 483.015 231.019 482.87 231.689 482.87ZM231.689 484.49C231.369 484.49 231.089 484.555 230.849 484.685C230.609 484.815 230.419 485.005 230.279 485.255C230.139 485.505 230.069 485.81 230.069 486.17C230.069 486.52 230.139 486.825 230.279 487.085C230.419 487.335 230.609 487.53 230.849 487.67C231.089 487.8 231.369 487.865 231.689 487.865C231.999 487.865 232.274 487.8 232.514 487.67C232.754 487.53 232.944 487.335 233.084 487.085C233.224 486.825 233.294 486.52 233.294 486.17C233.294 485.81 233.224 485.505 233.084 485.255C232.944 485.005 232.754 484.815 232.514 484.685C232.274 484.555 231.999 484.49 231.689 484.49ZM230.669 478.67H232.679V481.1H230.669V478.67ZM251.053 478.43H253.048V492.32H251.053V478.43ZM246.958 479.87H248.923C248.923 480.93 248.818 481.945 248.608 482.915C248.408 483.875 248.068 484.78 247.588 485.63C247.118 486.48 246.468 487.27 245.638 488C244.818 488.72 243.793 489.38 242.563 489.98L241.513 488.405C242.853 487.755 243.918 487.04 244.708 486.26C245.508 485.47 246.083 484.58 246.433 483.59C246.783 482.59 246.958 481.47 246.958 480.23V479.87ZM242.263 479.87H247.888V481.46H242.263V479.87Z" fill="#FF6B6B"/>
    <path d="M357 524H36C29.3726 524 24 529.373 24 536V564C24 570.627 29.3726 576 36 576H357C363.627 576 369 570.627 369 564V536C369 529.373 363.627 524 357 524Z" fill="#FF6B6B"/>
    <path d="M140.498 543.645H142.028V545.97C142.028 546.77 141.968 547.55 141.848 548.31C141.738 549.06 141.558 549.77 141.308 550.44C141.058 551.1 140.733 551.7 140.333 552.24C139.943 552.77 139.473 553.205 138.923 553.545L137.678 552.06C138.198 551.75 138.638 551.37 138.998 550.92C139.358 550.47 139.648 549.975 139.868 549.435C140.088 548.895 140.248 548.335 140.348 547.755C140.448 547.165 140.498 546.57 140.498 545.97V543.645ZM140.888 543.645H142.433V545.835C142.433 546.435 142.478 547.02 142.568 547.59C142.658 548.16 142.798 548.695 142.988 549.195C143.188 549.695 143.453 550.15 143.783 550.56C144.113 550.96 144.523 551.29 145.013 551.55L143.858 553.14C143.298 552.82 142.823 552.41 142.433 551.91C142.053 551.41 141.748 550.84 141.518 550.2C141.298 549.56 141.138 548.87 141.038 548.13C140.938 547.39 140.888 546.625 140.888 545.835V543.645ZM147.968 542.43H149.873V556.32H147.968V542.43ZM146.303 547.83H148.613V549.435H146.303V547.83ZM144.983 542.655H146.843V555.705H144.983V542.655ZM164.084 542.415H166.094V556.35H164.084V542.415ZM165.659 547.56H168.104V549.21H165.659V547.56ZM155.744 551.37H156.914C157.704 551.37 158.444 551.36 159.134 551.34C159.824 551.31 160.494 551.265 161.144 551.205C161.794 551.135 162.459 551.04 163.139 550.92L163.334 552.57C162.634 552.69 161.944 552.785 161.264 552.855C160.594 552.925 159.904 552.97 159.194 552.99C158.484 553.01 157.724 553.02 156.914 553.02H155.744V551.37ZM155.744 543.705H162.224V545.31H157.739V552.15H155.744V543.705ZM178.542 542.415H180.537V556.35H178.542V542.415ZM173.052 543.39C173.762 543.39 174.392 543.595 174.942 544.005C175.492 544.405 175.922 544.98 176.232 545.73C176.552 546.47 176.712 547.345 176.712 548.355C176.712 549.375 176.552 550.26 176.232 551.01C175.922 551.75 175.492 552.325 174.942 552.735C174.392 553.135 173.762 553.335 173.052 553.335C172.352 553.335 171.727 553.135 171.177 552.735C170.627 552.325 170.192 551.75 169.872 551.01C169.562 550.26 169.407 549.375 169.407 548.355C169.407 547.345 169.562 546.47 169.872 545.73C170.192 544.98 170.627 544.405 171.177 544.005C171.727 543.595 172.352 543.39 173.052 543.39ZM173.052 545.205C172.712 545.205 172.412 545.325 172.152 545.565C171.892 545.805 171.687 546.16 171.537 546.63C171.397 547.09 171.327 547.665 171.327 548.355C171.327 549.035 171.397 549.615 171.537 550.095C171.687 550.565 171.892 550.92 172.152 551.16C172.412 551.4 172.712 551.52 173.052 551.52C173.402 551.52 173.707 551.4 173.967 551.16C174.227 550.92 174.427 550.565 174.567 550.095C174.717 549.615 174.792 549.035 174.792 548.355C174.792 547.665 174.717 547.09 174.567 546.63C174.427 546.16 174.227 545.805 173.967 545.565C173.707 545.325 173.402 545.205 173.052 545.205ZM186.611 543.39C187.301 543.39 187.916 543.595 188.456 544.005C189.006 544.405 189.431 544.98 189.731 545.73C190.041 546.47 190.196 547.345 190.196 548.355C190.196 549.375 190.041 550.26 189.731 551.01C189.431 551.75 189.006 552.325 188.456 552.735C187.916 553.135 187.301 553.335 186.611 553.335C185.921 553.335 185.306 553.135 184.766 552.735C184.226 552.325 183.801 551.75 183.491 551.01C183.181 550.26 183.026 549.375 183.026 548.355C183.026 547.345 183.181 546.47 183.491 545.73C183.801 544.98 184.226 544.405 184.766 544.005C185.306 543.595 185.921 543.39 186.611 543.39ZM186.611 545.205C186.281 545.205 185.986 545.325 185.726 545.565C185.476 545.805 185.281 546.16 185.141 546.63C185.001 547.09 184.931 547.665 184.931 548.355C184.931 549.035 185.001 549.615 185.141 550.095C185.281 550.565 185.476 550.92 185.726 551.16C185.986 551.4 186.281 551.52 186.611 551.52C186.961 551.52 187.261 551.4 187.511 551.16C187.761 550.92 187.956 550.565 188.096 550.095C188.236 549.615 188.306 549.035 188.306 548.355C188.306 547.665 188.236 547.09 188.096 546.63C187.956 546.16 187.761 545.805 187.511 545.565C187.261 545.325 186.961 545.205 186.611 545.205ZM192.476 542.415H194.471V556.35H192.476V542.415ZM189.611 547.44H193.316V549.03H189.611V547.44ZM206.17 542.415H208.18V556.35H206.17V542.415ZM197.365 551.49H198.595C199.415 551.49 200.19 551.48 200.92 551.46C201.65 551.43 202.365 551.385 203.065 551.325C203.765 551.255 204.48 551.155 205.21 551.025L205.42 552.63C204.3 552.83 203.195 552.965 202.105 553.035C201.025 553.095 199.855 553.125 198.595 553.125H197.365V551.49ZM197.335 543.6H203.89V548.985H199.39V552.105H197.365V547.41H201.865V545.205H197.335V543.6ZM214.276 543.57H220.906V550.29H214.276V543.57ZM218.941 545.16H216.241V548.715H218.941V545.16ZM222.811 542.445H224.806V552.57H222.811V542.445ZM224.251 546.45H226.651V548.085H224.251V546.45ZM215.851 554.49H225.301V556.095H215.851V554.49ZM215.851 551.58H217.861V555.3H215.851V551.58ZM227.699 547.815H240.254V549.39H227.699V547.815ZM229.244 545.505H238.769V547.08H229.244V545.505ZM229.244 542.7H238.649V544.275H231.224V546.87H229.244V542.7ZM229.109 550.17H238.709V553.86H231.104V555.045H229.124V552.45H236.744V551.685H229.109V550.17ZM229.124 554.685H239.084V556.215H229.124V554.685ZM251.053 542.43H253.048V556.32H251.053V542.43ZM246.958 543.87H248.923C248.923 544.93 248.818 545.945 248.608 546.915C248.408 547.875 248.068 548.78 247.588 549.63C247.118 550.48 246.468 551.27 245.638 552C244.818 552.72 243.793 553.38 242.563 553.98L241.513 552.405C242.853 551.755 243.918 551.04 244.708 550.26C245.508 549.47 246.083 548.58 246.433 547.59C246.783 546.59 246.958 545.47 246.958 544.23V543.87ZM242.263 543.87H247.888V545.46H242.263V543.87Z" fill="white"/>
    <path d="M393 782H0V852H393V782Z" fill="white"/>
    <path d="M0 782H393" stroke="#F2F3F5"/>
    <path d="M55 799H43C41.3431 799 40 800.343 40 802V811C40 812.657 41.3431 814 43 814H55C56.6569 814 58 812.657 58 811V802C58 800.343 56.6569 799 55 799Z" stroke="#B0B8C1" stroke-width="1.4"/>
    <path d="M45 796V802" stroke="#B0B8C1" stroke-width="1.4" stroke-linecap="round"/>
    <path d="M53 796V802" stroke="#B0B8C1" stroke-width="1.4" stroke-linecap="round"/>
    <path d="M40 805H58" stroke="#B0B8C1" stroke-width="0.8"/>
    <path d="M42.8408 818.06C43.2941 818.06 43.6941 818.147 44.0408 818.32C44.3941 818.487 44.6708 818.72 44.8708 819.02C45.0708 819.32 45.1708 819.67 45.1708 820.07C45.1708 820.463 45.0708 820.813 44.8708 821.12C44.6708 821.42 44.3941 821.653 44.0408 821.82C43.6941 821.987 43.2941 822.07 42.8408 822.07C42.3941 822.07 41.9941 821.987 41.6408 821.82C41.2874 821.653 41.0074 821.42 40.8008 821.12C40.6008 820.813 40.5008 820.463 40.5008 820.07C40.5008 819.67 40.6008 819.32 40.8008 819.02C41.0074 818.72 41.2874 818.487 41.6408 818.32C41.9941 818.147 42.3941 818.06 42.8408 818.06ZM42.8408 818.75C42.5474 818.75 42.2841 818.807 42.0508 818.92C41.8241 819.027 41.6441 819.18 41.5108 819.38C41.3774 819.58 41.3108 819.81 41.3108 820.07C41.3108 820.33 41.3774 820.56 41.5108 820.76C41.6441 820.953 41.8241 821.107 42.0508 821.22C42.2841 821.333 42.5474 821.39 42.8408 821.39C43.1341 821.39 43.3941 821.333 43.6208 821.22C43.8541 821.107 44.0374 820.953 44.1708 820.76C44.3041 820.56 44.3708 820.33 44.3708 820.07C44.3708 819.81 44.3041 819.58 44.1708 819.38C44.0374 819.18 43.8541 819.027 43.6208 818.92C43.3941 818.807 43.1341 818.75 42.8408 818.75ZM46.8808 817.73H47.7108V822.36H46.8808V817.73ZM41.8608 822.81H47.7108V825H42.6908V826.36H41.8908V824.38H46.8908V823.47H41.8608V822.81ZM41.8908 825.99H48.0208V826.66H41.8908V825.99ZM54.33 820.08H56.36V820.77H54.33V820.08ZM56.11 817.73H56.94V823.12H56.11V817.73ZM53.96 823.4C54.5867 823.4 55.1233 823.467 55.57 823.6C56.0233 823.733 56.37 823.927 56.61 824.18C56.85 824.427 56.97 824.73 56.97 825.09C56.97 825.623 56.7 826.037 56.16 826.33C55.6267 826.623 54.8933 826.77 53.96 826.77C53.0267 826.77 52.29 826.623 51.75 826.33C51.2167 826.037 50.95 825.623 50.95 825.09C50.95 824.73 51.07 824.427 51.31 824.18C51.5567 823.927 51.9033 823.733 52.35 823.6C52.8033 823.467 53.34 823.4 53.96 823.4ZM53.96 824.05C53.5067 824.05 53.1167 824.09 52.79 824.17C52.4633 824.25 52.21 824.367 52.03 824.52C51.8567 824.673 51.77 824.863 51.77 825.09C51.77 825.303 51.8567 825.487 52.03 825.64C52.21 825.793 52.4633 825.913 52.79 826C53.1167 826.08 53.5067 826.12 53.96 826.12C54.42 826.12 54.81 826.08 55.13 826C55.4567 825.913 55.7067 825.793 55.88 825.64C56.06 825.487 56.15 825.303 56.15 825.09C56.15 824.863 56.06 824.673 55.88 824.52C55.7067 824.367 55.4567 824.25 55.13 824.17C54.81 824.09 54.42 824.05 53.96 824.05ZM51.8 818.65H52.48V819.38C52.48 819.933 52.3733 820.453 52.16 820.94C51.9533 821.42 51.66 821.843 51.28 822.21C50.9 822.57 50.46 822.847 49.96 823.04L49.53 822.38C49.87 822.26 50.1767 822.097 50.45 821.89C50.73 821.683 50.97 821.447 51.17 821.18C51.3767 820.913 51.5333 820.627 51.64 820.32C51.7467 820.013 51.8 819.7 51.8 819.38V818.65ZM51.96 818.65H52.64V819.37C52.64 819.757 52.73 820.133 52.91 820.5C53.09 820.867 53.3467 821.19 53.68 821.47C54.0133 821.75 54.3967 821.97 54.83 822.13L54.41 822.79C53.9167 822.61 53.4867 822.35 53.12 822.01C52.7533 821.663 52.4667 821.263 52.26 820.81C52.06 820.357 51.96 819.877 51.96 819.37V818.65ZM49.79 818.39H54.62V819.07H49.79V818.39Z" fill="#B0B8C1"/>
    <path d="M153 796H141C139.343 796 138 797.343 138 799V813C138 814.657 139.343 816 141 816H153C154.657 816 156 814.657 156 813V799C156 797.343 154.657 796 153 796Z" stroke="#B0B8C1" stroke-width="1.4"/>
    <path d="M143 802H151" stroke="#B0B8C1"/>
    <path d="M143 806H151" stroke="#B0B8C1"/>
    <path d="M143 810H148" stroke="#B0B8C1"/>
    <path d="M140.841 818.06C141.294 818.06 141.694 818.147 142.041 818.32C142.394 818.487 142.671 818.72 142.871 819.02C143.071 819.32 143.171 819.67 143.171 820.07C143.171 820.463 143.071 820.813 142.871 821.12C142.671 821.42 142.394 821.653 142.041 821.82C141.694 821.987 141.294 822.07 140.841 822.07C140.394 822.07 139.994 821.987 139.641 821.82C139.287 821.653 139.007 821.42 138.801 821.12C138.601 820.813 138.501 820.463 138.501 820.07C138.501 819.67 138.601 819.32 138.801 819.02C139.007 818.72 139.287 818.487 139.641 818.32C139.994 818.147 140.394 818.06 140.841 818.06ZM140.841 818.75C140.547 818.75 140.284 818.807 140.051 818.92C139.824 819.027 139.644 819.18 139.511 819.38C139.377 819.58 139.311 819.81 139.311 820.07C139.311 820.33 139.377 820.56 139.511 820.76C139.644 820.953 139.824 821.107 140.051 821.22C140.284 821.333 140.547 821.39 140.841 821.39C141.134 821.39 141.394 821.333 141.621 821.22C141.854 821.107 142.037 820.953 142.171 820.76C142.304 820.56 142.371 820.33 142.371 820.07C142.371 819.81 142.304 819.58 142.171 819.38C142.037 819.18 141.854 819.027 141.621 818.92C141.394 818.807 141.134 818.75 140.841 818.75ZM144.881 817.73H145.711V822.36H144.881V817.73ZM139.861 822.81H145.711V825H140.691V826.36H139.891V824.38H144.891V823.47H139.861V822.81ZM139.891 825.99H146.021V826.66H139.891V825.99ZM154.09 817.73H154.92V826.78H154.09V817.73ZM151.44 818.71H152.26C152.26 819.363 152.18 819.993 152.02 820.6C151.867 821.207 151.623 821.783 151.29 822.33C150.957 822.87 150.523 823.373 149.99 823.84C149.457 824.307 148.81 824.723 148.05 825.09L147.61 824.42C148.483 824 149.203 823.51 149.77 822.95C150.337 822.39 150.757 821.767 151.03 821.08C151.303 820.387 151.44 819.64 151.44 818.84V818.71ZM148.03 818.71H151.79V819.38H148.03V818.71Z" fill="#B0B8C1"/>
    <path d="M251 800H239C235.686 800 233 802.686 233 806V808C233 811.314 235.686 814 239 814H251C254.314 814 257 811.314 257 808V806C257 802.686 254.314 800 251 800Z" stroke="#B0B8C1" stroke-width="1.4"/>
    <path d="M241 809.5C242.381 809.5 243.5 808.381 243.5 807C243.5 805.619 242.381 804.5 241 804.5C239.619 804.5 238.5 805.619 238.5 807C238.5 808.381 239.619 809.5 241 809.5Z" fill="#B0B8C1"/>
    <path d="M249 809.5C250.381 809.5 251.5 808.381 251.5 807C251.5 805.619 250.381 804.5 249 804.5C247.619 804.5 246.5 805.619 246.5 807C246.5 808.381 247.619 809.5 249 809.5Z" fill="#B0B8C1"/>
    <path d="M243.191 817.73H243.991V826.78H243.191V817.73ZM239.261 821.43H241.541V822.1H239.261V821.43ZM241.311 817.97H242.091V826.32H241.311V817.97ZM239.371 818.88H240.171C240.171 819.667 240.057 820.423 239.831 821.15C239.611 821.87 239.251 822.543 238.751 823.17C238.251 823.79 237.594 824.343 236.781 824.83L236.301 824.23C237.007 823.803 237.587 823.323 238.041 822.79C238.494 822.25 238.827 821.667 239.041 821.04C239.261 820.407 239.371 819.737 239.371 819.03V818.88ZM236.691 818.88H239.681V819.56H236.691V818.88ZM252.08 817.74H252.91V822.9H252.08V817.74ZM247.07 823.39H252.91V826.66H247.07V823.39ZM252.1 824.06H247.88V825.98H252.1V824.06ZM248.06 818.21C248.52 818.21 248.927 818.3 249.28 818.48C249.633 818.66 249.91 818.91 250.11 819.23C250.317 819.543 250.42 819.91 250.42 820.33C250.42 820.743 250.317 821.11 250.11 821.43C249.91 821.743 249.633 821.99 249.28 822.17C248.927 822.35 248.52 822.44 248.06 822.44C247.607 822.44 247.2 822.35 246.84 822.17C246.487 821.99 246.207 821.743 246 821.43C245.8 821.11 245.7 820.743 245.7 820.33C245.7 819.91 245.8 819.543 246 819.23C246.207 818.91 246.487 818.66 246.84 818.48C247.2 818.3 247.607 818.21 248.06 818.21ZM248.06 818.91C247.767 818.91 247.503 818.97 247.27 819.09C247.037 819.21 246.85 819.377 246.71 819.59C246.577 819.797 246.51 820.043 246.51 820.33C246.51 820.603 246.577 820.847 246.71 821.06C246.85 821.273 247.037 821.44 247.27 821.56C247.503 821.68 247.767 821.74 248.06 821.74C248.36 821.74 248.627 821.68 248.86 821.56C249.093 821.44 249.277 821.273 249.41 821.06C249.543 820.847 249.61 820.603 249.61 820.33C249.61 820.043 249.543 819.797 249.41 819.59C249.277 819.377 249.093 819.21 248.86 819.09C248.627 818.97 248.36 818.91 248.06 818.91Z" fill="#B0B8C1"/>
    <path d="M343 807C345.761 807 348 804.761 348 802C348 799.239 345.761 797 343 797C340.239 797 338 799.239 338 802C338 804.761 340.239 807 343 807Z" stroke="#B0B8C1" stroke-width="1.4"/>
    <path d="M334 816C334 810 338 807 343 807C348 807 352 810 352 816" stroke="#B0B8C1" stroke-width="1.4"/>
    <path d="M334.661 818.64H338.811V824.48H334.661V818.64ZM337.991 819.3H335.471V823.81H337.991V819.3ZM340.421 817.73H341.251V826.78H340.421V817.73ZM341.061 821.34H342.731V822.04H341.061V821.34ZM350.07 817.73H350.9V826.79H350.07V817.73ZM346.13 818.43C346.577 818.43 346.97 818.56 347.31 818.82C347.657 819.073 347.927 819.437 348.12 819.91C348.32 820.383 348.42 820.94 348.42 821.58C348.42 822.22 348.32 822.777 348.12 823.25C347.927 823.723 347.657 824.09 347.31 824.35C346.97 824.61 346.577 824.74 346.13 824.74C345.683 824.74 345.287 824.61 344.94 824.35C344.593 824.09 344.32 823.723 344.12 823.25C343.927 822.777 343.83 822.22 343.83 821.58C343.83 820.94 343.927 820.383 344.12 819.91C344.32 819.437 344.593 819.073 344.94 818.82C345.287 818.56 345.683 818.43 346.13 818.43ZM346.13 819.17C345.83 819.17 345.567 819.27 345.34 819.47C345.12 819.663 344.947 819.943 344.82 820.31C344.693 820.67 344.63 821.093 344.63 821.58C344.63 822.067 344.693 822.493 344.82 822.86C344.947 823.22 345.12 823.5 345.34 823.7C345.567 823.9 345.83 824 346.13 824C346.423 824 346.68 823.9 346.9 823.7C347.127 823.5 347.303 823.22 347.43 822.86C347.557 822.493 347.62 822.067 347.62 821.58C347.62 821.093 347.557 820.67 347.43 820.31C347.303 819.943 347.127 819.663 346.9 819.47C346.68 819.27 346.423 819.17 346.13 819.17Z" fill="#B0B8C1"/>
    <path d="M154.388 840.545C154.346 840.186 154.173 839.906 153.87 839.707C153.567 839.509 153.195 839.409 152.755 839.409C152.433 839.409 152.151 839.461 151.91 839.565C151.67 839.67 151.483 839.813 151.348 839.995C151.216 840.177 151.15 840.384 151.15 840.616C151.15 840.811 151.196 840.978 151.288 841.117C151.383 841.254 151.504 841.369 151.65 841.462C151.797 841.552 151.951 841.626 152.112 841.685C152.273 841.742 152.421 841.788 152.556 841.824L153.294 842.023C153.484 842.072 153.695 842.141 153.927 842.229C154.161 842.316 154.385 842.436 154.598 842.587C154.813 842.737 154.991 842.928 155.13 843.163C155.27 843.397 155.34 843.685 155.34 844.026C155.34 844.419 155.237 844.774 155.031 845.091C154.827 845.408 154.529 845.66 154.136 845.847C153.745 846.034 153.271 846.128 152.712 846.128C152.191 846.128 151.74 846.044 151.359 845.876C150.98 845.708 150.682 845.473 150.464 845.173C150.249 844.872 150.127 844.523 150.098 844.125H151.008C151.031 844.4 151.124 844.627 151.285 844.807C151.448 844.984 151.654 845.117 151.902 845.205C152.153 845.29 152.423 845.332 152.712 845.332C153.048 845.332 153.35 845.278 153.618 845.169C153.885 845.058 154.097 844.904 154.253 844.707C154.41 844.509 154.488 844.277 154.488 844.011C154.488 843.77 154.42 843.573 154.285 843.422C154.15 843.27 153.973 843.147 153.753 843.053C153.532 842.958 153.294 842.875 153.039 842.804L152.144 842.548C151.576 842.385 151.126 842.152 150.794 841.849C150.463 841.546 150.297 841.149 150.297 840.659C150.297 840.252 150.407 839.897 150.628 839.594C150.85 839.288 151.148 839.052 151.522 838.884C151.899 838.713 152.319 838.628 152.783 838.628C153.252 838.628 153.669 838.712 154.033 838.88C154.398 839.046 154.687 839.273 154.9 839.562C155.115 839.851 155.229 840.179 155.241 840.545H154.388ZM159.117 846.099C158.649 846.099 158.231 846.019 157.864 845.858C157.499 845.697 157.209 845.473 156.994 845.187C156.781 844.898 156.665 844.563 156.646 844.182H157.541C157.56 844.416 157.64 844.619 157.782 844.789C157.924 844.957 158.11 845.087 158.34 845.18C158.569 845.272 158.824 845.318 159.103 845.318C159.416 845.318 159.693 845.264 159.934 845.155C160.176 845.046 160.365 844.894 160.502 844.7C160.64 844.506 160.708 844.281 160.708 844.026C160.708 843.758 160.642 843.522 160.509 843.319C160.377 843.113 160.183 842.952 159.927 842.836C159.671 842.72 159.359 842.662 158.99 842.662H158.407V841.881H158.99C159.278 841.881 159.532 841.829 159.75 841.724C159.97 841.62 160.141 841.473 160.264 841.284C160.39 841.095 160.453 840.872 160.453 840.616C160.453 840.37 160.398 840.156 160.289 839.974C160.18 839.791 160.027 839.649 159.828 839.548C159.631 839.446 159.399 839.395 159.132 839.395C158.881 839.395 158.644 839.441 158.421 839.533C158.201 839.623 158.021 839.755 157.882 839.928C157.742 840.098 157.666 840.304 157.654 840.545H156.802C156.816 840.164 156.931 839.83 157.147 839.544C157.362 839.255 157.644 839.03 157.992 838.869C158.342 838.708 158.727 838.628 159.146 838.628C159.596 838.628 159.982 838.719 160.304 838.901C160.626 839.081 160.873 839.319 161.046 839.615C161.219 839.911 161.305 840.231 161.305 840.574C161.305 840.983 161.197 841.333 160.982 841.621C160.769 841.91 160.479 842.11 160.112 842.222V842.278C160.571 842.354 160.93 842.549 161.188 842.864C161.446 843.177 161.575 843.564 161.575 844.026C161.575 844.421 161.467 844.776 161.252 845.091C161.039 845.403 160.747 845.65 160.378 845.83C160.009 846.009 159.589 846.099 159.117 846.099ZM163.453 846H162.53L165.201 838.727H166.11L168.78 846H167.857L165.684 839.878H165.627L163.453 846ZM163.794 843.159H167.516V843.94H163.794V843.159ZM181.845 841.973V842.754H171.845V841.973H181.845ZM185.538 846V838.727H189.927V839.509H186.419V841.966H189.7V842.747H186.419V845.219H189.984V846H185.538ZM191.401 846V840.545H192.21V841.398H192.282C192.395 841.107 192.579 840.88 192.832 840.719C193.085 840.556 193.389 840.474 193.745 840.474C194.104 840.474 194.404 840.556 194.643 840.719C194.884 840.88 195.073 841.107 195.208 841.398H195.264C195.404 841.116 195.614 840.892 195.893 840.727C196.172 840.558 196.507 840.474 196.898 840.474C197.386 840.474 197.785 840.627 198.095 840.933C198.405 841.236 198.56 841.708 198.56 842.349V846H197.722V842.349C197.722 841.947 197.612 841.659 197.392 841.487C197.171 841.314 196.912 841.227 196.614 841.227C196.23 841.227 195.933 841.343 195.723 841.575C195.512 841.805 195.407 842.096 195.407 842.449V846H194.554V842.264C194.554 841.954 194.454 841.704 194.252 841.515C194.051 841.323 193.792 841.227 193.475 841.227C193.257 841.227 193.053 841.285 192.864 841.401C192.677 841.517 192.525 841.678 192.409 841.884C192.296 842.088 192.239 842.323 192.239 842.591V846H191.401ZM200.092 848.045V840.545H200.902V841.412H201.001C201.063 841.317 201.148 841.196 201.257 841.05C201.368 840.901 201.527 840.768 201.733 840.652C201.941 840.534 202.223 840.474 202.578 840.474C203.037 840.474 203.442 840.589 203.793 840.819C204.143 841.049 204.416 841.374 204.613 841.795C204.809 842.217 204.908 842.714 204.908 843.287C204.908 843.865 204.809 844.365 204.613 844.789C204.416 845.21 204.144 845.537 203.796 845.769C203.448 845.999 203.047 846.114 202.592 846.114C202.242 846.114 201.961 846.056 201.751 845.94C201.54 845.821 201.378 845.687 201.264 845.538C201.15 845.387 201.063 845.261 201.001 845.162H200.93V848.045H200.092ZM200.916 843.273C200.916 843.685 200.976 844.048 201.097 844.363C201.218 844.675 201.394 844.92 201.626 845.098C201.858 845.273 202.142 845.361 202.479 845.361C202.829 845.361 203.121 845.268 203.356 845.084C203.592 844.897 203.77 844.646 203.888 844.331C204.009 844.014 204.07 843.661 204.07 843.273C204.07 842.889 204.01 842.544 203.892 842.236C203.776 841.926 203.6 841.681 203.363 841.501C203.128 841.318 202.834 841.227 202.479 841.227C202.138 841.227 201.851 841.314 201.619 841.487C201.387 841.657 201.212 841.896 201.094 842.204C200.975 842.509 200.916 842.866 200.916 843.273ZM208.558 840.545V841.256H205.731V840.545H208.558ZM206.555 839.239H207.393V844.438C207.393 844.674 207.428 844.852 207.496 844.97C207.567 845.086 207.657 845.164 207.766 845.205C207.878 845.242 207.995 845.261 208.118 845.261C208.21 845.261 208.286 845.257 208.345 845.247C208.404 845.235 208.452 845.226 208.487 845.219L208.658 845.972C208.601 845.993 208.521 846.014 208.42 846.036C208.318 846.059 208.189 846.071 208.033 846.071C207.796 846.071 207.564 846.02 207.337 845.918C207.112 845.817 206.925 845.661 206.775 845.453C206.629 845.245 206.555 844.982 206.555 844.665V839.239ZM210.359 848.045C210.217 848.045 210.09 848.034 209.979 848.01C209.867 847.989 209.79 847.967 209.748 847.946L209.961 847.207C210.164 847.259 210.344 847.278 210.501 847.264C210.657 847.25 210.795 847.18 210.916 847.055C211.039 846.932 211.152 846.732 211.253 846.455L211.41 846.028L209.393 840.545H210.302L211.807 844.892H211.864L213.37 840.545H214.279L211.964 846.795C211.86 847.077 211.73 847.31 211.577 847.495C211.423 847.682 211.244 847.821 211.04 847.911C210.839 848 210.612 848.045 210.359 848.045ZM222.289 840.545C222.246 840.186 222.073 839.906 221.77 839.707C221.467 839.509 221.095 839.409 220.655 839.409C220.333 839.409 220.051 839.461 219.81 839.565C219.571 839.67 219.384 839.813 219.249 839.995C219.116 840.177 219.05 840.384 219.05 840.616C219.05 840.811 219.096 840.978 219.188 841.117C219.283 841.254 219.404 841.369 219.551 841.462C219.697 841.552 219.851 841.626 220.012 841.685C220.173 841.742 220.321 841.788 220.456 841.824L221.195 842.023C221.384 842.072 221.595 842.141 221.827 842.229C222.061 842.316 222.285 842.436 222.498 842.587C222.714 842.737 222.891 842.928 223.031 843.163C223.17 843.397 223.24 843.685 223.24 844.026C223.24 844.419 223.137 844.774 222.931 845.091C222.728 845.408 222.429 845.66 222.036 845.847C221.646 846.034 221.171 846.128 220.612 846.128C220.092 846.128 219.641 846.044 219.259 845.876C218.881 845.708 218.582 845.473 218.365 845.173C218.149 844.872 218.027 844.523 217.999 844.125H218.908C218.932 844.4 219.024 844.627 219.185 844.807C219.348 844.984 219.554 845.117 219.803 845.205C220.054 845.29 220.324 845.332 220.612 845.332C220.949 845.332 221.251 845.278 221.518 845.169C221.786 845.058 221.997 844.904 222.154 844.707C222.31 844.509 222.388 844.277 222.388 844.011C222.388 843.77 222.321 843.573 222.186 843.422C222.051 843.27 221.873 843.147 221.653 843.053C221.433 842.958 221.195 842.875 220.939 842.804L220.044 842.548C219.476 842.385 219.026 842.152 218.695 841.849C218.363 841.546 218.198 841.149 218.198 840.659C218.198 840.252 218.308 839.897 218.528 839.594C218.751 839.288 219.049 839.052 219.423 838.884C219.799 838.713 220.219 838.628 220.684 838.628C221.152 838.628 221.569 838.712 221.934 838.88C222.298 839.046 222.587 839.273 222.8 839.562C223.015 839.851 223.129 840.179 223.141 840.545H222.289ZM226.947 840.545V841.256H224.12V840.545H226.947ZM224.944 839.239H225.782V844.438C225.782 844.674 225.816 844.852 225.885 844.97C225.956 845.086 226.046 845.164 226.155 845.205C226.266 845.242 226.383 845.261 226.506 845.261C226.599 845.261 226.675 845.257 226.734 845.247C226.793 845.235 226.84 845.226 226.876 845.219L227.046 845.972C226.989 845.993 226.91 846.014 226.808 846.036C226.707 846.059 226.578 846.071 226.421 846.071C226.185 846.071 225.953 846.02 225.725 845.918C225.5 845.817 225.313 845.661 225.164 845.453C225.017 845.245 224.944 844.982 224.944 844.665V839.239ZM229.813 846.128C229.467 846.128 229.153 846.063 228.872 845.933C228.59 845.8 228.366 845.609 228.2 845.361C228.035 845.11 227.952 844.807 227.952 844.452C227.952 844.139 228.013 843.886 228.136 843.692C228.26 843.495 228.424 843.341 228.63 843.23C228.836 843.119 229.063 843.036 229.312 842.982C229.563 842.925 229.815 842.88 230.068 842.847C230.4 842.804 230.668 842.772 230.874 842.751C231.083 842.727 231.234 842.688 231.329 842.634C231.426 842.579 231.475 842.484 231.475 842.349V842.321C231.475 841.971 231.379 841.698 231.187 841.504C230.997 841.31 230.71 841.213 230.324 841.213C229.924 841.213 229.61 841.301 229.383 841.476C229.156 841.651 228.996 841.838 228.903 842.037L228.108 841.753C228.25 841.421 228.439 841.163 228.676 840.979C228.915 840.792 229.176 840.661 229.457 840.588C229.742 840.512 230.021 840.474 230.296 840.474C230.471 840.474 230.672 840.496 230.899 840.538C231.129 840.579 231.35 840.663 231.563 840.79C231.779 840.918 231.957 841.111 232.1 841.369C232.242 841.627 232.313 841.973 232.313 842.406V846H231.475V845.261H231.432C231.375 845.38 231.28 845.506 231.148 845.641C231.015 845.776 230.839 845.891 230.619 845.986C230.399 846.08 230.13 846.128 229.813 846.128ZM229.94 845.375C230.272 845.375 230.551 845.31 230.778 845.18C231.008 845.049 231.181 844.881 231.297 844.675C231.415 844.469 231.475 844.253 231.475 844.026V843.259C231.439 843.301 231.361 843.34 231.24 843.376C231.122 843.409 230.984 843.438 230.828 843.464C230.674 843.488 230.524 843.509 230.377 843.528C230.233 843.545 230.116 843.559 230.026 843.571C229.808 843.599 229.604 843.646 229.415 843.71C229.228 843.771 229.076 843.865 228.96 843.99C228.847 844.113 228.79 844.281 228.79 844.494C228.79 844.786 228.898 845.006 229.113 845.155C229.331 845.302 229.607 845.375 229.94 845.375ZM236.214 840.545V841.256H233.388V840.545H236.214ZM234.212 839.239H235.05V844.438C235.05 844.674 235.084 844.852 235.153 844.97C235.224 845.086 235.314 845.164 235.422 845.205C235.534 845.242 235.651 845.261 235.774 845.261C235.866 845.261 235.942 845.257 236.001 845.247C236.061 845.235 236.108 845.226 236.143 845.219L236.314 845.972C236.257 845.993 236.178 846.014 236.076 846.036C235.974 846.059 235.845 846.071 235.689 846.071C235.452 846.071 235.22 846.02 234.993 845.918C234.768 845.817 234.581 845.661 234.432 845.453C234.285 845.245 234.212 844.982 234.212 844.665V839.239ZM239.703 846.114C239.178 846.114 238.724 845.998 238.343 845.766C237.965 845.531 237.672 845.205 237.466 844.786C237.263 844.364 237.161 843.874 237.161 843.315C237.161 842.757 237.263 842.264 237.466 841.838C237.672 841.41 237.959 841.076 238.326 840.837C238.695 840.595 239.126 840.474 239.618 840.474C239.902 840.474 240.183 840.522 240.46 840.616C240.737 840.711 240.989 840.865 241.216 841.078C241.443 841.289 241.625 841.568 241.759 841.916C241.894 842.264 241.962 842.693 241.962 843.202V843.557H237.757V842.832H241.11C241.11 842.525 241.048 842.25 240.925 842.009C240.804 841.767 240.631 841.576 240.407 841.437C240.184 841.297 239.921 841.227 239.618 841.227C239.284 841.227 238.996 841.31 238.752 841.476C238.51 841.639 238.324 841.852 238.194 842.115C238.064 842.378 237.999 842.66 237.999 842.96V843.443C237.999 843.855 238.07 844.204 238.212 844.491C238.356 844.775 238.556 844.991 238.812 845.141C239.068 845.287 239.365 845.361 239.703 845.361C239.924 845.361 240.122 845.33 240.3 845.268C240.48 845.205 240.635 845.11 240.765 844.984C240.895 844.857 240.996 844.698 241.067 844.509L241.877 844.736C241.791 845.01 241.648 845.252 241.447 845.46C241.246 845.666 240.997 845.827 240.701 845.943C240.405 846.057 240.073 846.114 239.703 846.114Z" fill="#D1D6DB"/>
</svg>
