
<svg width="393" height="852" viewBox="0 0 393 852" fill="none" xmlns="http://www.w3.org/2000/svg">
<g clip-path="url(#clip0_48_109)">
<path d="M393 0H0V852H393V0Z" fill="white"/>
<path d="M36.8313 23.9418C37.3924 23.9418 37.9322 24.0359 38.4506 24.2241C38.9727 24.4123 39.4379 24.7124 39.8462 25.1243C40.2582 25.5362 40.5831 26.0831 40.821 26.7649C41.0625 27.4432 41.185 28.2759 41.1886 29.2631C41.1886 30.19 41.0838 31.0174 40.8743 31.7454C40.6683 32.4698 40.3718 33.0859 39.9847 33.5938C39.5977 34.1016 39.1307 34.4886 38.5838 34.755C38.0369 35.0178 37.4261 35.1491 36.7514 35.1491C36.0234 35.1491 35.3807 35.0089 34.8232 34.7283C34.2656 34.4442 33.8164 34.0589 33.4755 33.5724C33.1381 33.0824 32.9339 32.532 32.8629 31.9212H35.1374C35.2262 32.3189 35.4126 32.6278 35.6967 32.848C35.9808 33.0646 36.3324 33.1729 36.7514 33.1729C37.4616 33.1729 38.0014 32.864 38.3707 32.2461C38.7401 31.6246 38.9265 30.7741 38.93 29.6946H38.8555C38.6921 30.0142 38.4719 30.2894 38.195 30.5202C37.918 30.7475 37.6001 30.9233 37.2415 31.0476C36.8864 31.1719 36.5082 31.234 36.1069 31.234C35.4641 31.234 34.8906 31.0831 34.3864 30.7812C33.8821 30.4794 33.4844 30.0639 33.1932 29.5348C32.902 29.0057 32.7564 28.402 32.7564 27.7237C32.7528 26.9922 32.9215 26.3406 33.2624 25.7688C33.6033 25.1971 34.0792 24.7496 34.69 24.4265C35.3043 24.0998 36.0181 23.9382 36.8313 23.9418ZM36.8473 25.7528C36.4886 25.7528 36.169 25.8381 35.8885 26.0085C35.6115 26.179 35.3913 26.408 35.228 26.6957C35.0682 26.9833 34.9901 27.3047 34.9936 27.6598C34.9936 28.0185 35.0717 28.3416 35.228 28.6293C35.3878 28.9134 35.6044 29.1406 35.8778 29.3111C36.1548 29.478 36.4709 29.5614 36.826 29.5614C37.0923 29.5614 37.3391 29.5117 37.5664 29.4123C37.7937 29.3129 37.9908 29.1761 38.1577 29.0021C38.3281 28.8246 38.4613 28.6204 38.5572 28.3896C38.6531 28.1587 38.701 27.9137 38.701 27.6545C38.6974 27.31 38.6158 26.994 38.456 26.7063C38.2962 26.4187 38.076 26.1879 37.7955 26.0138C37.5149 25.8398 37.1989 25.7528 36.8473 25.7528ZM44.1342 33.7322C43.7827 33.7322 43.4808 33.608 43.2287 33.3594C42.9801 33.1108 42.8558 32.8089 42.8558 32.4538C42.8558 32.1058 42.9801 31.8075 43.2287 31.5589C43.4808 31.3104 43.7827 31.1861 44.1342 31.1861C44.4751 31.1861 44.7734 31.3104 45.0291 31.5589C45.2848 31.8075 45.4126 32.1058 45.4126 32.4538C45.4126 32.6882 45.3523 32.9031 45.2315 33.0984C45.1143 33.2901 44.9599 33.4446 44.7681 33.5618C44.5763 33.6754 44.3651 33.7322 44.1342 33.7322ZM44.1342 28.3789C43.7827 28.3789 43.4808 28.2546 43.2287 28.006C42.9801 27.7575 42.8558 27.4556 42.8558 27.1005C42.8558 26.7525 42.9801 26.456 43.2287 26.2109C43.4808 25.9624 43.7827 25.8381 44.1342 25.8381C44.4751 25.8381 44.7734 25.9624 45.0291 26.2109C45.2848 26.456 45.4126 26.7525 45.4126 27.1005C45.4126 27.3384 45.3523 27.555 45.2315 27.7504C45.1143 27.9421 44.9599 28.0948 44.7681 28.2085C44.5763 28.3221 44.3651 28.3789 44.1342 28.3789ZM47.0892 33.0824V31.266L51.6436 24.0909H53.2096V26.6051H52.2828L49.4117 31.1488V31.234H55.8836V33.0824H47.0892ZM52.3254 35V32.5284L52.368 31.7241V24.0909H54.5306V35H52.3254ZM62.02 24.0909V35H59.7135V26.2802H59.6496L57.1514 27.8462V25.8008L59.852 24.0909H62.02Z" fill="#191F28"/>
<path d="M30 76L23 83L30 90" stroke="#191F28" stroke-width="2" stroke-linecap="round" stroke-linejoin="round"/>
<path d="M69.554 63.564H72.326V83.936H69.554V63.564ZM66.892 71.418H70.28V73.772H66.892V71.418ZM65 63.916H67.728V82.99H65V63.916ZM55.694 65.83H58.62V77.6H55.694V65.83ZM55.694 76.478H57.102C58.0847 76.478 59.1407 76.4487 60.27 76.39C61.414 76.3167 62.6167 76.1553 63.878 75.906L64.142 78.414C62.822 78.6487 61.5753 78.8027 60.402 78.876C59.2287 78.9493 58.1287 78.986 57.102 78.986H55.694V76.478ZM93.2341 63.542H96.1821V83.98H93.2341V63.542ZM95.5441 71.088H99.1301V73.508H95.5441V71.088ZM81.0021 76.676H82.7181C83.8767 76.676 84.9621 76.6613 85.9741 76.632C86.9861 76.588 87.9687 76.522 88.9221 76.434C89.8754 76.3313 90.8507 76.192 91.8481 76.016L92.1341 78.436C91.1074 78.612 90.0954 78.7513 89.0981 78.854C88.1154 78.9567 87.1034 79.0227 86.0621 79.052C85.0207 79.0813 83.9061 79.096 82.7181 79.096H81.0021V76.676ZM81.0021 65.434H90.5061V67.788H83.9281V77.82H81.0021V65.434ZM114.44 63.542H117.366V83.98H114.44V63.542ZM106.388 64.972C107.43 64.972 108.354 65.2727 109.16 65.874C109.967 66.4607 110.598 67.304 111.052 68.404C111.522 69.4893 111.756 70.7727 111.756 72.254C111.756 73.75 111.522 75.048 111.052 76.148C110.598 77.2333 109.967 78.0767 109.16 78.678C108.354 79.2647 107.43 79.558 106.388 79.558C105.362 79.558 104.445 79.2647 103.638 78.678C102.832 78.0767 102.194 77.2333 101.724 76.148C101.27 75.048 101.042 73.75 101.042 72.254C101.042 70.7727 101.27 69.4893 101.724 68.404C102.194 67.304 102.832 66.4607 103.638 65.874C104.445 65.2727 105.362 64.972 106.388 64.972ZM106.388 67.634C105.89 67.634 105.45 67.81 105.068 68.162C104.687 68.514 104.386 69.0347 104.166 69.724C103.961 70.3987 103.858 71.242 103.858 72.254C103.858 73.2513 103.961 74.102 104.166 74.806C104.386 75.4953 104.687 76.016 105.068 76.368C105.45 76.72 105.89 76.896 106.388 76.896C106.902 76.896 107.349 76.72 107.73 76.368C108.112 76.016 108.405 75.4953 108.61 74.806C108.83 74.102 108.94 73.2513 108.94 72.254C108.94 71.242 108.83 70.3987 108.61 69.724C108.405 69.0347 108.112 68.514 107.73 68.162C107.349 67.81 106.902 67.634 106.388 67.634ZM126.275 64.972C127.287 64.972 128.189 65.2727 128.981 65.874C129.787 66.4607 130.411 67.304 130.851 68.404C131.305 69.4893 131.533 70.7727 131.533 72.254C131.533 73.75 131.305 75.048 130.851 76.148C130.411 77.2333 129.787 78.0767 128.981 78.678C128.189 79.2647 127.287 79.558 126.275 79.558C125.263 79.558 124.361 79.2647 123.569 78.678C122.777 78.0767 122.153 77.2333 121.699 76.148C121.244 75.048 121.017 73.75 121.017 72.254C121.017 70.7727 121.244 69.4893 121.699 68.404C122.153 67.304 122.777 66.4607 123.569 65.874C124.361 65.2727 125.263 64.972 126.275 64.972ZM126.275 67.634C125.791 67.634 125.358 67.81 124.977 68.162C124.61 68.514 124.324 69.0347 124.119 69.724C123.913 70.3987 123.811 71.242 123.811 72.254C123.811 73.2513 123.913 74.102 124.119 74.806C124.324 75.4953 124.61 76.016 124.977 76.368C125.358 76.72 125.791 76.896 126.275 76.896C126.788 76.896 127.228 76.72 127.595 76.368C127.961 76.016 128.247 75.4953 128.453 74.806C128.658 74.102 128.761 73.2513 128.761 72.254C128.761 71.242 128.658 70.3987 128.453 69.724C128.247 69.0347 127.961 68.514 127.595 68.162C127.228 67.81 126.788 67.634 126.275 67.634ZM134.877 63.542H137.803V83.98H134.877V63.542ZM130.675 70.912H136.109V73.244H130.675V70.912ZM154.961 63.542H157.909V83.98H154.961V63.542ZM142.047 76.852H143.851C145.054 76.852 146.19 76.8373 147.261 76.808C148.332 76.764 149.38 76.698 150.407 76.61C151.434 76.5073 152.482 76.3607 153.553 76.17L153.861 78.524C152.218 78.8173 150.598 79.0153 148.999 79.118C147.415 79.206 145.699 79.25 143.851 79.25H142.047V76.852ZM142.003 65.28H151.617V73.178H145.017V77.754H142.047V70.868H148.647V67.634H142.003V65.28Z" fill="#191F28"/>
<path d="M325 78.9996C325.8 78.9996 326.4 78.3996 326.4 77.5996H323.6C323.6 78.3996 324.2 78.9996 325 78.9996Z" fill="#191F28"/>
<path d="M330 73.9996V70.9996C330 68.6996 328.8 66.7996 326.5 66.2996V65.4996C326.5 64.9996 326.1 64.5996 326 64.5996C325.9 64.5996 325.5 64.9996 325.5 65.4996V66.2996C323.2 66.7996 322 68.6996 322 70.9996V73.9996L320.8 75.1996V75.9996H331.2V75.1996L330 73.9996Z" stroke="#191F28" stroke-width="1.4" stroke-linejoin="round"/>
<path d="M330 69C331.657 69 333 67.6569 333 66C333 64.3431 331.657 63 330 63C328.343 63 327 64.3431 327 66C327 67.6569 328.343 69 330 69Z" fill="#FF6B6B"/>
<path d="M359 78.5C363.142 78.5 366.5 75.1421 366.5 71C366.5 66.8579 363.142 63.5 359 63.5C354.858 63.5 351.5 66.8579 351.5 71C351.5 75.1421 354.858 78.5 359 78.5Z" stroke="#191F28" stroke-width="1.5"/>
<path d="M359 73.5C360.381 73.5 361.5 72.3807 361.5 71C361.5 69.6193 360.381 68.5 359 68.5C357.619 68.5 356.5 69.6193 356.5 71C356.5 72.3807 357.619 73.5 359 73.5Z" stroke="#191F28" stroke-width="1.5"/>
<path d="M359 62V64" stroke="#191F28" stroke-width="1.5" stroke-linecap="round"/>
<path d="M359 78V80" stroke="#191F28" stroke-width="1.5" stroke-linecap="round"/>
<path d="M350 71H352" stroke="#191F28" stroke-width="1.5" stroke-linecap="round"/>
<path d="M366 71H368" stroke="#191F28" stroke-width="1.5" stroke-linecap="round"/>
<path d="M361 110H32C23.1634 110 16 117.163 16 126V186C16 194.837 23.1634 202 32 202H361C369.837 202 377 194.837 377 186V126C377 117.163 369.837 110 361 110Z" fill="white" stroke="#F2F3F5"/>
<path d="M82 124H46C38.268 124 32 130.268 32 138V174C32 181.732 38.268 188 46 188H82C89.732 188 96 181.732 96 174V138C96 130.268 89.732 124 82 124Z" fill="#FFE8E8"/>
<path opacity="0.2" d="M46 168L64 146L82 168H46Z" fill="#FF6B6B"/>
<path opacity="0.3" d="M62 168L74 154L86 168H62Z" fill="#FF6B6B"/>
<path opacity="0.2" d="M76 152C79.3137 152 82 149.314 82 146C82 142.686 79.3137 140 76 140C72.6863 140 70 142.686 70 146C70 149.314 72.6863 152 76 152Z" fill="#FF6B6B"/>
<path d="M121.344 129.592H123.376V144.408H121.344V129.592ZM119.376 135.304H121.84V137.016H119.376V135.304ZM118.032 129.848H120V143.72H118.032V129.848ZM111.072 139.32H112.096C112.715 139.32 113.301 139.315 113.856 139.304C114.411 139.283 114.96 139.245 115.504 139.192C116.059 139.128 116.624 139.048 117.2 138.952L117.376 140.68C116.779 140.787 116.197 140.872 115.632 140.936C115.067 141 114.496 141.043 113.92 141.064C113.344 141.075 112.736 141.08 112.096 141.08H111.072V139.32ZM111.072 131.32H116.528V133.032H113.168V140.168H111.072V131.32ZM125.375 130.888H134.079V132.568H125.375V130.888ZM129.727 133.032C130.441 133.032 131.071 133.149 131.615 133.384C132.169 133.619 132.601 133.939 132.911 134.344C133.22 134.749 133.375 135.229 133.375 135.784C133.375 136.317 133.22 136.792 132.911 137.208C132.601 137.613 132.169 137.933 131.615 138.168C131.071 138.392 130.441 138.504 129.727 138.504C129.023 138.504 128.393 138.392 127.839 138.168C127.284 137.933 126.852 137.613 126.543 137.208C126.233 136.792 126.079 136.317 126.079 135.784C126.079 135.229 126.233 134.749 126.543 134.344C126.852 133.939 127.284 133.619 127.839 133.384C128.393 133.149 129.023 133.032 129.727 133.032ZM129.727 134.648C129.257 134.648 128.873 134.744 128.575 134.936C128.276 135.117 128.127 135.4 128.127 135.784C128.127 136.147 128.276 136.424 128.575 136.616C128.873 136.808 129.257 136.904 129.727 136.904C130.207 136.904 130.591 136.808 130.879 136.616C131.177 136.424 131.327 136.147 131.327 135.784C131.327 135.4 131.177 135.117 130.879 134.936C130.591 134.744 130.207 134.648 129.727 134.648ZM134.895 129.608H137.023V138.888H134.895V129.608ZM136.447 133.416H138.991V135.16H136.447V133.416ZM127.135 139.512H137.023V144.424H134.895V141.192H127.135V139.512ZM128.671 129.512H130.783V131.864H128.671V129.512ZM153.973 129.608H156.101V140.44H153.973V129.608ZM146.229 142.456H156.485V144.168H146.229V142.456ZM146.229 139.496H148.357V143.448H146.229V139.496ZM147.397 132.52H149.141V133.048C149.141 133.933 148.986 134.771 148.677 135.56C148.378 136.349 147.914 137.037 147.285 137.624C146.666 138.2 145.882 138.627 144.933 138.904L143.925 137.24C144.522 137.059 145.039 136.824 145.477 136.536C145.925 136.237 146.287 135.901 146.565 135.528C146.853 135.155 147.061 134.76 147.189 134.344C147.327 133.917 147.397 133.485 147.397 133.048V132.52ZM147.797 132.52H149.525V133.048C149.525 133.453 149.594 133.859 149.733 134.264C149.882 134.659 150.095 135.032 150.373 135.384C150.661 135.736 151.023 136.051 151.461 136.328C151.909 136.605 152.431 136.824 153.029 136.984L152.037 138.648C151.087 138.381 150.298 137.971 149.669 137.416C149.039 136.861 148.57 136.205 148.261 135.448C147.951 134.691 147.797 133.891 147.797 133.048V132.52ZM144.421 131.304H152.517V132.968H144.421V131.304ZM147.397 129.688H149.541V131.992H147.397V129.688ZM160.051 130.456H169.331V132.136H160.051V130.456ZM158.515 136.76H171.923V138.488H158.515V136.76ZM164.067 137.976H166.211V144.424H164.067V137.976ZM168.243 130.456H170.339V131.768C170.339 132.301 170.329 132.867 170.307 133.464C170.297 134.061 170.254 134.717 170.179 135.432C170.105 136.136 169.966 136.925 169.763 137.8L167.683 137.544C167.961 136.317 168.121 135.245 168.163 134.328C168.217 133.4 168.243 132.547 168.243 131.768V130.456ZM173.25 135.336H186.642V137.016H173.25V135.336ZM174.898 132.872H185.058V134.552H174.898V132.872ZM174.898 129.88H184.93V131.56H177.01V134.328H174.898V129.88ZM174.754 137.848H184.994V141.784H176.882V143.048H174.77V140.28H182.898V139.464H174.754V137.848ZM174.77 142.664H185.394V144.296H174.77V142.664Z" fill="#191F28"/>
<path d="M110.699 162.21V161.341L114.534 155.273H115.165V156.619H114.739L111.841 161.205V161.273H117.006V162.21H110.699ZM114.807 164V161.946V161.541V155.273H115.812V164H114.807ZM123.471 155.84H126.603V156.644H123.471V155.84ZM123.471 157.988H126.627V158.804H123.471V157.988ZM126.231 154.076H127.227V160.496H126.231V154.076ZM118.803 154.904H123.747V159.728H118.803V154.904ZM122.775 155.708H119.775V158.924H122.775V155.708ZM123.651 160.82C124.771 160.82 125.651 161 126.291 161.36C126.939 161.72 127.263 162.224 127.263 162.872C127.263 163.52 126.939 164.02 126.291 164.372C125.651 164.732 124.771 164.912 123.651 164.912C122.531 164.912 121.647 164.732 120.999 164.372C120.359 164.02 120.039 163.52 120.039 162.872C120.039 162.224 120.359 161.72 120.999 161.36C121.647 161 122.531 160.82 123.651 160.82ZM123.651 161.6C123.107 161.6 122.639 161.652 122.247 161.756C121.855 161.852 121.551 161.996 121.335 162.188C121.127 162.372 121.023 162.6 121.023 162.872C121.023 163.128 121.127 163.352 121.335 163.544C121.551 163.728 121.855 163.872 122.247 163.976C122.639 164.08 123.107 164.132 123.651 164.132C124.203 164.132 124.671 164.08 125.055 163.976C125.447 163.872 125.747 163.728 125.955 163.544C126.171 163.352 126.279 163.128 126.279 162.872C126.279 162.6 126.171 162.372 125.955 162.188C125.747 161.996 125.447 161.852 125.055 161.756C124.671 161.652 124.203 161.6 123.651 161.6ZM135.425 155.864H136.229V156.332C136.229 156.948 136.101 157.52 135.845 158.048C135.597 158.576 135.245 159.032 134.789 159.416C134.333 159.8 133.801 160.092 133.193 160.292L132.713 159.512C133.249 159.344 133.721 159.104 134.129 158.792C134.537 158.472 134.853 158.1 135.077 157.676C135.309 157.252 135.425 156.804 135.425 156.332V155.864ZM135.593 155.864H136.409V156.332C136.409 156.764 136.517 157.18 136.733 157.58C136.957 157.972 137.269 158.32 137.669 158.624C138.069 158.92 138.533 159.148 139.061 159.308L138.593 160.088C137.993 159.896 137.465 159.616 137.009 159.248C136.561 158.88 136.213 158.448 135.965 157.952C135.717 157.448 135.593 156.908 135.593 156.332V155.864ZM133.013 155.348H138.809V156.152H133.013V155.348ZM135.425 154.028H136.421V155.672H135.425V154.028ZM140.141 154.076H141.137V160.496H140.141V154.076ZM140.861 156.824H142.733V157.652H140.861V156.824ZM134.321 161.012H141.137V164.792H134.321V161.012ZM140.153 161.804H135.293V163.976H140.153V161.804ZM148.636 156.5H151.924V157.316H148.636V156.5ZM148.636 159.932H151.924V160.748H148.636V159.932ZM146.644 154.916C147.172 154.916 147.64 155.072 148.048 155.384C148.456 155.688 148.772 156.124 148.996 156.692C149.228 157.26 149.344 157.928 149.344 158.696C149.344 159.464 149.228 160.132 148.996 160.7C148.772 161.268 148.456 161.708 148.048 162.02C147.64 162.332 147.172 162.488 146.644 162.488C146.124 162.488 145.656 162.332 145.24 162.02C144.832 161.708 144.512 161.268 144.28 160.7C144.056 160.132 143.944 159.464 143.944 158.696C143.944 157.928 144.056 157.26 144.28 156.692C144.512 156.124 144.832 155.688 145.24 155.384C145.656 155.072 146.124 154.916 146.644 154.916ZM146.644 155.804C146.3 155.804 145.996 155.924 145.732 156.164C145.468 156.396 145.26 156.732 145.108 157.172C144.964 157.604 144.892 158.112 144.892 158.696C144.892 159.28 144.964 159.792 145.108 160.232C145.26 160.664 145.468 161 145.732 161.24C145.996 161.48 146.3 161.6 146.644 161.6C146.996 161.6 147.304 161.48 147.568 161.24C147.832 161 148.036 160.664 148.18 160.232C148.332 159.792 148.408 159.28 148.408 158.696C148.408 158.112 148.332 157.604 148.18 157.172C148.036 156.732 147.832 156.396 147.568 156.164C147.304 155.924 146.996 155.804 146.644 155.804ZM151.696 154.076H152.68V164.948H151.696V154.076ZM162.57 159.5H163.554V161.396H162.57V159.5ZM158.166 159.152H167.97V159.968H158.166V159.152ZM163.062 161.096C164.222 161.096 165.13 161.26 165.786 161.588C166.442 161.916 166.77 162.388 166.77 163.004C166.77 163.612 166.442 164.08 165.786 164.408C165.13 164.744 164.222 164.912 163.062 164.912C161.902 164.912 160.99 164.744 160.326 164.408C159.67 164.08 159.342 163.612 159.342 163.004C159.342 162.388 159.67 161.916 160.326 161.588C160.99 161.26 161.902 161.096 163.062 161.096ZM163.062 161.876C162.494 161.876 162.006 161.92 161.598 162.008C161.198 162.096 160.89 162.224 160.674 162.392C160.458 162.56 160.35 162.764 160.35 163.004C160.35 163.244 160.458 163.448 160.674 163.616C160.89 163.784 161.198 163.912 161.598 164C162.006 164.096 162.494 164.144 163.062 164.144C163.63 164.144 164.114 164.096 164.514 164C164.922 163.912 165.234 163.784 165.45 163.616C165.666 163.448 165.774 163.244 165.774 163.004C165.774 162.764 165.666 162.56 165.45 162.392C165.234 162.224 164.922 162.096 164.514 162.008C164.114 161.92 163.63 161.876 163.062 161.876ZM162.426 154.976H163.302V155.3C163.302 155.652 163.226 155.976 163.074 156.272C162.93 156.568 162.726 156.844 162.462 157.1C162.198 157.348 161.886 157.568 161.526 157.76C161.174 157.952 160.79 158.112 160.374 158.24C159.958 158.36 159.522 158.448 159.066 158.504L158.706 157.712C159.098 157.672 159.474 157.604 159.834 157.508C160.202 157.404 160.542 157.28 160.854 157.136C161.174 156.984 161.45 156.812 161.682 156.62C161.914 156.428 162.094 156.22 162.222 155.996C162.358 155.772 162.426 155.54 162.426 155.3V154.976ZM162.834 154.976H163.71V155.3C163.71 155.548 163.774 155.784 163.902 156.008C164.038 156.224 164.222 156.428 164.454 156.62C164.686 156.804 164.958 156.972 165.27 157.124C165.59 157.268 165.93 157.392 166.29 157.496C166.658 157.6 167.038 157.672 167.43 157.712L167.07 158.504C166.614 158.448 166.178 158.36 165.762 158.24C165.346 158.112 164.958 157.952 164.598 157.76C164.246 157.568 163.938 157.348 163.674 157.1C163.41 156.852 163.202 156.576 163.05 156.272C162.906 155.968 162.834 155.644 162.834 155.3V154.976ZM159.066 154.58H167.082V155.384H159.066V154.58Z" fill="#8B95A1"/>
<path d="M361 218H32C23.1634 218 16 225.163 16 234V294C16 302.837 23.1634 310 32 310H361C369.837 310 377 302.837 377 294V234C377 225.163 369.837 218 361 218Z" fill="white" stroke="#F2F3F5"/>
<path d="M82 232H46C38.268 232 32 238.268 32 246V282C32 289.732 38.268 296 46 296H82C89.732 296 96 289.732 96 282V246C96 238.268 89.732 232 82 232Z" fill="#E8F0FF"/>
<path opacity="0.25" d="M64 250L52 262L58 264L60 270L72 258L64 250Z" fill="#60A5FA"/>
<path opacity="0.5" d="M64 250L52 262L58 264L60 270L72 258L64 250Z" stroke="#60A5FA" stroke-width="1.2"/>
<path d="M117.28 240.616H121.312V242.328H117.28V240.616ZM117.28 245.224H121.312V246.936H117.28V245.224ZM114.704 238.616C115.44 238.616 116.096 238.835 116.672 239.272C117.259 239.699 117.712 240.312 118.032 241.112C118.363 241.901 118.528 242.835 118.528 243.912C118.528 245 118.363 245.944 118.032 246.744C117.712 247.533 117.259 248.147 116.672 248.584C116.096 249.011 115.44 249.224 114.704 249.224C113.968 249.224 113.312 249.011 112.736 248.584C112.16 248.147 111.707 247.533 111.376 246.744C111.045 245.944 110.88 245 110.88 243.912C110.88 242.835 111.045 241.901 111.376 241.112C111.707 240.312 112.16 239.699 112.736 239.272C113.312 238.835 113.968 238.616 114.704 238.616ZM114.704 240.552C114.352 240.552 114.037 240.68 113.76 240.936C113.493 241.192 113.28 241.571 113.12 242.072C112.971 242.563 112.896 243.176 112.896 243.912C112.896 244.637 112.971 245.256 113.12 245.768C113.28 246.269 113.493 246.648 113.76 246.904C114.037 247.16 114.352 247.288 114.704 247.288C115.077 247.288 115.397 247.16 115.664 246.904C115.931 246.648 116.139 246.269 116.288 245.768C116.437 245.256 116.512 244.637 116.512 243.912C116.512 243.176 116.437 242.563 116.288 242.072C116.139 241.571 115.931 241.192 115.664 240.936C115.397 240.68 115.077 240.552 114.704 240.552ZM120.96 237.576H123.088V252.44H120.96V237.576ZM135.967 237.608H137.999V246.888H135.967V237.608ZM134.175 241.256H136.527V242.984H134.175V241.256ZM132.911 237.88H134.895V246.392H132.911V237.88ZM125.295 239.112H132.495V240.76H125.295V239.112ZM128.911 241.224C129.54 241.224 130.095 241.336 130.575 241.56C131.055 241.784 131.428 242.088 131.695 242.472C131.972 242.856 132.111 243.304 132.111 243.816C132.111 244.328 131.972 244.781 131.695 245.176C131.428 245.56 131.055 245.864 130.575 246.088C130.095 246.301 129.54 246.408 128.911 246.408C128.303 246.408 127.753 246.301 127.263 246.088C126.783 245.864 126.404 245.56 126.127 245.176C125.849 244.781 125.711 244.328 125.711 243.816C125.711 243.304 125.849 242.856 126.127 242.472C126.404 242.088 126.783 241.784 127.263 241.56C127.753 241.336 128.303 241.224 128.911 241.224ZM128.911 242.76C128.527 242.76 128.212 242.851 127.967 243.032C127.732 243.213 127.615 243.475 127.615 243.816C127.615 244.157 127.732 244.424 127.967 244.616C128.212 244.797 128.527 244.888 128.911 244.888C129.295 244.888 129.609 244.797 129.855 244.616C130.1 244.424 130.223 244.157 130.223 243.816C130.223 243.475 130.1 243.213 129.855 243.032C129.62 242.851 129.305 242.76 128.911 242.76ZM127.855 237.752H129.951V240.248H127.855V237.752ZM132.975 247.032C134.564 247.032 135.812 247.267 136.719 247.736C137.625 248.205 138.079 248.872 138.079 249.736C138.079 250.589 137.625 251.251 136.719 251.72C135.812 252.189 134.564 252.424 132.975 252.424C131.385 252.424 130.137 252.189 129.231 251.72C128.335 251.251 127.887 250.589 127.887 249.736C127.887 248.872 128.335 248.205 129.231 247.736C130.137 247.267 131.385 247.032 132.975 247.032ZM132.991 248.616C131.999 248.616 131.252 248.707 130.751 248.888C130.249 249.069 129.999 249.352 129.999 249.736C129.999 250.109 130.249 250.387 130.751 250.568C131.252 250.749 131.999 250.84 132.991 250.84C133.961 250.84 134.692 250.749 135.183 250.568C135.684 250.387 135.935 250.109 135.935 249.736C135.935 249.352 135.684 249.069 135.183 248.888C134.692 248.707 133.961 248.616 132.991 248.616ZM143.797 248.968H157.221V250.696H143.797V248.968ZM149.429 245.704H151.541V249.384H149.429V245.704ZM145.205 238.696H155.749V245.976H145.205V238.696ZM153.653 240.376H147.301V244.28H153.653V240.376ZM168.691 237.608H170.819V245.992H168.691V237.608ZM160.963 246.648H170.819V252.264H160.963V246.648ZM168.739 248.328H163.059V250.584H168.739V248.328ZM162.755 238.28C163.523 238.28 164.211 238.435 164.819 238.744C165.427 239.043 165.907 239.459 166.259 239.992C166.611 240.525 166.787 241.139 166.787 241.832C166.787 242.525 166.611 243.144 166.259 243.688C165.907 244.221 165.427 244.643 164.819 244.952C164.211 245.251 163.523 245.4 162.755 245.4C161.987 245.4 161.299 245.251 160.691 244.952C160.083 244.643 159.603 244.221 159.251 243.688C158.899 243.144 158.723 242.525 158.723 241.832C158.723 241.139 158.899 240.525 159.251 239.992C159.603 239.459 160.083 239.043 160.691 238.744C161.299 238.435 161.987 238.28 162.755 238.28ZM162.755 240.04C162.393 240.04 162.062 240.115 161.763 240.264C161.465 240.403 161.23 240.605 161.059 240.872C160.889 241.128 160.803 241.448 160.803 241.832C160.803 242.205 160.889 242.531 161.059 242.808C161.23 243.075 161.465 243.277 161.763 243.416C162.062 243.555 162.393 243.624 162.755 243.624C163.129 243.624 163.459 243.555 163.747 243.416C164.046 243.277 164.281 243.075 164.451 242.808C164.622 242.531 164.707 242.205 164.707 241.832C164.707 241.448 164.622 241.128 164.451 240.872C164.281 240.605 164.046 240.403 163.747 240.264C163.459 240.115 163.129 240.04 162.755 240.04Z" fill="#191F28"/>
<path d="M113.801 272.119C113.443 272.114 113.085 272.045 112.727 271.915C112.369 271.784 112.043 271.564 111.747 271.254C111.452 270.942 111.214 270.52 111.036 269.989C110.857 269.455 110.767 268.784 110.767 267.977C110.767 267.205 110.839 266.52 110.984 265.923C111.129 265.324 111.339 264.82 111.615 264.411C111.891 263.999 112.223 263.686 112.612 263.473C113.004 263.26 113.446 263.153 113.938 263.153C114.426 263.153 114.861 263.251 115.241 263.447C115.625 263.641 115.938 263.911 116.179 264.257C116.42 264.604 116.577 265.003 116.648 265.455H115.608C115.511 265.062 115.324 264.737 115.045 264.479C114.767 264.22 114.398 264.091 113.938 264.091C113.261 264.091 112.729 264.385 112.339 264.973C111.953 265.561 111.759 266.386 111.756 267.449H111.824C111.983 267.207 112.172 267.001 112.391 266.831C112.612 266.658 112.857 266.524 113.124 266.43C113.391 266.337 113.673 266.29 113.972 266.29C114.472 266.29 114.929 266.415 115.344 266.665C115.759 266.912 116.091 267.254 116.341 267.692C116.591 268.126 116.716 268.625 116.716 269.188C116.716 269.727 116.595 270.222 116.354 270.67C116.112 271.116 115.773 271.472 115.335 271.736C114.901 271.997 114.389 272.125 113.801 272.119ZM113.801 271.182C114.159 271.182 114.48 271.092 114.764 270.913C115.051 270.734 115.277 270.494 115.442 270.193C115.609 269.892 115.693 269.557 115.693 269.188C115.693 268.827 115.612 268.499 115.45 268.203C115.291 267.905 115.071 267.668 114.79 267.491C114.511 267.315 114.193 267.227 113.835 267.227C113.565 267.227 113.314 267.281 113.081 267.389C112.848 267.494 112.643 267.639 112.467 267.824C112.294 268.009 112.158 268.22 112.058 268.459C111.959 268.695 111.909 268.943 111.909 269.205C111.909 269.551 111.99 269.875 112.152 270.176C112.317 270.477 112.541 270.72 112.825 270.905C113.112 271.089 113.438 271.182 113.801 271.182ZM123.26 263.84H126.392V264.644H123.26V263.84ZM123.26 265.988H126.416V266.804H123.26V265.988ZM126.02 262.076H127.016V268.496H126.02V262.076ZM118.592 262.904H123.536V267.728H118.592V262.904ZM122.564 263.708H119.564V266.924H122.564V263.708ZM123.44 268.82C124.56 268.82 125.44 269 126.08 269.36C126.728 269.72 127.052 270.224 127.052 270.872C127.052 271.52 126.728 272.02 126.08 272.372C125.44 272.732 124.56 272.912 123.44 272.912C122.32 272.912 121.436 272.732 120.788 272.372C120.148 272.02 119.828 271.52 119.828 270.872C119.828 270.224 120.148 269.72 120.788 269.36C121.436 269 122.32 268.82 123.44 268.82ZM123.44 269.6C122.896 269.6 122.428 269.652 122.036 269.756C121.644 269.852 121.34 269.996 121.124 270.188C120.916 270.372 120.812 270.6 120.812 270.872C120.812 271.128 120.916 271.352 121.124 271.544C121.34 271.728 121.644 271.872 122.036 271.976C122.428 272.08 122.896 272.132 123.44 272.132C123.992 272.132 124.46 272.08 124.844 271.976C125.236 271.872 125.536 271.728 125.744 271.544C125.96 271.352 126.068 271.128 126.068 270.872C126.068 270.6 125.96 270.372 125.744 270.188C125.536 269.996 125.236 269.852 124.844 269.756C124.46 269.652 123.992 269.6 123.44 269.6ZM135.214 263.864H136.018V264.332C136.018 264.948 135.89 265.52 135.634 266.048C135.386 266.576 135.034 267.032 134.578 267.416C134.122 267.8 133.59 268.092 132.982 268.292L132.502 267.512C133.038 267.344 133.51 267.104 133.918 266.792C134.326 266.472 134.642 266.1 134.866 265.676C135.098 265.252 135.214 264.804 135.214 264.332V263.864ZM135.382 263.864H136.198V264.332C136.198 264.764 136.306 265.18 136.522 265.58C136.746 265.972 137.058 266.32 137.458 266.624C137.858 266.92 138.322 267.148 138.85 267.308L138.382 268.088C137.782 267.896 137.254 267.616 136.798 267.248C136.35 266.88 136.002 266.448 135.754 265.952C135.506 265.448 135.382 264.908 135.382 264.332V263.864ZM132.802 263.348H138.598V264.152H132.802V263.348ZM135.214 262.028H136.21V263.672H135.214V262.028ZM139.93 262.076H140.926V268.496H139.93V262.076ZM140.65 264.824H142.522V265.652H140.65V264.824ZM134.11 269.012H140.926V272.792H134.11V269.012ZM139.942 269.804H135.082V271.976H139.942V269.804ZM148.425 264.5H151.713V265.316H148.425V264.5ZM148.425 267.932H151.713V268.748H148.425V267.932ZM146.433 262.916C146.961 262.916 147.429 263.072 147.837 263.384C148.245 263.688 148.561 264.124 148.785 264.692C149.017 265.26 149.133 265.928 149.133 266.696C149.133 267.464 149.017 268.132 148.785 268.7C148.561 269.268 148.245 269.708 147.837 270.02C147.429 270.332 146.961 270.488 146.433 270.488C145.913 270.488 145.445 270.332 145.029 270.02C144.621 269.708 144.301 269.268 144.069 268.7C143.845 268.132 143.733 267.464 143.733 266.696C143.733 265.928 143.845 265.26 144.069 264.692C144.301 264.124 144.621 263.688 145.029 263.384C145.445 263.072 145.913 262.916 146.433 262.916ZM146.433 263.804C146.089 263.804 145.785 263.924 145.521 264.164C145.257 264.396 145.049 264.732 144.897 265.172C144.753 265.604 144.681 266.112 144.681 266.696C144.681 267.28 144.753 267.792 144.897 268.232C145.049 268.664 145.257 269 145.521 269.24C145.785 269.48 146.089 269.6 146.433 269.6C146.785 269.6 147.093 269.48 147.357 269.24C147.621 269 147.825 268.664 147.969 268.232C148.121 267.792 148.197 267.28 148.197 266.696C148.197 266.112 148.121 265.604 147.969 265.172C147.825 264.732 147.621 264.396 147.357 264.164C147.093 263.924 146.785 263.804 146.433 263.804ZM151.485 262.076H152.469V272.948H151.485V262.076ZM162.359 267.5H163.343V269.396H162.359V267.5ZM157.955 267.152H167.759V267.968H157.955V267.152ZM162.851 269.096C164.011 269.096 164.919 269.26 165.575 269.588C166.231 269.916 166.559 270.388 166.559 271.004C166.559 271.612 166.231 272.08 165.575 272.408C164.919 272.744 164.011 272.912 162.851 272.912C161.691 272.912 160.779 272.744 160.115 272.408C159.459 272.08 159.131 271.612 159.131 271.004C159.131 270.388 159.459 269.916 160.115 269.588C160.779 269.26 161.691 269.096 162.851 269.096ZM162.851 269.876C162.283 269.876 161.795 269.92 161.387 270.008C160.987 270.096 160.679 270.224 160.463 270.392C160.247 270.56 160.139 270.764 160.139 271.004C160.139 271.244 160.247 271.448 160.463 271.616C160.679 271.784 160.987 271.912 161.387 272C161.795 272.096 162.283 272.144 162.851 272.144C163.419 272.144 163.903 272.096 164.303 272C164.711 271.912 165.023 271.784 165.239 271.616C165.455 271.448 165.563 271.244 165.563 271.004C165.563 270.764 165.455 270.56 165.239 270.392C165.023 270.224 164.711 270.096 164.303 270.008C163.903 269.92 163.419 269.876 162.851 269.876ZM162.215 262.976H163.091V263.3C163.091 263.652 163.015 263.976 162.863 264.272C162.719 264.568 162.515 264.844 162.251 265.1C161.987 265.348 161.675 265.568 161.315 265.76C160.963 265.952 160.579 266.112 160.163 266.24C159.747 266.36 159.311 266.448 158.855 266.504L158.495 265.712C158.887 265.672 159.263 265.604 159.623 265.508C159.991 265.404 160.331 265.28 160.643 265.136C160.963 264.984 161.239 264.812 161.471 264.62C161.703 264.428 161.883 264.22 162.011 263.996C162.147 263.772 162.215 263.54 162.215 263.3V262.976ZM162.623 262.976H163.499V263.3C163.499 263.548 163.563 263.784 163.691 264.008C163.827 264.224 164.011 264.428 164.243 264.62C164.475 264.804 164.747 264.972 165.059 265.124C165.379 265.268 165.719 265.392 166.079 265.496C166.447 265.6 166.827 265.672 167.219 265.712L166.859 266.504C166.403 266.448 165.967 266.36 165.551 266.24C165.135 266.112 164.747 265.952 164.387 265.76C164.035 265.568 163.727 265.348 163.463 265.1C163.199 264.852 162.991 264.576 162.839 264.272C162.695 263.968 162.623 263.644 162.623 263.3V262.976ZM158.855 262.58H166.871V263.384H158.855V262.58Z" fill="#8B95A1"/>
<path d="M324 272C330.627 272 336 266.627 336 260C336 253.373 330.627 248 324 248C317.373 248 312 253.373 312 260C312 266.627 317.373 272 324 272Z" fill="#F7F8FA"/>
<path d="M320 258C320 255.8 321.8 254 324 254C326.2 254 328 255.8 328 258" stroke="#8B95A1" stroke-width="1.3" stroke-linecap="round"/>
<path d="M324 263C324.552 263 325 262.552 325 262C325 261.448 324.552 261 324 261C323.448 261 323 261.448 323 262C323 262.552 323.448 263 324 263Z" fill="#8B95A1"/>
<path d="M321 266H327H321Z" fill="black"/>
<path d="M321 266H327" stroke="#8B95A1" stroke-width="1.3" stroke-linecap="round"/>
<path d="M356 272C362.627 272 368 266.627 368 260C368 253.373 362.627 248 356 248C349.373 248 344 253.373 344 260C344 266.627 349.373 272 356 272Z" fill="#F7F8FA"/>
<path d="M356 264.5C358.485 264.5 360.5 262.485 360.5 260C360.5 257.515 358.485 255.5 356 255.5C353.515 255.5 351.5 257.515 351.5 260C351.5 262.485 353.515 264.5 356 264.5Z" stroke="#8B95A1" stroke-width="1.3"/>
<path d="M356 261.5C356.828 261.5 357.5 260.828 357.5 260C357.5 259.172 356.828 258.5 356 258.5C355.172 258.5 354.5 259.172 354.5 260C354.5 260.828 355.172 261.5 356 261.5Z" fill="#8B95A1"/>
<path d="M361 326H32C23.1634 326 16 333.163 16 342V402C16 410.837 23.1634 418 32 418H361C369.837 418 377 410.837 377 402V342C377 333.163 369.837 326 361 326Z" fill="white" stroke="#F2F3F5"/>
<path d="M82 340H46C38.268 340 32 346.268 32 354V390C32 397.732 38.268 404 46 404H82C89.732 404 96 397.732 96 390V354C96 346.268 89.732 340 82 340Z" fill="#FFF0E8"/>
<path opacity="0.2" d="M66 362H54C51.7909 362 50 363.791 50 366V378C50 380.209 51.7909 382 54 382H66C68.2091 382 70 380.209 70 378V366C70 363.791 68.2091 362 66 362Z" fill="#F59E0B"/>
<path opacity="0.4" d="M70 366H74C76 366 77 367 77 369C77 371 76 372 74 372H70" stroke="#F59E0B" stroke-width="1.2"/>
<path opacity="0.3" d="M56 358C56 356 58 356 58 358C58 360 60 360 60 358" stroke="#F59E0B"/>
<path opacity="0.3" d="M62 358C62 356 64 356 64 358C64 360 66 360 66 358" stroke="#F59E0B"/>
<path d="M114.4 354.616H116.528V357.016H114.4V354.616ZM120.88 345.608H123.008V360.424H120.88V345.608ZM110.976 357.96L110.72 356.232C111.616 356.232 112.592 356.227 113.648 356.216C114.704 356.205 115.787 356.168 116.896 356.104C118.016 356.04 119.093 355.939 120.128 355.8L120.272 357.336C119.195 357.528 118.107 357.672 117.008 357.768C115.92 357.853 114.864 357.907 113.84 357.928C112.816 357.949 111.861 357.96 110.976 357.96ZM111.008 347.24H119.936V348.904H111.008V347.24ZM115.472 349.48C116.197 349.48 116.837 349.597 117.392 349.832C117.947 350.067 118.379 350.392 118.688 350.808C119.008 351.224 119.168 351.709 119.168 352.264C119.168 352.808 119.008 353.293 118.688 353.72C118.379 354.136 117.947 354.461 117.392 354.696C116.837 354.931 116.197 355.048 115.472 355.048C114.747 355.048 114.107 354.931 113.552 354.696C112.997 354.461 112.56 354.136 112.24 353.72C111.931 353.293 111.776 352.808 111.776 352.264C111.776 351.709 111.931 351.224 112.24 350.808C112.56 350.392 112.997 350.067 113.552 349.832C114.107 349.597 114.747 349.48 115.472 349.48ZM115.472 351.08C114.981 351.08 114.581 351.187 114.272 351.4C113.963 351.603 113.808 351.891 113.808 352.264C113.808 352.648 113.963 352.941 114.272 353.144C114.581 353.347 114.981 353.448 115.472 353.448C115.963 353.448 116.363 353.347 116.672 353.144C116.981 352.941 117.136 352.648 117.136 352.264C117.136 351.891 116.981 351.603 116.672 351.4C116.363 351.187 115.963 351.08 115.472 351.08ZM114.4 345.656H116.544V348.2H114.4V345.656ZM128.703 346.744H130.415V348.888C130.415 349.805 130.335 350.701 130.175 351.576C130.015 352.44 129.764 353.245 129.423 353.992C129.092 354.739 128.671 355.405 128.159 355.992C127.647 356.568 127.044 357.027 126.351 357.368L125.071 355.656C125.7 355.368 126.239 354.984 126.687 354.504C127.145 354.024 127.524 353.48 127.823 352.872C128.121 352.264 128.34 351.624 128.479 350.952C128.628 350.269 128.703 349.581 128.703 348.888V346.744ZM129.119 346.744H130.831V348.888C130.831 349.56 130.895 350.221 131.023 350.872C131.161 351.523 131.369 352.141 131.647 352.728C131.935 353.304 132.292 353.821 132.719 354.28C133.145 354.739 133.657 355.117 134.255 355.416L132.959 357.112C132.297 356.771 131.721 356.323 131.231 355.768C130.751 355.203 130.356 354.557 130.047 353.832C129.737 353.096 129.503 352.312 129.343 351.48C129.193 350.637 129.119 349.773 129.119 348.888V346.744ZM134.831 345.608H136.975V360.424H134.831V345.608ZM136.511 351.304H139.119V353.064H136.511V351.304ZM143.813 352.568H157.205V354.248H143.813V352.568ZM149.445 350.344H151.573V353.224H149.445V350.344ZM145.429 349.672H155.685V351.336H145.429V349.672ZM145.429 346.232H155.605V347.912H147.541V350.728H145.429V346.232ZM150.453 354.984C152.053 354.984 153.311 355.224 154.229 355.704C155.146 356.173 155.605 356.845 155.605 357.72C155.605 358.584 155.146 359.251 154.229 359.72C153.311 360.2 152.053 360.44 150.453 360.44C148.853 360.44 147.594 360.2 146.677 359.72C145.77 359.251 145.317 358.584 145.317 357.72C145.317 356.845 145.77 356.173 146.677 355.704C147.594 355.224 148.853 354.984 150.453 354.984ZM150.453 356.6C149.791 356.6 149.237 356.643 148.789 356.728C148.351 356.803 148.021 356.925 147.797 357.096C147.573 357.256 147.461 357.459 147.461 357.704C147.461 357.96 147.573 358.173 147.797 358.344C148.021 358.504 148.351 358.627 148.789 358.712C149.237 358.787 149.791 358.824 150.453 358.824C151.114 358.824 151.663 358.787 152.101 358.712C152.549 358.627 152.885 358.504 153.109 358.344C153.333 358.173 153.445 357.96 153.445 357.704C153.445 357.459 153.333 357.256 153.109 357.096C152.885 356.925 152.549 356.803 152.101 356.728C151.663 356.643 151.114 356.6 150.453 356.6ZM168.723 345.592H170.851V360.408H168.723V345.592ZM164.355 347.128H166.451C166.451 348.259 166.339 349.341 166.115 350.376C165.902 351.4 165.539 352.365 165.027 353.272C164.526 354.179 163.833 355.021 162.947 355.8C162.073 356.568 160.979 357.272 159.667 357.912L158.547 356.232C159.977 355.539 161.113 354.776 161.955 353.944C162.809 353.101 163.422 352.152 163.795 351.096C164.169 350.029 164.355 348.835 164.355 347.512V347.128ZM159.347 347.128H165.347V348.824H159.347V347.128Z" fill="#191F28"/>
<path d="M110.903 380V379.233L113.784 376.08C114.122 375.71 114.401 375.389 114.619 375.116C114.838 374.841 115 374.582 115.105 374.341C115.213 374.097 115.267 373.841 115.267 373.574C115.267 373.267 115.193 373.001 115.045 372.777C114.901 372.553 114.702 372.379 114.449 372.257C114.196 372.135 113.912 372.074 113.597 372.074C113.261 372.074 112.969 372.143 112.719 372.283C112.472 372.419 112.28 372.611 112.143 372.858C112.01 373.105 111.943 373.395 111.943 373.727H110.938C110.938 373.216 111.055 372.767 111.291 372.381C111.527 371.994 111.848 371.693 112.254 371.477C112.663 371.261 113.122 371.153 113.631 371.153C114.142 371.153 114.595 371.261 114.99 371.477C115.385 371.693 115.695 371.984 115.919 372.351C116.143 372.717 116.256 373.125 116.256 373.574C116.256 373.895 116.197 374.209 116.081 374.516C115.967 374.82 115.768 375.159 115.484 375.534C115.203 375.906 114.812 376.361 114.312 376.898L112.352 378.994V379.062H116.409V380H110.903ZM123.038 371.84H126.17V372.644H123.038V371.84ZM123.038 373.988H126.194V374.804H123.038V373.988ZM125.798 370.076H126.794V376.496H125.798V370.076ZM118.37 370.904H123.314V375.728H118.37V370.904ZM122.342 371.708H119.342V374.924H122.342V371.708ZM123.218 376.82C124.338 376.82 125.218 377 125.858 377.36C126.506 377.72 126.83 378.224 126.83 378.872C126.83 379.52 126.506 380.02 125.858 380.372C125.218 380.732 124.338 380.912 123.218 380.912C122.098 380.912 121.214 380.732 120.566 380.372C119.926 380.02 119.606 379.52 119.606 378.872C119.606 378.224 119.926 377.72 120.566 377.36C121.214 377 122.098 376.82 123.218 376.82ZM123.218 377.6C122.674 377.6 122.206 377.652 121.814 377.756C121.422 377.852 121.118 377.996 120.902 378.188C120.694 378.372 120.59 378.6 120.59 378.872C120.59 379.128 120.694 379.352 120.902 379.544C121.118 379.728 121.422 379.872 121.814 379.976C122.206 380.08 122.674 380.132 123.218 380.132C123.77 380.132 124.238 380.08 124.622 379.976C125.014 379.872 125.314 379.728 125.522 379.544C125.738 379.352 125.846 379.128 125.846 378.872C125.846 378.6 125.738 378.372 125.522 378.188C125.314 377.996 125.014 377.852 124.622 377.756C124.238 377.652 123.77 377.6 123.218 377.6ZM134.992 371.864H135.796V372.332C135.796 372.948 135.668 373.52 135.412 374.048C135.164 374.576 134.812 375.032 134.356 375.416C133.9 375.8 133.368 376.092 132.76 376.292L132.28 375.512C132.816 375.344 133.288 375.104 133.696 374.792C134.104 374.472 134.42 374.1 134.644 373.676C134.876 373.252 134.992 372.804 134.992 372.332V371.864ZM135.16 371.864H135.976V372.332C135.976 372.764 136.084 373.18 136.3 373.58C136.524 373.972 136.836 374.32 137.236 374.624C137.636 374.92 138.1 375.148 138.628 375.308L138.16 376.088C137.56 375.896 137.032 375.616 136.576 375.248C136.128 374.88 135.78 374.448 135.532 373.952C135.284 373.448 135.16 372.908 135.16 372.332V371.864ZM132.58 371.348H138.376V372.152H132.58V371.348ZM134.992 370.028H135.988V371.672H134.992V370.028ZM139.708 370.076H140.704V376.496H139.708V370.076ZM140.428 372.824H142.3V373.652H140.428V372.824ZM133.888 377.012H140.704V380.792H133.888V377.012ZM139.72 377.804H134.86V379.976H139.72V377.804ZM148.203 372.5H151.491V373.316H148.203V372.5ZM148.203 375.932H151.491V376.748H148.203V375.932ZM146.211 370.916C146.739 370.916 147.207 371.072 147.615 371.384C148.023 371.688 148.339 372.124 148.563 372.692C148.795 373.26 148.911 373.928 148.911 374.696C148.911 375.464 148.795 376.132 148.563 376.7C148.339 377.268 148.023 377.708 147.615 378.02C147.207 378.332 146.739 378.488 146.211 378.488C145.691 378.488 145.223 378.332 144.807 378.02C144.399 377.708 144.079 377.268 143.847 376.7C143.623 376.132 143.511 375.464 143.511 374.696C143.511 373.928 143.623 373.26 143.847 372.692C144.079 372.124 144.399 371.688 144.807 371.384C145.223 371.072 145.691 370.916 146.211 370.916ZM146.211 371.804C145.867 371.804 145.563 371.924 145.299 372.164C145.035 372.396 144.827 372.732 144.675 373.172C144.531 373.604 144.459 374.112 144.459 374.696C144.459 375.28 144.531 375.792 144.675 376.232C144.827 376.664 145.035 377 145.299 377.24C145.563 377.48 145.867 377.6 146.211 377.6C146.563 377.6 146.871 377.48 147.135 377.24C147.399 377 147.603 376.664 147.747 376.232C147.899 375.792 147.975 375.28 147.975 374.696C147.975 374.112 147.899 373.604 147.747 373.172C147.603 372.732 147.399 372.396 147.135 372.164C146.871 371.924 146.563 371.804 146.211 371.804ZM151.263 370.076H152.247V380.948H151.263V370.076ZM162.137 375.5H163.121V377.396H162.137V375.5ZM157.733 375.152H167.537V375.968H157.733V375.152ZM162.629 377.096C163.789 377.096 164.697 377.26 165.353 377.588C166.009 377.916 166.337 378.388 166.337 379.004C166.337 379.612 166.009 380.08 165.353 380.408C164.697 380.744 163.789 380.912 162.629 380.912C161.469 380.912 160.557 380.744 159.893 380.408C159.237 380.08 158.909 379.612 158.909 379.004C158.909 378.388 159.237 377.916 159.893 377.588C160.557 377.26 161.469 377.096 162.629 377.096ZM162.629 377.876C162.061 377.876 161.573 377.92 161.165 378.008C160.765 378.096 160.457 378.224 160.241 378.392C160.025 378.56 159.917 378.764 159.917 379.004C159.917 379.244 160.025 379.448 160.241 379.616C160.457 379.784 160.765 379.912 161.165 380C161.573 380.096 162.061 380.144 162.629 380.144C163.197 380.144 163.681 380.096 164.081 380C164.489 379.912 164.801 379.784 165.017 379.616C165.233 379.448 165.341 379.244 165.341 379.004C165.341 378.764 165.233 378.56 165.017 378.392C164.801 378.224 164.489 378.096 164.081 378.008C163.681 377.92 163.197 377.876 162.629 377.876ZM161.993 370.976H162.869V371.3C162.869 371.652 162.793 371.976 162.641 372.272C162.497 372.568 162.293 372.844 162.029 373.1C161.765 373.348 161.453 373.568 161.093 373.76C160.741 373.952 160.357 374.112 159.941 374.24C159.525 374.36 159.089 374.448 158.633 374.504L158.273 373.712C158.665 373.672 159.041 373.604 159.401 373.508C159.769 373.404 160.109 373.28 160.421 373.136C160.741 372.984 161.017 372.812 161.249 372.62C161.481 372.428 161.661 372.22 161.789 371.996C161.925 371.772 161.993 371.54 161.993 371.3V370.976ZM162.401 370.976H163.277V371.3C163.277 371.548 163.341 371.784 163.469 372.008C163.605 372.224 163.789 372.428 164.021 372.62C164.253 372.804 164.525 372.972 164.837 373.124C165.157 373.268 165.497 373.392 165.857 373.496C166.225 373.6 166.605 373.672 166.997 373.712L166.637 374.504C166.181 374.448 165.745 374.36 165.329 374.24C164.913 374.112 164.525 373.952 164.165 373.76C163.813 373.568 163.505 373.348 163.241 373.1C162.977 372.852 162.769 372.576 162.617 372.272C162.473 371.968 162.401 371.644 162.401 371.3V370.976ZM158.633 370.58H166.649V371.384H158.633V370.58Z" fill="#8B95A1"/>
<path d="M324 380C330.627 380 336 374.627 336 368C336 361.373 330.627 356 324 356C317.373 356 312 361.373 312 368C312 374.627 317.373 380 324 380Z" fill="#F7F8FA"/>
<path d="M320 366C320 363.8 321.8 362 324 362C326.2 362 328 363.8 328 366" stroke="#8B95A1" stroke-width="1.3" stroke-linecap="round"/>
<path d="M324 371C324.552 371 325 370.552 325 370C325 369.448 324.552 369 324 369C323.448 369 323 369.448 323 370C323 370.552 323.448 371 324 371Z" fill="#8B95A1"/>
<path d="M321 374H327H321Z" fill="black"/>
<path d="M321 374H327" stroke="#8B95A1" stroke-width="1.3" stroke-linecap="round"/>
<path d="M356 380C362.627 380 368 374.627 368 368C368 361.373 362.627 356 356 356C349.373 356 344 361.373 344 368C344 374.627 349.373 380 356 380Z" fill="#F7F8FA"/>
<path d="M356 372.5C358.485 372.5 360.5 370.485 360.5 368C360.5 365.515 358.485 363.5 356 363.5C353.515 363.5 351.5 365.515 351.5 368C351.5 370.485 353.515 372.5 356 372.5Z" stroke="#8B95A1" stroke-width="1.3"/>
<path d="M356 369.5C356.828 369.5 357.5 368.828 357.5 368C357.5 367.172 356.828 366.5 356 366.5C355.172 366.5 354.5 367.172 354.5 368C354.5 368.828 355.172 369.5 356 369.5Z" fill="#8B95A1"/>
<path d="M148 468C153.523 468 158 463.523 158 458C158 452.477 153.523 448 148 448C142.477 448 138 452.477 138 458C138 463.523 142.477 468 148 468Z" stroke="#FF6B6B" stroke-width="1.2"/>
<path d="M148 453V463" stroke="#FF6B6B" stroke-width="1.5" stroke-linecap="round"/>
<path d="M143 458H153" stroke="#FF6B6B" stroke-width="1.5" stroke-linecap="round"/>
<path d="M169.36 452.612H170.27V455.034C170.27 455.697 170.2 456.345 170.06 456.98C169.92 457.605 169.724 458.198 169.472 458.758C169.22 459.318 168.907 459.822 168.534 460.27C168.17 460.709 167.759 461.068 167.302 461.348L166.56 460.494C166.999 460.233 167.386 459.906 167.722 459.514C168.067 459.122 168.361 458.683 168.604 458.198C168.856 457.703 169.043 457.19 169.164 456.658C169.295 456.117 169.36 455.575 169.36 455.034V452.612ZM169.556 452.612H170.48V454.964C170.48 455.487 170.536 456.005 170.648 456.518C170.769 457.031 170.942 457.517 171.166 457.974C171.399 458.431 171.679 458.847 172.006 459.22C172.333 459.593 172.706 459.892 173.126 460.116L172.426 461.026C171.969 460.765 171.558 460.424 171.194 460.004C170.839 459.575 170.541 459.089 170.298 458.548C170.055 458.007 169.869 457.433 169.738 456.826C169.617 456.219 169.556 455.599 169.556 454.964V452.612ZM176.346 451.422H177.466V464.092H176.346V451.422ZM174.33 456.518H176.766V457.47H174.33V456.518ZM173.56 451.688H174.666V463.448H173.56V451.688ZM192.084 451.422H193.246V464.106H192.084V451.422ZM192.98 456.42H195.318V457.386H192.98V456.42ZM184.062 459.962H185.056C185.831 459.962 186.54 459.953 187.184 459.934C187.838 459.906 188.463 459.859 189.06 459.794C189.667 459.729 190.283 459.64 190.908 459.528L191.048 460.522C190.395 460.634 189.76 460.723 189.144 460.788C188.538 460.853 187.903 460.895 187.24 460.914C186.578 460.933 185.85 460.942 185.056 460.942H184.062V459.962ZM184.062 452.654H189.928V453.606H185.21V460.41H184.062V452.654ZM205.593 451.422H206.755V464.106H205.593V451.422ZM200.077 452.402C200.703 452.402 201.253 452.584 201.729 452.948C202.215 453.303 202.593 453.811 202.863 454.474C203.143 455.137 203.283 455.916 203.283 456.812C203.283 457.708 203.143 458.487 202.863 459.15C202.593 459.813 202.215 460.326 201.729 460.69C201.253 461.054 200.703 461.236 200.077 461.236C199.452 461.236 198.897 461.054 198.411 460.69C197.926 460.326 197.543 459.813 197.263 459.15C196.993 458.487 196.857 457.708 196.857 456.812C196.857 455.916 196.993 455.137 197.263 454.474C197.543 453.811 197.926 453.303 198.411 452.948C198.897 452.584 199.452 452.402 200.077 452.402ZM200.077 453.438C199.657 453.438 199.289 453.578 198.971 453.858C198.663 454.129 198.421 454.521 198.243 455.034C198.066 455.538 197.977 456.131 197.977 456.812C197.977 457.493 198.066 458.091 198.243 458.604C198.421 459.108 198.663 459.5 198.971 459.78C199.289 460.06 199.657 460.2 200.077 460.2C200.488 460.2 200.847 460.06 201.155 459.78C201.473 459.5 201.72 459.108 201.897 458.604C202.075 458.091 202.163 457.493 202.163 456.812C202.163 456.131 202.075 455.538 201.897 455.034C201.72 454.521 201.473 454.129 201.155 453.858C200.847 453.578 200.488 453.438 200.077 453.438ZM212.648 452.402C213.264 452.402 213.81 452.584 214.286 452.948C214.762 453.303 215.131 453.811 215.392 454.474C215.663 455.137 215.798 455.916 215.798 456.812C215.798 457.708 215.663 458.487 215.392 459.15C215.131 459.813 214.762 460.326 214.286 460.69C213.81 461.054 213.264 461.236 212.648 461.236C212.042 461.236 211.496 461.054 211.01 460.69C210.534 460.326 210.161 459.813 209.89 459.15C209.629 458.487 209.498 457.708 209.498 456.812C209.498 455.916 209.629 455.137 209.89 454.474C210.161 453.811 210.534 453.303 211.01 452.948C211.496 452.584 212.042 452.402 212.648 452.402ZM212.648 453.438C212.247 453.438 211.892 453.578 211.584 453.858C211.276 454.129 211.034 454.521 210.856 455.034C210.688 455.538 210.604 456.131 210.604 456.812C210.604 457.493 210.688 458.091 210.856 458.604C211.034 459.108 211.276 459.5 211.584 459.78C211.892 460.06 212.247 460.2 212.648 460.2C213.059 460.2 213.418 460.06 213.726 459.78C214.034 459.5 214.272 459.108 214.44 458.604C214.618 458.091 214.706 457.493 214.706 456.812C214.706 456.131 214.618 455.538 214.44 455.034C214.272 454.521 214.034 454.129 213.726 453.858C213.418 453.578 213.059 453.438 212.648 453.438ZM218.542 451.422H219.69V464.106H218.542V451.422ZM215.42 456.252H219.06V457.19H215.42V456.252ZM231.379 451.422H232.527V464.106H231.379V451.422ZM222.881 460.074H223.931C224.65 460.074 225.34 460.065 226.003 460.046C226.675 460.018 227.352 459.971 228.033 459.906C228.724 459.841 229.442 459.747 230.189 459.626L230.301 460.578C229.162 460.765 228.089 460.891 227.081 460.956C226.073 461.012 225.023 461.04 223.931 461.04H222.881V460.074ZM222.853 452.598H228.705V457.12H224.057V460.438H222.881V456.182H227.529V453.55H222.853V452.598ZM244.108 459.472H245.256V464.106H244.108V459.472ZM238.97 459.08H250.408V460.046H238.97V459.08ZM244.108 453.606H245.13V453.928C245.13 454.357 245.041 454.768 244.864 455.16C244.686 455.543 244.439 455.897 244.122 456.224C243.804 456.551 243.431 456.845 243.002 457.106C242.582 457.358 242.124 457.573 241.63 457.75C241.144 457.918 240.636 458.039 240.104 458.114L239.684 457.19C240.141 457.125 240.584 457.022 241.014 456.882C241.452 456.742 241.854 456.569 242.218 456.364C242.591 456.159 242.918 455.93 243.198 455.678C243.487 455.417 243.711 455.141 243.87 454.852C244.028 454.553 244.108 454.245 244.108 453.928V453.606ZM244.248 453.606H245.27V453.928C245.27 454.236 245.349 454.539 245.508 454.838C245.666 455.127 245.886 455.403 246.166 455.664C246.446 455.916 246.768 456.149 247.132 456.364C247.505 456.569 247.906 456.742 248.336 456.882C248.774 457.022 249.222 457.125 249.68 457.19L249.26 458.114C248.728 458.039 248.214 457.918 247.72 457.75C247.234 457.573 246.777 457.358 246.348 457.106C245.928 456.845 245.559 456.551 245.242 456.224C244.934 455.897 244.691 455.543 244.514 455.16C244.336 454.768 244.248 454.357 244.248 453.928V453.606ZM240.076 452.99H249.302V453.928H240.076V452.99ZM244.108 451.422H245.256V453.312H244.108V451.422ZM260.416 451.422H261.578V464.078H260.416V451.422ZM261.27 456.56H263.594V457.526H261.27V456.56ZM257.182 452.78H258.316C258.316 453.984 258.12 455.137 257.728 456.238C257.336 457.33 256.72 458.343 255.88 459.276C255.04 460.2 253.934 461.003 252.562 461.684L251.918 460.788C253.094 460.2 254.07 459.514 254.844 458.73C255.628 457.937 256.212 457.059 256.594 456.098C256.986 455.127 257.182 454.082 257.182 452.962V452.78ZM252.506 452.78H257.77V453.746H252.506V452.78Z" fill="#FF6B6B"/>
<path d="M159.159 840.545C159.116 840.186 158.943 839.906 158.64 839.707C158.337 839.509 157.966 839.409 157.525 839.409C157.203 839.409 156.922 839.461 156.68 839.565C156.441 839.67 156.254 839.813 156.119 839.995C155.986 840.177 155.92 840.384 155.92 840.616C155.92 840.811 155.966 840.978 156.059 841.117C156.153 841.254 156.274 841.369 156.421 841.462C156.568 841.552 156.721 841.626 156.882 841.685C157.043 841.742 157.191 841.788 157.326 841.824L158.065 842.023C158.254 842.072 158.465 842.141 158.697 842.229C158.931 842.316 159.155 842.436 159.368 842.587C159.584 842.737 159.761 842.928 159.901 843.163C160.041 843.397 160.11 843.685 160.11 844.026C160.11 844.419 160.007 844.774 159.801 845.091C159.598 845.408 159.3 845.66 158.907 845.847C158.516 846.034 158.041 846.128 157.483 846.128C156.962 846.128 156.511 846.044 156.13 845.876C155.751 845.708 155.453 845.473 155.235 845.173C155.019 844.872 154.897 844.523 154.869 844.125H155.778C155.802 844.4 155.894 844.627 156.055 844.807C156.218 844.984 156.424 845.117 156.673 845.205C156.924 845.29 157.194 845.332 157.483 845.332C157.819 845.332 158.121 845.278 158.388 845.169C158.656 845.058 158.868 844.904 159.024 844.707C159.18 844.509 159.258 844.277 159.258 844.011C159.258 843.77 159.191 843.573 159.056 843.422C158.921 843.27 158.743 843.147 158.523 843.053C158.303 842.958 158.065 842.875 157.809 842.804L156.914 842.548C156.346 842.385 155.896 842.152 155.565 841.849C155.234 841.546 155.068 841.149 155.068 840.659C155.068 840.252 155.178 839.897 155.398 839.594C155.621 839.288 155.919 839.052 156.293 838.884C156.669 838.713 157.09 838.628 157.554 838.628C158.022 838.628 158.439 838.712 158.804 838.88C159.168 839.046 159.457 839.273 159.67 839.562C159.886 839.851 159.999 840.179 160.011 840.545H159.159ZM163.888 846.099C163.419 846.099 163.001 846.019 162.634 845.858C162.27 845.697 161.98 845.473 161.764 845.187C161.551 844.898 161.435 844.563 161.416 844.182H162.311C162.33 844.416 162.411 844.619 162.553 844.789C162.695 844.957 162.881 845.087 163.11 845.18C163.34 845.272 163.594 845.318 163.874 845.318C164.186 845.318 164.463 845.264 164.705 845.155C164.946 845.046 165.136 844.894 165.273 844.7C165.41 844.506 165.479 844.281 165.479 844.026C165.479 843.758 165.413 843.522 165.28 843.319C165.147 843.113 164.953 842.952 164.698 842.836C164.442 842.72 164.129 842.662 163.76 842.662H163.178V841.881H163.76C164.049 841.881 164.302 841.829 164.52 841.724C164.74 841.62 164.912 841.473 165.035 841.284C165.16 841.095 165.223 840.872 165.223 840.616C165.223 840.37 165.169 840.156 165.06 839.974C164.951 839.791 164.797 839.649 164.598 839.548C164.402 839.446 164.17 839.395 163.902 839.395C163.651 839.395 163.414 839.441 163.192 839.533C162.972 839.623 162.792 839.755 162.652 839.928C162.512 840.098 162.437 840.304 162.425 840.545H161.573C161.587 840.164 161.702 839.83 161.917 839.544C162.133 839.255 162.414 839.03 162.762 838.869C163.113 838.708 163.497 838.628 163.916 838.628C164.366 838.628 164.752 838.719 165.074 838.901C165.396 839.081 165.643 839.319 165.816 839.615C165.989 839.911 166.075 840.231 166.075 840.574C166.075 840.983 165.968 841.333 165.752 841.621C165.539 841.91 165.249 842.11 164.882 842.222V842.278C165.342 842.354 165.7 842.549 165.958 842.864C166.216 843.177 166.345 843.564 166.345 844.026C166.345 844.421 166.238 844.776 166.022 845.091C165.809 845.403 165.518 845.65 165.149 845.83C164.779 846.009 164.359 846.099 163.888 846.099ZM167.926 846V838.727H170.468C170.975 838.727 171.393 838.815 171.722 838.99C172.051 839.163 172.296 839.396 172.457 839.69C172.618 839.981 172.698 840.304 172.698 840.659C172.698 840.972 172.643 841.23 172.531 841.433C172.423 841.637 172.278 841.798 172.098 841.916C171.921 842.035 171.728 842.122 171.519 842.179V842.25C171.742 842.264 171.966 842.342 172.191 842.484C172.415 842.626 172.604 842.83 172.755 843.095C172.907 843.36 172.982 843.685 172.982 844.068C172.982 844.433 172.9 844.761 172.734 845.052C172.568 845.343 172.307 845.574 171.949 845.744C171.592 845.915 171.126 846 170.553 846H167.926ZM168.806 845.219H170.553C171.129 845.219 171.537 845.107 171.779 844.885C172.022 844.66 172.144 844.388 172.144 844.068C172.144 843.822 172.082 843.595 171.956 843.386C171.831 843.176 171.652 843.008 171.42 842.882C171.188 842.754 170.913 842.69 170.596 842.69H168.806V845.219ZM168.806 841.923H170.44C170.705 841.923 170.944 841.871 171.157 841.767C171.373 841.663 171.543 841.516 171.669 841.327C171.796 841.137 171.86 840.915 171.86 840.659C171.86 840.339 171.749 840.068 171.526 839.846C171.304 839.621 170.951 839.509 170.468 839.509H168.806V841.923ZM186.361 841.973V842.754H176.361V841.973H186.361ZM195.026 841C194.948 840.761 194.845 840.547 194.717 840.357C194.592 840.165 194.441 840.002 194.266 839.867C194.093 839.732 193.897 839.629 193.677 839.558C193.456 839.487 193.215 839.452 192.952 839.452C192.521 839.452 192.13 839.563 191.777 839.786C191.424 840.008 191.144 840.336 190.935 840.769C190.727 841.202 190.623 841.734 190.623 842.364C190.623 842.993 190.728 843.525 190.939 843.958C191.149 844.391 191.435 844.719 191.795 844.942C192.154 845.164 192.559 845.276 193.009 845.276C193.426 845.276 193.793 845.187 194.11 845.009C194.43 844.829 194.678 844.576 194.856 844.249C195.036 843.92 195.126 843.533 195.126 843.088L195.395 843.145H193.208V842.364H195.978V843.145C195.978 843.744 195.85 844.265 195.594 844.707C195.341 845.15 194.991 845.493 194.543 845.737C194.098 845.979 193.587 846.099 193.009 846.099C192.365 846.099 191.799 845.948 191.312 845.645C190.826 845.342 190.448 844.911 190.175 844.352C189.905 843.794 189.77 843.131 189.77 842.364C189.77 841.788 189.847 841.271 190.001 840.812C190.157 840.35 190.378 839.957 190.662 839.633C190.946 839.308 191.282 839.06 191.67 838.887C192.059 838.714 192.486 838.628 192.952 838.628C193.336 838.628 193.693 838.686 194.025 838.802C194.358 838.915 194.656 839.078 194.916 839.288C195.179 839.497 195.398 839.746 195.573 840.038C195.748 840.326 195.869 840.647 195.935 841H195.026ZM197.373 846V840.545H198.182V841.369H198.239C198.338 841.099 198.518 840.88 198.779 840.712C199.039 840.544 199.333 840.46 199.659 840.46C199.721 840.46 199.798 840.461 199.89 840.464C199.983 840.466 200.052 840.47 200.1 840.474V841.327C200.071 841.32 200.006 841.309 199.904 841.295C199.805 841.278 199.7 841.27 199.588 841.27C199.323 841.27 199.087 841.326 198.878 841.437C198.672 841.546 198.509 841.697 198.388 841.891C198.27 842.083 198.211 842.302 198.211 842.548V846H197.373ZM203.143 846.114C202.651 846.114 202.219 845.996 201.847 845.762C201.478 845.528 201.189 845.2 200.98 844.778C200.775 844.357 200.672 843.865 200.672 843.301C200.672 842.733 200.775 842.237 200.98 841.813C201.189 841.389 201.478 841.06 201.847 840.826C202.219 840.592 202.651 840.474 203.143 840.474C203.636 840.474 204.066 840.592 204.436 840.826C204.807 841.06 205.096 841.389 205.302 841.813C205.511 842.237 205.615 842.733 205.615 843.301C205.615 843.865 205.511 844.357 205.302 844.778C205.096 845.2 204.807 845.528 204.436 845.762C204.066 845.996 203.636 846.114 203.143 846.114ZM203.143 845.361C203.517 845.361 203.825 845.265 204.066 845.073C204.308 844.881 204.487 844.629 204.603 844.317C204.719 844.004 204.777 843.666 204.777 843.301C204.777 842.937 204.719 842.597 204.603 842.282C204.487 841.967 204.308 841.713 204.066 841.518C203.825 841.324 203.517 841.227 203.143 841.227C202.769 841.227 202.461 841.324 202.22 841.518C201.978 841.713 201.8 841.967 201.684 842.282C201.568 842.597 201.51 842.937 201.51 843.301C201.51 843.666 201.568 844.004 201.684 844.317C201.8 844.629 201.978 844.881 202.22 845.073C202.461 845.265 202.769 845.361 203.143 845.361ZM210.331 843.77V840.545H211.17V846H210.331V845.077H210.275C210.147 845.354 209.948 845.589 209.678 845.783C209.408 845.975 209.067 846.071 208.655 846.071C208.314 846.071 208.011 845.996 207.746 845.847C207.481 845.696 207.273 845.469 207.121 845.165C206.97 844.86 206.894 844.475 206.894 844.011V840.545H207.732V843.955C207.732 844.352 207.843 844.67 208.066 844.906C208.291 845.143 208.577 845.261 208.925 845.261C209.134 845.261 209.345 845.208 209.561 845.102C209.779 844.995 209.961 844.832 210.108 844.612C210.257 844.391 210.331 844.111 210.331 843.77ZM212.705 848.045V840.545H213.514V841.412H213.614C213.675 841.317 213.76 841.196 213.869 841.05C213.981 840.901 214.139 840.768 214.345 840.652C214.554 840.534 214.835 840.474 215.19 840.474C215.65 840.474 216.054 840.589 216.405 840.819C216.755 841.049 217.029 841.374 217.225 841.795C217.422 842.217 217.52 842.714 217.52 843.287C217.52 843.865 217.422 844.365 217.225 844.789C217.029 845.21 216.756 845.537 216.408 845.769C216.06 845.999 215.659 846.114 215.205 846.114C214.854 846.114 214.574 846.056 214.363 845.94C214.152 845.821 213.99 845.687 213.876 845.538C213.763 845.387 213.675 845.261 213.614 845.162H213.543V848.045H212.705ZM213.528 843.273C213.528 843.685 213.589 844.048 213.71 844.363C213.83 844.675 214.007 844.92 214.239 845.098C214.471 845.273 214.755 845.361 215.091 845.361C215.441 845.361 215.734 845.268 215.968 845.084C216.205 844.897 216.382 844.646 216.501 844.331C216.621 844.014 216.682 843.661 216.682 843.273C216.682 842.889 216.623 842.544 216.504 842.236C216.388 841.926 216.212 841.681 215.975 841.501C215.741 841.318 215.446 841.227 215.091 841.227C214.75 841.227 214.464 841.314 214.232 841.487C214 841.657 213.824 841.896 213.706 842.204C213.588 842.509 213.528 842.866 213.528 843.273ZM221.724 846V838.727H222.605V845.219H225.986V846H221.724ZM227.236 846V840.545H228.074V846H227.236ZM227.662 839.636C227.499 839.636 227.358 839.581 227.239 839.469C227.123 839.358 227.065 839.224 227.065 839.068C227.065 838.912 227.123 838.778 227.239 838.667C227.358 838.556 227.499 838.5 227.662 838.5C227.825 838.5 227.965 838.556 228.081 838.667C228.199 838.778 228.259 838.912 228.259 839.068C228.259 839.224 228.199 839.358 228.081 839.469C227.965 839.581 227.825 839.636 227.662 839.636ZM233.472 841.767L232.72 841.98C232.672 841.855 232.602 841.733 232.51 841.614C232.42 841.494 232.297 841.394 232.141 841.316C231.985 841.238 231.785 841.199 231.541 841.199C231.207 841.199 230.929 841.276 230.706 841.43C230.486 841.581 230.376 841.774 230.376 842.009C230.376 842.217 230.452 842.381 230.603 842.502C230.755 842.623 230.991 842.723 231.313 842.804L232.123 843.003C232.611 843.121 232.974 843.302 233.213 843.546C233.452 843.788 233.572 844.099 233.572 844.48C233.572 844.793 233.482 845.072 233.302 845.318C233.124 845.564 232.876 845.759 232.556 845.901C232.237 846.043 231.865 846.114 231.441 846.114C230.885 846.114 230.424 845.993 230.06 845.751C229.695 845.51 229.464 845.157 229.367 844.693L230.163 844.494C230.239 844.788 230.382 845.008 230.593 845.155C230.806 845.302 231.084 845.375 231.427 845.375C231.818 845.375 232.128 845.292 232.357 845.126C232.589 844.958 232.705 844.757 232.705 844.523C232.705 844.333 232.639 844.175 232.507 844.047C232.374 843.917 232.17 843.82 231.896 843.756L230.987 843.543C230.487 843.424 230.12 843.241 229.886 842.992C229.654 842.741 229.538 842.428 229.538 842.051C229.538 841.743 229.624 841.471 229.797 841.234C229.972 840.998 230.21 840.812 230.511 840.677C230.814 840.542 231.157 840.474 231.541 840.474C232.08 840.474 232.504 840.593 232.812 840.83C233.122 841.066 233.342 841.379 233.472 841.767ZM237.206 840.545V841.256H234.379V840.545H237.206ZM235.203 839.239H236.041V844.438C236.041 844.674 236.075 844.852 236.144 844.97C236.215 845.086 236.305 845.164 236.414 845.205C236.525 845.242 236.642 845.261 236.765 845.261C236.858 845.261 236.933 845.257 236.993 845.247C237.052 845.235 237.099 845.226 237.135 845.219L237.305 845.972C237.248 845.993 237.169 846.014 237.067 846.036C236.965 846.059 236.836 846.071 236.68 846.071C236.443 846.071 236.211 846.02 235.984 845.918C235.759 845.817 235.572 845.661 235.423 845.453C235.276 845.245 235.203 844.982 235.203 844.665V839.239Z" fill="#D1D6DB"/>
</g>
<defs>
<clipPath id="clip0_48_109">
<rect width="393" height="852" fill="white"/>
</clipPath>
</defs>
</svg>
