
<svg width="393" height="852" viewBox="0 0 393 852" fill="none" xmlns="http://www.w3.org/2000/svg">
    <g clip-path="url(#clip0_54_862)">
        <path d="M393 0H0V852H393V0Z" fill="white"/>
        <path opacity="0.4" d="M393 0H0V852H393V0Z" fill="black"/>
        <path d="M369 180H24C10.7452 180 0 190.745 0 204V828C0 841.255 10.7452 852 24 852H369C382.255 852 393 841.255 393 828V204C393 190.745 382.255 180 369 180Z" fill="white"/>
        <path d="M220 190H174C172.895 190 172 190.895 172 192C172 193.105 172.895 194 174 194H220C221.105 194 222 193.105 222 192C222 190.895 221.105 190 220 190Z" fill="#D1D6DB"/>
        <path d="M25.2969 234V231.562L30.9922 226.289C31.4766 225.82 31.8828 225.398 32.2109 225.023C32.5443 224.648 32.7969 224.281 32.9688 223.922C33.1406 223.557 33.2266 223.164 33.2266 222.742C33.2266 222.273 33.1198 221.87 32.9063 221.531C32.6927 221.187 32.401 220.924 32.0313 220.742C31.6615 220.555 31.2422 220.461 30.7734 220.461C30.2839 220.461 29.8568 220.56 29.4922 220.758C29.1276 220.956 28.8464 221.24 28.6484 221.609C28.4505 221.979 28.3516 222.419 28.3516 222.93H25.1406C25.1406 221.883 25.3776 220.974 25.8516 220.203C26.3255 219.432 26.9896 218.836 27.8438 218.414C28.6979 217.992 29.6823 217.781 30.7969 217.781C31.9427 217.781 32.9401 217.984 33.7891 218.391C34.6432 218.792 35.3073 219.349 35.7813 220.062C36.2552 220.776 36.4922 221.594 36.4922 222.516C36.4922 223.12 36.3724 223.716 36.1328 224.305C35.8984 224.893 35.4792 225.547 34.875 226.266C34.2708 226.979 33.4193 227.836 32.3203 228.836L29.9844 231.125V231.234H36.7031V234H25.2969ZM43.6654 223.836H46.5914V227.378H43.6654V223.836ZM52.9714 215.564H55.8974V227.356H52.9714V215.564ZM39.0674 224.76L38.7594 222.736C40.0648 222.736 41.4508 222.729 42.9174 222.714C44.3841 222.699 45.8728 222.663 47.3834 222.604C48.8941 222.545 50.3608 222.45 51.7834 222.318L51.9374 224.122C50.4708 224.327 48.9894 224.474 47.4934 224.562C45.9974 224.65 44.5381 224.709 43.1154 224.738C41.6928 224.753 40.3434 224.76 39.0674 224.76ZM41.6634 227.994H55.8974V232.768H44.5894V234.374H41.6854V230.92H53.0154V229.974H41.6634V227.994ZM41.6854 233.802H56.3814V235.826H41.6854V233.802ZM49.3854 225.002H53.8734V226.762H49.3854V225.002ZM45.2274 215.872C46.2394 215.872 47.1268 215.997 47.8894 216.246C48.6521 216.495 49.2461 216.847 49.6714 217.302C50.0968 217.757 50.3094 218.299 50.3094 218.93C50.3094 219.546 50.0968 220.081 49.6714 220.536C49.2461 220.991 48.6521 221.343 47.8894 221.592C47.1268 221.841 46.2394 221.966 45.2274 221.966C44.2154 221.966 43.3208 221.841 42.5434 221.592C41.7808 221.343 41.1868 220.991 40.7614 220.536C40.3361 220.081 40.1234 219.546 40.1234 218.93C40.1234 218.299 40.3361 217.757 40.7614 217.302C41.1868 216.847 41.7808 216.495 42.5434 216.246C43.3208 215.997 44.2154 215.872 45.2274 215.872ZM45.2274 217.786C44.5088 217.786 43.9294 217.881 43.4894 218.072C43.0641 218.263 42.8514 218.549 42.8514 218.93C42.8514 219.297 43.0641 219.575 43.4894 219.766C43.9294 219.957 44.5088 220.052 45.2274 220.052C45.9608 220.052 46.5328 219.957 46.9434 219.766C47.3688 219.575 47.5814 219.297 47.5814 218.93C47.5814 218.549 47.3688 218.263 46.9434 218.072C46.5328 217.881 45.9608 217.786 45.2274 217.786ZM70.4531 234.219C69.25 234.219 68.1797 234.023 67.2422 233.633C66.3099 233.237 65.5781 232.698 65.0469 232.016C64.5156 231.333 64.25 230.56 64.25 229.695C64.25 229.029 64.401 228.417 64.7031 227.859C65.0104 227.297 65.4271 226.831 65.9531 226.461C66.4792 226.086 67.0677 225.846 67.7188 225.742V225.633C66.8646 225.461 66.1719 225.047 65.6406 224.391C65.1094 223.729 64.8438 222.961 64.8438 222.086C64.8438 221.258 65.0859 220.521 65.5703 219.875C66.0547 219.224 66.7188 218.714 67.5625 218.344C68.4115 217.969 69.375 217.781 70.4531 217.781C71.5313 217.781 72.4922 217.969 73.3359 218.344C74.1849 218.719 74.8516 219.232 75.3359 219.883C75.8203 220.529 76.0651 221.263 76.0703 222.086C76.0651 222.966 75.7943 223.734 75.2578 224.391C74.7214 225.047 74.0339 225.461 73.1953 225.633V225.742C73.8359 225.846 74.4167 226.086 74.9375 226.461C75.4635 226.831 75.8802 227.297 76.1875 227.859C76.5 228.417 76.6589 229.029 76.6641 229.695C76.6589 230.56 76.3906 231.333 75.8594 232.016C75.3281 232.698 74.5938 233.237 73.6563 233.633C72.724 234.023 71.6563 234.219 70.4531 234.219ZM70.4531 231.734C70.9896 231.734 71.4583 231.638 71.8594 231.445C72.2604 231.247 72.5729 230.977 72.7969 230.633C73.026 230.284 73.1406 229.883 73.1406 229.43C73.1406 228.966 73.0234 228.557 72.7891 228.203C72.5547 227.844 72.237 227.563 71.8359 227.359C71.4349 227.151 70.974 227.047 70.4531 227.047C69.9375 227.047 69.4766 227.151 69.0703 227.359C68.6641 227.563 68.3438 227.844 68.1094 228.203C67.8802 228.557 67.7656 228.966 67.7656 229.43C67.7656 229.883 67.8776 230.284 68.1016 230.633C68.3255 230.977 68.6406 231.247 69.0469 231.445C69.4531 231.638 69.9219 231.734 70.4531 231.734ZM70.4531 224.586C70.901 224.586 71.2995 224.495 71.6484 224.312C71.9974 224.13 72.2708 223.878 72.4688 223.555C72.6667 223.232 72.7656 222.859 72.7656 222.437C72.7656 222.021 72.6667 221.656 72.4688 221.344C72.2708 221.026 72 220.779 71.6563 220.602C71.3125 220.419 70.9115 220.328 70.4531 220.328C70 220.328 69.599 220.419 69.25 220.602C68.901 220.779 68.6276 221.026 68.4297 221.344C68.237 221.656 68.1406 222.021 68.1406 222.437C68.1406 222.859 68.2396 223.232 68.4375 223.555C68.6354 223.878 68.9089 224.13 69.2578 224.312C69.6068 224.495 70.0052 224.586 70.4531 224.586ZM84.3544 216.158C85.4104 216.158 86.3418 216.363 87.1484 216.774C87.9698 217.17 88.6151 217.72 89.0844 218.424C89.5684 219.113 89.8104 219.913 89.8104 220.822C89.8104 221.731 89.5684 222.538 89.0844 223.242C88.6151 223.931 87.9698 224.474 87.1484 224.87C86.3418 225.266 85.4104 225.464 84.3544 225.464C83.3278 225.464 82.4038 225.266 81.5824 224.87C80.7611 224.474 80.1084 223.931 79.6244 223.242C79.1551 222.538 78.9204 221.731 78.9204 220.822C78.9204 219.913 79.1551 219.106 79.6244 218.402C80.1084 217.698 80.7611 217.148 81.5824 216.752C82.4038 216.356 83.3278 216.158 84.3544 216.158ZM84.3764 218.534C83.8778 218.534 83.4304 218.629 83.0344 218.82C82.6384 218.996 82.3231 219.253 82.0884 219.59C81.8684 219.927 81.7584 220.338 81.7584 220.822C81.7584 221.306 81.8684 221.724 82.0884 222.076C82.3231 222.413 82.6311 222.67 83.0124 222.846C83.4084 223.022 83.8631 223.11 84.3764 223.11C84.8751 223.11 85.3151 223.022 85.6964 222.846C86.0924 222.67 86.4004 222.413 86.6204 222.076C86.8551 221.724 86.9724 221.306 86.9724 220.822C86.9724 220.338 86.8551 219.927 86.6204 219.59C86.4004 219.253 86.0924 218.996 85.6964 218.82C85.3004 218.629 84.8604 218.534 84.3764 218.534ZM92.6264 215.586H95.5524V225.772H92.6264V215.586ZM81.9784 226.608H95.5524V232.174H84.8824V234.66H82.0004V230.062H92.6484V228.852H81.9784V226.608ZM82.0004 233.45H96.0584V235.738H82.0004V233.45ZM109.685 216.158C110.741 216.158 111.672 216.363 112.479 216.774C113.3 217.17 113.945 217.72 114.415 218.424C114.899 219.113 115.141 219.913 115.141 220.822C115.141 221.731 114.899 222.538 114.415 223.242C113.945 223.931 113.3 224.474 112.479 224.87C111.672 225.266 110.741 225.464 109.685 225.464C108.658 225.464 107.734 225.266 106.913 224.87C106.091 224.474 105.439 223.931 104.955 223.242C104.485 222.538 104.251 221.731 104.251 220.822C104.251 219.913 104.485 219.106 104.955 218.402C105.439 217.698 106.091 217.148 106.913 216.752C107.734 216.356 108.658 216.158 109.685 216.158ZM109.707 218.534C109.208 218.534 108.761 218.629 108.365 218.82C107.969 218.996 107.653 219.253 107.419 219.59C107.199 219.927 107.089 220.338 107.089 220.822C107.089 221.306 107.199 221.724 107.419 222.076C107.653 222.413 107.961 222.67 108.343 222.846C108.739 223.022 109.193 223.11 109.707 223.11C110.205 223.11 110.645 223.022 111.027 222.846C111.423 222.67 111.731 222.413 111.951 222.076C112.185 221.724 112.303 221.306 112.303 220.822C112.303 220.338 112.185 219.927 111.951 219.59C111.731 219.253 111.423 218.996 111.027 218.82C110.631 218.629 110.191 218.534 109.707 218.534ZM117.957 215.586H120.883V225.772H117.957V215.586ZM107.309 226.608H120.883V232.174H110.213V234.66H107.331V230.062H117.979V228.852H107.309V226.608ZM107.331 233.45H121.389V235.738H107.331V233.45ZM128.251 225.926H131.177V231.624H128.251V225.926ZM135.643 225.926H138.569V231.624H135.643V225.926ZM124.203 231.206H142.661V233.582H124.203V231.206ZM133.399 216.576C134.865 216.576 136.171 216.803 137.315 217.258C138.473 217.713 139.375 218.351 140.021 219.172C140.681 219.979 141.011 220.939 141.011 222.054C141.011 223.154 140.681 224.115 140.021 224.936C139.375 225.743 138.473 226.373 137.315 226.828C136.171 227.283 134.865 227.51 133.399 227.51C131.947 227.51 130.641 227.283 129.483 226.828C128.339 226.373 127.437 225.743 126.777 224.936C126.117 224.115 125.787 223.154 125.787 222.054C125.787 220.939 126.117 219.979 126.777 219.172C127.437 218.351 128.339 217.713 129.483 217.258C130.641 216.803 131.947 216.576 133.399 216.576ZM133.399 218.842C132.46 218.842 131.631 218.974 130.913 219.238C130.209 219.487 129.659 219.847 129.263 220.316C128.867 220.785 128.669 221.365 128.669 222.054C128.669 222.714 128.867 223.286 129.263 223.77C129.659 224.239 130.209 224.606 130.913 224.87C131.631 225.119 132.46 225.244 133.399 225.244C134.352 225.244 135.181 225.119 135.885 224.87C136.603 224.606 137.153 224.239 137.535 223.77C137.931 223.286 138.129 222.714 138.129 222.054C138.129 221.365 137.931 220.785 137.535 220.316C137.153 219.847 136.603 219.487 135.885 219.238C135.181 218.974 134.352 218.842 133.399 218.842ZM150.161 216.158C151.217 216.158 152.148 216.363 152.955 216.774C153.776 217.17 154.422 217.72 154.891 218.424C155.375 219.113 155.617 219.913 155.617 220.822C155.617 221.731 155.375 222.538 154.891 223.242C154.422 223.931 153.776 224.474 152.955 224.87C152.148 225.266 151.217 225.464 150.161 225.464C149.134 225.464 148.21 225.266 147.389 224.87C146.568 224.474 145.915 223.931 145.431 223.242C144.962 222.538 144.727 221.731 144.727 220.822C144.727 219.913 144.962 219.106 145.431 218.402C145.915 217.698 146.568 217.148 147.389 216.752C148.21 216.356 149.134 216.158 150.161 216.158ZM150.183 218.534C149.684 218.534 149.237 218.629 148.841 218.82C148.445 218.996 148.13 219.253 147.895 219.59C147.675 219.927 147.565 220.338 147.565 220.822C147.565 221.306 147.675 221.724 147.895 222.076C148.13 222.413 148.438 222.67 148.819 222.846C149.215 223.022 149.67 223.11 150.183 223.11C150.682 223.11 151.122 223.022 151.503 222.846C151.899 222.67 152.207 222.413 152.427 222.076C152.662 221.724 152.779 221.306 152.779 220.822C152.779 220.338 152.662 219.927 152.427 219.59C152.207 219.253 151.899 218.996 151.503 218.82C151.107 218.629 150.667 218.534 150.183 218.534ZM158.433 215.586H161.359V225.772H158.433V215.586ZM147.785 226.608H161.359V232.174H150.689V234.66H147.807V230.062H158.455V228.852H147.785V226.608ZM147.807 233.45H161.865V235.738H147.807V233.45Z" fill="#191F28"/>
        <path d="M27.952 245.678C28.5413 245.678 29.0613 245.791 29.512 246.016C29.9713 246.233 30.331 246.536 30.591 246.926C30.851 247.316 30.981 247.771 30.981 248.291C30.981 248.802 30.851 249.257 30.591 249.656C30.331 250.046 29.9713 250.349 29.512 250.566C29.0613 250.783 28.5413 250.891 27.952 250.891C27.3713 250.891 26.8513 250.783 26.392 250.566C25.9327 250.349 25.5687 250.046 25.3 249.656C25.04 249.257 24.91 248.802 24.91 248.291C24.91 247.771 25.04 247.316 25.3 246.926C25.5687 246.536 25.9327 246.233 26.392 246.016C26.8513 245.791 27.3713 245.678 27.952 245.678ZM27.952 246.575C27.5707 246.575 27.2283 246.649 26.925 246.796C26.6303 246.935 26.3963 247.134 26.223 247.394C26.0497 247.654 25.963 247.953 25.963 248.291C25.963 248.629 26.0497 248.928 26.223 249.188C26.3963 249.439 26.6303 249.639 26.925 249.786C27.2283 249.933 27.5707 250.007 27.952 250.007C28.3333 250.007 28.6713 249.933 28.966 249.786C29.2693 249.639 29.5077 249.439 29.681 249.188C29.8543 248.928 29.941 248.629 29.941 248.291C29.941 247.953 29.8543 247.654 29.681 247.394C29.5077 247.134 29.2693 246.935 28.966 246.796C28.6713 246.649 28.3333 246.575 27.952 246.575ZM33.204 245.249H34.283V251.268H33.204V245.249ZM26.678 251.853H34.283V254.7H27.757V256.468H26.717V253.894H33.217V252.711H26.678V251.853ZM26.717 255.987H34.686V256.858H26.717V255.987ZM42.888 248.304H45.527V249.201H42.888V248.304ZM45.202 245.249H46.281V252.256H45.202V245.249ZM42.407 252.62C43.2217 252.62 43.9193 252.707 44.5 252.88C45.0893 253.053 45.54 253.305 45.852 253.634C46.164 253.955 46.32 254.349 46.32 254.817C46.32 255.51 45.969 256.048 45.267 256.429C44.5737 256.81 43.6203 257.001 42.407 257.001C41.1937 257.001 40.236 256.81 39.534 256.429C38.8407 256.048 38.494 255.51 38.494 254.817C38.494 254.349 38.65 253.955 38.962 253.634C39.2827 253.305 39.7333 253.053 40.314 252.88C40.9033 252.707 41.601 252.62 42.407 252.62ZM42.407 253.465C41.8177 253.465 41.3107 253.517 40.886 253.621C40.4613 253.725 40.132 253.877 39.898 254.076C39.6727 254.275 39.56 254.522 39.56 254.817C39.56 255.094 39.6727 255.333 39.898 255.532C40.132 255.731 40.4613 255.887 40.886 256C41.3107 256.104 41.8177 256.156 42.407 256.156C43.005 256.156 43.512 256.104 43.928 256C44.3527 255.887 44.6777 255.731 44.903 255.532C45.137 255.333 45.254 255.094 45.254 254.817C45.254 254.522 45.137 254.275 44.903 254.076C44.6777 253.877 44.3527 253.725 43.928 253.621C43.512 253.517 43.005 253.465 42.407 253.465ZM39.599 246.445H40.483V247.394C40.483 248.113 40.3443 248.789 40.067 249.422C39.7983 250.046 39.417 250.596 38.923 251.073C38.429 251.541 37.857 251.901 37.207 252.152L36.648 251.294C37.09 251.138 37.4887 250.926 37.844 250.657C38.208 250.388 38.52 250.081 38.78 249.734C39.0487 249.387 39.2523 249.015 39.391 248.616C39.5297 248.217 39.599 247.81 39.599 247.394V246.445ZM39.807 246.445H40.691V247.381C40.691 247.884 40.808 248.373 41.042 248.85C41.276 249.327 41.6097 249.747 42.043 250.111C42.4763 250.475 42.9747 250.761 43.538 250.969L42.992 251.827C42.3507 251.593 41.7917 251.255 41.315 250.813C40.8383 250.362 40.4657 249.842 40.197 249.253C39.937 248.664 39.807 248.04 39.807 247.381V246.445ZM36.986 246.107H43.265V246.991H36.986V246.107ZM52.5529 256V255.169L55.6737 251.753C56.0399 251.353 56.3415 251.005 56.5785 250.71C56.8155 250.411 56.9909 250.131 57.1048 249.869C57.2217 249.605 57.2802 249.328 57.2802 249.038C57.2802 248.706 57.2002 248.418 57.0401 248.175C56.8832 247.932 56.6677 247.744 56.3938 247.612C56.1199 247.48 55.8121 247.413 55.4705 247.413C55.1074 247.413 54.7904 247.489 54.5195 247.64C54.2518 247.787 54.044 247.995 53.8963 248.263C53.7517 248.531 53.6793 248.844 53.6793 249.205H52.5898C52.5898 248.651 52.7176 248.164 52.973 247.746C53.2285 247.327 53.5762 247.001 54.0163 246.767C54.4595 246.533 54.9566 246.416 55.5075 246.416C56.0614 246.416 56.5523 246.533 56.9801 246.767C57.4079 247.001 57.7434 247.316 57.9865 247.713C58.2296 248.11 58.3512 248.552 58.3512 249.038C58.3512 249.386 58.2881 249.726 58.1619 250.059C58.0388 250.388 57.8234 250.756 57.5156 251.162C57.2109 251.565 56.7878 252.058 56.2461 252.639L54.1225 254.911V254.984H58.5174V256H52.5529ZM69.0133 245.249H70.0533V257.014H69.0133V245.249ZM67.1153 249.981H69.3773V250.865H67.1153V249.981ZM64.0863 246.77H65.1133C65.1133 247.524 65.0396 248.261 64.8923 248.98C64.745 249.699 64.5023 250.393 64.1643 251.06C63.835 251.719 63.3886 252.338 62.8253 252.919C62.262 253.491 61.56 254.015 60.7193 254.492L60.0953 253.725C61.0833 253.17 61.8676 252.542 62.4483 251.84C63.029 251.138 63.445 250.38 63.6963 249.565C63.9563 248.742 64.0863 247.875 64.0863 246.965V246.77ZM60.5503 246.77H64.4373V247.654H60.5503V246.77ZM66.4133 245.561H67.4273V256.429H66.4133V245.561Z" fill="#8B95A1"/>
        <path d="M362 248C371.941 248 380 239.941 380 230C380 220.059 371.941 212 362 212C352.059 212 344 220.059 344 230C344 239.941 352.059 248 362 248Z" fill="#FF6B6B"/>
        <path d="M362 223V237" stroke="white" stroke-width="2" stroke-linecap="round"/>
        <path d="M355 230H369" stroke="white" stroke-width="2" stroke-linecap="round"/>
        <path d="M24 276H369" stroke="#F2F3F5"/>
        <path d="M355 296H38C30.268 296 24 302.268 24 310V358C24 365.732 30.268 372 38 372H355C362.732 372 369 365.732 369 358V310C369 302.268 362.732 296 355 296Z" fill="#FFF0F0"/>
        <path d="M42 312C42 310.895 41.1046 310 40 310C38.8954 310 38 310.895 38 312V356C38 357.105 38.8954 358 40 358C41.1046 358 42 357.105 42 356V312Z" fill="#FF6B6B"/>
        <path d="M58.587 322.445H59.489V324.293H58.587V322.445ZM54.55 323.853H63.537V324.601H54.55V323.853ZM59.038 325.404C60.1013 325.404 60.9337 325.554 61.535 325.855C62.1363 326.156 62.437 326.577 62.437 327.12C62.437 327.67 62.1363 328.092 61.535 328.385C60.9337 328.686 60.1013 328.836 59.038 328.836C57.9673 328.836 57.1313 328.686 56.53 328.385C55.9287 328.092 55.628 327.67 55.628 327.12C55.628 326.577 55.9287 326.156 56.53 325.855C57.1313 325.554 57.9673 325.404 59.038 325.404ZM59.038 326.119C58.2533 326.119 57.641 326.207 57.201 326.383C56.7683 326.552 56.552 326.797 56.552 327.12C56.552 327.45 56.7683 327.703 57.201 327.879C57.641 328.048 58.2533 328.132 59.038 328.132C59.8153 328.132 60.424 328.048 60.864 327.879C61.304 327.703 61.524 327.45 61.524 327.12C61.524 326.797 61.304 326.552 60.864 326.383C60.424 326.207 59.8153 326.119 59.038 326.119ZM58.455 319.728H59.258V320.025C59.258 320.34 59.1883 320.637 59.049 320.916C58.917 321.187 58.73 321.437 58.488 321.664C58.246 321.891 57.96 322.093 57.63 322.269C57.3073 322.438 56.9517 322.581 56.563 322.698C56.1817 322.808 55.7857 322.889 55.375 322.94L55.045 322.214C55.4043 322.177 55.749 322.115 56.079 322.027C56.4163 321.932 56.728 321.818 57.014 321.686C57.3073 321.554 57.5603 321.4 57.773 321.224C57.9857 321.048 58.1507 320.861 58.268 320.663C58.3927 320.458 58.455 320.245 58.455 320.025V319.728ZM58.829 319.728H59.632V320.025C59.632 320.245 59.6907 320.458 59.808 320.663C59.9327 320.868 60.1013 321.059 60.314 321.235C60.534 321.404 60.787 321.554 61.073 321.686C61.359 321.818 61.6707 321.932 62.008 322.027C62.3453 322.115 62.69 322.177 63.042 322.214L62.712 322.94C62.3013 322.889 61.9053 322.808 61.524 322.698C61.1427 322.581 60.787 322.438 60.457 322.269C60.1343 322.093 59.8483 321.891 59.599 321.664C59.357 321.437 59.1663 321.187 59.027 320.916C58.895 320.637 58.829 320.34 58.829 320.025V319.728ZM55.375 319.365H62.723V320.102H55.375V319.365ZM67.4631 319.266C67.9618 319.266 68.4018 319.361 68.7831 319.552C69.1718 319.735 69.4761 319.992 69.6961 320.322C69.9161 320.652 70.0261 321.037 70.0261 321.477C70.0261 321.91 69.9161 322.295 69.6961 322.632C69.4761 322.962 69.1718 323.219 68.7831 323.402C68.4018 323.585 67.9618 323.677 67.4631 323.677C66.9718 323.677 66.5318 323.585 66.1431 323.402C65.7545 323.219 65.4465 322.962 65.2191 322.632C64.9991 322.295 64.8891 321.91 64.8891 321.477C64.8891 321.037 64.9991 320.652 65.2191 320.322C65.4465 319.992 65.7545 319.735 66.1431 319.552C66.5318 319.361 66.9718 319.266 67.4631 319.266ZM67.4631 320.025C67.1405 320.025 66.8508 320.087 66.5941 320.212C66.3448 320.329 66.1468 320.498 66.0001 320.718C65.8535 320.938 65.7801 321.191 65.7801 321.477C65.7801 321.763 65.8535 322.016 66.0001 322.236C66.1468 322.449 66.3448 322.617 66.5941 322.742C66.8508 322.867 67.1405 322.929 67.4631 322.929C67.7858 322.929 68.0718 322.867 68.3211 322.742C68.5778 322.617 68.7795 322.449 68.9261 322.236C69.0728 322.016 69.1461 321.763 69.1461 321.477C69.1461 321.191 69.0728 320.938 68.9261 320.718C68.7795 320.498 68.5778 320.329 68.3211 320.212C68.0718 320.087 67.7858 320.025 67.4631 320.025ZM71.9071 318.903H72.8201V323.996H71.9071V318.903ZM66.3851 324.491H72.8201V326.9H67.2981V328.396H66.4181V326.218H71.9181V325.217H66.3851V324.491ZM66.4181 327.989H73.1611V328.726H66.4181V327.989Z" fill="#FF6B6B"/>
        <path d="M64.635 334.43H66.54V348.32H64.635V334.43ZM62.79 339.785H65.1V341.39H62.79V339.785ZM61.53 334.67H63.375V347.675H61.53V334.67ZM55.005 343.55H55.965C56.545 343.55 57.095 343.545 57.615 343.535C58.135 343.515 58.65 343.48 59.16 343.43C59.68 343.37 60.21 343.295 60.75 343.205L60.915 344.825C60.355 344.925 59.81 345.005 59.28 345.065C58.75 345.125 58.215 345.165 57.675 345.185C57.135 345.195 56.565 345.2 55.965 345.2H55.005V343.55ZM55.005 336.05H60.12V337.655H56.97V344.345H55.005V336.05ZM75.8538 338.03H79.0788V339.635H75.8538V338.03ZM78.0288 334.445H80.0388V344.57H78.0288V334.445ZM70.8588 346.49H80.3538V348.095H70.8588V346.49ZM70.8588 343.715H72.8538V347.435H70.8588V343.715ZM71.6238 336.26H73.2438V337.13C73.2438 338.01 73.1038 338.845 72.8238 339.635C72.5438 340.425 72.1138 341.12 71.5338 341.72C70.9638 342.31 70.2288 342.755 69.3288 343.055L68.3388 341.465C68.9088 341.275 69.3988 341.03 69.8088 340.73C70.2288 340.42 70.5688 340.07 70.8288 339.68C71.0988 339.29 71.2988 338.88 71.4288 338.45C71.5588 338.02 71.6238 337.58 71.6238 337.13V336.26ZM72.0438 336.26H73.6338V337.13C73.6338 337.67 73.7438 338.21 73.9638 338.75C74.1838 339.28 74.5238 339.765 74.9838 340.205C75.4538 340.635 76.0538 340.975 76.7838 341.225L75.8088 342.77C74.9488 342.48 74.2388 342.055 73.6788 341.495C73.1288 340.925 72.7188 340.265 72.4488 339.515C72.1788 338.755 72.0438 337.96 72.0438 337.13V336.26ZM68.8788 335.375H76.3488V336.965H68.8788V335.375ZM86.9743 335.615H95.7643V337.205H86.9743V335.615ZM85.6843 345.035H98.2543V346.655H85.6843V345.035ZM90.1243 340.265H92.1343V345.845H90.1243V340.265ZM95.0443 335.615H97.0543V336.935C97.0543 337.515 97.0443 338.13 97.0243 338.78C97.0143 339.43 96.9693 340.15 96.8893 340.94C96.8193 341.73 96.6893 342.615 96.4993 343.595L94.5043 343.385C94.7843 341.995 94.9443 340.785 94.9843 339.755C95.0243 338.715 95.0443 337.775 95.0443 336.935V335.615ZM99.4982 340.79H112.053V342.41H99.4982V340.79ZM101.013 338.255H110.628V339.83H101.013V338.255ZM101.013 334.805H110.553V336.41H102.993V339.035H101.013V334.805ZM105.723 343.22C107.223 343.22 108.403 343.445 109.263 343.895C110.123 344.335 110.553 344.965 110.553 345.785C110.553 346.595 110.123 347.22 109.263 347.66C108.403 348.11 107.223 348.335 105.723 348.335C104.223 348.335 103.043 348.11 102.183 347.66C101.333 347.22 100.908 346.595 100.908 345.785C100.908 344.965 101.333 344.335 102.183 343.895C103.043 343.445 104.223 343.22 105.723 343.22ZM105.723 344.735C105.103 344.735 104.583 344.775 104.163 344.855C103.753 344.925 103.443 345.04 103.233 345.2C103.023 345.35 102.918 345.545 102.918 345.785C102.918 346.015 103.023 346.21 103.233 346.37C103.443 346.52 103.753 346.635 104.163 346.715C104.583 346.785 105.103 346.82 105.723 346.82C106.343 346.82 106.858 346.785 107.268 346.715C107.688 346.635 108.003 346.52 108.213 346.37C108.423 346.21 108.528 346.015 108.528 345.785C108.528 345.545 108.423 345.35 108.213 345.2C108.003 345.04 107.688 344.925 107.268 344.855C106.858 344.775 106.343 344.735 105.723 344.735ZM113.282 335.645H121.442V337.22H113.282V335.645ZM117.362 337.655C118.032 337.655 118.622 337.765 119.132 337.985C119.652 338.205 120.057 338.505 120.347 338.885C120.637 339.265 120.782 339.715 120.782 340.235C120.782 340.735 120.637 341.18 120.347 341.57C120.057 341.95 119.652 342.25 119.132 342.47C118.622 342.68 118.032 342.785 117.362 342.785C116.702 342.785 116.112 342.68 115.592 342.47C115.072 342.25 114.667 341.95 114.377 341.57C114.087 341.18 113.942 340.735 113.942 340.235C113.942 339.715 114.087 339.265 114.377 338.885C114.667 338.505 115.072 338.205 115.592 337.985C116.112 337.765 116.702 337.655 117.362 337.655ZM117.362 339.17C116.922 339.17 116.562 339.26 116.282 339.44C116.002 339.61 115.862 339.875 115.862 340.235C115.862 340.575 116.002 340.835 116.282 341.015C116.562 341.195 116.922 341.285 117.362 341.285C117.812 341.285 118.172 341.195 118.442 341.015C118.722 340.835 118.862 340.575 118.862 340.235C118.862 339.875 118.722 339.61 118.442 339.44C118.172 339.26 117.812 339.17 117.362 339.17ZM122.207 334.445H124.202V343.145H122.207V334.445ZM123.662 338.015H126.047V339.65H123.662V338.015ZM114.932 343.73H124.202V348.335H122.207V345.305H114.932V343.73ZM116.372 334.355H118.352V336.56H116.372V334.355ZM128.296 335.615H137.086V337.205H128.296V335.615ZM127.081 345.035H139.651V346.655H127.081V345.035ZM129.721 340.67H131.686V345.56H129.721V340.67ZM136.516 335.615H138.511V336.965C138.511 337.525 138.501 338.125 138.481 338.765C138.471 339.395 138.431 340.09 138.361 340.85C138.301 341.61 138.191 342.455 138.031 343.385L136.051 343.19C136.281 341.87 136.416 340.71 136.456 339.71C136.496 338.7 136.516 337.785 136.516 336.965V335.615ZM133.156 340.67H135.106V345.56H133.156V340.67ZM153.891 334.445H155.886V344.6H153.891V334.445ZM146.631 346.49H156.246V348.095H146.631V346.49ZM146.631 343.715H148.626V347.42H146.631V343.715ZM147.726 337.175H149.361V337.67C149.361 338.5 149.216 339.285 148.926 340.025C148.646 340.765 148.211 341.41 147.621 341.96C147.041 342.5 146.306 342.9 145.416 343.16L144.471 341.6C145.031 341.43 145.516 341.21 145.926 340.94C146.346 340.66 146.686 340.345 146.946 339.995C147.216 339.645 147.411 339.275 147.531 338.885C147.661 338.485 147.726 338.08 147.726 337.67V337.175ZM148.101 337.175H149.721V337.67C149.721 338.05 149.786 338.43 149.916 338.81C150.056 339.18 150.256 339.53 150.516 339.86C150.786 340.19 151.126 340.485 151.536 340.745C151.956 341.005 152.446 341.21 153.006 341.36L152.076 342.92C151.186 342.67 150.446 342.285 149.856 341.765C149.266 341.245 148.826 340.63 148.536 339.92C148.246 339.21 148.101 338.46 148.101 337.67V337.175ZM144.936 336.035H152.526V337.595H144.936V336.035ZM147.726 334.52H149.736V336.68H147.726V334.52ZM159.59 335.24H168.29V336.815H159.59V335.24ZM158.15 341.15H170.72V342.77H158.15V341.15ZM163.355 342.29H165.365V348.335H163.355V342.29ZM167.27 335.24H169.235V336.47C169.235 336.97 169.225 337.5 169.205 338.06C169.195 338.62 169.155 339.235 169.085 339.905C169.015 340.565 168.885 341.305 168.695 342.125L166.745 341.885C167.005 340.735 167.155 339.73 167.195 338.87C167.245 338 167.27 337.2 167.27 336.47V335.24ZM171.964 339.815H184.519V341.39H171.964V339.815ZM173.509 337.505H183.034V339.08H173.509V337.505ZM173.509 334.7H182.914V336.275H175.489V338.87H173.509V334.7ZM173.374 342.17H182.974V345.86H175.369V347.045H173.389V344.45H181.009V343.685H173.374V342.17ZM173.389 346.685H183.349V348.215H173.389V346.685Z" fill="#191F28"/>
        <path d="M302 348C309.732 348 316 341.732 316 334C316 326.268 309.732 320 302 320C294.268 320 288 326.268 288 334C288 341.732 294.268 348 302 348Z" fill="#FFE8E8" stroke="white" stroke-width="1.5"/>
        <path opacity="0.3" d="M302 335.5C304.485 335.5 306.5 333.485 306.5 331C306.5 328.515 304.485 326.5 302 326.5C299.515 326.5 297.5 328.515 297.5 331C297.5 333.485 299.515 335.5 302 335.5Z" fill="#FF6B6B"/>
        <path d="M320 348C327.732 348 334 341.732 334 334C334 326.268 327.732 320 320 320C312.268 320 306 326.268 306 334C306 341.732 312.268 348 320 348Z" fill="#E0ECFF" stroke="white" stroke-width="1.5"/>
        <path opacity="0.3" d="M320 335.5C322.485 335.5 324.5 333.485 324.5 331C324.5 328.515 322.485 326.5 320 326.5C317.515 326.5 315.5 328.515 315.5 331C315.5 333.485 317.515 335.5 320 335.5Z" fill="#4A90D9"/>
        <path d="M338 348C345.732 348 352 341.732 352 334C352 326.268 345.732 320 338 320C330.268 320 324 326.268 324 334C324 341.732 330.268 348 338 348Z" fill="#E8FFE8" stroke="white" stroke-width="1.5"/>
        <path d="M334.317 336.892V331.864H335.589V336.892H334.317ZM332.439 335.013V333.742H337.467V335.013H332.439ZM338.736 338V336.892L341.325 334.495C341.545 334.282 341.73 334.09 341.879 333.92C342.03 333.749 342.145 333.582 342.223 333.419C342.301 333.253 342.34 333.075 342.34 332.883C342.34 332.67 342.292 332.486 342.195 332.332C342.098 332.176 341.965 332.057 341.797 331.974C341.629 331.888 341.438 331.846 341.225 331.846C341.003 331.846 340.809 331.891 340.643 331.981C340.477 332.071 340.349 332.2 340.259 332.368C340.169 332.536 340.124 332.736 340.124 332.968H338.665C338.665 332.492 338.773 332.079 338.988 331.729C339.204 331.378 339.505 331.107 339.894 330.915C340.282 330.724 340.729 330.628 341.236 330.628C341.757 330.628 342.21 330.72 342.596 330.905C342.984 331.087 343.286 331.34 343.502 331.665C343.717 331.989 343.825 332.361 343.825 332.78C343.825 333.054 343.77 333.326 343.661 333.593C343.555 333.861 343.364 334.158 343.09 334.484C342.815 334.809 342.428 335.198 341.928 335.653L340.867 336.693V336.743H343.921V338H338.736Z" fill="#34D399"/>
        <path d="M355 386H38C30.268 386 24 392.268 24 400V448C24 455.732 30.268 462 38 462H355C362.732 462 369 455.732 369 448V400C369 392.268 362.732 386 355 386Z" fill="#F0F0FF"/>
        <path d="M42 402C42 400.895 41.1046 400 40 400C38.8954 400 38 400.895 38 402V446C38 447.105 38.8954 448 40 448C41.1046 448 42 447.105 42 446V402Z" fill="#A78BFA"/>
        <path d="M58.587 414.524H59.489V416.999H58.587V414.524ZM59.038 409.552C59.742 409.552 60.3653 409.662 60.908 409.882C61.4507 410.095 61.876 410.395 62.184 410.784C62.4993 411.173 62.657 411.631 62.657 412.159C62.657 412.687 62.4993 413.149 62.184 413.545C61.876 413.934 61.4507 414.234 60.908 414.447C60.3653 414.66 59.742 414.766 59.038 414.766C58.3413 414.766 57.718 414.66 57.168 414.447C56.6253 414.234 56.2 413.934 55.892 413.545C55.584 413.149 55.43 412.687 55.43 412.159C55.43 411.631 55.584 411.173 55.892 410.784C56.2 410.395 56.6253 410.095 57.168 409.882C57.718 409.662 58.3413 409.552 59.038 409.552ZM59.038 410.289C58.51 410.289 58.0407 410.366 57.63 410.52C57.2193 410.674 56.8967 410.894 56.662 411.18C56.4273 411.459 56.31 411.785 56.31 412.159C56.31 412.533 56.4273 412.863 56.662 413.149C56.8967 413.435 57.2193 413.655 57.63 413.809C58.0407 413.963 58.51 414.04 59.038 414.04C59.566 414.04 60.0353 413.963 60.446 413.809C60.8567 413.655 61.1793 413.435 61.414 413.149C61.656 412.863 61.777 412.533 61.777 412.159C61.777 411.785 61.656 411.459 61.414 411.18C61.1793 410.894 60.8567 410.674 60.446 410.52C60.0353 410.366 59.566 410.289 59.038 410.289ZM54.55 416.823H63.57V417.582H54.55V416.823ZM65.1421 410.036H73.1391V410.784H65.1421V410.036ZM64.6691 415.36H73.6891V416.108H64.6691V415.36ZM68.7061 415.965H69.6081V418.869H68.7061V415.965ZM69.1571 411.356C70.1691 411.356 70.9611 411.499 71.5331 411.785C72.1051 412.071 72.3911 412.482 72.3911 413.017C72.3911 413.538 72.1051 413.945 71.5331 414.238C70.9611 414.524 70.1691 414.667 69.1571 414.667C68.1451 414.667 67.3531 414.524 66.7811 414.238C66.2091 413.945 65.9231 413.538 65.9231 413.017C65.9231 412.482 66.2091 412.071 66.7811 411.785C67.3531 411.499 68.1451 411.356 69.1571 411.356ZM69.1571 412.049C68.4311 412.049 67.8665 412.133 67.4631 412.302C67.0671 412.463 66.8691 412.702 66.8691 413.017C66.8691 413.318 67.0671 413.552 67.4631 413.721C67.8665 413.89 68.4311 413.974 69.1571 413.974C69.8831 413.974 70.4441 413.89 70.8401 413.721C71.2435 413.552 71.4451 413.318 71.4451 413.017C71.4451 412.702 71.2435 412.463 70.8401 412.302C70.4441 412.133 69.8831 412.049 69.1571 412.049ZM68.7061 408.848H69.6081V410.531H68.7061V408.848ZM78.1602 418V417.297L80.8008 414.406C81.1107 414.068 81.3659 413.773 81.5664 413.523C81.7669 413.271 81.9154 413.034 82.0117 412.812C82.1107 412.589 82.1602 412.354 82.1602 412.109C82.1602 411.828 82.0924 411.585 81.957 411.379C81.8242 411.173 81.6419 411.014 81.4102 410.902C81.1784 410.79 80.918 410.734 80.6289 410.734C80.3216 410.734 80.0534 410.798 79.8242 410.926C79.5977 411.051 79.4219 411.227 79.2969 411.453C79.1745 411.68 79.1133 411.945 79.1133 412.25H78.1914C78.1914 411.781 78.2995 411.37 78.5156 411.016C78.7318 410.661 79.026 410.385 79.3984 410.187C79.7734 409.99 80.194 409.891 80.6602 409.891C81.1289 409.891 81.5443 409.99 81.9063 410.187C82.2682 410.385 82.5521 410.652 82.7578 410.988C82.9635 411.324 83.0664 411.698 83.0664 412.109C83.0664 412.404 83.013 412.691 82.9063 412.973C82.8021 413.251 82.6198 413.562 82.3594 413.906C82.1016 414.247 81.7435 414.664 81.2852 415.156L79.4883 417.078V417.141H83.207V418H78.1602ZM85.5078 416.977C85.3151 416.977 85.1497 416.908 85.0117 416.77C84.8737 416.632 84.8047 416.466 84.8047 416.273C84.8047 416.081 84.8737 415.915 85.0117 415.777C85.1497 415.639 85.3151 415.57 85.5078 415.57C85.7005 415.57 85.8659 415.639 86.0039 415.777C86.1419 415.915 86.2109 416.081 86.2109 416.273C86.2109 416.401 86.1784 416.518 86.1133 416.625C86.0508 416.732 85.9661 416.818 85.8594 416.883C85.7552 416.945 85.638 416.977 85.5078 416.977ZM85.5078 412.93C85.3151 412.93 85.1497 412.861 85.0117 412.723C84.8737 412.585 84.8047 412.419 84.8047 412.227C84.8047 412.034 84.8737 411.868 85.0117 411.73C85.1497 411.592 85.3151 411.523 85.5078 411.523C85.7005 411.523 85.8659 411.592 86.0039 411.73C86.1419 411.868 86.2109 412.034 86.2109 412.227C86.2109 412.354 86.1784 412.471 86.1133 412.578C86.0508 412.685 85.9661 412.771 85.8594 412.836C85.7552 412.898 85.638 412.93 85.5078 412.93ZM90.459 418.109C89.8704 418.109 89.3691 417.949 88.9551 417.629C88.541 417.306 88.2246 416.839 88.0059 416.227C87.7871 415.612 87.6777 414.87 87.6777 414C87.6777 413.135 87.7871 412.397 88.0059 411.785C88.2272 411.171 88.5449 410.702 88.959 410.379C89.3757 410.053 89.8757 409.891 90.459 409.891C91.0423 409.891 91.541 410.053 91.9551 410.379C92.3717 410.702 92.6895 411.171 92.9082 411.785C93.1296 412.397 93.2402 413.135 93.2402 414C93.2402 414.87 93.1309 415.612 92.9121 416.227C92.6934 416.839 92.377 417.306 91.9629 417.629C91.5488 417.949 91.0475 418.109 90.459 418.109ZM90.459 417.25C91.0423 417.25 91.4954 416.969 91.8184 416.406C92.1413 415.844 92.3027 415.042 92.3027 414C92.3027 413.307 92.2285 412.717 92.0801 412.23C91.9342 411.743 91.7233 411.372 91.4473 411.117C91.1738 410.862 90.8444 410.734 90.459 410.734C89.8809 410.734 89.429 411.02 89.1035 411.59C88.778 412.158 88.6152 412.961 88.6152 414C88.6152 414.693 88.6882 415.281 88.834 415.766C88.9798 416.25 89.1895 416.618 89.4629 416.871C89.7389 417.124 90.071 417.25 90.459 417.25ZM97.334 418.109C96.7454 418.109 96.2441 417.949 95.8301 417.629C95.416 417.306 95.0996 416.839 94.8809 416.227C94.6621 415.612 94.5527 414.87 94.5527 414C94.5527 413.135 94.6621 412.397 94.8809 411.785C95.1022 411.171 95.4199 410.702 95.834 410.379C96.2507 410.053 96.7507 409.891 97.334 409.891C97.9173 409.891 98.416 410.053 98.8301 410.379C99.2467 410.702 99.5645 411.171 99.7832 411.785C100.005 412.397 100.115 413.135 100.115 414C100.115 414.87 100.006 415.612 99.7871 416.227C99.5684 416.839 99.252 417.306 98.8379 417.629C98.4238 417.949 97.9225 418.109 97.334 418.109ZM97.334 417.25C97.9173 417.25 98.3704 416.969 98.6934 416.406C99.0163 415.844 99.1777 415.042 99.1777 414C99.1777 413.307 99.1035 412.717 98.9551 412.23C98.8092 411.743 98.5983 411.372 98.3223 411.117C98.0488 410.862 97.7194 410.734 97.334 410.734C96.7559 410.734 96.304 411.02 95.9785 411.59C95.653 412.158 95.4902 412.961 95.4902 414C95.4902 414.693 95.5632 415.281 95.709 415.766C95.8548 416.25 96.0645 416.618 96.3379 416.871C96.6139 417.124 96.946 417.25 97.334 417.25ZM108.146 413.57V414.43H104.646V413.57H108.146ZM115.347 418.109C114.888 418.109 114.476 418.018 114.108 417.836C113.741 417.654 113.447 417.404 113.226 417.086C113.004 416.768 112.883 416.406 112.862 416H113.8C113.836 416.362 114 416.661 114.292 416.898C114.586 417.133 114.938 417.25 115.347 417.25C115.675 417.25 115.966 417.173 116.222 417.02C116.479 416.866 116.681 416.655 116.827 416.387C116.976 416.116 117.05 415.81 117.05 415.469C117.05 415.12 116.973 414.809 116.819 414.535C116.668 414.259 116.46 414.042 116.194 413.883C115.929 413.724 115.625 413.643 115.284 413.641C115.039 413.638 114.788 413.676 114.53 413.754C114.272 413.829 114.06 413.927 113.894 414.047L112.987 413.937L113.472 410H117.628V410.859H114.284L114.003 413.219H114.05C114.214 413.089 114.42 412.98 114.667 412.895C114.914 412.809 115.172 412.766 115.44 412.766C115.93 412.766 116.366 412.883 116.749 413.117C117.134 413.349 117.437 413.667 117.655 414.07C117.877 414.474 117.987 414.935 117.987 415.453C117.987 415.964 117.873 416.419 117.644 416.82C117.417 417.219 117.104 417.534 116.706 417.766C116.308 417.995 115.854 418.109 115.347 418.109ZM120.227 416.977C120.034 416.977 119.868 416.908 119.73 416.77C119.592 416.632 119.523 416.466 119.523 416.273C119.523 416.081 119.592 415.915 119.73 415.777C119.868 415.639 120.034 415.57 120.227 415.57C120.419 415.57 120.585 415.639 120.723 415.777C120.861 415.915 120.93 416.081 120.93 416.273C120.93 416.401 120.897 416.518 120.832 416.625C120.77 416.732 120.685 416.818 120.578 416.883C120.474 416.945 120.357 416.977 120.227 416.977ZM120.227 412.93C120.034 412.93 119.868 412.861 119.73 412.723C119.592 412.585 119.523 412.419 119.523 412.227C119.523 412.034 119.592 411.868 119.73 411.73C119.868 411.592 120.034 411.523 120.227 411.523C120.419 411.523 120.585 411.592 120.723 411.73C120.861 411.868 120.93 412.034 120.93 412.227C120.93 412.354 120.897 412.471 120.832 412.578C120.77 412.685 120.685 412.771 120.578 412.836C120.474 412.898 120.357 412.93 120.227 412.93ZM125.178 418.109C124.589 418.109 124.088 417.949 123.674 417.629C123.26 417.306 122.943 416.839 122.725 416.227C122.506 415.612 122.396 414.87 122.396 414C122.396 413.135 122.506 412.397 122.725 411.785C122.946 411.171 123.264 410.702 123.678 410.379C124.094 410.053 124.594 409.891 125.178 409.891C125.761 409.891 126.26 410.053 126.674 410.379C127.09 410.702 127.408 411.171 127.627 411.785C127.848 412.397 127.959 413.135 127.959 414C127.959 414.87 127.85 415.612 127.631 416.227C127.412 416.839 127.096 417.306 126.682 417.629C126.268 417.949 125.766 418.109 125.178 418.109ZM125.178 417.25C125.761 417.25 126.214 416.969 126.537 416.406C126.86 415.844 127.021 415.042 127.021 414C127.021 413.307 126.947 412.717 126.799 412.23C126.653 411.743 126.442 411.372 126.166 411.117C125.893 410.862 125.563 410.734 125.178 410.734C124.6 410.734 124.148 411.02 123.822 411.59C123.497 412.158 123.334 412.961 123.334 414C123.334 414.693 123.407 415.281 123.553 415.766C123.699 416.25 123.908 416.618 124.182 416.871C124.458 417.124 124.79 417.25 125.178 417.25ZM132.053 418.109C131.464 418.109 130.963 417.949 130.549 417.629C130.135 417.306 129.818 416.839 129.6 416.227C129.381 415.612 129.271 414.87 129.271 414C129.271 413.135 129.381 412.397 129.6 411.785C129.821 411.171 130.139 410.702 130.553 410.379C130.969 410.053 131.469 409.891 132.053 409.891C132.636 409.891 133.135 410.053 133.549 410.379C133.965 410.702 134.283 411.171 134.502 411.785C134.723 412.397 134.834 413.135 134.834 414C134.834 414.87 134.725 415.612 134.506 416.227C134.287 416.839 133.971 417.306 133.557 417.629C133.143 417.949 132.641 418.109 132.053 418.109ZM132.053 417.25C132.636 417.25 133.089 416.969 133.412 416.406C133.735 415.844 133.896 415.042 133.896 414C133.896 413.307 133.822 412.717 133.674 412.23C133.528 411.743 133.317 411.372 133.041 411.117C132.768 410.862 132.438 410.734 132.053 410.734C131.475 410.734 131.023 411.02 130.697 411.59C130.372 412.158 130.209 412.961 130.209 414C130.209 414.693 130.282 415.281 130.428 415.766C130.574 416.25 130.783 416.618 131.057 416.871C131.333 417.124 131.665 417.25 132.053 417.25Z" fill="#A78BFA"/>
        <path d="M59.895 431.51H61.875V433.505H59.895V431.51ZM54.645 430.34H67.14V431.795H54.645V430.34ZM59.88 424.43H61.875V426.095H59.88V424.43ZM59.76 426.185H61.515V426.47C61.515 426.97 61.39 427.425 61.14 427.835C60.89 428.235 60.52 428.59 60.03 428.9C59.54 429.2 58.93 429.445 58.2 429.635C57.47 429.815 56.625 429.93 55.665 429.98L55.11 428.51C55.96 428.47 56.68 428.39 57.27 428.27C57.86 428.14 58.335 427.985 58.695 427.805C59.065 427.615 59.335 427.405 59.505 427.175C59.675 426.945 59.76 426.71 59.76 426.47V426.185ZM60.24 426.185H61.995V426.47C61.995 426.71 62.075 426.945 62.235 427.175C62.405 427.405 62.675 427.615 63.045 427.805C63.415 427.985 63.895 428.14 64.485 428.27C65.085 428.39 65.805 428.47 66.645 428.51L66.09 429.98C65.13 429.93 64.285 429.815 63.555 429.635C62.825 429.445 62.215 429.2 61.725 428.9C61.235 428.59 60.865 428.235 60.615 427.835C60.365 427.425 60.24 426.97 60.24 426.47V426.185ZM55.8 425.51H65.955V426.965H55.8V425.51ZM56.04 432.635H65.64V436.07H58.035V437.39H56.055V434.735H63.675V434.06H56.04V432.635ZM56.055 436.79H66.015V438.245H56.055V436.79ZM69.9588 425.195H78.7338V426.785H69.9588V425.195ZM68.4138 430.58H80.9988V432.17H68.4138V430.58ZM77.5488 425.195H79.5288V426.395C79.5288 427.055 79.5088 427.77 79.4688 428.54C79.4388 429.31 79.3138 430.195 79.0938 431.195L77.1288 431.015C77.3388 430.035 77.4588 429.185 77.4888 428.465C77.5288 427.735 77.5488 427.045 77.5488 426.395V425.195ZM69.9888 436.49H79.9188V438.08H69.9888V436.49ZM69.9888 433.355H71.9688V436.64H69.9888V433.355ZM87.3193 427.895H96.8593V429.485H87.3193V427.895ZM87.3193 424.805H89.3293V428.75H87.3193V424.805ZM85.6993 430.46H98.2543V432.05H85.6993V430.46ZM90.9043 433.61H92.5993V433.88C92.5993 434.45 92.4843 434.98 92.2543 435.47C92.0243 435.96 91.6793 436.395 91.2193 436.775C90.7693 437.155 90.2093 437.47 89.5393 437.72C88.8793 437.98 88.1143 438.165 87.2443 438.275L86.5393 436.76C87.2993 436.68 87.9543 436.545 88.5043 436.355C89.0543 436.165 89.5043 435.94 89.8543 435.68C90.2043 435.42 90.4643 435.135 90.6343 434.825C90.8143 434.515 90.9043 434.2 90.9043 433.88V433.61ZM91.2943 433.61H92.9893V433.88C92.9893 434.2 93.0743 434.515 93.2443 434.825C93.4243 435.135 93.6893 435.42 94.0393 435.68C94.3993 435.94 94.8543 436.165 95.4043 436.355C95.9643 436.545 96.6243 436.68 97.3843 436.76L96.6493 438.275C95.7893 438.165 95.0243 437.98 94.3543 437.72C93.6943 437.47 93.1343 437.155 92.6743 436.775C92.2243 436.395 91.8793 435.96 91.6393 435.47C91.4093 434.98 91.2943 434.45 91.2943 433.88V433.61ZM87.0793 433.04H96.8143V434.6H87.0793V433.04ZM109.533 424.43H111.438V438.32H109.533V424.43ZM104.043 429.755H106.998V431.345H104.043V429.755ZM106.608 424.73H108.468V437.705H106.608V424.73ZM103.593 426.065H105.513C105.513 427.385 105.358 428.615 105.048 429.755C104.738 430.895 104.213 431.94 103.473 432.89C102.743 433.84 101.728 434.69 100.428 435.44L99.3032 434.045C100.353 433.415 101.188 432.73 101.808 431.99C102.438 431.24 102.893 430.415 103.173 429.515C103.453 428.605 103.593 427.59 103.593 426.47V426.065ZM100.068 426.065H104.208V427.67H100.068V426.065Z" fill="#191F28"/>
        <path d="M320 438C327.732 438 334 431.732 334 424C334 416.268 327.732 410 320 410C312.268 410 306 416.268 306 424C306 431.732 312.268 438 320 438Z" fill="#FFE8E8" stroke="white" stroke-width="1.5"/>
        <path opacity="0.3" d="M320 425.5C322.485 425.5 324.5 423.485 324.5 421C324.5 418.515 322.485 416.5 320 416.5C317.515 416.5 315.5 418.515 315.5 421C315.5 423.485 317.515 425.5 320 425.5Z" fill="#FF6B6B"/>
        <path d="M338 438C345.732 438 352 431.732 352 424C352 416.268 345.732 410 338 410C330.268 410 324 416.268 324 424C324 431.732 330.268 438 338 438Z" fill="#E0ECFF" stroke="white" stroke-width="1.5"/>
        <path opacity="0.3" d="M338 425.5C340.485 425.5 342.5 423.485 342.5 421C342.5 418.515 340.485 416.5 338 416.5C335.515 416.5 333.5 418.515 333.5 421C333.5 423.485 335.515 425.5 338 425.5Z" fill="#4A90D9"/>
        <path d="M212 554H180C175.582 554 172 557.582 172 562V586C172 590.418 175.582 594 180 594H212C216.418 594 220 590.418 220 586V562C220 557.582 216.418 554 212 554Z" stroke="#E5E8EB" stroke-width="1.5"/>
        <path d="M184 550V560" stroke="#E5E8EB" stroke-width="1.5" stroke-linecap="round"/>
        <path d="M208 550V560" stroke="#E5E8EB" stroke-width="1.5" stroke-linecap="round"/>
        <path d="M172 568H220" stroke="#E5E8EB"/>
        <path d="M149.815 604.422H150.977V617.106H149.815V604.422ZM150.711 609.42H153.049V610.386H150.711V609.42ZM141.793 612.962H142.787C143.562 612.962 144.271 612.953 144.915 612.934C145.568 612.906 146.194 612.859 146.791 612.794C147.398 612.729 148.014 612.64 148.639 612.528L148.779 613.522C148.126 613.634 147.491 613.723 146.875 613.788C146.268 613.853 145.634 613.895 144.971 613.914C144.308 613.933 143.58 613.942 142.787 613.942H141.793V612.962ZM141.793 605.654H147.659V606.606H142.941V613.41H141.793V605.654ZM154.112 611.436H165.592V612.388H154.112V611.436ZM155.624 615.86H164.402V616.812H155.624V615.86ZM155.624 613.382H156.786V616.21H155.624V613.382ZM155.568 604.842H164.122V607.992H156.744V609.686H155.596V607.124H162.974V605.766H155.568V604.842ZM155.596 609.378H164.388V610.288H155.596V609.378ZM174.498 604.884C175.133 604.884 175.693 605.005 176.178 605.248C176.673 605.481 177.06 605.808 177.34 606.228C177.62 606.648 177.76 607.138 177.76 607.698C177.76 608.249 177.62 608.739 177.34 609.168C177.06 609.588 176.673 609.915 176.178 610.148C175.693 610.381 175.133 610.498 174.498 610.498C173.873 610.498 173.313 610.381 172.818 610.148C172.324 609.915 171.932 609.588 171.642 609.168C171.362 608.739 171.222 608.249 171.222 607.698C171.222 607.138 171.362 606.648 171.642 606.228C171.932 605.808 172.324 605.481 172.818 605.248C173.313 605.005 173.873 604.884 174.498 604.884ZM174.498 605.85C174.088 605.85 173.719 605.929 173.392 606.088C173.075 606.237 172.823 606.452 172.636 606.732C172.45 607.012 172.356 607.334 172.356 607.698C172.356 608.062 172.45 608.384 172.636 608.664C172.823 608.935 173.075 609.149 173.392 609.308C173.719 609.467 174.088 609.546 174.498 609.546C174.909 609.546 175.273 609.467 175.59 609.308C175.917 609.149 176.174 608.935 176.36 608.664C176.547 608.384 176.64 608.062 176.64 607.698C176.64 607.334 176.547 607.012 176.36 606.732C176.174 606.452 175.917 606.237 175.59 606.088C175.273 605.929 174.909 605.85 174.498 605.85ZM180.154 604.422H181.316V610.904H180.154V604.422ZM173.126 611.534H181.316V614.6H174.288V616.504H173.168V613.732H180.168V612.458H173.126V611.534ZM173.168 615.986H181.75V616.924H173.168V615.986ZM190.583 607.712H193.425V608.678H190.583V607.712ZM193.075 604.422H194.237V611.968H193.075V604.422ZM190.065 612.36C190.942 612.36 191.694 612.453 192.319 612.64C192.954 612.827 193.439 613.097 193.775 613.452C194.111 613.797 194.279 614.222 194.279 614.726C194.279 615.473 193.901 616.051 193.145 616.462C192.398 616.873 191.372 617.078 190.065 617.078C188.758 617.078 187.727 616.873 186.971 616.462C186.224 616.051 185.851 615.473 185.851 614.726C185.851 614.222 186.019 613.797 186.355 613.452C186.7 613.097 187.186 612.827 187.811 612.64C188.446 612.453 189.197 612.36 190.065 612.36ZM190.065 613.27C189.43 613.27 188.884 613.326 188.427 613.438C187.97 613.55 187.615 613.713 187.363 613.928C187.12 614.143 186.999 614.409 186.999 614.726C186.999 615.025 187.12 615.281 187.363 615.496C187.615 615.711 187.97 615.879 188.427 616C188.884 616.112 189.43 616.168 190.065 616.168C190.709 616.168 191.255 616.112 191.703 616C192.16 615.879 192.51 615.711 192.753 615.496C193.005 615.281 193.131 615.025 193.131 614.726C193.131 614.409 193.005 614.143 192.753 613.928C192.51 613.713 192.16 613.55 191.703 613.438C191.255 613.326 190.709 613.27 190.065 613.27ZM187.041 605.71H187.993V606.732C187.993 607.507 187.844 608.235 187.545 608.916C187.256 609.588 186.845 610.181 186.313 610.694C185.781 611.198 185.165 611.585 184.465 611.856L183.863 610.932C184.339 610.764 184.768 610.535 185.151 610.246C185.543 609.957 185.879 609.625 186.159 609.252C186.448 608.879 186.668 608.477 186.817 608.048C186.966 607.619 187.041 607.18 187.041 606.732V605.71ZM187.265 605.71H188.217V606.718C188.217 607.259 188.343 607.787 188.595 608.3C188.847 608.813 189.206 609.266 189.673 609.658C190.14 610.05 190.676 610.358 191.283 610.582L190.695 611.506C190.004 611.254 189.402 610.89 188.889 610.414C188.376 609.929 187.974 609.369 187.685 608.734C187.405 608.099 187.265 607.427 187.265 606.718V605.71ZM184.227 605.346H190.989V606.298H184.227V605.346ZM205.898 604.422H207.06V617.106H205.898V604.422ZM200.382 605.402C201.007 605.402 201.558 605.584 202.034 605.948C202.519 606.303 202.897 606.811 203.168 607.474C203.448 608.137 203.588 608.916 203.588 609.812C203.588 610.708 203.448 611.487 203.168 612.15C202.897 612.813 202.519 613.326 202.034 613.69C201.558 614.054 201.007 614.236 200.382 614.236C199.757 614.236 199.201 614.054 198.716 613.69C198.231 613.326 197.848 612.813 197.568 612.15C197.297 611.487 197.162 610.708 197.162 609.812C197.162 608.916 197.297 608.137 197.568 607.474C197.848 606.811 198.231 606.303 198.716 605.948C199.201 605.584 199.757 605.402 200.382 605.402ZM200.382 606.438C199.962 606.438 199.593 606.578 199.276 606.858C198.968 607.129 198.725 607.521 198.548 608.034C198.371 608.538 198.282 609.131 198.282 609.812C198.282 610.493 198.371 611.091 198.548 611.604C198.725 612.108 198.968 612.5 199.276 612.78C199.593 613.06 199.962 613.2 200.382 613.2C200.793 613.2 201.152 613.06 201.46 612.78C201.777 612.5 202.025 612.108 202.202 611.604C202.379 611.091 202.468 610.493 202.468 609.812C202.468 609.131 202.379 608.538 202.202 608.034C202.025 607.521 201.777 607.129 201.46 606.858C201.152 606.578 200.793 606.438 200.382 606.438ZM214.958 611.856H216.05V613.424H218.262V611.856H219.34V616.924H214.958V611.856ZM216.05 614.306V616.014H218.262V614.306H216.05ZM221.79 611.772H222.7V612.836C222.7 613.405 222.602 613.965 222.406 614.516C222.21 615.057 221.916 615.547 221.524 615.986C221.142 616.425 220.661 616.77 220.082 617.022L219.494 616.14C219.998 615.925 220.423 615.641 220.768 615.286C221.114 614.931 221.37 614.539 221.538 614.11C221.706 613.681 221.79 613.256 221.79 612.836V611.772ZM222.042 611.772H222.938V612.836C222.938 613.284 223.022 613.727 223.19 614.166C223.368 614.595 223.629 614.983 223.974 615.328C224.32 615.673 224.744 615.944 225.248 616.14L224.646 617.022C224.058 616.779 223.573 616.443 223.19 616.014C222.808 615.585 222.518 615.095 222.322 614.544C222.136 613.993 222.042 613.424 222.042 612.836V611.772ZM219.872 607.39H223.274V608.356H219.872V607.39ZM216.974 604.982C217.6 604.982 218.155 605.108 218.64 605.36C219.135 605.603 219.522 605.943 219.802 606.382C220.082 606.811 220.222 607.315 220.222 607.894C220.222 608.463 220.082 608.972 219.802 609.42C219.522 609.859 219.135 610.204 218.64 610.456C218.155 610.699 217.6 610.82 216.974 610.82C216.34 610.82 215.775 610.699 215.28 610.456C214.795 610.204 214.412 609.859 214.132 609.42C213.852 608.972 213.712 608.463 213.712 607.894C213.712 607.315 213.852 606.811 214.132 606.382C214.412 605.943 214.795 605.603 215.28 605.36C215.775 605.108 216.34 604.982 216.974 604.982ZM216.974 605.948C216.554 605.948 216.181 606.032 215.854 606.2C215.537 606.359 215.285 606.587 215.098 606.886C214.912 607.175 214.818 607.511 214.818 607.894C214.818 608.277 214.912 608.617 215.098 608.916C215.285 609.205 215.537 609.434 215.854 609.602C216.181 609.77 216.554 609.854 216.974 609.854C217.385 609.854 217.749 609.77 218.066 609.602C218.393 609.434 218.65 609.205 218.836 608.916C219.023 608.617 219.116 608.277 219.116 607.894C219.116 607.511 219.023 607.175 218.836 606.886C218.65 606.587 218.393 606.359 218.066 606.2C217.749 606.032 217.385 605.948 216.974 605.948ZM222.77 604.422H223.932V611.128H222.77V604.422ZM229.769 605.402C230.385 605.402 230.931 605.584 231.407 605.948C231.883 606.303 232.252 606.811 232.513 607.474C232.784 608.137 232.919 608.916 232.919 609.812C232.919 610.708 232.784 611.487 232.513 612.15C232.252 612.813 231.883 613.326 231.407 613.69C230.931 614.054 230.385 614.236 229.769 614.236C229.163 614.236 228.617 614.054 228.131 613.69C227.655 613.326 227.282 612.813 227.011 612.15C226.75 611.487 226.619 610.708 226.619 609.812C226.619 608.916 226.75 608.137 227.011 607.474C227.282 606.811 227.655 606.303 228.131 605.948C228.617 605.584 229.163 605.402 229.769 605.402ZM229.769 606.438C229.368 606.438 229.013 606.578 228.705 606.858C228.397 607.129 228.155 607.521 227.977 608.034C227.809 608.538 227.725 609.131 227.725 609.812C227.725 610.493 227.809 611.091 227.977 611.604C228.155 612.108 228.397 612.5 228.705 612.78C229.013 613.06 229.368 613.2 229.769 613.2C230.18 613.2 230.539 613.06 230.847 612.78C231.155 612.5 231.393 612.108 231.561 611.604C231.739 611.091 231.827 610.493 231.827 609.812C231.827 609.131 231.739 608.538 231.561 608.034C231.393 607.521 231.155 607.129 230.847 606.858C230.539 606.578 230.18 606.438 229.769 606.438ZM235.663 604.422H236.811V617.106H235.663V604.422ZM232.541 609.252H236.181V610.19H232.541V609.252ZM242.088 610.946H243.236V614.726H242.088V610.946ZM246.764 610.946H247.926V614.726H246.764V610.946ZM239.274 614.502H250.754V615.468H239.274V614.502ZM244.986 605.22C245.882 605.22 246.676 605.355 247.366 605.626C248.057 605.897 248.598 606.275 248.99 606.76C249.392 607.245 249.592 607.819 249.592 608.482C249.592 609.135 249.392 609.709 248.99 610.204C248.598 610.689 248.057 611.067 247.366 611.338C246.676 611.599 245.882 611.73 244.986 611.73C244.1 611.73 243.306 611.599 242.606 611.338C241.916 611.067 241.374 610.689 240.982 610.204C240.59 609.709 240.394 609.135 240.394 608.482C240.394 607.819 240.59 607.245 240.982 606.76C241.374 606.275 241.916 605.897 242.606 605.626C243.306 605.355 244.1 605.22 244.986 605.22ZM244.986 606.144C244.314 606.144 243.717 606.242 243.194 606.438C242.672 606.634 242.261 606.909 241.962 607.264C241.664 607.609 241.514 608.015 241.514 608.482C241.514 608.949 241.664 609.359 241.962 609.714C242.261 610.059 242.672 610.33 243.194 610.526C243.717 610.722 244.314 610.82 244.986 610.82C245.668 610.82 246.27 610.722 246.792 610.526C247.315 610.33 247.726 610.059 248.024 609.714C248.323 609.359 248.472 608.949 248.472 608.482C248.472 608.015 248.323 607.609 248.024 607.264C247.726 606.909 247.315 606.634 246.792 606.438C246.27 606.242 245.668 606.144 244.986 606.144Z" fill="#D1D6DB"/>
        <path d="M117.259 834C117.212 833.604 117.022 833.297 116.689 833.078C116.356 832.859 115.947 832.75 115.462 832.75C115.108 832.75 114.798 832.807 114.533 832.922C114.27 833.036 114.064 833.194 113.916 833.395C113.77 833.595 113.697 833.823 113.697 834.078C113.697 834.292 113.748 834.475 113.849 834.629C113.953 834.78 114.086 834.906 114.248 835.008C114.409 835.107 114.578 835.189 114.755 835.254C114.932 835.316 115.095 835.367 115.244 835.406L116.056 835.625C116.264 835.68 116.496 835.755 116.751 835.852C117.009 835.948 117.255 836.079 117.49 836.246C117.727 836.41 117.922 836.621 118.076 836.879C118.229 837.137 118.306 837.453 118.306 837.828C118.306 838.26 118.193 838.651 117.966 839C117.742 839.349 117.414 839.626 116.982 839.832C116.552 840.038 116.03 840.141 115.416 840.141C114.843 840.141 114.347 840.048 113.927 839.863C113.511 839.678 113.182 839.421 112.943 839.09C112.706 838.759 112.572 838.375 112.541 837.938H113.541C113.567 838.24 113.668 838.49 113.845 838.687C114.025 838.883 114.251 839.029 114.525 839.125C114.801 839.219 115.098 839.266 115.416 839.266C115.785 839.266 116.117 839.206 116.412 839.086C116.706 838.964 116.939 838.794 117.111 838.578C117.283 838.359 117.369 838.104 117.369 837.812C117.369 837.547 117.294 837.331 117.146 837.164C116.998 836.997 116.802 836.862 116.56 836.758C116.318 836.654 116.056 836.562 115.775 836.484L114.791 836.203C114.166 836.023 113.671 835.767 113.306 835.434C112.942 835.1 112.759 834.664 112.759 834.125C112.759 833.677 112.88 833.286 113.123 832.953C113.367 832.617 113.695 832.357 114.107 832.172C114.521 831.984 114.983 831.891 115.494 831.891C116.009 831.891 116.468 831.983 116.869 832.168C117.27 832.35 117.587 832.6 117.822 832.918C118.059 833.236 118.184 833.596 118.197 834H117.259ZM122.258 840.109C121.8 840.109 121.387 840.018 121.02 839.836C120.653 839.654 120.359 839.404 120.137 839.086C119.916 838.768 119.795 838.406 119.774 838H120.711C120.748 838.362 120.912 838.661 121.204 838.898C121.498 839.133 121.849 839.25 122.258 839.25C122.586 839.25 122.878 839.173 123.133 839.02C123.391 838.866 123.593 838.655 123.739 838.387C123.887 838.116 123.961 837.81 123.961 837.469C123.961 837.12 123.885 836.809 123.731 836.535C123.58 836.259 123.372 836.042 123.106 835.883C122.84 835.724 122.537 835.643 122.196 835.641C121.951 835.638 121.7 835.676 121.442 835.754C121.184 835.829 120.972 835.927 120.805 836.047L119.899 835.937L120.383 832H124.54V832.859H121.196L120.915 835.219H120.961C121.125 835.089 121.331 834.98 121.579 834.895C121.826 834.809 122.084 834.766 122.352 834.766C122.842 834.766 123.278 834.883 123.661 835.117C124.046 835.349 124.348 835.667 124.567 836.07C124.788 836.474 124.899 836.935 124.899 837.453C124.899 837.964 124.784 838.419 124.555 838.82C124.329 839.219 124.016 839.534 123.618 839.766C123.219 839.995 122.766 840.109 122.258 840.109ZM129.904 835.57V836.43H126.404V835.57H129.904ZM134.323 832V840H133.354V833.016H133.307L131.354 834.312V833.328L133.354 832H134.323ZM149.889 835.57V836.43H138.889V835.57H149.889ZM156.42 840H153.952V832H156.53C157.306 832 157.97 832.16 158.522 832.48C159.074 832.798 159.497 833.255 159.792 833.852C160.086 834.445 160.233 835.156 160.233 835.984C160.233 836.818 160.084 837.535 159.788 838.137C159.491 838.736 159.058 839.197 158.491 839.52C157.923 839.84 157.233 840 156.42 840ZM154.92 839.141H156.358C157.019 839.141 157.568 839.013 158.002 838.758C158.437 838.503 158.762 838.139 158.975 837.668C159.189 837.197 159.295 836.635 159.295 835.984C159.295 835.339 159.19 834.783 158.979 834.316C158.768 833.848 158.453 833.488 158.034 833.238C157.614 832.986 157.092 832.859 156.467 832.859H154.92V839.141ZM163.499 840.141C163.118 840.141 162.773 840.069 162.463 839.926C162.153 839.78 161.907 839.57 161.725 839.297C161.543 839.021 161.452 838.687 161.452 838.297C161.452 837.953 161.519 837.674 161.655 837.461C161.79 837.245 161.971 837.076 162.198 836.953C162.424 836.831 162.674 836.74 162.948 836.68C163.224 836.617 163.501 836.568 163.78 836.531C164.144 836.484 164.44 836.449 164.667 836.426C164.896 836.4 165.062 836.357 165.167 836.297C165.273 836.237 165.327 836.133 165.327 835.984V835.953C165.327 835.568 165.221 835.268 165.01 835.055C164.802 834.841 164.486 834.734 164.061 834.734C163.621 834.734 163.276 834.831 163.026 835.023C162.776 835.216 162.6 835.422 162.499 835.641L161.624 835.328C161.78 834.964 161.988 834.68 162.249 834.477C162.512 834.271 162.798 834.128 163.108 834.047C163.42 833.964 163.728 833.922 164.03 833.922C164.222 833.922 164.444 833.945 164.694 833.992C164.946 834.036 165.19 834.129 165.424 834.27C165.661 834.41 165.858 834.622 166.014 834.906C166.17 835.19 166.249 835.57 166.249 836.047V840H165.327V839.187H165.28C165.217 839.318 165.113 839.457 164.967 839.605C164.821 839.754 164.627 839.88 164.385 839.984C164.143 840.089 163.847 840.141 163.499 840.141ZM163.639 839.312C164.004 839.312 164.311 839.241 164.561 839.098C164.814 838.954 165.004 838.77 165.131 838.543C165.262 838.316 165.327 838.078 165.327 837.828V836.984C165.288 837.031 165.202 837.074 165.069 837.113C164.939 837.15 164.788 837.182 164.616 837.211C164.446 837.237 164.281 837.26 164.12 837.281C163.961 837.299 163.832 837.315 163.733 837.328C163.493 837.359 163.269 837.41 163.061 837.48C162.855 837.548 162.689 837.651 162.561 837.789C162.436 837.924 162.374 838.109 162.374 838.344C162.374 838.664 162.492 838.906 162.729 839.07C162.969 839.232 163.272 839.312 163.639 839.312ZM168.31 842.25C168.154 842.25 168.014 842.237 167.892 842.211C167.77 842.188 167.685 842.164 167.638 842.141L167.873 841.328C168.097 841.385 168.294 841.406 168.466 841.391C168.638 841.375 168.791 841.298 168.923 841.16C169.059 841.025 169.182 840.805 169.294 840.5L169.466 840.031L167.248 834H168.248L169.904 838.781H169.966L171.623 834H172.623L170.076 840.875C169.961 841.185 169.819 841.441 169.65 841.645C169.481 841.85 169.284 842.003 169.06 842.102C168.839 842.201 168.589 842.25 168.31 842.25ZM179.527 840H177.058V832H179.636C180.412 832 181.076 832.16 181.628 832.48C182.181 832.798 182.604 833.255 182.898 833.852C183.192 834.445 183.339 835.156 183.339 835.984C183.339 836.818 183.191 837.535 182.894 838.137C182.597 838.736 182.165 839.197 181.597 839.52C181.029 839.84 180.339 840 179.527 840ZM178.027 839.141H179.464C180.126 839.141 180.674 839.013 181.109 838.758C181.544 838.503 181.868 838.139 182.082 837.668C182.295 837.197 182.402 836.635 182.402 835.984C182.402 835.339 182.296 834.783 182.085 834.316C181.875 833.848 181.559 833.488 181.14 833.238C180.721 832.986 180.199 832.859 179.574 832.859H178.027V839.141ZM187.355 840.125C186.777 840.125 186.278 839.997 185.859 839.742C185.442 839.484 185.121 839.125 184.894 838.664C184.67 838.201 184.558 837.661 184.558 837.047C184.558 836.432 184.67 835.891 184.894 835.422C185.121 834.951 185.436 834.583 185.839 834.32C186.246 834.055 186.72 833.922 187.261 833.922C187.574 833.922 187.882 833.974 188.187 834.078C188.492 834.182 188.769 834.352 189.019 834.586C189.269 834.818 189.468 835.125 189.617 835.508C189.765 835.891 189.839 836.362 189.839 836.922V837.312H185.214V836.516H188.902C188.902 836.177 188.834 835.875 188.699 835.609C188.566 835.344 188.376 835.134 188.128 834.98C187.884 834.827 187.595 834.75 187.261 834.75C186.894 834.75 186.576 834.841 186.308 835.023C186.042 835.203 185.838 835.437 185.695 835.727C185.552 836.016 185.48 836.326 185.48 836.656V837.188C185.48 837.641 185.558 838.025 185.714 838.34C185.873 838.652 186.093 838.891 186.375 839.055C186.656 839.216 186.983 839.297 187.355 839.297C187.597 839.297 187.816 839.263 188.011 839.195C188.209 839.125 188.38 839.021 188.523 838.883C188.666 838.742 188.777 838.568 188.855 838.359L189.746 838.609C189.652 838.911 189.494 839.177 189.273 839.406C189.052 839.633 188.778 839.81 188.453 839.937C188.127 840.063 187.761 840.125 187.355 840.125ZM193.851 834V834.781H190.742V834H193.851ZM191.648 832.562H192.57V838.281C192.57 838.542 192.608 838.737 192.683 838.867C192.761 838.995 192.86 839.081 192.98 839.125C193.102 839.167 193.231 839.187 193.367 839.187C193.468 839.187 193.552 839.182 193.617 839.172C193.682 839.159 193.734 839.148 193.773 839.141L193.96 839.969C193.898 839.992 193.811 840.016 193.699 840.039C193.587 840.065 193.445 840.078 193.273 840.078C193.013 840.078 192.757 840.022 192.507 839.91C192.26 839.798 192.054 839.628 191.89 839.398C191.729 839.169 191.648 838.88 191.648 838.531V832.562ZM197.003 840.141C196.623 840.141 196.278 840.069 195.968 839.926C195.658 839.78 195.412 839.57 195.23 839.297C195.048 839.021 194.957 838.687 194.957 838.297C194.957 837.953 195.024 837.674 195.16 837.461C195.295 837.245 195.476 837.076 195.703 836.953C195.929 836.831 196.179 836.74 196.453 836.68C196.729 836.617 197.006 836.568 197.285 836.531C197.649 836.484 197.945 836.449 198.171 836.426C198.401 836.4 198.567 836.357 198.671 836.297C198.778 836.237 198.832 836.133 198.832 835.984V835.953C198.832 835.568 198.726 835.268 198.515 835.055C198.307 834.841 197.99 834.734 197.566 834.734C197.126 834.734 196.781 834.831 196.531 835.023C196.281 835.216 196.105 835.422 196.003 835.641L195.128 835.328C195.285 834.964 195.493 834.68 195.753 834.477C196.016 834.271 196.303 834.128 196.613 834.047C196.925 833.964 197.233 833.922 197.535 833.922C197.727 833.922 197.949 833.945 198.199 833.992C198.451 834.036 198.695 834.129 198.929 834.27C199.166 834.41 199.363 834.622 199.519 834.906C199.675 835.19 199.753 835.57 199.753 836.047V840H198.832V839.187H198.785C198.722 839.318 198.618 839.457 198.472 839.605C198.326 839.754 198.132 839.88 197.89 839.984C197.648 840.089 197.352 840.141 197.003 840.141ZM197.144 839.312C197.509 839.312 197.816 839.241 198.066 839.098C198.319 838.954 198.509 838.77 198.636 838.543C198.766 838.316 198.832 838.078 198.832 837.828V836.984C198.792 837.031 198.707 837.074 198.574 837.113C198.444 837.15 198.292 837.182 198.121 837.211C197.951 837.237 197.786 837.26 197.625 837.281C197.466 837.299 197.337 837.315 197.238 837.328C196.998 837.359 196.774 837.41 196.566 837.48C196.36 837.548 196.194 837.651 196.066 837.789C195.941 837.924 195.878 838.109 195.878 838.344C195.878 838.664 195.997 838.906 196.234 839.07C196.473 839.232 196.777 839.312 197.144 839.312ZM201.436 840V834H202.358V840H201.436ZM201.905 833C201.725 833 201.57 832.939 201.44 832.816C201.312 832.694 201.249 832.547 201.249 832.375C201.249 832.203 201.312 832.056 201.44 831.934C201.57 831.811 201.725 831.75 201.905 831.75C202.084 831.75 202.238 831.811 202.366 831.934C202.496 832.056 202.561 832.203 202.561 832.375C202.561 832.547 202.496 832.694 202.366 832.816C202.238 832.939 202.084 833 201.905 833ZM204.968 832V840H204.046V832H204.968ZM209.875 840V832H212.672C213.23 832 213.689 832.096 214.051 832.289C214.413 832.479 214.683 832.736 214.86 833.059C215.037 833.379 215.125 833.734 215.125 834.125C215.125 834.469 215.064 834.753 214.942 834.977C214.822 835.201 214.663 835.378 214.465 835.508C214.27 835.638 214.058 835.734 213.829 835.797V835.875C214.073 835.891 214.319 835.977 214.567 836.133C214.814 836.289 215.021 836.513 215.188 836.805C215.355 837.096 215.438 837.453 215.438 837.875C215.438 838.276 215.347 838.637 215.165 838.957C214.982 839.277 214.694 839.531 214.301 839.719C213.908 839.906 213.396 840 212.766 840H209.875ZM210.844 839.141H212.766C213.399 839.141 213.848 839.018 214.114 838.773C214.382 838.526 214.516 838.227 214.516 837.875C214.516 837.604 214.447 837.354 214.309 837.125C214.171 836.893 213.974 836.708 213.719 836.57C213.464 836.43 213.162 836.359 212.813 836.359H210.844V839.141ZM210.844 835.516H212.641C212.933 835.516 213.196 835.458 213.43 835.344C213.667 835.229 213.855 835.068 213.993 834.859C214.133 834.651 214.204 834.406 214.204 834.125C214.204 833.773 214.081 833.475 213.836 833.23C213.592 832.983 213.204 832.859 212.672 832.859H210.844V835.516ZM219.342 840.125C218.801 840.125 218.325 839.996 217.917 839.738C217.51 839.48 217.193 839.12 216.963 838.656C216.737 838.193 216.624 837.651 216.624 837.031C216.624 836.406 216.737 835.861 216.963 835.395C217.193 834.928 217.51 834.566 217.917 834.309C218.325 834.051 218.801 833.922 219.342 833.922C219.884 833.922 220.358 834.051 220.764 834.309C221.173 834.566 221.491 834.928 221.717 835.395C221.946 835.861 222.061 836.406 222.061 837.031C222.061 837.651 221.946 838.193 221.717 838.656C221.491 839.12 221.173 839.48 220.764 839.738C220.358 839.996 219.884 840.125 219.342 840.125ZM219.342 839.297C219.754 839.297 220.092 839.191 220.358 838.98C220.624 838.77 220.82 838.492 220.948 838.148C221.075 837.805 221.139 837.432 221.139 837.031C221.139 836.63 221.075 836.257 220.948 835.91C220.82 835.564 220.624 835.284 220.358 835.07C220.092 834.857 219.754 834.75 219.342 834.75C218.931 834.75 218.592 834.857 218.327 835.07C218.061 835.284 217.864 835.564 217.737 835.91C217.609 836.257 217.545 836.63 217.545 837.031C217.545 837.432 217.609 837.805 217.737 838.148C217.864 838.492 218.061 838.77 218.327 838.98C218.592 839.191 218.931 839.297 219.342 839.297ZM226.078 834V834.781H222.968V834H226.078ZM223.875 832.562H224.796V838.281C224.796 838.542 224.834 838.737 224.91 838.867C224.988 838.995 225.087 839.081 225.207 839.125C225.329 839.167 225.458 839.187 225.593 839.187C225.695 839.187 225.778 839.182 225.843 839.172C225.908 839.159 225.96 839.148 226 839.141L226.187 839.969C226.125 839.992 226.037 840.016 225.925 840.039C225.813 840.065 225.671 840.078 225.5 840.078C225.239 840.078 224.984 840.022 224.734 839.91C224.486 839.798 224.281 839.628 224.117 839.398C223.955 839.169 223.875 838.88 223.875 838.531V832.562ZM230.074 834V834.781H226.964V834H230.074ZM227.871 832.562H228.792V838.281C228.792 838.542 228.83 838.737 228.906 838.867C228.984 838.995 229.083 839.081 229.203 839.125C229.325 839.167 229.454 839.187 229.589 839.187C229.691 839.187 229.774 839.182 229.839 839.172C229.904 839.159 229.957 839.148 229.996 839.141L230.183 839.969C230.121 839.992 230.033 840.016 229.921 840.039C229.809 840.065 229.667 840.078 229.496 840.078C229.235 840.078 228.98 840.022 228.73 839.91C228.483 839.798 228.277 839.628 228.113 839.398C227.951 839.169 227.871 838.88 227.871 838.531V832.562ZM233.833 840.125C233.292 840.125 232.817 839.996 232.408 839.738C232.001 839.48 231.684 839.12 231.455 838.656C231.228 838.193 231.115 837.651 231.115 837.031C231.115 836.406 231.228 835.861 231.455 835.395C231.684 834.928 232.001 834.566 232.408 834.309C232.817 834.051 233.292 833.922 233.833 833.922C234.375 833.922 234.849 834.051 235.255 834.309C235.664 834.566 235.982 834.928 236.208 835.395C236.438 835.861 236.552 836.406 236.552 837.031C236.552 837.651 236.438 838.193 236.208 838.656C235.982 839.12 235.664 839.48 235.255 839.738C234.849 839.996 234.375 840.125 233.833 840.125ZM233.833 839.297C234.245 839.297 234.583 839.191 234.849 838.98C235.115 838.77 235.311 838.492 235.439 838.148C235.567 837.805 235.63 837.432 235.63 837.031C235.63 836.63 235.567 836.257 235.439 835.91C235.311 835.564 235.115 835.284 234.849 835.07C234.583 834.857 234.245 834.75 233.833 834.75C233.422 834.75 233.083 834.857 232.818 835.07C232.552 835.284 232.356 835.564 232.228 835.91C232.1 836.257 232.037 836.63 232.037 837.031C232.037 837.432 232.1 837.805 232.228 838.148C232.356 838.492 232.552 838.77 232.818 838.98C233.083 839.191 233.422 839.297 233.833 839.297ZM237.959 840V834H238.85V834.937H238.928C239.053 834.617 239.255 834.368 239.534 834.191C239.812 834.012 240.147 833.922 240.538 833.922C240.933 833.922 241.263 834.012 241.526 834.191C241.792 834.368 241.999 834.617 242.147 834.937H242.209C242.363 834.628 242.594 834.382 242.901 834.199C243.208 834.014 243.577 833.922 244.006 833.922C244.543 833.922 244.982 834.09 245.323 834.426C245.664 834.759 245.834 835.279 245.834 835.984V840H244.913V835.984C244.913 835.542 244.792 835.225 244.549 835.035C244.307 834.845 244.022 834.75 243.694 834.75C243.272 834.75 242.945 834.878 242.713 835.133C242.482 835.385 242.366 835.706 242.366 836.094V840H241.428V835.891C241.428 835.549 241.318 835.275 241.096 835.066C240.875 834.855 240.59 834.75 240.241 834.75C240.001 834.75 239.777 834.814 239.569 834.941C239.363 835.069 239.196 835.246 239.069 835.473C238.944 835.697 238.881 835.956 238.881 836.25V840H237.959ZM255.114 834C255.067 833.604 254.877 833.297 254.543 833.078C254.21 832.859 253.801 832.75 253.317 832.75C252.963 832.75 252.653 832.807 252.387 832.922C252.124 833.036 251.918 833.194 251.77 833.395C251.624 833.595 251.551 833.823 251.551 834.078C251.551 834.292 251.602 834.475 251.704 834.629C251.808 834.78 251.941 834.906 252.102 835.008C252.264 835.107 252.433 835.189 252.61 835.254C252.787 835.316 252.95 835.367 253.098 835.406L253.911 835.625C254.119 835.68 254.351 835.755 254.606 835.852C254.864 835.948 255.11 836.079 255.344 836.246C255.581 836.41 255.777 836.621 255.93 836.879C256.084 837.137 256.161 837.453 256.161 837.828C256.161 838.26 256.047 838.651 255.821 839C255.597 839.349 255.269 839.626 254.836 839.832C254.407 840.038 253.885 840.141 253.27 840.141C252.697 840.141 252.201 840.048 251.782 839.863C251.365 839.678 251.037 839.421 250.797 839.09C250.56 838.759 250.426 838.375 250.395 837.938H251.395C251.421 838.24 251.523 838.49 251.7 838.687C251.879 838.883 252.106 839.029 252.379 839.125C252.655 839.219 252.952 839.266 253.27 839.266C253.64 839.266 253.972 839.206 254.266 839.086C254.56 838.964 254.793 838.794 254.965 838.578C255.137 838.359 255.223 838.104 255.223 837.812C255.223 837.547 255.149 837.331 255 837.164C254.852 836.997 254.657 836.862 254.415 836.758C254.172 836.654 253.911 836.562 253.629 836.484L252.645 836.203C252.02 836.023 251.525 835.767 251.161 835.434C250.796 835.1 250.614 834.664 250.614 834.125C250.614 833.677 250.735 833.286 250.977 832.953C251.222 832.617 251.55 832.357 251.961 832.172C252.375 831.984 252.838 831.891 253.348 831.891C253.864 831.891 254.322 831.983 254.723 832.168C255.124 832.35 255.442 832.6 255.676 832.918C255.913 833.236 256.038 833.596 256.051 834H255.114ZM258.55 836.391V840H257.628V832H258.55V834.937H258.628C258.769 834.628 258.98 834.382 259.261 834.199C259.545 834.014 259.923 833.922 260.394 833.922C260.803 833.922 261.161 834.004 261.468 834.168C261.776 834.329 262.014 834.578 262.183 834.914C262.355 835.247 262.441 835.672 262.441 836.188V840H261.519V836.25C261.519 835.773 261.395 835.405 261.148 835.145C260.903 834.882 260.563 834.75 260.128 834.75C259.826 834.75 259.556 834.814 259.316 834.941C259.079 835.069 258.891 835.255 258.753 835.5C258.618 835.745 258.55 836.042 258.55 836.391ZM266.643 840.125C266.065 840.125 265.566 839.997 265.147 839.742C264.73 839.484 264.409 839.125 264.182 838.664C263.958 838.201 263.846 837.661 263.846 837.047C263.846 836.432 263.958 835.891 264.182 835.422C264.409 834.951 264.724 834.583 265.127 834.32C265.534 834.055 266.008 833.922 266.549 833.922C266.862 833.922 267.17 833.974 267.475 834.078C267.78 834.182 268.057 834.352 268.307 834.586C268.557 834.818 268.756 835.125 268.905 835.508C269.053 835.891 269.127 836.362 269.127 836.922V837.312H264.502V836.516H268.19C268.19 836.177 268.122 835.875 267.987 835.609C267.854 835.344 267.664 835.134 267.417 834.98C267.172 834.827 266.883 834.75 266.549 834.75C266.182 834.75 265.864 834.841 265.596 835.023C265.331 835.203 265.126 835.437 264.983 835.727C264.84 836.016 264.768 836.326 264.768 836.656V837.188C264.768 837.641 264.846 838.025 265.002 838.34C265.161 838.652 265.381 838.891 265.663 839.055C265.944 839.216 266.271 839.297 266.643 839.297C266.885 839.297 267.104 839.263 267.299 839.195C267.497 839.125 267.668 839.021 267.811 838.883C267.954 838.742 268.065 838.568 268.143 838.359L269.034 838.609C268.94 838.911 268.782 839.177 268.561 839.406C268.34 839.633 268.066 839.81 267.741 839.937C267.415 840.063 267.049 840.125 266.643 840.125ZM273.045 840.125C272.467 840.125 271.969 839.997 271.549 839.742C271.133 839.484 270.811 839.125 270.584 838.664C270.361 838.201 270.249 837.661 270.249 837.047C270.249 836.432 270.361 835.891 270.584 835.422C270.811 834.951 271.126 834.583 271.53 834.32C271.936 834.055 272.41 833.922 272.952 833.922C273.264 833.922 273.573 833.974 273.877 834.078C274.182 834.182 274.459 834.352 274.709 834.586C274.959 834.818 275.159 835.125 275.307 835.508C275.456 835.891 275.53 836.362 275.53 836.922V837.312H270.905V836.516H274.592C274.592 836.177 274.525 835.875 274.389 835.609C274.256 835.344 274.066 835.134 273.819 834.98C273.574 834.827 273.285 834.75 272.952 834.75C272.584 834.75 272.267 834.841 271.999 835.023C271.733 835.203 271.528 835.437 271.385 835.727C271.242 836.016 271.17 836.326 271.17 836.656V837.188C271.17 837.641 271.249 838.025 271.405 838.34C271.564 838.652 271.784 838.891 272.065 839.055C272.346 839.216 272.673 839.297 273.045 839.297C273.288 839.297 273.506 839.263 273.702 839.195C273.9 839.125 274.07 839.021 274.213 838.883C274.357 838.742 274.467 838.568 274.545 838.359L275.436 838.609C275.342 838.911 275.185 839.177 274.963 839.406C274.742 839.633 274.469 839.81 274.143 839.937C273.818 840.063 273.452 840.125 273.045 840.125ZM279.542 834V834.781H276.432V834H279.542ZM277.338 832.562H278.26V838.281C278.26 838.542 278.298 838.737 278.374 838.867C278.452 838.995 278.551 839.081 278.67 839.125C278.793 839.167 278.922 839.187 279.057 839.187C279.159 839.187 279.242 839.182 279.307 839.172C279.372 839.159 279.424 839.148 279.463 839.141L279.651 839.969C279.588 839.992 279.501 840.016 279.389 840.039C279.277 840.065 279.135 840.078 278.963 840.078C278.703 840.078 278.448 840.022 278.198 839.91C277.95 839.798 277.745 839.628 277.581 839.398C277.419 839.169 277.338 838.88 277.338 838.531V832.562Z" fill="white"/>
    </g>
    <defs>
        <clipPath id="clip0_54_862">
            <rect width="393" height="852" fill="white"/>
        </clipPath>
    </defs>
</svg>
