
<svg width="393" height="852" viewBox="0 0 393 852" fill="none" xmlns="http://www.w3.org/2000/svg">
<g clip-path="url(#clip0_54_1021)">
<path d="M393 0H0V852H393V0Z" fill="white"/>
<path d="M36.8313 23.9418C37.3924 23.9418 37.9322 24.0359 38.4506 24.2241C38.9727 24.4123 39.4379 24.7124 39.8462 25.1243C40.2582 25.5362 40.5831 26.0831 40.821 26.7649C41.0625 27.4432 41.185 28.2759 41.1886 29.2631C41.1886 30.19 41.0838 31.0174 40.8743 31.7454C40.6683 32.4698 40.3718 33.0859 39.9847 33.5938C39.5977 34.1016 39.1307 34.4886 38.5838 34.755C38.0369 35.0178 37.4261 35.1491 36.7514 35.1491C36.0234 35.1491 35.3807 35.0089 34.8232 34.7283C34.2656 34.4442 33.8164 34.0589 33.4755 33.5724C33.1381 33.0824 32.9339 32.532 32.8629 31.9212H35.1374C35.2262 32.3189 35.4126 32.6278 35.6967 32.848C35.9808 33.0646 36.3324 33.1729 36.7514 33.1729C37.4616 33.1729 38.0014 32.864 38.3707 32.2461C38.7401 31.6246 38.9265 30.7741 38.93 29.6946H38.8555C38.6921 30.0142 38.4719 30.2894 38.195 30.5202C37.918 30.7475 37.6001 30.9233 37.2415 31.0476C36.8864 31.1719 36.5082 31.234 36.1069 31.234C35.4641 31.234 34.8906 31.0831 34.3864 30.7812C33.8821 30.4794 33.4844 30.0639 33.1932 29.5348C32.902 29.0057 32.7564 28.402 32.7564 27.7237C32.7528 26.9922 32.9215 26.3406 33.2624 25.7688C33.6033 25.1971 34.0792 24.7496 34.69 24.4265C35.3043 24.0998 36.0181 23.9382 36.8313 23.9418ZM36.8473 25.7528C36.4886 25.7528 36.169 25.8381 35.8885 26.0085C35.6115 26.179 35.3913 26.408 35.228 26.6957C35.0682 26.9833 34.9901 27.3047 34.9936 27.6598C34.9936 28.0185 35.0717 28.3416 35.228 28.6293C35.3878 28.9134 35.6044 29.1406 35.8778 29.3111C36.1548 29.478 36.4709 29.5614 36.826 29.5614C37.0923 29.5614 37.3391 29.5117 37.5664 29.4123C37.7937 29.3129 37.9908 29.1761 38.1577 29.0021C38.3281 28.8246 38.4613 28.6204 38.5572 28.3896C38.6531 28.1587 38.701 27.9137 38.701 27.6545C38.6974 27.31 38.6158 26.994 38.456 26.7063C38.2962 26.4187 38.076 26.1879 37.7955 26.0138C37.5149 25.8398 37.1989 25.7528 36.8473 25.7528ZM44.1342 33.7322C43.7827 33.7322 43.4808 33.608 43.2287 33.3594C42.9801 33.1108 42.8558 32.8089 42.8558 32.4538C42.8558 32.1058 42.9801 31.8075 43.2287 31.5589C43.4808 31.3104 43.7827 31.1861 44.1342 31.1861C44.4751 31.1861 44.7734 31.3104 45.0291 31.5589C45.2848 31.8075 45.4126 32.1058 45.4126 32.4538C45.4126 32.6882 45.3523 32.9031 45.2315 33.0984C45.1143 33.2901 44.9599 33.4446 44.7681 33.5618C44.5763 33.6754 44.3651 33.7322 44.1342 33.7322ZM44.1342 28.3789C43.7827 28.3789 43.4808 28.2546 43.2287 28.006C42.9801 27.7575 42.8558 27.4556 42.8558 27.1005C42.8558 26.7525 42.9801 26.456 43.2287 26.2109C43.4808 25.9624 43.7827 25.8381 44.1342 25.8381C44.4751 25.8381 44.7734 25.9624 45.0291 26.2109C45.2848 26.456 45.4126 26.7525 45.4126 27.1005C45.4126 27.3384 45.3523 27.555 45.2315 27.7504C45.1143 27.9421 44.9599 28.0948 44.7681 28.2085C44.5763 28.3221 44.3651 28.3789 44.1342 28.3789ZM47.0892 33.0824V31.266L51.6436 24.0909H53.2096V26.6051H52.2828L49.4117 31.1488V31.234H55.8836V33.0824H47.0892ZM52.3254 35V32.5284L52.368 31.7241V24.0909H54.5306V35H52.3254ZM62.02 24.0909V35H59.7135V26.2802H59.6496L57.1514 27.8462V25.8008L59.852 24.0909H62.02Z" fill="#191F28"/>
<path d="M30 74L23 81L30 88" stroke="#191F28" stroke-width="2" stroke-linecap="round" stroke-linejoin="round"/>
<path d="M167.872 70.213C168.688 70.213 169.408 70.3717 170.031 70.689C170.666 70.995 171.165 71.42 171.527 71.964C171.901 72.4967 172.088 73.1143 172.088 73.817C172.088 74.5197 171.901 75.143 171.527 75.687C171.165 76.2197 170.666 76.639 170.031 76.945C169.408 77.251 168.688 77.404 167.872 77.404C167.079 77.404 166.365 77.251 165.73 76.945C165.096 76.639 164.591 76.2197 164.217 75.687C163.855 75.143 163.673 74.5197 163.673 73.817C163.673 73.1143 163.855 72.491 164.217 71.947C164.591 71.403 165.096 70.978 165.73 70.672C166.365 70.366 167.079 70.213 167.872 70.213ZM167.889 72.049C167.504 72.049 167.158 72.1227 166.852 72.27C166.546 72.406 166.303 72.6043 166.121 72.865C165.951 73.1257 165.866 73.443 165.866 73.817C165.866 74.191 165.951 74.514 166.121 74.786C166.303 75.0467 166.541 75.245 166.835 75.381C167.141 75.517 167.493 75.585 167.889 75.585C168.275 75.585 168.615 75.517 168.909 75.381C169.215 75.245 169.453 75.0467 169.623 74.786C169.805 74.514 169.895 74.191 169.895 73.817C169.895 73.443 169.805 73.1257 169.623 72.865C169.453 72.6043 169.215 72.406 168.909 72.27C168.603 72.1227 168.263 72.049 167.889 72.049ZM174.264 69.771H176.525V77.642H174.264V69.771ZM166.036 78.288H176.525V82.589H168.28V84.51H166.053V80.957H174.281V80.022H166.036V78.288ZM166.053 83.575H176.916V85.343H166.053V83.575ZM187.625 73.562H190.617V75.398H187.625V73.562ZM189.988 69.771H192.266V79.121H189.988V69.771ZM186.928 79.461C188.039 79.461 188.996 79.58 189.801 79.818C190.606 80.056 191.223 80.4017 191.654 80.855C192.096 81.3083 192.317 81.8523 192.317 82.487C192.317 83.4617 191.835 84.2097 190.872 84.731C189.909 85.2637 188.594 85.53 186.928 85.53C185.262 85.53 183.947 85.2637 182.984 84.731C182.021 84.2097 181.539 83.4617 181.539 82.487C181.539 81.8523 181.754 81.3083 182.185 80.855C182.627 80.4017 183.25 80.056 184.055 79.818C184.86 79.58 185.817 79.461 186.928 79.461ZM186.928 81.178C186.248 81.178 185.676 81.229 185.211 81.331C184.746 81.4217 184.389 81.5633 184.14 81.756C183.902 81.9487 183.783 82.1923 183.783 82.487C183.783 82.7817 183.902 83.031 184.14 83.235C184.389 83.4277 184.746 83.575 185.211 83.677C185.676 83.7677 186.248 83.813 186.928 83.813C187.608 83.813 188.18 83.7677 188.645 83.677C189.11 83.575 189.461 83.4277 189.699 83.235C189.937 83.031 190.056 82.7817 190.056 82.487C190.056 82.1923 189.937 81.9487 189.699 81.756C189.461 81.5633 189.11 81.4217 188.645 81.331C188.18 81.229 187.608 81.178 186.928 81.178ZM182.729 71.335H184.565V72.338C184.565 73.3353 184.406 74.2873 184.089 75.194C183.772 76.1007 183.284 76.8997 182.627 77.591C181.981 78.271 181.154 78.781 180.145 79.121L179.006 77.336C179.652 77.1207 180.207 76.8317 180.672 76.469C181.148 76.1063 181.533 75.704 181.828 75.262C182.134 74.8087 182.361 74.3327 182.508 73.834C182.655 73.3353 182.729 72.8367 182.729 72.338V71.335ZM183.205 71.335H185.007V72.321C185.007 72.9443 185.132 73.5563 185.381 74.157C185.63 74.7577 186.016 75.3017 186.537 75.789C187.07 76.2763 187.75 76.6617 188.577 76.945L187.472 78.713C186.497 78.3843 185.693 77.9027 185.058 77.268C184.435 76.622 183.97 75.874 183.664 75.024C183.358 74.1627 183.205 73.2617 183.205 72.321V71.335ZM179.618 70.723H188.084V72.508H179.618V70.723ZM198.681 76.962H212.91V78.798H198.681V76.962ZM200.398 74.089H211.295V75.874H200.398V74.089ZM200.398 70.179H211.21V71.998H202.642V74.973H200.398V70.179ZM205.736 79.716C207.436 79.716 208.774 79.971 209.748 80.481C210.723 80.9797 211.21 81.6937 211.21 82.623C211.21 83.541 210.723 84.2493 209.748 84.748C208.774 85.258 207.436 85.513 205.736 85.513C204.036 85.513 202.699 85.258 201.724 84.748C200.761 84.2493 200.279 83.541 200.279 82.623C200.279 81.6937 200.761 80.9797 201.724 80.481C202.699 79.971 204.036 79.716 205.736 79.716ZM205.736 81.433C205.034 81.433 204.444 81.4783 203.968 81.569C203.504 81.6483 203.152 81.7787 202.914 81.96C202.676 82.13 202.557 82.351 202.557 82.623C202.557 82.8837 202.676 83.1047 202.914 83.286C203.152 83.456 203.504 83.5863 203.968 83.677C204.444 83.7563 205.034 83.796 205.736 83.796C206.439 83.796 207.023 83.7563 207.487 83.677C207.963 83.5863 208.32 83.456 208.558 83.286C208.796 83.1047 208.915 82.8837 208.915 82.623C208.915 82.351 208.796 82.13 208.558 81.96C208.32 81.7787 207.963 81.6483 207.487 81.569C207.023 81.4783 206.439 81.433 205.736 81.433ZM214.303 78.203H228.549V79.988H214.303V78.203ZM216.037 70.06H226.815V74.327H218.298V76.027H216.071V72.729H224.588V71.777H216.037V70.06ZM216.071 75.364H227.121V77.081H216.071V75.364ZM220.304 76.197H222.548V79.172H220.304V76.197ZM215.867 80.872H226.917V85.462H224.656V82.674H215.867V80.872Z" fill="#191F28"/>
<path d="M29.642 116.471H30.695C30.695 117.32 30.6127 118.152 30.448 118.967C30.2833 119.773 30.0017 120.544 29.603 121.281C29.2043 122.009 28.6583 122.694 27.965 123.335C27.2717 123.976 26.4007 124.557 25.352 125.077L24.754 124.245C25.69 123.786 26.47 123.279 27.094 122.724C27.718 122.169 28.2163 121.571 28.589 120.93C28.9617 120.289 29.2303 119.604 29.395 118.876C29.5597 118.148 29.642 117.385 29.642 116.588V116.471ZM25.404 116.471H30.292V117.355H25.404V116.471ZM29.486 119.383V120.228L24.975 120.657L24.806 119.708L29.486 119.383ZM32.606 115.249H33.685V127.001H32.606V115.249ZM33.399 120.02H35.557V120.917H33.399V120.02ZM41.497 119.708H43.707V120.592H41.497V119.708ZM37.051 123.309H37.792C38.3987 123.309 38.936 123.3 39.404 123.283C39.872 123.266 40.3097 123.235 40.717 123.192C41.133 123.149 41.5533 123.084 41.978 122.997L42.082 123.881C41.64 123.968 41.2067 124.033 40.782 124.076C40.3573 124.119 39.9067 124.15 39.43 124.167C38.9533 124.184 38.4073 124.193 37.792 124.193H37.051V123.309ZM37.051 116.666H41.406V117.537H38.078V123.608H37.051V116.666ZM37.766 119.851H40.86V120.696H37.766V119.851ZM45.553 115.249H46.593V127.014H45.553V115.249ZM43.187 115.522H44.201V126.403H43.187V115.522ZM49.699 116.432H57.265V117.316H49.699V116.432ZM48.568 124.466H59.189V125.363H48.568V124.466ZM52.702 120.267H53.768V124.921H52.702V120.267ZM56.849 116.432H57.928V117.589C57.928 118.074 57.9193 118.586 57.902 119.123C57.8933 119.66 57.8586 120.25 57.798 120.891C57.746 121.532 57.6463 122.247 57.499 123.036L56.407 122.906C56.6323 121.779 56.7623 120.791 56.797 119.942C56.8316 119.084 56.849 118.3 56.849 117.589V116.432ZM69.094 115.249H70.16V127.027H69.094V115.249ZM61.203 123.283H62.178C62.8453 123.283 63.4866 123.274 64.102 123.257C64.726 123.231 65.3543 123.188 65.987 123.127C66.6283 123.066 67.2956 122.98 67.989 122.867L68.093 123.751C67.0356 123.924 66.039 124.041 65.103 124.102C64.167 124.154 63.192 124.18 62.178 124.18H61.203V123.283ZM61.177 116.341H66.611V120.54H62.295V123.621H61.203V119.669H65.519V117.225H61.177V116.341ZM76.1292 121.463H86.7892V122.334H76.1292V121.463ZM80.9912 121.905H82.0702V124.609H80.9912V121.905ZM77.4812 125.87H85.6062V126.754H77.4812V125.87ZM77.4812 123.556H78.5472V126.195H77.4812V123.556ZM77.5462 115.626H78.6122V117.121H84.3062V115.626H85.3722V120.332H77.5462V115.626ZM78.6122 117.953V119.461H84.3062V117.953H78.6122ZM88.0882 122.256H98.7482V123.127H88.0882V122.256ZM90.8572 122.737H91.9362V127.014H90.8572V122.737ZM94.9002 122.737H95.9792V127.014H94.9002V122.737ZM89.3622 115.704H97.4612V118.733H90.4802V120.761H89.4012V117.914H96.3692V116.588H89.3622V115.704ZM89.4012 120.176H97.7212V121.06H89.4012V120.176Z" fill="#4E5968"/>
<path d="M355 140H38C30.268 140 24 146.268 24 154V176C24 183.732 30.268 190 38 190H355C362.732 190 369 183.732 369 176V154C369 146.268 362.732 140 355 140Z" fill="#F7F8FA"/>
<path d="M68 183C77.9411 183 86 174.941 86 165C86 155.059 77.9411 147 68 147C58.0589 147 50 155.059 50 165C50 174.941 58.0589 183 68 183Z" fill="#FF6B6B"/>
<path d="M62 165L66 169L74 161" stroke="white" stroke-width="2" stroke-linecap="round" stroke-linejoin="round"/>
<path d="M116 183C125.941 183 134 174.941 134 165C134 155.059 125.941 147 116 147C106.059 147 98 155.059 98 165C98 174.941 106.059 183 116 183Z" fill="#A78BFA"/>
<path d="M164 183C173.941 183 182 174.941 182 165C182 155.059 173.941 147 164 147C154.059 147 146 155.059 146 165C146 174.941 154.059 183 164 183Z" fill="#60A5FA"/>
<path d="M212 183C221.941 183 230 174.941 230 165C230 155.059 221.941 147 212 147C202.059 147 194 155.059 194 165C194 174.941 202.059 183 212 183Z" fill="#34D399"/>
<path d="M260 183C269.941 183 278 174.941 278 165C278 155.059 269.941 147 260 147C250.059 147 242 155.059 242 165C242 174.941 250.059 183 260 183Z" fill="#FBBF24"/>
<path d="M332 179C339.732 179 346 172.732 346 165C346 157.268 339.732 151 332 151C324.268 151 318 157.268 318 165C318 172.732 324.268 179 332 179Z" stroke="#D1D6DB" stroke-width="1.5"/>
<path d="M332 159V171" stroke="#D1D6DB" stroke-width="1.5" stroke-linecap="round"/>
<path d="M326 165H338" stroke="#D1D6DB" stroke-width="1.5" stroke-linecap="round"/>
<path d="M24 210H369" stroke="#F2F3F5"/>
<path d="M33.594 229.249H34.621V241.014H33.594V229.249ZM29.304 233.474H31.566V234.358H29.304V233.474ZM31.241 229.522H32.255V240.403H31.241V229.522ZM27.055 231.082H27.887V232.577C27.887 233.218 27.8263 233.847 27.705 234.462C27.5837 235.069 27.406 235.641 27.172 236.178C26.938 236.707 26.652 237.188 26.314 237.621C25.976 238.046 25.5947 238.392 25.17 238.661L24.507 237.855C25.053 237.526 25.5123 237.084 25.885 236.529C26.2663 235.974 26.5567 235.355 26.756 234.67C26.9553 233.985 27.055 233.288 27.055 232.577V231.082ZM27.276 231.082H28.095V232.577C28.095 233.253 28.1903 233.916 28.381 234.566C28.5803 235.216 28.862 235.805 29.226 236.334C29.5987 236.854 30.0537 237.27 30.591 237.582L29.941 238.388C29.369 238.033 28.8837 237.56 28.485 236.971C28.095 236.373 27.796 235.697 27.588 234.943C27.38 234.18 27.276 233.392 27.276 232.577V231.082ZM24.832 230.627H30.201V231.511H24.832V230.627ZM37.974 229.743H45.865V233.734H37.974V229.743ZM44.812 230.601H39.027V232.863H44.812V230.601ZM36.609 235.203H47.23V236.087H36.609V235.203ZM41.38 233.513H42.459V235.541H41.38V233.513ZM37.792 237.296H45.917V241.014H44.838V238.167H37.792V237.296Z" fill="#8B95A1"/>
<path d="M357 250H36C29.3726 250 24 255.373 24 262V286C24 292.627 29.3726 298 36 298H357C363.627 298 369 292.627 369 286V262C369 255.373 363.627 250 357 250Z" fill="#F7F8FA"/>
<path d="M44.56 267.09C45.24 267.09 45.84 267.22 46.36 267.48C46.89 267.73 47.305 268.08 47.605 268.53C47.905 268.98 48.055 269.505 48.055 270.105C48.055 270.695 47.905 271.22 47.605 271.68C47.305 272.13 46.89 272.48 46.36 272.73C45.84 272.98 45.24 273.105 44.56 273.105C43.89 273.105 43.29 272.98 42.76 272.73C42.23 272.48 41.81 272.13 41.5 271.68C41.2 271.22 41.05 270.695 41.05 270.105C41.05 269.505 41.2 268.98 41.5 268.53C41.81 268.08 42.23 267.73 42.76 267.48C43.29 267.22 43.89 267.09 44.56 267.09ZM44.56 268.125C44.12 268.125 43.725 268.21 43.375 268.38C43.035 268.54 42.765 268.77 42.565 269.07C42.365 269.37 42.265 269.715 42.265 270.105C42.265 270.495 42.365 270.84 42.565 271.14C42.765 271.43 43.035 271.66 43.375 271.83C43.725 272 44.12 272.085 44.56 272.085C45 272.085 45.39 272 45.73 271.83C46.08 271.66 46.355 271.43 46.555 271.14C46.755 270.84 46.855 270.495 46.855 270.105C46.855 269.715 46.755 269.37 46.555 269.07C46.355 268.77 46.08 268.54 45.73 268.38C45.39 268.21 45 268.125 44.56 268.125ZM50.62 266.595H51.865V273.54H50.62V266.595ZM43.09 274.215H51.865V277.5H44.335V279.54H43.135V276.57H50.635V275.205H43.09V274.215ZM43.135 278.985H52.33V279.99H43.135V278.985ZM61.7938 270.12H64.8388V271.155H61.7938V270.12ZM64.4638 266.595H65.7088V274.68H64.4638V266.595ZM61.2388 275.1C62.1788 275.1 62.9838 275.2 63.6538 275.4C64.3338 275.6 64.8538 275.89 65.2138 276.27C65.5738 276.64 65.7538 277.095 65.7538 277.635C65.7538 278.435 65.3488 279.055 64.5388 279.495C63.7388 279.935 62.6388 280.155 61.2388 280.155C59.8388 280.155 58.7338 279.935 57.9238 279.495C57.1238 279.055 56.7238 278.435 56.7238 277.635C56.7238 277.095 56.9038 276.64 57.2638 276.27C57.6338 275.89 58.1538 275.6 58.8238 275.4C59.5038 275.2 60.3088 275.1 61.2388 275.1ZM61.2388 276.075C60.5588 276.075 59.9738 276.135 59.4838 276.255C58.9938 276.375 58.6138 276.55 58.3438 276.78C58.0838 277.01 57.9538 277.295 57.9538 277.635C57.9538 277.955 58.0838 278.23 58.3438 278.46C58.6138 278.69 58.9938 278.87 59.4838 279C59.9738 279.12 60.5588 279.18 61.2388 279.18C61.9288 279.18 62.5138 279.12 62.9938 279C63.4838 278.87 63.8588 278.69 64.1188 278.46C64.3888 278.23 64.5238 277.955 64.5238 277.635C64.5238 277.295 64.3888 277.01 64.1188 276.78C63.8588 276.55 63.4838 276.375 62.9938 276.255C62.5138 276.135 61.9288 276.075 61.2388 276.075ZM57.9988 267.975H59.0188V269.07C59.0188 269.9 58.8588 270.68 58.5388 271.41C58.2288 272.13 57.7888 272.765 57.2188 273.315C56.6488 273.855 55.9888 274.27 55.2388 274.56L54.5938 273.57C55.1038 273.39 55.5638 273.145 55.9738 272.835C56.3938 272.525 56.7538 272.17 57.0538 271.77C57.3638 271.37 57.5988 270.94 57.7588 270.48C57.9188 270.02 57.9988 269.55 57.9988 269.07V267.975ZM58.2388 267.975H59.2588V269.055C59.2588 269.635 59.3938 270.2 59.6638 270.75C59.9338 271.3 60.3188 271.785 60.8188 272.205C61.3188 272.625 61.8938 272.955 62.5438 273.195L61.9138 274.185C61.1738 273.915 60.5288 273.525 59.9788 273.015C59.4288 272.495 58.9988 271.895 58.6888 271.215C58.3888 270.535 58.2388 269.815 58.2388 269.055V267.975ZM54.9838 267.585H62.2288V268.605H54.9838V267.585ZM82.8864 266.595H84.0714V280.17H82.8864V266.595ZM77.9364 271.47H80.5464V272.49H77.9364V271.47ZM80.1714 266.91H81.3414V279.465H80.1714V266.91ZM75.3414 268.71H76.3014V270.435C76.3014 271.175 76.2314 271.9 76.0914 272.61C75.9514 273.31 75.7464 273.97 75.4764 274.59C75.2064 275.2 74.8764 275.755 74.4864 276.255C74.0964 276.745 73.6564 277.145 73.1664 277.455L72.4014 276.525C73.0314 276.145 73.5614 275.635 73.9914 274.995C74.4314 274.355 74.7664 273.64 74.9964 272.85C75.2264 272.06 75.3414 271.255 75.3414 270.435V268.71ZM75.5964 268.71H76.5414V270.435C76.5414 271.215 76.6514 271.98 76.8714 272.73C77.1014 273.48 77.4264 274.16 77.8464 274.77C78.2764 275.37 78.8014 275.85 79.4214 276.21L78.6714 277.14C78.0114 276.73 77.4514 276.185 76.9914 275.505C76.5414 274.815 76.1964 274.035 75.9564 273.165C75.7164 272.285 75.5964 271.375 75.5964 270.435V268.71ZM72.7764 268.185H78.9714V269.205H72.7764V268.185ZM87.9402 267.165H97.0452V271.77H87.9402V267.165ZM95.8302 268.155H89.1552V270.765H95.8302V268.155ZM86.3652 273.465H98.6202V274.485H86.3652V273.465ZM91.8702 271.515H93.1152V273.855H91.8702V271.515ZM87.7302 275.88H97.1052V280.17H95.8602V276.885H87.7302V275.88ZM106.284 266.835C107.784 266.835 108.954 267.04 109.794 267.45C110.634 267.85 111.054 268.425 111.054 269.175C111.054 269.935 110.634 270.52 109.794 270.93C108.954 271.33 107.784 271.53 106.284 271.53C104.794 271.53 103.624 271.33 102.774 270.93C101.934 270.52 101.514 269.935 101.514 269.175C101.514 268.425 101.934 267.85 102.774 267.45C103.624 267.04 104.794 266.835 106.284 266.835ZM106.284 267.765C105.554 267.765 104.929 267.82 104.409 267.93C103.889 268.04 103.489 268.2 103.209 268.41C102.939 268.62 102.804 268.875 102.804 269.175C102.804 269.475 102.939 269.735 103.209 269.955C103.489 270.165 103.889 270.325 104.409 270.435C104.929 270.535 105.554 270.585 106.284 270.585C107.024 270.585 107.654 270.535 108.174 270.435C108.694 270.325 109.089 270.165 109.359 269.955C109.639 269.735 109.779 269.475 109.779 269.175C109.779 268.875 109.639 268.62 109.359 268.41C109.089 268.2 108.694 268.04 108.174 267.93C107.654 267.82 107.024 267.765 106.284 267.765ZM100.164 272.445H112.419V273.45H100.164V272.445ZM101.649 274.605H110.844V277.665H102.894V279.3H101.679V276.75H109.629V275.565H101.649V274.605ZM101.679 279.045H111.249V280.02H101.679V279.045ZM128.052 266.595H129.297V273.885H128.052V266.595ZM120.567 274.56H121.782V276.195H128.067V274.56H129.297V279.99H120.567V274.56ZM121.782 277.185V278.97H128.067V277.185H121.782ZM122.022 267.24C122.712 267.24 123.322 267.375 123.852 267.645C124.382 267.905 124.797 268.27 125.097 268.74C125.407 269.21 125.562 269.755 125.562 270.375C125.562 270.985 125.407 271.53 125.097 272.01C124.797 272.48 124.382 272.845 123.852 273.105C123.322 273.365 122.712 273.495 122.022 273.495C121.342 273.495 120.732 273.365 120.192 273.105C119.662 272.845 119.242 272.48 118.932 272.01C118.632 271.53 118.482 270.985 118.482 270.375C118.482 269.755 118.632 269.21 118.932 268.74C119.242 268.27 119.662 267.905 120.192 267.645C120.732 267.375 121.342 267.24 122.022 267.24ZM122.022 268.29C121.572 268.29 121.172 268.38 120.822 268.56C120.472 268.73 120.197 268.975 119.997 269.295C119.797 269.605 119.697 269.965 119.697 270.375C119.697 270.775 119.797 271.135 119.997 271.455C120.197 271.765 120.472 272.01 120.822 272.19C121.172 272.37 121.572 272.46 122.022 272.46C122.472 272.46 122.872 272.37 123.222 272.19C123.572 272.01 123.847 271.765 124.047 271.455C124.247 271.135 124.347 270.775 124.347 270.375C124.347 269.965 124.247 269.605 124.047 269.295C123.847 268.975 123.572 268.73 123.222 268.56C122.872 268.38 122.472 268.29 122.022 268.29ZM132.55 273.33H133.51C134.4 273.33 135.16 273.325 135.79 273.315C136.43 273.295 137.01 273.26 137.53 273.21C138.06 273.16 138.595 273.085 139.135 272.985L139.255 274.005C138.845 274.075 138.44 274.135 138.04 274.185C137.64 274.225 137.22 274.255 136.78 274.275C136.34 274.295 135.855 274.31 135.325 274.32C134.795 274.33 134.19 274.335 133.51 274.335H132.55V273.33ZM132.52 267.42H138.355V271.26H133.78V273.93H132.55V270.3H137.125V268.425H132.52V267.42ZM141.895 266.61H143.14V274.95H141.895V266.61ZM139.255 268.62H142.18V269.625H139.255V268.62ZM139.255 271.425H142.18V272.445H139.255V271.425ZM134.065 275.67H143.14V280.185H141.895V276.69H134.065V275.67ZM154.974 266.595H156.204V280.17H154.974V266.595ZM155.919 272.175H158.424V273.225H155.919V272.175ZM145.704 268.77H153.699V269.79H145.704V268.77ZM149.769 270.9C150.409 270.9 150.974 271.035 151.464 271.305C151.964 271.575 152.354 271.945 152.634 272.415C152.924 272.875 153.069 273.41 153.069 274.02C153.069 274.63 152.924 275.17 152.634 275.64C152.354 276.11 151.964 276.48 151.464 276.75C150.974 277.01 150.409 277.14 149.769 277.14C149.129 277.14 148.559 277.01 148.059 276.75C147.569 276.48 147.179 276.11 146.889 275.64C146.599 275.17 146.454 274.63 146.454 274.02C146.454 273.41 146.599 272.875 146.889 272.415C147.179 271.945 147.569 271.575 148.059 271.305C148.559 271.035 149.129 270.9 149.769 270.9ZM149.769 271.935C149.359 271.935 148.994 272.025 148.674 272.205C148.354 272.385 148.099 272.63 147.909 272.94C147.729 273.25 147.639 273.61 147.639 274.02C147.639 274.43 147.729 274.795 147.909 275.115C148.099 275.425 148.354 275.67 148.674 275.85C148.994 276.02 149.359 276.105 149.769 276.105C150.169 276.105 150.529 276.02 150.849 275.85C151.169 275.67 151.419 275.425 151.599 275.115C151.789 274.795 151.884 274.43 151.884 274.02C151.884 273.61 151.789 273.25 151.599 272.94C151.419 272.63 151.169 272.385 150.849 272.205C150.529 272.025 150.169 271.935 149.769 271.935ZM149.124 266.76H150.369V269.22H149.124V266.76ZM164.918 271.455H167.528V272.49H164.918V271.455ZM162.398 267.87H163.373V270.465C163.373 271.165 163.298 271.855 163.148 272.535C163.008 273.215 162.798 273.855 162.518 274.455C162.248 275.055 161.918 275.595 161.528 276.075C161.138 276.555 160.698 276.945 160.208 277.245L159.428 276.315C159.888 276.035 160.303 275.685 160.673 275.265C161.043 274.845 161.353 274.375 161.603 273.855C161.863 273.325 162.058 272.775 162.188 272.205C162.328 271.625 162.398 271.045 162.398 270.465V267.87ZM162.638 267.87H163.598V270.42C163.598 270.96 163.658 271.505 163.778 272.055C163.908 272.595 164.088 273.115 164.318 273.615C164.558 274.105 164.853 274.555 165.203 274.965C165.553 275.375 165.948 275.715 166.388 275.985L165.683 276.945C165.193 276.645 164.758 276.265 164.378 275.805C163.998 275.335 163.678 274.81 163.418 274.23C163.158 273.64 162.963 273.02 162.833 272.37C162.703 271.72 162.638 271.07 162.638 270.42V267.87ZM169.913 266.595H171.113V280.17H169.913V266.595ZM167.153 266.88H168.323V279.48H167.153V266.88ZM176.392 273.585H177.622V277.635H176.392V273.585ZM181.402 273.585H182.647V277.635H181.402V273.585ZM173.377 277.395H185.677V278.43H173.377V277.395ZM179.497 267.45C180.457 267.45 181.307 267.595 182.047 267.885C182.787 268.175 183.367 268.58 183.787 269.1C184.217 269.62 184.432 270.235 184.432 270.945C184.432 271.645 184.217 272.26 183.787 272.79C183.367 273.31 182.787 273.715 182.047 274.005C181.307 274.285 180.457 274.425 179.497 274.425C178.547 274.425 177.697 274.285 176.947 274.005C176.207 273.715 175.627 273.31 175.207 272.79C174.787 272.26 174.577 271.645 174.577 270.945C174.577 270.235 174.787 269.62 175.207 269.1C175.627 268.58 176.207 268.175 176.947 267.885C177.697 267.595 178.547 267.45 179.497 267.45ZM179.497 268.44C178.777 268.44 178.137 268.545 177.577 268.755C177.017 268.965 176.577 269.26 176.257 269.64C175.937 270.01 175.777 270.445 175.777 270.945C175.777 271.445 175.937 271.885 176.257 272.265C176.577 272.635 177.017 272.925 177.577 273.135C178.137 273.345 178.777 273.45 179.497 273.45C180.227 273.45 180.872 273.345 181.432 273.135C181.992 272.925 182.432 272.635 182.752 272.265C183.072 271.885 183.232 271.445 183.232 270.945C183.232 270.445 183.072 270.01 182.752 269.64C182.432 269.26 181.992 268.965 181.432 268.755C180.872 268.545 180.227 268.44 179.497 268.44Z" fill="#B0B8C1"/>
<path d="M32.697 315.249H33.776V321.177H32.697V315.249ZM33.477 317.68H35.505V318.59H33.477V317.68ZM25.209 315.769H26.288V320.28H25.209V315.769ZM25.209 319.708H26.145C26.9857 319.708 27.848 319.673 28.732 319.604C29.616 319.526 30.5347 319.392 31.488 319.201L31.618 320.098C30.63 320.297 29.6897 320.436 28.797 320.514C27.9043 320.583 27.0203 320.618 26.145 320.618H25.209V319.708ZM26.301 321.749H33.776V324.635H27.406V326.416H26.34V323.803H32.697V322.607H26.301V321.749ZM26.34 325.974H34.192V326.858H26.34V325.974ZM44.838 315.249H45.917V327.014H44.838V315.249ZM45.384 319.916H47.555V320.839H45.384V319.916ZM38.26 316.991H39.066V318.746C39.066 319.257 39.0357 319.79 38.975 320.345C38.9143 320.891 38.8103 321.428 38.663 321.957C38.5157 322.486 38.3163 322.975 38.065 323.426C37.8223 323.877 37.5103 324.249 37.129 324.544L36.44 323.751C36.7953 323.482 37.09 323.153 37.324 322.763C37.5667 322.364 37.753 321.935 37.883 321.476C38.0217 321.017 38.117 320.553 38.169 320.085C38.2297 319.608 38.26 319.162 38.26 318.746V316.991ZM38.494 316.991H39.287V318.746C39.287 319.127 39.3087 319.548 39.352 320.007C39.3953 320.466 39.4777 320.934 39.599 321.411C39.7203 321.888 39.8937 322.338 40.119 322.763C40.3443 323.179 40.6433 323.539 41.016 323.842L40.405 324.648C40.0063 324.336 39.6813 323.942 39.43 323.465C39.1787 322.988 38.9837 322.477 38.845 321.931C38.7063 321.376 38.611 320.822 38.559 320.267C38.5157 319.712 38.494 319.205 38.494 318.746V316.991ZM41.536 316.991H42.316V318.746C42.316 319.231 42.29 319.756 42.238 320.319C42.1947 320.874 42.1037 321.424 41.965 321.97C41.8263 322.516 41.6313 323.023 41.38 323.491C41.1287 323.959 40.8037 324.345 40.405 324.648L39.807 323.842C40.171 323.547 40.4657 323.196 40.691 322.789C40.925 322.373 41.1027 321.931 41.224 321.463C41.3453 320.986 41.4277 320.514 41.471 320.046C41.5143 319.578 41.536 319.145 41.536 318.746V316.991ZM41.757 316.991H42.563V318.746C42.563 319.179 42.589 319.634 42.641 320.111C42.7017 320.588 42.797 321.056 42.927 321.515C43.0657 321.966 43.252 322.386 43.486 322.776C43.7287 323.157 44.0277 323.482 44.383 323.751L43.694 324.544C43.3213 324.249 43.0093 323.885 42.758 323.452C42.5067 323.01 42.3073 322.525 42.16 321.996C42.0127 321.467 41.9087 320.926 41.848 320.371C41.7873 319.816 41.757 319.275 41.757 318.746V316.991ZM36.817 316.445H40.158V317.329H36.817V316.445ZM40.665 316.445H43.902V317.329H40.665V316.445Z" fill="#8B95A1"/>
<path d="M357 336H36C29.3726 336 24 341.373 24 348V372C24 378.627 29.3726 384 36 384H357C363.627 384 369 378.627 369 372V348C369 341.373 363.627 336 357 336Z" fill="#F7F8FA"/>
<path d="M53 351H43C41.3431 351 40 352.343 40 354V362C40 363.657 41.3431 365 43 365H53C54.6569 365 56 363.657 56 362V354C56 352.343 54.6569 351 53 351Z" stroke="#8B95A1" stroke-width="1.3"/>
<path d="M44 348V353" stroke="#8B95A1" stroke-width="1.3" stroke-linecap="round"/>
<path d="M52 348V353" stroke="#8B95A1" stroke-width="1.3" stroke-linecap="round"/>
<path d="M40 356H56" stroke="#8B95A1" stroke-width="0.8"/>
<path d="M67.1293 365V364.041L70.7301 360.099C71.1527 359.638 71.5007 359.237 71.7741 358.896C72.0476 358.551 72.25 358.228 72.3814 357.926C72.5163 357.621 72.5838 357.301 72.5838 356.967C72.5838 356.584 72.4915 356.252 72.3068 355.971C72.1257 355.691 71.8771 355.474 71.5611 355.321C71.245 355.169 70.8899 355.092 70.4957 355.092C70.0767 355.092 69.7109 355.179 69.3984 355.353C69.0895 355.524 68.8498 355.763 68.6793 356.072C68.5124 356.381 68.429 356.744 68.429 357.159H67.1719C67.1719 356.52 67.3192 355.959 67.614 355.476C67.9087 354.993 68.31 354.616 68.8178 354.347C69.3292 354.077 69.9027 353.942 70.5384 353.942C71.1776 353.942 71.744 354.077 72.2376 354.347C72.7312 354.616 73.1183 354.98 73.3988 355.439C73.6793 355.897 73.8196 356.406 73.8196 356.967C73.8196 357.369 73.7468 357.761 73.6012 358.145C73.4592 358.525 73.2106 358.949 72.8555 359.418C72.5039 359.883 72.0156 360.451 71.3906 361.122L68.9403 363.743V363.828H74.0114V365H67.1293ZM79.7695 365.149C78.967 365.149 78.2834 364.931 77.7188 364.494C77.1541 364.054 76.7227 363.416 76.4244 362.582C76.1261 361.744 75.9769 360.732 75.9769 359.545C75.9769 358.366 76.1261 357.36 76.4244 356.525C76.7262 355.687 77.1594 355.048 77.7241 354.608C78.2923 354.164 78.9741 353.942 79.7695 353.942C80.565 353.942 81.245 354.164 81.8097 354.608C82.3778 355.048 82.8111 355.687 83.1094 356.525C83.4112 357.36 83.5621 358.366 83.5621 359.545C83.5621 360.732 83.413 361.744 83.1147 362.582C82.8164 363.416 82.3849 364.054 81.8203 364.494C81.2557 364.931 80.5721 365.149 79.7695 365.149ZM79.7695 363.977C80.565 363.977 81.1829 363.594 81.6232 362.827C82.0636 362.06 82.2837 360.966 82.2837 359.545C82.2837 358.601 82.1825 357.797 81.9801 357.132C81.7813 356.468 81.4936 355.962 81.1172 355.614C80.7443 355.266 80.2951 355.092 79.7695 355.092C78.9812 355.092 78.3651 355.481 77.9212 356.259C77.4773 357.033 77.2553 358.129 77.2553 359.545C77.2553 360.49 77.3548 361.293 77.5536 361.953C77.7525 362.614 78.0384 363.116 78.4112 363.461C78.7876 363.805 79.2404 363.977 79.7695 363.977ZM85.5863 365V364.041L89.1871 360.099C89.6097 359.638 89.9577 359.237 90.2312 358.896C90.5046 358.551 90.707 358.228 90.8384 357.926C90.9734 357.621 91.0408 357.301 91.0408 356.967C91.0408 356.584 90.9485 356.252 90.7638 355.971C90.5827 355.691 90.3342 355.474 90.0181 355.321C89.7021 355.169 89.3469 355.092 88.9528 355.092C88.5337 355.092 88.168 355.179 87.8555 355.353C87.5465 355.524 87.3068 355.763 87.1364 356.072C86.9695 356.381 86.886 356.744 86.886 357.159H85.6289C85.6289 356.52 85.7763 355.959 86.071 355.476C86.3658 354.993 86.767 354.616 87.2749 354.347C87.7862 354.077 88.3597 353.942 88.9954 353.942C89.6346 353.942 90.201 354.077 90.6946 354.347C91.1882 354.616 91.5753 354.98 91.8558 355.439C92.1364 355.897 92.2766 356.406 92.2766 356.967C92.2766 357.369 92.2038 357.761 92.0582 358.145C91.9162 358.525 91.6676 358.949 91.3125 359.418C90.9609 359.883 90.4727 360.451 89.8477 361.122L87.3974 363.743V363.828H92.4684V365H85.5863ZM98.2905 365.149C97.843 365.142 97.3956 365.057 96.9482 364.893C96.5007 364.73 96.0923 364.455 95.723 364.068C95.3537 363.677 95.0572 363.15 94.8335 362.486C94.6097 361.818 94.4979 360.98 94.4979 359.972C94.4979 359.006 94.5884 358.15 94.7695 357.404C94.9506 356.655 95.2134 356.025 95.5579 355.513C95.9023 354.998 96.3178 354.608 96.8043 354.341C97.2944 354.075 97.8466 353.942 98.4609 353.942C99.0717 353.942 99.6151 354.064 100.091 354.309C100.57 354.551 100.961 354.888 101.263 355.321C101.565 355.755 101.76 356.254 101.849 356.818H100.549C100.428 356.328 100.194 355.922 99.8459 355.598C99.4979 355.275 99.0362 355.114 98.4609 355.114C97.6158 355.114 96.9499 355.481 96.4634 356.216C95.9805 356.951 95.7372 357.983 95.7337 359.311H95.8189C96.0178 359.009 96.2539 358.752 96.5273 358.539C96.8043 358.322 97.1097 358.155 97.4435 358.038C97.7773 357.921 98.1307 357.862 98.5036 357.862C99.1286 357.862 99.7003 358.018 100.219 358.331C100.737 358.64 101.153 359.068 101.465 359.615C101.778 360.158 101.934 360.781 101.934 361.484C101.934 362.159 101.783 362.777 101.481 363.338C101.179 363.896 100.755 364.339 100.208 364.67C99.6648 364.996 99.0256 365.156 98.2905 365.149ZM98.2905 363.977C98.7379 363.977 99.1392 363.865 99.4943 363.642C99.853 363.418 100.135 363.118 100.341 362.741C100.551 362.365 100.656 361.946 100.656 361.484C100.656 361.033 100.554 360.623 100.352 360.254C100.153 359.881 99.8778 359.585 99.5263 359.364C99.1783 359.144 98.7805 359.034 98.3331 359.034C97.9957 359.034 97.6815 359.102 97.3903 359.237C97.0991 359.368 96.8434 359.549 96.6232 359.78C96.4066 360.011 96.2362 360.275 96.1119 360.574C95.9876 360.868 95.9254 361.179 95.9254 361.506C95.9254 361.939 96.0266 362.344 96.229 362.72C96.435 363.097 96.7156 363.4 97.0707 363.631C97.4293 363.862 97.8359 363.977 98.2905 363.977ZM113.564 352.61H114.809V362.66H113.564V352.61ZM109.724 354.365H114.029V355.37H109.724V354.365ZM106.124 364.85H115.169V365.87H106.124V364.85ZM106.124 361.79H107.369V365.3H106.124V361.79ZM104.444 353.585H105.674V359.99H104.444V353.585ZM104.444 359.6H105.464C106.424 359.6 107.374 359.565 108.314 359.495C109.264 359.425 110.264 359.295 111.314 359.105L111.449 360.14C110.369 360.34 109.349 360.475 108.389 360.545C107.429 360.605 106.454 360.635 105.464 360.635H104.444V359.6ZM109.724 356.96H114.029V357.965H109.724V356.96ZM122.046 365V364.041L125.647 360.099C126.07 359.638 126.418 359.237 126.691 358.896C126.965 358.551 127.167 358.228 127.298 357.926C127.433 357.621 127.501 357.301 127.501 356.967C127.501 356.584 127.408 356.252 127.224 355.971C127.043 355.691 126.794 355.474 126.478 355.321C126.162 355.169 125.807 355.092 125.413 355.092C124.994 355.092 124.628 355.179 124.315 355.353C124.006 355.524 123.767 355.763 123.596 356.072C123.429 356.381 123.346 356.744 123.346 357.159H122.089C122.089 356.52 122.236 355.959 122.531 355.476C122.826 354.993 123.227 354.616 123.735 354.347C124.246 354.077 124.82 353.942 125.455 353.942C126.095 353.942 126.661 354.077 127.155 354.347C127.648 354.616 128.035 354.98 128.316 355.439C128.596 355.897 128.737 356.406 128.737 356.967C128.737 357.369 128.664 357.761 128.518 358.145C128.376 358.525 128.128 358.949 127.772 359.418C127.421 359.883 126.933 360.451 126.308 361.122L123.857 363.743V363.828H128.928V365H122.046ZM134.394 358.205H135.624V360.635H134.394V358.205ZM140.604 352.61H141.849V360.59H140.604V352.61ZM130.854 358.625L130.704 357.71C131.574 357.71 132.504 357.705 133.494 357.695C134.494 357.675 135.509 357.645 136.539 357.605C137.569 357.555 138.569 357.475 139.539 357.365L139.614 358.175C138.624 358.315 137.614 358.42 136.584 358.49C135.564 358.55 134.564 358.59 133.584 358.61C132.614 358.62 131.704 358.625 130.854 358.625ZM132.759 361.085H141.849V363.905H134.019V365.435H132.804V363.065H140.619V361.97H132.759V361.085ZM132.804 365.105H142.299V366.02H132.804V365.105ZM137.904 359.06H141.009V359.87H137.904V359.06ZM135.084 352.865C135.754 352.865 136.339 352.945 136.839 353.105C137.339 353.265 137.729 353.5 138.009 353.81C138.289 354.12 138.429 354.485 138.429 354.905C138.429 355.315 138.289 355.675 138.009 355.985C137.729 356.285 137.339 356.52 136.839 356.69C136.339 356.85 135.754 356.93 135.084 356.93C134.414 356.93 133.824 356.85 133.314 356.69C132.814 356.52 132.424 356.285 132.144 355.985C131.874 355.675 131.739 355.315 131.739 354.905C131.739 354.485 131.874 354.12 132.144 353.81C132.424 353.5 132.814 353.265 133.314 353.105C133.824 352.945 134.414 352.865 135.084 352.865ZM135.084 353.72C134.424 353.72 133.894 353.825 133.494 354.035C133.104 354.245 132.909 354.535 132.909 354.905C132.909 355.255 133.104 355.54 133.494 355.76C133.894 355.97 134.424 356.075 135.084 356.075C135.744 356.075 136.269 355.97 136.659 355.76C137.059 355.54 137.259 355.255 137.259 354.905C137.259 354.535 137.059 354.245 136.659 354.035C136.269 353.825 135.744 353.72 135.084 353.72ZM152.64 365.149C151.909 365.149 151.262 365.02 150.701 364.76C150.144 364.498 149.709 364.137 149.396 363.679C149.084 363.217 148.929 362.692 148.933 362.102C148.929 361.641 149.02 361.214 149.204 360.824C149.389 360.43 149.641 360.101 149.961 359.838C150.284 359.572 150.644 359.403 151.042 359.332V359.268C150.52 359.134 150.105 358.841 149.796 358.39C149.487 357.935 149.334 357.418 149.338 356.839C149.334 356.286 149.474 355.79 149.758 355.353C150.043 354.917 150.433 354.572 150.93 354.32C151.431 354.068 152.001 353.942 152.64 353.942C153.272 353.942 153.837 354.068 154.334 354.32C154.831 354.572 155.222 354.917 155.506 355.353C155.794 355.79 155.939 356.286 155.943 356.839C155.939 357.418 155.781 357.935 155.469 358.39C155.16 358.841 154.75 359.134 154.238 359.268V359.332C154.632 359.403 154.987 359.572 155.304 359.838C155.62 360.101 155.872 360.43 156.06 360.824C156.248 361.214 156.344 361.641 156.348 362.102C156.344 362.692 156.184 363.217 155.868 363.679C155.556 364.137 155.121 364.498 154.563 364.76C154.009 365.02 153.368 365.149 152.64 365.149ZM152.64 363.977C153.134 363.977 153.56 363.897 153.919 363.738C154.277 363.578 154.554 363.352 154.75 363.061C154.945 362.77 155.044 362.429 155.048 362.038C155.044 361.626 154.938 361.262 154.728 360.946C154.519 360.63 154.233 360.382 153.871 360.201C153.512 360.02 153.102 359.929 152.64 359.929C152.175 359.929 151.759 360.02 151.394 360.201C151.032 360.382 150.746 360.63 150.536 360.946C150.33 361.262 150.229 361.626 150.233 362.038C150.229 362.429 150.323 362.77 150.515 363.061C150.71 363.352 150.989 363.578 151.351 363.738C151.713 363.897 152.143 363.977 152.64 363.977ZM152.64 358.8C153.031 358.8 153.377 358.722 153.679 358.565C153.984 358.409 154.224 358.191 154.398 357.91C154.572 357.63 154.661 357.301 154.664 356.925C154.661 356.555 154.574 356.234 154.403 355.961C154.233 355.684 153.997 355.471 153.695 355.321C153.393 355.169 153.041 355.092 152.64 355.092C152.232 355.092 151.875 355.169 151.57 355.321C151.264 355.471 151.028 355.684 150.861 355.961C150.694 356.234 150.612 356.555 150.616 356.925C150.612 357.301 150.696 357.63 150.866 357.91C151.04 358.191 151.28 358.409 151.585 358.565C151.891 358.722 152.242 358.8 152.64 358.8ZM161.82 353.09C162.5 353.09 163.1 353.22 163.62 353.48C164.15 353.73 164.565 354.08 164.865 354.53C165.165 354.98 165.315 355.505 165.315 356.105C165.315 356.695 165.165 357.22 164.865 357.68C164.565 358.13 164.15 358.48 163.62 358.73C163.1 358.98 162.5 359.105 161.82 359.105C161.15 359.105 160.55 358.98 160.02 358.73C159.49 358.48 159.07 358.13 158.76 357.68C158.46 357.22 158.31 356.695 158.31 356.105C158.31 355.505 158.46 354.98 158.76 354.53C159.07 354.08 159.49 353.73 160.02 353.48C160.55 353.22 161.15 353.09 161.82 353.09ZM161.82 354.125C161.38 354.125 160.985 354.21 160.635 354.38C160.295 354.54 160.025 354.77 159.825 355.07C159.625 355.37 159.525 355.715 159.525 356.105C159.525 356.495 159.625 356.84 159.825 357.14C160.025 357.43 160.295 357.66 160.635 357.83C160.985 358 161.38 358.085 161.82 358.085C162.26 358.085 162.65 358 162.99 357.83C163.34 357.66 163.615 357.43 163.815 357.14C164.015 356.84 164.115 356.495 164.115 356.105C164.115 355.715 164.015 355.37 163.815 355.07C163.615 354.77 163.34 354.54 162.99 354.38C162.65 354.21 162.26 354.125 161.82 354.125ZM167.88 352.595H169.125V359.54H167.88V352.595ZM160.35 360.215H169.125V363.5H161.595V365.54H160.395V362.57H167.895V361.205H160.35V360.215ZM160.395 364.985H169.59V365.99H160.395V364.985ZM176.875 360.398C176.875 359.055 177.049 357.821 177.397 356.696C177.749 355.566 178.25 354.528 178.9 353.58H180.007C179.752 353.931 179.512 354.364 179.288 354.879C179.068 355.391 178.875 355.953 178.708 356.568C178.541 357.179 178.409 357.811 178.314 358.464C178.221 359.118 178.175 359.762 178.175 360.398C178.175 361.243 178.257 362.1 178.42 362.971C178.583 363.841 178.804 364.648 179.081 365.394C179.358 366.14 179.667 366.747 180.007 367.216H178.9C178.25 366.268 177.749 365.231 177.397 364.105C177.049 362.976 176.875 361.74 176.875 360.398ZM185.272 353.09C185.952 353.09 186.552 353.22 187.072 353.48C187.602 353.73 188.017 354.08 188.317 354.53C188.617 354.98 188.767 355.505 188.767 356.105C188.767 356.695 188.617 357.22 188.317 357.68C188.017 358.13 187.602 358.48 187.072 358.73C186.552 358.98 185.952 359.105 185.272 359.105C184.602 359.105 184.002 358.98 183.472 358.73C182.942 358.48 182.522 358.13 182.212 357.68C181.912 357.22 181.762 356.695 181.762 356.105C181.762 355.505 181.912 354.98 182.212 354.53C182.522 354.08 182.942 353.73 183.472 353.48C184.002 353.22 184.602 353.09 185.272 353.09ZM185.272 354.125C184.832 354.125 184.437 354.21 184.087 354.38C183.747 354.54 183.477 354.77 183.277 355.07C183.077 355.37 182.977 355.715 182.977 356.105C182.977 356.495 183.077 356.84 183.277 357.14C183.477 357.43 183.747 357.66 184.087 357.83C184.437 358 184.832 358.085 185.272 358.085C185.712 358.085 186.102 358 186.442 357.83C186.792 357.66 187.067 357.43 187.267 357.14C187.467 356.84 187.567 356.495 187.567 356.105C187.567 355.715 187.467 355.37 187.267 355.07C187.067 354.77 186.792 354.54 186.442 354.38C186.102 354.21 185.712 354.125 185.272 354.125ZM191.332 352.595H192.577V359.54H191.332V352.595ZM183.802 360.215H192.577V363.5H185.047V365.54H183.847V362.57H191.347V361.205H183.802V360.215ZM183.847 364.985H193.042V365.99H183.847V364.985ZM198.346 360.398C198.346 361.74 198.17 362.976 197.819 364.105C197.471 365.231 196.972 366.268 196.322 367.216H195.214C195.47 366.864 195.707 366.431 195.928 365.916C196.151 365.405 196.347 364.844 196.514 364.233C196.68 363.619 196.81 362.985 196.902 362.331C196.998 361.674 197.046 361.03 197.046 360.398C197.046 359.553 196.965 358.695 196.801 357.825C196.638 356.955 196.418 356.147 196.141 355.401C195.864 354.656 195.555 354.048 195.214 353.58H196.322C196.972 354.528 197.471 355.566 197.819 356.696C198.17 357.821 198.346 359.055 198.346 360.398Z" fill="#191F28"/>
<path d="M354 358L359 363L354 368" stroke="#D1D6DB" stroke-width="1.3" stroke-linecap="round"/>
<path d="M27.744 402.263H28.641V404.369C28.641 405.045 28.5543 405.704 28.381 406.345C28.2163 406.978 27.978 407.571 27.666 408.126C27.3627 408.672 27.003 409.157 26.587 409.582C26.1797 409.998 25.7333 410.327 25.248 410.57L24.585 409.673C25.027 409.474 25.4387 409.188 25.82 408.815C26.2013 408.442 26.535 408.022 26.821 407.554C27.107 407.077 27.3323 406.566 27.497 406.02C27.6617 405.474 27.744 404.924 27.744 404.369V402.263ZM27.926 402.263H28.823V404.369C28.823 404.906 28.901 405.435 29.057 405.955C29.2217 406.475 29.447 406.969 29.733 407.437C30.0277 407.896 30.3613 408.304 30.734 408.659C31.1153 409.006 31.5227 409.279 31.956 409.478L31.306 410.336C30.8293 410.111 30.3873 409.794 29.98 409.387C29.5727 408.98 29.213 408.512 28.901 407.983C28.5977 407.454 28.3593 406.882 28.186 406.267C28.0127 405.652 27.926 405.019 27.926 404.369V402.263ZM33.191 401.249H34.27V413.027H33.191V401.249ZM44.643 401.249H45.735V409.842H44.643V401.249ZM45.397 404.811H47.464V405.721H45.397V404.811ZM41.432 402.159H42.576C42.576 403.173 42.3507 404.092 41.9 404.915C41.458 405.738 40.8253 406.453 40.002 407.06C39.1787 407.667 38.2037 408.148 37.077 408.503L36.622 407.632C37.61 407.32 38.4637 406.917 39.183 406.423C39.9023 405.929 40.457 405.361 40.847 404.72C41.237 404.079 41.432 403.385 41.432 402.64V402.159ZM37.103 402.159H41.991V403.056H37.103V402.159ZM38.403 411.87H46.242V412.754H38.403V411.87ZM38.403 408.971H39.482V412.221H38.403V408.971Z" fill="#8B95A1"/>
<path d="M177 422H36C29.3726 422 24 427.373 24 434V458C24 464.627 29.3726 470 36 470H177C183.627 470 189 464.627 189 458V434C189 427.373 183.627 422 177 422Z" fill="#F7F8FA"/>
<path d="M46.255 446.26H47.485V449.635H46.255V446.26ZM46.87 439.48C47.83 439.48 48.68 439.63 49.42 439.93C50.16 440.22 50.74 440.63 51.16 441.16C51.59 441.69 51.805 442.315 51.805 443.035C51.805 443.755 51.59 444.385 51.16 444.925C50.74 445.455 50.16 445.865 49.42 446.155C48.68 446.445 47.83 446.59 46.87 446.59C45.92 446.59 45.07 446.445 44.32 446.155C43.58 445.865 43 445.455 42.58 444.925C42.16 444.385 41.95 443.755 41.95 443.035C41.95 442.315 42.16 441.69 42.58 441.16C43 440.63 43.58 440.22 44.32 439.93C45.07 439.63 45.92 439.48 46.87 439.48ZM46.87 440.485C46.15 440.485 45.51 440.59 44.95 440.8C44.39 441.01 43.95 441.31 43.63 441.7C43.31 442.08 43.15 442.525 43.15 443.035C43.15 443.545 43.31 443.995 43.63 444.385C43.95 444.775 44.39 445.075 44.95 445.285C45.51 445.495 46.15 445.6 46.87 445.6C47.59 445.6 48.23 445.495 48.79 445.285C49.35 445.075 49.79 444.775 50.11 444.385C50.44 443.995 50.605 443.545 50.605 443.035C50.605 442.525 50.44 442.08 50.11 441.7C49.79 441.31 49.35 441.01 48.79 440.8C48.23 440.59 47.59 440.485 46.87 440.485ZM40.75 449.395H53.05V450.43H40.75V449.395ZM55.1938 440.14H66.0988V441.16H55.1938V440.14ZM54.5488 447.4H66.8488V448.42H54.5488V447.4ZM60.0538 448.225H61.2838V452.185H60.0538V448.225ZM60.6688 441.94C62.0488 441.94 63.1288 442.135 63.9088 442.525C64.6888 442.915 65.0788 443.475 65.0788 444.205C65.0788 444.915 64.6888 445.47 63.9088 445.87C63.1288 446.26 62.0488 446.455 60.6688 446.455C59.2888 446.455 58.2088 446.26 57.4288 445.87C56.6488 445.47 56.2588 444.915 56.2588 444.205C56.2588 443.475 56.6488 442.915 57.4288 442.525C58.2088 442.135 59.2888 441.94 60.6688 441.94ZM60.6688 442.885C59.6788 442.885 58.9088 443 58.3588 443.23C57.8188 443.45 57.5488 443.775 57.5488 444.205C57.5488 444.615 57.8188 444.935 58.3588 445.165C58.9088 445.395 59.6788 445.51 60.6688 445.51C61.6588 445.51 62.4238 445.395 62.9638 445.165C63.5138 444.935 63.7888 444.615 63.7888 444.205C63.7888 443.775 63.5138 443.45 62.9638 443.23C62.4238 443 61.6588 442.885 60.6688 442.885ZM60.0538 438.52H61.2838V440.815H60.0538V438.52ZM72.9457 451V450.041L76.5465 446.099C76.9691 445.638 77.3171 445.237 77.5906 444.896C77.864 444.551 78.0664 444.228 78.1978 443.926C78.3327 443.621 78.4002 443.301 78.4002 442.967C78.4002 442.584 78.3079 442.252 78.1232 441.971C77.9421 441.691 77.6935 441.474 77.3775 441.321C77.0614 441.169 76.7063 441.092 76.3121 441.092C75.8931 441.092 75.5273 441.179 75.2148 441.353C74.9059 441.524 74.6662 441.763 74.4957 442.072C74.3288 442.381 74.2454 442.744 74.2454 443.159H72.9883C72.9883 442.52 73.1357 441.959 73.4304 441.476C73.7251 440.993 74.1264 440.616 74.6342 440.347C75.1456 440.077 75.7191 439.942 76.3548 439.942C76.994 439.942 77.5604 440.077 78.054 440.347C78.5476 440.616 78.9347 440.98 79.2152 441.439C79.4957 441.897 79.636 442.406 79.636 442.967C79.636 443.369 79.5632 443.761 79.4176 444.145C79.2756 444.525 79.027 444.949 78.6719 445.418C78.3203 445.883 77.832 446.451 77.207 447.122L74.7567 449.743V449.828H79.8278V451H72.9457ZM82.9652 449.604C82.7024 449.604 82.4769 449.51 82.2887 449.322C82.1005 449.134 82.0064 448.908 82.0064 448.646C82.0064 448.383 82.1005 448.157 82.2887 447.969C82.4769 447.781 82.7024 447.687 82.9652 447.687C83.228 447.687 83.4535 447.781 83.6417 447.969C83.8299 448.157 83.924 448.383 83.924 448.646C83.924 448.82 83.8796 448.979 83.7908 449.125C83.7056 449.271 83.5902 449.388 83.4446 449.477C83.3026 449.562 83.1428 449.604 82.9652 449.604ZM82.9652 444.086C82.7024 444.086 82.4769 443.992 82.2887 443.804C82.1005 443.615 82.0064 443.39 82.0064 443.127C82.0064 442.864 82.1005 442.639 82.2887 442.451C82.4769 442.262 82.7024 442.168 82.9652 442.168C83.228 442.168 83.4535 442.262 83.6417 442.451C83.8299 442.639 83.924 442.864 83.924 443.127C83.924 443.301 83.8796 443.461 83.7908 443.607C83.7056 443.752 83.5902 443.869 83.4446 443.958C83.3026 444.043 83.1428 444.086 82.9652 444.086ZM89.7168 451.149C88.9142 451.149 88.2306 450.931 87.666 450.494C87.1014 450.054 86.6699 449.416 86.3716 448.582C86.0733 447.744 85.9242 446.732 85.9242 445.545C85.9242 444.366 86.0733 443.36 86.3716 442.525C86.6735 441.687 87.1067 441.048 87.6713 440.608C88.2395 440.164 88.9213 439.942 89.7168 439.942C90.5123 439.942 91.1923 440.164 91.7569 440.608C92.3251 441.048 92.7583 441.687 93.0566 442.525C93.3585 443.36 93.5094 444.366 93.5094 445.545C93.5094 446.732 93.3603 447.744 93.062 448.582C92.7637 449.416 92.3322 450.054 91.7676 450.494C91.2029 450.931 90.5194 451.149 89.7168 451.149ZM89.7168 449.977C90.5123 449.977 91.1301 449.594 91.5705 448.827C92.0108 448.06 92.231 446.966 92.231 445.545C92.231 444.601 92.1298 443.797 91.9274 443.132C91.7285 442.468 91.4409 441.962 91.0645 441.614C90.6916 441.266 90.2424 441.092 89.7168 441.092C88.9284 441.092 88.3123 441.481 87.8684 442.259C87.4245 443.033 87.2026 444.129 87.2026 445.545C87.2026 446.49 87.302 447.293 87.5009 447.953C87.6998 448.614 87.9856 449.116 88.3585 449.461C88.7349 449.805 89.1877 449.977 89.7168 449.977ZM99.0918 451.149C98.2892 451.149 97.6056 450.931 97.041 450.494C96.4764 450.054 96.0449 449.416 95.7466 448.582C95.4483 447.744 95.2992 446.732 95.2992 445.545C95.2992 444.366 95.4483 443.36 95.7466 442.525C96.0485 441.687 96.4817 441.048 97.0463 440.608C97.6145 440.164 98.2963 439.942 99.0918 439.942C99.8873 439.942 100.567 440.164 101.132 440.608C101.7 441.048 102.133 441.687 102.432 442.525C102.733 443.36 102.884 444.366 102.884 445.545C102.884 446.732 102.735 447.744 102.437 448.582C102.139 449.416 101.707 450.054 101.143 450.494C100.578 450.931 99.8944 451.149 99.0918 451.149ZM99.0918 449.977C99.8873 449.977 100.505 449.594 100.945 448.827C101.386 448.06 101.606 446.966 101.606 445.545C101.606 444.601 101.505 443.797 101.302 443.132C101.104 442.468 100.816 441.962 100.439 441.614C100.067 441.266 99.6174 441.092 99.0918 441.092C98.3034 441.092 97.6873 441.481 97.2434 442.259C96.7995 443.033 96.5776 444.129 96.5776 445.545C96.5776 446.49 96.677 447.293 96.8759 447.953C97.0748 448.614 97.3606 449.116 97.7335 449.461C98.1099 449.805 98.5627 449.977 99.0918 449.977Z" fill="#191F28"/>
<path d="M201.153 448.977C201.143 448.427 201.233 447.985 201.422 447.65C201.611 447.315 201.856 447.071 202.158 446.919C202.463 446.767 202.784 446.69 203.122 446.69C203.46 446.69 203.768 446.765 204.047 446.914C204.329 447.06 204.65 447.29 205.011 447.605C205.257 447.817 205.452 447.966 205.598 448.053C205.747 448.139 205.91 448.182 206.085 448.182C206.37 448.182 206.596 448.079 206.761 447.874C206.927 447.665 207.007 447.363 207 446.969H208.074C208.084 447.519 207.994 447.961 207.805 448.296C207.62 448.631 207.375 448.875 207.07 449.027C206.765 449.179 206.443 449.256 206.105 449.256C205.767 449.256 205.459 449.183 205.18 449.037C204.902 448.888 204.58 448.656 204.216 448.341C203.974 448.129 203.778 447.98 203.629 447.893C203.48 447.807 203.318 447.764 203.142 447.764C202.874 447.764 202.652 447.859 202.476 448.048C202.304 448.233 202.221 448.543 202.227 448.977H201.153Z" fill="#B0B8C1"/>
<path d="M357 422H226C219.373 422 214 427.373 214 434V458C214 464.627 219.373 470 226 470H357C363.627 470 369 464.627 369 458V434C369 427.373 363.627 422 357 422Z" fill="#F7F8FA"/>
<path d="M236.255 446.26H237.485V449.635H236.255V446.26ZM236.87 439.48C237.83 439.48 238.68 439.63 239.42 439.93C240.16 440.22 240.74 440.63 241.16 441.16C241.59 441.69 241.805 442.315 241.805 443.035C241.805 443.755 241.59 444.385 241.16 444.925C240.74 445.455 240.16 445.865 239.42 446.155C238.68 446.445 237.83 446.59 236.87 446.59C235.92 446.59 235.07 446.445 234.32 446.155C233.58 445.865 233 445.455 232.58 444.925C232.16 444.385 231.95 443.755 231.95 443.035C231.95 442.315 232.16 441.69 232.58 441.16C233 440.63 233.58 440.22 234.32 439.93C235.07 439.63 235.92 439.48 236.87 439.48ZM236.87 440.485C236.15 440.485 235.51 440.59 234.95 440.8C234.39 441.01 233.95 441.31 233.63 441.7C233.31 442.08 233.15 442.525 233.15 443.035C233.15 443.545 233.31 443.995 233.63 444.385C233.95 444.775 234.39 445.075 234.95 445.285C235.51 445.495 236.15 445.6 236.87 445.6C237.59 445.6 238.23 445.495 238.79 445.285C239.35 445.075 239.79 444.775 240.11 444.385C240.44 443.995 240.605 443.545 240.605 443.035C240.605 442.525 240.44 442.08 240.11 441.7C239.79 441.31 239.35 441.01 238.79 440.8C238.23 440.59 237.59 440.485 236.87 440.485ZM230.75 449.395H243.05V450.43H230.75V449.395ZM245.194 440.14H256.099V441.16H245.194V440.14ZM244.549 447.4H256.849V448.42H244.549V447.4ZM250.054 448.225H251.284V452.185H250.054V448.225ZM250.669 441.94C252.049 441.94 253.129 442.135 253.909 442.525C254.689 442.915 255.079 443.475 255.079 444.205C255.079 444.915 254.689 445.47 253.909 445.87C253.129 446.26 252.049 446.455 250.669 446.455C249.289 446.455 248.209 446.26 247.429 445.87C246.649 445.47 246.259 444.915 246.259 444.205C246.259 443.475 246.649 442.915 247.429 442.525C248.209 442.135 249.289 441.94 250.669 441.94ZM250.669 442.885C249.679 442.885 248.909 443 248.359 443.23C247.819 443.45 247.549 443.775 247.549 444.205C247.549 444.615 247.819 444.935 248.359 445.165C248.909 445.395 249.679 445.51 250.669 445.51C251.659 445.51 252.424 445.395 252.964 445.165C253.514 444.935 253.789 444.615 253.789 444.205C253.789 443.775 253.514 443.45 252.964 443.23C252.424 443 251.659 442.885 250.669 442.885ZM250.054 438.52H251.284V440.815H250.054V438.52ZM266.355 451.149C265.73 451.149 265.167 451.025 264.666 450.776C264.165 450.528 263.764 450.187 263.462 449.754C263.161 449.32 262.995 448.827 262.967 448.273H264.245C264.295 448.766 264.519 449.175 264.917 449.498C265.318 449.817 265.797 449.977 266.355 449.977C266.802 449.977 267.2 449.873 267.548 449.663C267.9 449.453 268.175 449.166 268.374 448.8C268.576 448.431 268.677 448.013 268.677 447.548C268.677 447.072 268.572 446.648 268.363 446.275C268.157 445.899 267.873 445.602 267.511 445.386C267.148 445.169 266.735 445.059 266.27 445.055C265.936 445.052 265.593 445.103 265.241 445.21C264.89 445.313 264.6 445.446 264.373 445.609L263.137 445.46L263.798 440.091H269.466V441.263H264.906L264.522 444.48H264.586C264.81 444.303 265.091 444.155 265.428 444.038C265.765 443.921 266.117 443.862 266.483 443.862C267.15 443.862 267.745 444.022 268.267 444.342C268.793 444.658 269.205 445.091 269.503 445.641C269.805 446.192 269.956 446.82 269.956 447.527C269.956 448.223 269.799 448.844 269.487 449.391C269.178 449.935 268.752 450.364 268.208 450.68C267.665 450.993 267.047 451.149 266.355 451.149ZM273.009 449.604C272.746 449.604 272.521 449.51 272.333 449.322C272.144 449.134 272.05 448.908 272.05 448.646C272.05 448.383 272.144 448.157 272.333 447.969C272.521 447.781 272.746 447.687 273.009 447.687C273.272 447.687 273.497 447.781 273.686 447.969C273.874 448.157 273.968 448.383 273.968 448.646C273.968 448.82 273.924 448.979 273.835 449.125C273.75 449.271 273.634 449.388 273.489 449.477C273.347 449.562 273.187 449.604 273.009 449.604ZM273.009 444.086C272.746 444.086 272.521 443.992 272.333 443.804C272.144 443.615 272.05 443.39 272.05 443.127C272.05 442.864 272.144 442.639 272.333 442.451C272.521 442.262 272.746 442.168 273.009 442.168C273.272 442.168 273.497 442.262 273.686 442.451C273.874 442.639 273.968 442.864 273.968 443.127C273.968 443.301 273.924 443.461 273.835 443.607C273.75 443.752 273.634 443.869 273.489 443.958C273.347 444.043 273.187 444.086 273.009 444.086ZM279.761 451.149C278.958 451.149 278.275 450.931 277.71 450.494C277.145 450.054 276.714 449.416 276.416 448.582C276.117 447.744 275.968 446.732 275.968 445.545C275.968 444.366 276.117 443.36 276.416 442.525C276.717 441.687 277.151 441.048 277.715 440.608C278.283 440.164 278.965 439.942 279.761 439.942C280.556 439.942 281.236 440.164 281.801 440.608C282.369 441.048 282.802 441.687 283.101 442.525C283.402 443.36 283.553 444.366 283.553 445.545C283.553 446.732 283.404 447.744 283.106 448.582C282.808 449.416 282.376 450.054 281.812 450.494C281.247 450.931 280.563 451.149 279.761 451.149ZM279.761 449.977C280.556 449.977 281.174 449.594 281.614 448.827C282.055 448.06 282.275 446.966 282.275 445.545C282.275 444.601 282.174 443.797 281.971 443.132C281.772 442.468 281.485 441.962 281.108 441.614C280.736 441.266 280.286 441.092 279.761 441.092C278.972 441.092 278.356 441.481 277.912 442.259C277.468 443.033 277.247 444.129 277.247 445.545C277.247 446.49 277.346 447.293 277.545 447.953C277.744 448.614 278.03 449.116 278.402 449.461C278.779 449.805 279.232 449.977 279.761 449.977ZM289.136 451.149C288.333 451.149 287.65 450.931 287.085 450.494C286.52 450.054 286.089 449.416 285.791 448.582C285.492 447.744 285.343 446.732 285.343 445.545C285.343 444.366 285.492 443.36 285.791 442.525C286.092 441.687 286.526 441.048 287.09 440.608C287.658 440.164 288.34 439.942 289.136 439.942C289.931 439.942 290.611 440.164 291.176 440.608C291.744 441.048 292.177 441.687 292.476 442.525C292.777 443.36 292.928 444.366 292.928 445.545C292.928 446.732 292.779 447.744 292.481 448.582C292.183 449.416 291.751 450.054 291.187 450.494C290.622 450.931 289.938 451.149 289.136 451.149ZM289.136 449.977C289.931 449.977 290.549 449.594 290.989 448.827C291.43 448.06 291.65 446.966 291.65 445.545C291.65 444.601 291.549 443.797 291.346 443.132C291.147 442.468 290.86 441.962 290.483 441.614C290.111 441.266 289.661 441.092 289.136 441.092C288.347 441.092 287.731 441.481 287.287 442.259C286.843 443.033 286.622 444.129 286.622 445.545C286.622 446.49 286.721 447.293 286.92 447.953C287.119 448.614 287.405 449.116 287.777 449.461C288.154 449.805 288.607 449.977 289.136 449.977Z" fill="#191F28"/>
<path d="M27.588 489.186H28.459V489.693C28.459 490.36 28.3203 490.98 28.043 491.552C27.7743 492.124 27.393 492.618 26.899 493.034C26.405 493.45 25.8287 493.766 25.17 493.983L24.65 493.138C25.2307 492.956 25.742 492.696 26.184 492.358C26.626 492.011 26.9683 491.608 27.211 491.149C27.4623 490.69 27.588 490.204 27.588 489.693V489.186ZM27.77 489.186H28.654V489.693C28.654 490.161 28.771 490.612 29.005 491.045C29.2477 491.47 29.5857 491.847 30.019 492.176C30.4523 492.497 30.955 492.744 31.527 492.917L31.02 493.762C30.37 493.554 29.798 493.251 29.304 492.852C28.8187 492.453 28.4417 491.985 28.173 491.448C27.9043 490.902 27.77 490.317 27.77 489.693V489.186ZM24.975 488.627H31.254V489.498H24.975V488.627ZM27.588 487.197H28.667V488.978H27.588V487.197ZM32.697 487.249H33.776V494.204H32.697V487.249ZM33.477 490.226H35.505V491.123H33.477V490.226ZM26.392 494.763H33.776V498.858H26.392V494.763ZM32.71 495.621H27.445V497.974H32.71V495.621ZM44.565 487.249H45.644V499.001H44.565V487.249ZM45.358 492.02H47.516V492.917H45.358V492.02ZM41.562 488.51H42.615C42.615 489.628 42.433 490.698 42.069 491.721C41.705 492.735 41.133 493.675 40.353 494.542C39.573 495.4 38.546 496.145 37.272 496.778L36.674 495.946C37.766 495.4 38.6717 494.763 39.391 494.035C40.119 493.298 40.6607 492.484 41.016 491.591C41.38 490.69 41.562 489.719 41.562 488.679V488.51ZM37.22 488.51H42.108V489.407H37.22V488.51ZM51.467 488.939H52.338V490.837C52.338 491.452 52.2513 492.063 52.078 492.67C51.9046 493.268 51.662 493.836 51.35 494.373C51.0466 494.902 50.6956 495.374 50.297 495.79C49.8983 496.197 49.4693 496.518 49.01 496.752L48.373 495.894C48.7976 495.686 49.192 495.404 49.556 495.049C49.9286 494.685 50.258 494.273 50.544 493.814C50.83 493.346 51.0553 492.861 51.22 492.358C51.3846 491.847 51.467 491.34 51.467 490.837V488.939ZM51.675 488.939H52.533V490.837C52.533 491.305 52.6066 491.777 52.754 492.254C52.91 492.731 53.1266 493.186 53.404 493.619C53.6813 494.052 54.002 494.442 54.366 494.789C54.7386 495.127 55.133 495.4 55.549 495.608L54.938 496.466C54.4786 496.232 54.0496 495.92 53.651 495.53C53.2523 495.131 52.9056 494.681 52.611 494.178C52.3163 493.675 52.0866 493.138 51.922 492.566C51.7573 491.994 51.675 491.418 51.675 490.837V488.939ZM48.789 488.458H55.133V489.355H48.789V488.458ZM56.524 487.249H57.603V499.014H56.524V487.249ZM57.356 491.994H59.527V492.904H57.356V491.994Z" fill="#8B95A1"/>
<path d="M357 510H36C29.3726 510 24 515.373 24 522V554C24 560.627 29.3726 566 36 566H357C363.627 566 369 560.627 369 554V522C369 515.373 363.627 510 357 510Z" fill="#F7F8FA"/>
<path d="M54 554C62.8366 554 70 546.837 70 538C70 529.163 62.8366 522 54 522C45.1634 522 38 529.163 38 538C38 546.837 45.1634 554 54 554Z" fill="#FFE8E8" stroke="white" stroke-width="1.5"/>
<path opacity="0.3" d="M54 539C56.7614 539 59 536.761 59 534C59 531.239 56.7614 529 54 529C51.2386 529 49 531.239 49 534C49 536.761 51.2386 539 54 539Z" fill="#FF6B6B"/>
<path opacity="0.15" d="M47 544C47 540 50 538 54 538C58 538 61 540 61 544" fill="#FF6B6B"/>
<path d="M78 554C86.8366 554 94 546.837 94 538C94 529.163 86.8366 522 78 522C69.1634 522 62 529.163 62 538C62 546.837 69.1634 554 78 554Z" fill="#E0ECFF" stroke="white" stroke-width="1.5"/>
<path opacity="0.3" d="M78 539C80.7614 539 83 536.761 83 534C83 531.239 80.7614 529 78 529C75.2386 529 73 531.239 73 534C73 536.761 75.2386 539 78 539Z" fill="#4A90D9"/>
<path opacity="0.15" d="M71 544C71 540 74 538 78 538C82 538 85 540 85 544" fill="#4A90D9"/>
<path d="M106 552C113.732 552 120 545.732 120 538C120 530.268 113.732 524 106 524C98.268 524 92 530.268 92 538C92 545.732 98.268 552 106 552Z" stroke="#D1D6DB" stroke-width="1.5" stroke-dasharray="4 2"/>
<path d="M106 532V544" stroke="#D1D6DB" stroke-width="1.5" stroke-linecap="round"/>
<path d="M100 538H112" stroke="#D1D6DB" stroke-width="1.5" stroke-linecap="round"/>
<path d="M132.979 542V541.169L136.099 537.753C136.466 537.353 136.767 537.005 137.004 536.71C137.241 536.411 137.417 536.131 137.531 535.869C137.647 535.605 137.706 535.328 137.706 535.038C137.706 534.706 137.626 534.418 137.466 534.175C137.309 533.932 137.094 533.744 136.82 533.612C136.546 533.48 136.238 533.413 135.896 533.413C135.533 533.413 135.216 533.489 134.945 533.64C134.678 533.787 134.47 533.995 134.322 534.263C134.177 534.531 134.105 534.844 134.105 535.205H133.016C133.016 534.651 133.143 534.164 133.399 533.746C133.654 533.327 134.002 533.001 134.442 532.767C134.885 532.533 135.382 532.416 135.933 532.416C136.487 532.416 136.978 532.533 137.406 532.767C137.834 533.001 138.169 533.316 138.412 533.713C138.655 534.11 138.777 534.552 138.777 535.038C138.777 535.386 138.714 535.726 138.588 536.059C138.465 536.388 138.249 536.756 137.941 537.162C137.637 537.565 137.214 538.058 136.672 538.639L134.548 540.911V540.984H138.943V542H132.979ZM146.124 533.16H149.517V534.031H146.124V533.16ZM146.124 535.487H149.543V536.371H146.124V535.487ZM149.114 531.249H150.193V538.204H149.114V531.249ZM141.067 532.146H146.423V537.372H141.067V532.146ZM145.37 533.017H142.12V536.501H145.37V533.017ZM146.319 538.555C147.532 538.555 148.486 538.75 149.179 539.14C149.881 539.53 150.232 540.076 150.232 540.778C150.232 541.48 149.881 542.022 149.179 542.403C148.486 542.793 147.532 542.988 146.319 542.988C145.106 542.988 144.148 542.793 143.446 542.403C142.753 542.022 142.406 541.48 142.406 540.778C142.406 540.076 142.753 539.53 143.446 539.14C144.148 538.75 145.106 538.555 146.319 538.555ZM146.319 539.4C145.73 539.4 145.223 539.456 144.798 539.569C144.373 539.673 144.044 539.829 143.81 540.037C143.585 540.236 143.472 540.483 143.472 540.778C143.472 541.055 143.585 541.298 143.81 541.506C144.044 541.705 144.373 541.861 144.798 541.974C145.223 542.087 145.73 542.143 146.319 542.143C146.917 542.143 147.424 542.087 147.84 541.974C148.265 541.861 148.59 541.705 148.815 541.506C149.049 541.298 149.166 541.055 149.166 540.778C149.166 540.483 149.049 540.236 148.815 540.037C148.59 539.829 148.265 539.673 147.84 539.569C147.424 539.456 146.917 539.4 146.319 539.4ZM159.074 533.186H159.945V533.693C159.945 534.36 159.807 534.98 159.529 535.552C159.261 536.124 158.879 536.618 158.385 537.034C157.891 537.45 157.315 537.766 156.656 537.983L156.136 537.138C156.717 536.956 157.228 536.696 157.67 536.358C158.112 536.011 158.455 535.608 158.697 535.149C158.949 534.69 159.074 534.204 159.074 533.693V533.186ZM159.256 533.186H160.14V533.693C160.14 534.161 160.257 534.612 160.491 535.045C160.734 535.47 161.072 535.847 161.505 536.176C161.939 536.497 162.441 536.744 163.013 536.917L162.506 537.762C161.856 537.554 161.284 537.251 160.79 536.852C160.305 536.453 159.928 535.985 159.659 535.448C159.391 534.902 159.256 534.317 159.256 533.693V533.186ZM156.461 532.627H162.74V533.498H156.461V532.627ZM159.074 531.197H160.153V532.978H159.074V531.197ZM164.183 531.249H165.262V538.204H164.183V531.249ZM164.963 534.226H166.991V535.123H164.963V534.226ZM157.878 538.763H165.262V542.858H157.878V538.763ZM164.196 539.621H158.931V541.974H164.196V539.621ZM176.051 531.249H177.13V543.001H176.051V531.249ZM176.844 536.02H179.002V536.917H176.844V536.02ZM173.048 532.51H174.101C174.101 533.628 173.919 534.698 173.555 535.721C173.191 536.735 172.619 537.675 171.839 538.542C171.059 539.4 170.032 540.145 168.758 540.778L168.16 539.946C169.252 539.4 170.158 538.763 170.877 538.035C171.605 537.298 172.147 536.484 172.502 535.591C172.866 534.69 173.048 533.719 173.048 532.679V532.51ZM168.706 532.51H173.594V533.407H168.706V532.51ZM184.852 538.695C184.624 538.695 184.429 538.613 184.265 538.45C184.102 538.287 184.021 538.091 184.021 537.864C184.021 537.636 184.102 537.44 184.265 537.277C184.429 537.114 184.624 537.033 184.852 537.033C185.079 537.033 185.275 537.114 185.438 537.277C185.601 537.44 185.683 537.636 185.683 537.864C185.683 538.014 185.644 538.153 185.567 538.279C185.493 538.405 185.393 538.507 185.267 538.584C185.144 538.658 185.006 538.695 184.852 538.695ZM195.718 538.724H196.784V543.027H195.718V538.724ZM190.947 538.36H201.568V539.257H190.947V538.36ZM195.718 533.277H196.667V533.576C196.667 533.975 196.585 534.356 196.42 534.72C196.255 535.075 196.026 535.405 195.731 535.708C195.436 536.011 195.09 536.284 194.691 536.527C194.301 536.761 193.876 536.96 193.417 537.125C192.966 537.281 192.494 537.394 192 537.463L191.61 536.605C192.035 536.544 192.446 536.449 192.845 536.319C193.252 536.189 193.625 536.029 193.963 535.838C194.31 535.647 194.613 535.435 194.873 535.201C195.142 534.958 195.35 534.703 195.497 534.434C195.644 534.157 195.718 533.871 195.718 533.576V533.277ZM195.848 533.277H196.797V533.576C196.797 533.862 196.871 534.144 197.018 534.421C197.165 534.69 197.369 534.945 197.629 535.188C197.889 535.422 198.188 535.639 198.526 535.838C198.873 536.029 199.245 536.189 199.644 536.319C200.051 536.449 200.467 536.544 200.892 536.605L200.502 537.463C200.008 537.394 199.531 537.281 199.072 537.125C198.621 536.96 198.197 536.761 197.798 536.527C197.408 536.284 197.066 536.011 196.771 535.708C196.485 535.405 196.26 535.075 196.095 534.72C195.93 534.356 195.848 533.975 195.848 533.576V533.277ZM191.974 532.705H200.541V533.576H191.974V532.705ZM195.718 531.249H196.784V533.004H195.718V531.249ZM210.862 531.249H211.941V543.001H210.862V531.249ZM211.655 536.02H213.813V536.917H211.655V536.02ZM207.859 532.51H208.912C208.912 533.628 208.73 534.698 208.366 535.721C208.002 536.735 207.43 537.675 206.65 538.542C205.87 539.4 204.843 540.145 203.569 540.778L202.971 539.946C204.063 539.4 204.969 538.763 205.688 538.035C206.416 537.298 206.958 536.484 207.313 535.591C207.677 534.69 207.859 533.719 207.859 532.679V532.51ZM203.517 532.51H208.405V533.407H203.517V532.51ZM222.834 531.249H223.9V543.014H222.834V531.249ZM223.653 536.085H225.824V536.995H223.653V536.085ZM214.8 533.134H221.729V534.018H214.8V533.134ZM218.323 534.98C218.878 534.98 219.367 535.097 219.792 535.331C220.225 535.565 220.563 535.886 220.806 536.293C221.057 536.692 221.183 537.155 221.183 537.684C221.183 538.213 221.057 538.681 220.806 539.088C220.563 539.495 220.225 539.816 219.792 540.05C219.367 540.275 218.878 540.388 218.323 540.388C217.768 540.388 217.274 540.275 216.841 540.05C216.416 539.816 216.078 539.495 215.827 539.088C215.576 538.681 215.45 538.213 215.45 537.684C215.45 537.155 215.576 536.692 215.827 536.293C216.078 535.886 216.416 535.565 216.841 535.331C217.274 535.097 217.768 534.98 218.323 534.98ZM218.323 535.877C217.968 535.877 217.651 535.955 217.374 536.111C217.097 536.267 216.876 536.479 216.711 536.748C216.555 537.017 216.477 537.329 216.477 537.684C216.477 538.039 216.555 538.356 216.711 538.633C216.876 538.902 217.097 539.114 217.374 539.27C217.651 539.417 217.968 539.491 218.323 539.491C218.67 539.491 218.982 539.417 219.259 539.27C219.536 539.114 219.753 538.902 219.909 538.633C220.074 538.356 220.156 538.039 220.156 537.684C220.156 537.329 220.074 537.017 219.909 536.748C219.753 536.479 219.536 536.267 219.259 536.111C218.982 535.955 218.67 535.877 218.323 535.877ZM217.764 531.392H218.843V533.524H217.764V531.392ZM235.391 531.249H236.47V543.014H235.391V531.249ZM231.946 532.523H233.012C233.012 533.372 232.908 534.191 232.7 534.98C232.5 535.769 232.184 536.518 231.751 537.229C231.317 537.931 230.754 538.585 230.061 539.192C229.367 539.799 228.527 540.34 227.539 540.817L226.967 539.946C228.102 539.4 229.038 538.763 229.775 538.035C230.511 537.307 231.057 536.497 231.413 535.604C231.768 534.703 231.946 533.732 231.946 532.692V532.523ZM227.513 532.523H232.401V533.394H227.513V532.523Z" fill="#8B95A1"/>
<path d="M357 772H36C29.3726 772 24 777.373 24 784V812C24 818.627 29.3726 824 36 824H357C363.627 824 369 818.627 369 812V784C369 777.373 363.627 772 357 772Z" fill="#FF6B6B"/>
<path d="M154.808 790.024C155.576 790.024 156.254 790.173 156.84 790.472C157.438 790.76 157.907 791.16 158.248 791.672C158.6 792.173 158.776 792.755 158.776 793.416C158.776 794.077 158.6 794.664 158.248 795.176C157.907 795.677 157.438 796.072 156.84 796.36C156.254 796.648 155.576 796.792 154.808 796.792C154.062 796.792 153.39 796.648 152.792 796.36C152.195 796.072 151.72 795.677 151.368 795.176C151.027 794.664 150.856 794.077 150.856 793.416C150.856 792.755 151.027 792.168 151.368 791.656C151.72 791.144 152.195 790.744 152.792 790.456C153.39 790.168 154.062 790.024 154.808 790.024ZM154.824 791.752C154.462 791.752 154.136 791.821 153.848 791.96C153.56 792.088 153.331 792.275 153.16 792.52C153 792.765 152.92 793.064 152.92 793.416C152.92 793.768 153 794.072 153.16 794.328C153.331 794.573 153.555 794.76 153.832 794.888C154.12 795.016 154.451 795.08 154.824 795.08C155.187 795.08 155.507 795.016 155.784 794.888C156.072 794.76 156.296 794.573 156.456 794.328C156.627 794.072 156.712 793.768 156.712 793.416C156.712 793.064 156.627 792.765 156.456 792.52C156.296 792.275 156.072 792.088 155.784 791.96C155.496 791.821 155.176 791.752 154.824 791.752ZM160.824 789.608H162.952V797.016H160.824V789.608ZM153.08 797.624H162.952V801.672H155.192V803.48H153.096V800.136H160.84V799.256H153.08V797.624ZM153.096 802.6H163.32V804.264H153.096V802.6ZM173.399 793.176H176.215V794.904H173.399V793.176ZM175.623 789.608H177.767V798.408H175.623V789.608ZM172.743 798.728C173.788 798.728 174.69 798.84 175.447 799.064C176.204 799.288 176.786 799.613 177.191 800.04C177.607 800.467 177.815 800.979 177.815 801.576C177.815 802.493 177.362 803.197 176.455 803.688C175.548 804.189 174.311 804.44 172.743 804.44C171.175 804.44 169.938 804.189 169.031 803.688C168.124 803.197 167.671 802.493 167.671 801.576C167.671 800.979 167.874 800.467 168.279 800.04C168.695 799.613 169.282 799.288 170.039 799.064C170.796 798.84 171.698 798.728 172.743 798.728ZM172.743 800.344C172.103 800.344 171.564 800.392 171.127 800.488C170.69 800.573 170.354 800.707 170.119 800.888C169.895 801.069 169.783 801.299 169.783 801.576C169.783 801.853 169.895 802.088 170.119 802.28C170.354 802.461 170.69 802.6 171.127 802.696C171.564 802.781 172.103 802.824 172.743 802.824C173.383 802.824 173.922 802.781 174.359 802.696C174.796 802.6 175.127 802.461 175.351 802.28C175.575 802.088 175.687 801.853 175.687 801.576C175.687 801.299 175.575 801.069 175.351 800.888C175.127 800.707 174.796 800.573 174.359 800.488C173.922 800.392 173.383 800.344 172.743 800.344ZM168.791 791.08H170.519V792.024C170.519 792.963 170.37 793.859 170.071 794.712C169.772 795.565 169.314 796.317 168.695 796.968C168.087 797.608 167.308 798.088 166.359 798.408L165.287 796.728C165.895 796.525 166.418 796.253 166.855 795.912C167.303 795.571 167.666 795.192 167.943 794.776C168.231 794.349 168.444 793.901 168.583 793.432C168.722 792.963 168.791 792.493 168.791 792.024V791.08ZM169.239 791.08H170.935V792.008C170.935 792.595 171.052 793.171 171.287 793.736C171.522 794.301 171.884 794.813 172.375 795.272C172.876 795.731 173.516 796.093 174.295 796.36L173.255 798.024C172.338 797.715 171.58 797.261 170.983 796.664C170.396 796.056 169.959 795.352 169.671 794.552C169.383 793.741 169.239 792.893 169.239 792.008V791.08ZM165.863 790.504H173.831V792.184H165.863V790.504ZM194.093 789.576H196.221V804.44H194.093V789.576ZM191.501 794.76H194.589V796.472H191.501V794.76ZM187.197 791.928H188.893V793.256C188.893 794.152 188.807 795.032 188.637 795.896C188.466 796.76 188.21 797.565 187.869 798.312C187.538 799.059 187.117 799.72 186.605 800.296C186.093 800.872 185.495 801.336 184.813 801.688L183.565 800.008C184.183 799.72 184.722 799.336 185.181 798.856C185.639 798.365 186.018 797.821 186.317 797.224C186.615 796.616 186.834 795.976 186.973 795.304C187.122 794.621 187.197 793.939 187.197 793.256V791.928ZM187.693 791.928H189.357V793.256C189.357 793.907 189.426 794.557 189.565 795.208C189.714 795.848 189.938 796.461 190.237 797.048C190.546 797.624 190.93 798.141 191.389 798.6C191.847 799.059 192.386 799.432 193.005 799.72L191.773 801.384C191.069 801.053 190.461 800.611 189.949 800.056C189.437 799.501 189.015 798.867 188.685 798.152C188.354 797.427 188.103 796.648 187.933 795.816C187.773 794.984 187.693 794.131 187.693 793.256V791.928ZM184.157 791.016H192.397V792.728H184.157V791.016ZM201.804 791.256H203.548V792.184C203.548 793.123 203.393 794.013 203.084 794.856C202.785 795.699 202.326 796.44 201.708 797.08C201.089 797.709 200.305 798.179 199.356 798.488L198.3 796.808C199.11 796.541 199.772 796.168 200.284 795.688C200.806 795.197 201.19 794.648 201.436 794.04C201.681 793.421 201.804 792.803 201.804 792.184V791.256ZM202.236 791.256H203.948V792.184C203.948 792.76 204.065 793.32 204.3 793.864C204.534 794.397 204.897 794.877 205.388 795.304C205.889 795.731 206.54 796.067 207.34 796.312L206.316 797.976C205.377 797.699 204.604 797.272 203.996 796.696C203.398 796.109 202.956 795.432 202.668 794.664C202.38 793.885 202.236 793.059 202.236 792.184V791.256ZM198.844 790.584H206.86V792.28H198.844V790.584ZM208.028 789.608H210.156V798.392H208.028V789.608ZM209.58 793H212.124V794.744H209.58V793ZM205.324 798.648C206.358 798.648 207.249 798.765 207.996 799C208.742 799.224 209.318 799.549 209.724 799.976C210.129 800.403 210.332 800.92 210.332 801.528C210.332 802.136 210.129 802.653 209.724 803.08C209.318 803.517 208.742 803.848 207.996 804.072C207.249 804.307 206.358 804.424 205.324 804.424C204.3 804.424 203.409 804.307 202.652 804.072C201.905 803.848 201.324 803.517 200.908 803.08C200.502 802.653 200.3 802.136 200.3 801.528C200.3 800.92 200.502 800.403 200.908 799.976C201.324 799.549 201.905 799.224 202.652 799C203.409 798.765 204.3 798.648 205.324 798.648ZM205.324 800.312C204.694 800.312 204.166 800.355 203.74 800.44C203.313 800.525 202.988 800.659 202.764 800.84C202.54 801.021 202.428 801.251 202.428 801.528C202.428 801.816 202.54 802.051 202.764 802.232C202.988 802.413 203.313 802.552 203.74 802.648C204.166 802.733 204.694 802.776 205.324 802.776C205.953 802.776 206.481 802.733 206.908 802.648C207.345 802.552 207.67 802.413 207.884 802.232C208.108 802.051 208.22 801.816 208.22 801.528C208.22 801.251 208.108 801.021 207.884 800.84C207.67 800.659 207.345 800.525 206.908 800.44C206.481 800.355 205.953 800.312 205.324 800.312ZM222.714 789.608H224.842V804.424H222.714V789.608ZM224.362 795.384H226.97V797.144H224.362V795.384ZM213.146 791.784H221.786V793.48H213.146V791.784ZM217.498 794.328C218.213 794.328 218.853 794.483 219.418 794.792C219.984 795.091 220.426 795.501 220.746 796.024C221.077 796.547 221.242 797.155 221.242 797.848C221.242 798.541 221.077 799.155 220.746 799.688C220.426 800.211 219.984 800.627 219.418 800.936C218.864 801.235 218.224 801.384 217.498 801.384C216.784 801.384 216.138 801.235 215.562 800.936C214.997 800.627 214.549 800.211 214.218 799.688C213.898 799.155 213.738 798.541 213.738 797.848C213.738 797.155 213.898 796.547 214.218 796.024C214.549 795.501 214.997 795.091 215.562 794.792C216.138 794.483 216.784 794.328 217.498 794.328ZM217.498 796.056C217.157 796.056 216.858 796.125 216.602 796.264C216.346 796.403 216.144 796.605 215.994 796.872C215.845 797.139 215.77 797.464 215.77 797.848C215.77 798.221 215.845 798.547 215.994 798.824C216.144 799.091 216.346 799.299 216.602 799.448C216.858 799.587 217.157 799.656 217.498 799.656C217.829 799.656 218.122 799.587 218.378 799.448C218.634 799.299 218.837 799.091 218.986 798.824C219.136 798.547 219.21 798.221 219.21 797.848C219.21 797.464 219.136 797.139 218.986 796.872C218.837 796.605 218.634 796.403 218.378 796.264C218.122 796.125 217.829 796.056 217.498 796.056ZM216.41 789.848H218.554V792.44H216.41V789.848ZM238.153 789.592H240.281V804.408H238.153V789.592ZM233.785 791.128H235.881C235.881 792.259 235.769 793.341 235.545 794.376C235.332 795.4 234.969 796.365 234.457 797.272C233.956 798.179 233.262 799.021 232.377 799.8C231.502 800.568 230.409 801.272 229.097 801.912L227.977 800.232C229.406 799.539 230.542 798.776 231.385 797.944C232.238 797.101 232.852 796.152 233.225 795.096C233.598 794.029 233.785 792.835 233.785 791.512V791.128ZM228.777 791.128H234.777V792.824H228.777V791.128Z" fill="white"/>
<path d="M148.71 840.545C148.667 840.186 148.494 839.906 148.191 839.707C147.888 839.509 147.516 839.409 147.076 839.409C146.754 839.409 146.472 839.461 146.231 839.565C145.992 839.67 145.805 839.813 145.67 839.995C145.537 840.177 145.471 840.384 145.471 840.616C145.471 840.811 145.517 840.978 145.609 841.117C145.704 841.254 145.825 841.369 145.972 841.462C146.118 841.552 146.272 841.626 146.433 841.685C146.594 841.742 146.742 841.788 146.877 841.824L147.616 842.023C147.805 842.072 148.016 842.141 148.248 842.229C148.482 842.316 148.706 842.436 148.919 842.587C149.134 842.737 149.312 842.928 149.452 843.163C149.591 843.397 149.661 843.685 149.661 844.026C149.661 844.419 149.558 844.774 149.352 845.091C149.149 845.408 148.85 845.66 148.457 845.847C148.067 846.034 147.592 846.128 147.033 846.128C146.513 846.128 146.062 846.044 145.68 845.876C145.302 845.708 145.003 845.473 144.786 845.173C144.57 844.872 144.448 844.523 144.42 844.125H145.329C145.353 844.4 145.445 844.627 145.606 844.807C145.769 844.984 145.975 845.117 146.224 845.205C146.475 845.29 146.745 845.332 147.033 845.332C147.37 845.332 147.671 845.278 147.939 845.169C148.206 845.058 148.418 844.904 148.575 844.707C148.731 844.509 148.809 844.277 148.809 844.011C148.809 843.77 148.741 843.573 148.607 843.422C148.472 843.27 148.294 843.147 148.074 843.053C147.854 842.958 147.616 842.875 147.36 842.804L146.465 842.548C145.897 842.385 145.447 842.152 145.116 841.849C144.784 841.546 144.619 841.149 144.619 840.659C144.619 840.252 144.729 839.897 144.949 839.594C145.171 839.288 145.47 839.052 145.844 838.884C146.22 838.713 146.64 838.628 147.104 838.628C147.573 838.628 147.99 838.712 148.354 838.88C148.719 839.046 149.008 839.273 149.221 839.562C149.436 839.851 149.55 840.179 149.562 840.545H148.71ZM153.254 846.099C152.837 846.099 152.462 846.017 152.128 845.851C151.795 845.685 151.527 845.458 151.326 845.169C151.125 844.88 151.015 844.551 150.996 844.182H151.848C151.881 844.511 152.03 844.783 152.295 844.999C152.563 845.212 152.882 845.318 153.254 845.318C153.552 845.318 153.818 845.248 154.05 845.109C154.284 844.969 154.467 844.777 154.6 844.533C154.735 844.287 154.802 844.009 154.802 843.699C154.802 843.382 154.733 843.099 154.593 842.85C154.456 842.599 154.266 842.402 154.025 842.257C153.783 842.113 153.507 842.039 153.197 842.037C152.975 842.035 152.746 842.069 152.512 842.14C152.278 842.209 152.085 842.297 151.933 842.406L151.109 842.307L151.55 838.727H155.328V839.509H152.288L152.032 841.653H152.075C152.224 841.535 152.411 841.437 152.636 841.359C152.861 841.281 153.095 841.241 153.339 841.241C153.784 841.241 154.181 841.348 154.529 841.561C154.879 841.772 155.154 842.061 155.353 842.428C155.554 842.795 155.655 843.214 155.655 843.685C155.655 844.149 155.55 844.563 155.342 844.928C155.136 845.29 154.852 845.576 154.49 845.787C154.128 845.995 153.716 846.099 153.254 846.099ZM160.205 841.973V842.754H157.023V841.973H160.205ZM161.323 846V845.361L163.724 842.733C164.005 842.425 164.237 842.158 164.42 841.93C164.602 841.701 164.737 841.485 164.825 841.284C164.915 841.08 164.96 840.867 164.96 840.645C164.96 840.389 164.898 840.168 164.775 839.981C164.654 839.794 164.488 839.649 164.278 839.548C164.067 839.446 163.83 839.395 163.567 839.395C163.288 839.395 163.044 839.453 162.836 839.569C162.63 839.683 162.47 839.842 162.357 840.048C162.245 840.254 162.19 840.496 162.19 840.773H161.352C161.352 840.347 161.45 839.973 161.646 839.651C161.843 839.329 162.11 839.078 162.449 838.898C162.79 838.718 163.172 838.628 163.596 838.628C164.022 838.628 164.4 838.718 164.729 838.898C165.058 839.078 165.316 839.32 165.503 839.626C165.69 839.931 165.783 840.271 165.783 840.645C165.783 840.912 165.735 841.174 165.638 841.43C165.543 841.683 165.377 841.966 165.141 842.278C164.906 842.589 164.581 842.967 164.164 843.415L162.531 845.162V845.219H165.911V846H161.323ZM179.438 841.973V842.754H169.438V841.973H179.438ZM183.429 846H182.506L185.176 838.727H186.085L188.756 846H187.832L185.659 839.878H185.602L183.429 846ZM183.77 843.159H187.491V843.94H183.77V843.159ZM191.835 846.114C191.38 846.114 190.979 845.999 190.631 845.769C190.283 845.537 190.01 845.21 189.814 844.789C189.617 844.365 189.519 843.865 189.519 843.287C189.519 842.714 189.617 842.217 189.814 841.795C190.01 841.374 190.284 841.049 190.634 840.819C190.985 840.589 191.389 840.474 191.849 840.474C192.204 840.474 192.484 840.534 192.69 840.652C192.899 840.768 193.057 840.901 193.166 841.05C193.277 841.196 193.364 841.317 193.425 841.412H193.496V838.727H194.335V846H193.525V845.162H193.425C193.364 845.261 193.276 845.387 193.163 845.538C193.049 845.687 192.887 845.821 192.676 845.94C192.465 846.056 192.185 846.114 191.835 846.114ZM191.948 845.361C192.284 845.361 192.568 845.273 192.8 845.098C193.032 844.92 193.209 844.675 193.33 844.363C193.45 844.048 193.511 843.685 193.511 843.273C193.511 842.866 193.451 842.509 193.333 842.204C193.215 841.896 193.04 841.657 192.808 841.487C192.576 841.314 192.289 841.227 191.948 841.227C191.593 841.227 191.297 841.318 191.06 841.501C190.826 841.681 190.65 841.926 190.531 842.236C190.415 842.544 190.357 842.889 190.357 843.273C190.357 843.661 190.416 844.014 190.535 844.331C190.656 844.646 190.833 844.897 191.067 845.084C191.304 845.268 191.598 845.361 191.948 845.361ZM198.045 846.114C197.591 846.114 197.19 845.999 196.842 845.769C196.494 845.537 196.221 845.21 196.025 844.789C195.828 844.365 195.73 843.865 195.73 843.287C195.73 842.714 195.828 842.217 196.025 841.795C196.221 841.374 196.495 841.049 196.845 840.819C197.196 840.589 197.6 840.474 198.06 840.474C198.415 840.474 198.695 840.534 198.901 840.652C199.11 840.768 199.268 840.901 199.377 841.05C199.488 841.196 199.575 841.317 199.636 841.412H199.707V838.727H200.545V846H199.736V845.162H199.636C199.575 845.261 199.487 845.387 199.374 845.538C199.26 845.687 199.098 845.821 198.887 845.94C198.676 846.056 198.396 846.114 198.045 846.114ZM198.159 845.361C198.495 845.361 198.779 845.273 199.011 845.098C199.243 844.92 199.42 844.675 199.54 844.363C199.661 844.048 199.722 843.685 199.722 843.273C199.722 842.866 199.662 842.509 199.544 842.204C199.426 841.896 199.25 841.657 199.018 841.487C198.786 841.314 198.5 841.227 198.159 841.227C197.804 841.227 197.508 841.318 197.271 841.501C197.037 841.681 196.861 841.926 196.742 842.236C196.626 842.544 196.568 842.889 196.568 843.273C196.568 843.661 196.627 844.014 196.746 844.331C196.866 844.646 197.044 844.897 197.278 845.084C197.515 845.268 197.809 845.361 198.159 845.361ZM209.1 840.545C209.058 840.186 208.885 839.906 208.582 839.707C208.279 839.509 207.907 839.409 207.467 839.409C207.145 839.409 206.863 839.461 206.621 839.565C206.382 839.67 206.195 839.813 206.06 839.995C205.928 840.177 205.862 840.384 205.862 840.616C205.862 840.811 205.908 840.978 206 841.117C206.095 841.254 206.215 841.369 206.362 841.462C206.509 841.552 206.663 841.626 206.824 841.685C206.985 841.742 207.133 841.788 207.268 841.824L208.006 842.023C208.196 842.072 208.406 842.141 208.638 842.229C208.873 842.316 209.097 842.436 209.31 842.587C209.525 842.737 209.703 842.928 209.842 843.163C209.982 843.397 210.052 843.685 210.052 844.026C210.052 844.419 209.949 844.774 209.743 845.091C209.539 845.408 209.241 845.66 208.848 845.847C208.457 846.034 207.983 846.128 207.424 846.128C206.903 846.128 206.452 846.044 206.071 845.876C205.692 845.708 205.394 845.473 205.176 845.173C204.961 844.872 204.839 844.523 204.81 844.125H205.719C205.743 844.4 205.835 844.627 205.996 844.807C206.16 844.984 206.366 845.117 206.614 845.205C206.865 845.29 207.135 845.332 207.424 845.332C207.76 845.332 208.062 845.278 208.33 845.169C208.597 845.058 208.809 844.904 208.965 844.707C209.121 844.509 209.2 844.277 209.2 844.011C209.2 843.77 209.132 843.573 208.997 843.422C208.862 843.27 208.685 843.147 208.464 843.053C208.244 842.958 208.006 842.875 207.751 842.804L206.856 842.548C206.288 842.385 205.838 842.152 205.506 841.849C205.175 841.546 205.009 841.149 205.009 840.659C205.009 840.252 205.119 839.897 205.339 839.594C205.562 839.288 205.86 839.052 206.234 838.884C206.611 838.713 207.031 838.628 207.495 838.628C207.964 838.628 208.38 838.712 208.745 838.88C209.11 839.046 209.398 839.273 209.612 839.562C209.827 839.851 209.941 840.179 209.952 840.545H209.1ZM213.602 846.114C213.091 846.114 212.65 845.993 212.281 845.751C211.912 845.51 211.628 845.177 211.429 844.754C211.23 844.33 211.131 843.846 211.131 843.301C211.131 842.747 211.232 842.258 211.436 841.835C211.642 841.408 211.928 841.076 212.295 840.837C212.665 840.595 213.095 840.474 213.588 840.474C213.971 840.474 214.317 840.545 214.625 840.688C214.933 840.83 215.185 841.028 215.381 841.284C215.578 841.54 215.7 841.838 215.747 842.179H214.909C214.845 841.93 214.703 841.71 214.483 841.518C214.265 841.324 213.971 841.227 213.602 841.227C213.275 841.227 212.989 841.312 212.743 841.483C212.499 841.651 212.308 841.889 212.171 842.197C212.036 842.502 211.969 842.861 211.969 843.273C211.969 843.694 212.035 844.061 212.167 844.374C212.302 844.686 212.492 844.929 212.736 845.102C212.982 845.274 213.271 845.361 213.602 845.361C213.82 845.361 214.018 845.323 214.195 845.247C214.373 845.171 214.523 845.062 214.646 844.92C214.769 844.778 214.857 844.608 214.909 844.409H215.747C215.7 844.731 215.582 845.021 215.395 845.279C215.211 845.535 214.966 845.738 214.66 845.89C214.357 846.039 214.005 846.114 213.602 846.114ZM217.81 842.719V846H216.972V838.727H217.81V841.398H217.881C218.009 841.116 218.201 840.892 218.456 840.727C218.715 840.558 219.058 840.474 219.486 840.474C219.858 840.474 220.184 840.549 220.463 840.698C220.742 840.845 220.959 841.071 221.113 841.376C221.269 841.679 221.347 842.065 221.347 842.534V846H220.509V842.591C220.509 842.158 220.397 841.823 220.172 841.586C219.949 841.347 219.64 841.227 219.245 841.227C218.97 841.227 218.724 841.285 218.506 841.401C218.291 841.517 218.12 841.687 217.995 841.909C217.872 842.132 217.81 842.402 217.81 842.719ZM225.167 846.114C224.642 846.114 224.188 845.998 223.807 845.766C223.428 845.531 223.136 845.205 222.93 844.786C222.726 844.364 222.625 843.874 222.625 843.315C222.625 842.757 222.726 842.264 222.93 841.838C223.136 841.41 223.422 841.076 223.789 840.837C224.159 840.595 224.59 840.474 225.082 840.474C225.366 840.474 225.647 840.522 225.924 840.616C226.201 840.711 226.453 840.865 226.68 841.078C226.907 841.289 227.088 841.568 227.223 841.916C227.358 842.264 227.426 842.693 227.426 843.202V843.557H223.221V842.832H226.574C226.574 842.525 226.512 842.25 226.389 842.009C226.268 841.767 226.095 841.576 225.87 841.437C225.648 841.297 225.385 841.227 225.082 841.227C224.748 841.227 224.459 841.31 224.216 841.476C223.974 841.639 223.788 841.852 223.658 842.115C223.528 842.378 223.463 842.66 223.463 842.96V843.443C223.463 843.855 223.534 844.204 223.676 844.491C223.82 844.775 224.02 844.991 224.276 845.141C224.532 845.287 224.829 845.361 225.167 845.361C225.387 845.361 225.586 845.33 225.764 845.268C225.944 845.205 226.099 845.11 226.229 844.984C226.359 844.857 226.46 844.698 226.531 844.509L227.341 844.736C227.255 845.01 227.112 845.252 226.911 845.46C226.71 845.666 226.461 845.827 226.165 845.943C225.869 846.057 225.537 846.114 225.167 846.114ZM230.76 846.114C230.306 846.114 229.904 845.999 229.556 845.769C229.208 845.537 228.936 845.21 228.74 844.789C228.543 844.365 228.445 843.865 228.445 843.287C228.445 842.714 228.543 842.217 228.74 841.795C228.936 841.374 229.21 841.049 229.56 840.819C229.91 840.589 230.315 840.474 230.775 840.474C231.13 840.474 231.41 840.534 231.616 840.652C231.824 840.768 231.983 840.901 232.092 841.05C232.203 841.196 232.29 841.317 232.351 841.412H232.422V838.727H233.26V846H232.451V845.162H232.351C232.29 845.261 232.202 845.387 232.088 845.538C231.975 845.687 231.813 845.821 231.602 845.94C231.391 846.056 231.111 846.114 230.76 846.114ZM230.874 845.361C231.21 845.361 231.494 845.273 231.726 845.098C231.958 844.92 232.135 844.675 232.255 844.363C232.376 844.048 232.436 843.685 232.436 843.273C232.436 842.866 232.377 842.509 232.259 842.204C232.141 841.896 231.965 841.657 231.733 841.487C231.501 841.314 231.215 841.227 230.874 841.227C230.519 841.227 230.223 841.318 229.986 841.501C229.752 841.681 229.575 841.926 229.457 842.236C229.341 842.544 229.283 842.889 229.283 843.273C229.283 843.661 229.342 844.014 229.461 844.331C229.581 844.646 229.759 844.897 229.993 845.084C230.23 845.268 230.524 845.361 230.874 845.361ZM238.349 843.77V840.545H239.187V846H238.349V845.077H238.292C238.164 845.354 237.966 845.589 237.696 845.783C237.426 845.975 237.085 846.071 236.673 846.071C236.332 846.071 236.029 845.996 235.764 845.847C235.499 845.696 235.29 845.469 235.139 845.165C234.987 844.86 234.912 844.475 234.912 844.011V840.545H235.75V843.955C235.75 844.352 235.861 844.67 236.083 844.906C236.308 845.143 236.595 845.261 236.943 845.261C237.151 845.261 237.363 845.208 237.578 845.102C237.796 844.995 237.979 844.832 238.125 844.612C238.275 844.391 238.349 844.111 238.349 843.77ZM241.56 838.727V846H240.722V838.727H241.56ZM245.382 846.114C244.857 846.114 244.403 845.998 244.022 845.766C243.643 845.531 243.351 845.205 243.145 844.786C242.941 844.364 242.839 843.874 242.839 843.315C242.839 842.757 242.941 842.264 243.145 841.838C243.351 841.41 243.637 841.076 244.004 840.837C244.374 840.595 244.804 840.474 245.297 840.474C245.581 840.474 245.862 840.522 246.138 840.616C246.415 840.711 246.668 840.865 246.895 841.078C247.122 841.289 247.303 841.568 247.438 841.916C247.573 842.264 247.641 842.693 247.641 843.202V843.557H243.436V842.832H246.788C246.788 842.525 246.727 842.25 246.604 842.009C246.483 841.767 246.31 841.576 246.085 841.437C245.863 841.297 245.6 841.227 245.297 841.227C244.963 841.227 244.674 841.31 244.43 841.476C244.189 841.639 244.003 841.852 243.873 842.115C243.743 842.378 243.678 842.66 243.678 842.96V843.443C243.678 843.855 243.749 844.204 243.891 844.491C244.035 844.775 244.235 844.991 244.491 845.141C244.746 845.287 245.044 845.361 245.382 845.361C245.602 845.361 245.801 845.33 245.979 845.268C246.159 845.205 246.314 845.11 246.444 844.984C246.574 844.857 246.675 844.698 246.746 844.509L247.555 844.736C247.47 845.01 247.327 845.252 247.126 845.46C246.924 845.666 246.676 845.827 246.38 845.943C246.084 846.057 245.751 846.114 245.382 846.114Z" fill="#D1D6DB"/>
</g>
<defs>
<clipPath id="clip0_54_1021">
<rect width="393" height="852" fill="white"/>
</clipPath>
</defs>
</svg>
