
<svg width="393" height="852" viewBox="0 0 393 852" fill="none" xmlns="http://www.w3.org/2000/svg">
    <g clip-path="url(#clip0_54_1132)">
        <path d="M393 0H0V852H393V0Z" fill="white"/>
        <path opacity="0.4" d="M393 0H0V852H393V0Z" fill="black"/>
        <path d="M369 360H24C10.7452 360 0 370.745 0 384V828C0 841.255 10.7452 852 24 852H369C382.255 852 393 841.255 393 828V384C393 370.745 382.255 360 369 360Z" fill="white"/>
        <path d="M220 370H174C172.895 370 172 370.895 172 372C172 373.105 172.895 374 174 374H220C221.105 374 222 373.105 222 372C222 370.895 221.105 370 220 370Z" fill="#D1D6DB"/>
        <path d="M115.465 400.83H116.47V401.415C116.47 402.185 116.31 402.9 115.99 403.56C115.68 404.22 115.24 404.79 114.67 405.27C114.1 405.75 113.435 406.115 112.675 406.365L112.075 405.39C112.745 405.18 113.335 404.88 113.845 404.49C114.355 404.09 114.75 403.625 115.03 403.095C115.32 402.565 115.465 402.005 115.465 401.415V400.83ZM115.675 400.83H116.695V401.415C116.695 401.955 116.83 402.475 117.1 402.975C117.38 403.465 117.77 403.9 118.27 404.28C118.77 404.65 119.35 404.935 120.01 405.135L119.425 406.11C118.675 405.87 118.015 405.52 117.445 405.06C116.885 404.6 116.45 404.06 116.14 403.44C115.83 402.81 115.675 402.135 115.675 401.415V400.83ZM112.45 400.185H119.695V401.19H112.45V400.185ZM115.465 398.535H116.71V400.59H115.465V398.535ZM121.36 398.595H122.605V406.62H121.36V398.595ZM122.26 402.03H124.6V403.065H122.26V402.03ZM114.085 407.265H122.605V411.99H114.085V407.265ZM121.375 408.255H115.3V410.97H121.375V408.255ZM135.054 398.595H136.299V412.155H135.054V398.595ZM135.969 404.1H138.459V405.135H135.969V404.1ZM131.589 400.05H132.804C132.804 401.34 132.594 402.575 132.174 403.755C131.754 404.925 131.094 406.01 130.194 407.01C129.294 408 128.109 408.86 126.639 409.59L125.949 408.63C127.209 408 128.254 407.265 129.084 406.425C129.924 405.575 130.549 404.635 130.959 403.605C131.379 402.565 131.589 401.445 131.589 400.245V400.05ZM126.579 400.05H132.219V401.085H126.579V400.05ZM143.017 400.545H144.022V402.735C144.022 403.445 143.922 404.15 143.722 404.85C143.522 405.54 143.242 406.195 142.882 406.815C142.532 407.425 142.127 407.97 141.667 408.45C141.207 408.92 140.712 409.29 140.182 409.56L139.447 408.57C139.937 408.33 140.392 408.005 140.812 407.595C141.242 407.175 141.622 406.7 141.952 406.17C142.282 405.63 142.542 405.07 142.732 404.49C142.922 403.9 143.017 403.315 143.017 402.735V400.545ZM143.257 400.545H144.247V402.735C144.247 403.275 144.332 403.82 144.502 404.37C144.682 404.92 144.932 405.445 145.252 405.945C145.572 406.445 145.942 406.895 146.362 407.295C146.792 407.685 147.247 408 147.727 408.24L147.022 409.23C146.492 408.96 145.997 408.6 145.537 408.15C145.077 407.69 144.677 407.17 144.337 406.59C143.997 406.01 143.732 405.39 143.542 404.73C143.352 404.07 143.257 403.405 143.257 402.735V400.545ZM139.927 399.99H147.247V401.025H139.927V399.99ZM148.852 398.595H150.097V412.17H148.852V398.595ZM149.812 404.07H152.317V405.12H149.812V404.07ZM159.007 411.085C158.744 411.085 158.518 410.991 158.33 410.803C158.142 410.615 158.048 410.389 158.048 410.126C158.048 409.864 158.142 409.638 158.33 409.45C158.518 409.262 158.744 409.168 159.007 409.168C159.269 409.168 159.495 409.262 159.683 409.45C159.871 409.638 159.966 409.864 159.966 410.126C159.966 410.3 159.921 410.46 159.832 410.606C159.747 410.751 159.632 410.869 159.486 410.957C159.344 411.043 159.184 411.085 159.007 411.085ZM159.007 405.013C158.744 405.013 158.518 404.919 158.33 404.73C158.142 404.542 158.048 404.317 158.048 404.054C158.048 403.791 158.142 403.566 158.33 403.377C158.518 403.189 158.744 403.095 159.007 403.095C159.269 403.095 159.495 403.189 159.683 403.377C159.871 403.566 159.966 403.791 159.966 404.054C159.966 404.228 159.921 404.388 159.832 404.533C159.747 404.679 159.632 404.796 159.486 404.885C159.344 404.97 159.184 405.013 159.007 405.013ZM171.53 398.82H172.61V399.435C172.61 399.915 172.51 400.365 172.31 400.785C172.12 401.205 171.85 401.595 171.5 401.955C171.16 402.305 170.76 402.62 170.3 402.9C169.85 403.17 169.36 403.4 168.83 403.59C168.31 403.77 167.775 403.905 167.225 403.995L166.745 403.005C167.235 402.945 167.71 402.84 168.17 402.69C168.64 402.53 169.075 402.34 169.475 402.12C169.885 401.89 170.24 401.635 170.54 401.355C170.85 401.075 171.09 400.775 171.26 400.455C171.44 400.125 171.53 399.785 171.53 399.435V398.82ZM171.74 398.82H172.805V399.435C172.805 399.785 172.89 400.12 173.06 400.44C173.24 400.76 173.485 401.06 173.795 401.34C174.105 401.62 174.46 401.875 174.86 402.105C175.26 402.335 175.69 402.53 176.15 402.69C176.62 402.84 177.095 402.945 177.575 403.005L177.11 403.995C176.56 403.905 176.02 403.765 175.49 403.575C174.97 403.385 174.48 403.155 174.02 402.885C173.57 402.605 173.17 402.29 172.82 401.94C172.48 401.58 172.215 401.19 172.025 400.77C171.835 400.35 171.74 399.905 171.74 399.435V398.82ZM166.04 405.075H178.295V406.08H166.04V405.075ZM172.16 407.34C173.61 407.34 174.745 407.545 175.565 407.955C176.385 408.365 176.795 408.96 176.795 409.74C176.795 410.51 176.385 411.105 175.565 411.525C174.745 411.945 173.61 412.155 172.16 412.155C170.71 412.155 169.57 411.945 168.74 411.525C167.92 411.105 167.51 410.51 167.51 409.74C167.51 408.96 167.92 408.365 168.74 407.955C169.57 407.545 170.71 407.34 172.16 407.34ZM172.16 408.3C171.45 408.3 170.84 408.36 170.33 408.48C169.83 408.59 169.445 408.75 169.175 408.96C168.905 409.17 168.77 409.43 168.77 409.74C168.77 410.05 168.905 410.315 169.175 410.535C169.445 410.745 169.83 410.905 170.33 411.015C170.84 411.125 171.45 411.18 172.16 411.18C172.87 411.18 173.475 411.125 173.975 411.015C174.485 410.905 174.875 410.745 175.145 410.535C175.415 410.315 175.55 410.05 175.55 409.74C175.55 409.43 175.415 409.17 175.145 408.96C174.875 408.75 174.485 408.59 173.975 408.48C173.475 408.36 172.87 408.3 172.16 408.3ZM180.438 400.59H191.463V401.61H180.438V400.59ZM179.838 409.56H192.138V410.58H179.838V409.56ZM185.343 407.4H186.573V409.95H185.343V407.4ZM185.958 402.51C186.868 402.51 187.653 402.615 188.313 402.825C188.983 403.025 189.498 403.315 189.858 403.695C190.218 404.075 190.398 404.54 190.398 405.09C190.398 405.63 190.218 406.095 189.858 406.485C189.498 406.875 188.983 407.175 188.313 407.385C187.653 407.585 186.868 407.685 185.958 407.685C185.048 407.685 184.258 407.585 183.588 407.385C182.928 407.175 182.418 406.875 182.058 406.485C181.698 406.095 181.518 405.63 181.518 405.09C181.518 404.54 181.698 404.075 182.058 403.695C182.418 403.315 182.928 403.025 183.588 402.825C184.258 402.615 185.048 402.51 185.958 402.51ZM185.958 403.5C185.298 403.5 184.728 403.565 184.248 403.695C183.778 403.815 183.413 403.995 183.153 404.235C182.903 404.465 182.778 404.75 182.778 405.09C182.778 405.42 182.903 405.705 183.153 405.945C183.413 406.185 183.778 406.37 184.248 406.5C184.728 406.62 185.298 406.68 185.958 406.68C186.618 406.68 187.183 406.62 187.653 406.5C188.123 406.37 188.488 406.185 188.748 405.945C189.008 405.705 189.138 405.42 189.138 405.09C189.138 404.75 189.008 404.465 188.748 404.235C188.488 403.995 188.123 403.815 187.653 403.695C187.183 403.565 186.618 403.5 185.958 403.5ZM185.343 398.82H186.573V401.205H185.343V398.82ZM194.485 406.398C194.485 405.055 194.659 403.821 195.007 402.696C195.359 401.566 195.86 400.528 196.509 399.58H197.617C197.362 399.931 197.122 400.364 196.898 400.879C196.678 401.391 196.485 401.953 196.318 402.568C196.151 403.179 196.019 403.811 195.923 404.464C195.831 405.118 195.785 405.762 195.785 406.398C195.785 407.243 195.867 408.1 196.03 408.971C196.193 409.841 196.413 410.648 196.69 411.394C196.967 412.14 197.276 412.747 197.617 413.216H196.509C195.86 412.268 195.359 411.231 195.007 410.105C194.659 408.976 194.485 407.74 194.485 406.398ZM209.167 404.01H211.657V405.045H209.167V404.01ZM208.252 398.595H209.497V412.155H208.252V398.595ZM199.612 399.93H200.842V408.33H199.612V399.93ZM199.612 407.685H200.692C201.682 407.685 202.697 407.64 203.737 407.55C204.787 407.46 205.872 407.3 206.992 407.07L207.142 408.12C205.982 408.35 204.872 408.51 203.812 408.6C202.762 408.68 201.722 408.72 200.692 408.72H199.612V407.685ZM215.956 406.398C215.956 407.74 215.78 408.976 215.428 410.105C215.08 411.231 214.582 412.268 213.932 413.216H212.824C213.079 412.864 213.317 412.431 213.538 411.916C213.761 411.405 213.957 410.844 214.123 410.233C214.29 409.619 214.42 408.985 214.512 408.331C214.608 407.674 214.656 407.03 214.656 406.398C214.656 405.553 214.574 404.695 214.411 403.825C214.248 402.955 214.028 402.147 213.751 401.401C213.474 400.656 213.165 400.048 212.824 399.58H213.932C214.582 400.528 215.08 401.566 215.428 402.696C215.78 403.821 215.956 405.055 215.956 406.398ZM220.581 409.509L220.496 410.084C220.435 410.489 220.343 410.922 220.219 411.384C220.098 411.845 219.972 412.28 219.84 412.689C219.709 413.097 219.601 413.422 219.515 413.663H218.557C218.603 413.436 218.663 413.136 218.738 412.763C218.812 412.39 218.887 411.973 218.961 411.511C219.04 411.053 219.103 410.585 219.153 410.105L219.217 409.509H220.581ZM236.613 398.595H237.858V412.17H236.613V398.595ZM232.638 400.065H233.868C233.868 401.045 233.748 401.99 233.508 402.9C233.278 403.81 232.913 404.675 232.413 405.495C231.913 406.305 231.263 407.06 230.463 407.76C229.663 408.46 228.693 409.085 227.553 409.635L226.893 408.63C228.203 408 229.283 407.265 230.133 406.425C230.983 405.585 231.613 404.65 232.023 403.62C232.433 402.58 232.638 401.46 232.638 400.26V400.065ZM227.523 400.065H233.163V401.07H227.523V400.065ZM241.112 407.865H242.177C243.007 407.865 243.767 407.855 244.457 407.835C245.147 407.815 245.812 407.775 246.452 407.715C247.102 407.655 247.767 407.565 248.447 407.445L248.567 408.465C247.877 408.585 247.202 408.68 246.542 408.75C245.882 408.81 245.197 408.85 244.487 408.87C243.787 408.89 243.017 408.9 242.177 408.9H241.112V407.865ZM241.112 399.825H247.427V400.86H242.357V408.225H241.112V399.825ZM242.042 403.635H247.127V404.64H242.042V403.635ZM249.707 398.595H250.952V412.17H249.707V398.595ZM250.667 404.04H253.172V405.09H250.667V404.04ZM258.924 411V410.041L262.525 406.099C262.947 405.638 263.295 405.237 263.569 404.896C263.842 404.551 264.044 404.228 264.176 403.926C264.311 403.621 264.378 403.301 264.378 402.967C264.378 402.584 264.286 402.252 264.101 401.971C263.92 401.691 263.672 401.474 263.356 401.321C263.039 401.169 262.684 401.092 262.29 401.092C261.871 401.092 261.505 401.179 261.193 401.353C260.884 401.524 260.644 401.763 260.474 402.072C260.307 402.381 260.223 402.744 260.223 403.159H258.966C258.966 402.52 259.114 401.959 259.408 401.476C259.703 400.993 260.104 400.616 260.612 400.347C261.124 400.077 261.697 399.942 262.333 399.942C262.972 399.942 263.538 400.077 264.032 400.347C264.526 400.616 264.913 400.98 265.193 401.439C265.474 401.897 265.614 402.406 265.614 402.967C265.614 403.369 265.541 403.761 265.396 404.145C265.254 404.525 265.005 404.949 264.65 405.418C264.298 405.883 263.81 406.451 263.185 407.122L260.735 409.743V409.828H265.806V411H258.924ZM274.091 400.8H278.006V401.805H274.091V400.8ZM274.091 403.485H278.036V404.505H274.091V403.485ZM277.541 398.595H278.786V406.62H277.541V398.595ZM268.256 399.63H274.436V405.66H268.256V399.63ZM273.221 400.635H269.471V404.655H273.221V400.635ZM274.316 407.025C275.716 407.025 276.816 407.25 277.616 407.7C278.426 408.15 278.831 408.78 278.831 409.59C278.831 410.4 278.426 411.025 277.616 411.465C276.816 411.915 275.716 412.14 274.316 412.14C272.916 412.14 271.811 411.915 271.001 411.465C270.201 411.025 269.801 410.4 269.801 409.59C269.801 408.78 270.201 408.15 271.001 407.7C271.811 407.25 272.916 407.025 274.316 407.025ZM274.316 408C273.636 408 273.051 408.065 272.561 408.195C272.071 408.315 271.691 408.495 271.421 408.735C271.161 408.965 271.031 409.25 271.031 409.59C271.031 409.91 271.161 410.19 271.421 410.43C271.691 410.66 272.071 410.84 272.561 410.97C273.051 411.1 273.636 411.165 274.316 411.165C275.006 411.165 275.591 411.1 276.071 410.97C276.561 410.84 276.936 410.66 277.196 410.43C277.466 410.19 277.601 409.91 277.601 409.59C277.601 409.25 277.466 408.965 277.196 408.735C276.936 408.495 276.561 408.315 276.071 408.195C275.591 408.065 275.006 408 274.316 408Z" fill="#4E5968"/>
        <path d="M24 428H369" stroke="#F2F3F5"/>
        <path d="M33.399 449.942H35.557V450.839H33.399V449.942ZM32.606 445.249H33.685V457.001H32.606V445.249ZM25.118 446.406H26.184V453.686H25.118V446.406ZM25.118 453.127H26.054C26.912 453.127 27.7917 453.088 28.693 453.01C29.603 452.932 30.5433 452.793 31.514 452.594L31.644 453.504C30.6387 453.703 29.6767 453.842 28.758 453.92C27.848 453.989 26.9467 454.024 26.054 454.024H25.118V453.127Z" fill="#8B95A1"/>
        <path d="M48 516C60.1503 516 70 506.15 70 494C70 481.85 60.1503 472 48 472C35.8497 472 26 481.85 26 494C26 506.15 35.8497 516 48 516Z" fill="#FFE8E8"/>
        <path opacity="0.3" d="M48 496C51.866 496 55 492.866 55 489C55 485.134 51.866 482 48 482C44.134 482 41 485.134 41 489C41 492.866 44.134 496 48 496Z" fill="#FF6B6B"/>
        <path opacity="0.15" d="M37 504C37 498 42 495 48 495C54 495 59 498 59 504" fill="#FF6B6B"/>
        <path d="M90.256 485.848H92.08V486.296C92.08 486.819 91.9947 487.325 91.824 487.816C91.6533 488.296 91.4027 488.744 91.072 489.16C90.7413 489.576 90.3307 489.949 89.84 490.28C89.3493 490.611 88.7893 490.893 88.16 491.128C87.5307 491.352 86.8373 491.512 86.08 491.608L85.312 489.944C85.9733 489.869 86.5707 489.747 87.104 489.576C87.6373 489.395 88.096 489.187 88.48 488.952C88.8747 488.707 89.2 488.44 89.456 488.152C89.7227 487.853 89.92 487.549 90.048 487.24C90.1867 486.92 90.256 486.605 90.256 486.296V485.848ZM90.608 485.848H92.432V486.296C92.432 486.605 92.496 486.915 92.624 487.224C92.7627 487.533 92.96 487.837 93.216 488.136C93.4827 488.424 93.8133 488.691 94.208 488.936C94.6027 489.181 95.0613 489.395 95.584 489.576C96.1173 489.747 96.7147 489.869 97.376 489.944L96.608 491.608C95.8507 491.512 95.1573 491.347 94.528 491.112C93.8987 490.877 93.3387 490.595 92.848 490.264C92.368 489.933 91.9627 489.56 91.632 489.144C91.3013 488.728 91.0453 488.28 90.864 487.8C90.6933 487.32 90.608 486.819 90.608 486.296V485.848ZM84.64 492.408H98.048V494.088H84.64V492.408ZM91.312 495.048C92.912 495.048 94.1707 495.283 95.088 495.752C96.0053 496.221 96.464 496.888 96.464 497.752C96.464 498.605 96.0053 499.267 95.088 499.736C94.1707 500.205 92.912 500.44 91.312 500.44C89.712 500.44 88.4533 500.205 87.536 499.736C86.6293 499.267 86.176 498.605 86.176 497.752C86.176 496.888 86.6293 496.221 87.536 495.752C88.4533 495.283 89.712 495.048 91.312 495.048ZM91.312 496.664C90.6507 496.664 90.096 496.701 89.648 496.776C89.2107 496.851 88.88 496.973 88.656 497.144C88.432 497.304 88.32 497.507 88.32 497.752C88.32 497.997 88.432 498.2 88.656 498.36C88.88 498.52 89.2107 498.643 89.648 498.728C90.096 498.803 90.6507 498.84 91.312 498.84C91.9733 498.84 92.5227 498.803 92.96 498.728C93.408 498.643 93.744 498.52 93.968 498.36C94.192 498.2 94.304 497.997 94.304 497.752C94.304 497.507 94.192 497.304 93.968 497.144C93.744 496.973 93.408 496.851 92.96 496.776C92.5227 496.701 91.9733 496.664 91.312 496.664ZM99.9508 487.448H112.159V489.144H99.9508V487.448ZM99.3748 497.224H112.799V498.936H99.3748V497.224ZM104.991 495.256H107.119V497.896H104.991V495.256ZM106.047 489.768C107.071 489.768 107.956 489.885 108.703 490.12C109.46 490.344 110.041 490.675 110.447 491.112C110.852 491.539 111.055 492.056 111.055 492.664C111.055 493.272 110.852 493.795 110.447 494.232C110.041 494.659 109.46 494.989 108.703 495.224C107.956 495.448 107.065 495.56 106.031 495.56C105.007 495.56 104.116 495.448 103.359 495.224C102.612 494.989 102.036 494.659 101.631 494.232C101.225 493.795 101.023 493.272 101.023 492.664C101.023 492.056 101.225 491.539 101.631 491.112C102.036 490.675 102.612 490.344 103.359 490.12C104.116 489.885 105.012 489.768 106.047 489.768ZM106.031 491.416C105.423 491.416 104.905 491.464 104.479 491.56C104.052 491.645 103.727 491.779 103.503 491.96C103.289 492.141 103.183 492.376 103.183 492.664C103.183 492.941 103.289 493.176 103.503 493.368C103.727 493.549 104.052 493.683 104.479 493.768C104.905 493.853 105.423 493.896 106.031 493.896C106.66 493.896 107.183 493.853 107.599 493.768C108.015 493.683 108.329 493.549 108.543 493.368C108.767 493.176 108.879 492.941 108.879 492.664C108.879 492.376 108.767 492.141 108.543 491.96C108.329 491.779 108.015 491.645 107.599 491.56C107.183 491.464 106.66 491.416 106.031 491.416ZM104.991 485.752H107.119V488.504H104.991V485.752Z" fill="#191F28"/>
        <path d="M345 478H329C325.686 478 323 480.686 323 484V500C323 503.314 325.686 506 329 506H345C348.314 506 351 503.314 351 500V484C351 480.686 348.314 478 345 478Z" fill="#FF6B6B"/>
        <path d="M331 492L335 496L343 488" stroke="white" stroke-width="2.5" stroke-linecap="round" stroke-linejoin="round"/>
        <path d="M24 528H369" stroke="#F2F3F5"/>
        <path d="M33.529 545.262H34.569V552.061H33.529V545.262ZM31.28 545.496H32.307V551.931H31.28V545.496ZM29.408 548.122H31.631V549.019H29.408V548.122ZM25.17 546.107H29.707V551.19H25.17V546.107ZM28.693 546.952H26.184V550.371H28.693V546.952ZM26.847 552.646H34.569V556.858H26.847V552.646ZM33.503 553.504H27.9V555.974H33.503V553.504ZM45.215 545.249H46.281V557.027H45.215V545.249ZM42.121 549.617H45.527V550.501H42.121V549.617ZM37.077 546.172H38.156V549.227H41.419V546.172H42.472V554.063H37.077V546.172ZM38.156 550.085V553.179H41.419V550.085H38.156ZM52.9592 551.273C52.9592 550.109 53.11 549.04 53.4116 548.064C53.7163 547.086 54.1502 546.185 54.7134 545.364H55.6737C55.4521 545.668 55.2443 546.044 55.0504 546.49C54.8596 546.933 54.6919 547.421 54.5472 547.953C54.4026 548.483 54.2887 549.031 54.2056 549.597C54.1256 550.163 54.0856 550.722 54.0856 551.273C54.0856 552.005 54.1564 552.748 54.2979 553.502C54.4395 554.257 54.6303 554.957 54.8704 555.603C55.1104 556.249 55.3782 556.776 55.6737 557.182H54.7134C54.1502 556.36 53.7163 555.461 53.4116 554.486C53.11 553.507 52.9592 552.436 52.9592 551.273ZM57.0413 554.061V553.119L61.1961 546.545H61.8794V548.004H61.4177L58.2785 552.972V553.045H63.8737V554.061H57.0413ZM61.4916 556V553.775V553.336V546.545H62.5811V556H61.4916ZM67.9489 551.273C67.9489 552.436 67.7965 553.507 67.4918 554.486C67.1902 555.461 66.7578 556.36 66.1946 557.182H65.2344C65.456 556.877 65.6622 556.502 65.853 556.055C66.0469 555.612 66.2161 555.126 66.3608 554.597C66.5054 554.064 66.6178 553.515 66.6978 552.949C66.7809 552.379 66.8224 551.821 66.8224 551.273C66.8224 550.54 66.7517 549.797 66.6101 549.043C66.4685 548.289 66.2777 547.589 66.0376 546.942C65.7976 546.296 65.5298 545.77 65.2344 545.364H66.1946C66.7578 546.185 67.1902 547.086 67.4918 548.064C67.7965 549.04 67.9489 550.109 67.9489 551.273Z" fill="#8B95A1"/>
        <path d="M48 616C60.1503 616 70 606.15 70 594C70 581.85 60.1503 572 48 572C35.8497 572 26 581.85 26 594C26 606.15 35.8497 616 48 616Z" fill="#E0ECFF"/>
        <path opacity="0.3" d="M48 596C51.866 596 55 592.866 55 589C55 585.134 51.866 582 48 582C44.134 582 41 585.134 41 589C41 592.866 44.134 596 48 596Z" fill="#4A90D9"/>
        <path opacity="0.15" d="M37 604C37 598 42 595 48 595C54 595 59 598 59 604" fill="#4A90D9"/>
        <path d="M88.224 587.944H89.92V589.608C89.92 590.461 89.8293 591.299 89.648 592.12C89.4773 592.941 89.216 593.715 88.864 594.44C88.5227 595.155 88.0907 595.789 87.568 596.344C87.0453 596.888 86.4373 597.32 85.744 597.64L84.528 595.96C85.1467 595.672 85.6853 595.299 86.144 594.84C86.6133 594.381 86.9973 593.869 87.296 593.304C87.6053 592.728 87.8347 592.125 87.984 591.496C88.144 590.856 88.224 590.227 88.224 589.608V587.944ZM88.688 587.944H90.368V589.608C90.368 590.195 90.4427 590.792 90.592 591.4C90.752 591.997 90.9813 592.568 91.28 593.112C91.5787 593.645 91.9573 594.125 92.416 594.552C92.8747 594.979 93.4187 595.32 94.048 595.576L92.88 597.272C92.176 596.963 91.5627 596.547 91.04 596.024C90.5173 595.501 90.08 594.899 89.728 594.216C89.376 593.533 89.1147 592.803 88.944 592.024C88.7733 591.235 88.688 590.429 88.688 589.608V587.944ZM85.12 587.016H93.44V588.776H85.12V587.016ZM94.816 585.608H96.944V600.424H94.816V585.608ZM104.959 586.024H106.815V586.728C106.815 587.293 106.724 587.843 106.543 588.376C106.372 588.899 106.116 589.389 105.775 589.848C105.433 590.307 105.017 590.717 104.527 591.08C104.036 591.443 103.465 591.752 102.815 592.008C102.175 592.253 101.471 592.44 100.703 592.568L99.8708 590.856C100.553 590.771 101.161 590.627 101.695 590.424C102.239 590.221 102.713 589.981 103.119 589.704C103.535 589.427 103.876 589.123 104.143 588.792C104.409 588.461 104.612 588.12 104.751 587.768C104.889 587.416 104.959 587.069 104.959 586.728V586.024ZM105.359 586.024H107.215V586.728C107.215 587.069 107.284 587.416 107.423 587.768C107.561 588.12 107.764 588.461 108.031 588.792C108.297 589.123 108.633 589.427 109.039 589.704C109.455 589.981 109.929 590.221 110.463 590.424C111.007 590.627 111.62 590.771 112.303 590.856L111.471 592.568C110.692 592.44 109.983 592.253 109.343 592.008C108.703 591.752 108.137 591.443 107.647 591.08C107.156 590.707 106.74 590.291 106.399 589.832C106.057 589.373 105.796 588.883 105.615 588.36C105.444 587.837 105.359 587.293 105.359 586.728V586.024ZM104.959 594.984H107.087V600.424H104.959V594.984ZM99.3748 593.64H112.783V595.368H99.3748V593.64Z" fill="#191F28"/>
        <path d="M345 578H329C325.686 578 323 580.686 323 584V600C323 603.314 325.686 606 329 606H345C348.314 606 351 603.314 351 600V584C351 580.686 348.314 578 345 578Z" fill="#FF6B6B"/>
        <path d="M331 592L335 596L343 588" stroke="white" stroke-width="2.5" stroke-linecap="round" stroke-linejoin="round"/>
        <path d="M48 676C60.1503 676 70 666.15 70 654C70 641.85 60.1503 632 48 632C35.8497 632 26 641.85 26 654C26 666.15 35.8497 676 48 676Z" fill="#E8FFE8"/>
        <path opacity="0.3" d="M48 656C51.866 656 55 652.866 55 649C55 645.134 51.866 642 48 642C44.134 642 41 645.134 41 649C41 652.866 44.134 656 48 656Z" fill="#34D399"/>
        <path opacity="0.15" d="M37 664C37 658 42 655 48 655C54 655 59 658 59 664" fill="#34D399"/>
        <path d="M85.392 646.76H92.576V653.944H85.392V646.76ZM90.496 648.456H87.488V652.248H90.496V648.456ZM94.832 645.608H96.96V656.136H94.832V645.608ZM87.088 658.408H97.344V660.104H87.088V658.408ZM87.088 655.192H89.216V659.16H87.088V655.192ZM99.9508 647.448H112.159V649.144H99.9508V647.448ZM99.3748 657.224H112.799V658.936H99.3748V657.224ZM104.991 655.256H107.119V657.896H104.991V655.256ZM106.047 649.768C107.071 649.768 107.956 649.885 108.703 650.12C109.46 650.344 110.041 650.675 110.447 651.112C110.852 651.539 111.055 652.056 111.055 652.664C111.055 653.272 110.852 653.795 110.447 654.232C110.041 654.659 109.46 654.989 108.703 655.224C107.956 655.448 107.065 655.56 106.031 655.56C105.007 655.56 104.116 655.448 103.359 655.224C102.612 654.989 102.036 654.659 101.631 654.232C101.225 653.795 101.023 653.272 101.023 652.664C101.023 652.056 101.225 651.539 101.631 651.112C102.036 650.675 102.612 650.344 103.359 650.12C104.116 649.885 105.012 649.768 106.047 649.768ZM106.031 651.416C105.423 651.416 104.905 651.464 104.479 651.56C104.052 651.645 103.727 651.779 103.503 651.96C103.289 652.141 103.183 652.376 103.183 652.664C103.183 652.941 103.289 653.176 103.503 653.368C103.727 653.549 104.052 653.683 104.479 653.768C104.905 653.853 105.423 653.896 106.031 653.896C106.66 653.896 107.183 653.853 107.599 653.768C108.015 653.683 108.329 653.549 108.543 653.368C108.767 653.176 108.879 652.941 108.879 652.664C108.879 652.376 108.767 652.141 108.543 651.96C108.329 651.779 108.015 651.645 107.599 651.56C107.183 651.464 106.66 651.416 106.031 651.416ZM104.991 645.752H107.119V648.504H104.991V645.752Z" fill="#191F28"/>
        <path d="M345 638H329C325.686 638 323 640.686 323 644V660C323 663.314 325.686 666 329 666H345C348.314 666 351 663.314 351 660V644C351 640.686 348.314 638 345 638Z" fill="#FF6B6B"/>
        <path d="M331 652L335 656L343 648" stroke="white" stroke-width="2.5" stroke-linecap="round" stroke-linejoin="round"/>
        <path d="M48 736C60.1503 736 70 726.15 70 714C70 701.85 60.1503 692 48 692C35.8497 692 26 701.85 26 714C26 726.15 35.8497 736 48 736Z" fill="#FFF0E0"/>
        <path opacity="0.3" d="M48 716C51.866 716 55 712.866 55 709C55 705.134 51.866 702 48 702C44.134 702 41 705.134 41 709C41 712.866 44.134 716 48 716Z" fill="#F59E0B"/>
        <path opacity="0.15" d="M37 724C37 718 42 715 48 715C54 715 59 718 59 724" fill="#F59E0B"/>
        <path d="M90.24 706.024H92.096V706.728C92.096 707.293 92.0053 707.843 91.824 708.376C91.6533 708.899 91.3973 709.389 91.056 709.848C90.7147 710.307 90.2987 710.717 89.808 711.08C89.3173 711.443 88.7467 711.752 88.096 712.008C87.456 712.253 86.752 712.44 85.984 712.568L85.152 710.856C85.8347 710.771 86.4427 710.627 86.976 710.424C87.52 710.221 87.9947 709.981 88.4 709.704C88.816 709.427 89.1573 709.123 89.424 708.792C89.6907 708.461 89.8933 708.12 90.032 707.768C90.1707 707.416 90.24 707.069 90.24 706.728V706.024ZM90.64 706.024H92.496V706.728C92.496 707.069 92.5653 707.416 92.704 707.768C92.8427 708.12 93.0453 708.461 93.312 708.792C93.5787 709.123 93.9147 709.427 94.32 709.704C94.736 709.981 95.2107 710.221 95.744 710.424C96.288 710.627 96.9013 710.771 97.584 710.856L96.752 712.568C95.9733 712.44 95.264 712.253 94.624 712.008C93.984 711.752 93.4187 711.443 92.928 711.08C92.4373 710.707 92.0213 710.291 91.68 709.832C91.3387 709.373 91.0773 708.883 90.896 708.36C90.7253 707.837 90.64 707.293 90.64 706.728V706.024ZM90.24 714.984H92.368V720.424H90.24V714.984ZM84.656 713.64H98.064V715.368H84.656V713.64ZM102.959 707.256H104.719V708.504C104.719 709.432 104.564 710.317 104.255 711.16C103.956 711.992 103.497 712.723 102.879 713.352C102.26 713.971 101.471 714.435 100.511 714.744L99.4228 713.08C100.255 712.813 100.927 712.44 101.439 711.96C101.961 711.48 102.345 710.941 102.591 710.344C102.836 709.736 102.959 709.123 102.959 708.504V707.256ZM103.407 707.256H105.135V708.504C105.135 708.941 105.204 709.379 105.343 709.816C105.481 710.243 105.689 710.653 105.967 711.048C106.255 711.432 106.617 711.779 107.055 712.088C107.492 712.397 108.009 712.648 108.607 712.84L107.535 714.488C106.607 714.189 105.839 713.741 105.231 713.144C104.623 712.547 104.164 711.848 103.855 711.048C103.556 710.237 103.407 709.389 103.407 708.504V707.256ZM99.9988 706.648H108.063V708.344H99.9988V706.648ZM109.551 705.608H111.679V716.296H109.551V705.608ZM101.807 718.456H112.063V720.168H101.807V718.456ZM101.807 715.336H103.935V719.304H101.807V715.336Z" fill="#191F28"/>
        <path d="M345 698H329C325.686 698 323 700.686 323 704V720C323 723.314 325.686 726 329 726H345C348.314 726 351 723.314 351 720V704C351 700.686 348.314 698 345 698Z" stroke="#D1D6DB" stroke-width="1.5"/>
        <path d="M48 796C60.1503 796 70 786.15 70 774C70 761.85 60.1503 752 48 752C35.8497 752 26 761.85 26 774C26 786.15 35.8497 796 48 796Z" fill="#F0E0FF"/>
        <path opacity="0.3" d="M48 776C51.866 776 55 772.866 55 769C55 765.134 51.866 762 48 762C44.134 762 41 765.134 41 769C41 772.866 44.134 776 48 776Z" fill="#A78BFA"/>
        <path opacity="0.15" d="M37 784C37 778 42 775 48 775C54 775 59 778 59 784" fill="#A78BFA"/>
        <path d="M94.912 765.608H97.056V776.888H94.912V765.608ZM92.992 769.288H95.712V770.984H92.992V769.288ZM92.992 772.456H95.712V774.152H92.992V772.456ZM84.688 767.16H92.832V768.824H84.688V767.16ZM88.848 769.352C89.5307 769.352 90.1333 769.475 90.656 769.72C91.1787 769.965 91.5893 770.307 91.888 770.744C92.1867 771.181 92.336 771.688 92.336 772.264C92.336 772.829 92.1867 773.331 91.888 773.768C91.5893 774.205 91.1787 774.552 90.656 774.808C90.1333 775.053 89.5307 775.176 88.848 775.176C88.1867 775.176 87.5893 775.053 87.056 774.808C86.5333 774.552 86.1227 774.205 85.824 773.768C85.5253 773.331 85.376 772.829 85.376 772.264C85.376 771.688 85.5253 771.181 85.824 770.744C86.1227 770.307 86.5333 769.965 87.056 769.72C87.5893 769.475 88.1867 769.352 88.848 769.352ZM88.864 770.984C88.4267 770.984 88.0693 771.096 87.792 771.32C87.5253 771.533 87.392 771.848 87.392 772.264C87.392 772.669 87.5253 772.984 87.792 773.208C88.0693 773.432 88.4267 773.544 88.864 773.544C89.2907 773.544 89.6427 773.432 89.92 773.208C90.1973 772.984 90.336 772.669 90.336 772.264C90.336 771.848 90.1973 771.533 89.92 771.32C89.6427 771.096 89.2907 770.984 88.864 770.984ZM87.792 765.56H89.936V768.184H87.792V765.56ZM87.248 778.456H97.376V780.168H87.248V778.456ZM87.248 775.96H89.376V779.256H87.248V775.96ZM99.3748 773.88H112.783V775.592H99.3748V773.88ZM104.959 775H107.087V780.424H104.959V775ZM106.047 766.104C107.103 766.104 108.031 766.243 108.831 766.52C109.641 766.787 110.271 767.171 110.719 767.672C111.167 768.173 111.391 768.76 111.391 769.432C111.391 770.115 111.167 770.707 110.719 771.208C110.271 771.699 109.641 772.083 108.831 772.36C108.031 772.627 107.103 772.76 106.047 772.76C104.991 772.76 104.057 772.627 103.247 772.36C102.447 772.083 101.817 771.699 101.359 771.208C100.911 770.707 100.687 770.115 100.687 769.432C100.687 768.76 100.911 768.173 101.359 767.672C101.817 767.171 102.447 766.787 103.247 766.52C104.057 766.243 104.991 766.104 106.047 766.104ZM106.031 767.784C105.391 767.784 104.831 767.848 104.351 767.976C103.881 768.104 103.519 768.291 103.263 768.536C103.007 768.771 102.879 769.069 102.879 769.432C102.879 769.784 103.007 770.083 103.263 770.328C103.519 770.573 103.881 770.76 104.351 770.888C104.831 771.005 105.391 771.064 106.031 771.064C106.692 771.064 107.257 771.005 107.727 770.888C108.196 770.76 108.559 770.573 108.815 770.328C109.081 770.083 109.215 769.784 109.215 769.432C109.215 769.069 109.081 768.771 108.815 768.536C108.559 768.291 108.196 768.104 107.727 767.976C107.257 767.848 106.692 767.784 106.031 767.784Z" fill="#191F28"/>
        <path d="M345 758H329C325.686 758 323 760.686 323 764V780C323 783.314 325.686 786 329 786H345C348.314 786 351 783.314 351 780V764C351 760.686 348.314 758 345 758Z" stroke="#D1D6DB" stroke-width="1.5"/>
        <path d="M357 802H36C29.3726 802 24 807.373 24 814V834C24 840.627 29.3726 846 36 846H357C363.627 846 369 840.627 369 834V814C369 807.373 363.627 802 357 802Z" fill="#FF6B6B"/>
        <path d="M185.951 822.79H187.946V824.77H185.951V822.79ZM191.831 816.445H193.826V825.91H191.831V816.445ZM193.136 820.405H195.581V822.055H193.136V820.405ZM182.876 825.625L182.651 824.08C183.481 824.08 184.381 824.075 185.351 824.065C186.331 824.055 187.321 824.025 188.321 823.975C189.321 823.915 190.291 823.83 191.231 823.72L191.381 825.085C190.411 825.255 189.426 825.38 188.426 825.46C187.426 825.53 186.451 825.575 185.501 825.595C184.561 825.605 183.686 825.615 182.876 825.625ZM184.406 826.45H193.826V830.335H191.831V827.995H184.406V826.45ZM182.996 817.45H190.886V818.89H182.996V817.45ZM186.941 819.22C187.971 819.22 188.791 819.405 189.401 819.775C190.021 820.135 190.331 820.635 190.331 821.275C190.331 821.915 190.021 822.42 189.401 822.79C188.791 823.16 187.971 823.345 186.941 823.345C185.921 823.345 185.101 823.16 184.481 822.79C183.871 822.42 183.566 821.915 183.566 821.275C183.566 820.635 183.871 820.135 184.481 819.775C185.101 819.405 185.921 819.22 186.941 819.22ZM186.941 820.51C186.471 820.51 186.106 820.575 185.846 820.705C185.586 820.835 185.456 821.025 185.456 821.275C185.456 821.525 185.586 821.72 185.846 821.86C186.106 821.99 186.471 822.055 186.941 822.055C187.411 822.055 187.776 821.99 188.036 821.86C188.306 821.72 188.441 821.525 188.441 821.275C188.441 821.025 188.306 820.835 188.036 820.705C187.776 820.575 187.411 820.51 186.941 820.51ZM185.951 816.325H187.946V818.11H185.951V816.325ZM206.155 816.445H208.15V826.42H206.155V816.445ZM198.895 828.49H208.51V830.095H198.895V828.49ZM198.895 825.43H200.89V829.15H198.895V825.43ZM200.59 817.33C201.3 817.33 201.94 817.48 202.51 817.78C203.08 818.08 203.53 818.495 203.86 819.025C204.2 819.555 204.37 820.165 204.37 820.855C204.37 821.525 204.2 822.13 203.86 822.67C203.53 823.2 203.08 823.62 202.51 823.93C201.94 824.23 201.3 824.38 200.59 824.38C199.88 824.38 199.24 824.23 198.67 823.93C198.1 823.62 197.645 823.2 197.305 822.67C196.975 822.13 196.81 821.525 196.81 820.855C196.81 820.165 196.975 819.555 197.305 819.025C197.645 818.495 198.1 818.08 198.67 817.78C199.24 817.48 199.88 817.33 200.59 817.33ZM200.59 819.04C200.25 819.04 199.94 819.115 199.66 819.265C199.38 819.405 199.16 819.61 199 819.88C198.84 820.14 198.76 820.465 198.76 820.855C198.76 821.225 198.84 821.545 199 821.815C199.16 822.075 199.38 822.28 199.66 822.43C199.94 822.57 200.25 822.64 200.59 822.64C200.93 822.64 201.24 822.57 201.52 822.43C201.8 822.28 202.02 822.075 202.18 821.815C202.34 821.545 202.42 821.225 202.42 820.855C202.42 820.465 202.34 820.14 202.18 819.88C202.02 819.61 201.8 819.405 201.52 819.265C201.24 819.115 200.93 819.04 200.59 819.04Z" fill="white"/>
        <path d="M139.515 840.545C139.473 840.186 139.3 839.906 138.997 839.707C138.694 839.509 138.322 839.409 137.882 839.409C137.56 839.409 137.278 839.461 137.036 839.565C136.797 839.67 136.61 839.813 136.475 839.995C136.343 840.177 136.277 840.384 136.277 840.616C136.277 840.811 136.323 840.978 136.415 841.117C136.51 841.254 136.63 841.369 136.777 841.462C136.924 841.552 137.078 841.626 137.239 841.685C137.4 841.742 137.548 841.788 137.683 841.824L138.421 842.023C138.611 842.072 138.822 842.141 139.054 842.229C139.288 842.316 139.512 842.436 139.725 842.587C139.94 842.737 140.118 842.928 140.257 843.163C140.397 843.397 140.467 843.685 140.467 844.026C140.467 844.419 140.364 844.774 140.158 845.091C139.954 845.408 139.656 845.66 139.263 845.847C138.872 846.034 138.398 846.128 137.839 846.128C137.318 846.128 136.867 846.044 136.486 845.876C136.107 845.708 135.809 845.473 135.591 845.173C135.376 844.872 135.254 844.523 135.225 844.125H136.134C136.158 844.4 136.251 844.627 136.411 844.807C136.575 844.984 136.781 845.117 137.029 845.205C137.28 845.29 137.55 845.332 137.839 845.332C138.175 845.332 138.477 845.278 138.745 845.169C139.012 845.058 139.224 844.904 139.38 844.707C139.536 844.509 139.615 844.277 139.615 844.011C139.615 843.77 139.547 843.573 139.412 843.422C139.277 843.27 139.1 843.147 138.88 843.053C138.659 842.958 138.421 842.875 138.166 842.804L137.271 842.548C136.703 842.385 136.253 842.152 135.921 841.849C135.59 841.546 135.424 841.149 135.424 840.659C135.424 840.252 135.534 839.897 135.755 839.594C135.977 839.288 136.275 839.052 136.649 838.884C137.026 838.713 137.446 838.628 137.91 838.628C138.379 838.628 138.795 838.712 139.16 838.88C139.525 839.046 139.813 839.273 140.027 839.562C140.242 839.851 140.356 840.179 140.367 840.545H139.515ZM144.06 846.099C143.643 846.099 143.268 846.017 142.934 845.851C142.6 845.685 142.333 845.458 142.131 845.169C141.93 844.88 141.82 844.551 141.801 844.182H142.653C142.687 844.511 142.836 844.783 143.101 844.999C143.368 845.212 143.688 845.318 144.06 845.318C144.358 845.318 144.623 845.248 144.855 845.109C145.09 844.969 145.273 844.777 145.406 844.533C145.541 844.287 145.608 844.009 145.608 843.699C145.608 843.382 145.538 843.099 145.399 842.85C145.261 842.599 145.072 842.402 144.83 842.257C144.589 842.113 144.313 842.039 144.003 842.037C143.78 842.035 143.552 842.069 143.318 842.14C143.083 842.209 142.89 842.297 142.739 842.406L141.915 842.307L142.355 838.727H146.134V839.509H143.094L142.838 841.653H142.881C143.03 841.535 143.217 841.437 143.442 841.359C143.667 841.281 143.901 841.241 144.145 841.241C144.59 841.241 144.987 841.348 145.335 841.561C145.685 841.772 145.96 842.061 146.158 842.428C146.36 842.795 146.46 843.214 146.46 843.685C146.46 844.149 146.356 844.563 146.148 844.928C145.942 845.29 145.658 845.576 145.296 845.787C144.933 845.995 144.521 846.099 144.06 846.099ZM151.01 841.973V842.754H147.828V841.973H151.01ZM152.129 846V845.361L154.529 842.733C154.811 842.425 155.043 842.158 155.225 841.93C155.408 841.701 155.543 841.485 155.63 841.284C155.72 841.08 155.765 840.867 155.765 840.645C155.765 840.389 155.704 840.168 155.581 839.981C155.46 839.794 155.294 839.649 155.083 839.548C154.873 839.446 154.636 839.395 154.373 839.395C154.094 839.395 153.85 839.453 153.642 839.569C153.436 839.683 153.276 839.842 153.162 840.048C153.051 840.254 152.995 840.496 152.995 840.773H152.157C152.157 840.347 152.255 839.973 152.452 839.651C152.648 839.329 152.916 839.078 153.255 838.898C153.595 838.718 153.978 838.628 154.402 838.628C154.828 838.628 155.205 838.718 155.534 838.898C155.863 839.078 156.121 839.32 156.309 839.626C156.496 839.931 156.589 840.271 156.589 840.645C156.589 840.912 156.541 841.174 156.443 841.43C156.349 841.683 156.183 841.966 155.946 842.278C155.712 842.589 155.386 842.967 154.97 843.415L153.336 845.162V845.219H156.717V846H152.129ZM170.243 841.973V842.754H160.243V841.973H170.243ZM173.936 846V838.727H176.394C176.964 838.727 177.431 838.83 177.793 839.036C178.157 839.24 178.427 839.516 178.603 839.864C178.778 840.212 178.865 840.6 178.865 841.028C178.865 841.457 178.778 841.846 178.603 842.197C178.43 842.547 178.162 842.826 177.8 843.035C177.438 843.241 176.974 843.344 176.408 843.344H174.647V842.562H176.38C176.77 842.562 177.084 842.495 177.321 842.36C177.557 842.225 177.729 842.043 177.835 841.813C177.944 841.581 177.999 841.32 177.999 841.028C177.999 840.737 177.944 840.477 177.835 840.247C177.729 840.018 177.556 839.838 177.317 839.707C177.078 839.575 176.761 839.509 176.365 839.509H174.817V846H173.936ZM181.775 846.128C181.43 846.128 181.116 846.063 180.834 845.933C180.553 845.8 180.329 845.609 180.163 845.361C179.998 845.11 179.915 844.807 179.915 844.452C179.915 844.139 179.976 843.886 180.099 843.692C180.222 843.495 180.387 843.341 180.593 843.23C180.799 843.119 181.026 843.036 181.275 842.982C181.526 842.925 181.778 842.88 182.031 842.847C182.363 842.804 182.631 842.772 182.837 842.751C183.046 842.727 183.197 842.688 183.292 842.634C183.389 842.579 183.437 842.484 183.437 842.349V842.321C183.437 841.971 183.342 841.698 183.15 841.504C182.96 841.31 182.673 841.213 182.287 841.213C181.887 841.213 181.573 841.301 181.346 841.476C181.119 841.651 180.959 841.838 180.866 842.037L180.071 841.753C180.213 841.421 180.402 841.163 180.639 840.979C180.878 840.792 181.139 840.661 181.42 840.588C181.704 840.512 181.984 840.474 182.258 840.474C182.434 840.474 182.635 840.496 182.862 840.538C183.092 840.579 183.313 840.663 183.526 840.79C183.742 840.918 183.92 841.111 184.062 841.369C184.204 841.627 184.275 841.973 184.275 842.406V846H183.437V845.261H183.395C183.338 845.38 183.243 845.506 183.111 845.641C182.978 845.776 182.802 845.891 182.582 845.986C182.361 846.08 182.093 846.128 181.775 846.128ZM181.903 845.375C182.235 845.375 182.514 845.31 182.741 845.18C182.971 845.049 183.144 844.881 183.26 844.675C183.378 844.469 183.437 844.253 183.437 844.026V843.259C183.402 843.301 183.324 843.34 183.203 843.376C183.085 843.409 182.947 843.438 182.791 843.464C182.637 843.488 182.487 843.509 182.34 843.528C182.196 843.545 182.079 843.559 181.989 843.571C181.771 843.599 181.567 843.646 181.378 843.71C181.191 843.771 181.039 843.865 180.923 843.99C180.81 844.113 180.753 844.281 180.753 844.494C180.753 844.786 180.86 845.006 181.076 845.155C181.294 845.302 181.57 845.375 181.903 845.375ZM185.805 846V840.545H186.615V841.369H186.672C186.771 841.099 186.951 840.88 187.211 840.712C187.472 840.544 187.765 840.46 188.092 840.46C188.154 840.46 188.231 840.461 188.323 840.464C188.415 840.466 188.485 840.47 188.532 840.474V841.327C188.504 841.32 188.439 841.309 188.337 841.295C188.238 841.278 188.132 841.27 188.021 841.27C187.756 841.27 187.519 841.326 187.311 841.437C187.105 841.546 186.941 841.697 186.821 841.891C186.702 842.083 186.643 842.302 186.643 842.548V846H185.805ZM192.24 840.545V841.256H189.413V840.545H192.24ZM190.237 839.239H191.075V844.438C191.075 844.674 191.109 844.852 191.178 844.97C191.249 845.086 191.339 845.164 191.448 845.205C191.559 845.242 191.676 845.261 191.799 845.261C191.892 845.261 191.968 845.257 192.027 845.247C192.086 845.235 192.133 845.226 192.169 845.219L192.339 845.972C192.282 845.993 192.203 846.014 192.101 846.036C191.999 846.059 191.87 846.071 191.714 846.071C191.477 846.071 191.245 846.02 191.018 845.918C190.793 845.817 190.606 845.661 190.457 845.453C190.31 845.245 190.237 844.982 190.237 844.665V839.239ZM193.5 846V840.545H194.339V846H193.5ZM193.927 839.636C193.763 839.636 193.622 839.581 193.504 839.469C193.388 839.358 193.33 839.224 193.33 839.068C193.33 838.912 193.388 838.778 193.504 838.667C193.622 838.556 193.763 838.5 193.927 838.5C194.09 838.5 194.23 838.556 194.346 838.667C194.464 838.778 194.523 838.912 194.523 839.068C194.523 839.224 194.464 839.358 194.346 839.469C194.23 839.581 194.09 839.636 193.927 839.636ZM198.089 846.114C197.578 846.114 197.138 845.993 196.768 845.751C196.399 845.51 196.115 845.177 195.916 844.754C195.717 844.33 195.618 843.846 195.618 843.301C195.618 842.747 195.72 842.258 195.923 841.835C196.129 841.408 196.416 841.076 196.783 840.837C197.152 840.595 197.583 840.474 198.075 840.474C198.459 840.474 198.804 840.545 199.112 840.688C199.42 840.83 199.672 841.028 199.869 841.284C200.065 841.54 200.187 841.838 200.234 842.179H199.396C199.332 841.93 199.19 841.71 198.97 841.518C198.752 841.324 198.459 841.227 198.089 841.227C197.763 841.227 197.476 841.312 197.23 841.483C196.986 841.651 196.796 841.889 196.658 842.197C196.523 842.502 196.456 842.861 196.456 843.273C196.456 843.694 196.522 844.061 196.655 844.374C196.79 844.686 196.979 844.929 197.223 845.102C197.469 845.274 197.758 845.361 198.089 845.361C198.307 845.361 198.505 845.323 198.682 845.247C198.86 845.171 199.01 845.062 199.133 844.92C199.257 844.778 199.344 844.608 199.396 844.409H200.234C200.187 844.731 200.07 845.021 199.883 845.279C199.698 845.535 199.453 845.738 199.148 845.89C198.845 846.039 198.492 846.114 198.089 846.114ZM201.459 846V840.545H202.297V846H201.459ZM201.886 839.636C201.722 839.636 201.581 839.581 201.463 839.469C201.347 839.358 201.289 839.224 201.289 839.068C201.289 838.912 201.347 838.778 201.463 838.667C201.581 838.556 201.722 838.5 201.886 838.5C202.049 838.5 202.189 838.556 202.305 838.667C202.423 838.778 202.482 838.912 202.482 839.068C202.482 839.224 202.423 839.358 202.305 839.469C202.189 839.581 202.049 839.636 201.886 839.636ZM203.832 848.045V840.545H204.642V841.412H204.742C204.803 841.317 204.888 841.196 204.997 841.05C205.109 840.901 205.267 840.768 205.473 840.652C205.681 840.534 205.963 840.474 206.318 840.474C206.778 840.474 207.182 840.589 207.533 840.819C207.883 841.049 208.157 841.374 208.353 841.795C208.55 842.217 208.648 842.714 208.648 843.287C208.648 843.865 208.55 844.365 208.353 844.789C208.157 845.21 207.884 845.537 207.536 845.769C207.188 845.999 206.787 846.114 206.332 846.114C205.982 846.114 205.702 846.056 205.491 845.94C205.28 845.821 205.118 845.687 205.004 845.538C204.891 845.387 204.803 845.261 204.742 845.162H204.671V848.045H203.832ZM204.656 843.273C204.656 843.685 204.717 844.048 204.837 844.363C204.958 844.675 205.135 844.92 205.367 845.098C205.599 845.273 205.883 845.361 206.219 845.361C206.569 845.361 206.862 845.268 207.096 845.084C207.333 844.897 207.51 844.646 207.629 844.331C207.749 844.014 207.81 843.661 207.81 843.273C207.81 842.889 207.751 842.544 207.632 842.236C207.516 841.926 207.34 841.681 207.103 841.501C206.869 841.318 206.574 841.227 206.219 841.227C205.878 841.227 205.591 841.314 205.359 841.487C205.127 841.657 204.952 841.896 204.834 842.204C204.716 842.509 204.656 842.866 204.656 843.273ZM211.531 846.128C211.186 846.128 210.872 846.063 210.59 845.933C210.309 845.8 210.085 845.609 209.919 845.361C209.753 845.11 209.671 844.807 209.671 844.452C209.671 844.139 209.732 843.886 209.855 843.692C209.978 843.495 210.143 843.341 210.349 843.23C210.555 843.119 210.782 843.036 211.031 842.982C211.282 842.925 211.534 842.88 211.787 842.847C212.118 842.804 212.387 842.772 212.593 842.751C212.801 842.727 212.953 842.688 213.048 842.634C213.145 842.579 213.193 842.484 213.193 842.349V842.321C213.193 841.971 213.097 841.698 212.906 841.504C212.716 841.31 212.429 841.213 212.043 841.213C211.643 841.213 211.329 841.301 211.102 841.476C210.874 841.651 210.715 841.838 210.622 842.037L209.827 841.753C209.969 841.421 210.158 841.163 210.395 840.979C210.634 840.792 210.895 840.661 211.176 840.588C211.46 840.512 211.74 840.474 212.014 840.474C212.189 840.474 212.391 840.496 212.618 840.538C212.848 840.579 213.069 840.663 213.282 840.79C213.497 840.918 213.676 841.111 213.818 841.369C213.96 841.627 214.031 841.973 214.031 842.406V846H213.193V845.261H213.151C213.094 845.38 212.999 845.506 212.867 845.641C212.734 845.776 212.558 845.891 212.337 845.986C212.117 846.08 211.849 846.128 211.531 846.128ZM211.659 845.375C211.991 845.375 212.27 845.31 212.497 845.18C212.727 845.049 212.9 844.881 213.016 844.675C213.134 844.469 213.193 844.253 213.193 844.026V843.259C213.158 843.301 213.08 843.34 212.959 843.376C212.841 843.409 212.703 843.438 212.547 843.464C212.393 843.488 212.243 843.509 212.096 843.528C211.952 843.545 211.834 843.559 211.744 843.571C211.527 843.599 211.323 843.646 211.134 843.71C210.947 843.771 210.795 843.865 210.679 843.99C210.565 844.113 210.509 844.281 210.509 844.494C210.509 844.786 210.616 845.006 210.832 845.155C211.05 845.302 211.325 845.375 211.659 845.375ZM216.399 842.719V846H215.561V840.545H216.371V841.398H216.442C216.57 841.121 216.764 840.898 217.024 840.73C217.284 840.56 217.621 840.474 218.033 840.474C218.402 840.474 218.725 840.55 219.002 840.702C219.279 840.851 219.494 841.078 219.648 841.384C219.802 841.687 219.879 842.07 219.879 842.534V846H219.041V842.591C219.041 842.162 218.93 841.829 218.707 841.589C218.485 841.348 218.179 841.227 217.791 841.227C217.524 841.227 217.284 841.285 217.074 841.401C216.865 841.517 216.701 841.687 216.58 841.909C216.459 842.132 216.399 842.402 216.399 842.719ZM223.783 840.545V841.256H220.956V840.545H223.783ZM221.78 839.239H222.618V844.438C222.618 844.674 222.652 844.852 222.721 844.97C222.792 845.086 222.882 845.164 222.991 845.205C223.102 845.242 223.219 845.261 223.342 845.261C223.435 845.261 223.511 845.257 223.57 845.247C223.629 845.235 223.676 845.226 223.712 845.219L223.882 845.972C223.825 845.993 223.746 846.014 223.644 846.036C223.542 846.059 223.413 846.071 223.257 846.071C223.02 846.071 222.788 846.02 222.561 845.918C222.336 845.817 222.149 845.661 222 845.453C221.853 845.245 221.78 844.982 221.78 844.665V839.239ZM227.97 846V838.727H230.427C230.997 838.727 231.464 838.83 231.826 839.036C232.191 839.24 232.461 839.516 232.636 839.864C232.811 840.212 232.899 840.6 232.899 841.028C232.899 841.457 232.811 841.846 232.636 842.197C232.463 842.547 232.195 842.826 231.833 843.035C231.471 843.241 231.007 843.344 230.441 843.344H228.68V842.562H230.413C230.803 842.562 231.117 842.495 231.354 842.36C231.591 842.225 231.762 842.043 231.869 841.813C231.978 841.581 232.032 841.32 232.032 841.028C232.032 840.737 231.978 840.477 231.869 840.247C231.762 840.018 231.589 839.838 231.35 839.707C231.111 839.575 230.794 839.509 230.399 839.509H228.85V846H227.97ZM236.361 846.114C235.868 846.114 235.436 845.996 235.065 845.762C234.695 845.528 234.407 845.2 234.198 844.778C233.992 844.357 233.889 843.865 233.889 843.301C233.889 842.733 233.992 842.237 234.198 841.813C234.407 841.389 234.695 841.06 235.065 840.826C235.436 840.592 235.868 840.474 236.361 840.474C236.853 840.474 237.284 840.592 237.653 840.826C238.025 841.06 238.314 841.389 238.52 841.813C238.728 842.237 238.832 842.733 238.832 843.301C238.832 843.865 238.728 844.357 238.52 844.778C238.314 845.2 238.025 845.528 237.653 845.762C237.284 845.996 236.853 846.114 236.361 846.114ZM236.361 845.361C236.735 845.361 237.043 845.265 237.284 845.073C237.526 844.881 237.704 844.629 237.82 844.317C237.936 844.004 237.994 843.666 237.994 843.301C237.994 842.937 237.936 842.597 237.82 842.282C237.704 841.967 237.526 841.713 237.284 841.518C237.043 841.324 236.735 841.227 236.361 841.227C235.987 841.227 235.679 841.324 235.438 841.518C235.196 841.713 235.017 841.967 234.901 842.282C234.785 842.597 234.727 842.937 234.727 843.301C234.727 843.666 234.785 844.004 234.901 844.317C235.017 844.629 235.196 844.881 235.438 845.073C235.679 845.265 235.987 845.361 236.361 845.361ZM240.112 848.045V840.545H240.921V841.412H241.021C241.082 841.317 241.168 841.196 241.277 841.05C241.388 840.901 241.546 840.768 241.752 840.652C241.961 840.534 242.242 840.474 242.598 840.474C243.057 840.474 243.462 840.589 243.812 840.819C244.162 841.049 244.436 841.374 244.632 841.795C244.829 842.217 244.927 842.714 244.927 843.287C244.927 843.865 244.829 844.365 244.632 844.789C244.436 845.21 244.164 845.537 243.816 845.769C243.468 845.999 243.066 846.114 242.612 846.114C242.261 846.114 241.981 846.056 241.77 845.94C241.559 845.821 241.397 845.687 241.284 845.538C241.17 845.387 241.082 845.261 241.021 845.162H240.95V848.045H240.112ZM240.936 843.273C240.936 843.685 240.996 844.048 241.117 844.363C241.237 844.675 241.414 844.92 241.646 845.098C241.878 845.273 242.162 845.361 242.498 845.361C242.849 845.361 243.141 845.268 243.375 845.084C243.612 844.897 243.79 844.646 243.908 844.331C244.029 844.014 244.089 843.661 244.089 843.273C244.089 842.889 244.03 842.544 243.911 842.236C243.795 841.926 243.619 841.681 243.382 841.501C243.148 841.318 242.853 841.227 242.498 841.227C242.157 841.227 241.871 841.314 241.639 841.487C241.407 841.657 241.232 841.896 241.113 842.204C240.995 842.509 240.936 842.866 240.936 843.273ZM249.643 843.77V840.545H250.481V846H249.643V845.077H249.586C249.458 845.354 249.259 845.589 248.99 845.783C248.72 845.975 248.379 846.071 247.967 846.071C247.626 846.071 247.323 845.996 247.058 845.847C246.793 845.696 246.584 845.469 246.433 845.165C246.281 844.86 246.206 844.475 246.206 844.011V840.545H247.044V843.955C247.044 844.352 247.155 844.67 247.377 844.906C247.602 845.143 247.889 845.261 248.237 845.261C248.445 845.261 248.657 845.208 248.872 845.102C249.09 844.995 249.273 844.832 249.419 844.612C249.568 844.391 249.643 844.111 249.643 843.77ZM252.016 848.045V840.545H252.826V841.412H252.925C252.987 841.317 253.072 841.196 253.181 841.05C253.292 840.901 253.451 840.768 253.657 840.652C253.865 840.534 254.147 840.474 254.502 840.474C254.961 840.474 255.366 840.589 255.716 840.819C256.067 841.049 256.34 841.374 256.537 841.795C256.733 842.217 256.831 842.714 256.831 843.287C256.831 843.865 256.733 844.365 256.537 844.789C256.34 845.21 256.068 845.537 255.72 845.769C255.372 845.999 254.971 846.114 254.516 846.114C254.166 846.114 253.885 846.056 253.674 845.94C253.464 845.821 253.302 845.687 253.188 845.538C253.074 845.387 252.987 845.261 252.925 845.162H252.854V848.045H252.016ZM252.84 843.273C252.84 843.685 252.9 844.048 253.021 844.363C253.142 844.675 253.318 844.92 253.55 845.098C253.782 845.273 254.066 845.361 254.402 845.361C254.753 845.361 255.045 845.268 255.28 845.084C255.516 844.897 255.694 844.646 255.812 844.331C255.933 844.014 255.993 843.661 255.993 843.273C255.993 842.889 255.934 842.544 255.816 842.236C255.7 841.926 255.523 841.681 255.287 841.501C255.052 841.318 254.758 841.227 254.402 841.227C254.062 841.227 253.775 841.314 253.543 841.487C253.311 841.657 253.136 841.896 253.017 842.204C252.899 842.509 252.84 842.866 252.84 843.273Z" fill="white"/>
    </g>
    <defs>
        <clipPath id="clip0_54_1132">
            <rect width="393" height="852" fill="white"/>
        </clipPath>
    </defs>
</svg>
