
<svg width="393" height="852" viewBox="0 0 393 852" fill="none" xmlns="http://www.w3.org/2000/svg">
    <g clip-path="url(#clip0_53_975)">
        <path d="M393 0H0V852H393V0Z" fill="#FFFDF5"/>
        <path d="M36.8313 23.9418C37.3924 23.9418 37.9322 24.0359 38.4506 24.2241C38.9727 24.4123 39.4379 24.7124 39.8462 25.1243C40.2582 25.5362 40.5831 26.0831 40.821 26.7649C41.0625 27.4432 41.185 28.2759 41.1886 29.2631C41.1886 30.19 41.0838 31.0174 40.8743 31.7454C40.6683 32.4698 40.3718 33.0859 39.9847 33.5938C39.5977 34.1016 39.1307 34.4886 38.5838 34.755C38.0369 35.0178 37.4261 35.1491 36.7514 35.1491C36.0234 35.1491 35.3807 35.0089 34.8232 34.7283C34.2656 34.4442 33.8164 34.0589 33.4755 33.5724C33.1381 33.0824 32.9339 32.532 32.8629 31.9212H35.1374C35.2262 32.3189 35.4126 32.6278 35.6967 32.848C35.9808 33.0646 36.3324 33.1729 36.7514 33.1729C37.4616 33.1729 38.0014 32.864 38.3707 32.2461C38.7401 31.6246 38.9265 30.7741 38.93 29.6946H38.8555C38.6921 30.0142 38.4719 30.2894 38.195 30.5202C37.918 30.7475 37.6001 30.9233 37.2415 31.0476C36.8864 31.1719 36.5082 31.234 36.1069 31.234C35.4641 31.234 34.8906 31.0831 34.3864 30.7812C33.8821 30.4794 33.4844 30.0639 33.1932 29.5348C32.902 29.0057 32.7564 28.402 32.7564 27.7237C32.7528 26.9922 32.9215 26.3406 33.2624 25.7688C33.6033 25.1971 34.0792 24.7496 34.69 24.4265C35.3043 24.0998 36.0181 23.9382 36.8313 23.9418ZM36.8473 25.7528C36.4886 25.7528 36.169 25.8381 35.8885 26.0085C35.6115 26.179 35.3913 26.408 35.228 26.6957C35.0682 26.9833 34.9901 27.3047 34.9936 27.6598C34.9936 28.0185 35.0717 28.3416 35.228 28.6293C35.3878 28.9134 35.6044 29.1406 35.8778 29.3111C36.1548 29.478 36.4709 29.5614 36.826 29.5614C37.0923 29.5614 37.3391 29.5117 37.5664 29.4123C37.7937 29.3129 37.9908 29.1761 38.1577 29.0021C38.3281 28.8246 38.4613 28.6204 38.5572 28.3896C38.6531 28.1587 38.701 27.9137 38.701 27.6545C38.6974 27.31 38.6158 26.994 38.456 26.7063C38.2962 26.4187 38.076 26.1879 37.7955 26.0138C37.5149 25.8398 37.1989 25.7528 36.8473 25.7528ZM44.1342 33.7322C43.7827 33.7322 43.4808 33.608 43.2287 33.3594C42.9801 33.1108 42.8558 32.8089 42.8558 32.4538C42.8558 32.1058 42.9801 31.8075 43.2287 31.5589C43.4808 31.3104 43.7827 31.1861 44.1342 31.1861C44.4751 31.1861 44.7734 31.3104 45.0291 31.5589C45.2848 31.8075 45.4126 32.1058 45.4126 32.4538C45.4126 32.6882 45.3523 32.9031 45.2315 33.0984C45.1143 33.2901 44.9599 33.4446 44.7681 33.5618C44.5763 33.6754 44.3651 33.7322 44.1342 33.7322ZM44.1342 28.3789C43.7827 28.3789 43.4808 28.2546 43.2287 28.006C42.9801 27.7575 42.8558 27.4556 42.8558 27.1005C42.8558 26.7525 42.9801 26.456 43.2287 26.2109C43.4808 25.9624 43.7827 25.8381 44.1342 25.8381C44.4751 25.8381 44.7734 25.9624 45.0291 26.2109C45.2848 26.456 45.4126 26.7525 45.4126 27.1005C45.4126 27.3384 45.3523 27.555 45.2315 27.7504C45.1143 27.9421 44.9599 28.0948 44.7681 28.2085C44.5763 28.3221 44.3651 28.3789 44.1342 28.3789ZM47.0892 33.0824V31.266L51.6436 24.0909H53.2096V26.6051H52.2828L49.4117 31.1488V31.234H55.8836V33.0824H47.0892ZM52.3254 35V32.5284L52.368 31.7241V24.0909H54.5306V35H52.3254ZM62.02 24.0909V35H59.7135V26.2802H59.6496L57.1514 27.8462V25.8008L59.852 24.0909H62.02Z" fill="#191F28"/>
        <path d="M30 74L23 81L30 88" stroke="#191F28" stroke-width="2" stroke-linecap="round" stroke-linejoin="round"/>
        <path d="M167.872 70.213C168.688 70.213 169.408 70.3717 170.031 70.689C170.666 70.995 171.165 71.42 171.527 71.964C171.901 72.4967 172.088 73.1143 172.088 73.817C172.088 74.5197 171.901 75.143 171.527 75.687C171.165 76.2197 170.666 76.639 170.031 76.945C169.408 77.251 168.688 77.404 167.872 77.404C167.079 77.404 166.365 77.251 165.73 76.945C165.096 76.639 164.591 76.2197 164.217 75.687C163.855 75.143 163.673 74.5197 163.673 73.817C163.673 73.1143 163.855 72.491 164.217 71.947C164.591 71.403 165.096 70.978 165.73 70.672C166.365 70.366 167.079 70.213 167.872 70.213ZM167.889 72.049C167.504 72.049 167.158 72.1227 166.852 72.27C166.546 72.406 166.303 72.6043 166.121 72.865C165.951 73.1257 165.866 73.443 165.866 73.817C165.866 74.191 165.951 74.514 166.121 74.786C166.303 75.0467 166.541 75.245 166.835 75.381C167.141 75.517 167.493 75.585 167.889 75.585C168.275 75.585 168.615 75.517 168.909 75.381C169.215 75.245 169.453 75.0467 169.623 74.786C169.805 74.514 169.895 74.191 169.895 73.817C169.895 73.443 169.805 73.1257 169.623 72.865C169.453 72.6043 169.215 72.406 168.909 72.27C168.603 72.1227 168.263 72.049 167.889 72.049ZM174.264 69.771H176.525V77.642H174.264V69.771ZM166.036 78.288H176.525V82.589H168.28V84.51H166.053V80.957H174.281V80.022H166.036V78.288ZM166.053 83.575H176.916V85.343H166.053V83.575ZM189.937 69.754H192.198V85.496H189.937V69.754ZM185.296 71.386H187.523C187.523 72.5873 187.404 73.7377 187.166 74.837C186.939 75.925 186.554 76.9507 186.01 77.914C185.477 78.8773 184.741 79.7727 183.8 80.6C182.871 81.416 181.709 82.164 180.315 82.844L179.125 81.059C180.644 80.3223 181.851 79.512 182.746 78.628C183.653 77.7327 184.304 76.724 184.701 75.602C185.098 74.4687 185.296 73.1993 185.296 71.794V71.386ZM179.975 71.386H186.35V73.188H179.975V71.386ZM201.503 70.893H203.237V72.661C203.237 73.5563 203.118 74.429 202.88 75.279C202.642 76.1177 202.268 76.8713 201.758 77.54C201.248 78.1973 200.574 78.7073 199.735 79.07L198.579 77.404C199.282 77.098 199.849 76.69 200.279 76.18C200.71 75.67 201.022 75.109 201.214 74.497C201.407 73.885 201.503 73.273 201.503 72.661V70.893ZM202.047 70.893H203.764V72.661C203.764 73.1143 203.815 73.579 203.917 74.055C204.031 74.5197 204.201 74.973 204.427 75.415C204.654 75.8457 204.954 76.2423 205.328 76.605C205.714 76.9677 206.178 77.268 206.722 77.506L205.77 79.308C205.079 79.0247 204.495 78.6507 204.019 78.186C203.543 77.71 203.158 77.1717 202.863 76.571C202.58 75.9703 202.37 75.3357 202.234 74.667C202.11 73.9983 202.047 73.3297 202.047 72.661V70.893ZM207.759 70.893H209.476V72.661C209.476 73.5677 209.357 74.463 209.119 75.347C208.881 76.2197 208.49 77.0073 207.946 77.71C207.414 78.4013 206.688 78.934 205.77 79.308L204.818 77.506C205.544 77.1887 206.122 76.7693 206.552 76.248C206.983 75.7153 207.289 75.1373 207.47 74.514C207.663 73.8907 207.759 73.273 207.759 72.661V70.893ZM208.32 70.893H210.054V72.661C210.054 73.2957 210.151 73.919 210.343 74.531C210.536 75.143 210.848 75.6983 211.278 76.197C211.709 76.6957 212.276 77.098 212.978 77.404L211.822 79.07C210.984 78.7187 210.309 78.2143 209.799 77.557C209.289 76.8997 208.915 76.1517 208.677 75.313C208.439 74.463 208.32 73.579 208.32 72.661V70.893ZM198.647 81.722H212.91V83.575H198.647V81.722ZM225.149 69.754H227.41V85.496H225.149V69.754ZM220.508 71.386H222.735C222.735 72.5873 222.616 73.7377 222.378 74.837C222.151 75.925 221.766 76.9507 221.222 77.914C220.689 78.8773 219.953 79.7727 219.012 80.6C218.083 81.416 216.921 82.164 215.527 82.844L214.337 81.059C215.856 80.3223 217.063 79.512 217.958 78.628C218.865 77.7327 219.516 76.724 219.913 75.602C220.31 74.4687 220.508 73.1993 220.508 71.794V71.386ZM215.187 71.386H221.562V73.188H215.187V71.386Z" fill="#191F28"/>
        <path d="M370 66H338C333.582 66 330 69.5817 330 74V86C330 90.4183 333.582 94 338 94H370C374.418 94 378 90.4183 378 86V74C378 69.5817 374.418 66 370 66Z" fill="#FF6B6B"/>
        <path d="M350.946 73.093H352.675V85.17H350.946V73.093ZM348.84 77.305H351.349V78.696H348.84V77.305ZM345.343 75.004H346.721V76.083C346.721 76.811 346.652 77.526 346.513 78.228C346.374 78.93 346.166 79.5843 345.889 80.191C345.62 80.7977 345.278 81.335 344.862 81.803C344.446 82.271 343.961 82.648 343.406 82.934L342.392 81.569C342.895 81.335 343.332 81.023 343.705 80.633C344.078 80.2343 344.385 79.7923 344.628 79.307C344.871 78.813 345.048 78.293 345.161 77.747C345.282 77.1923 345.343 76.6377 345.343 76.083V75.004ZM345.746 75.004H347.098V76.083C347.098 76.6117 347.154 77.1403 347.267 77.669C347.388 78.189 347.57 78.6873 347.813 79.164C348.064 79.632 348.376 80.0523 348.749 80.425C349.122 80.7977 349.559 81.101 350.062 81.335L349.061 82.687C348.489 82.4183 347.995 82.0587 347.579 81.608C347.163 81.1573 346.821 80.6417 346.552 80.061C346.283 79.4717 346.08 78.839 345.941 78.163C345.811 77.487 345.746 76.7937 345.746 76.083V75.004ZM342.873 74.263H349.568V75.654H342.873V74.263ZM357.211 74.458H358.628V75.212C358.628 75.9747 358.502 76.6983 358.251 77.383C358.008 78.0677 357.636 78.67 357.133 79.19C356.63 79.7013 355.993 80.0827 355.222 80.334L354.364 78.969C355.023 78.7523 355.56 78.449 355.976 78.059C356.401 77.6603 356.713 77.214 356.912 76.72C357.111 76.2173 357.211 75.7147 357.211 75.212V74.458ZM357.562 74.458H358.953V75.212C358.953 75.68 359.048 76.135 359.239 76.577C359.43 77.0103 359.724 77.4003 360.123 77.747C360.53 78.0937 361.059 78.3667 361.709 78.566L360.877 79.918C360.114 79.6927 359.486 79.346 358.992 78.878C358.507 78.4013 358.147 77.851 357.913 77.227C357.679 76.5943 357.562 75.9227 357.562 75.212V74.458ZM354.806 73.912H361.319V75.29H354.806V73.912ZM362.268 73.119H363.997V80.256H362.268V73.119ZM363.529 75.875H365.596V77.292H363.529V75.875ZM360.071 80.464C360.912 80.464 361.635 80.5593 362.242 80.75C362.849 80.932 363.317 81.1963 363.646 81.543C363.975 81.8897 364.14 82.31 364.14 82.804C364.14 83.298 363.975 83.7183 363.646 84.065C363.317 84.4203 362.849 84.689 362.242 84.871C361.635 85.0617 360.912 85.157 360.071 85.157C359.239 85.157 358.515 85.0617 357.9 84.871C357.293 84.689 356.821 84.4203 356.483 84.065C356.154 83.7183 355.989 83.298 355.989 82.804C355.989 82.31 356.154 81.8897 356.483 81.543C356.821 81.1963 357.293 80.932 357.9 80.75C358.515 80.5593 359.239 80.464 360.071 80.464ZM360.071 81.816C359.56 81.816 359.131 81.8507 358.784 81.92C358.437 81.9893 358.173 82.0977 357.991 82.245C357.809 82.3923 357.718 82.5787 357.718 82.804C357.718 83.038 357.809 83.2287 357.991 83.376C358.173 83.5233 358.437 83.636 358.784 83.714C359.131 83.7833 359.56 83.818 360.071 83.818C360.582 83.818 361.011 83.7833 361.358 83.714C361.713 83.636 361.978 83.5233 362.151 83.376C362.333 83.2287 362.424 83.038 362.424 82.804C362.424 82.5787 362.333 82.3923 362.151 82.245C361.978 82.0977 361.713 81.9893 361.358 81.92C361.011 81.8507 360.582 81.816 360.071 81.816Z" fill="white"/>
        <path d="M393 104H0V148H393V104Z" fill="#FAF9F4"/>
        <path d="M0 104H393" stroke="#E0DDD4" stroke-width="0.6"/>
        <path d="M0 148H393" stroke="#E0DDD4" stroke-width="0.6"/>
        <path d="M193 113V141" stroke="#E0DDD4" stroke-width="0.6"/>
        <path d="M369 160H24V192H369V160Z" stroke="#C8C8C0" stroke-width="0.6"/>
        <path d="M34.9787 182V181.169L38.0994 177.753C38.4657 177.353 38.7673 177.005 39.0043 176.71C39.2412 176.411 39.4167 176.131 39.5305 175.869C39.6475 175.605 39.706 175.328 39.706 175.038C39.706 174.706 39.6259 174.418 39.4659 174.175C39.3089 173.932 39.0935 173.744 38.8196 173.612C38.5457 173.48 38.2379 173.413 37.8963 173.413C37.5331 173.413 37.2161 173.489 36.9453 173.64C36.6776 173.787 36.4698 173.995 36.3221 174.263C36.1774 174.531 36.1051 174.844 36.1051 175.205H35.0156C35.0156 174.651 35.1433 174.164 35.3988 173.746C35.6542 173.327 36.002 173.001 36.4421 172.767C36.8853 172.533 37.3823 172.416 37.9332 172.416C38.4872 172.416 38.9781 172.533 39.4059 172.767C39.8337 173.001 40.1692 173.316 40.4123 173.713C40.6554 174.11 40.777 174.552 40.777 175.038C40.777 175.386 40.7139 175.726 40.5877 176.059C40.4646 176.388 40.2492 176.756 39.9414 177.162C39.6367 177.565 39.2135 178.058 38.6719 178.639L36.5483 180.911V180.984H40.9432V182H34.9787ZM45.9336 182.129C45.238 182.129 44.6456 181.94 44.1562 181.561C43.6669 181.18 43.293 180.627 43.0344 179.904C42.7759 179.178 42.6467 178.301 42.6467 177.273C42.6467 176.251 42.7759 175.378 43.0344 174.655C43.296 173.929 43.6715 173.375 44.1609 172.993C44.6533 172.609 45.2442 172.416 45.9336 172.416C46.623 172.416 47.2124 172.609 47.7017 172.993C48.1941 173.375 48.5696 173.929 48.8281 174.655C49.0897 175.378 49.2205 176.251 49.2205 177.273C49.2205 178.301 49.0913 179.178 48.8327 179.904C48.5742 180.627 48.2003 181.18 47.7109 181.561C47.2216 181.94 46.6291 182.129 45.9336 182.129ZM45.9336 181.114C46.623 181.114 47.1585 180.781 47.5401 180.116C47.9218 179.452 48.1126 178.504 48.1126 177.273C48.1126 176.454 48.0249 175.757 47.8494 175.181C47.6771 174.606 47.4278 174.167 47.1016 173.866C46.7784 173.564 46.3891 173.413 45.9336 173.413C45.2504 173.413 44.7164 173.75 44.3317 174.424C43.947 175.095 43.7546 176.045 43.7546 177.273C43.7546 178.091 43.8408 178.787 44.0131 179.359C44.1855 179.932 44.4332 180.367 44.7564 180.666C45.0826 180.964 45.475 181.114 45.9336 181.114ZM50.9748 182V181.169L54.0955 177.753C54.4618 177.353 54.7634 177.005 55.0004 176.71C55.2373 176.411 55.4128 176.131 55.5266 175.869C55.6436 175.605 55.7021 175.328 55.7021 175.038C55.7021 174.706 55.622 174.418 55.462 174.175C55.305 173.932 55.0896 173.744 54.8157 173.612C54.5418 173.48 54.234 173.413 53.8924 173.413C53.5292 173.413 53.2122 173.489 52.9414 173.64C52.6737 173.787 52.4659 173.995 52.3182 174.263C52.1735 174.531 52.1012 174.844 52.1012 175.205H51.0117C51.0117 174.651 51.1394 174.164 51.3949 173.746C51.6503 173.327 51.9981 173.001 52.4382 172.767C52.8814 172.533 53.3784 172.416 53.9293 172.416C54.4833 172.416 54.9742 172.533 55.402 172.767C55.8298 173.001 56.1652 173.316 56.4084 173.713C56.6515 174.11 56.7731 174.552 56.7731 175.038C56.7731 175.386 56.71 175.726 56.5838 176.059C56.4607 176.388 56.2453 176.756 55.9375 177.162C55.6328 177.565 55.2096 178.058 54.668 178.639L52.5444 180.911V180.984H56.9393V182H50.9748ZM61.9851 182.129C61.5973 182.123 61.2095 182.049 60.8217 181.908C60.4339 181.766 60.08 181.528 59.7599 181.192C59.4399 180.854 59.1829 180.397 58.989 179.821C58.7951 179.242 58.6982 178.516 58.6982 177.642C58.6982 176.805 58.7766 176.063 58.9336 175.417C59.0906 174.768 59.3183 174.221 59.6168 173.778C59.9154 173.332 60.2754 172.993 60.6971 172.762C61.1218 172.532 61.6004 172.416 62.1328 172.416C62.6622 172.416 63.133 172.522 63.5455 172.735C63.9609 172.944 64.2995 173.236 64.5611 173.612C64.8227 173.987 64.992 174.42 65.0689 174.909H63.9425C63.8378 174.484 63.6347 174.132 63.3331 173.852C63.0315 173.572 62.6314 173.432 62.1328 173.432C61.4003 173.432 60.8233 173.75 60.4016 174.387C59.9831 175.025 59.7723 175.919 59.7692 177.07H59.843C60.0154 176.808 60.2201 176.585 60.457 176.4C60.6971 176.212 60.9618 176.068 61.2511 175.966C61.5404 175.865 61.8466 175.814 62.1697 175.814C62.7114 175.814 63.2069 175.949 63.6562 176.22C64.1056 176.488 64.4657 176.859 64.7365 177.333C65.0073 177.804 65.1428 178.344 65.1428 178.953C65.1428 179.538 65.012 180.073 64.7504 180.56C64.4888 181.043 64.121 181.428 63.647 181.714C63.1761 181.997 62.6222 182.135 61.9851 182.129ZM61.9851 181.114C62.3729 181.114 62.7206 181.017 63.0284 180.823C63.3393 180.629 63.5839 180.369 63.7624 180.043C63.944 179.716 64.0348 179.353 64.0348 178.953C64.0348 178.562 63.9471 178.207 63.7717 177.887C63.5993 177.564 63.3608 177.307 63.0561 177.116C62.7545 176.925 62.4098 176.83 62.022 176.83C61.7296 176.83 61.4573 176.888 61.2049 177.005C60.9525 177.119 60.7309 177.276 60.5401 177.476C60.3524 177.676 60.2047 177.905 60.0969 178.164C59.9892 178.419 59.9354 178.688 59.9354 178.972C59.9354 179.347 60.0231 179.698 60.1985 180.024C60.377 180.35 60.6201 180.614 60.9279 180.814C61.2388 181.014 61.5911 181.114 61.9851 181.114ZM75.2225 171.262H76.3015V179.972H75.2225V171.262ZM71.8945 172.783H75.6255V173.654H71.8945V172.783ZM68.7745 181.87H76.6135V182.754H68.7745V181.87ZM68.7745 179.218H69.8535V182.26H68.7745V179.218ZM67.3185 172.107H68.3845V177.658H67.3185V172.107ZM67.3185 177.32H68.2025C69.0345 177.32 69.8578 177.29 70.6725 177.229C71.4958 177.168 72.3625 177.056 73.2725 176.891L73.3895 177.788C72.4535 177.961 71.5695 178.078 70.7375 178.139C69.9055 178.191 69.0605 178.217 68.2025 178.217H67.3185V177.32ZM71.8945 175.032H75.6255V175.903H71.8945V175.032ZM82.5734 182V181.169L85.6942 177.753C86.0604 177.353 86.362 177.005 86.599 176.71C86.836 176.411 87.0114 176.131 87.1253 175.869C87.2422 175.605 87.3007 175.328 87.3007 175.038C87.3007 174.706 87.2207 174.418 87.0606 174.175C86.9037 173.932 86.6882 173.744 86.4143 173.612C86.1404 173.48 85.8327 173.413 85.491 173.413C85.1279 173.413 84.8109 173.489 84.54 173.64C84.2723 173.787 84.0645 173.995 83.9168 174.263C83.7722 174.531 83.6998 174.844 83.6998 175.205H82.6104C82.6104 174.651 82.7381 174.164 82.9935 173.746C83.249 173.327 83.5967 173.001 84.0368 172.767C84.48 172.533 84.9771 172.416 85.528 172.416C86.0819 172.416 86.5728 172.533 87.0006 172.767C87.4284 173.001 87.7639 173.316 88.007 173.713C88.2501 174.11 88.3717 174.552 88.3717 175.038C88.3717 175.386 88.3086 175.726 88.1824 176.059C88.0593 176.388 87.8439 176.756 87.5361 177.162C87.2314 177.565 86.8083 178.058 86.2666 178.639L84.143 180.911V180.984H88.5379V182H82.5734ZM93.2748 176.111H94.3408V178.217H93.2748V176.111ZM98.6568 171.262H99.7358V178.178H98.6568V171.262ZM90.2068 176.475L90.0768 175.682C90.8308 175.682 91.6368 175.678 92.4948 175.669C93.3615 175.652 94.2412 175.626 95.1338 175.591C96.0265 175.548 96.8932 175.478 97.7338 175.383L97.7988 176.085C96.9408 176.206 96.0655 176.297 95.1728 176.358C94.2888 176.41 93.4222 176.445 92.5728 176.462C91.7322 176.471 90.9435 176.475 90.2068 176.475ZM91.8578 178.607H99.7358V181.051H92.9498V182.377H91.8968V180.323H98.6698V179.374H91.8578V178.607ZM91.8968 182.091H100.126V182.884H91.8968V182.091ZM96.3168 176.852H99.0078V177.554H96.3168V176.852ZM93.8728 171.483C94.4535 171.483 94.9605 171.552 95.3938 171.691C95.8272 171.83 96.1652 172.033 96.4078 172.302C96.6505 172.571 96.7718 172.887 96.7718 173.251C96.7718 173.606 96.6505 173.918 96.4078 174.187C96.1652 174.447 95.8272 174.651 95.3938 174.798C94.9605 174.937 94.4535 175.006 93.8728 175.006C93.2922 175.006 92.7808 174.937 92.3388 174.798C91.9055 174.651 91.5675 174.447 91.3248 174.187C91.0908 173.918 90.9738 173.606 90.9738 173.251C90.9738 172.887 91.0908 172.571 91.3248 172.302C91.5675 172.033 91.9055 171.83 92.3388 171.691C92.7808 171.552 93.2922 171.483 93.8728 171.483ZM93.8728 172.224C93.3008 172.224 92.8415 172.315 92.4948 172.497C92.1568 172.679 91.9878 172.93 91.9878 173.251C91.9878 173.554 92.1568 173.801 92.4948 173.992C92.8415 174.174 93.3008 174.265 93.8728 174.265C94.4448 174.265 94.8998 174.174 95.2378 173.992C95.5845 173.801 95.7578 173.554 95.7578 173.251C95.7578 172.93 95.5845 172.679 95.2378 172.497C94.8998 172.315 94.4448 172.224 93.8728 172.224ZM109.088 182.129C108.454 182.129 107.894 182.017 107.408 181.792C106.925 181.565 106.548 181.252 106.277 180.855C106.006 180.455 105.872 180 105.875 179.489C105.872 179.089 105.95 178.719 106.111 178.381C106.271 178.039 106.489 177.754 106.766 177.527C107.046 177.296 107.359 177.15 107.703 177.088V177.033C107.251 176.916 106.891 176.662 106.623 176.271C106.355 175.877 106.223 175.429 106.226 174.928C106.223 174.447 106.344 174.018 106.591 173.64C106.837 173.261 107.175 172.962 107.606 172.744C108.04 172.525 108.534 172.416 109.088 172.416C109.636 172.416 110.125 172.525 110.556 172.744C110.987 172.962 111.326 173.261 111.572 173.64C111.821 174.018 111.947 174.447 111.95 174.928C111.947 175.429 111.81 175.877 111.54 176.271C111.272 176.662 110.916 176.916 110.473 177.033V177.088C110.815 177.15 111.122 177.296 111.396 177.527C111.67 177.754 111.889 178.039 112.052 178.381C112.215 178.719 112.298 179.089 112.301 179.489C112.298 180 112.16 180.455 111.886 180.855C111.615 181.252 111.238 181.565 110.755 181.792C110.275 182.017 109.719 182.129 109.088 182.129ZM109.088 181.114C109.516 181.114 109.885 181.044 110.196 180.906C110.507 180.767 110.747 180.572 110.916 180.32C111.086 180.067 111.172 179.772 111.175 179.433C111.172 179.076 111.079 178.761 110.898 178.487C110.716 178.213 110.468 177.998 110.155 177.841C109.844 177.684 109.488 177.605 109.088 177.605C108.685 177.605 108.325 177.684 108.008 177.841C107.694 177.998 107.446 178.213 107.265 178.487C107.086 178.761 106.998 179.076 107.002 179.433C106.998 179.772 107.08 180.067 107.246 180.32C107.415 180.572 107.657 180.767 107.971 180.906C108.285 181.044 108.657 181.114 109.088 181.114ZM109.088 176.626C109.427 176.626 109.727 176.559 109.988 176.423C110.253 176.288 110.461 176.099 110.612 175.855C110.762 175.612 110.839 175.328 110.842 175.001C110.839 174.681 110.764 174.403 110.616 174.166C110.468 173.926 110.264 173.741 110.002 173.612C109.741 173.48 109.436 173.413 109.088 173.413C108.734 173.413 108.425 173.48 108.16 173.612C107.896 173.741 107.691 173.926 107.546 174.166C107.402 174.403 107.331 174.681 107.334 175.001C107.331 175.328 107.403 175.612 107.551 175.855C107.702 176.099 107.909 176.288 108.174 176.423C108.439 176.559 108.743 176.626 109.088 176.626ZM117.044 171.678C117.633 171.678 118.153 171.791 118.604 172.016C119.063 172.233 119.423 172.536 119.683 172.926C119.943 173.316 120.073 173.771 120.073 174.291C120.073 174.802 119.943 175.257 119.683 175.656C119.423 176.046 119.063 176.349 118.604 176.566C118.153 176.783 117.633 176.891 117.044 176.891C116.463 176.891 115.943 176.783 115.484 176.566C115.024 176.349 114.66 176.046 114.392 175.656C114.132 175.257 114.002 174.802 114.002 174.291C114.002 173.771 114.132 173.316 114.392 172.926C114.66 172.536 115.024 172.233 115.484 172.016C115.943 171.791 116.463 171.678 117.044 171.678ZM117.044 172.575C116.662 172.575 116.32 172.649 116.017 172.796C115.722 172.935 115.488 173.134 115.315 173.394C115.141 173.654 115.055 173.953 115.055 174.291C115.055 174.629 115.141 174.928 115.315 175.188C115.488 175.439 115.722 175.639 116.017 175.786C116.32 175.933 116.662 176.007 117.044 176.007C117.425 176.007 117.763 175.933 118.058 175.786C118.361 175.639 118.599 175.439 118.773 175.188C118.946 174.928 119.033 174.629 119.033 174.291C119.033 173.953 118.946 173.654 118.773 173.394C118.599 173.134 118.361 172.935 118.058 172.796C117.763 172.649 117.425 172.575 117.044 172.575ZM122.296 171.249H123.375V177.268H122.296V171.249ZM115.77 177.853H123.375V180.7H116.849V182.468H115.809V179.894H122.309V178.711H115.77V177.853ZM115.809 181.987H123.778V182.858H115.809V181.987ZM132.516 176.111H133.582V178.217H132.516V176.111ZM137.898 171.262H138.977V178.178H137.898V171.262ZM129.448 176.475L129.318 175.682C130.072 175.682 130.878 175.678 131.736 175.669C132.603 175.652 133.482 175.626 134.375 175.591C135.268 175.548 136.134 175.478 136.975 175.383L137.04 176.085C136.182 176.206 135.307 176.297 134.414 176.358C133.53 176.41 132.663 176.445 131.814 176.462C130.973 176.471 130.185 176.475 129.448 176.475ZM131.099 178.607H138.977V181.051H132.191V182.377H131.138V180.323H137.911V179.374H131.099V178.607ZM131.138 182.091H139.367V182.884H131.138V182.091ZM135.558 176.852H138.249V177.554H135.558V176.852ZM133.114 171.483C133.695 171.483 134.202 171.552 134.635 171.691C135.068 171.83 135.406 172.033 135.649 172.302C135.892 172.571 136.013 172.887 136.013 173.251C136.013 173.606 135.892 173.918 135.649 174.187C135.406 174.447 135.068 174.651 134.635 174.798C134.202 174.937 133.695 175.006 133.114 175.006C132.533 175.006 132.022 174.937 131.58 174.798C131.147 174.651 130.809 174.447 130.566 174.187C130.332 173.918 130.215 173.606 130.215 173.251C130.215 172.887 130.332 172.571 130.566 172.302C130.809 172.033 131.147 171.83 131.58 171.691C132.022 171.552 132.533 171.483 133.114 171.483ZM133.114 172.224C132.542 172.224 132.083 172.315 131.736 172.497C131.398 172.679 131.229 172.93 131.229 173.251C131.229 173.554 131.398 173.801 131.736 173.992C132.083 174.174 132.542 174.265 133.114 174.265C133.686 174.265 134.141 174.174 134.479 173.992C134.826 173.801 134.999 173.554 134.999 173.251C134.999 172.93 134.826 172.679 134.479 172.497C134.141 172.315 133.686 172.224 133.114 172.224ZM143.929 177.307H144.995V180.817H143.929V177.307ZM148.271 177.307H149.35V180.817H148.271V177.307ZM141.316 180.609H151.976V181.506H141.316V180.609ZM146.62 171.99C147.452 171.99 148.189 172.116 148.83 172.367C149.471 172.618 149.974 172.969 150.338 173.42C150.711 173.871 150.897 174.404 150.897 175.019C150.897 175.626 150.711 176.159 150.338 176.618C149.974 177.069 149.471 177.42 148.83 177.671C148.189 177.914 147.452 178.035 146.62 178.035C145.797 178.035 145.06 177.914 144.41 177.671C143.769 177.42 143.266 177.069 142.902 176.618C142.538 176.159 142.356 175.626 142.356 175.019C142.356 174.404 142.538 173.871 142.902 173.42C143.266 172.969 143.769 172.618 144.41 172.367C145.06 172.116 145.797 171.99 146.62 171.99ZM146.62 172.848C145.996 172.848 145.441 172.939 144.956 173.121C144.471 173.303 144.089 173.559 143.812 173.888C143.535 174.209 143.396 174.586 143.396 175.019C143.396 175.452 143.535 175.834 143.812 176.163C144.089 176.484 144.471 176.735 144.956 176.917C145.441 177.099 145.996 177.19 146.62 177.19C147.253 177.19 147.812 177.099 148.297 176.917C148.782 176.735 149.164 176.484 149.441 176.163C149.718 175.834 149.857 175.452 149.857 175.019C149.857 174.586 149.718 174.209 149.441 173.888C149.164 173.559 148.782 173.303 148.297 173.121C147.812 172.939 147.253 172.848 146.62 172.848ZM156.577 171.678C157.166 171.678 157.686 171.791 158.137 172.016C158.596 172.233 158.956 172.536 159.216 172.926C159.476 173.316 159.606 173.771 159.606 174.291C159.606 174.802 159.476 175.257 159.216 175.656C158.956 176.046 158.596 176.349 158.137 176.566C157.686 176.783 157.166 176.891 156.577 176.891C155.996 176.891 155.476 176.783 155.017 176.566C154.558 176.349 154.194 176.046 153.925 175.656C153.665 175.257 153.535 174.802 153.535 174.291C153.535 173.771 153.665 173.316 153.925 172.926C154.194 172.536 154.558 172.233 155.017 172.016C155.476 171.791 155.996 171.678 156.577 171.678ZM156.577 172.575C156.196 172.575 155.853 172.649 155.55 172.796C155.255 172.935 155.021 173.134 154.848 173.394C154.675 173.654 154.588 173.953 154.588 174.291C154.588 174.629 154.675 174.928 154.848 175.188C155.021 175.439 155.255 175.639 155.55 175.786C155.853 175.933 156.196 176.007 156.577 176.007C156.958 176.007 157.296 175.933 157.591 175.786C157.894 175.639 158.133 175.439 158.306 175.188C158.479 174.928 158.566 174.629 158.566 174.291C158.566 173.953 158.479 173.654 158.306 173.394C158.133 173.134 157.894 172.935 157.591 172.796C157.296 172.649 156.958 172.575 156.577 172.575ZM161.829 171.249H162.908V177.268H161.829V171.249ZM155.303 177.853H162.908V180.7H156.382V182.468H155.342V179.894H161.842V178.711H155.303V177.853ZM155.342 181.987H163.311V182.858H155.342V181.987Z" fill="#999999"/>
        <path d="M84 192H24V224H84V192Z" fill="#FFF8F0" stroke="#C8C8C0" stroke-width="0.6"/>
        <path d="M43.217 203.106H44.868V215.144H43.217V203.106ZM39.252 207.227H41.254V208.631H39.252V207.227ZM40.786 203.301H42.398V214.598H40.786V203.301ZM36.665 205.069H37.965V206.304C37.965 206.98 37.913 207.647 37.809 208.306C37.7137 208.965 37.562 209.589 37.354 210.178C37.146 210.759 36.873 211.283 36.535 211.751C36.197 212.219 35.7897 212.605 35.313 212.908L34.286 211.634C34.8753 211.261 35.3433 210.793 35.69 210.23C36.0367 209.658 36.2837 209.034 36.431 208.358C36.587 207.673 36.665 206.989 36.665 206.304V205.069ZM37.055 205.069H38.342V206.304C38.342 206.971 38.4157 207.63 38.563 208.28C38.7103 208.93 38.953 209.524 39.291 210.061C39.629 210.59 40.0883 211.023 40.669 211.361L39.668 212.609C39.0267 212.228 38.5153 211.712 38.134 211.062C37.7527 210.412 37.4753 209.68 37.302 208.865C37.1373 208.042 37.055 207.188 37.055 206.304V205.069ZM34.728 204.315H40.097V205.706H34.728V204.315ZM47.818 203.587H55.995V207.838H47.818V203.587ZM54.292 204.939H49.521V206.486H54.292V204.939ZM46.479 208.982H57.373V210.347H46.479V208.982ZM51.055 207.539H52.771V209.359H51.055V207.539ZM47.688 211.218H56.06V215.157H54.331V212.57H47.688V211.218Z" fill="#888888"/>
        <path d="M369 192H84V224H369V192Z" stroke="#C8C8C0" stroke-width="0.6"/>
        <path d="M104.332 202.422H105.438V215.092H104.332V202.422ZM99.712 206.972H102.148V207.924H99.712V206.972ZM101.798 202.716H102.89V214.434H101.798V202.716ZM97.29 204.396H98.186V206.006C98.186 206.697 98.1207 207.373 97.99 208.036C97.8593 208.689 97.668 209.305 97.416 209.884C97.164 210.453 96.856 210.971 96.492 211.438C96.128 211.895 95.7173 212.269 95.26 212.558L94.546 211.69C95.134 211.335 95.6287 210.859 96.03 210.262C96.4407 209.665 96.7533 208.997 96.968 208.26C97.1827 207.523 97.29 206.771 97.29 206.006V204.396ZM97.528 204.396H98.41V206.006C98.41 206.734 98.5127 207.448 98.718 208.148C98.9327 208.848 99.236 209.483 99.628 210.052C100.029 210.612 100.519 211.06 101.098 211.396L100.398 212.264C99.782 211.881 99.2593 211.373 98.83 210.738C98.41 210.094 98.088 209.366 97.864 208.554C97.64 207.733 97.528 206.883 97.528 206.006V204.396ZM94.896 203.906H100.678V204.858H94.896V203.906ZM109.049 202.954H117.547V207.252H109.049V202.954ZM116.413 203.878H110.183V206.314H116.413V203.878ZM107.579 208.834H119.017V209.786H107.579V208.834ZM112.717 207.014H113.879V209.198H112.717V207.014ZM108.853 211.088H117.603V215.092H116.441V212.026H108.853V211.088ZM126.17 202.646C127.57 202.646 128.662 202.837 129.446 203.22C130.23 203.593 130.622 204.13 130.622 204.83C130.622 205.539 130.23 206.085 129.446 206.468C128.662 206.841 127.57 207.028 126.17 207.028C124.779 207.028 123.687 206.841 122.894 206.468C122.11 206.085 121.718 205.539 121.718 204.83C121.718 204.13 122.11 203.593 122.894 203.22C123.687 202.837 124.779 202.646 126.17 202.646ZM126.17 203.514C125.488 203.514 124.905 203.565 124.42 203.668C123.934 203.771 123.561 203.92 123.3 204.116C123.048 204.312 122.922 204.55 122.922 204.83C122.922 205.11 123.048 205.353 123.3 205.558C123.561 205.754 123.934 205.903 124.42 206.006C124.905 206.099 125.488 206.146 126.17 206.146C126.86 206.146 127.448 206.099 127.934 206.006C128.419 205.903 128.788 205.754 129.04 205.558C129.301 205.353 129.432 205.11 129.432 204.83C129.432 204.55 129.301 204.312 129.04 204.116C128.788 203.92 128.419 203.771 127.934 203.668C127.448 203.565 126.86 203.514 126.17 203.514ZM120.458 207.882H131.896V208.82H120.458V207.882ZM121.844 209.898H130.426V212.754H123.006V214.28H121.872V211.9H129.292V210.794H121.844V209.898ZM121.872 214.042H130.804V214.952H121.872V214.042ZM146.486 202.422H147.648V209.226H146.486V202.422ZM139.5 209.856H140.634V211.382H146.5V209.856H147.648V214.924H139.5V209.856ZM140.634 212.306V213.972H146.5V212.306H140.634ZM140.858 203.024C141.502 203.024 142.072 203.15 142.566 203.402C143.061 203.645 143.448 203.985 143.728 204.424C144.018 204.863 144.162 205.371 144.162 205.95C144.162 206.519 144.018 207.028 143.728 207.476C143.448 207.915 143.061 208.255 142.566 208.498C142.072 208.741 141.502 208.862 140.858 208.862C140.224 208.862 139.654 208.741 139.15 208.498C138.656 208.255 138.264 207.915 137.974 207.476C137.694 207.028 137.554 206.519 137.554 205.95C137.554 205.371 137.694 204.863 137.974 204.424C138.264 203.985 138.656 203.645 139.15 203.402C139.654 203.15 140.224 203.024 140.858 203.024ZM140.858 204.004C140.438 204.004 140.065 204.088 139.738 204.256C139.412 204.415 139.155 204.643 138.968 204.942C138.782 205.231 138.688 205.567 138.688 205.95C138.688 206.323 138.782 206.659 138.968 206.958C139.155 207.247 139.412 207.476 139.738 207.644C140.065 207.812 140.438 207.896 140.858 207.896C141.278 207.896 141.652 207.812 141.978 207.644C142.305 207.476 142.562 207.247 142.748 206.958C142.935 206.659 143.028 206.323 143.028 205.95C143.028 205.567 142.935 205.231 142.748 204.942C142.562 204.643 142.305 204.415 141.978 204.256C141.652 204.088 141.278 204.004 140.858 204.004ZM150.685 208.708H151.581C152.412 208.708 153.121 208.703 153.709 208.694C154.306 208.675 154.848 208.643 155.333 208.596C155.828 208.549 156.327 208.479 156.831 208.386L156.943 209.338C156.56 209.403 156.182 209.459 155.809 209.506C155.436 209.543 155.044 209.571 154.633 209.59C154.222 209.609 153.77 209.623 153.275 209.632C152.78 209.641 152.216 209.646 151.581 209.646H150.685V208.708ZM150.657 203.192H156.103V206.776H151.833V209.268H150.685V205.88H154.955V204.13H150.657V203.192ZM159.407 202.436H160.569V210.22H159.407V202.436ZM156.943 204.312H159.673V205.25H156.943V204.312ZM156.943 206.93H159.673V207.882H156.943V206.93ZM152.099 210.892H160.569V215.106H159.407V211.844H152.099V210.892ZM171.614 202.422H172.762V215.092H171.614V202.422ZM172.496 207.63H174.834V208.61H172.496V207.63ZM162.962 204.452H170.424V205.404H162.962V204.452ZM166.756 206.44C167.353 206.44 167.881 206.566 168.338 206.818C168.805 207.07 169.169 207.415 169.43 207.854C169.701 208.283 169.836 208.783 169.836 209.352C169.836 209.921 169.701 210.425 169.43 210.864C169.169 211.303 168.805 211.648 168.338 211.9C167.881 212.143 167.353 212.264 166.756 212.264C166.159 212.264 165.627 212.143 165.16 211.9C164.703 211.648 164.339 211.303 164.068 210.864C163.797 210.425 163.662 209.921 163.662 209.352C163.662 208.783 163.797 208.283 164.068 207.854C164.339 207.415 164.703 207.07 165.16 206.818C165.627 206.566 166.159 206.44 166.756 206.44ZM166.756 207.406C166.373 207.406 166.033 207.49 165.734 207.658C165.435 207.826 165.197 208.055 165.02 208.344C164.852 208.633 164.768 208.969 164.768 209.352C164.768 209.735 164.852 210.075 165.02 210.374C165.197 210.663 165.435 210.892 165.734 211.06C166.033 211.219 166.373 211.298 166.756 211.298C167.129 211.298 167.465 211.219 167.764 211.06C168.063 210.892 168.296 210.663 168.464 210.374C168.641 210.075 168.73 209.735 168.73 209.352C168.73 208.969 168.641 208.633 168.464 208.344C168.296 208.055 168.063 207.826 167.764 207.658C167.465 207.49 167.129 207.406 166.756 207.406ZM166.154 202.576H167.316V204.872H166.154V202.576ZM180.895 206.958H183.331V207.924H180.895V206.958ZM178.543 203.612H179.453V206.034C179.453 206.687 179.383 207.331 179.243 207.966C179.112 208.601 178.916 209.198 178.655 209.758C178.403 210.318 178.095 210.822 177.731 211.27C177.367 211.718 176.956 212.082 176.499 212.362L175.771 211.494C176.2 211.233 176.588 210.906 176.933 210.514C177.278 210.122 177.568 209.683 177.801 209.198C178.044 208.703 178.226 208.19 178.347 207.658C178.478 207.117 178.543 206.575 178.543 206.034V203.612ZM178.767 203.612H179.663V205.992C179.663 206.496 179.719 207.005 179.831 207.518C179.952 208.022 180.12 208.507 180.335 208.974C180.559 209.431 180.834 209.851 181.161 210.234C181.488 210.617 181.856 210.934 182.267 211.186L181.609 212.082C181.152 211.802 180.746 211.447 180.391 211.018C180.036 210.579 179.738 210.089 179.495 209.548C179.252 208.997 179.07 208.419 178.949 207.812C178.828 207.205 178.767 206.599 178.767 205.992V203.612ZM185.557 202.422H186.677V215.092H185.557V202.422ZM182.981 202.688H184.073V214.448H182.981V202.688ZM191.604 208.946H192.752V212.726H191.604V208.946ZM196.28 208.946H197.442V212.726H196.28V208.946ZM188.79 212.502H200.27V213.468H188.79V212.502ZM194.502 203.22C195.398 203.22 196.191 203.355 196.882 203.626C197.573 203.897 198.114 204.275 198.506 204.76C198.907 205.245 199.108 205.819 199.108 206.482C199.108 207.135 198.907 207.709 198.506 208.204C198.114 208.689 197.573 209.067 196.882 209.338C196.191 209.599 195.398 209.73 194.502 209.73C193.615 209.73 192.822 209.599 192.122 209.338C191.431 209.067 190.89 208.689 190.498 208.204C190.106 207.709 189.91 207.135 189.91 206.482C189.91 205.819 190.106 205.245 190.498 204.76C190.89 204.275 191.431 203.897 192.122 203.626C192.822 203.355 193.615 203.22 194.502 203.22ZM194.502 204.144C193.83 204.144 193.233 204.242 192.71 204.438C192.187 204.634 191.777 204.909 191.478 205.264C191.179 205.609 191.03 206.015 191.03 206.482C191.03 206.949 191.179 207.359 191.478 207.714C191.777 208.059 192.187 208.33 192.71 208.526C193.233 208.722 193.83 208.82 194.502 208.82C195.183 208.82 195.785 208.722 196.308 208.526C196.831 208.33 197.241 208.059 197.54 207.714C197.839 207.359 197.988 206.949 197.988 206.482C197.988 206.015 197.839 205.609 197.54 205.264C197.241 204.909 196.831 204.634 196.308 204.438C195.785 204.242 195.183 204.144 194.502 204.144Z" fill="#C8C8C0"/>
        <path d="M369 224H24V460H369V224Z" fill="white" stroke="#C8C8C0" stroke-width="0.6"/>
        <g opacity="0.18">
            <path d="M230 310H162C158.686 310 156 312.686 156 316V364C156 367.314 158.686 370 162 370H230C233.314 370 236 367.314 236 364V316C236 312.686 233.314 310 230 310Z" stroke="#888888" stroke-width="1.5"/>
            <path d="M178 338C182.418 338 186 334.418 186 330C186 325.582 182.418 322 178 322C173.582 322 170 325.582 170 330C170 334.418 173.582 338 178 338Z" stroke="#888888" stroke-width="1.2"/>
            <path d="M164 360L178 346L190 352L206 338L228 352" stroke="#888888" stroke-width="1.2" stroke-linecap="round"/>
            <path d="M196 302V308" stroke="#888888" stroke-width="1.5" stroke-linecap="round"/>
            <path d="M193 305H199" stroke="#888888" stroke-width="1.5" stroke-linecap="round"/>
        </g>
        <path d="M142.365 388.912H143.049C143.625 388.912 144.129 388.908 144.561 388.9C145.001 388.884 145.413 388.856 145.797 388.816C146.181 388.768 146.573 388.704 146.973 388.624L147.081 389.44C146.665 389.52 146.257 389.584 145.857 389.632C145.465 389.672 145.045 389.7 144.597 389.716C144.149 389.724 143.633 389.728 143.049 389.728H142.365V388.912ZM142.365 384.736H146.553V385.54H143.325V389.512H142.365V384.736ZM143.025 386.788H146.433V387.58H143.025V386.788ZM150.093 384.088H151.041V390.244H150.093V384.088ZM148.377 386.704H150.429V387.532H148.377V386.704ZM147.693 384.292H148.629V390.16H147.693V384.292ZM143.925 390.676H144.909V391.876H150.069V390.676H151.041V394.792H143.925V390.676ZM144.909 392.668V393.976H150.069V392.668H144.909ZM160.292 384.076H161.276V394.936H160.292V384.076ZM161.048 388.54H163.052V389.38H161.048V388.54ZM152.876 385.816H159.272V386.632H152.876V385.816ZM156.128 387.52C156.64 387.52 157.092 387.628 157.484 387.844C157.884 388.06 158.196 388.356 158.42 388.732C158.652 389.1 158.768 389.528 158.768 390.016C158.768 390.504 158.652 390.936 158.42 391.312C158.196 391.688 157.884 391.984 157.484 392.2C157.092 392.408 156.64 392.512 156.128 392.512C155.616 392.512 155.16 392.408 154.76 392.2C154.368 391.984 154.056 391.688 153.824 391.312C153.592 390.936 153.476 390.504 153.476 390.016C153.476 389.528 153.592 389.1 153.824 388.732C154.056 388.356 154.368 388.06 154.76 387.844C155.16 387.628 155.616 387.52 156.128 387.52ZM156.128 388.348C155.8 388.348 155.508 388.42 155.252 388.564C154.996 388.708 154.792 388.904 154.64 389.152C154.496 389.4 154.424 389.688 154.424 390.016C154.424 390.344 154.496 390.636 154.64 390.892C154.792 391.14 154.996 391.336 155.252 391.48C155.508 391.616 155.8 391.684 156.128 391.684C156.448 391.684 156.736 391.616 156.992 391.48C157.248 391.336 157.448 391.14 157.592 390.892C157.744 390.636 157.82 390.344 157.82 390.016C157.82 389.688 157.744 389.4 157.592 389.152C157.448 388.904 157.248 388.708 156.992 388.564C156.736 388.42 156.448 388.348 156.128 388.348ZM155.612 384.208H156.608V386.176H155.612V384.208ZM168.859 386.5H172.147V387.316H168.859V386.5ZM168.859 389.932H172.147V390.748H168.859V389.932ZM166.867 384.916C167.395 384.916 167.863 385.072 168.271 385.384C168.679 385.688 168.995 386.124 169.219 386.692C169.451 387.26 169.567 387.928 169.567 388.696C169.567 389.464 169.451 390.132 169.219 390.7C168.995 391.268 168.679 391.708 168.271 392.02C167.863 392.332 167.395 392.488 166.867 392.488C166.347 392.488 165.879 392.332 165.463 392.02C165.055 391.708 164.735 391.268 164.503 390.7C164.279 390.132 164.167 389.464 164.167 388.696C164.167 387.928 164.279 387.26 164.503 386.692C164.735 386.124 165.055 385.688 165.463 385.384C165.879 385.072 166.347 384.916 166.867 384.916ZM166.867 385.804C166.523 385.804 166.219 385.924 165.955 386.164C165.691 386.396 165.483 386.732 165.331 387.172C165.187 387.604 165.115 388.112 165.115 388.696C165.115 389.28 165.187 389.792 165.331 390.232C165.483 390.664 165.691 391 165.955 391.24C166.219 391.48 166.523 391.6 166.867 391.6C167.219 391.6 167.527 391.48 167.791 391.24C168.055 391 168.259 390.664 168.403 390.232C168.555 389.792 168.631 389.28 168.631 388.696C168.631 388.112 168.555 387.604 168.403 387.172C168.259 386.732 168.055 386.396 167.791 386.164C167.527 385.924 167.219 385.804 166.867 385.804ZM171.919 384.076H172.903V394.948H171.919V384.076ZM179.457 385.228H186.441V386.044H179.457V385.228ZM178.389 392.524H188.193V393.352H178.389V392.524ZM185.901 385.228H186.885V386.32C186.885 386.776 186.877 387.264 186.861 387.784C186.853 388.296 186.821 388.864 186.765 389.488C186.709 390.112 186.613 390.816 186.477 391.6L185.469 391.492C185.613 390.756 185.713 390.08 185.769 389.464C185.833 388.848 185.869 388.28 185.877 387.76C185.893 387.24 185.901 386.76 185.901 386.32V385.228ZM197.324 384.088H198.32V390.52H197.324V384.088ZM189.992 389.176H190.868C191.524 389.176 192.132 389.168 192.692 389.152C193.26 389.136 193.812 389.104 194.348 389.056C194.884 389 195.44 388.928 196.016 388.84L196.136 389.656C195.536 389.752 194.96 389.828 194.408 389.884C193.864 389.932 193.304 389.964 192.728 389.98C192.16 389.996 191.54 390.004 190.868 390.004H189.992V389.176ZM189.968 384.736H194.888V387.7H190.964V389.68H189.992V386.92H193.916V385.54H189.968V384.736ZM191.312 391.108H198.32V394.792H191.312V391.108ZM197.348 391.912H192.284V393.976H197.348V391.912ZM201.521 390.949C201.31 390.949 201.13 390.874 200.979 390.723C200.829 390.572 200.754 390.392 200.754 390.182C200.754 389.972 200.829 389.791 200.979 389.641C201.13 389.49 201.31 389.415 201.521 389.415C201.731 389.415 201.911 389.49 202.062 389.641C202.212 389.791 202.288 389.972 202.288 390.182C202.288 390.321 202.252 390.449 202.181 390.565C202.113 390.682 202.021 390.776 201.904 390.847C201.79 390.915 201.663 390.949 201.521 390.949ZM206.424 385.012H207.24V386.956C207.24 387.556 207.164 388.144 207.012 388.72C206.868 389.296 206.66 389.836 206.388 390.34C206.116 390.844 205.796 391.292 205.428 391.684C205.06 392.076 204.66 392.388 204.228 392.62L203.616 391.816C204.016 391.616 204.384 391.348 204.72 391.012C205.064 390.668 205.364 390.276 205.62 389.836C205.876 389.396 206.072 388.932 206.208 388.444C206.352 387.948 206.424 387.452 206.424 386.956V385.012ZM206.604 385.012H207.408V386.956C207.408 387.436 207.476 387.912 207.612 388.384C207.756 388.856 207.956 389.3 208.212 389.716C208.468 390.132 208.76 390.504 209.088 390.832C209.424 391.16 209.784 391.42 210.168 391.612L209.556 392.404C209.132 392.188 208.74 391.892 208.38 391.516C208.028 391.14 207.716 390.712 207.444 390.232C207.18 389.744 206.972 389.224 206.82 388.672C206.676 388.112 206.604 387.54 206.604 386.956V385.012ZM211.116 384.076H212.112V394.936H211.116V384.076ZM211.884 388.468H213.888V389.32H211.884V388.468ZM217.703 385.264H218.531V386.38C218.531 387.044 218.403 387.66 218.147 388.228C217.891 388.796 217.531 389.296 217.067 389.728C216.611 390.152 216.079 390.472 215.471 390.688L214.955 389.908C215.499 389.708 215.975 389.432 216.383 389.08C216.799 388.728 217.123 388.32 217.355 387.856C217.587 387.384 217.703 386.892 217.703 386.38V385.264ZM217.895 385.264H218.711V386.38C218.711 386.748 218.775 387.104 218.903 387.448C219.039 387.784 219.231 388.1 219.479 388.396C219.727 388.684 220.015 388.94 220.343 389.164C220.679 389.388 221.047 389.564 221.447 389.692L220.943 390.472C220.343 390.264 219.815 389.96 219.359 389.56C218.903 389.16 218.543 388.688 218.279 388.144C218.023 387.6 217.895 387.012 217.895 386.38V385.264ZM215.219 384.976H221.159V385.792H215.219V384.976ZM222.707 384.088H223.703V392.032H222.707V384.088ZM216.731 393.88H224.039V394.696H216.731V393.88ZM216.731 391.288H217.727V394.24H216.731V391.288ZM233.629 390.976H234.613V394.948H233.629V390.976ZM229.225 390.64H239.029V391.468H229.225V390.64ZM233.629 385.948H234.505V386.224C234.505 386.592 234.429 386.944 234.277 387.28C234.125 387.608 233.913 387.912 233.641 388.192C233.369 388.472 233.049 388.724 232.681 388.948C232.321 389.164 231.929 389.348 231.505 389.5C231.089 389.644 230.653 389.748 230.197 389.812L229.837 389.02C230.229 388.964 230.609 388.876 230.977 388.756C231.353 388.636 231.697 388.488 232.009 388.312C232.329 388.136 232.609 387.94 232.849 387.724C233.097 387.5 233.289 387.264 233.425 387.016C233.561 386.76 233.629 386.496 233.629 386.224V385.948ZM233.749 385.948H234.625V386.224C234.625 386.488 234.693 386.748 234.829 387.004C234.965 387.252 235.153 387.488 235.393 387.712C235.633 387.928 235.909 388.128 236.221 388.312C236.541 388.488 236.885 388.636 237.253 388.756C237.629 388.876 238.013 388.964 238.405 389.02L238.045 389.812C237.589 389.748 237.149 389.644 236.725 389.5C236.309 389.348 235.917 389.164 235.549 388.948C235.189 388.724 234.873 388.472 234.601 388.192C234.337 387.912 234.129 387.608 233.977 387.28C233.825 386.944 233.749 386.592 233.749 386.224V385.948ZM230.173 385.42H238.081V386.224H230.173V385.42ZM233.629 384.076H234.613V385.696H233.629V384.076ZM247.608 384.076H248.604V394.924H247.608V384.076ZM248.34 388.48H250.332V389.308H248.34V388.48ZM244.836 385.24H245.808C245.808 386.272 245.64 387.26 245.304 388.204C244.968 389.14 244.44 390.008 243.72 390.808C243 391.6 242.052 392.288 240.876 392.872L240.324 392.104C241.332 391.6 242.168 391.012 242.832 390.34C243.504 389.66 244.004 388.908 244.332 388.084C244.668 387.252 244.836 386.356 244.836 385.396V385.24ZM240.828 385.24H245.34V386.068H240.828V385.24Z" fill="#C8C8C0"/>
        <path d="M155.531 834.545C155.488 834.186 155.315 833.906 155.012 833.707C154.709 833.509 154.338 833.409 153.897 833.409C153.575 833.409 153.294 833.461 153.052 833.565C152.813 833.67 152.626 833.813 152.491 833.995C152.358 834.177 152.292 834.384 152.292 834.616C152.292 834.811 152.338 834.978 152.431 835.117C152.525 835.254 152.646 835.369 152.793 835.462C152.94 835.552 153.094 835.626 153.255 835.685C153.416 835.742 153.563 835.788 153.698 835.824L154.437 836.023C154.626 836.072 154.837 836.141 155.069 836.229C155.304 836.316 155.527 836.436 155.74 836.587C155.956 836.737 156.133 836.928 156.273 837.163C156.413 837.397 156.483 837.685 156.483 838.026C156.483 838.419 156.38 838.774 156.174 839.091C155.97 839.408 155.672 839.66 155.279 839.847C154.888 840.034 154.413 840.128 153.855 840.128C153.334 840.128 152.883 840.044 152.502 839.876C152.123 839.708 151.825 839.473 151.607 839.173C151.391 838.872 151.269 838.523 151.241 838.125H152.15C152.174 838.4 152.266 838.627 152.427 838.807C152.59 838.984 152.796 839.117 153.045 839.205C153.296 839.29 153.566 839.332 153.855 839.332C154.191 839.332 154.493 839.278 154.76 839.169C155.028 839.058 155.24 838.904 155.396 838.707C155.552 838.509 155.63 838.277 155.63 838.011C155.63 837.77 155.563 837.573 155.428 837.422C155.293 837.27 155.115 837.147 154.895 837.053C154.675 836.958 154.437 836.875 154.181 836.804L153.286 836.548C152.718 836.385 152.268 836.152 151.937 835.849C151.606 835.546 151.44 835.149 151.44 834.659C151.44 834.252 151.55 833.897 151.77 833.594C151.993 833.288 152.291 833.052 152.665 832.884C153.041 832.713 153.462 832.628 153.926 832.628C154.394 832.628 154.811 832.712 155.176 832.88C155.54 833.046 155.829 833.273 156.042 833.562C156.258 833.851 156.371 834.179 156.383 834.545H155.531ZM160.217 840.099C159.919 840.095 159.621 840.038 159.323 839.929C159.024 839.82 158.752 839.637 158.506 839.379C158.26 839.118 158.062 838.767 157.913 838.324C157.764 837.879 157.689 837.32 157.689 836.648C157.689 836.004 157.749 835.433 157.87 834.936C157.991 834.437 158.166 834.016 158.396 833.675C158.625 833.332 158.902 833.072 159.227 832.894C159.553 832.717 159.921 832.628 160.331 832.628C160.738 832.628 161.1 832.71 161.418 832.873C161.737 833.034 161.998 833.259 162.199 833.548C162.4 833.836 162.53 834.169 162.59 834.545H161.723C161.643 834.219 161.486 833.948 161.254 833.732C161.022 833.517 160.715 833.409 160.331 833.409C159.768 833.409 159.324 833.654 158.999 834.144C158.677 834.634 158.515 835.322 158.513 836.207H158.57C158.702 836.006 158.86 835.835 159.042 835.692C159.227 835.548 159.43 835.437 159.653 835.359C159.875 835.281 160.111 835.241 160.359 835.241C160.776 835.241 161.157 835.346 161.503 835.554C161.849 835.76 162.126 836.045 162.334 836.41C162.542 836.772 162.646 837.188 162.646 837.656C162.646 838.106 162.546 838.518 162.345 838.892C162.143 839.264 161.86 839.56 161.496 839.78C161.134 839.998 160.707 840.104 160.217 840.099ZM160.217 839.318C160.516 839.318 160.783 839.244 161.02 839.094C161.259 838.945 161.447 838.745 161.585 838.494C161.724 838.243 161.794 837.964 161.794 837.656C161.794 837.356 161.727 837.082 161.592 836.836C161.459 836.587 161.276 836.39 161.041 836.243C160.809 836.096 160.544 836.023 160.246 836.023C160.021 836.023 159.811 836.068 159.617 836.158C159.423 836.245 159.253 836.366 159.106 836.52C158.961 836.674 158.848 836.85 158.765 837.049C158.682 837.246 158.641 837.453 158.641 837.67C158.641 837.959 158.708 838.229 158.843 838.48C158.98 838.731 159.167 838.933 159.404 839.087C159.643 839.241 159.914 839.318 160.217 839.318ZM167.182 835.973V836.754H164V835.973H167.182ZM168.301 840V839.361L170.701 836.733C170.983 836.425 171.215 836.158 171.397 835.93C171.58 835.701 171.715 835.485 171.802 835.284C171.892 835.08 171.937 834.867 171.937 834.645C171.937 834.389 171.876 834.168 171.752 833.981C171.632 833.794 171.466 833.649 171.255 833.548C171.045 833.446 170.808 833.395 170.545 833.395C170.266 833.395 170.022 833.453 169.813 833.569C169.608 833.683 169.448 833.842 169.334 834.048C169.223 834.254 169.167 834.496 169.167 834.773H168.329C168.329 834.347 168.427 833.973 168.624 833.651C168.82 833.329 169.088 833.078 169.426 832.898C169.767 832.718 170.15 832.628 170.573 832.628C171 832.628 171.377 832.718 171.706 832.898C172.035 833.078 172.293 833.32 172.48 833.626C172.667 833.931 172.761 834.271 172.761 834.645C172.761 834.912 172.712 835.174 172.615 835.43C172.521 835.683 172.355 835.966 172.118 836.278C171.884 836.589 171.558 836.967 171.142 837.415L169.508 839.162V839.219H172.889V840H168.301ZM186.415 835.973V836.754H176.415V835.973H186.415ZM191.429 840L189.441 832.727H190.335L191.855 838.651H191.926L193.475 832.727H194.469L196.017 838.651H196.088L197.608 832.727H198.503L196.514 840H195.605L194 834.205H193.943L192.338 840H191.429ZM199.145 840V834.545H199.955V835.369H200.011C200.111 835.099 200.291 834.88 200.551 834.712C200.812 834.544 201.105 834.46 201.432 834.46C201.493 834.46 201.57 834.461 201.663 834.464C201.755 834.466 201.825 834.47 201.872 834.474V835.327C201.844 835.32 201.779 835.309 201.677 835.295C201.578 835.278 201.472 835.27 201.361 835.27C201.096 835.27 200.859 835.326 200.651 835.437C200.445 835.546 200.281 835.697 200.161 835.891C200.042 836.083 199.983 836.302 199.983 836.548V840H199.145ZM202.866 840V834.545H203.704V840H202.866ZM203.292 833.636C203.128 833.636 202.988 833.581 202.869 833.469C202.753 833.358 202.695 833.224 202.695 833.068C202.695 832.912 202.753 832.778 202.869 832.667C202.988 832.556 203.128 832.5 203.292 832.5C203.455 832.5 203.595 832.556 203.711 832.667C203.829 832.778 203.888 832.912 203.888 833.068C203.888 833.224 203.829 833.358 203.711 833.469C203.595 833.581 203.455 833.636 203.292 833.636ZM207.611 834.545V835.256H204.784V834.545H207.611ZM205.608 833.239H206.446V838.438C206.446 838.674 206.48 838.852 206.549 838.97C206.62 839.086 206.71 839.164 206.819 839.205C206.93 839.242 207.047 839.261 207.171 839.261C207.263 839.261 207.339 839.257 207.398 839.247C207.457 839.235 207.504 839.226 207.54 839.219L207.71 839.972C207.653 839.993 207.574 840.014 207.472 840.036C207.371 840.059 207.242 840.071 207.085 840.071C206.849 840.071 206.617 840.02 206.389 839.918C206.164 839.817 205.977 839.661 205.828 839.453C205.681 839.245 205.608 838.982 205.608 838.665V833.239ZM211.1 840.114C210.574 840.114 210.121 839.998 209.74 839.766C209.361 839.531 209.069 839.205 208.863 838.786C208.659 838.364 208.557 837.874 208.557 837.315C208.557 836.757 208.659 836.264 208.863 835.838C209.069 835.41 209.355 835.076 209.722 834.837C210.091 834.595 210.522 834.474 211.015 834.474C211.299 834.474 211.579 834.522 211.856 834.616C212.133 834.711 212.385 834.865 212.613 835.078C212.84 835.289 213.021 835.568 213.156 835.916C213.291 836.264 213.358 836.693 213.358 837.202V837.557H209.154V836.832H212.506C212.506 836.525 212.445 836.25 212.321 836.009C212.201 835.767 212.028 835.576 211.803 835.437C211.58 835.297 211.318 835.227 211.015 835.227C210.681 835.227 210.392 835.31 210.148 835.476C209.907 835.639 209.721 835.852 209.591 836.115C209.46 836.378 209.395 836.66 209.395 836.96V837.443C209.395 837.855 209.466 838.204 209.608 838.491C209.753 838.775 209.953 838.991 210.209 839.141C210.464 839.287 210.761 839.361 211.1 839.361C211.32 839.361 211.519 839.33 211.696 839.268C211.876 839.205 212.031 839.11 212.162 838.984C212.292 838.857 212.392 838.698 212.464 838.509L213.273 838.736C213.188 839.01 213.045 839.252 212.843 839.46C212.642 839.666 212.394 839.827 212.098 839.943C211.802 840.057 211.469 840.114 211.1 840.114ZM219.804 840H217.559V832.727H219.903C220.609 832.727 221.212 832.873 221.714 833.164C222.216 833.453 222.601 833.868 222.868 834.411C223.136 834.95 223.27 835.597 223.27 836.349C223.27 837.107 223.135 837.759 222.865 838.306C222.595 838.851 222.202 839.27 221.686 839.563C221.17 839.854 220.542 840 219.804 840ZM218.44 839.219H219.747C220.348 839.219 220.847 839.103 221.242 838.871C221.637 838.639 221.932 838.308 222.126 837.88C222.32 837.451 222.417 836.941 222.417 836.349C222.417 835.762 222.321 835.257 222.13 834.833C221.938 834.407 221.651 834.08 221.27 833.853C220.889 833.623 220.415 833.509 219.846 833.509H218.44V839.219ZM224.633 840V834.545H225.471V840H224.633ZM225.059 833.636C224.896 833.636 224.755 833.581 224.637 833.469C224.521 833.358 224.463 833.224 224.463 833.068C224.463 832.912 224.521 832.778 224.637 832.667C224.755 832.556 224.896 832.5 225.059 832.5C225.223 832.5 225.362 832.556 225.478 832.667C225.597 832.778 225.656 832.912 225.656 833.068C225.656 833.224 225.597 833.358 225.478 833.469C225.362 833.581 225.223 833.636 225.059 833.636ZM228.611 840.128C228.266 840.128 227.952 840.063 227.67 839.933C227.389 839.8 227.165 839.609 226.999 839.361C226.833 839.11 226.751 838.807 226.751 838.452C226.751 838.139 226.812 837.886 226.935 837.692C227.058 837.495 227.223 837.341 227.429 837.23C227.635 837.119 227.862 837.036 228.111 836.982C228.362 836.925 228.614 836.88 228.867 836.847C229.199 836.804 229.467 836.772 229.673 836.751C229.882 836.727 230.033 836.688 230.128 836.634C230.225 836.579 230.273 836.484 230.273 836.349V836.321C230.273 835.971 230.177 835.698 229.986 835.504C229.796 835.31 229.509 835.213 229.123 835.213C228.723 835.213 228.409 835.301 228.182 835.476C227.954 835.651 227.795 835.838 227.702 836.037L226.907 835.753C227.049 835.421 227.238 835.163 227.475 834.979C227.714 834.792 227.975 834.661 228.256 834.588C228.54 834.512 228.82 834.474 229.094 834.474C229.27 834.474 229.471 834.496 229.698 834.538C229.928 834.579 230.149 834.663 230.362 834.79C230.578 834.918 230.756 835.111 230.898 835.369C231.04 835.627 231.111 835.973 231.111 836.406V840H230.273V839.261H230.231C230.174 839.38 230.079 839.506 229.947 839.641C229.814 839.776 229.638 839.891 229.418 839.986C229.197 840.08 228.929 840.128 228.611 840.128ZM228.739 839.375C229.071 839.375 229.35 839.31 229.577 839.18C229.807 839.049 229.98 838.881 230.096 838.675C230.214 838.469 230.273 838.253 230.273 838.026V837.259C230.238 837.301 230.16 837.34 230.039 837.376C229.921 837.409 229.783 837.438 229.627 837.464C229.473 837.488 229.323 837.509 229.176 837.528C229.032 837.545 228.914 837.559 228.824 837.571C228.607 837.599 228.403 837.646 228.214 837.71C228.027 837.771 227.875 837.865 227.759 837.99C227.646 838.113 227.589 838.281 227.589 838.494C227.589 838.786 227.696 839.006 227.912 839.155C228.13 839.302 228.405 839.375 228.739 839.375ZM232.641 840V834.545H233.451V835.369H233.508C233.607 835.099 233.787 834.88 234.047 834.712C234.308 834.544 234.601 834.46 234.928 834.46C234.99 834.46 235.066 834.461 235.159 834.464C235.251 834.466 235.321 834.47 235.368 834.474V835.327C235.34 835.32 235.275 835.309 235.173 835.295C235.074 835.278 234.968 835.27 234.857 835.27C234.592 835.27 234.355 835.326 234.147 835.437C233.941 835.546 233.777 835.697 233.657 835.891C233.538 836.083 233.479 836.302 233.479 836.548V840H232.641ZM237.068 842.045C236.926 842.045 236.799 842.034 236.688 842.01C236.576 841.989 236.499 841.967 236.457 841.946L236.67 841.207C236.873 841.259 237.053 841.278 237.21 841.264C237.366 841.25 237.504 841.18 237.625 841.055C237.748 840.932 237.861 840.732 237.962 840.455L238.119 840.028L236.102 834.545H237.011L238.516 838.892H238.573L240.079 834.545H240.988L238.673 840.795C238.569 841.077 238.439 841.31 238.286 841.495C238.132 841.682 237.953 841.821 237.749 841.911C237.548 842 237.321 842.045 237.068 842.045Z" fill="#D1D6DB"/>
        <path d="M393 104H0V148H393V104Z" fill="#FAF9F4"/>
        <path d="M0 104H393" stroke="#E0DDD4" stroke-width="0.6"/>
        <path d="M0 148H393" stroke="#E0DDD4" stroke-width="0.6"/>
        <path d="M193 113V141" stroke="#E0DDD4" stroke-width="0.6"/>
        <path d="M30.268 120.106H31.997V126.047H30.268V120.106ZM31.529 122.355H33.596V123.759H31.529V122.355ZM23.014 120.639H24.743V125.293H23.014V120.639ZM23.014 124.305H24.015C24.8297 124.305 25.679 124.275 26.563 124.214C27.447 124.145 28.357 124.019 29.293 123.837L29.488 125.228C28.5173 125.427 27.5727 125.562 26.654 125.631C25.744 125.7 24.8643 125.735 24.015 125.735H23.014V124.305ZM24.054 126.554H31.997V129.882H25.809V131.299H24.067V128.608H30.268V127.893H24.054V126.554ZM24.067 130.662H32.348V132.027H24.067V130.662ZM43.007 120.119H44.749V132.157H43.007V120.119ZM35.974 121.068H37.235V123.096C37.235 123.711 37.209 124.331 37.157 124.955C37.105 125.579 37.0097 126.177 36.871 126.749C36.741 127.312 36.5503 127.828 36.299 128.296C36.0563 128.764 35.7357 129.163 35.337 129.492L34.232 128.296C34.6133 127.993 34.921 127.642 35.155 127.243C35.389 126.844 35.5623 126.415 35.675 125.956C35.7963 125.497 35.8743 125.024 35.909 124.539C35.9523 124.045 35.974 123.564 35.974 123.096V121.068ZM36.377 121.068H37.599V123.096C37.599 123.555 37.6163 124.028 37.651 124.513C37.6943 124.998 37.7767 125.479 37.898 125.956C38.0193 126.424 38.197 126.866 38.431 127.282C38.6737 127.698 38.99 128.066 39.38 128.387L38.444 129.661C38.002 129.323 37.6423 128.907 37.365 128.413C37.0963 127.919 36.8883 127.373 36.741 126.775C36.6023 126.177 36.507 125.562 36.455 124.929C36.403 124.296 36.377 123.685 36.377 123.096V121.068ZM39.276 121.068H40.498V123.096C40.498 123.694 40.472 124.309 40.42 124.942C40.3767 125.575 40.2813 126.19 40.134 126.788C39.9867 127.377 39.7787 127.919 39.51 128.413C39.2413 128.907 38.886 129.323 38.444 129.661L37.508 128.387C37.898 128.066 38.21 127.702 38.444 127.295C38.678 126.879 38.8557 126.437 38.977 125.969C39.0983 125.492 39.1763 125.011 39.211 124.526C39.2543 124.041 39.276 123.564 39.276 123.096V121.068ZM39.679 121.068H40.927V123.096C40.927 123.573 40.9443 124.058 40.979 124.552C41.0223 125.037 41.1047 125.51 41.226 125.969C41.3473 126.428 41.525 126.857 41.759 127.256C41.993 127.655 42.3007 128.001 42.682 128.296L41.629 129.544C41.2217 129.223 40.888 128.829 40.628 128.361C40.368 127.884 40.1687 127.36 40.03 126.788C39.9 126.207 39.809 125.605 39.757 124.981C39.705 124.348 39.679 123.72 39.679 123.096V121.068Z" fill="#4E5968"/>
        <path d="M69.1064 113H63.8723C57.1274 113 51.6595 119.044 51.6595 126.5C51.6595 133.956 57.1274 140 63.8723 140H69.1064C75.8513 140 81.3191 133.956 81.3191 126.5C81.3191 119.044 75.8513 113 69.1064 113Z" fill="#FFF8E8" stroke="#FFD080"/>
        <path d="M66.4879 127.811C66.0476 127.811 65.6445 127.702 65.2787 127.486C64.913 127.269 64.6218 126.978 64.4052 126.612C64.1885 126.246 64.0802 125.843 64.0802 125.403C64.0802 124.959 64.1885 124.556 64.4052 124.194C64.6218 123.828 64.913 123.537 65.2787 123.32C65.6445 123.104 66.0476 122.995 66.4879 122.995C66.9318 122.995 67.3348 123.104 67.6971 123.32C68.0628 123.537 68.354 123.828 68.5706 124.194C68.7873 124.556 68.8956 124.959 68.8956 125.403C68.8956 125.843 68.7873 126.246 68.5706 126.612C68.354 126.978 68.0628 127.269 67.6971 127.486C67.3348 127.702 66.9318 127.811 66.4879 127.811ZM65.9765 121.93V118.691H66.9993V121.93H65.9765ZM69.3004 123.315L68.576 122.59L70.8771 120.289L71.6015 121.014L69.3004 123.315ZM69.9609 125.914V124.892H73.1996V125.914H69.9609ZM70.8771 130.517L68.576 128.215L69.3004 127.491L71.6015 129.792L70.8771 130.517ZM65.9765 132.115V128.876H66.9993V132.115H65.9765ZM62.0987 130.517L61.3743 129.792L63.6754 127.491L64.3998 128.215L62.0987 130.517ZM59.7763 125.914V124.892H63.0149V125.914H59.7763ZM63.6754 123.315L61.3743 121.014L62.0987 120.289L64.3998 122.59L63.6754 123.315Z" fill="black"/>
        <path d="M104 113H98.766C92.0211 113 86.5532 119.044 86.5532 126.5C86.5532 133.956 92.0211 140 98.766 140H104C110.745 140 116.213 133.956 116.213 126.5C116.213 119.044 110.745 113 104 113Z" fill="#F7F8FA"/>
        <path d="M93.883 131.907H108.883V116.907H93.883V131.907Z" fill="black"/>
        <path d="M138.447 110H133.213C126.468 110 121 116.044 121 123.5C121 130.956 126.468 137 133.213 137H138.447C145.192 137 150.66 130.956 150.66 123.5C150.66 116.044 145.192 110 138.447 110Z" fill="#F7F8FA"/>
        <path d="M140.591 119.262C140.521 119.262 140.451 119.237 140.381 119.187C140.311 119.127 140.276 119.062 140.276 118.992C140.276 118.882 140.346 118.757 140.486 118.617C140.636 118.467 140.741 118.367 140.801 118.317L142.076 117.252L142.211 117.387L141.281 118.707C141.011 119.077 140.781 119.262 140.591 119.262ZM133.691 118.407C133.631 118.407 133.566 118.382 133.496 118.332C133.436 118.272 133.406 118.207 133.406 118.137C133.406 118.037 133.471 117.937 133.601 117.837L134.291 117.312L134.426 117.447L134.006 118.167C133.966 118.247 133.916 118.307 133.856 118.347C133.796 118.387 133.741 118.407 133.691 118.407ZM130.181 119.352C130.101 119.352 130.026 119.322 129.956 119.262C129.896 119.202 129.866 119.137 129.866 119.067C129.866 118.947 129.966 118.797 130.166 118.617C130.266 118.527 130.436 118.377 130.676 118.167C130.926 117.947 131.251 117.672 131.651 117.342L131.801 117.477L130.841 118.797C130.581 119.167 130.361 119.352 130.181 119.352ZM138.881 118.467C138.821 118.467 138.756 118.442 138.686 118.392C138.616 118.332 138.581 118.267 138.581 118.197C138.581 118.107 138.651 118.007 138.791 117.897L139.481 117.357L139.616 117.492L139.196 118.212C139.096 118.382 138.991 118.467 138.881 118.467ZM135.356 119.382C135.286 119.382 135.216 119.352 135.146 119.292C135.076 119.232 135.041 119.167 135.041 119.097C135.041 119.037 135.066 118.972 135.116 118.902C135.136 118.862 135.181 118.802 135.251 118.722C135.331 118.642 135.436 118.547 135.566 118.437L136.841 117.372L136.976 117.507L136.046 118.827C135.786 119.197 135.556 119.382 135.356 119.382ZM136.691 120.852C136.621 120.852 136.551 120.822 136.481 120.762C136.411 120.702 136.376 120.637 136.376 120.567C136.376 120.527 136.386 120.492 136.406 120.462C136.426 120.432 136.446 120.397 136.466 120.357C136.486 120.317 136.531 120.257 136.601 120.177C136.671 120.097 136.771 120.007 136.901 119.907L138.176 118.842L138.311 118.977L137.381 120.297C137.111 120.667 136.881 120.852 136.691 120.852ZM131.531 120.852C131.451 120.852 131.376 120.822 131.306 120.762C131.246 120.702 131.216 120.637 131.216 120.567C131.216 120.427 131.316 120.272 131.516 120.102C131.616 120.022 131.786 119.877 132.026 119.667C132.276 119.447 132.601 119.172 133.001 118.842L133.151 118.977L132.191 120.297C131.911 120.667 131.691 120.852 131.531 120.852ZM139.196 120.852C139.136 120.852 139.071 120.827 139.001 120.777C138.941 120.717 138.911 120.652 138.911 120.582C138.911 120.492 138.976 120.397 139.106 120.297L139.796 119.757L139.931 119.892L139.511 120.612C139.411 120.772 139.306 120.852 139.196 120.852ZM133.991 120.897C133.921 120.897 133.856 120.867 133.796 120.807C133.736 120.747 133.701 120.682 133.691 120.612C133.691 120.522 133.756 120.427 133.886 120.327L134.576 119.802L134.711 119.937L134.276 120.657C134.176 120.817 134.081 120.897 133.991 120.897ZM140.591 122.427C140.521 122.427 140.451 122.402 140.381 122.352C140.311 122.292 140.276 122.227 140.276 122.157C140.276 122.047 140.346 121.922 140.486 121.782C140.626 121.632 140.731 121.532 140.801 121.482L142.076 120.417L142.211 120.552L141.281 121.872C141.011 122.242 140.781 122.427 140.591 122.427ZM135.296 122.397C135.226 122.397 135.161 122.372 135.101 122.322C135.041 122.262 135.011 122.197 135.011 122.127C135.011 122.067 135.031 122.017 135.071 121.977C135.111 121.927 135.161 121.882 135.221 121.842L135.911 121.302L136.046 121.437L135.626 122.157C135.526 122.317 135.416 122.397 135.296 122.397ZM132.386 122.652C132.316 122.652 132.241 122.617 132.161 122.547C132.091 122.477 132.056 122.407 132.056 122.337C132.056 122.277 132.076 122.222 132.116 122.172C132.166 122.112 132.226 122.057 132.296 122.007L133.106 121.377L133.256 121.527L132.776 122.367C132.716 122.467 132.646 122.542 132.566 122.592C132.496 122.632 132.436 122.652 132.386 122.652ZM129.776 122.652C129.706 122.652 129.631 122.617 129.551 122.547C129.481 122.477 129.446 122.407 129.446 122.337C129.446 122.277 129.466 122.222 129.506 122.172C129.556 122.112 129.616 122.057 129.686 122.007L130.496 121.377L130.646 121.527L130.166 122.367C130.106 122.467 130.041 122.542 129.971 122.592C129.901 122.632 129.836 122.652 129.776 122.652ZM137.621 122.652C137.551 122.652 137.476 122.617 137.396 122.547C137.326 122.477 137.291 122.407 137.291 122.337C137.291 122.277 137.311 122.222 137.351 122.172C137.401 122.112 137.461 122.057 137.531 122.007L138.341 121.377L138.491 121.527L138.011 122.367C137.951 122.467 137.886 122.542 137.816 122.592C137.746 122.632 137.681 122.652 137.621 122.652ZM140.591 124.767C140.521 124.767 140.451 124.742 140.381 124.692C140.311 124.632 140.276 124.567 140.276 124.497C140.276 124.387 140.346 124.262 140.486 124.122C140.636 123.972 140.741 123.872 140.801 123.822L142.076 122.757L142.211 122.892L141.281 124.212C141.011 124.582 140.781 124.767 140.591 124.767ZM133.691 123.912C133.631 123.912 133.566 123.887 133.496 123.837C133.436 123.777 133.406 123.712 133.406 123.642C133.406 123.542 133.471 123.442 133.601 123.342L134.291 122.817L134.426 122.952L134.006 123.672C133.966 123.752 133.916 123.812 133.856 123.852C133.796 123.892 133.741 123.912 133.691 123.912ZM130.181 124.857C130.101 124.857 130.026 124.827 129.956 124.767C129.896 124.707 129.866 124.642 129.866 124.572C129.866 124.452 129.966 124.302 130.166 124.122C130.266 124.032 130.436 123.882 130.676 123.672C130.926 123.452 131.251 123.177 131.651 122.847L131.801 122.982L130.841 124.302C130.581 124.672 130.361 124.857 130.181 124.857ZM138.881 123.972C138.821 123.972 138.756 123.947 138.686 123.897C138.616 123.837 138.581 123.772 138.581 123.702C138.581 123.612 138.651 123.512 138.791 123.402L139.481 122.862L139.616 122.997L139.196 123.717C139.096 123.887 138.991 123.972 138.881 123.972ZM135.356 124.887C135.286 124.887 135.216 124.857 135.146 124.797C135.076 124.737 135.041 124.672 135.041 124.602C135.041 124.542 135.066 124.477 135.116 124.407C135.136 124.367 135.181 124.307 135.251 124.227C135.331 124.147 135.436 124.052 135.566 123.942L136.841 122.877L136.976 123.012L136.046 124.332C135.786 124.702 135.556 124.887 135.356 124.887ZM136.691 126.357C136.621 126.357 136.551 126.327 136.481 126.267C136.411 126.207 136.376 126.142 136.376 126.072C136.376 126.032 136.386 125.997 136.406 125.967C136.426 125.937 136.446 125.902 136.466 125.862C136.486 125.822 136.531 125.762 136.601 125.682C136.671 125.602 136.771 125.512 136.901 125.412L138.176 124.347L138.311 124.482L137.381 125.802C137.111 126.172 136.881 126.357 136.691 126.357ZM131.531 126.357C131.451 126.357 131.376 126.327 131.306 126.267C131.246 126.207 131.216 126.142 131.216 126.072C131.216 125.932 131.316 125.777 131.516 125.607C131.616 125.527 131.786 125.382 132.026 125.172C132.276 124.952 132.601 124.677 133.001 124.347L133.151 124.482L132.191 125.802C131.911 126.172 131.691 126.357 131.531 126.357ZM139.196 126.357C139.136 126.357 139.071 126.332 139.001 126.282C138.941 126.222 138.911 126.157 138.911 126.087C138.911 125.997 138.976 125.902 139.106 125.802L139.796 125.262L139.931 125.397L139.511 126.117C139.411 126.277 139.306 126.357 139.196 126.357ZM133.991 126.402C133.921 126.402 133.856 126.372 133.796 126.312C133.736 126.252 133.701 126.187 133.691 126.117C133.691 126.027 133.756 125.932 133.886 125.832L134.576 125.307L134.711 125.442L134.276 126.162C134.176 126.322 134.081 126.402 133.991 126.402ZM140.591 127.932C140.521 127.932 140.451 127.907 140.381 127.857C140.311 127.797 140.276 127.732 140.276 127.662C140.276 127.552 140.346 127.427 140.486 127.287C140.626 127.137 140.731 127.037 140.801 126.987L142.076 125.922L142.211 126.057L141.281 127.377C141.011 127.747 140.781 127.932 140.591 127.932ZM135.296 127.902C135.226 127.902 135.161 127.877 135.101 127.827C135.041 127.767 135.011 127.702 135.011 127.632C135.011 127.572 135.031 127.522 135.071 127.482C135.111 127.432 135.161 127.387 135.221 127.347L135.911 126.807L136.046 126.942L135.626 127.662C135.526 127.822 135.416 127.902 135.296 127.902ZM129.776 128.157C129.706 128.157 129.631 128.122 129.551 128.052C129.481 127.982 129.446 127.912 129.446 127.842C129.446 127.782 129.466 127.727 129.506 127.677C129.556 127.617 129.616 127.562 129.686 127.512L130.496 126.882L130.646 127.032L130.166 127.872C130.106 127.972 130.041 128.042 129.971 128.082C129.901 128.132 129.836 128.157 129.776 128.157ZM137.621 128.157C137.551 128.157 137.476 128.122 137.396 128.052C137.326 127.982 137.291 127.912 137.291 127.842C137.291 127.782 137.311 127.727 137.351 127.677C137.401 127.617 137.461 127.562 137.531 127.512L138.341 126.882L138.491 127.032L138.011 127.872C137.951 127.972 137.886 128.042 137.816 128.082C137.746 128.132 137.681 128.157 137.621 128.157ZM132.386 128.157C132.316 128.157 132.241 128.122 132.161 128.052C132.091 127.982 132.056 127.912 132.056 127.842C132.056 127.782 132.076 127.727 132.116 127.677C132.166 127.617 132.226 127.562 132.296 127.512L133.106 126.882L133.256 127.032L132.776 127.872C132.716 127.972 132.646 128.042 132.566 128.082C132.496 128.132 132.436 128.157 132.386 128.157ZM140.591 130.272C140.521 130.272 140.451 130.242 140.381 130.182C140.311 130.132 140.276 130.072 140.276 130.002C140.276 129.892 140.346 129.762 140.486 129.612C140.636 129.472 140.741 129.377 140.801 129.327L142.076 128.262L142.211 128.397L141.281 129.717C141.011 130.087 140.781 130.272 140.591 130.272ZM133.691 129.417C133.631 129.417 133.566 129.387 133.496 129.327C133.436 129.277 133.406 129.217 133.406 129.147C133.406 129.047 133.471 128.947 133.601 128.847L134.291 128.322L134.426 128.457L134.006 129.177C133.966 129.257 133.916 129.317 133.856 129.357C133.796 129.397 133.741 129.417 133.691 129.417ZM130.181 130.362C130.101 130.362 130.026 130.332 129.956 130.272C129.896 130.212 129.866 130.147 129.866 130.077C129.866 129.957 129.966 129.807 130.166 129.627C130.266 129.537 130.436 129.382 130.676 129.162C130.926 128.952 131.251 128.682 131.651 128.352L131.801 128.487L130.841 129.807C130.581 130.177 130.361 130.362 130.181 130.362ZM138.881 129.477C138.821 129.477 138.756 129.447 138.686 129.387C138.616 129.337 138.581 129.277 138.581 129.207C138.581 129.117 138.651 129.017 138.791 128.907L139.481 128.367L139.616 128.502L139.196 129.222C139.096 129.392 138.991 129.477 138.881 129.477ZM135.356 130.392C135.286 130.392 135.216 130.362 135.146 130.302C135.076 130.242 135.041 130.177 135.041 130.107C135.041 130.047 135.066 129.982 135.116 129.912C135.136 129.872 135.181 129.812 135.251 129.732C135.331 129.652 135.436 129.557 135.566 129.447L136.841 128.382L136.976 128.517L136.046 129.837C135.786 130.207 135.556 130.392 135.356 130.392ZM131.531 131.862C131.451 131.862 131.376 131.832 131.306 131.772C131.246 131.712 131.216 131.647 131.216 131.577C131.216 131.437 131.316 131.282 131.516 131.112C131.616 131.032 131.786 130.882 132.026 130.662C132.276 130.452 132.601 130.182 133.001 129.852L133.151 129.987L132.191 131.307C131.911 131.677 131.691 131.862 131.531 131.862ZM136.691 131.862C136.621 131.862 136.551 131.832 136.481 131.772C136.411 131.712 136.376 131.647 136.376 131.577C136.376 131.537 136.386 131.502 136.406 131.472C136.426 131.442 136.446 131.407 136.466 131.367C136.486 131.327 136.531 131.267 136.601 131.187C136.671 131.107 136.771 131.017 136.901 130.917L138.176 129.852L138.311 129.987L137.381 131.307C137.111 131.677 136.881 131.862 136.691 131.862ZM139.196 131.862C139.136 131.862 139.071 131.832 139.001 131.772C138.941 131.722 138.911 131.662 138.911 131.592C138.911 131.502 138.976 131.407 139.106 131.307L139.796 130.767L139.931 130.902L139.511 131.622C139.411 131.782 139.306 131.862 139.196 131.862ZM133.991 131.907C133.921 131.907 133.856 131.877 133.796 131.817C133.736 131.757 133.701 131.692 133.691 131.622C133.691 131.532 133.756 131.437 133.886 131.337L134.576 130.812L134.711 130.947L134.276 131.667C134.176 131.827 134.081 131.907 133.991 131.907Z" fill="black"/>
        <path d="M173.787 113H168.553C161.808 113 156.341 119.044 156.341 126.5C156.341 133.956 161.808 140 168.553 140H173.787C180.532 140 186 133.956 186 126.5C186 119.044 180.532 113 173.787 113Z" fill="#F7F8FA"/>
        <path d="M163.67 131.907H178.67V116.907H163.67V131.907Z" fill="black"/>
        <path d="M213.827 118.106H215.556V130.144H213.827V118.106ZM210.278 119.354H211.981C211.981 120.273 211.89 121.152 211.708 121.993C211.535 122.825 211.24 123.609 210.824 124.346C210.417 125.083 209.853 125.767 209.134 126.4C208.423 127.024 207.535 127.596 206.469 128.116L205.559 126.751C206.72 126.188 207.643 125.568 208.328 124.892C209.021 124.207 209.52 123.436 209.823 122.578C210.126 121.711 210.278 120.741 210.278 119.666V119.354ZM206.209 119.354H211.084V120.732H206.209V119.354ZM217.479 124.268H228.386V125.633H217.479V124.268ZM222.211 125.009H223.94V127.544H222.211V125.009ZM218.74 128.558H227.177V129.949H218.74V128.558ZM218.74 126.634H220.469V129.143H218.74V126.634ZM218.87 118.496H220.573V119.718H225.279V118.496H226.995V123.436H218.87V118.496ZM220.573 121.018V122.097H225.279V121.018H220.573Z" fill="#4E5968"/>
        <path d="M260.931 113H256.137C249.959 113 244.951 119.268 244.951 127C244.951 134.732 249.959 141 256.137 141H260.931C267.109 141 272.118 134.732 272.118 127C272.118 119.268 267.109 113 260.931 113Z" fill="#F7F8FA"/>
        <path d="M251.035 133.05H266.035V118.05H251.035V133.05Z" fill="black"/>
        <path d="M292.892 113H288.098C281.92 113 276.912 119.268 276.912 127C276.912 134.732 281.92 141 288.098 141H292.892C299.07 141 304.079 134.732 304.079 127C304.079 119.268 299.07 113 292.892 113Z" fill="#FFE8E8" stroke="#FFB8B8"/>
        <path d="M282.995 133.05H297.995V118.05H282.995V133.05Z" fill="black"/>
        <path d="M324.853 113H320.059C313.881 113 308.873 119.268 308.873 127C308.873 134.732 313.881 141 320.059 141H324.853C331.031 141 336.039 134.732 336.039 127C336.039 119.268 331.031 113 324.853 113Z" fill="#F7F8FA"/>
        <path d="M314.956 133.05H329.956V118.05H314.956V133.05Z" fill="black"/>
        <path d="M356.814 113H352.019C345.841 113 340.833 119.268 340.833 127C340.833 134.732 345.841 141 352.019 141H356.814C362.992 141 368 134.732 368 127C368 119.268 362.992 113 356.814 113Z" fill="#F7F8FA"/>
        <path d="M346.917 133.05H361.917V118.05H346.917V133.05Z" fill="black"/>
        <path d="M24 464H369" stroke="#C8C8C0" stroke-width="0.5"/>
        <path d="M24 494H369" stroke="#C8C8C0" stroke-width="0.5"/>
        <path d="M24 524H369" stroke="#C8C8C0" stroke-width="0.5"/>
        <path d="M24 554H369" stroke="#C8C8C0" stroke-width="0.5"/>
        <path d="M24 584H369" stroke="#C8C8C0" stroke-width="0.5"/>
        <path d="M24 614H369" stroke="#C8C8C0" stroke-width="0.5"/>
        <path d="M24 644H369" stroke="#C8C8C0" stroke-width="0.5"/>
        <path d="M24 674H369" stroke="#C8C8C0" stroke-width="0.5"/>
        <path d="M24 704H369" stroke="#C8C8C0" stroke-width="0.5"/>
        <path d="M24 734H369" stroke="#C8C8C0" stroke-width="0.5"/>
        <path d="M24 764H369" stroke="#C8C8C0" stroke-width="0.5"/>
    </g>
    <defs>
        <clipPath id="clip0_53_975">
            <rect width="393" height="852" fill="white"/>
        </clipPath>
    </defs>
</svg>
