
<svg width="393" height="852" viewBox="0 0 393 852" fill="none" xmlns="http://www.w3.org/2000/svg">
    <g clip-path="url(#clip0_54_186)">
        <path d="M393 0H0V852H393V0Z" fill="white"/>
        <path d="M36.8313 23.9418C37.3924 23.9418 37.9322 24.0359 38.4506 24.2241C38.9727 24.4123 39.4379 24.7124 39.8462 25.1243C40.2582 25.5362 40.5831 26.0831 40.821 26.7649C41.0625 27.4432 41.185 28.2759 41.1886 29.2631C41.1886 30.19 41.0838 31.0174 40.8743 31.7454C40.6683 32.4698 40.3718 33.0859 39.9847 33.5938C39.5977 34.1016 39.1307 34.4886 38.5838 34.755C38.0369 35.0178 37.4261 35.1491 36.7514 35.1491C36.0234 35.1491 35.3807 35.0089 34.8232 34.7283C34.2656 34.4442 33.8164 34.0589 33.4755 33.5724C33.1381 33.0824 32.9339 32.532 32.8629 31.9212H35.1374C35.2262 32.3189 35.4126 32.6278 35.6967 32.848C35.9808 33.0646 36.3324 33.1729 36.7514 33.1729C37.4616 33.1729 38.0014 32.864 38.3707 32.2461C38.7401 31.6246 38.9265 30.7741 38.93 29.6946H38.8555C38.6921 30.0142 38.4719 30.2894 38.195 30.5202C37.918 30.7475 37.6001 30.9233 37.2415 31.0476C36.8864 31.1719 36.5082 31.234 36.1069 31.234C35.4641 31.234 34.8906 31.0831 34.3864 30.7812C33.8821 30.4794 33.4844 30.0639 33.1932 29.5348C32.902 29.0057 32.7564 28.402 32.7564 27.7237C32.7528 26.9922 32.9215 26.3406 33.2624 25.7688C33.6033 25.1971 34.0792 24.7496 34.69 24.4265C35.3043 24.0998 36.0181 23.9382 36.8313 23.9418ZM36.8473 25.7528C36.4886 25.7528 36.169 25.8381 35.8885 26.0085C35.6115 26.179 35.3913 26.408 35.228 26.6957C35.0682 26.9833 34.9901 27.3047 34.9936 27.6598C34.9936 28.0185 35.0717 28.3416 35.228 28.6293C35.3878 28.9134 35.6044 29.1406 35.8778 29.3111C36.1548 29.478 36.4709 29.5614 36.826 29.5614C37.0923 29.5614 37.3391 29.5117 37.5664 29.4123C37.7937 29.3129 37.9908 29.1761 38.1577 29.0021C38.3281 28.8246 38.4613 28.6204 38.5572 28.3896C38.6531 28.1587 38.701 27.9137 38.701 27.6545C38.6974 27.31 38.6158 26.994 38.456 26.7063C38.2962 26.4187 38.076 26.1879 37.7955 26.0138C37.5149 25.8398 37.1989 25.7528 36.8473 25.7528ZM44.1342 33.7322C43.7827 33.7322 43.4808 33.608 43.2287 33.3594C42.9801 33.1108 42.8558 32.8089 42.8558 32.4538C42.8558 32.1058 42.9801 31.8075 43.2287 31.5589C43.4808 31.3104 43.7827 31.1861 44.1342 31.1861C44.4751 31.1861 44.7734 31.3104 45.0291 31.5589C45.2848 31.8075 45.4126 32.1058 45.4126 32.4538C45.4126 32.6882 45.3523 32.9031 45.2315 33.0984C45.1143 33.2901 44.9599 33.4446 44.7681 33.5618C44.5763 33.6754 44.3651 33.7322 44.1342 33.7322ZM44.1342 28.3789C43.7827 28.3789 43.4808 28.2546 43.2287 28.006C42.9801 27.7575 42.8558 27.4556 42.8558 27.1005C42.8558 26.7525 42.9801 26.456 43.2287 26.2109C43.4808 25.9624 43.7827 25.8381 44.1342 25.8381C44.4751 25.8381 44.7734 25.9624 45.0291 26.2109C45.2848 26.456 45.4126 26.7525 45.4126 27.1005C45.4126 27.3384 45.3523 27.555 45.2315 27.7504C45.1143 27.9421 44.9599 28.0948 44.7681 28.2085C44.5763 28.3221 44.3651 28.3789 44.1342 28.3789ZM47.0892 33.0824V31.266L51.6436 24.0909H53.2096V26.6051H52.2828L49.4117 31.1488V31.234H55.8836V33.0824H47.0892ZM52.3254 35V32.5284L52.368 31.7241V24.0909H54.5306V35H52.3254ZM62.02 24.0909V35H59.7135V26.2802H59.6496L57.1514 27.8462V25.8008L59.852 24.0909H62.02Z" fill="#191F28"/>
        <path d="M30 74L23 81L30 88" stroke="#191F28" stroke-width="2" stroke-linecap="round" stroke-linejoin="round"/>
        <path d="M156.133 81.841H170.396V83.694H156.133V81.841ZM157.221 71.114H169.223V72.933H157.221V71.114ZM157.306 77.642H169.172V79.444H157.306V77.642ZM159.363 72.797H161.624V77.812H159.363V72.797ZM164.82 72.797H167.081V77.812H164.82V72.797ZM171.772 81.943H186.035V83.779H171.772V81.943ZM177.756 78.951H180V82.674H177.756V78.951ZM173.387 70.774H184.42V76.027H175.648V78.662H173.404V74.259H182.176V72.576H173.387V70.774ZM173.404 77.778H184.777V79.58H173.404V77.778ZM198.256 69.771H200.534V77.829H198.256V69.771ZM189.875 78.458H200.534V82.708H192.136V84.595H189.892V81.076H198.273V80.192H189.875V78.458ZM189.892 83.643H200.959V85.411H189.892V83.643ZM188.073 70.706H196.556V72.457H188.073V70.706ZM187.903 77.557L187.682 75.755C188.6 75.755 189.598 75.7493 190.674 75.738C191.751 75.7153 192.845 75.6757 193.955 75.619C195.077 75.5623 196.143 75.4717 197.151 75.347L197.27 76.945C196.228 77.1263 195.157 77.2567 194.057 77.336C192.969 77.4153 191.898 77.472 190.844 77.506C189.79 77.5287 188.81 77.5457 187.903 77.557ZM189.331 71.505H191.49V76.656H189.331V71.505ZM193.139 71.505H195.315V76.656H193.139V71.505ZM217.881 69.771H220.159V81.365H217.881V69.771ZM207.358 70.876H215.671V72.695H207.358V70.876ZM207.205 79.478L206.984 77.642C207.822 77.642 208.752 77.6363 209.772 77.625C210.792 77.6023 211.829 77.5683 212.883 77.523C213.937 77.4663 214.934 77.3813 215.875 77.268L216.011 78.934C215.036 79.0927 214.027 79.2117 212.985 79.291C211.942 79.3703 210.922 79.4213 209.925 79.444C208.939 79.4667 208.032 79.478 207.205 79.478ZM208.616 72.474H210.792V77.846H208.616V72.474ZM212.271 72.474H214.43V77.846H212.271V72.474ZM215.977 72.508H219.122V74.327H215.977V72.508ZM215.977 75.687H219.122V77.489H215.977V75.687ZM209.755 83.422H220.499V85.241H209.755V83.422ZM209.755 80.498H212.016V84.782H209.755V80.498ZM226.43 71.114H228.283V72.083C228.283 73.0237 228.119 73.919 227.79 74.769C227.473 75.619 226.98 76.3557 226.311 76.979C225.654 77.6023 224.815 78.0727 223.795 78.39L222.673 76.622C223.331 76.4293 223.892 76.1743 224.356 75.857C224.832 75.5283 225.223 75.1657 225.529 74.769C225.835 74.361 226.062 73.9303 226.209 73.477C226.357 73.0123 226.43 72.5477 226.43 72.083V71.114ZM226.906 71.114H228.742V72.083C228.742 72.525 228.816 72.9613 228.963 73.392C229.111 73.8113 229.332 74.2137 229.626 74.599C229.932 74.9843 230.318 75.33 230.782 75.636C231.247 75.9307 231.802 76.1743 232.448 76.367L231.326 78.118C230.34 77.8233 229.519 77.3813 228.861 76.792C228.204 76.1913 227.711 75.483 227.382 74.667C227.065 73.851 226.906 72.9897 226.906 72.083V71.114ZM223.285 70.604H231.853V72.389H223.285V70.604ZM233.434 69.771H235.695V78.305H233.434V69.771ZM225.24 78.985H227.467V80.413H233.451V78.985H235.695V85.343H225.24V78.985ZM227.467 82.147V83.524H233.451V82.147H227.467Z" fill="#191F28"/>
        <path d="M370 66H338C333.582 66 330 69.5817 330 74V86C330 90.4183 333.582 94 338 94H370C374.418 94 378 90.4183 378 86V74C378 69.5817 374.418 66 370 66Z" fill="#FF6B6B"/>
        <path d="M350.946 73.093H352.675V85.17H350.946V73.093ZM348.84 77.305H351.349V78.696H348.84V77.305ZM345.343 75.004H346.721V76.083C346.721 76.811 346.652 77.526 346.513 78.228C346.374 78.93 346.166 79.5843 345.889 80.191C345.62 80.7977 345.278 81.335 344.862 81.803C344.446 82.271 343.961 82.648 343.406 82.934L342.392 81.569C342.895 81.335 343.332 81.023 343.705 80.633C344.078 80.2343 344.385 79.7923 344.628 79.307C344.871 78.813 345.048 78.293 345.161 77.747C345.282 77.1923 345.343 76.6377 345.343 76.083V75.004ZM345.746 75.004H347.098V76.083C347.098 76.6117 347.154 77.1403 347.267 77.669C347.388 78.189 347.57 78.6873 347.813 79.164C348.064 79.632 348.376 80.0523 348.749 80.425C349.122 80.7977 349.559 81.101 350.062 81.335L349.061 82.687C348.489 82.4183 347.995 82.0587 347.579 81.608C347.163 81.1573 346.821 80.6417 346.552 80.061C346.283 79.4717 346.08 78.839 345.941 78.163C345.811 77.487 345.746 76.7937 345.746 76.083V75.004ZM342.873 74.263H349.568V75.654H342.873V74.263ZM357.211 74.458H358.628V75.212C358.628 75.9747 358.502 76.6983 358.251 77.383C358.008 78.0677 357.636 78.67 357.133 79.19C356.63 79.7013 355.993 80.0827 355.222 80.334L354.364 78.969C355.023 78.7523 355.56 78.449 355.976 78.059C356.401 77.6603 356.713 77.214 356.912 76.72C357.111 76.2173 357.211 75.7147 357.211 75.212V74.458ZM357.562 74.458H358.953V75.212C358.953 75.68 359.048 76.135 359.239 76.577C359.43 77.0103 359.724 77.4003 360.123 77.747C360.53 78.0937 361.059 78.3667 361.709 78.566L360.877 79.918C360.114 79.6927 359.486 79.346 358.992 78.878C358.507 78.4013 358.147 77.851 357.913 77.227C357.679 76.5943 357.562 75.9227 357.562 75.212V74.458ZM354.806 73.912H361.319V75.29H354.806V73.912ZM362.268 73.119H363.997V80.256H362.268V73.119ZM363.529 75.875H365.596V77.292H363.529V75.875ZM360.071 80.464C360.912 80.464 361.635 80.5593 362.242 80.75C362.849 80.932 363.317 81.1963 363.646 81.543C363.975 81.8897 364.14 82.31 364.14 82.804C364.14 83.298 363.975 83.7183 363.646 84.065C363.317 84.4203 362.849 84.689 362.242 84.871C361.635 85.0617 360.912 85.157 360.071 85.157C359.239 85.157 358.515 85.0617 357.9 84.871C357.293 84.689 356.821 84.4203 356.483 84.065C356.154 83.7183 355.989 83.298 355.989 82.804C355.989 82.31 356.154 81.8897 356.483 81.543C356.821 81.1963 357.293 80.932 357.9 80.75C358.515 80.5593 359.239 80.464 360.071 80.464ZM360.071 81.816C359.56 81.816 359.131 81.8507 358.784 81.92C358.437 81.9893 358.173 82.0977 357.991 82.245C357.809 82.3923 357.718 82.5787 357.718 82.804C357.718 83.038 357.809 83.2287 357.991 83.376C358.173 83.5233 358.437 83.636 358.784 83.714C359.131 83.7833 359.56 83.818 360.071 83.818C360.582 83.818 361.011 83.7833 361.358 83.714C361.713 83.636 361.978 83.5233 362.151 83.376C362.333 83.2287 362.424 83.038 362.424 82.804C362.424 82.5787 362.333 82.3923 362.151 82.245C361.978 82.0977 361.713 81.9893 361.358 81.92C361.011 81.8507 360.582 81.816 360.071 81.816Z" fill="white"/>
        <path d="M196 228C222.51 228 244 206.51 244 180C244 153.49 222.51 132 196 132C169.49 132 148 153.49 148 180C148 206.51 169.49 228 196 228Z" fill="#FFE8E8"/>
        <path opacity="0.25" d="M196 186C204.837 186 212 178.837 212 170C212 161.163 204.837 154 196 154C187.163 154 180 161.163 180 170C180 178.837 187.163 186 196 186Z" fill="#FF6B6B"/>
        <path opacity="0.12" d="M172 198C172 186 182.7 178 196 178C209.3 178 220 186 220 198" fill="#FF6B6B"/>
        <path d="M228 232C236.837 232 244 224.837 244 216C244 207.163 236.837 200 228 200C219.163 200 212 207.163 212 216C212 224.837 219.163 232 228 232Z" fill="#191F28"/>
        <path d="M233 209H223C221.343 209 220 210.343 220 212V217C220 218.657 221.343 220 223 220H233C234.657 220 236 218.657 236 217V212C236 210.343 234.657 209 233 209Z" stroke="white" stroke-width="1.3"/>
        <path d="M228 217C229.657 217 231 215.657 231 214C231 212.343 229.657 211 228 211C226.343 211 225 212.343 225 214C225 215.657 226.343 217 228 217Z" stroke="white"/>
        <path d="M224 209L225 207H231L232 209" stroke="white"/>
        <path d="M173.777 240.263H174.661V242.369C174.661 243.019 174.579 243.656 174.414 244.28C174.258 244.904 174.033 245.489 173.738 246.035C173.443 246.581 173.097 247.066 172.698 247.491C172.299 247.916 171.866 248.254 171.398 248.505L170.735 247.634C171.168 247.417 171.567 247.127 171.931 246.763C172.304 246.39 172.629 245.966 172.906 245.489C173.183 245.012 173.396 244.51 173.543 243.981C173.699 243.444 173.777 242.906 173.777 242.369V240.263ZM173.972 240.263H174.843V242.369C174.843 242.889 174.917 243.405 175.064 243.916C175.22 244.427 175.437 244.908 175.714 245.359C175.991 245.81 176.308 246.213 176.663 246.568C177.027 246.923 177.417 247.205 177.833 247.413L177.17 248.271C176.711 248.037 176.286 247.716 175.896 247.309C175.515 246.902 175.177 246.438 174.882 245.918C174.596 245.389 174.371 244.826 174.206 244.228C174.05 243.621 173.972 243.002 173.972 242.369V240.263ZM178.86 239.249H179.939V251.014H178.86V239.249ZM179.692 244.007H181.863V244.93H179.692V244.007ZM185.996 240.536H186.893V241.745C186.893 242.464 186.754 243.132 186.477 243.747C186.2 244.362 185.81 244.904 185.307 245.372C184.813 245.831 184.237 246.178 183.578 246.412L183.019 245.567C183.608 245.35 184.124 245.051 184.566 244.67C185.017 244.289 185.368 243.847 185.619 243.344C185.87 242.833 185.996 242.3 185.996 241.745V240.536ZM186.204 240.536H187.088V241.745C187.088 242.144 187.157 242.529 187.296 242.902C187.443 243.266 187.651 243.608 187.92 243.929C188.189 244.241 188.501 244.518 188.856 244.761C189.22 245.004 189.619 245.194 190.052 245.333L189.506 246.178C188.856 245.953 188.284 245.623 187.79 245.19C187.296 244.757 186.906 244.245 186.62 243.656C186.343 243.067 186.204 242.43 186.204 241.745V240.536ZM183.305 240.224H189.74V241.108H183.305V240.224ZM191.417 239.262H192.496V247.868H191.417V239.262ZM184.943 249.87H192.86V250.754H184.943V249.87ZM184.943 247.062H186.022V250.26H184.943V247.062ZM204.094 241.407H207.474V242.291H204.094V241.407ZM204.094 243.942H207.5V244.826H204.094V243.942ZM207.071 239.262H208.15V247.959H207.071V239.262ZM200.597 249.87H208.423V250.754H200.597V249.87ZM200.597 247.114H201.676V250.312H200.597V247.114ZM199.05 240.042H200.129V242.109H203.301V240.042H204.367V245.957H199.05V240.042ZM200.129 242.954V245.086H203.301V242.954H200.129ZM216.066 241.42H219.212V242.291H216.066V241.42ZM215.962 243.864H219.134V244.748H215.962V243.864ZM219.03 239.262H220.109V246.295H219.03V239.262ZM215.351 240.133H216.495C216.495 241.138 216.274 242.044 215.832 242.85C215.399 243.656 214.77 244.349 213.947 244.93C213.132 245.502 212.162 245.957 211.035 246.295L210.593 245.437C211.59 245.142 212.443 244.761 213.154 244.293C213.865 243.816 214.406 243.27 214.779 242.655C215.16 242.031 215.351 241.346 215.351 240.601V240.133ZM211.191 240.133H216.079V241.017H211.191V240.133ZM216.287 246.425C217.084 246.425 217.769 246.516 218.341 246.698C218.922 246.88 219.372 247.14 219.693 247.478C220.014 247.816 220.174 248.219 220.174 248.687C220.174 249.164 220.014 249.571 219.693 249.909C219.372 250.238 218.922 250.494 218.341 250.676C217.769 250.867 217.084 250.962 216.287 250.962C215.498 250.962 214.809 250.867 214.22 250.676C213.639 250.494 213.189 250.238 212.868 249.909C212.547 249.571 212.387 249.164 212.387 248.687C212.387 248.219 212.547 247.816 212.868 247.478C213.189 247.14 213.639 246.88 214.22 246.698C214.809 246.516 215.498 246.425 216.287 246.425ZM216.287 247.283C215.715 247.283 215.217 247.339 214.792 247.452C214.367 247.565 214.038 247.725 213.804 247.933C213.57 248.141 213.453 248.392 213.453 248.687C213.453 248.982 213.57 249.233 213.804 249.441C214.038 249.649 214.367 249.809 214.792 249.922C215.217 250.035 215.715 250.091 216.287 250.091C216.868 250.091 217.366 250.035 217.782 249.922C218.198 249.809 218.523 249.649 218.757 249.441C218.991 249.233 219.108 248.982 219.108 248.687C219.108 248.392 218.991 248.141 218.757 247.933C218.523 247.725 218.198 247.565 217.782 247.452C217.366 247.339 216.868 247.283 216.287 247.283Z" fill="#8B95A1"/>
        <path d="M33.191 283.249H34.27V295.027H33.191V283.249ZM28.069 284.159C28.6497 284.159 29.161 284.328 29.603 284.666C30.0537 284.995 30.4047 285.468 30.656 286.083C30.916 286.698 31.046 287.422 31.046 288.254C31.046 289.086 30.916 289.81 30.656 290.425C30.4047 291.04 30.0537 291.517 29.603 291.855C29.161 292.193 28.6497 292.362 28.069 292.362C27.4883 292.362 26.9727 292.193 26.522 291.855C26.0713 291.517 25.716 291.04 25.456 290.425C25.2047 289.81 25.079 289.086 25.079 288.254C25.079 287.422 25.2047 286.698 25.456 286.083C25.716 285.468 26.0713 284.995 26.522 284.666C26.9727 284.328 27.4883 284.159 28.069 284.159ZM28.069 285.121C27.679 285.121 27.3367 285.251 27.042 285.511C26.756 285.762 26.5307 286.126 26.366 286.603C26.2013 287.071 26.119 287.621 26.119 288.254C26.119 288.887 26.2013 289.441 26.366 289.918C26.5307 290.386 26.756 290.75 27.042 291.01C27.3367 291.27 27.679 291.4 28.069 291.4C28.4503 291.4 28.784 291.27 29.07 291.01C29.3647 290.75 29.5943 290.386 29.759 289.918C29.9237 289.441 30.006 288.887 30.006 288.254C30.006 287.621 29.9237 287.071 29.759 286.603C29.5943 286.126 29.3647 285.762 29.07 285.511C28.784 285.251 28.4503 285.121 28.069 285.121ZM36.596 289.32H47.256V290.191H36.596V289.32ZM37.948 283.535H45.891V286.33H39.04V287.877H37.974V285.524H44.825V284.393H37.948V283.535ZM37.974 287.474H46.138V288.319H37.974V287.474ZM38.039 291.257H45.904V294.858H38.039V291.257ZM44.838 292.128H39.092V293.974H44.838V292.128Z" fill="#8B95A1"/>
        <path d="M357 304H36C29.3726 304 24 309.373 24 316V340C24 346.627 29.3726 352 36 352H357C363.627 352 369 346.627 369 340V316C369 309.373 363.627 304 357 304Z" fill="#F7F8FA"/>
        <path d="M46.54 321.48H47.845C47.845 322.62 47.58 323.65 47.05 324.57C46.53 325.49 45.79 326.27 44.83 326.91C43.87 327.55 42.725 328.05 41.395 328.41L40.9 327.42C42.08 327.11 43.09 326.695 43.93 326.175C44.77 325.645 45.415 325.03 45.865 324.33C46.315 323.62 46.54 322.85 46.54 322.02V321.48ZM41.62 321.48H47.26V322.47H41.62V321.48ZM50.62 320.61H51.865V328.26H50.62V320.61ZM43.105 328.92H51.865V333.975H43.105V328.92ZM50.65 329.91H44.32V332.97H50.65V329.91ZM55.2538 321.78H61.5838V328.095H55.2538V321.78ZM60.3688 322.785H56.4688V327.09H60.3688V322.785ZM64.4188 320.61H65.6638V330.36H64.4188V320.61ZM56.9488 332.7H66.0838V333.72H56.9488V332.7ZM56.9488 329.43H58.1938V333.12H56.9488V329.43ZM73.8377 321.075H74.9327V321.84C74.9327 322.36 74.8327 322.85 74.6327 323.31C74.4327 323.76 74.1577 324.175 73.8077 324.555C73.4677 324.935 73.0677 325.275 72.6077 325.575C72.1477 325.875 71.6477 326.125 71.1077 326.325C70.5777 326.525 70.0327 326.67 69.4727 326.76L68.9627 325.755C69.4627 325.685 69.9477 325.565 70.4177 325.395C70.8977 325.225 71.3427 325.02 71.7527 324.78C72.1627 324.53 72.5227 324.25 72.8327 323.94C73.1527 323.63 73.3977 323.3 73.5677 322.95C73.7477 322.59 73.8377 322.22 73.8377 321.84V321.075ZM74.0477 321.075H75.1277V321.84C75.1277 322.22 75.2177 322.585 75.3977 322.935C75.5777 323.285 75.8227 323.615 76.1327 323.925C76.4527 324.235 76.8177 324.515 77.2277 324.765C77.6377 325.015 78.0777 325.225 78.5477 325.395C79.0277 325.565 79.5127 325.685 80.0027 325.755L79.5077 326.76C78.9477 326.67 78.4027 326.525 77.8727 326.325C77.3427 326.115 76.8427 325.86 76.3727 325.56C75.9127 325.26 75.5077 324.92 75.1577 324.54C74.8177 324.16 74.5477 323.745 74.3477 323.295C74.1477 322.835 74.0477 322.35 74.0477 321.84V321.075ZM73.8377 329.01H75.0677V334.17H73.8377V329.01ZM68.3477 328.23H80.6027V329.265H68.3477V328.23Z" fill="#191F28"/>
        <path d="M348 338C353.523 338 358 333.523 358 328C358 322.477 353.523 318 348 318C342.477 318 338 322.477 338 328C338 333.523 342.477 338 348 338Z" fill="#E5E8EB"/>
        <path d="M344 324L352 332" stroke="#8B95A1" stroke-width="1.5" stroke-linecap="round"/>
        <path d="M352 324L344 332" stroke="#8B95A1" stroke-width="1.5" stroke-linecap="round"/>
        <path d="M27.51 377.86H28.394V379.056C28.394 379.81 28.2597 380.512 27.991 381.162C27.731 381.812 27.3583 382.38 26.873 382.865C26.3877 383.342 25.82 383.706 25.17 383.957L24.585 383.099C25.183 382.882 25.6987 382.57 26.132 382.163C26.574 381.756 26.912 381.288 27.146 380.759C27.3887 380.222 27.51 379.654 27.51 379.056V377.86ZM27.705 377.86H28.576V379.147C28.576 379.537 28.6453 379.923 28.784 380.304C28.9227 380.677 29.1177 381.023 29.369 381.344C29.629 381.665 29.9323 381.951 30.279 382.202C30.6257 382.445 31.0113 382.64 31.436 382.787L30.864 383.632C30.24 383.398 29.6897 383.06 29.213 382.618C28.7363 382.167 28.3637 381.647 28.095 381.058C27.835 380.46 27.705 379.823 27.705 379.147V377.86ZM32.697 377.249H33.776V384.386H32.697V377.249ZM33.477 380.291H35.505V381.201H33.477V380.291ZM30.032 384.698C30.8293 384.698 31.514 384.785 32.086 384.958C32.6667 385.123 33.113 385.365 33.425 385.686C33.737 386.007 33.893 386.392 33.893 386.843C33.893 387.294 33.737 387.679 33.425 388C33.113 388.321 32.6667 388.563 32.086 388.728C31.514 388.901 30.8293 388.988 30.032 388.988C29.2347 388.988 28.5457 388.901 27.965 388.728C27.3843 388.563 26.938 388.321 26.626 388C26.314 387.679 26.158 387.294 26.158 386.843C26.158 386.392 26.314 386.007 26.626 385.686C26.938 385.365 27.3843 385.123 27.965 384.958C28.5457 384.785 29.2347 384.698 30.032 384.698ZM30.032 385.556C29.4513 385.556 28.9487 385.608 28.524 385.712C28.108 385.816 27.7873 385.963 27.562 386.154C27.3367 386.345 27.224 386.574 27.224 386.843C27.224 387.12 27.3367 387.354 27.562 387.545C27.7873 387.736 28.108 387.883 28.524 387.987C28.9487 388.082 29.4513 388.13 30.032 388.13C30.6127 388.13 31.111 388.082 31.527 387.987C31.943 387.883 32.2637 387.736 32.489 387.545C32.7143 387.354 32.827 387.12 32.827 386.843C32.827 386.574 32.7143 386.345 32.489 386.154C32.2637 385.963 31.943 385.816 31.527 385.712C31.111 385.608 30.6127 385.556 30.032 385.556ZM37.077 385.205H37.831C38.455 385.205 39.0053 385.201 39.482 385.192C39.9587 385.175 40.405 385.144 40.821 385.101C41.2457 385.049 41.679 384.984 42.121 384.906L42.225 385.803C41.7743 385.881 41.3323 385.946 40.899 385.998C40.4657 386.041 40.002 386.072 39.508 386.089C39.0227 386.106 38.4637 386.115 37.831 386.115H37.077V385.205ZM37.077 378.601H41.705V379.485H38.104V385.543H37.077V378.601ZM37.792 381.708H41.523V382.566H37.792V381.708ZM45.566 377.249H46.606V389.014H45.566V377.249ZM43.694 381.968H45.956V382.852H43.694V381.968ZM42.979 377.496H44.006V388.416H42.979V377.496ZM52.6402 378.614H57.1252V385.855H52.6402V378.614ZM56.1112 379.472H53.6542V384.997H56.1112V379.472ZM61.1812 377.249H62.2212V389.014H61.1812V377.249ZM56.5922 381.682H59.2962V382.566H56.5922V381.682ZM58.8412 377.496H59.8682V388.416H58.8412V377.496ZM67.2772 378.263H68.1742V380.369C68.1742 381.045 68.0875 381.704 67.9142 382.345C67.7495 382.978 67.5112 383.571 67.1992 384.126C66.8959 384.672 66.5362 385.157 66.1202 385.582C65.7129 385.998 65.2665 386.327 64.7812 386.57L64.1182 385.673C64.5602 385.474 64.9719 385.188 65.3532 384.815C65.7345 384.442 66.0682 384.022 66.3542 383.554C66.6402 383.077 66.8655 382.566 67.0302 382.02C67.1949 381.474 67.2772 380.924 67.2772 380.369V378.263ZM67.4592 378.263H68.3562V380.369C68.3562 380.906 68.4342 381.435 68.5902 381.955C68.7549 382.475 68.9802 382.969 69.2662 383.437C69.5609 383.896 69.8945 384.304 70.2672 384.659C70.6485 385.006 71.0559 385.279 71.4892 385.478L70.8392 386.336C70.3625 386.111 69.9205 385.794 69.5132 385.387C69.1059 384.98 68.7462 384.512 68.4342 383.983C68.1309 383.454 67.8925 382.882 67.7192 382.267C67.5459 381.652 67.4592 381.019 67.4592 380.369V378.263ZM72.7242 377.249H73.8032V389.027H72.7242V377.249ZM79.2492 378.939H80.1332V380.837C80.1332 381.461 80.0465 382.076 79.8732 382.683C79.6999 383.281 79.4572 383.849 79.1452 384.386C78.8419 384.915 78.4865 385.383 78.0792 385.79C77.6719 386.197 77.2342 386.518 76.7662 386.752L76.1422 385.894C76.5669 385.686 76.9655 385.404 77.3382 385.049C77.7195 384.694 78.0532 384.286 78.3392 383.827C78.6252 383.368 78.8462 382.882 79.0022 382.371C79.1669 381.86 79.2492 381.348 79.2492 380.837V378.939ZM79.4702 378.939H80.3412V380.837C80.3412 381.331 80.4192 381.825 80.5752 382.319C80.7399 382.804 80.9652 383.264 81.2512 383.697C81.5459 384.122 81.8795 384.499 82.2522 384.828C82.6335 385.157 83.0409 385.417 83.4742 385.608L82.8762 386.466C82.3995 386.241 81.9532 385.937 81.5372 385.556C81.1212 385.175 80.7572 384.737 80.4452 384.243C80.1419 383.74 79.9035 383.203 79.7302 382.631C79.5569 382.05 79.4702 381.452 79.4702 380.837V378.939ZM76.5192 378.458H83.0842V379.355H76.5192V378.458ZM84.6832 377.249H85.7622V389.014H84.6832V377.249Z" fill="#8B95A1"/>
        <path d="M357 398H36C29.3726 398 24 403.373 24 410V434C24 440.627 29.3726 446 36 446H357C363.627 446 369 440.627 369 434V410C369 403.373 363.627 398 357 398Z" fill="#F7F8FA"/>
        <path d="M44.05 415.3H45.07V416.68C45.07 417.55 44.915 418.36 44.605 419.11C44.305 419.86 43.875 420.515 43.315 421.075C42.755 421.625 42.1 422.045 41.35 422.335L40.675 421.345C41.365 421.095 41.96 420.735 42.46 420.265C42.97 419.795 43.36 419.255 43.63 418.645C43.91 418.025 44.05 417.37 44.05 416.68V415.3ZM44.275 415.3H45.28V416.785C45.28 417.235 45.36 417.68 45.52 418.12C45.68 418.55 45.905 418.95 46.195 419.32C46.495 419.69 46.845 420.02 47.245 420.31C47.645 420.59 48.09 420.815 48.58 420.985L47.92 421.96C47.2 421.69 46.565 421.3 46.015 420.79C45.465 420.27 45.035 419.67 44.725 418.99C44.425 418.3 44.275 417.565 44.275 416.785V415.3ZM50.035 414.595H51.28V422.83H50.035V414.595ZM50.935 418.105H53.275V419.155H50.935V418.105ZM46.96 423.19C47.88 423.19 48.67 423.29 49.33 423.49C50 423.68 50.515 423.96 50.875 424.33C51.235 424.7 51.415 425.145 51.415 425.665C51.415 426.185 51.235 426.63 50.875 427C50.515 427.37 50 427.65 49.33 427.84C48.67 428.04 47.88 428.14 46.96 428.14C46.04 428.14 45.245 428.04 44.575 427.84C43.905 427.65 43.39 427.37 43.03 427C42.67 426.63 42.49 426.185 42.49 425.665C42.49 425.145 42.67 424.7 43.03 424.33C43.39 423.96 43.905 423.68 44.575 423.49C45.245 423.29 46.04 423.19 46.96 423.19ZM46.96 424.18C46.29 424.18 45.71 424.24 45.22 424.36C44.74 424.48 44.37 424.65 44.11 424.87C43.85 425.09 43.72 425.355 43.72 425.665C43.72 425.985 43.85 426.255 44.11 426.475C44.37 426.695 44.74 426.865 45.22 426.985C45.71 427.095 46.29 427.15 46.96 427.15C47.63 427.15 48.205 427.095 48.685 426.985C49.165 426.865 49.535 426.695 49.795 426.475C50.055 426.255 50.185 425.985 50.185 425.665C50.185 425.355 50.055 425.09 49.795 424.87C49.535 424.65 49.165 424.48 48.685 424.36C48.205 424.24 47.63 424.18 46.96 424.18ZM55.0888 423.775H55.9588C56.6788 423.775 57.3138 423.77 57.8638 423.76C58.4138 423.74 58.9288 423.705 59.4088 423.655C59.8988 423.595 60.3988 423.52 60.9088 423.43L61.0288 424.465C60.5088 424.555 59.9988 424.63 59.4988 424.69C58.9988 424.74 58.4638 424.775 57.8938 424.795C57.3338 424.815 56.6888 424.825 55.9588 424.825H55.0888V423.775ZM55.0888 416.155H60.4288V417.175H56.2738V424.165H55.0888V416.155ZM55.9138 419.74H60.2188V420.73H55.9138V419.74ZM64.8838 414.595H66.0838V428.17H64.8838V414.595ZM62.7238 420.04H65.3338V421.06H62.7238V420.04ZM61.8988 414.88H63.0838V427.48H61.8988V414.88ZM73.0464 416.17H78.2214V424.525H73.0464V416.17ZM77.0514 417.16H74.2164V423.535H77.0514V417.16ZM82.9014 414.595H84.1014V428.17H82.9014V414.595ZM77.6064 419.71H80.7264V420.73H77.6064V419.71ZM80.2014 414.88H81.3864V427.48H80.2014V414.88ZM89.9352 415.765H90.9702V418.195C90.9702 418.975 90.8702 419.735 90.6702 420.475C90.4802 421.205 90.2052 421.89 89.8452 422.53C89.4952 423.16 89.0802 423.72 88.6002 424.21C88.1302 424.69 87.6152 425.07 87.0552 425.35L86.2902 424.315C86.8002 424.085 87.2752 423.755 87.7152 423.325C88.1552 422.895 88.5402 422.41 88.8702 421.87C89.2002 421.32 89.4602 420.73 89.6502 420.1C89.8402 419.47 89.9352 418.835 89.9352 418.195V415.765ZM90.1452 415.765H91.1802V418.195C91.1802 418.815 91.2702 419.425 91.4502 420.025C91.6402 420.625 91.9002 421.195 92.2302 421.735C92.5702 422.265 92.9552 422.735 93.3852 423.145C93.8252 423.545 94.2952 423.86 94.7952 424.09L94.0452 425.08C93.4952 424.82 92.9852 424.455 92.5152 423.985C92.0452 423.515 91.6302 422.975 91.2702 422.365C90.9202 421.755 90.6452 421.095 90.4452 420.385C90.2452 419.675 90.1452 418.945 90.1452 418.195V415.765ZM96.2202 414.595H97.4652V428.185H96.2202V414.595ZM103.749 416.545H104.769V418.735C104.769 419.455 104.669 420.165 104.469 420.865C104.269 421.555 103.989 422.21 103.629 422.83C103.279 423.44 102.869 423.98 102.399 424.45C101.929 424.92 101.424 425.29 100.884 425.56L100.164 424.57C100.654 424.33 101.114 424.005 101.544 423.595C101.984 423.185 102.369 422.715 102.699 422.185C103.029 421.655 103.284 421.095 103.464 420.505C103.654 419.915 103.749 419.325 103.749 418.735V416.545ZM104.004 416.545H105.009V418.735C105.009 419.305 105.099 419.875 105.279 420.445C105.469 421.005 105.729 421.535 106.059 422.035C106.399 422.525 106.784 422.96 107.214 423.34C107.654 423.72 108.124 424.02 108.624 424.24L107.934 425.23C107.384 424.97 106.869 424.62 106.389 424.18C105.909 423.74 105.489 423.235 105.129 422.665C104.779 422.085 104.504 421.465 104.304 420.805C104.104 420.135 104.004 419.445 104.004 418.735V416.545ZM100.599 415.99H108.174V417.025H100.599V415.99ZM110.019 414.595H111.264V428.17H110.019V414.595ZM113.948 420.895H126.248V421.855H113.948V420.895ZM115.418 422.935H124.718V425.83H116.678V427.42H115.448V424.975H123.488V423.835H115.418V422.935ZM115.448 427.09H125.153V427.99H115.448V427.09ZM115.508 415H124.673V417.82H116.768V419.29H115.538V416.98H123.443V415.885H115.508V415ZM115.538 418.99H124.913V419.89H115.538V418.99ZM141.85 414.595H143.095V421.885H141.85V414.595ZM134.365 422.56H135.58V424.195H141.865V422.56H143.095V427.99H134.365V422.56ZM135.58 425.185V426.97H141.865V425.185H135.58ZM135.82 415.24C136.51 415.24 137.12 415.375 137.65 415.645C138.18 415.905 138.595 416.27 138.895 416.74C139.205 417.21 139.36 417.755 139.36 418.375C139.36 418.985 139.205 419.53 138.895 420.01C138.595 420.48 138.18 420.845 137.65 421.105C137.12 421.365 136.51 421.495 135.82 421.495C135.14 421.495 134.53 421.365 133.99 421.105C133.46 420.845 133.04 420.48 132.73 420.01C132.43 419.53 132.28 418.985 132.28 418.375C132.28 417.755 132.43 417.21 132.73 416.74C133.04 416.27 133.46 415.905 133.99 415.645C134.53 415.375 135.14 415.24 135.82 415.24ZM135.82 416.29C135.37 416.29 134.97 416.38 134.62 416.56C134.27 416.73 133.995 416.975 133.795 417.295C133.595 417.605 133.495 417.965 133.495 418.375C133.495 418.775 133.595 419.135 133.795 419.455C133.995 419.765 134.27 420.01 134.62 420.19C134.97 420.37 135.37 420.46 135.82 420.46C136.27 420.46 136.67 420.37 137.02 420.19C137.37 420.01 137.645 419.765 137.845 419.455C138.045 419.135 138.145 418.775 138.145 418.375C138.145 417.965 138.045 417.605 137.845 417.295C137.645 416.975 137.37 416.73 137.02 416.56C136.67 416.38 136.27 416.29 135.82 416.29ZM146.349 421.33H147.309C148.199 421.33 148.959 421.325 149.589 421.315C150.229 421.295 150.809 421.26 151.329 421.21C151.859 421.16 152.394 421.085 152.934 420.985L153.054 422.005C152.644 422.075 152.239 422.135 151.839 422.185C151.439 422.225 151.019 422.255 150.579 422.275C150.139 422.295 149.654 422.31 149.124 422.32C148.594 422.33 147.989 422.335 147.309 422.335H146.349V421.33ZM146.319 415.42H152.154V419.26H147.579V421.93H146.349V418.3H150.924V416.425H146.319V415.42ZM155.694 414.61H156.939V422.95H155.694V414.61ZM153.054 416.62H155.979V417.625H153.054V416.62ZM153.054 419.425H155.979V420.445H153.054V419.425ZM147.864 423.67H156.939V428.185H155.694V424.69H147.864V423.67ZM168.773 414.595H170.003V428.17H168.773V414.595ZM169.718 420.175H172.223V421.225H169.718V420.175ZM159.503 416.77H167.498V417.79H159.503V416.77ZM163.568 418.9C164.208 418.9 164.773 419.035 165.263 419.305C165.763 419.575 166.153 419.945 166.433 420.415C166.723 420.875 166.868 421.41 166.868 422.02C166.868 422.63 166.723 423.17 166.433 423.64C166.153 424.11 165.763 424.48 165.263 424.75C164.773 425.01 164.208 425.14 163.568 425.14C162.928 425.14 162.358 425.01 161.858 424.75C161.368 424.48 160.978 424.11 160.688 423.64C160.398 423.17 160.253 422.63 160.253 422.02C160.253 421.41 160.398 420.875 160.688 420.415C160.978 419.945 161.368 419.575 161.858 419.305C162.358 419.035 162.928 418.9 163.568 418.9ZM163.568 419.935C163.158 419.935 162.793 420.025 162.473 420.205C162.153 420.385 161.898 420.63 161.708 420.94C161.528 421.25 161.438 421.61 161.438 422.02C161.438 422.43 161.528 422.795 161.708 423.115C161.898 423.425 162.153 423.67 162.473 423.85C162.793 424.02 163.158 424.105 163.568 424.105C163.968 424.105 164.328 424.02 164.648 423.85C164.968 423.67 165.218 423.425 165.398 423.115C165.588 422.795 165.683 422.43 165.683 422.02C165.683 421.61 165.588 421.25 165.398 420.94C165.218 420.63 164.968 420.385 164.648 420.205C164.328 420.025 163.968 419.935 163.568 419.935ZM162.923 414.76H164.168V417.22H162.923V414.76ZM178.717 419.455H181.327V420.49H178.717V419.455ZM176.197 415.87H177.172V418.465C177.172 419.165 177.097 419.855 176.947 420.535C176.807 421.215 176.597 421.855 176.317 422.455C176.047 423.055 175.717 423.595 175.327 424.075C174.937 424.555 174.497 424.945 174.007 425.245L173.227 424.315C173.687 424.035 174.102 423.685 174.472 423.265C174.842 422.845 175.152 422.375 175.402 421.855C175.662 421.325 175.857 420.775 175.987 420.205C176.127 419.625 176.197 419.045 176.197 418.465V415.87ZM176.437 415.87H177.397V418.42C177.397 418.96 177.457 419.505 177.577 420.055C177.707 420.595 177.887 421.115 178.117 421.615C178.357 422.105 178.652 422.555 179.002 422.965C179.352 423.375 179.747 423.715 180.187 423.985L179.482 424.945C178.992 424.645 178.557 424.265 178.177 423.805C177.797 423.335 177.477 422.81 177.217 422.23C176.957 421.64 176.762 421.02 176.632 420.37C176.502 419.72 176.437 419.07 176.437 418.42V415.87ZM183.712 414.595H184.912V428.17H183.712V414.595ZM180.952 414.88H182.122V427.48H180.952V414.88ZM190.191 421.585H191.421V425.635H190.191V421.585ZM195.201 421.585H196.446V425.635H195.201V421.585ZM187.176 425.395H199.476V426.43H187.176V425.395ZM193.296 415.45C194.256 415.45 195.106 415.595 195.846 415.885C196.586 416.175 197.166 416.58 197.586 417.1C198.016 417.62 198.231 418.235 198.231 418.945C198.231 419.645 198.016 420.26 197.586 420.79C197.166 421.31 196.586 421.715 195.846 422.005C195.106 422.285 194.256 422.425 193.296 422.425C192.346 422.425 191.496 422.285 190.746 422.005C190.006 421.715 189.426 421.31 189.006 420.79C188.586 420.26 188.376 419.645 188.376 418.945C188.376 418.235 188.586 417.62 189.006 417.1C189.426 416.58 190.006 416.175 190.746 415.885C191.496 415.595 192.346 415.45 193.296 415.45ZM193.296 416.44C192.576 416.44 191.936 416.545 191.376 416.755C190.816 416.965 190.376 417.26 190.056 417.64C189.736 418.01 189.576 418.445 189.576 418.945C189.576 419.445 189.736 419.885 190.056 420.265C190.376 420.635 190.816 420.925 191.376 421.135C191.936 421.345 192.576 421.45 193.296 421.45C194.026 421.45 194.671 421.345 195.231 421.135C195.791 420.925 196.231 420.635 196.551 420.265C196.871 419.885 197.031 419.445 197.031 418.945C197.031 418.445 196.871 418.01 196.551 417.64C196.231 417.26 195.791 416.965 195.231 416.755C194.671 416.545 194.026 416.44 193.296 416.44Z" fill="#B0B8C1"/>
        <path d="M24 468H369" stroke="#F2F3F5"/>
        <path d="M24.533 502.349H35.44V503.766H24.533V502.349ZM25.365 494.146H34.543V495.537H25.365V494.146ZM25.43 499.138H34.504V500.516H25.43V499.138ZM27.003 495.433H28.732V499.268H27.003V495.433ZM31.176 495.433H32.905V499.268H31.176V495.433ZM36.492 502.427H47.399V503.831H36.492V502.427ZM41.068 500.139H42.784V502.986H41.068V500.139ZM37.727 493.886H46.164V497.903H39.456V499.918H37.74V496.551H44.448V495.264H37.727V493.886ZM37.74 499.242H46.437V500.62H37.74V499.242ZM56.745 493.119H58.487V499.281H56.745V493.119ZM50.336 499.762H58.487V503.012H52.065V504.455H50.349V501.764H56.758V501.088H50.336V499.762ZM50.349 503.727H58.812V505.079H50.349V503.727ZM48.958 493.834H55.445V495.173H48.958V493.834ZM48.828 499.073L48.659 497.695C49.361 497.695 50.1236 497.691 50.947 497.682C51.7703 497.665 52.6066 497.634 53.456 497.591C54.314 497.548 55.1286 497.478 55.9 497.383L55.991 498.605C55.1936 498.744 54.3746 498.843 53.534 498.904C52.702 498.965 51.883 499.008 51.077 499.034C50.271 499.051 49.5213 499.064 48.828 499.073ZM49.92 494.445H51.571V498.384H49.92V494.445ZM52.832 494.445H54.496V498.384H52.832V494.445ZM64.0037 494.185H69.7887V502.284H64.0037V494.185ZM68.0987 495.55H65.7067V500.919H68.0987V495.55ZM71.6737 493.093H73.4027V505.17H71.6737V493.093ZM83.6587 493.093H85.4007V505.17H83.6587V493.093ZM76.0277 500.958H77.0937C77.8044 500.958 78.4761 500.949 79.1087 500.932C79.7414 500.906 80.3611 500.867 80.9677 500.815C81.5744 500.754 82.1941 500.668 82.8267 500.555L83.0087 501.946C82.0381 502.119 81.0804 502.236 80.1357 502.297C79.1997 502.349 78.1857 502.375 77.0937 502.375H76.0277V500.958ZM76.0017 494.12H81.6827V498.787H77.7827V501.491H76.0277V497.422H79.9277V495.511H76.0017V494.12ZM87.3367 502.349H98.2437V503.753H87.3367V502.349ZM91.9127 499.775H93.6287V502.687H91.9127V499.775ZM88.4807 493.873H90.2097V495.732H95.3317V493.873H97.0477V500.139H88.4807V493.873ZM90.2097 497.084V498.761H95.3317V497.084H90.2097ZM107.59 493.106H109.319V505.144H107.59V493.106ZM104.041 494.354H105.744C105.744 495.273 105.653 496.152 105.471 496.993C105.297 497.825 105.003 498.609 104.587 499.346C104.179 500.083 103.616 500.767 102.897 501.4C102.186 502.024 101.298 502.596 100.232 503.116L99.3217 501.751C100.483 501.188 101.406 500.568 102.091 499.892C102.784 499.207 103.282 498.436 103.586 497.578C103.889 496.711 104.041 495.741 104.041 494.666V494.354ZM99.9717 494.354H104.847V495.732H99.9717V494.354Z" fill="#4E5968"/>
        <path d="M353 518H40C31.1634 518 24 525.163 24 534V582C24 590.837 31.1634 598 40 598H353C361.837 598 369 590.837 369 582V534C369 525.163 361.837 518 353 518Z" fill="#F7F8FA"/>
        <path d="M70 580C82.1503 580 92 570.15 92 558C92 545.85 82.1503 536 70 536C57.8497 536 48 545.85 48 558C48 570.15 57.8497 580 70 580Z" fill="#FFE8E8"/>
        <path opacity="0.25" d="M70 559C73.866 559 77 555.866 77 552C77 548.134 73.866 545 70 545C66.134 545 63 548.134 63 552C63 555.866 66.134 559 70 559Z" fill="#FF6B6B"/>
        <path opacity="0.12" d="M58 568C58 562 63.4 558 70 558C76.6 558 82 562 82 568" fill="#FF6B6B"/>
        <path d="M110.208 536.44H112.448C112.448 537.752 112.176 538.925 111.632 539.96C111.088 540.984 110.304 541.853 109.28 542.568C108.256 543.272 107.003 543.816 105.52 544.2L104.72 542.52C105.947 542.221 106.965 541.821 107.776 541.32C108.587 540.819 109.195 540.243 109.6 539.592C110.005 538.931 110.208 538.237 110.208 537.512V536.44ZM105.568 536.44H111.584V538.12H105.568V536.44ZM114.832 535.592H116.96V543.848H114.832V535.592ZM107.152 544.488H116.96V550.264H107.152V544.488ZM114.864 546.152H109.248V548.584H114.864V546.152ZM120.111 536.76H127.295V543.944H120.111V536.76ZM125.215 538.456H122.207V542.248H125.215V538.456ZM129.551 535.608H131.679V546.136H129.551V535.608ZM121.807 548.408H132.063V550.104H121.807V548.408ZM121.807 545.192H123.935V549.16H121.807V545.192ZM139.678 536.024H141.534V536.728C141.534 537.293 141.443 537.843 141.262 538.376C141.091 538.899 140.835 539.389 140.494 539.848C140.152 540.307 139.736 540.717 139.246 541.08C138.755 541.443 138.184 541.752 137.534 542.008C136.894 542.253 136.19 542.44 135.422 542.568L134.59 540.856C135.272 540.771 135.88 540.627 136.414 540.424C136.958 540.221 137.432 539.981 137.838 539.704C138.254 539.427 138.595 539.123 138.862 538.792C139.128 538.461 139.331 538.12 139.47 537.768C139.608 537.416 139.678 537.069 139.678 536.728V536.024ZM140.078 536.024H141.934V536.728C141.934 537.069 142.003 537.416 142.142 537.768C142.28 538.12 142.483 538.461 142.75 538.792C143.016 539.123 143.352 539.427 143.758 539.704C144.174 539.981 144.648 540.221 145.182 540.424C145.726 540.627 146.339 540.771 147.022 540.856L146.19 542.568C145.411 542.44 144.702 542.253 144.062 542.008C143.422 541.752 142.856 541.443 142.366 541.08C141.875 540.707 141.459 540.291 141.118 539.832C140.776 539.373 140.515 538.883 140.334 538.36C140.163 537.837 140.078 537.293 140.078 536.728V536.024ZM139.678 544.984H141.806V550.424H139.678V544.984ZM134.094 543.64H147.502V545.368H134.094V543.64Z" fill="#191F28"/>
        <path d="M107.51 559.86H108.394V561.056C108.394 561.81 108.26 562.512 107.991 563.162C107.731 563.812 107.358 564.38 106.873 564.865C106.388 565.342 105.82 565.706 105.17 565.957L104.585 565.099C105.183 564.882 105.699 564.57 106.132 564.163C106.574 563.756 106.912 563.288 107.146 562.759C107.389 562.222 107.51 561.654 107.51 561.056V559.86ZM107.705 559.86H108.576V561.147C108.576 561.537 108.645 561.923 108.784 562.304C108.923 562.677 109.118 563.023 109.369 563.344C109.629 563.665 109.932 563.951 110.279 564.202C110.626 564.445 111.011 564.64 111.436 564.787L110.864 565.632C110.24 565.398 109.69 565.06 109.213 564.618C108.736 564.167 108.364 563.647 108.095 563.058C107.835 562.46 107.705 561.823 107.705 561.147V559.86ZM112.697 559.249H113.776V566.386H112.697V559.249ZM113.477 562.291H115.505V563.201H113.477V562.291ZM110.032 566.698C110.829 566.698 111.514 566.785 112.086 566.958C112.667 567.123 113.113 567.365 113.425 567.686C113.737 568.007 113.893 568.392 113.893 568.843C113.893 569.294 113.737 569.679 113.425 570C113.113 570.321 112.667 570.563 112.086 570.728C111.514 570.901 110.829 570.988 110.032 570.988C109.235 570.988 108.546 570.901 107.965 570.728C107.384 570.563 106.938 570.321 106.626 570C106.314 569.679 106.158 569.294 106.158 568.843C106.158 568.392 106.314 568.007 106.626 567.686C106.938 567.365 107.384 567.123 107.965 566.958C108.546 566.785 109.235 566.698 110.032 566.698ZM110.032 567.556C109.451 567.556 108.949 567.608 108.524 567.712C108.108 567.816 107.787 567.963 107.562 568.154C107.337 568.345 107.224 568.574 107.224 568.843C107.224 569.12 107.337 569.354 107.562 569.545C107.787 569.736 108.108 569.883 108.524 569.987C108.949 570.082 109.451 570.13 110.032 570.13C110.613 570.13 111.111 570.082 111.527 569.987C111.943 569.883 112.264 569.736 112.489 569.545C112.714 569.354 112.827 569.12 112.827 568.843C112.827 568.574 112.714 568.345 112.489 568.154C112.264 567.963 111.943 567.816 111.527 567.712C111.111 567.608 110.613 567.556 110.032 567.556ZM117.077 567.205H117.831C118.455 567.205 119.005 567.201 119.482 567.192C119.959 567.175 120.405 567.144 120.821 567.101C121.246 567.049 121.679 566.984 122.121 566.906L122.225 567.803C121.774 567.881 121.332 567.946 120.899 567.998C120.466 568.041 120.002 568.072 119.508 568.089C119.023 568.106 118.464 568.115 117.831 568.115H117.077V567.205ZM117.077 560.601H121.705V561.485H118.104V567.543H117.077V560.601ZM117.792 563.708H121.523V564.566H117.792V563.708ZM125.566 559.249H126.606V571.014H125.566V559.249ZM123.694 563.968H125.956V564.852H123.694V563.968ZM122.979 559.496H124.006V570.416H122.979V559.496ZM132.64 560.614H137.125V567.855H132.64V560.614ZM136.111 561.472H133.654V566.997H136.111V561.472ZM141.181 559.249H142.221V571.014H141.181V559.249ZM136.592 563.682H139.296V564.566H136.592V563.682ZM138.841 559.496H139.868V570.416H138.841V559.496ZM147.277 560.263H148.174V562.369C148.174 563.045 148.088 563.704 147.914 564.345C147.75 564.978 147.511 565.571 147.199 566.126C146.896 566.672 146.536 567.157 146.12 567.582C145.713 567.998 145.267 568.327 144.781 568.57L144.118 567.673C144.56 567.474 144.972 567.188 145.353 566.815C145.735 566.442 146.068 566.022 146.354 565.554C146.64 565.077 146.866 564.566 147.03 564.02C147.195 563.474 147.277 562.924 147.277 562.369V560.263ZM147.459 560.263H148.356V562.369C148.356 562.906 148.434 563.435 148.59 563.955C148.755 564.475 148.98 564.969 149.266 565.437C149.561 565.896 149.895 566.304 150.267 566.659C150.649 567.006 151.056 567.279 151.489 567.478L150.839 568.336C150.363 568.111 149.921 567.794 149.513 567.387C149.106 566.98 148.746 566.512 148.434 565.983C148.131 565.454 147.893 564.882 147.719 564.267C147.546 563.652 147.459 563.019 147.459 562.369V560.263ZM152.724 559.249H153.803V571.027H152.724V559.249ZM159.249 560.939H160.133V562.837C160.133 563.461 160.047 564.076 159.873 564.683C159.7 565.281 159.457 565.849 159.145 566.386C158.842 566.915 158.487 567.383 158.079 567.79C157.672 568.197 157.234 568.518 156.766 568.752L156.142 567.894C156.567 567.686 156.966 567.404 157.338 567.049C157.72 566.694 158.053 566.286 158.339 565.827C158.625 565.368 158.846 564.882 159.002 564.371C159.167 563.86 159.249 563.348 159.249 562.837V560.939ZM159.47 560.939H160.341V562.837C160.341 563.331 160.419 563.825 160.575 564.319C160.74 564.804 160.965 565.264 161.251 565.697C161.546 566.122 161.88 566.499 162.252 566.828C162.634 567.157 163.041 567.417 163.474 567.608L162.876 568.466C162.4 568.241 161.953 567.937 161.537 567.556C161.121 567.175 160.757 566.737 160.445 566.243C160.142 565.74 159.904 565.203 159.73 564.631C159.557 564.05 159.47 563.452 159.47 562.837V560.939ZM156.519 560.458H163.084V561.355H156.519V560.458ZM164.683 559.249H165.762V571.014H164.683V559.249ZM173.096 566.152H174.11V567.608H176.164V566.152H177.165V570.858H173.096V566.152ZM174.11 568.427V570.013H176.164V568.427H174.11ZM179.44 566.074H180.285V567.062C180.285 567.591 180.194 568.111 180.012 568.622C179.83 569.125 179.557 569.58 179.193 569.987C178.838 570.394 178.392 570.715 177.854 570.949L177.308 570.13C177.776 569.931 178.171 569.666 178.491 569.337C178.812 569.008 179.05 568.644 179.206 568.245C179.362 567.846 179.44 567.452 179.44 567.062V566.074ZM179.674 566.074H180.506V567.062C180.506 567.478 180.584 567.89 180.74 568.297C180.905 568.696 181.148 569.055 181.468 569.376C181.789 569.697 182.183 569.948 182.651 570.13L182.092 570.949C181.546 570.724 181.096 570.412 180.74 570.013C180.385 569.614 180.116 569.159 179.934 568.648C179.761 568.137 179.674 567.608 179.674 567.062V566.074ZM177.659 562.005H180.818V562.902H177.659V562.005ZM174.968 559.769C175.549 559.769 176.065 559.886 176.515 560.12C176.975 560.345 177.334 560.662 177.594 561.069C177.854 561.468 177.984 561.936 177.984 562.473C177.984 563.002 177.854 563.474 177.594 563.89C177.334 564.297 176.975 564.618 176.515 564.852C176.065 565.077 175.549 565.19 174.968 565.19C174.379 565.19 173.855 565.077 173.395 564.852C172.945 564.618 172.589 564.297 172.329 563.89C172.069 563.474 171.939 563.002 171.939 562.473C171.939 561.936 172.069 561.468 172.329 561.069C172.589 560.662 172.945 560.345 173.395 560.12C173.855 559.886 174.379 559.769 174.968 559.769ZM174.968 560.666C174.578 560.666 174.232 560.744 173.928 560.9C173.634 561.047 173.4 561.26 173.226 561.537C173.053 561.806 172.966 562.118 172.966 562.473C172.966 562.828 173.053 563.145 173.226 563.422C173.4 563.691 173.634 563.903 173.928 564.059C174.232 564.215 174.578 564.293 174.968 564.293C175.35 564.293 175.688 564.215 175.982 564.059C176.286 563.903 176.524 563.691 176.697 563.422C176.871 563.145 176.957 562.828 176.957 562.473C176.957 562.118 176.871 561.806 176.697 561.537C176.524 561.26 176.286 561.047 175.982 560.9C175.688 560.744 175.35 560.666 174.968 560.666ZM180.35 559.249H181.429V565.476H180.35V559.249ZM189.02 559.509C189.87 559.509 190.602 559.6 191.217 559.782C191.841 559.955 192.318 560.207 192.647 560.536C192.985 560.865 193.154 561.268 193.154 561.745C193.154 562.204 192.985 562.603 192.647 562.941C192.318 563.27 191.841 563.522 191.217 563.695C190.602 563.868 189.87 563.955 189.02 563.955C188.18 563.955 187.447 563.868 186.823 563.695C186.208 563.522 185.731 563.27 185.393 562.941C185.055 562.603 184.886 562.204 184.886 561.745C184.886 561.268 185.055 560.865 185.393 560.536C185.731 560.207 186.208 559.955 186.823 559.782C187.447 559.6 188.18 559.509 189.02 559.509ZM189.02 560.367C188.405 560.367 187.868 560.423 187.408 560.536C186.958 560.64 186.607 560.796 186.355 561.004C186.113 561.203 185.991 561.45 185.991 561.745C185.991 562.022 186.113 562.265 186.355 562.473C186.607 562.672 186.958 562.828 187.408 562.941C187.868 563.045 188.405 563.097 189.02 563.097C189.644 563.097 190.182 563.045 190.632 562.941C191.092 562.828 191.443 562.672 191.685 562.473C191.928 562.265 192.049 562.022 192.049 561.745C192.049 561.45 191.928 561.203 191.685 561.004C191.443 560.796 191.092 560.64 190.632 560.536C190.182 560.423 189.644 560.367 189.02 560.367ZM185.016 566.984H193.037V570.858H185.016V566.984ZM191.984 567.855H186.069V569.974H191.984V567.855ZM183.716 564.956H194.337V565.84H183.716V564.956Z" fill="#8B95A1"/>
        <path d="M29.967 624.783H33.516V626.174H29.967V624.783ZM29.967 627.708H33.516V629.099H29.967V627.708ZM32.866 623.119H34.608V631.92H32.866V623.119ZM26.652 633.558H34.881V634.949H26.652V633.558ZM26.652 631.062H28.381V634.286H26.652V631.062ZM27.848 623.834C28.446 623.834 28.9833 623.968 29.46 624.237C29.9453 624.497 30.3267 624.861 30.604 625.329C30.89 625.797 31.033 626.334 31.033 626.941C31.033 627.539 30.89 628.076 30.604 628.553C30.3267 629.021 29.9453 629.389 29.46 629.658C28.9833 629.927 28.446 630.061 27.848 630.061C27.2587 630.061 26.7213 629.927 26.236 629.658C25.7593 629.389 25.378 629.021 25.092 628.553C24.8147 628.076 24.676 627.539 24.676 626.941C24.676 626.334 24.8147 625.797 25.092 625.329C25.378 624.861 25.7593 624.497 26.236 624.237C26.7213 623.968 27.2587 623.834 27.848 623.834ZM27.848 625.342C27.562 625.342 27.302 625.407 27.068 625.537C26.834 625.667 26.6477 625.853 26.509 626.096C26.379 626.33 26.314 626.612 26.314 626.941C26.314 627.279 26.379 627.569 26.509 627.812C26.6477 628.046 26.834 628.228 27.068 628.358C27.302 628.479 27.562 628.54 27.848 628.54C28.1427 628.54 28.4027 628.479 28.628 628.358C28.862 628.228 29.044 628.046 29.174 627.812C29.3127 627.569 29.382 627.279 29.382 626.941C29.382 626.612 29.3127 626.33 29.174 626.096C29.044 625.853 28.862 625.667 28.628 625.537C28.4027 625.407 28.1427 625.342 27.848 625.342ZM36.505 628.774H47.386V630.139H36.505V628.774ZM41.081 626.967H42.81V629.307H41.081V626.967ZM37.818 626.421H46.151V627.773H37.818V626.421ZM37.818 623.626H46.086V624.991H39.534V627.279H37.818V623.626ZM41.9 630.737C43.2 630.737 44.2227 630.932 44.968 631.322C45.7133 631.703 46.086 632.249 46.086 632.96C46.086 633.662 45.7133 634.204 44.968 634.585C44.2227 634.975 43.2 635.17 41.9 635.17C40.6 635.17 39.5773 634.975 38.832 634.585C38.0953 634.204 37.727 633.662 37.727 632.96C37.727 632.249 38.0953 631.703 38.832 631.322C39.5773 630.932 40.6 630.737 41.9 630.737ZM41.9 632.05C41.3627 632.05 40.912 632.085 40.548 632.154C40.1927 632.215 39.924 632.314 39.742 632.453C39.56 632.583 39.469 632.748 39.469 632.947C39.469 633.155 39.56 633.328 39.742 633.467C39.924 633.597 40.1927 633.697 40.548 633.766C40.912 633.827 41.3627 633.857 41.9 633.857C42.4373 633.857 42.8837 633.827 43.239 633.766C43.603 633.697 43.876 633.597 44.058 633.467C44.24 633.328 44.331 633.155 44.331 632.947C44.331 632.748 44.24 632.583 44.058 632.453C43.876 632.314 43.603 632.215 43.239 632.154C42.8837 632.085 42.4373 632.05 41.9 632.05ZM56.1008 626.291H58.5318V627.656H56.1008V626.291ZM56.0358 629.294H58.4928V630.672H56.0358V629.294ZM60.1698 623.106H61.8208V635.144H60.1698V623.106ZM57.6998 623.366H59.3118V634.611H57.6998V623.366ZM54.9828 624.523H56.6338C56.6338 625.667 56.4994 626.733 56.2308 627.721C55.9708 628.7 55.5201 629.602 54.8788 630.425C54.2461 631.248 53.3708 631.989 52.2528 632.648L51.2778 631.439C52.1878 630.893 52.9114 630.299 53.4488 629.658C53.9948 629.008 54.3848 628.293 54.6188 627.513C54.8614 626.724 54.9828 625.845 54.9828 624.874V624.523ZM51.9668 624.523H55.5548V625.914H51.9668V624.523ZM69.9447 626.018H72.2327V627.422H69.9447V626.018ZM71.7517 623.119H73.4937V630.269H71.7517V623.119ZM69.4117 630.529C70.2611 630.529 70.9934 630.62 71.6087 630.802C72.2241 630.984 72.6964 631.248 73.0257 631.595C73.3637 631.942 73.5327 632.358 73.5327 632.843C73.5327 633.588 73.1644 634.16 72.4277 634.559C71.6911 634.966 70.6857 635.17 69.4117 635.17C68.1377 635.17 67.1324 634.966 66.3957 634.559C65.6591 634.16 65.2907 633.588 65.2907 632.843C65.2907 632.358 65.4554 631.942 65.7847 631.595C66.1227 631.248 66.5994 630.984 67.2147 630.802C67.8301 630.62 68.5624 630.529 69.4117 630.529ZM69.4117 631.842C68.8917 631.842 68.4541 631.881 68.0987 631.959C67.7434 632.028 67.4704 632.137 67.2797 632.284C67.0977 632.431 67.0067 632.618 67.0067 632.843C67.0067 633.068 67.0977 633.259 67.2797 633.415C67.4704 633.562 67.7434 633.675 68.0987 633.753C68.4541 633.822 68.8917 633.857 69.4117 633.857C69.9317 633.857 70.3694 633.822 70.7247 633.753C71.0801 633.675 71.3487 633.562 71.5307 633.415C71.7127 633.259 71.8037 633.068 71.8037 632.843C71.8037 632.618 71.7127 632.431 71.5307 632.284C71.3487 632.137 71.0801 632.028 70.7247 631.959C70.3694 631.881 69.9317 631.842 69.4117 631.842ZM66.2007 624.315H67.6047V625.082C67.6047 625.845 67.4834 626.573 67.2407 627.266C66.9981 627.959 66.6254 628.57 66.1227 629.099C65.6287 629.619 64.9961 630.009 64.2247 630.269L63.3537 628.904C63.8477 628.739 64.2724 628.518 64.6277 628.241C64.9917 627.964 65.2864 627.656 65.5117 627.318C65.7457 626.971 65.9191 626.607 66.0317 626.226C66.1444 625.845 66.2007 625.463 66.2007 625.082V624.315ZM66.5647 624.315H67.9427V625.069C67.9427 625.546 68.0381 626.014 68.2287 626.473C68.4194 626.932 68.7141 627.348 69.1127 627.721C69.5201 628.094 70.0401 628.388 70.6727 628.605L69.8277 629.957C69.0824 629.706 68.4671 629.337 67.9817 628.852C67.5051 628.358 67.1497 627.786 66.9157 627.136C66.6817 626.477 66.5647 625.788 66.5647 625.069V624.315ZM63.8217 623.847H70.2957V625.212H63.8217V623.847Z" fill="#4E5968"/>
        <path d="M357 648H36C29.3726 648 24 653.373 24 660V684C24 690.627 29.3726 696 36 696H357C363.627 696 369 690.627 369 684V660C369 653.373 363.627 648 357 648Z" fill="#F7F8FA"/>
        <path d="M64 686C71.732 686 78 679.732 78 672C78 664.268 71.732 658 64 658C56.268 658 50 664.268 50 672C50 679.732 56.268 686 64 686Z" fill="#FEE500"/>
        <path d="M60.6218 677V668.273H62.467V672.121H62.582L65.7227 668.273H67.9343L64.6957 672.18L67.9727 677H65.7653L63.3746 673.412L62.467 674.52V677H60.6218Z" fill="#3C1E1E"/>
        <path d="M94.076 665.738H95.21C95.21 666.653 95.1213 667.549 94.944 668.426C94.7667 669.294 94.4633 670.125 94.034 670.918C93.6047 671.702 93.0167 672.439 92.27 673.13C91.5233 673.821 90.5853 674.446 89.456 675.006L88.812 674.11C89.82 673.615 90.66 673.069 91.332 672.472C92.004 671.875 92.5407 671.231 92.942 670.54C93.3433 669.849 93.6327 669.112 93.81 668.328C93.9873 667.544 94.076 666.723 94.076 665.864V665.738ZM89.512 665.738H94.776V666.69H89.512V665.738ZM93.908 668.874V669.784L89.05 670.246L88.868 669.224L93.908 668.874ZM97.268 664.422H98.43V677.078H97.268V664.422ZM98.122 669.56H100.446V670.526H98.122V669.56ZM106.955 665.738H108.089C108.089 666.653 108 667.549 107.823 668.426C107.646 669.294 107.342 670.125 106.913 670.918C106.484 671.702 105.896 672.439 105.149 673.13C104.402 673.821 103.464 674.446 102.335 675.006L101.691 674.11C102.699 673.615 103.539 673.069 104.211 672.472C104.883 671.875 105.42 671.231 105.821 670.54C106.222 669.849 106.512 669.112 106.689 668.328C106.866 667.544 106.955 666.723 106.955 665.864V665.738ZM102.391 665.738H107.655V666.69H102.391V665.738ZM106.787 668.874V669.784L101.929 670.246L101.747 669.224L106.787 668.874ZM110.147 664.422H111.309V677.078H110.147V664.422ZM111.001 669.56H113.325V670.526H111.001V669.56ZM119.596 671.576H120.744V674.726H119.596V671.576ZM120.17 665.248C121.066 665.248 121.859 665.388 122.55 665.668C123.24 665.939 123.782 666.321 124.174 666.816C124.575 667.311 124.776 667.894 124.776 668.566C124.776 669.238 124.575 669.826 124.174 670.33C123.782 670.825 123.24 671.207 122.55 671.478C121.859 671.749 121.066 671.884 120.17 671.884C119.283 671.884 118.49 671.749 117.79 671.478C117.099 671.207 116.558 670.825 116.166 670.33C115.774 669.826 115.578 669.238 115.578 668.566C115.578 667.894 115.774 667.311 116.166 666.816C116.558 666.321 117.099 665.939 117.79 665.668C118.49 665.388 119.283 665.248 120.17 665.248ZM120.17 666.186C119.498 666.186 118.9 666.284 118.378 666.48C117.855 666.676 117.444 666.956 117.146 667.32C116.847 667.675 116.698 668.09 116.698 668.566C116.698 669.042 116.847 669.462 117.146 669.826C117.444 670.19 117.855 670.47 118.378 670.666C118.9 670.862 119.498 670.96 120.17 670.96C120.842 670.96 121.439 670.862 121.962 670.666C122.484 670.47 122.895 670.19 123.194 669.826C123.502 669.462 123.656 669.042 123.656 668.566C123.656 668.09 123.502 667.675 123.194 667.32C122.895 666.956 122.484 666.676 121.962 666.48C121.439 666.284 120.842 666.186 120.17 666.186ZM114.458 674.502H125.938V675.468H114.458V674.502ZM136.188 667.936H138.988V668.888H136.188V667.936ZM136.09 671.114H138.96V672.066H136.09V671.114ZM140.92 664.422H142.04V677.092H140.92V664.422ZM138.372 664.758H139.478V676.448H138.372V664.758ZM135.558 666.032H136.678C136.678 667.133 136.52 668.193 136.202 669.21C135.885 670.218 135.376 671.161 134.676 672.038C133.986 672.906 133.076 673.681 131.946 674.362L131.26 673.522C132.25 672.925 133.062 672.253 133.696 671.506C134.331 670.75 134.798 669.933 135.096 669.056C135.404 668.169 135.558 667.231 135.558 666.242V666.032ZM131.82 666.032H136.006V666.984H131.82V666.032ZM150.915 667.712H153.757V668.678H150.915V667.712ZM153.407 664.422H154.569V671.968H153.407V664.422ZM150.397 672.36C151.274 672.36 152.026 672.453 152.651 672.64C153.286 672.827 153.771 673.097 154.107 673.452C154.443 673.797 154.611 674.222 154.611 674.726C154.611 675.473 154.233 676.051 153.477 676.462C152.73 676.873 151.704 677.078 150.397 677.078C149.09 677.078 148.059 676.873 147.303 676.462C146.556 676.051 146.183 675.473 146.183 674.726C146.183 674.222 146.351 673.797 146.687 673.452C147.032 673.097 147.518 672.827 148.143 672.64C148.778 672.453 149.529 672.36 150.397 672.36ZM150.397 673.27C149.762 673.27 149.216 673.326 148.759 673.438C148.302 673.55 147.947 673.713 147.695 673.928C147.452 674.143 147.331 674.409 147.331 674.726C147.331 675.025 147.452 675.281 147.695 675.496C147.947 675.711 148.302 675.879 148.759 676C149.216 676.112 149.762 676.168 150.397 676.168C151.041 676.168 151.587 676.112 152.035 676C152.492 675.879 152.842 675.711 153.085 675.496C153.337 675.281 153.463 675.025 153.463 674.726C153.463 674.409 153.337 674.143 153.085 673.928C152.842 673.713 152.492 673.55 152.035 673.438C151.587 673.326 151.041 673.27 150.397 673.27ZM147.373 665.71H148.325V666.732C148.325 667.507 148.176 668.235 147.877 668.916C147.588 669.588 147.177 670.181 146.645 670.694C146.113 671.198 145.497 671.585 144.797 671.856L144.195 670.932C144.671 670.764 145.1 670.535 145.483 670.246C145.875 669.957 146.211 669.625 146.491 669.252C146.78 668.879 147 668.477 147.149 668.048C147.298 667.619 147.373 667.18 147.373 666.732V665.71ZM147.597 665.71H148.549V666.718C148.549 667.259 148.675 667.787 148.927 668.3C149.179 668.813 149.538 669.266 150.005 669.658C150.472 670.05 151.008 670.358 151.615 670.582L151.027 671.506C150.336 671.254 149.734 670.89 149.221 670.414C148.708 669.929 148.306 669.369 148.017 668.734C147.737 668.099 147.597 667.427 147.597 666.718V665.71ZM144.559 665.346H151.321V666.298H144.559V665.346ZM162.744 665.234C163.631 665.234 164.419 665.379 165.11 665.668C165.801 665.957 166.347 666.363 166.748 666.886C167.149 667.409 167.35 668.02 167.35 668.72C167.35 669.429 167.149 670.045 166.748 670.568C166.347 671.091 165.801 671.497 165.11 671.786C164.419 672.075 163.631 672.22 162.744 672.22C161.876 672.22 161.092 672.075 160.392 671.786C159.701 671.497 159.155 671.091 158.754 670.568C158.353 670.045 158.152 669.429 158.152 668.72C158.152 668.02 158.353 667.409 158.754 666.886C159.155 666.363 159.701 665.957 160.392 665.668C161.092 665.379 161.876 665.234 162.744 665.234ZM162.744 666.172C162.081 666.172 161.489 666.279 160.966 666.494C160.443 666.709 160.028 667.007 159.72 667.39C159.412 667.763 159.258 668.207 159.258 668.72C159.258 669.224 159.412 669.667 159.72 670.05C160.028 670.433 160.443 670.731 160.966 670.946C161.489 671.161 162.081 671.268 162.744 671.268C163.416 671.268 164.013 671.161 164.536 670.946C165.059 670.731 165.469 670.433 165.768 670.05C166.076 669.667 166.23 669.224 166.23 668.72C166.23 668.207 166.076 667.763 165.768 667.39C165.469 667.007 165.059 666.709 164.536 666.494C164.013 666.279 163.416 666.172 162.744 666.172ZM157.032 674.446H168.512V675.412H157.032V674.446ZM169.911 674.558H181.391V675.524H169.911V674.558ZM175.049 671.856H176.197V674.964H175.049V671.856ZM171.311 665.36H179.963V669.196H172.487V671.73H171.339V668.272H178.815V666.312H171.311V665.36ZM171.339 671.24H180.257V672.192H171.339V671.24ZM186.727 674.558H198.207V675.524H186.727V674.558ZM191.865 671.856H193.013V674.964H191.865V671.856ZM188.127 665.36H196.779V669.196H189.303V671.73H188.155V668.272H195.631V666.312H188.127V665.36ZM188.155 671.24H197.073V672.192H188.155V671.24ZM200.852 665.766H209V666.718H200.852V665.766ZM199.606 674.278H211.044V675.244H199.606V674.278ZM208.37 665.766H209.518V667.04C209.518 667.572 209.509 668.141 209.49 668.748C209.481 669.345 209.444 670.008 209.378 670.736C209.313 671.464 209.201 672.285 209.042 673.2L207.866 673.074C208.034 672.215 208.151 671.427 208.216 670.708C208.291 669.989 208.333 669.327 208.342 668.72C208.361 668.113 208.37 667.553 208.37 667.04V665.766ZM221.697 664.436H222.859V673.676H221.697V664.436ZM214.725 675.86H223.251V676.812H214.725V675.86ZM214.725 672.738H215.887V676.182H214.725V672.738ZM216.069 665.318C216.704 665.318 217.268 665.449 217.763 665.71C218.258 665.971 218.65 666.34 218.939 666.816C219.228 667.283 219.373 667.819 219.373 668.426C219.373 669.033 219.228 669.574 218.939 670.05C218.65 670.517 218.258 670.885 217.763 671.156C217.268 671.417 216.704 671.548 216.069 671.548C215.444 671.548 214.879 671.417 214.375 671.156C213.88 670.885 213.488 670.517 213.199 670.05C212.91 669.574 212.765 669.033 212.765 668.426C212.765 667.819 212.91 667.283 213.199 666.816C213.488 666.34 213.88 665.971 214.375 665.71C214.879 665.449 215.444 665.318 216.069 665.318ZM216.069 666.326C215.658 666.326 215.29 666.415 214.963 666.592C214.636 666.769 214.375 667.017 214.179 667.334C213.992 667.651 213.899 668.015 213.899 668.426C213.899 668.846 213.992 669.215 214.179 669.532C214.375 669.84 214.636 670.083 214.963 670.26C215.29 670.437 215.658 670.526 216.069 670.526C216.48 670.526 216.848 670.437 217.175 670.26C217.511 670.083 217.772 669.84 217.959 669.532C218.146 669.215 218.239 668.846 218.239 668.426C218.239 668.015 218.146 667.651 217.959 667.334C217.772 667.017 217.511 666.769 217.175 666.592C216.848 666.415 216.48 666.326 216.069 666.326ZM228.99 668.79H230.166V671.002H228.99V668.79ZM234.59 664.436H235.738V672.122H234.59V664.436ZM225.588 671.59L225.448 670.666C226.223 670.666 227.067 670.661 227.982 670.652C228.906 670.633 229.844 670.596 230.796 670.54C231.757 670.484 232.686 670.391 233.582 670.26L233.652 671.086C232.737 671.245 231.804 671.361 230.852 671.436C229.9 671.501 228.976 671.543 228.08 671.562C227.184 671.581 226.353 671.59 225.588 671.59ZM227.464 672.752H235.738V676.924H227.464V672.752ZM234.618 673.69H228.598V675.972H234.618V673.69ZM226.554 668.174H232.742V669.126H226.554V668.174ZM226.554 665.122H232.644V666.074H227.716V668.622H226.554V665.122Z" fill="#191F28"/>
        <path d="M156.629 834.545C156.587 834.186 156.414 833.906 156.111 833.707C155.808 833.509 155.436 833.409 154.996 833.409C154.674 833.409 154.392 833.461 154.151 833.565C153.912 833.67 153.725 833.813 153.59 833.995C153.457 834.177 153.391 834.384 153.391 834.616C153.391 834.811 153.437 834.978 153.529 835.117C153.624 835.254 153.745 835.369 153.892 835.462C154.038 835.552 154.192 835.626 154.353 835.685C154.514 835.742 154.662 835.788 154.797 835.824L155.536 836.023C155.725 836.072 155.936 836.141 156.168 836.229C156.402 836.316 156.626 836.436 156.839 836.587C157.054 836.737 157.232 836.928 157.372 837.163C157.511 837.397 157.581 837.685 157.581 838.026C157.581 838.419 157.478 838.774 157.272 839.091C157.069 839.408 156.77 839.66 156.377 839.847C155.987 840.034 155.512 840.128 154.953 840.128C154.432 840.128 153.981 840.044 153.6 839.876C153.222 839.708 152.923 839.473 152.705 839.173C152.49 838.872 152.368 838.523 152.34 838.125H153.249C153.272 838.4 153.365 838.627 153.526 838.807C153.689 838.984 153.895 839.117 154.144 839.205C154.395 839.29 154.664 839.332 154.953 839.332C155.289 839.332 155.591 839.278 155.859 839.169C156.126 839.058 156.338 838.904 156.494 838.707C156.651 838.509 156.729 838.277 156.729 838.011C156.729 837.77 156.661 837.573 156.526 837.422C156.392 837.27 156.214 837.147 155.994 837.053C155.774 836.958 155.536 836.875 155.28 836.804L154.385 836.548C153.817 836.385 153.367 836.152 153.036 835.849C152.704 835.546 152.539 835.149 152.539 834.659C152.539 834.252 152.649 833.897 152.869 833.594C153.091 833.288 153.39 833.052 153.764 832.884C154.14 832.713 154.56 832.628 155.024 832.628C155.493 832.628 155.91 832.712 156.274 832.88C156.639 833.046 156.928 833.273 157.141 833.562C157.356 833.851 157.47 834.179 157.482 834.545H156.629ZM161.231 840.099C160.743 840.099 160.312 840.013 159.938 839.84C159.567 839.665 159.277 839.425 159.068 839.119C158.86 838.812 158.757 838.461 158.759 838.068C158.757 837.76 158.817 837.476 158.94 837.216C159.063 836.953 159.232 836.734 159.445 836.559C159.66 836.381 159.9 836.269 160.165 836.222V836.179C159.817 836.089 159.54 835.894 159.335 835.593C159.129 835.29 159.027 834.946 159.029 834.56C159.027 834.19 159.12 833.86 159.31 833.569C159.499 833.278 159.759 833.048 160.091 832.88C160.425 832.712 160.805 832.628 161.231 832.628C161.652 832.628 162.029 832.712 162.36 832.88C162.692 833.048 162.952 833.278 163.141 833.569C163.333 833.86 163.43 834.19 163.433 834.56C163.43 834.946 163.325 835.29 163.116 835.593C162.911 835.894 162.637 836.089 162.296 836.179V836.222C162.559 836.269 162.796 836.381 163.006 836.559C163.217 836.734 163.385 836.953 163.511 837.216C163.636 837.476 163.7 837.76 163.702 838.068C163.7 838.461 163.594 838.812 163.383 839.119C163.174 839.425 162.884 839.665 162.513 839.84C162.143 840.013 161.716 840.099 161.231 840.099ZM161.231 839.318C161.56 839.318 161.844 839.265 162.083 839.158C162.322 839.052 162.507 838.902 162.637 838.707C162.767 838.513 162.834 838.286 162.836 838.026C162.834 837.751 162.763 837.508 162.623 837.298C162.483 837.087 162.293 836.921 162.051 836.8C161.812 836.68 161.539 836.619 161.231 836.619C160.921 836.619 160.644 836.68 160.4 836.8C160.158 836.921 159.968 837.087 159.828 837.298C159.691 837.508 159.623 837.751 159.626 838.026C159.623 838.286 159.686 838.513 159.814 838.707C159.944 838.902 160.13 839.052 160.371 839.158C160.613 839.265 160.899 839.318 161.231 839.318ZM161.231 835.866C161.491 835.866 161.722 835.814 161.923 835.71C162.127 835.606 162.287 835.46 162.403 835.273C162.519 835.086 162.578 834.867 162.58 834.616C162.578 834.37 162.52 834.156 162.406 833.974C162.293 833.789 162.135 833.647 161.934 833.548C161.733 833.446 161.498 833.395 161.231 833.395C160.959 833.395 160.721 833.446 160.517 833.548C160.313 833.647 160.156 833.789 160.045 833.974C159.933 834.156 159.879 834.37 159.881 834.616C159.879 834.867 159.935 835.086 160.048 835.273C160.164 835.46 160.324 835.606 160.528 835.71C160.731 835.814 160.966 835.866 161.231 835.866ZM168.203 835.973V836.754H165.021V835.973H168.203ZM172.22 832.727V840H171.339V833.651H171.297L169.521 834.83V833.935L171.339 832.727H172.22ZM186.371 835.973V836.754H176.371V835.973H186.371ZM190.064 840V832.727H194.453V833.509H190.945V835.966H194.226V836.747H190.945V839.219H194.51V840H190.064ZM197.987 840.114C197.532 840.114 197.131 839.999 196.783 839.769C196.435 839.537 196.163 839.21 195.966 838.789C195.77 838.365 195.672 837.865 195.672 837.287C195.672 836.714 195.77 836.217 195.966 835.795C196.163 835.374 196.436 835.049 196.787 834.819C197.137 834.589 197.542 834.474 198.001 834.474C198.356 834.474 198.637 834.534 198.843 834.652C199.051 834.768 199.21 834.901 199.319 835.05C199.43 835.196 199.516 835.317 199.578 835.412H199.649V832.727H200.487V840H199.677V839.162H199.578C199.516 839.261 199.429 839.387 199.315 839.538C199.201 839.687 199.039 839.821 198.828 839.94C198.618 840.056 198.337 840.114 197.987 840.114ZM198.1 839.361C198.437 839.361 198.721 839.273 198.953 839.098C199.185 838.92 199.361 838.675 199.482 838.363C199.603 838.048 199.663 837.685 199.663 837.273C199.663 836.866 199.604 836.509 199.485 836.204C199.367 835.896 199.192 835.657 198.96 835.487C198.728 835.314 198.441 835.227 198.1 835.227C197.745 835.227 197.449 835.318 197.213 835.501C196.978 835.681 196.802 835.926 196.684 836.236C196.568 836.544 196.51 836.889 196.51 837.273C196.51 837.661 196.569 838.014 196.687 838.331C196.808 838.646 196.985 838.897 197.22 839.084C197.457 839.268 197.75 839.361 198.1 839.361ZM202.138 840V834.545H202.976V840H202.138ZM202.564 833.636C202.401 833.636 202.26 833.581 202.142 833.469C202.026 833.358 201.968 833.224 201.968 833.068C201.968 832.912 202.026 832.778 202.142 832.667C202.26 832.556 202.401 832.5 202.564 832.5C202.728 832.5 202.867 832.556 202.983 832.667C203.102 832.778 203.161 832.912 203.161 833.068C203.161 833.224 203.102 833.358 202.983 833.469C202.867 833.581 202.728 833.636 202.564 833.636ZM206.883 834.545V835.256H204.057V834.545H206.883ZM204.881 833.239H205.719V838.438C205.719 838.674 205.753 838.852 205.822 838.97C205.893 839.086 205.983 839.164 206.091 839.205C206.203 839.242 206.32 839.261 206.443 839.261C206.535 839.261 206.611 839.257 206.67 839.247C206.729 839.235 206.777 839.226 206.812 839.219L206.983 839.972C206.926 839.993 206.847 840.014 206.745 840.036C206.643 840.059 206.514 840.071 206.358 840.071C206.121 840.071 205.889 840.02 205.662 839.918C205.437 839.817 205.25 839.661 205.101 839.453C204.954 839.245 204.881 838.982 204.881 838.665V833.239ZM211.07 840V832.727H213.528C214.098 832.727 214.564 832.83 214.927 833.036C215.291 833.24 215.561 833.516 215.736 833.864C215.912 834.212 215.999 834.6 215.999 835.028C215.999 835.457 215.912 835.846 215.736 836.197C215.564 836.547 215.296 836.826 214.934 837.035C214.572 837.241 214.108 837.344 213.542 837.344H211.78V836.562H213.513C213.904 836.562 214.218 836.495 214.454 836.36C214.691 836.225 214.863 836.043 214.969 835.813C215.078 835.581 215.133 835.32 215.133 835.028C215.133 834.737 215.078 834.477 214.969 834.247C214.863 834.018 214.69 833.838 214.451 833.707C214.212 833.575 213.894 833.509 213.499 833.509H211.951V840H211.07ZM217.304 840V834.545H218.114V835.369H218.171C218.27 835.099 218.45 834.88 218.71 834.712C218.971 834.544 219.264 834.46 219.591 834.46C219.653 834.46 219.73 834.461 219.822 834.464C219.914 834.466 219.984 834.47 220.031 834.474V835.327C220.003 835.32 219.938 835.309 219.836 835.295C219.737 835.278 219.631 835.27 219.52 835.27C219.255 835.27 219.018 835.326 218.81 835.437C218.604 835.546 218.441 835.697 218.32 835.891C218.201 836.083 218.142 836.302 218.142 836.548V840H217.304ZM223.075 840.114C222.582 840.114 222.15 839.996 221.779 839.762C221.409 839.528 221.12 839.2 220.912 838.778C220.706 838.357 220.603 837.865 220.603 837.301C220.603 836.733 220.706 836.237 220.912 835.813C221.12 835.389 221.409 835.06 221.779 834.826C222.15 834.592 222.582 834.474 223.075 834.474C223.567 834.474 223.998 834.592 224.367 834.826C224.739 835.06 225.028 835.389 225.234 835.813C225.442 836.237 225.546 836.733 225.546 837.301C225.546 837.865 225.442 838.357 225.234 838.778C225.028 839.2 224.739 839.528 224.367 839.762C223.998 839.996 223.567 840.114 223.075 840.114ZM223.075 839.361C223.449 839.361 223.757 839.265 223.998 839.073C224.24 838.881 224.418 838.629 224.534 838.317C224.65 838.004 224.708 837.666 224.708 837.301C224.708 836.937 224.65 836.597 224.534 836.282C224.418 835.967 224.24 835.713 223.998 835.518C223.757 835.324 223.449 835.227 223.075 835.227C222.701 835.227 222.393 835.324 222.151 835.518C221.91 835.713 221.731 835.967 221.615 836.282C221.499 836.597 221.441 836.937 221.441 837.301C221.441 837.666 221.499 838.004 221.615 838.317C221.731 838.629 221.91 838.881 222.151 839.073C222.393 839.265 222.701 839.361 223.075 839.361ZM229.255 834.545V835.256H226.314V834.545H229.255ZM227.195 840V833.793C227.195 833.48 227.268 833.22 227.415 833.011C227.562 832.803 227.752 832.647 227.987 832.543C228.221 832.438 228.469 832.386 228.729 832.386C228.935 832.386 229.103 832.403 229.233 832.436C229.364 832.469 229.461 832.5 229.525 832.528L229.283 833.253C229.24 833.239 229.181 833.221 229.105 833.2C229.032 833.178 228.935 833.168 228.814 833.168C228.537 833.168 228.337 833.237 228.214 833.377C228.093 833.517 228.033 833.722 228.033 833.991V840H227.195ZM230.429 840V834.545H231.267V840H230.429ZM230.855 833.636C230.692 833.636 230.551 833.581 230.433 833.469C230.317 833.358 230.259 833.224 230.259 833.068C230.259 832.912 230.317 832.778 230.433 832.667C230.551 832.556 230.692 832.5 230.855 832.5C231.019 832.5 231.158 832.556 231.274 832.667C231.393 832.778 231.452 832.912 231.452 833.068C231.452 833.224 231.393 833.358 231.274 833.469C231.158 833.581 231.019 833.636 230.855 833.636ZM233.64 832.727V840H232.802V832.727H233.64ZM237.462 840.114C236.937 840.114 236.483 839.998 236.102 839.766C235.723 839.531 235.431 839.205 235.225 838.786C235.021 838.364 234.92 837.874 234.92 837.315C234.92 836.757 235.021 836.264 235.225 835.838C235.431 835.41 235.717 835.076 236.084 834.837C236.454 834.595 236.885 834.474 237.377 834.474C237.661 834.474 237.942 834.522 238.219 834.616C238.496 834.711 238.748 834.865 238.975 835.078C239.202 835.289 239.383 835.568 239.518 835.916C239.653 836.264 239.721 836.693 239.721 837.202V837.557H235.516V836.832H238.868C238.868 836.525 238.807 836.25 238.684 836.009C238.563 835.767 238.39 835.576 238.165 835.437C237.943 835.297 237.68 835.227 237.377 835.227C237.043 835.227 236.754 835.31 236.51 835.476C236.269 835.639 236.083 835.852 235.953 836.115C235.823 836.378 235.758 836.66 235.758 836.96V837.443C235.758 837.855 235.829 838.204 235.971 838.491C236.115 838.775 236.315 838.991 236.571 839.141C236.827 839.287 237.124 839.361 237.462 839.361C237.682 839.361 237.881 839.33 238.059 839.268C238.239 839.205 238.394 839.11 238.524 838.984C238.654 838.857 238.755 838.698 238.826 838.509L239.635 838.736C239.55 839.01 239.407 839.252 239.206 839.46C239.005 839.666 238.756 839.827 238.46 839.943C238.164 840.057 237.831 840.114 237.462 840.114Z" fill="#D1D6DB"/>
    </g>
    <defs>
        <clipPath id="clip0_54_186">
            <rect width="393" height="852" fill="white"/>
        </clipPath>
    </defs>
</svg>
