
<svg width="393" height="852" viewBox="0 0 393 852" fill="none" xmlns="http://www.w3.org/2000/svg">
    <g clip-path="url(#clip0_54_230)">
        <path d="M393 0H0V852H393V0Z" fill="white"/>
        <path d="M36.8313 23.9418C37.3924 23.9418 37.9322 24.0359 38.4506 24.2241C38.9727 24.4123 39.4379 24.7124 39.8462 25.1243C40.2582 25.5362 40.5831 26.0831 40.821 26.7649C41.0625 27.4432 41.185 28.2759 41.1886 29.2631C41.1886 30.19 41.0838 31.0174 40.8743 31.7454C40.6683 32.4698 40.3718 33.0859 39.9847 33.5938C39.5977 34.1016 39.1307 34.4886 38.5838 34.755C38.0369 35.0178 37.4261 35.1491 36.7514 35.1491C36.0234 35.1491 35.3807 35.0089 34.8232 34.7283C34.2656 34.4442 33.8164 34.0589 33.4755 33.5724C33.1381 33.0824 32.9339 32.532 32.8629 31.9212H35.1374C35.2262 32.3189 35.4126 32.6278 35.6967 32.848C35.9808 33.0646 36.3324 33.1729 36.7514 33.1729C37.4616 33.1729 38.0014 32.864 38.3707 32.2461C38.7401 31.6246 38.9265 30.7741 38.93 29.6946H38.8555C38.6921 30.0142 38.4719 30.2894 38.195 30.5202C37.918 30.7475 37.6001 30.9233 37.2415 31.0476C36.8864 31.1719 36.5082 31.234 36.1069 31.234C35.4641 31.234 34.8906 31.0831 34.3864 30.7812C33.8821 30.4794 33.4844 30.0639 33.1932 29.5348C32.902 29.0057 32.7564 28.402 32.7564 27.7237C32.7528 26.9922 32.9215 26.3406 33.2624 25.7688C33.6033 25.1971 34.0792 24.7496 34.69 24.4265C35.3043 24.0998 36.0181 23.9382 36.8313 23.9418ZM36.8473 25.7528C36.4886 25.7528 36.169 25.8381 35.8885 26.0085C35.6115 26.179 35.3913 26.408 35.228 26.6957C35.0682 26.9833 34.9901 27.3047 34.9936 27.6598C34.9936 28.0185 35.0717 28.3416 35.228 28.6293C35.3878 28.9134 35.6044 29.1406 35.8778 29.3111C36.1548 29.478 36.4709 29.5614 36.826 29.5614C37.0923 29.5614 37.3391 29.5117 37.5664 29.4123C37.7937 29.3129 37.9908 29.1761 38.1577 29.0021C38.3281 28.8246 38.4613 28.6204 38.5572 28.3896C38.6531 28.1587 38.701 27.9137 38.701 27.6545C38.6974 27.31 38.6158 26.994 38.456 26.7063C38.2962 26.4187 38.076 26.1879 37.7955 26.0138C37.5149 25.8398 37.1989 25.7528 36.8473 25.7528ZM44.1342 33.7322C43.7827 33.7322 43.4808 33.608 43.2287 33.3594C42.9801 33.1108 42.8558 32.8089 42.8558 32.4538C42.8558 32.1058 42.9801 31.8075 43.2287 31.5589C43.4808 31.3104 43.7827 31.1861 44.1342 31.1861C44.4751 31.1861 44.7734 31.3104 45.0291 31.5589C45.2848 31.8075 45.4126 32.1058 45.4126 32.4538C45.4126 32.6882 45.3523 32.9031 45.2315 33.0984C45.1143 33.2901 44.9599 33.4446 44.7681 33.5618C44.5763 33.6754 44.3651 33.7322 44.1342 33.7322ZM44.1342 28.3789C43.7827 28.3789 43.4808 28.2546 43.2287 28.006C42.9801 27.7575 42.8558 27.4556 42.8558 27.1005C42.8558 26.7525 42.9801 26.456 43.2287 26.2109C43.4808 25.9624 43.7827 25.8381 44.1342 25.8381C44.4751 25.8381 44.7734 25.9624 45.0291 26.2109C45.2848 26.456 45.4126 26.7525 45.4126 27.1005C45.4126 27.3384 45.3523 27.555 45.2315 27.7504C45.1143 27.9421 44.9599 28.0948 44.7681 28.2085C44.5763 28.3221 44.3651 28.3789 44.1342 28.3789ZM47.0892 33.0824V31.266L51.6436 24.0909H53.2096V26.6051H52.2828L49.4117 31.1488V31.234H55.8836V33.0824H47.0892ZM52.3254 35V32.5284L52.368 31.7241V24.0909H54.5306V35H52.3254ZM62.02 24.0909V35H59.7135V26.2802H59.6496L57.1514 27.8462V25.8008L59.852 24.0909H62.02Z" fill="#191F28"/>
        <path d="M30 74L23 81L30 88" stroke="#191F28" stroke-width="2" stroke-linecap="round" stroke-linejoin="round"/>
        <path d="M173.567 69.771H175.828V77.625H173.567V69.771ZM174.927 72.78H177.902V74.616H174.927V72.78ZM165.441 78.237H175.828V82.555H167.702V84.442H165.458V80.923H173.601V79.988H165.441V78.237ZM165.458 83.575H176.287V85.343H165.458V83.575ZM167.736 70.213C168.552 70.213 169.272 70.366 169.895 70.672C170.53 70.978 171.029 71.3973 171.391 71.93C171.765 72.4627 171.952 73.0803 171.952 73.783C171.952 74.4743 171.765 75.092 171.391 75.636C171.029 76.18 170.53 76.605 169.895 76.911C169.272 77.2057 168.552 77.353 167.736 77.353C166.943 77.353 166.229 77.2057 165.594 76.911C164.971 76.605 164.472 76.18 164.098 75.636C163.736 75.092 163.554 74.4743 163.554 73.783C163.554 73.0803 163.736 72.4627 164.098 71.93C164.472 71.3973 164.971 70.978 165.594 70.672C166.229 70.366 166.943 70.213 167.736 70.213ZM167.753 72.032C167.368 72.032 167.022 72.1057 166.716 72.253C166.41 72.389 166.167 72.5873 165.985 72.848C165.815 73.0973 165.73 73.409 165.73 73.783C165.73 74.157 165.815 74.48 165.985 74.752C166.167 75.0127 166.41 75.211 166.716 75.347C167.022 75.483 167.368 75.551 167.753 75.551C168.139 75.551 168.484 75.483 168.79 75.347C169.096 75.211 169.334 75.0127 169.504 74.752C169.674 74.48 169.759 74.157 169.759 73.783C169.759 73.409 169.674 73.0973 169.504 72.848C169.334 72.5873 169.096 72.389 168.79 72.253C168.484 72.1057 168.139 72.032 167.753 72.032ZM189.903 69.754H192.164V79.087H189.903V69.754ZM179.907 76.758H181.267C182.298 76.758 183.222 76.7467 184.038 76.724C184.854 76.7013 185.63 76.6617 186.367 76.605C187.104 76.537 187.846 76.4407 188.594 76.316L188.849 78.118C188.078 78.2427 187.308 78.3447 186.537 78.424C185.778 78.492 184.973 78.5373 184.123 78.56C183.273 78.5713 182.321 78.577 181.267 78.577H179.907V76.758ZM179.873 70.655H187.132V75.415H182.117V77.829H179.907V73.715H184.888V72.457H179.873V70.655ZM181.692 79.801H192.164V85.343H181.692V79.801ZM189.954 81.569H183.919V83.558H189.954V81.569ZM206.688 72.066H210.564V73.868H206.688V72.066ZM209.561 69.771H211.839V77.761H209.561V69.771ZM201.435 78.407H211.839V82.657H203.696V84.629H201.452V81.025H209.595V80.158H201.435V78.407ZM201.452 83.575H212.281V85.343H201.452V83.575ZM202.251 70.264H204.087V71.403C204.087 72.3777 203.929 73.3013 203.611 74.174C203.305 75.0467 202.829 75.806 202.183 76.452C201.537 77.0867 200.71 77.5627 199.701 77.88L198.545 76.112C199.418 75.84 200.126 75.466 200.67 74.99C201.214 74.5027 201.611 73.9473 201.86 73.324C202.121 72.7007 202.251 72.0603 202.251 71.403V70.264ZM202.71 70.264H204.529V71.403C204.529 71.8563 204.597 72.3097 204.733 72.763C204.881 73.2163 205.096 73.6413 205.379 74.038C205.663 74.4347 206.025 74.786 206.467 75.092C206.921 75.398 207.453 75.6473 208.065 75.84L206.909 77.574C205.957 77.268 205.17 76.809 204.546 76.197C203.923 75.585 203.458 74.8653 203.152 74.038C202.858 73.2107 202.71 72.3323 202.71 71.403V70.264ZM222.837 73.562H225.829V75.398H222.837V73.562ZM225.2 69.771H227.478V79.121H225.2V69.771ZM222.14 79.461C223.251 79.461 224.208 79.58 225.013 79.818C225.818 80.056 226.435 80.4017 226.866 80.855C227.308 81.3083 227.529 81.8523 227.529 82.487C227.529 83.4617 227.047 84.2097 226.084 84.731C225.121 85.2637 223.806 85.53 222.14 85.53C220.474 85.53 219.159 85.2637 218.196 84.731C217.233 84.2097 216.751 83.4617 216.751 82.487C216.751 81.8523 216.966 81.3083 217.397 80.855C217.839 80.4017 218.462 80.056 219.267 79.818C220.072 79.58 221.029 79.461 222.14 79.461ZM222.14 81.178C221.46 81.178 220.888 81.229 220.423 81.331C219.958 81.4217 219.601 81.5633 219.352 81.756C219.114 81.9487 218.995 82.1923 218.995 82.487C218.995 82.7817 219.114 83.031 219.352 83.235C219.601 83.4277 219.958 83.575 220.423 83.677C220.888 83.7677 221.46 83.813 222.14 83.813C222.82 83.813 223.392 83.7677 223.857 83.677C224.322 83.575 224.673 83.4277 224.911 83.235C225.149 83.031 225.268 82.7817 225.268 82.487C225.268 82.1923 225.149 81.9487 224.911 81.756C224.673 81.5633 224.322 81.4217 223.857 81.331C223.392 81.229 222.82 81.178 222.14 81.178ZM217.941 71.335H219.777V72.338C219.777 73.3353 219.618 74.2873 219.301 75.194C218.984 76.1007 218.496 76.8997 217.839 77.591C217.193 78.271 216.366 78.781 215.357 79.121L214.218 77.336C214.864 77.1207 215.419 76.8317 215.884 76.469C216.36 76.1063 216.745 75.704 217.04 75.262C217.346 74.8087 217.573 74.3327 217.72 73.834C217.867 73.3353 217.941 72.8367 217.941 72.338V71.335ZM218.417 71.335H220.219V72.321C220.219 72.9443 220.344 73.5563 220.593 74.157C220.842 74.7577 221.228 75.3017 221.749 75.789C222.282 76.2763 222.962 76.6617 223.789 76.945L222.684 78.713C221.709 78.3843 220.905 77.9027 220.27 77.268C219.647 76.622 219.182 75.874 218.876 75.024C218.57 74.1627 218.417 73.2617 218.417 72.321V71.335ZM214.83 70.723H223.296V72.508H214.83V70.723Z" fill="#191F28"/>
        <path d="M353 116H40C31.1634 116 24 123.163 24 132V164C24 172.837 31.1634 180 40 180H353C361.837 180 369 172.837 369 164V132C369 123.163 361.837 116 353 116Z" fill="#F7F8FA"/>
        <path d="M56 160C57.2 160 58 159.2 58 158.5H54C54 159.2 54.8 160 56 160Z" fill="#191F28"/>
        <path d="M62 153V149C62 146.2 60.5 143.8 58 143.2V142.5C58 142 57.6 141.5 57 141.5C56.4 141.5 56 142 56 142.5V143.2C53.5 143.8 52 146.2 52 149V153L50 155V156H64V155L62 153Z" stroke="#191F28" stroke-width="1.4"/>
        <path d="M84.592 147.432H88.032V149.144H84.592V147.432ZM86.912 143.608H89.056V154.408H86.912V143.608ZM79.264 156.456H89.392V158.168H79.264V156.456ZM79.264 153.496H81.392V157.464H79.264V153.496ZM80.08 145.544H81.808V146.472C81.808 147.411 81.6587 148.301 81.36 149.144C81.0613 149.987 80.6027 150.728 79.984 151.368C79.376 151.997 78.592 152.472 77.632 152.792L76.576 151.096C77.184 150.893 77.7067 150.632 78.144 150.312C78.592 149.981 78.9547 149.608 79.232 149.192C79.52 148.776 79.7333 148.339 79.872 147.88C80.0107 147.421 80.08 146.952 80.08 146.472V145.544ZM80.528 145.544H82.224V146.472C82.224 147.048 82.3413 147.624 82.576 148.2C82.8107 148.765 83.1733 149.283 83.664 149.752C84.1653 150.211 84.8053 150.573 85.584 150.84L84.544 152.488C83.6267 152.179 82.8693 151.725 82.272 151.128C81.6853 150.52 81.248 149.816 80.96 149.016C80.672 148.205 80.528 147.357 80.528 146.472V145.544ZM77.152 144.6H85.12V146.296H77.152V144.6ZM97.4068 149.208H99.7428V150.936H97.4068V149.208ZM93.9508 147.72H95.5668V148.104C95.5668 148.872 95.5028 149.635 95.3748 150.392C95.2574 151.139 95.0654 151.848 94.7988 152.52C94.5428 153.181 94.2068 153.784 93.7908 154.328C93.3854 154.861 92.8841 155.299 92.2868 155.64L91.1028 154.04C91.6254 153.731 92.0681 153.357 92.4308 152.92C92.7934 152.472 93.0868 151.987 93.3108 151.464C93.5454 150.931 93.7108 150.381 93.8068 149.816C93.9028 149.24 93.9508 148.669 93.9508 148.104V147.72ZM94.3668 147.72H95.9828V148.104C95.9828 148.648 96.0308 149.197 96.1268 149.752C96.2334 150.307 96.3988 150.829 96.6228 151.32C96.8468 151.811 97.1401 152.264 97.5028 152.68C97.8654 153.085 98.3081 153.427 98.8308 153.704L97.6788 155.288C96.8894 154.872 96.2494 154.296 95.7588 153.56C95.2681 152.813 94.9108 151.971 94.6868 151.032C94.4734 150.083 94.3668 149.107 94.3668 148.104V147.72ZM91.6468 146.088H98.2548V147.8H91.6468V146.088ZM93.9508 144.088H95.9828V147.464H93.9508V144.088ZM102.063 143.592H104.095V158.408H102.063V143.592ZM99.0708 143.832H101.055V157.736H99.0708V143.832ZM119.317 143.608H121.445V151H119.317V143.608ZM120.597 146.44H123.397V148.168H120.597V146.44ZM111.669 151.576H121.445V155.64H113.797V157.416H111.685V154.104H119.349V153.224H111.669V151.576ZM111.685 156.6H121.877V158.264H111.685V156.6ZM113.829 144.024C114.597 144.024 115.274 144.168 115.861 144.456C116.458 144.744 116.927 145.139 117.269 145.64C117.621 146.141 117.797 146.723 117.797 147.384C117.797 148.035 117.621 148.616 117.269 149.128C116.927 149.64 116.458 150.04 115.861 150.328C115.274 150.605 114.597 150.744 113.829 150.744C113.082 150.744 112.41 150.605 111.813 150.328C111.226 150.04 110.757 149.64 110.405 149.128C110.063 148.616 109.893 148.035 109.893 147.384C109.893 146.723 110.063 146.141 110.405 145.64C110.757 145.139 111.226 144.744 111.813 144.456C112.41 144.168 113.082 144.024 113.829 144.024ZM113.845 145.736C113.482 145.736 113.157 145.805 112.869 145.944C112.581 146.072 112.351 146.259 112.181 146.504C112.021 146.739 111.941 147.032 111.941 147.384C111.941 147.736 112.021 148.04 112.181 148.296C112.351 148.541 112.581 148.728 112.869 148.856C113.157 148.984 113.482 149.048 113.845 149.048C114.207 149.048 114.533 148.984 114.821 148.856C115.109 148.728 115.333 148.541 115.493 148.296C115.653 148.04 115.733 147.736 115.733 147.384C115.733 147.032 115.653 146.739 115.493 146.504C115.333 146.259 115.109 146.072 114.821 145.944C114.533 145.805 114.207 145.736 113.845 145.736ZM134.691 143.592H136.819V152.376H134.691V143.592ZM125.283 150.184H126.563C127.534 150.184 128.403 150.173 129.171 150.152C129.939 150.131 130.67 150.093 131.363 150.04C132.057 149.976 132.755 149.885 133.459 149.768L133.699 151.464C132.974 151.581 132.249 151.677 131.523 151.752C130.809 151.816 130.051 151.859 129.251 151.88C128.451 151.891 127.555 151.896 126.563 151.896H125.283V150.184ZM125.251 144.44H132.083V148.92H127.363V151.192H125.283V147.32H129.971V146.136H125.251V144.44ZM126.963 153.048H136.819V158.264H126.963V153.048ZM134.739 154.712H129.059V156.584H134.739V154.712Z" fill="#191F28"/>
        <path d="M76.6 172.716H86.44V173.544H76.6V172.716ZM81.004 169.908H81.988V172.944H81.004V169.908ZM77.752 164.976H85.24V170.088H77.752V164.976ZM84.268 165.78H78.724V169.296H84.268V165.78ZM87.6391 169.56H97.4551V170.364H87.6391V169.56ZM88.8751 167.556H96.3271V168.372H88.8751V167.556ZM88.8751 164.544H96.2311V165.348H89.8711V167.82H88.8751V164.544ZM88.8991 173.868H96.4111V174.684H88.8991V173.868ZM88.8991 171.516H89.8831V174.084H88.8991V171.516ZM103.121 165.228H110.105V166.044H103.121V165.228ZM102.053 172.524H111.857V173.352H102.053V172.524ZM109.565 165.228H110.549V166.32C110.549 166.776 110.541 167.264 110.525 167.784C110.517 168.296 110.485 168.864 110.429 169.488C110.373 170.112 110.277 170.816 110.141 171.6L109.133 171.492C109.277 170.756 109.377 170.08 109.433 169.464C109.497 168.848 109.533 168.28 109.541 167.76C109.557 167.24 109.565 166.76 109.565 166.32V165.228ZM113.08 169.452H122.92V170.256H113.08V169.452ZM117.496 169.74H118.48V171.588H117.496V169.74ZM114.388 170.952H115.372V172.14H120.676V170.952H121.66V174.792H114.388V170.952ZM115.372 172.896V174.012H120.676V172.896H115.372ZM114.328 164.304H121.66V166.788H115.336V168.228H114.352V166.056H120.676V165.072H114.328V164.304ZM114.352 167.82H121.888V168.588H114.352V167.82ZM129.099 170.892C129.835 170.892 130.467 170.972 130.995 171.132C131.531 171.292 131.943 171.52 132.231 171.816C132.519 172.112 132.663 172.472 132.663 172.896C132.663 173.32 132.519 173.684 132.231 173.988C131.943 174.292 131.531 174.524 130.995 174.684C130.467 174.844 129.835 174.924 129.099 174.924C128.363 174.924 127.727 174.844 127.191 174.684C126.655 174.524 126.243 174.292 125.955 173.988C125.667 173.684 125.523 173.32 125.523 172.896C125.523 172.472 125.667 172.112 125.955 171.816C126.243 171.52 126.655 171.292 127.191 171.132C127.727 170.972 128.363 170.892 129.099 170.892ZM129.099 171.684C128.563 171.684 128.099 171.732 127.707 171.828C127.323 171.924 127.027 172.064 126.819 172.248C126.611 172.424 126.507 172.64 126.507 172.896C126.507 173.16 126.611 173.384 126.819 173.568C127.027 173.752 127.323 173.892 127.707 173.988C128.099 174.084 128.563 174.132 129.099 174.132C129.635 174.132 130.095 174.084 130.479 173.988C130.863 173.892 131.159 173.752 131.367 173.568C131.575 173.384 131.679 173.16 131.679 172.896C131.679 172.64 131.575 172.424 131.367 172.248C131.159 172.064 130.863 171.924 130.479 171.828C130.095 171.732 129.635 171.684 129.099 171.684ZM131.559 164.076H132.555V170.592H131.559V164.076ZM132.279 166.8H134.151V167.64H132.279V166.8ZM124.575 164.76H125.559V166.392H128.619V164.76H129.603V169.764H124.575V164.76ZM125.559 167.184V168.96H128.619V167.184H125.559ZM145.973 164.076H146.969V169.596H145.973V164.076ZM146.525 166.416H148.565V167.244H146.525V166.416ZM140.069 170.112H146.969V172.776H141.077V174.408H140.105V172.032H145.985V170.904H140.069V170.112ZM140.105 173.988H147.353V174.792H140.105V173.988ZM141.545 164.472C142.089 164.472 142.569 164.572 142.985 164.772C143.409 164.972 143.741 165.256 143.981 165.624C144.221 165.984 144.341 166.404 144.341 166.884C144.341 167.356 144.221 167.776 143.981 168.144C143.741 168.504 143.409 168.788 142.985 168.996C142.569 169.196 142.089 169.296 141.545 169.296C141.009 169.296 140.529 169.196 140.105 168.996C139.681 168.788 139.345 168.504 139.097 168.144C138.857 167.776 138.737 167.352 138.737 166.872C138.737 166.4 138.857 165.984 139.097 165.624C139.345 165.256 139.681 164.972 140.105 164.772C140.529 164.572 141.009 164.472 141.545 164.472ZM141.545 165.288C141.193 165.288 140.877 165.356 140.597 165.492C140.325 165.628 140.109 165.816 139.949 166.056C139.789 166.288 139.709 166.564 139.709 166.884C139.709 167.196 139.789 167.472 139.949 167.712C140.109 167.952 140.325 168.144 140.597 168.288C140.877 168.424 141.193 168.492 141.545 168.492C141.897 168.492 142.209 168.424 142.481 168.288C142.761 168.144 142.981 167.952 143.141 167.712C143.301 167.472 143.381 167.196 143.381 166.884C143.381 166.564 143.301 166.288 143.141 166.056C142.981 165.816 142.761 165.628 142.481 165.492C142.209 165.356 141.897 165.288 141.545 165.288ZM157.48 164.088H158.476V170.52H157.48V164.088ZM150.148 169.176H151.024C151.68 169.176 152.288 169.168 152.848 169.152C153.416 169.136 153.968 169.104 154.504 169.056C155.04 169 155.596 168.928 156.172 168.84L156.292 169.656C155.692 169.752 155.116 169.828 154.564 169.884C154.02 169.932 153.46 169.964 152.884 169.98C152.316 169.996 151.696 170.004 151.024 170.004H150.148V169.176ZM150.124 164.736H155.044V167.7H151.12V169.68H150.148V166.92H154.072V165.54H150.124V164.736ZM151.468 171.108H158.476V174.792H151.468V171.108ZM157.504 171.912H152.44V173.976H157.504V171.912ZM165.519 164.268C166.719 164.268 167.655 164.432 168.327 164.76C168.999 165.08 169.335 165.54 169.335 166.14C169.335 166.748 168.999 167.216 168.327 167.544C167.655 167.864 166.719 168.024 165.519 168.024C164.327 168.024 163.391 167.864 162.711 167.544C162.039 167.216 161.703 166.748 161.703 166.14C161.703 165.54 162.039 165.08 162.711 164.76C163.391 164.432 164.327 164.268 165.519 164.268ZM165.519 165.012C164.935 165.012 164.435 165.056 164.019 165.144C163.603 165.232 163.283 165.36 163.059 165.528C162.843 165.696 162.735 165.9 162.735 166.14C162.735 166.38 162.843 166.588 163.059 166.764C163.283 166.932 163.603 167.06 164.019 167.148C164.435 167.228 164.935 167.268 165.519 167.268C166.111 167.268 166.615 167.228 167.031 167.148C167.447 167.06 167.763 166.932 167.979 166.764C168.203 166.588 168.315 166.38 168.315 166.14C168.315 165.9 168.203 165.696 167.979 165.528C167.763 165.36 167.447 165.232 167.031 165.144C166.615 165.056 166.111 165.012 165.519 165.012ZM160.623 168.756H170.427V169.56H160.623V168.756ZM161.811 170.484H169.167V172.932H162.807V174.24H161.835V172.2H168.195V171.252H161.811V170.484ZM161.835 174.036H169.491V174.816H161.835V174.036ZM183.294 164.076H184.242V174.936H183.294V164.076ZM179.334 167.976H181.422V168.792H179.334V167.976ZM181.122 164.328H182.058V174.372H181.122V164.328ZM177.258 165.768H178.026V167.148C178.026 167.74 177.97 168.32 177.858 168.888C177.746 169.448 177.582 169.976 177.366 170.472C177.15 170.96 176.886 171.404 176.574 171.804C176.262 172.196 175.91 172.516 175.518 172.764L174.906 172.02C175.41 171.716 175.834 171.308 176.178 170.796C176.53 170.284 176.798 169.712 176.982 169.08C177.166 168.448 177.258 167.804 177.258 167.148V165.768ZM177.462 165.768H178.218V167.148C178.218 167.772 178.306 168.384 178.482 168.984C178.666 169.584 178.926 170.128 179.262 170.616C179.606 171.096 180.026 171.48 180.522 171.768L179.922 172.512C179.394 172.184 178.946 171.748 178.578 171.204C178.218 170.652 177.942 170.028 177.75 169.332C177.558 168.628 177.462 167.9 177.462 167.148V165.768ZM175.206 165.348H180.162V166.164H175.206V165.348ZM188.969 164.916C189.497 164.916 189.965 165.072 190.373 165.384C190.781 165.688 191.097 166.124 191.321 166.692C191.553 167.26 191.669 167.928 191.669 168.696C191.669 169.464 191.553 170.132 191.321 170.7C191.097 171.268 190.781 171.708 190.373 172.02C189.965 172.332 189.497 172.488 188.969 172.488C188.449 172.488 187.981 172.332 187.565 172.02C187.157 171.708 186.837 171.268 186.605 170.7C186.381 170.132 186.269 169.464 186.269 168.696C186.269 167.928 186.381 167.26 186.605 166.692C186.837 166.124 187.157 165.688 187.565 165.384C187.981 165.072 188.449 164.916 188.969 164.916ZM188.969 165.804C188.625 165.804 188.321 165.924 188.057 166.164C187.793 166.396 187.585 166.732 187.433 167.172C187.289 167.604 187.217 168.112 187.217 168.696C187.217 169.28 187.289 169.792 187.433 170.232C187.585 170.664 187.793 171 188.057 171.24C188.321 171.48 188.625 171.6 188.969 171.6C189.321 171.6 189.629 171.48 189.893 171.24C190.157 171 190.361 170.664 190.505 170.232C190.657 169.792 190.733 169.28 190.733 168.696C190.733 168.112 190.657 167.604 190.505 167.172C190.361 166.732 190.157 166.396 189.893 166.164C189.629 165.924 189.321 165.804 188.969 165.804ZM194.021 164.076H195.005V174.948H194.021V164.076ZM191.345 168.216H194.465V169.02H191.345V168.216ZM204.544 164.076H205.54V170.388H204.544V164.076ZM205.108 166.848H207.136V167.688H205.108V166.848ZM198.712 170.868H199.696V172.008H204.544V170.868H205.54V174.792H198.712V170.868ZM199.696 172.788V173.988H204.544V172.788H199.696ZM197.14 165.192H203.548V165.996H197.14V165.192ZM200.344 166.5C200.864 166.5 201.316 166.58 201.7 166.74C202.092 166.892 202.396 167.112 202.612 167.4C202.828 167.68 202.936 168.012 202.936 168.396C202.936 168.78 202.828 169.116 202.612 169.404C202.396 169.692 202.092 169.916 201.7 170.076C201.316 170.228 200.864 170.304 200.344 170.304C199.824 170.304 199.368 170.228 198.976 170.076C198.592 169.916 198.288 169.692 198.064 169.404C197.848 169.116 197.74 168.78 197.74 168.396C197.74 168.012 197.848 167.68 198.064 167.4C198.288 167.112 198.592 166.892 198.976 166.74C199.368 166.58 199.824 166.5 200.344 166.5ZM200.344 167.256C199.848 167.256 199.448 167.36 199.144 167.568C198.848 167.776 198.7 168.052 198.7 168.396C198.7 168.748 198.848 169.028 199.144 169.236C199.448 169.444 199.848 169.548 200.344 169.548C200.832 169.548 201.228 169.444 201.532 169.236C201.836 169.028 201.988 168.748 201.988 168.396C201.988 168.052 201.836 167.776 201.532 167.568C201.236 167.36 200.84 167.256 200.344 167.256ZM199.852 163.98H200.848V165.624H199.852V163.98ZM216.051 164.076H217.035V174.936H216.051V164.076ZM208.839 165.144H209.823V171.864H208.839V165.144ZM208.839 171.276H209.727C210.559 171.276 211.403 171.24 212.259 171.168C213.123 171.088 214.011 170.956 214.923 170.772L215.055 171.612C214.111 171.812 213.203 171.952 212.331 172.032C211.459 172.104 210.591 172.14 209.727 172.14H208.839V171.276ZM226.538 164.076H227.534V174.948H226.538V164.076ZM227.306 168.36H229.31V169.188H227.306V168.36ZM219.662 171.396H220.514C221.178 171.396 221.786 171.388 222.338 171.372C222.898 171.348 223.434 171.308 223.946 171.252C224.466 171.196 224.994 171.12 225.53 171.024L225.65 171.876C225.09 171.972 224.546 172.048 224.018 172.104C223.498 172.16 222.954 172.196 222.386 172.212C221.818 172.228 221.194 172.236 220.514 172.236H219.662V171.396ZM219.662 165.132H224.69V165.948H220.646V171.78H219.662V165.132Z" fill="#8B95A1"/>
        <path d="M344 136H326C318.82 136 313 141.82 313 149C313 156.18 318.82 162 326 162H344C351.18 162 357 156.18 357 149C357 141.82 351.18 136 344 136Z" fill="#FF6B6B"/>
        <path d="M344 159C349.523 159 354 154.523 354 149C354 143.477 349.523 139 344 139C338.477 139 334 143.477 334 149C334 154.523 338.477 159 344 159Z" fill="white"/>
        <path d="M24 200H369" stroke="#F2F3F5"/>
        <path d="M25.651 220.211H33.269V221.589H25.651V220.211ZM24.533 228.18H35.427V229.584H24.533V228.18ZM32.359 220.211H34.088V221.641C34.088 222.204 34.0793 222.776 34.062 223.357C34.0533 223.938 34.0187 224.557 33.958 225.216C33.906 225.875 33.802 226.62 33.646 227.452L31.917 227.296C32.073 226.525 32.177 225.814 32.229 225.164C32.2897 224.514 32.3243 223.903 32.333 223.331C32.3503 222.75 32.359 222.187 32.359 221.641V220.211ZM36.492 224.943H47.386V226.282H36.492V224.943ZM41.055 225.398H42.784V227.309H41.055V225.398ZM37.844 226.802H39.547V227.764H44.396V226.802H46.099V231.027H37.844V226.802ZM39.547 229.012V229.727H44.396V229.012H39.547ZM37.818 219.288H46.06V222.408H39.547V223.786H37.844V221.199H44.357V220.575H37.818V219.288ZM37.844 223.058H46.294V224.345H37.844V223.058ZM53.989 226.464C54.8296 226.464 55.5533 226.559 56.16 226.75C56.7666 226.932 57.2346 227.201 57.564 227.556C57.8933 227.903 58.058 228.323 58.058 228.817C58.058 229.302 57.8933 229.723 57.564 230.078C57.2346 230.433 56.7666 230.702 56.16 230.884C55.5533 231.075 54.8296 231.17 53.989 231.17C53.157 231.17 52.4333 231.075 51.818 230.884C51.2113 230.702 50.739 230.433 50.401 230.078C50.0716 229.723 49.907 229.302 49.907 228.817C49.907 228.323 50.0716 227.903 50.401 227.556C50.739 227.201 51.2113 226.932 51.818 226.75C52.4333 226.559 53.157 226.464 53.989 226.464ZM53.989 227.829C53.4776 227.829 53.0486 227.864 52.702 227.933C52.3553 228.002 52.091 228.111 51.909 228.258C51.727 228.397 51.636 228.583 51.636 228.817C51.636 229.042 51.727 229.233 51.909 229.389C52.091 229.536 52.3553 229.649 52.702 229.727C53.0486 229.796 53.4776 229.831 53.989 229.831C54.5003 229.831 54.9293 229.796 55.276 229.727C55.6313 229.649 55.8956 229.536 56.069 229.389C56.251 229.233 56.342 229.042 56.342 228.817C56.342 228.583 56.251 228.397 56.069 228.258C55.8956 228.111 55.6313 228.002 55.276 227.933C54.9293 227.864 54.5003 227.829 53.989 227.829ZM56.186 219.119H57.915V226.204H56.186V219.119ZM57.447 221.914H59.514V223.331H57.447V221.914ZM48.789 219.873H50.505V221.368H52.871V219.873H54.574V225.541H48.789V219.873ZM50.505 222.694V224.189H52.871V222.694H50.505ZM66.208 220.614H69.133V221.927H66.208V220.614ZM66.208 222.824H69.133V224.124H66.208V222.824ZM68.743 219.119H70.472V225.294H68.743V219.119ZM62.516 225.749H70.472V228.973H64.245V230.494H62.542V227.725H68.769V227.088H62.516V225.749ZM62.542 229.675H70.823V231.027H62.542V229.675ZM60.904 219.613H62.62V221.004H64.908V219.613H66.611V224.956H60.904V219.613ZM62.62 222.304V223.617H64.908V222.304H62.62ZM83.1127 219.119H84.8417V225.125H83.1127V219.119ZM84.1527 221.42H86.4277V222.824H84.1527V221.42ZM76.8987 225.593H84.8417V228.895H78.6277V230.338H76.9117V227.647H83.1387V226.932H76.8987V225.593ZM76.9117 229.675H85.1927V231.027H76.9117V229.675ZM78.6537 219.457C79.2777 219.457 79.8281 219.574 80.3047 219.808C80.7901 220.042 81.1714 220.363 81.4487 220.77C81.7347 221.177 81.8777 221.65 81.8777 222.187C81.8777 222.716 81.7347 223.188 81.4487 223.604C81.1714 224.02 80.7901 224.345 80.3047 224.579C79.8281 224.804 79.2777 224.917 78.6537 224.917C78.0471 224.917 77.5011 224.804 77.0157 224.579C76.5391 224.345 76.1577 224.02 75.8717 223.604C75.5944 223.188 75.4557 222.716 75.4557 222.187C75.4557 221.65 75.5944 221.177 75.8717 220.77C76.1577 220.363 76.5391 220.042 77.0157 219.808C77.5011 219.574 78.0471 219.457 78.6537 219.457ZM78.6667 220.848C78.3721 220.848 78.1077 220.904 77.8737 221.017C77.6397 221.121 77.4534 221.273 77.3147 221.472C77.1847 221.663 77.1197 221.901 77.1197 222.187C77.1197 222.473 77.1847 222.72 77.3147 222.928C77.4534 223.127 77.6397 223.279 77.8737 223.383C78.1077 223.487 78.3721 223.539 78.6667 223.539C78.9614 223.539 79.2257 223.487 79.4597 223.383C79.6937 223.279 79.8757 223.127 80.0057 222.928C80.1357 222.72 80.2007 222.473 80.2007 222.187C80.2007 221.901 80.1357 221.663 80.0057 221.472C79.8757 221.273 79.6937 221.121 79.4597 221.017C79.2257 220.904 78.9614 220.848 78.6667 220.848ZM95.6047 219.106H97.3337V226.243H95.6047V219.106ZM87.9607 224.462H89.0007C89.7894 224.462 90.4957 224.453 91.1197 224.436C91.7437 224.419 92.3374 224.388 92.9007 224.345C93.464 224.293 94.0317 224.219 94.6037 224.124L94.7987 225.502C94.2094 225.597 93.62 225.675 93.0307 225.736C92.45 225.788 91.8347 225.823 91.1847 225.84C90.5347 225.849 89.8067 225.853 89.0007 225.853H87.9607V224.462ZM87.9347 219.795H93.4857V223.435H89.6507V225.281H87.9607V222.135H91.7697V221.173H87.9347V219.795ZM89.3257 226.789H97.3337V231.027H89.3257V226.789ZM95.6437 228.141H91.0287V229.662H95.6437V228.141Z" fill="#4E5968"/>
        <path d="M355 248H38C30.268 248 24 254.268 24 262V294C24 301.732 30.268 308 38 308H355C362.732 308 369 301.732 369 294V262C369 254.268 362.732 248 355 248Z" fill="#F7F8FA"/>
        <path d="M68 258H48C42.4772 258 38 262.477 38 268V288C38 293.523 42.4772 298 48 298H68C73.5228 298 78 293.523 78 288V268C78 262.477 73.5228 258 68 258Z" fill="#FFE8E8"/>
        <path d="M101.07 264.595H102.255V278.17H101.07V264.595ZM98.775 270.04H101.385V271.06H98.775V270.04ZM97.995 264.895H99.15V277.465H97.995V264.895ZM91.23 273.775H92.115C92.785 273.775 93.39 273.77 93.93 273.76C94.48 273.74 95 273.7 95.49 273.64C95.99 273.58 96.5 273.495 97.02 273.385L97.14 274.42C96.6 274.53 96.075 274.615 95.565 274.675C95.065 274.735 94.535 274.775 93.975 274.795C93.425 274.815 92.805 274.825 92.115 274.825H91.23V273.775ZM91.23 266.245H96.27V267.265H92.475V274.255H91.23V266.245ZM104.579 266.035H112.589V267.04H104.579V266.035ZM108.584 267.745C109.224 267.745 109.789 267.845 110.279 268.045C110.769 268.245 111.149 268.53 111.419 268.9C111.689 269.26 111.824 269.69 111.824 270.19C111.824 270.69 111.689 271.12 111.419 271.48C111.149 271.84 110.769 272.125 110.279 272.335C109.789 272.535 109.224 272.635 108.584 272.635C107.944 272.635 107.379 272.535 106.889 272.335C106.399 272.125 106.014 271.84 105.734 271.48C105.464 271.12 105.329 270.69 105.329 270.19C105.329 269.69 105.464 269.26 105.734 268.9C106.014 268.53 106.399 268.245 106.889 268.045C107.379 267.845 107.944 267.745 108.584 267.745ZM108.584 268.705C107.964 268.705 107.464 268.84 107.084 269.11C106.714 269.37 106.529 269.73 106.529 270.19C106.529 270.64 106.714 271 107.084 271.27C107.464 271.53 107.964 271.66 108.584 271.66C109.194 271.66 109.689 271.53 110.069 271.27C110.449 271 110.639 270.64 110.639 270.19C110.639 269.73 110.449 269.37 110.069 269.11C109.699 268.84 109.204 268.705 108.584 268.705ZM113.834 264.595H115.079V273.085H113.834V264.595ZM114.734 268.345H117.074V269.38H114.734V268.345ZM106.259 273.82H115.079V278.17H113.834V274.84H106.259V273.82ZM107.969 264.535H109.214V266.59H107.969V264.535ZM132.436 264.61H133.681V274.63H132.436V264.61ZM124.966 276.85H134.101V277.87H124.966V276.85ZM124.966 273.7H126.211V277.39H124.966V273.7ZM126.241 267.19H127.261V267.76C127.261 268.57 127.101 269.325 126.781 270.025C126.461 270.715 126.016 271.32 125.446 271.84C124.876 272.35 124.211 272.735 123.451 272.995L122.836 272.02C123.346 271.85 123.806 271.625 124.216 271.345C124.636 271.055 124.996 270.725 125.296 270.355C125.606 269.975 125.841 269.57 126.001 269.14C126.161 268.7 126.241 268.24 126.241 267.76V267.19ZM126.451 267.19H127.471V267.76C127.471 268.21 127.556 268.64 127.726 269.05C127.896 269.46 128.131 269.845 128.431 270.205C128.741 270.555 129.106 270.865 129.526 271.135C129.946 271.395 130.406 271.605 130.906 271.765L130.306 272.755C129.546 272.505 128.876 272.135 128.296 271.645C127.716 271.155 127.261 270.58 126.931 269.92C126.611 269.26 126.451 268.54 126.451 267.76V267.19ZM123.166 266.41H130.531V267.415H123.166V266.41ZM126.241 264.67H127.486V266.905H126.241V264.67ZM137.895 265.48H146.385V266.485H137.895V265.48ZM136.365 271.3H148.62V272.335H136.365V271.3ZM141.84 271.99H143.085V278.185H141.84V271.99ZM145.785 265.48H147.015V266.665C147.015 267.135 147.005 267.63 146.985 268.15C146.975 268.67 146.935 269.245 146.865 269.875C146.795 270.495 146.675 271.185 146.505 271.945L145.26 271.78C145.53 270.69 145.685 269.735 145.725 268.915C145.765 268.095 145.785 267.345 145.785 266.665V265.48ZM150.164 270.265H162.434V271.27H150.164V270.265ZM151.799 268.165H160.964V269.17H151.799V268.165ZM151.799 265.045H160.829V266.05H153.029V268.96H151.799V265.045ZM151.649 272.455H160.844V275.635H152.894V277.345H151.679V274.705H159.629V273.43H151.649V272.455ZM151.679 277.015H161.249V278.005H151.679V277.015Z" fill="#191F28"/>
        <path d="M98.063 284.914H98.943V290.667H98.063V284.914ZM96.16 285.112H97.029V290.557H96.16V285.112ZM94.576 287.334H96.457V288.093H94.576V287.334ZM90.99 285.629H94.829V289.93H90.99V285.629ZM93.971 286.344H91.848V289.237H93.971V286.344ZM92.409 291.162H98.943V294.726H92.409V291.162ZM98.041 291.888H93.3V293.978H98.041V291.888ZM107.951 284.903H108.853V294.869H107.951V284.903ZM105.333 288.599H108.215V289.347H105.333V288.599ZM101.065 285.684H101.978V288.269H104.739V285.684H105.63V292.361H101.065V285.684ZM101.978 288.995V291.613H104.739V288.995H101.978ZM116.66 294.109C116.202 294.109 115.789 294.018 115.422 293.836C115.055 293.654 114.76 293.404 114.539 293.086C114.318 292.768 114.197 292.406 114.176 292H115.113C115.15 292.362 115.314 292.661 115.605 292.898C115.9 293.133 116.251 293.25 116.66 293.25C116.988 293.25 117.28 293.173 117.535 293.02C117.793 292.866 117.995 292.655 118.141 292.387C118.289 292.116 118.363 291.81 118.363 291.469C118.363 291.12 118.286 290.809 118.133 290.535C117.982 290.259 117.773 290.042 117.508 289.883C117.242 289.724 116.939 289.643 116.598 289.641C116.353 289.638 116.102 289.676 115.844 289.754C115.586 289.829 115.374 289.927 115.207 290.047L114.301 289.937L114.785 286H118.941V286.859H115.598L115.316 289.219H115.363C115.527 289.089 115.733 288.98 115.98 288.895C116.228 288.809 116.486 288.766 116.754 288.766C117.243 288.766 117.68 288.883 118.063 289.117C118.448 289.349 118.75 289.667 118.969 290.07C119.19 290.474 119.301 290.935 119.301 291.453C119.301 291.964 119.186 292.419 118.957 292.82C118.73 293.219 118.418 293.534 118.02 293.766C117.621 293.995 117.168 294.109 116.66 294.109ZM125.315 286.52H128.186V287.257H125.315V286.52ZM125.315 288.489H128.208V289.237H125.315V288.489ZM127.845 284.903H128.758V290.788H127.845V284.903ZM121.036 285.662H125.568V290.084H121.036V285.662ZM124.677 286.399H121.927V289.347H124.677V286.399ZM125.48 291.085C126.507 291.085 127.314 291.25 127.9 291.58C128.494 291.91 128.791 292.372 128.791 292.966C128.791 293.56 128.494 294.018 127.9 294.341C127.314 294.671 126.507 294.836 125.48 294.836C124.454 294.836 123.643 294.671 123.049 294.341C122.463 294.018 122.169 293.56 122.169 292.966C122.169 292.372 122.463 291.91 123.049 291.58C123.643 291.25 124.454 291.085 125.48 291.085ZM125.48 291.8C124.982 291.8 124.553 291.848 124.193 291.943C123.834 292.031 123.555 292.163 123.357 292.339C123.167 292.508 123.071 292.717 123.071 292.966C123.071 293.201 123.167 293.406 123.357 293.582C123.555 293.751 123.834 293.883 124.193 293.978C124.553 294.073 124.982 294.121 125.48 294.121C125.986 294.121 126.415 294.073 126.767 293.978C127.127 293.883 127.402 293.751 127.592 293.582C127.79 293.406 127.889 293.201 127.889 292.966C127.889 292.717 127.79 292.508 127.592 292.339C127.402 292.163 127.127 292.031 126.767 291.943C126.415 291.848 125.986 291.8 125.48 291.8Z" fill="#8B95A1"/>
        <path d="M344 265H326C318.82 265 313 270.82 313 278C313 285.18 318.82 291 326 291H344C351.18 291 357 285.18 357 278C357 270.82 351.18 265 344 265Z" fill="#FF6B6B"/>
        <path d="M344 288C349.523 288 354 283.523 354 278C354 272.477 349.523 268 344 268C338.477 268 334 272.477 334 278C334 283.523 338.477 288 344 288Z" fill="white"/>
        <path d="M355 318H38C30.268 318 24 324.268 24 332V364C24 371.732 30.268 378 38 378H355C362.732 378 369 371.732 369 364V332C369 324.268 362.732 318 355 318Z" fill="#F7F8FA"/>
        <path d="M68 328H48C42.4772 328 38 332.477 38 338V358C38 363.523 42.4772 368 48 368H68C73.5228 368 78 363.523 78 358V338C78 332.477 73.5228 328 68 328Z" fill="#E0ECFF"/>
        <path d="M96.855 337.625H100.965V338.645H96.855V337.625ZM96.855 341.915H100.965V342.935H96.855V341.915ZM94.365 335.645C95.025 335.645 95.61 335.84 96.12 336.23C96.63 336.61 97.025 337.155 97.305 337.865C97.595 338.575 97.74 339.41 97.74 340.37C97.74 341.33 97.595 342.165 97.305 342.875C97.025 343.585 96.63 344.135 96.12 344.525C95.61 344.915 95.025 345.11 94.365 345.11C93.715 345.11 93.13 344.915 92.61 344.525C92.1 344.135 91.7 343.585 91.41 342.875C91.13 342.165 90.99 341.33 90.99 340.37C90.99 339.41 91.13 338.575 91.41 337.865C91.7 337.155 92.1 336.61 92.61 336.23C93.13 335.84 93.715 335.645 94.365 335.645ZM94.365 336.755C93.935 336.755 93.555 336.905 93.225 337.205C92.895 337.495 92.635 337.915 92.445 338.465C92.265 339.005 92.175 339.64 92.175 340.37C92.175 341.1 92.265 341.74 92.445 342.29C92.635 342.83 92.895 343.25 93.225 343.55C93.555 343.85 93.935 344 94.365 344C94.805 344 95.19 343.85 95.52 343.55C95.85 343.25 96.105 342.83 96.285 342.29C96.475 341.74 96.57 341.1 96.57 340.37C96.57 339.64 96.475 339.005 96.285 338.465C96.105 337.915 95.85 337.495 95.52 337.205C95.19 336.905 94.805 336.755 94.365 336.755ZM100.68 334.595H101.91V348.185H100.68V334.595ZM114.794 334.595H115.979V343.175H114.794V334.595ZM112.574 338.285H115.139V339.305H112.574V338.285ZM111.884 334.865H113.054V342.695H111.884V334.865ZM104.474 336.215H111.344V337.205H104.474V336.215ZM107.924 337.91C108.494 337.91 108.994 338.005 109.424 338.195C109.864 338.385 110.204 338.655 110.444 339.005C110.694 339.355 110.819 339.765 110.819 340.235C110.819 340.705 110.694 341.115 110.444 341.465C110.204 341.805 109.864 342.07 109.424 342.26C108.994 342.45 108.494 342.545 107.924 342.545C107.364 342.545 106.864 342.45 106.424 342.26C105.984 342.07 105.644 341.805 105.404 341.465C105.164 341.115 105.044 340.705 105.044 340.235C105.044 339.765 105.164 339.355 105.404 339.005C105.644 338.655 105.984 338.385 106.424 338.195C106.864 338.005 107.364 337.91 107.924 337.91ZM107.924 338.84C107.404 338.84 106.979 338.965 106.649 339.215C106.319 339.465 106.154 339.805 106.154 340.235C106.154 340.655 106.314 340.995 106.634 341.255C106.964 341.505 107.394 341.63 107.924 341.63C108.454 341.63 108.879 341.505 109.199 341.255C109.529 340.995 109.694 340.655 109.694 340.235C109.694 339.805 109.529 339.465 109.199 339.215C108.879 338.965 108.454 338.84 107.924 338.84ZM107.309 334.7H108.539V336.785H107.309V334.7ZM111.524 343.415C112.944 343.415 114.054 343.62 114.854 344.03C115.654 344.44 116.054 345.025 116.054 345.785C116.054 346.535 115.654 347.115 114.854 347.525C114.054 347.935 112.944 348.14 111.524 348.14C110.104 348.14 108.994 347.935 108.194 347.525C107.394 347.115 106.994 346.535 106.994 345.785C106.994 345.025 107.394 344.44 108.194 344.03C108.994 343.62 110.104 343.415 111.524 343.415ZM111.524 344.375C110.484 344.375 109.674 344.495 109.094 344.735C108.514 344.975 108.224 345.325 108.224 345.785C108.224 346.235 108.514 346.58 109.094 346.82C109.674 347.06 110.484 347.18 111.524 347.18C112.554 347.18 113.359 347.06 113.939 346.82C114.519 346.58 114.809 346.235 114.809 345.785C114.809 345.325 114.519 344.975 113.939 344.735C113.359 344.495 112.554 344.375 111.524 344.375ZM122.566 345.395H134.866V346.43H122.566V345.395ZM128.071 341.885H129.301V345.68H128.071V341.885ZM124.006 335.72H133.366V342.11H124.006V335.72ZM132.151 336.725H125.221V341.12H132.151V336.725ZM146.235 334.61H147.48V342.35H146.235V334.61ZM138.72 343.085H147.48V347.99H138.72V343.085ZM146.265 344.09H139.935V346.97H146.265V344.09ZM140.205 335.315C140.895 335.315 141.505 335.45 142.035 335.72C142.565 335.99 142.98 336.365 143.28 336.845C143.59 337.315 143.745 337.865 143.745 338.495C143.745 339.115 143.59 339.665 143.28 340.145C142.98 340.615 142.565 340.985 142.035 341.255C141.505 341.525 140.895 341.66 140.205 341.66C139.525 341.66 138.915 341.525 138.375 341.255C137.845 340.985 137.425 340.615 137.115 340.145C136.815 339.665 136.665 339.115 136.665 338.495C136.665 337.865 136.815 337.315 137.115 336.845C137.425 336.365 137.845 335.99 138.375 335.72C138.915 335.45 139.525 335.315 140.205 335.315ZM140.205 336.365C139.765 336.365 139.37 336.455 139.02 336.635C138.67 336.815 138.39 337.065 138.18 337.385C137.98 337.695 137.88 338.065 137.88 338.495C137.88 338.905 137.98 339.27 138.18 339.59C138.39 339.91 138.67 340.16 139.02 340.34C139.37 340.52 139.765 340.61 140.205 340.61C140.655 340.61 141.055 340.52 141.405 340.34C141.755 340.16 142.03 339.91 142.23 339.59C142.43 339.27 142.53 338.905 142.53 338.495C142.53 338.065 142.43 337.695 142.23 337.385C142.03 337.065 141.755 336.815 141.405 336.635C141.055 336.455 140.655 336.365 140.205 336.365Z" fill="#191F28"/>
        <path d="M98.063 354.914H98.943V360.667H98.063V354.914ZM96.16 355.112H97.029V360.557H96.16V355.112ZM94.576 357.334H96.457V358.093H94.576V357.334ZM90.99 355.629H94.829V359.93H90.99V355.629ZM93.971 356.344H91.848V359.237H93.971V356.344ZM92.409 361.162H98.943V364.726H92.409V361.162ZM98.041 361.888H93.3V363.978H98.041V361.888ZM107.951 354.903H108.853V364.869H107.951V354.903ZM105.333 358.599H108.215V359.347H105.333V358.599ZM101.065 355.684H101.978V358.269H104.739V355.684H105.63V362.361H101.065V355.684ZM101.978 358.995V361.613H104.739V358.995H101.978ZM116.723 364.109C116.186 364.109 115.712 364.014 115.301 363.824C114.892 363.632 114.573 363.367 114.344 363.031C114.115 362.693 114.001 362.307 114.004 361.875C114.001 361.536 114.068 361.224 114.203 360.937C114.339 360.648 114.523 360.408 114.758 360.215C114.995 360.02 115.259 359.896 115.551 359.844V359.797C115.168 359.698 114.863 359.483 114.637 359.152C114.41 358.819 114.298 358.44 114.301 358.016C114.298 357.609 114.401 357.246 114.609 356.926C114.818 356.605 115.104 356.353 115.469 356.168C115.836 355.983 116.254 355.891 116.723 355.891C117.186 355.891 117.6 355.983 117.965 356.168C118.329 356.353 118.616 356.605 118.824 356.926C119.035 357.246 119.142 357.609 119.145 358.016C119.142 358.44 119.026 358.819 118.797 359.152C118.57 359.483 118.27 359.698 117.895 359.797V359.844C118.184 359.896 118.444 360.02 118.676 360.215C118.908 360.408 119.092 360.648 119.23 360.937C119.368 361.224 119.439 361.536 119.441 361.875C119.439 362.307 119.322 362.693 119.09 363.031C118.861 363.367 118.542 363.632 118.133 363.824C117.727 364.014 117.257 364.109 116.723 364.109ZM116.723 363.25C117.085 363.25 117.397 363.191 117.66 363.074C117.923 362.957 118.126 362.792 118.27 362.578C118.413 362.365 118.486 362.115 118.488 361.828C118.486 361.526 118.408 361.259 118.254 361.027C118.1 360.796 117.891 360.613 117.625 360.48C117.362 360.348 117.061 360.281 116.723 360.281C116.382 360.281 116.077 360.348 115.809 360.48C115.543 360.613 115.333 360.796 115.18 361.027C115.029 361.259 114.954 361.526 114.957 361.828C114.954 362.115 115.023 362.365 115.164 362.578C115.307 362.792 115.512 362.957 115.777 363.074C116.043 363.191 116.358 363.25 116.723 363.25ZM116.723 359.453C117.009 359.453 117.263 359.396 117.484 359.281C117.708 359.167 117.884 359.007 118.012 358.801C118.139 358.595 118.204 358.354 118.207 358.078C118.204 357.807 118.141 357.572 118.016 357.371C117.891 357.168 117.717 357.012 117.496 356.902C117.275 356.79 117.017 356.734 116.723 356.734C116.423 356.734 116.161 356.79 115.938 356.902C115.714 357.012 115.54 357.168 115.418 357.371C115.296 357.572 115.236 357.807 115.238 358.078C115.236 358.354 115.297 358.595 115.422 358.801C115.549 359.007 115.725 359.167 115.949 359.281C116.173 359.396 116.431 359.453 116.723 359.453ZM125.401 356.52H128.272V357.257H125.401V356.52ZM125.401 358.489H128.294V359.237H125.401V358.489ZM127.931 354.903H128.844V360.788H127.931V354.903ZM121.122 355.662H125.654V360.084H121.122V355.662ZM124.763 356.399H122.013V359.347H124.763V356.399ZM125.566 361.085C126.593 361.085 127.4 361.25 127.986 361.58C128.58 361.91 128.877 362.372 128.877 362.966C128.877 363.56 128.58 364.018 127.986 364.341C127.4 364.671 126.593 364.836 125.566 364.836C124.54 364.836 123.729 364.671 123.135 364.341C122.549 364.018 122.255 363.56 122.255 362.966C122.255 362.372 122.549 361.91 123.135 361.58C123.729 361.25 124.54 361.085 125.566 361.085ZM125.566 361.8C125.068 361.8 124.639 361.848 124.279 361.943C123.92 362.031 123.641 362.163 123.443 362.339C123.253 362.508 123.157 362.717 123.157 362.966C123.157 363.201 123.253 363.406 123.443 363.582C123.641 363.751 123.92 363.883 124.279 363.978C124.639 364.073 125.068 364.121 125.566 364.121C126.072 364.121 126.501 364.073 126.853 363.978C127.213 363.883 127.488 363.751 127.678 363.582C127.876 363.406 127.975 363.201 127.975 362.966C127.975 362.717 127.876 362.508 127.678 362.339C127.488 362.163 127.213 362.031 126.853 361.943C126.501 361.848 126.072 361.8 125.566 361.8Z" fill="#8B95A1"/>
        <path d="M344 335H326C318.82 335 313 340.82 313 348C313 355.18 318.82 361 326 361H344C351.18 361 357 355.18 357 348C357 340.82 351.18 335 344 335Z" fill="#FF6B6B"/>
        <path d="M344 358C349.523 358 354 353.523 354 348C354 342.477 349.523 338 344 338C338.477 338 334 342.477 334 348C334 353.523 338.477 358 344 358Z" fill="white"/>
        <path d="M355 388H38C30.268 388 24 394.268 24 402V434C24 441.732 30.268 448 38 448H355C362.732 448 369 441.732 369 434V402C369 394.268 362.732 388 355 388Z" fill="#F7F8FA"/>
        <path d="M68 398H48C42.4772 398 38 402.477 38 408V428C38 433.523 42.4772 438 48 438H68C73.5228 438 78 433.523 78 428V408C78 402.477 73.5228 398 68 398Z" fill="#FFF0E0"/>
        <path d="M94.62 412.74H95.865V414.975H94.62V412.74ZM100.56 404.595H101.805V418.17H100.56V404.595ZM91.005 415.59L90.825 414.54C91.685 414.53 92.615 414.52 93.615 414.51C94.615 414.5 95.635 414.465 96.675 414.405C97.715 414.345 98.72 414.25 99.69 414.12L99.78 415.05C98.78 415.21 97.765 415.33 96.735 415.41C95.705 415.48 94.7 415.53 93.72 415.56C92.74 415.58 91.835 415.59 91.005 415.59ZM91.11 406.26H99.345V407.265H91.11V406.26ZM95.22 408.03C95.87 408.03 96.44 408.135 96.93 408.345C97.42 408.555 97.8 408.85 98.07 409.23C98.35 409.6 98.49 410.04 98.49 410.55C98.49 411.05 98.35 411.49 98.07 411.87C97.8 412.25 97.42 412.545 96.93 412.755C96.44 412.955 95.87 413.055 95.22 413.055C94.58 413.055 94.015 412.955 93.525 412.755C93.035 412.545 92.655 412.25 92.385 411.87C92.115 411.49 91.98 411.05 91.98 410.55C91.98 410.04 92.115 409.6 92.385 409.23C92.655 408.85 93.035 408.555 93.525 408.345C94.015 408.135 94.58 408.03 95.22 408.03ZM95.22 409.005C94.62 409.005 94.125 409.145 93.735 409.425C93.345 409.705 93.15 410.08 93.15 410.55C93.15 411.01 93.345 411.38 93.735 411.66C94.125 411.94 94.62 412.08 95.22 412.08C95.84 412.08 96.34 411.94 96.72 411.66C97.11 411.38 97.305 411.01 97.305 410.55C97.305 410.08 97.11 409.705 96.72 409.425C96.34 409.145 95.84 409.005 95.22 409.005ZM94.62 404.61H95.865V406.8H94.62V404.61ZM107.864 405.765H108.884V408.195C108.884 408.945 108.789 409.68 108.599 410.4C108.419 411.12 108.159 411.795 107.819 412.425C107.479 413.055 107.079 413.615 106.619 414.105C106.159 414.595 105.659 414.985 105.119 415.275L104.354 414.27C104.854 414.02 105.314 413.685 105.734 413.265C106.164 412.835 106.539 412.345 106.859 411.795C107.179 411.245 107.424 410.665 107.594 410.055C107.774 409.435 107.864 408.815 107.864 408.195V405.765ZM108.089 405.765H109.094V408.195C109.094 408.795 109.179 409.39 109.349 409.98C109.529 410.57 109.779 411.125 110.099 411.645C110.419 412.165 110.784 412.63 111.194 413.04C111.614 413.45 112.064 413.775 112.544 414.015L111.779 415.005C111.249 414.735 110.759 414.365 110.309 413.895C109.869 413.425 109.479 412.89 109.139 412.29C108.809 411.68 108.549 411.03 108.359 410.34C108.179 409.64 108.089 408.925 108.089 408.195V405.765ZM113.729 404.595H114.974V418.17H113.729V404.595ZM114.689 410.085H117.194V411.15H114.689V410.085ZM122.566 411.285H134.836V412.29H122.566V411.285ZM128.086 409.11H129.301V411.705H128.086V409.11ZM124.111 408.72H133.396V409.725H124.111V408.72ZM124.111 405.225H133.306V406.215H125.341V409.32H124.111V405.225ZM128.686 413.265C130.136 413.265 131.271 413.48 132.091 413.91C132.911 414.33 133.321 414.93 133.321 415.71C133.321 416.49 132.911 417.09 132.091 417.51C131.271 417.94 130.136 418.155 128.686 418.155C127.236 418.155 126.096 417.94 125.266 417.51C124.446 417.09 124.036 416.49 124.036 415.71C124.036 414.93 124.446 414.33 125.266 413.91C126.096 413.48 127.236 413.265 128.686 413.265ZM128.671 414.24C127.971 414.24 127.366 414.3 126.856 414.42C126.356 414.53 125.971 414.695 125.701 414.915C125.431 415.125 125.296 415.39 125.296 415.71C125.296 416.02 125.431 416.285 125.701 416.505C125.971 416.725 126.356 416.89 126.856 417C127.366 417.12 127.971 417.18 128.671 417.18C129.391 417.18 130.001 417.12 130.501 417C131.011 416.89 131.401 416.725 131.671 416.505C131.941 416.285 132.076 416.02 132.076 415.71C132.076 415.39 131.941 415.125 131.671 414.915C131.401 414.695 131.011 414.53 130.501 414.42C130.001 414.3 129.391 414.24 128.671 414.24ZM146.25 404.595H147.495V418.17H146.25V404.595ZM142.275 406.065H143.505C143.505 407.045 143.385 407.99 143.145 408.9C142.915 409.81 142.55 410.675 142.05 411.495C141.55 412.305 140.9 413.06 140.1 413.76C139.3 414.46 138.33 415.085 137.19 415.635L136.53 414.63C137.84 414 138.92 413.265 139.77 412.425C140.62 411.585 141.25 410.65 141.66 409.62C142.07 408.58 142.275 407.46 142.275 406.26V406.065ZM137.16 406.065H142.8V407.07H137.16V406.065Z" fill="#191F28"/>
        <path d="M98.063 424.914H98.943V430.667H98.063V424.914ZM96.16 425.112H97.029V430.557H96.16V425.112ZM94.576 427.334H96.457V428.093H94.576V427.334ZM90.99 425.629H94.829V429.93H90.99V425.629ZM93.971 426.344H91.848V429.237H93.971V426.344ZM92.409 431.162H98.943V434.726H92.409V431.162ZM98.041 431.888H93.3V433.978H98.041V431.888ZM107.951 424.903H108.853V434.869H107.951V424.903ZM105.333 428.599H108.215V429.347H105.333V428.599ZM101.065 425.684H101.978V428.269H104.739V425.684H105.63V432.361H101.065V425.684ZM101.978 428.995V431.613H104.739V428.995H101.978ZM113.973 432.359V431.562L117.488 426H118.066V427.234H117.676L115.02 431.437V431.5H119.754V432.359H113.973ZM117.738 434V432.117V431.746V426H118.66V434H117.738ZM125.681 426.52H128.552V427.257H125.681V426.52ZM125.681 428.489H128.574V429.237H125.681V428.489ZM128.211 424.903H129.124V430.788H128.211V424.903ZM121.402 425.662H125.934V430.084H121.402V425.662ZM125.043 426.399H122.293V429.347H125.043V426.399ZM125.846 431.085C126.872 431.085 127.679 431.25 128.266 431.58C128.86 431.91 129.157 432.372 129.157 432.966C129.157 433.56 128.86 434.018 128.266 434.341C127.679 434.671 126.872 434.836 125.846 434.836C124.819 434.836 124.009 434.671 123.415 434.341C122.828 434.018 122.535 433.56 122.535 432.966C122.535 432.372 122.828 431.91 123.415 431.58C124.009 431.25 124.819 431.085 125.846 431.085ZM125.846 431.8C125.347 431.8 124.918 431.848 124.559 431.943C124.199 432.031 123.921 432.163 123.723 432.339C123.532 432.508 123.437 432.717 123.437 432.966C123.437 433.201 123.532 433.406 123.723 433.582C123.921 433.751 124.199 433.883 124.559 433.978C124.918 434.073 125.347 434.121 125.846 434.121C126.352 434.121 126.781 434.073 127.133 433.978C127.492 433.883 127.767 433.751 127.958 433.582C128.156 433.406 128.255 433.201 128.255 432.966C128.255 432.717 128.156 432.508 127.958 432.339C127.767 432.163 127.492 432.031 127.133 431.943C126.781 431.848 126.352 431.8 125.846 431.8Z" fill="#8B95A1"/>
        <path d="M344 405H326C318.82 405 313 410.82 313 418C313 425.18 318.82 431 326 431H344C351.18 431 357 425.18 357 418C357 410.82 351.18 405 344 405Z" fill="#E5E8EB"/>
        <path d="M326 428C331.523 428 336 423.523 336 418C336 412.477 331.523 408 326 408C320.477 408 316 412.477 316 418C316 423.523 320.477 428 326 428Z" fill="white"/>
        <path d="M24 478H369" stroke="#F2F3F5"/>
        <path d="M133.451 834.545C133.408 834.186 133.235 833.906 132.932 833.707C132.629 833.509 132.258 833.409 131.817 833.409C131.495 833.409 131.214 833.461 130.972 833.565C130.733 833.67 130.546 833.813 130.411 833.995C130.278 834.177 130.212 834.384 130.212 834.616C130.212 834.811 130.258 834.978 130.351 835.117C130.445 835.254 130.566 835.369 130.713 835.462C130.86 835.552 131.013 835.626 131.174 835.685C131.335 835.742 131.483 835.788 131.618 835.824L132.357 836.023C132.546 836.072 132.757 836.141 132.989 836.229C133.223 836.316 133.447 836.436 133.66 836.587C133.876 836.737 134.053 836.928 134.193 837.163C134.333 837.397 134.402 837.685 134.402 838.026C134.402 838.419 134.299 838.774 134.093 839.091C133.89 839.408 133.592 839.66 133.199 839.847C132.808 840.034 132.333 840.128 131.775 840.128C131.254 840.128 130.803 840.044 130.422 839.876C130.043 839.708 129.745 839.473 129.527 839.173C129.311 838.872 129.189 838.523 129.161 838.125H130.07C130.094 838.4 130.186 838.627 130.347 838.807C130.51 838.984 130.716 839.117 130.965 839.205C131.216 839.29 131.486 839.332 131.775 839.332C132.111 839.332 132.413 839.278 132.68 839.169C132.948 839.058 133.16 838.904 133.316 838.707C133.472 838.509 133.55 838.277 133.55 838.011C133.55 837.77 133.483 837.573 133.348 837.422C133.213 837.27 133.035 837.147 132.815 837.053C132.595 836.958 132.357 836.875 132.101 836.804L131.206 836.548C130.638 836.385 130.188 836.152 129.857 835.849C129.526 835.546 129.36 835.149 129.36 834.659C129.36 834.252 129.47 833.897 129.69 833.594C129.913 833.288 130.211 833.052 130.585 832.884C130.961 832.713 131.382 832.628 131.846 832.628C132.314 832.628 132.731 832.712 133.096 832.88C133.46 833.046 133.749 833.273 133.962 833.562C134.178 833.851 134.291 834.179 134.303 834.545H133.451ZM138.052 840.099C137.564 840.099 137.134 840.013 136.759 839.84C136.388 839.665 136.098 839.425 135.889 839.119C135.681 838.812 135.578 838.461 135.581 838.068C135.578 837.76 135.639 837.476 135.762 837.216C135.885 836.953 136.053 836.734 136.266 836.559C136.481 836.381 136.722 836.269 136.987 836.222V836.179C136.639 836.089 136.362 835.894 136.156 835.593C135.95 835.29 135.848 834.946 135.85 834.56C135.848 834.19 135.942 833.86 136.131 833.569C136.32 833.278 136.581 833.048 136.912 832.88C137.246 832.712 137.626 832.628 138.052 832.628C138.474 832.628 138.85 832.712 139.181 832.88C139.513 833.048 139.773 833.278 139.963 833.569C140.154 833.86 140.251 834.19 140.254 834.56C140.251 834.946 140.146 835.29 139.938 835.593C139.732 835.894 139.458 836.089 139.117 836.179V836.222C139.38 836.269 139.617 836.381 139.828 836.559C140.038 836.734 140.206 836.953 140.332 837.216C140.457 837.476 140.521 837.76 140.524 838.068C140.521 838.461 140.415 838.812 140.204 839.119C139.996 839.425 139.706 839.665 139.334 839.84C138.965 840.013 138.537 840.099 138.052 840.099ZM138.052 839.318C138.381 839.318 138.665 839.265 138.904 839.158C139.143 839.052 139.328 838.902 139.458 838.707C139.589 838.513 139.655 838.286 139.657 838.026C139.655 837.751 139.584 837.508 139.444 837.298C139.304 837.087 139.114 836.921 138.872 836.8C138.633 836.68 138.36 836.619 138.052 836.619C137.742 836.619 137.465 836.68 137.221 836.8C136.98 836.921 136.789 837.087 136.649 837.298C136.512 837.508 136.445 837.751 136.447 838.026C136.445 838.286 136.507 838.513 136.635 838.707C136.765 838.902 136.951 839.052 137.193 839.158C137.434 839.265 137.721 839.318 138.052 839.318ZM138.052 835.866C138.313 835.866 138.543 835.814 138.745 835.71C138.948 835.606 139.108 835.46 139.224 835.273C139.34 835.086 139.399 834.867 139.402 834.616C139.399 834.37 139.341 834.156 139.228 833.974C139.114 833.789 138.956 833.647 138.755 833.548C138.554 833.446 138.32 833.395 138.052 833.395C137.78 833.395 137.542 833.446 137.338 833.548C137.135 833.647 136.977 833.789 136.866 833.974C136.755 834.156 136.7 834.37 136.703 834.616C136.7 834.867 136.756 835.086 136.87 835.273C136.986 835.46 137.145 835.606 137.349 835.71C137.553 835.814 137.787 835.866 138.052 835.866ZM145.024 835.973V836.754H141.842V835.973H145.024ZM146.142 840V839.361L148.543 836.733C148.825 836.425 149.057 836.158 149.239 835.93C149.421 835.701 149.556 835.485 149.644 835.284C149.734 835.08 149.779 834.867 149.779 834.645C149.779 834.389 149.717 834.168 149.594 833.981C149.473 833.794 149.308 833.649 149.097 833.548C148.886 833.446 148.65 833.395 148.387 833.395C148.107 833.395 147.864 833.453 147.655 833.569C147.449 833.683 147.29 833.842 147.176 834.048C147.065 834.254 147.009 834.496 147.009 834.773H146.171C146.171 834.347 146.269 833.973 146.466 833.651C146.662 833.329 146.93 833.078 147.268 832.898C147.609 832.718 147.991 832.628 148.415 832.628C148.841 832.628 149.219 832.718 149.548 832.898C149.877 833.078 150.135 833.32 150.322 833.626C150.509 833.931 150.603 834.271 150.603 834.645C150.603 834.912 150.554 835.174 150.457 835.43C150.362 835.683 150.197 835.966 149.96 836.278C149.726 836.589 149.4 836.967 148.983 837.415L147.35 839.162V839.219H150.731V840H146.142ZM164.257 835.973V836.754H154.257V835.973H164.257ZM173.717 832.727V840H172.865L168.902 834.29H168.831V840H167.95V832.727H168.802L172.78 838.452H172.851V832.727H173.717ZM177.582 840.114C177.089 840.114 176.657 839.996 176.285 839.762C175.916 839.528 175.627 839.2 175.419 838.778C175.213 838.357 175.11 837.865 175.11 837.301C175.11 836.733 175.213 836.237 175.419 835.813C175.627 835.389 175.916 835.06 176.285 834.826C176.657 834.592 177.089 834.474 177.582 834.474C178.074 834.474 178.505 834.592 178.874 834.826C179.246 835.06 179.535 835.389 179.741 835.813C179.949 836.237 180.053 836.733 180.053 837.301C180.053 837.865 179.949 838.357 179.741 838.778C179.535 839.2 179.246 839.528 178.874 839.762C178.505 839.996 178.074 840.114 177.582 840.114ZM177.582 839.361C177.956 839.361 178.263 839.265 178.505 839.073C178.746 838.881 178.925 838.629 179.041 838.317C179.157 838.004 179.215 837.666 179.215 837.301C179.215 836.937 179.157 836.597 179.041 836.282C178.925 835.967 178.746 835.713 178.505 835.518C178.263 835.324 177.956 835.227 177.582 835.227C177.208 835.227 176.9 835.324 176.658 835.518C176.417 835.713 176.238 835.967 176.122 836.282C176.006 836.597 175.948 836.937 175.948 837.301C175.948 837.666 176.006 838.004 176.122 838.317C176.238 838.629 176.417 838.881 176.658 839.073C176.9 839.265 177.208 839.361 177.582 839.361ZM183.705 834.545V835.256H180.878V834.545H183.705ZM181.702 833.239H182.54V838.438C182.54 838.674 182.574 838.852 182.643 838.97C182.714 839.086 182.804 839.164 182.913 839.205C183.024 839.242 183.141 839.261 183.264 839.261C183.357 839.261 183.432 839.257 183.492 839.247C183.551 839.235 183.598 839.226 183.634 839.219L183.804 839.972C183.747 839.993 183.668 840.014 183.566 840.036C183.464 840.059 183.335 840.071 183.179 840.071C182.942 840.071 182.71 840.02 182.483 839.918C182.258 839.817 182.071 839.661 181.922 839.453C181.775 839.245 181.702 838.982 181.702 838.665V833.239ZM184.965 840V834.545H185.803V840H184.965ZM185.391 833.636C185.228 833.636 185.087 833.581 184.969 833.469C184.853 833.358 184.795 833.224 184.795 833.068C184.795 832.912 184.853 832.778 184.969 832.667C185.087 832.556 185.228 832.5 185.391 832.5C185.555 832.5 185.694 832.556 185.81 832.667C185.929 832.778 185.988 832.912 185.988 833.068C185.988 833.224 185.929 833.358 185.81 833.469C185.694 833.581 185.555 833.636 185.391 833.636ZM189.767 834.545V835.256H186.827V834.545H189.767ZM187.708 840V833.793C187.708 833.48 187.781 833.22 187.928 833.011C188.075 832.803 188.265 832.647 188.5 832.543C188.734 832.438 188.981 832.386 189.242 832.386C189.448 832.386 189.616 832.403 189.746 832.436C189.876 832.469 189.973 832.5 190.037 832.528L189.796 833.253C189.753 833.239 189.694 833.221 189.618 833.2C189.545 833.178 189.448 833.168 189.327 833.168C189.05 833.168 188.85 833.237 188.727 833.377C188.606 833.517 188.546 833.722 188.546 833.991V840H187.708ZM190.942 840V834.545H191.78V840H190.942ZM191.368 833.636C191.205 833.636 191.064 833.581 190.945 833.469C190.829 833.358 190.771 833.224 190.771 833.068C190.771 832.912 190.829 832.778 190.945 832.667C191.064 832.556 191.205 832.5 191.368 832.5C191.531 832.5 191.671 832.556 191.787 832.667C191.905 832.778 191.965 832.912 191.965 833.068C191.965 833.224 191.905 833.358 191.787 833.469C191.671 833.581 191.531 833.636 191.368 833.636ZM195.531 840.114C195.019 840.114 194.579 839.993 194.21 839.751C193.84 839.51 193.556 839.177 193.358 838.754C193.159 838.33 193.059 837.846 193.059 837.301C193.059 836.747 193.161 836.258 193.365 835.835C193.571 835.408 193.857 835.076 194.224 834.837C194.593 834.595 195.024 834.474 195.517 834.474C195.9 834.474 196.246 834.545 196.554 834.688C196.861 834.83 197.113 835.028 197.31 835.284C197.506 835.54 197.628 835.838 197.676 836.179H196.838C196.774 835.93 196.632 835.71 196.411 835.518C196.194 835.324 195.9 835.227 195.531 835.227C195.204 835.227 194.918 835.312 194.671 835.483C194.428 835.651 194.237 835.889 194.1 836.197C193.965 836.502 193.897 836.861 193.897 837.273C193.897 837.694 193.964 838.061 194.096 838.374C194.231 838.686 194.42 838.929 194.664 839.102C194.911 839.274 195.199 839.361 195.531 839.361C195.749 839.361 195.946 839.323 196.124 839.247C196.301 839.171 196.452 839.062 196.575 838.92C196.698 838.778 196.786 838.608 196.838 838.409H197.676C197.628 838.731 197.511 839.021 197.324 839.279C197.139 839.535 196.894 839.738 196.589 839.89C196.286 840.039 195.933 840.114 195.531 840.114ZM200.506 840.128C200.16 840.128 199.847 840.063 199.565 839.933C199.283 839.8 199.059 839.609 198.894 839.361C198.728 839.11 198.645 838.807 198.645 838.452C198.645 838.139 198.707 837.886 198.83 837.692C198.953 837.495 199.117 837.341 199.323 837.23C199.529 837.119 199.757 837.036 200.005 836.982C200.256 836.925 200.508 836.88 200.762 836.847C201.093 836.804 201.362 836.772 201.568 836.751C201.776 836.727 201.928 836.688 202.022 836.634C202.119 836.579 202.168 836.484 202.168 836.349V836.321C202.168 835.971 202.072 835.698 201.88 835.504C201.691 835.31 201.403 835.213 201.017 835.213C200.617 835.213 200.304 835.301 200.076 835.476C199.849 835.651 199.689 835.838 199.597 836.037L198.801 835.753C198.943 835.421 199.133 835.163 199.37 834.979C199.609 834.792 199.869 834.661 200.151 834.588C200.435 834.512 200.714 834.474 200.989 834.474C201.164 834.474 201.365 834.496 201.593 834.538C201.822 834.579 202.044 834.663 202.257 834.79C202.472 834.918 202.651 835.111 202.793 835.369C202.935 835.627 203.006 835.973 203.006 836.406V840H202.168V839.261H202.125C202.068 839.38 201.974 839.506 201.841 839.641C201.709 839.776 201.532 839.891 201.312 839.986C201.092 840.08 200.823 840.128 200.506 840.128ZM200.634 839.375C200.965 839.375 201.245 839.31 201.472 839.18C201.701 839.049 201.874 838.881 201.99 838.675C202.109 838.469 202.168 838.253 202.168 838.026V837.259C202.132 837.301 202.054 837.34 201.934 837.376C201.815 837.409 201.678 837.438 201.522 837.464C201.368 837.488 201.217 837.509 201.071 837.528C200.926 837.545 200.809 837.559 200.719 837.571C200.501 837.599 200.298 837.646 200.108 837.71C199.921 837.771 199.77 837.865 199.654 837.99C199.54 838.113 199.483 838.281 199.483 838.494C199.483 838.786 199.591 839.006 199.806 839.155C200.024 839.302 200.3 839.375 200.634 839.375ZM206.908 834.545V835.256H204.081V834.545H206.908ZM204.905 833.239H205.743V838.438C205.743 838.674 205.777 838.852 205.846 838.97C205.917 839.086 206.007 839.164 206.116 839.205C206.227 839.242 206.344 839.261 206.467 839.261C206.56 839.261 206.636 839.257 206.695 839.247C206.754 839.235 206.801 839.226 206.837 839.219L207.007 839.972C206.95 839.993 206.871 840.014 206.769 840.036C206.667 840.059 206.538 840.071 206.382 840.071C206.145 840.071 205.913 840.02 205.686 839.918C205.461 839.817 205.274 839.661 205.125 839.453C204.978 839.245 204.905 838.982 204.905 838.665V833.239ZM208.168 840V834.545H209.006V840H208.168ZM208.595 833.636C208.431 833.636 208.29 833.581 208.172 833.469C208.056 833.358 207.998 833.224 207.998 833.068C207.998 832.912 208.056 832.778 208.172 832.667C208.29 832.556 208.431 832.5 208.595 832.5C208.758 832.5 208.898 832.556 209.014 832.667C209.132 832.778 209.191 832.912 209.191 833.068C209.191 833.224 209.132 833.358 209.014 833.469C208.898 833.581 208.758 833.636 208.595 833.636ZM212.757 840.114C212.265 840.114 211.833 839.996 211.461 839.762C211.092 839.528 210.803 839.2 210.595 838.778C210.389 838.357 210.286 837.865 210.286 837.301C210.286 836.733 210.389 836.237 210.595 835.813C210.803 835.389 211.092 835.06 211.461 834.826C211.833 834.592 212.265 834.474 212.757 834.474C213.25 834.474 213.681 834.592 214.05 834.826C214.422 835.06 214.71 835.389 214.916 835.813C215.125 836.237 215.229 836.733 215.229 837.301C215.229 837.865 215.125 838.357 214.916 838.778C214.71 839.2 214.422 839.528 214.05 839.762C213.681 839.996 213.25 840.114 212.757 840.114ZM212.757 839.361C213.131 839.361 213.439 839.265 213.681 839.073C213.922 838.881 214.101 838.629 214.217 838.317C214.333 838.004 214.391 837.666 214.391 837.301C214.391 836.937 214.333 836.597 214.217 836.282C214.101 835.967 213.922 835.713 213.681 835.518C213.439 835.324 213.131 835.227 212.757 835.227C212.383 835.227 212.076 835.324 211.834 835.518C211.593 835.713 211.414 835.967 211.298 836.282C211.182 836.597 211.124 836.937 211.124 837.301C211.124 837.666 211.182 838.004 211.298 838.317C211.414 838.629 211.593 838.881 211.834 839.073C212.076 839.265 212.383 839.361 212.757 839.361ZM217.346 836.719V840H216.508V834.545H217.318V835.398H217.389C217.517 835.121 217.711 834.898 217.971 834.73C218.232 834.56 218.568 834.474 218.98 834.474C219.349 834.474 219.672 834.55 219.949 834.702C220.226 834.851 220.442 835.078 220.596 835.384C220.749 835.687 220.826 836.07 220.826 836.534V840H219.988V836.591C219.988 836.162 219.877 835.829 219.655 835.589C219.432 835.348 219.127 835.227 218.738 835.227C218.471 835.227 218.232 835.285 218.021 835.401C217.813 835.517 217.648 835.687 217.527 835.909C217.407 836.132 217.346 836.402 217.346 836.719ZM229.261 834.545C229.219 834.186 229.046 833.906 228.743 833.707C228.44 833.509 228.068 833.409 227.628 833.409C227.306 833.409 227.024 833.461 226.783 833.565C226.543 833.67 226.356 833.813 226.222 833.995C226.089 834.177 226.023 834.384 226.023 834.616C226.023 834.811 226.069 834.978 226.161 835.117C226.256 835.254 226.377 835.369 226.523 835.462C226.67 835.552 226.824 835.626 226.985 835.685C227.146 835.742 227.294 835.788 227.429 835.824L228.168 836.023C228.357 836.072 228.568 836.141 228.8 836.229C229.034 836.316 229.258 836.436 229.471 836.587C229.686 836.737 229.864 836.928 230.003 837.163C230.143 837.397 230.213 837.685 230.213 838.026C230.213 838.419 230.11 838.774 229.904 839.091C229.7 839.408 229.402 839.66 229.009 839.847C228.619 840.034 228.144 840.128 227.585 840.128C227.064 840.128 226.613 840.044 226.232 839.876C225.853 839.708 225.555 839.473 225.337 839.173C225.122 838.872 225 838.523 224.972 838.125H225.881C225.904 838.4 225.997 838.627 226.158 838.807C226.321 838.984 226.527 839.117 226.775 839.205C227.026 839.29 227.296 839.332 227.585 839.332C227.921 839.332 228.223 839.278 228.491 839.169C228.758 839.058 228.97 838.904 229.126 838.707C229.283 838.509 229.361 838.277 229.361 838.011C229.361 837.77 229.293 837.573 229.158 837.422C229.023 837.27 228.846 837.147 228.626 837.053C228.405 836.958 228.168 836.875 227.912 836.804L227.017 836.548C226.449 836.385 225.999 836.152 225.668 835.849C225.336 835.546 225.17 835.149 225.17 834.659C225.17 834.252 225.28 833.897 225.501 833.594C225.723 833.288 226.021 833.052 226.396 832.884C226.772 832.713 227.192 832.628 227.656 832.628C228.125 832.628 228.542 832.712 228.906 832.88C229.271 833.046 229.56 833.273 229.773 833.562C229.988 833.851 230.102 834.179 230.114 834.545H229.261ZM233.834 840.114C233.309 840.114 232.855 839.998 232.474 839.766C232.095 839.531 231.803 839.205 231.597 838.786C231.393 838.364 231.292 837.874 231.292 837.315C231.292 836.757 231.393 836.264 231.597 835.838C231.803 835.41 232.089 835.076 232.456 834.837C232.826 834.595 233.257 834.474 233.749 834.474C234.033 834.474 234.314 834.522 234.591 834.616C234.868 834.711 235.12 834.865 235.347 835.078C235.574 835.289 235.755 835.568 235.89 835.916C236.025 836.264 236.093 836.693 236.093 837.202V837.557H231.888V836.832H235.241C235.241 836.525 235.179 836.25 235.056 836.009C234.935 835.767 234.762 835.576 234.537 835.437C234.315 835.297 234.052 835.227 233.749 835.227C233.415 835.227 233.126 835.31 232.883 835.476C232.641 835.639 232.455 835.852 232.325 836.115C232.195 836.378 232.13 836.66 232.13 836.96V837.443C232.13 837.855 232.201 838.204 232.343 838.491C232.487 838.775 232.687 838.991 232.943 839.141C233.199 839.287 233.496 839.361 233.834 839.361C234.054 839.361 234.253 839.33 234.431 839.268C234.611 839.205 234.766 839.11 234.896 838.984C235.026 838.857 235.127 838.698 235.198 838.509L236.008 838.736C235.922 839.01 235.779 839.252 235.578 839.46C235.377 839.666 235.128 839.827 234.832 839.943C234.536 840.057 234.204 840.114 233.834 840.114ZM239.74 834.545V835.256H236.913V834.545H239.74ZM237.737 833.239H238.575V838.438C238.575 838.674 238.609 838.852 238.678 838.97C238.749 839.086 238.839 839.164 238.948 839.205C239.059 839.242 239.176 839.261 239.299 839.261C239.392 839.261 239.468 839.257 239.527 839.247C239.586 839.235 239.633 839.226 239.669 839.219L239.839 839.972C239.782 839.993 239.703 840.014 239.601 840.036C239.499 840.059 239.37 840.071 239.214 840.071C238.977 840.071 238.745 840.02 238.518 839.918C238.293 839.817 238.106 839.661 237.957 839.453C237.81 839.245 237.737 838.982 237.737 838.665V833.239ZM243.373 834.545V835.256H240.546V834.545H243.373ZM241.37 833.239H242.208V838.438C242.208 838.674 242.242 838.852 242.311 838.97C242.382 839.086 242.472 839.164 242.581 839.205C242.692 839.242 242.809 839.261 242.932 839.261C243.025 839.261 243.1 839.257 243.16 839.247C243.219 839.235 243.266 839.226 243.302 839.219L243.472 839.972C243.415 839.993 243.336 840.014 243.234 840.036C243.132 840.059 243.003 840.071 242.847 840.071C242.61 840.071 242.378 840.02 242.151 839.918C241.926 839.817 241.739 839.661 241.59 839.453C241.443 839.245 241.37 838.982 241.37 838.665V833.239ZM244.633 840V834.545H245.471V840H244.633ZM245.059 833.636C244.896 833.636 244.755 833.581 244.637 833.469C244.521 833.358 244.463 833.224 244.463 833.068C244.463 832.912 244.521 832.778 244.637 832.667C244.755 832.556 244.896 832.5 245.059 832.5C245.223 832.5 245.362 832.556 245.478 832.667C245.597 832.778 245.656 832.912 245.656 833.068C245.656 833.224 245.597 833.358 245.478 833.469C245.362 833.581 245.223 833.636 245.059 833.636ZM247.844 836.719V840H247.006V834.545H247.816V835.398H247.887C248.015 835.121 248.209 834.898 248.469 834.73C248.73 834.56 249.066 834.474 249.478 834.474C249.847 834.474 250.17 834.55 250.447 834.702C250.724 834.851 250.94 835.078 251.094 835.384C251.248 835.687 251.324 836.07 251.324 836.534V840H250.486V836.591C250.486 836.162 250.375 835.829 250.153 835.589C249.93 835.348 249.625 835.227 249.236 835.227C248.969 835.227 248.73 835.285 248.519 835.401C248.311 835.517 248.146 835.687 248.025 835.909C247.905 836.132 247.844 836.402 247.844 836.719ZM255.058 842.159C254.653 842.159 254.305 842.107 254.014 842.003C253.722 841.901 253.48 841.766 253.286 841.598C253.094 841.432 252.941 841.255 252.828 841.065L253.495 840.597C253.571 840.696 253.667 840.81 253.783 840.938C253.899 841.068 254.057 841.18 254.259 841.275C254.462 841.372 254.729 841.42 255.058 841.42C255.498 841.42 255.861 841.314 256.148 841.101C256.434 840.888 256.578 840.554 256.578 840.099V838.991H256.506C256.445 839.091 256.357 839.214 256.244 839.361C256.132 839.505 255.971 839.634 255.761 839.748C255.552 839.859 255.271 839.915 254.916 839.915C254.475 839.915 254.08 839.811 253.729 839.602C253.381 839.394 253.106 839.091 252.902 838.693C252.701 838.295 252.6 837.812 252.6 837.244C252.6 836.686 252.698 836.199 252.895 835.785C253.091 835.368 253.365 835.046 253.715 834.819C254.066 834.589 254.47 834.474 254.93 834.474C255.285 834.474 255.567 834.534 255.775 834.652C255.986 834.768 256.147 834.901 256.258 835.05C256.372 835.196 256.459 835.317 256.521 835.412H256.606V834.545H257.416V840.156C257.416 840.625 257.309 841.006 257.096 841.3C256.885 841.596 256.601 841.812 256.244 841.95C255.889 842.089 255.493 842.159 255.058 842.159ZM255.029 839.162C255.365 839.162 255.649 839.085 255.881 838.931C256.113 838.777 256.29 838.556 256.411 838.267C256.531 837.978 256.592 837.633 256.592 837.23C256.592 836.837 256.533 836.49 256.414 836.19C256.296 835.889 256.121 835.653 255.889 835.483C255.657 835.312 255.37 835.227 255.029 835.227C254.674 835.227 254.378 835.317 254.141 835.497C253.907 835.677 253.731 835.919 253.612 836.222C253.496 836.525 253.438 836.861 253.438 837.23C253.438 837.609 253.497 837.944 253.616 838.235C253.737 838.524 253.914 838.751 254.149 838.917C254.385 839.08 254.679 839.162 255.029 839.162ZM262.813 835.767L262.06 835.98C262.013 835.855 261.943 835.733 261.851 835.614C261.761 835.494 261.638 835.394 261.482 835.316C261.325 835.238 261.125 835.199 260.881 835.199C260.548 835.199 260.27 835.276 260.047 835.43C259.827 835.581 259.717 835.774 259.717 836.009C259.717 836.217 259.792 836.381 259.944 836.502C260.095 836.623 260.332 836.723 260.654 836.804L261.464 837.003C261.952 837.121 262.315 837.302 262.554 837.546C262.793 837.788 262.913 838.099 262.913 838.48C262.913 838.793 262.823 839.072 262.643 839.318C262.465 839.564 262.217 839.759 261.897 839.901C261.578 840.043 261.206 840.114 260.782 840.114C260.226 840.114 259.765 839.993 259.401 839.751C259.036 839.51 258.805 839.157 258.708 838.693L259.504 838.494C259.579 838.788 259.723 839.008 259.933 839.155C260.146 839.302 260.425 839.375 260.768 839.375C261.158 839.375 261.469 839.292 261.698 839.126C261.93 838.958 262.046 838.757 262.046 838.523C262.046 838.333 261.98 838.175 261.847 838.047C261.715 837.917 261.511 837.82 261.237 837.756L260.328 837.543C259.828 837.424 259.461 837.241 259.227 836.992C258.995 836.741 258.879 836.428 258.879 836.051C258.879 835.743 258.965 835.471 259.138 835.234C259.313 834.998 259.551 834.812 259.852 834.677C260.155 834.542 260.498 834.474 260.881 834.474C261.421 834.474 261.845 834.593 262.153 834.83C262.463 835.066 262.683 835.379 262.813 835.767Z" fill="#D1D6DB"/>
    </g>
    <defs>
        <clipPath id="clip0_54_230">
            <rect width="393" height="852" fill="white"/>
        </clipPath>
    </defs>
</svg>
