
<svg width="393" height="852" viewBox="0 0 393 852" fill="none" xmlns="http://www.w3.org/2000/svg">
    <g clip-path="url(#clip0_48_2)">
        <path d="M393 0H0V852H393V0Z" fill="white"/>
        <path d="M36.8313 23.9418C37.3924 23.9418 37.9322 24.0359 38.4506 24.2241C38.9727 24.4123 39.4379 24.7124 39.8462 25.1243C40.2582 25.5362 40.5831 26.0831 40.821 26.7649C41.0625 27.4432 41.185 28.2759 41.1886 29.2631C41.1886 30.19 41.0838 31.0174 40.8743 31.7454C40.6683 32.4698 40.3718 33.0859 39.9847 33.5938C39.5977 34.1016 39.1307 34.4886 38.5838 34.755C38.0369 35.0178 37.4261 35.1491 36.7514 35.1491C36.0234 35.1491 35.3807 35.0089 34.8232 34.7283C34.2656 34.4442 33.8164 34.0589 33.4755 33.5724C33.1381 33.0824 32.9339 32.532 32.8629 31.9212H35.1374C35.2262 32.3189 35.4126 32.6278 35.6967 32.848C35.9808 33.0646 36.3324 33.1729 36.7514 33.1729C37.4616 33.1729 38.0014 32.864 38.3707 32.2461C38.7401 31.6246 38.9265 30.7741 38.93 29.6946H38.8555C38.6921 30.0142 38.4719 30.2894 38.195 30.5202C37.918 30.7475 37.6001 30.9233 37.2415 31.0476C36.8864 31.1719 36.5082 31.234 36.1069 31.234C35.4641 31.234 34.8906 31.0831 34.3864 30.7812C33.8821 30.4794 33.4844 30.0639 33.1932 29.5348C32.902 29.0057 32.7564 28.402 32.7564 27.7237C32.7528 26.9922 32.9215 26.3406 33.2624 25.7688C33.6033 25.1971 34.0792 24.7496 34.69 24.4265C35.3043 24.0998 36.0181 23.9382 36.8313 23.9418ZM36.8473 25.7528C36.4886 25.7528 36.169 25.8381 35.8885 26.0085C35.6115 26.179 35.3913 26.408 35.228 26.6957C35.0682 26.9833 34.9901 27.3047 34.9936 27.6598C34.9936 28.0185 35.0717 28.3416 35.228 28.6293C35.3878 28.9134 35.6044 29.1406 35.8778 29.3111C36.1548 29.478 36.4709 29.5614 36.826 29.5614C37.0923 29.5614 37.3391 29.5117 37.5664 29.4123C37.7937 29.3129 37.9908 29.1761 38.1577 29.0021C38.3281 28.8246 38.4613 28.6204 38.5572 28.3896C38.6531 28.1587 38.701 27.9137 38.701 27.6545C38.6974 27.31 38.6158 26.994 38.456 26.7063C38.2962 26.4187 38.076 26.1879 37.7955 26.0138C37.5149 25.8398 37.1989 25.7528 36.8473 25.7528ZM44.1342 33.7322C43.7827 33.7322 43.4808 33.608 43.2287 33.3594C42.9801 33.1108 42.8558 32.8089 42.8558 32.4538C42.8558 32.1058 42.9801 31.8075 43.2287 31.5589C43.4808 31.3104 43.7827 31.1861 44.1342 31.1861C44.4751 31.1861 44.7734 31.3104 45.0291 31.5589C45.2848 31.8075 45.4126 32.1058 45.4126 32.4538C45.4126 32.6882 45.3523 32.9031 45.2315 33.0984C45.1143 33.2901 44.9599 33.4446 44.7681 33.5618C44.5763 33.6754 44.3651 33.7322 44.1342 33.7322ZM44.1342 28.3789C43.7827 28.3789 43.4808 28.2546 43.2287 28.006C42.9801 27.7575 42.8558 27.4556 42.8558 27.1005C42.8558 26.7525 42.9801 26.456 43.2287 26.2109C43.4808 25.9624 43.7827 25.8381 44.1342 25.8381C44.4751 25.8381 44.7734 25.9624 45.0291 26.2109C45.2848 26.456 45.4126 26.7525 45.4126 27.1005C45.4126 27.3384 45.3523 27.555 45.2315 27.7504C45.1143 27.9421 44.9599 28.0948 44.7681 28.2085C44.5763 28.3221 44.3651 28.3789 44.1342 28.3789ZM47.0892 33.0824V31.266L51.6436 24.0909H53.2096V26.6051H52.2828L49.4117 31.1488V31.234H55.8836V33.0824H47.0892ZM52.3254 35V32.5284L52.368 31.7241V24.0909H54.5306V35H52.3254ZM62.02 24.0909V35H59.7135V26.2802H59.6496L57.1514 27.8462V25.8008L59.852 24.0909H62.02Z" fill="#191F28"/>
        <path d="M30 76L23 83L30 90" stroke="#191F28" stroke-width="2" stroke-linecap="round" stroke-linejoin="round"/>
        <path d="M325 86.9996C325.8 86.9996 326.4 86.3996 326.4 85.5996H323.6C323.6 86.3996 324.2 86.9996 325 86.9996Z" fill="#191F28"/>
        <path d="M330 81.9996V78.9996C330 76.6996 328.8 74.7996 326.5 74.2996V73.4996C326.5 72.9996 326.1 72.5996 326 72.5996C325.9 72.5996 325.5 72.9996 325.5 73.4996V74.2996C323.2 74.7996 322 76.6996 322 78.9996V81.9996L320.8 83.1996V83.9996H331.2V83.1996L330 81.9996Z" stroke="#191F28" stroke-width="1.4" stroke-linejoin="round"/>
        <path d="M330 77C331.657 77 333 75.6569 333 74C333 72.3431 331.657 71 330 71C328.343 71 327 72.3431 327 74C327 75.6569 328.343 77 330 77Z" fill="#FF6B6B"/>
        <path d="M359 86.5C363.142 86.5 366.5 83.1421 366.5 79C366.5 74.8579 363.142 71.5 359 71.5C354.858 71.5 351.5 74.8579 351.5 79C351.5 83.1421 354.858 86.5 359 86.5Z" stroke="#191F28" stroke-width="1.5"/>
        <path d="M359 81.5C360.381 81.5 361.5 80.3807 361.5 79C361.5 77.6193 360.381 76.5 359 76.5C357.619 76.5 356.5 77.6193 356.5 79C356.5 80.3807 357.619 81.5 359 81.5Z" stroke="#191F28" stroke-width="1.5"/>
        <path d="M359 70V72" stroke="#191F28" stroke-width="1.5" stroke-linecap="round"/>
        <path d="M359 86V88" stroke="#191F28" stroke-width="1.5" stroke-linecap="round"/>
        <path d="M350 79H352" stroke="#191F28" stroke-width="1.5" stroke-linecap="round"/>
        <path d="M366 79H368" stroke="#191F28" stroke-width="1.5" stroke-linecap="round"/>
        <path d="M55.518 65.478H65.264V78.986H55.518V65.478ZM62.382 67.788H58.4V76.698H62.382V67.788ZM67.904 63.586H70.852V83.958H67.904V63.586ZM70.214 71.264H73.8V73.662H70.214V71.264ZM89.1103 63.542H92.0363V83.98H89.1103V63.542ZM81.0583 64.972C82.0996 64.972 83.0236 65.2727 83.8303 65.874C84.6369 66.4607 85.2676 67.304 85.7223 68.404C86.1916 69.4893 86.4263 70.7727 86.4263 72.254C86.4263 73.75 86.1916 75.048 85.7223 76.148C85.2676 77.2333 84.6369 78.0767 83.8303 78.678C83.0236 79.2647 82.0996 79.558 81.0583 79.558C80.0316 79.558 79.1149 79.2647 78.3083 78.678C77.5016 78.0767 76.8636 77.2333 76.3943 76.148C75.9396 75.048 75.7123 73.75 75.7123 72.254C75.7123 70.7727 75.9396 69.4893 76.3943 68.404C76.8636 67.304 77.5016 66.4607 78.3083 65.874C79.1149 65.2727 80.0316 64.972 81.0583 64.972ZM81.0583 67.634C80.5596 67.634 80.1196 67.81 79.7383 68.162C79.3569 68.514 79.0563 69.0347 78.8363 69.724C78.6309 70.3987 78.5283 71.242 78.5283 72.254C78.5283 73.2513 78.6309 74.102 78.8363 74.806C79.0563 75.4953 79.3569 76.016 79.7383 76.368C80.1196 76.72 80.5596 76.896 81.0583 76.896C81.5716 76.896 82.0189 76.72 82.4003 76.368C82.7816 76.016 83.0749 75.4953 83.2803 74.806C83.5003 74.102 83.6103 73.2513 83.6103 72.254C83.6103 71.242 83.5003 70.3987 83.2803 69.724C83.0749 69.0347 82.7816 68.514 82.4003 68.162C82.0189 67.81 81.5716 67.634 81.0583 67.634ZM110.273 63.586H113.045V83.958H110.273V63.586ZM104.289 71H107.017V73.552H104.289V71ZM106.225 63.96H108.953V82.99H106.225V63.96ZM95.5106 65.874H104.795V68.206H95.5106V65.874ZM95.4886 79.338L95.1806 76.94C95.8112 76.94 96.5372 76.94 97.3586 76.94C98.1799 76.9253 99.0379 76.9033 99.9326 76.874C100.827 76.83 101.715 76.7787 102.595 76.72C103.489 76.6467 104.325 76.5587 105.103 76.456L105.279 78.568C104.237 78.8027 103.115 78.9787 101.913 79.096C100.71 79.1987 99.5439 79.2647 98.4146 79.294C97.2999 79.3233 96.3246 79.338 95.4886 79.338ZM96.7646 67.348H99.4046V77.578H96.7646V67.348ZM100.879 67.348H103.497V77.578H100.879V67.348ZM129.587 63.542H132.513V83.98H129.587V63.542ZM121.535 64.972C122.576 64.972 123.5 65.2727 124.307 65.874C125.114 66.4607 125.744 67.304 126.199 68.404C126.668 69.4893 126.903 70.7727 126.903 72.254C126.903 73.75 126.668 75.048 126.199 76.148C125.744 77.2333 125.114 78.0767 124.307 78.678C123.5 79.2647 122.576 79.558 121.535 79.558C120.508 79.558 119.592 79.2647 118.785 78.678C117.978 78.0767 117.34 77.2333 116.871 76.148C116.416 75.048 116.189 73.75 116.189 72.254C116.189 70.7727 116.416 69.4893 116.871 68.404C117.34 67.304 117.978 66.4607 118.785 65.874C119.592 65.2727 120.508 64.972 121.535 64.972ZM121.535 67.634C121.036 67.634 120.596 67.81 120.215 68.162C119.834 68.514 119.533 69.0347 119.313 69.724C119.108 70.3987 119.005 71.242 119.005 72.254C119.005 73.2513 119.108 74.102 119.313 74.806C119.533 75.4953 119.834 76.016 120.215 76.368C120.596 76.72 121.036 76.896 121.535 76.896C122.048 76.896 122.496 76.72 122.877 76.368C123.258 76.016 123.552 75.4953 123.757 74.806C123.977 74.102 124.087 73.2513 124.087 72.254C124.087 71.242 123.977 70.3987 123.757 69.724C123.552 69.0347 123.258 68.514 122.877 68.162C122.496 67.81 122.048 67.634 121.535 67.634ZM140.761 66.798H143.093V69.086C143.093 70.2593 142.968 71.4107 142.719 72.54C142.484 73.6693 142.125 74.7327 141.641 75.73C141.172 76.7127 140.578 77.5853 139.859 78.348C139.14 79.096 138.304 79.69 137.351 80.13L135.679 77.82C136.53 77.424 137.27 76.9107 137.901 76.28C138.546 75.6493 139.074 74.9453 139.485 74.168C139.91 73.376 140.226 72.5473 140.431 71.682C140.651 70.802 140.761 69.9367 140.761 69.086V66.798ZM141.399 66.798H143.709V69.086C143.709 69.8927 143.812 70.714 144.017 71.55C144.237 72.3713 144.552 73.156 144.963 73.904C145.374 74.6373 145.894 75.2973 146.525 75.884C147.156 76.4707 147.904 76.94 148.769 77.292L147.163 79.624C146.195 79.1987 145.352 78.6267 144.633 77.908C143.914 77.1893 143.313 76.3607 142.829 75.422C142.345 74.4833 141.986 73.4787 141.751 72.408C141.516 71.3227 141.399 70.2153 141.399 69.086V66.798ZM136.493 65.522H147.933V67.942H136.493V65.522ZM149.825 63.586H152.751V83.958H149.825V63.586Z" fill="#191F28"/>
        <path d="M361 102H32C23.1634 102 16 109.163 16 118V182C16 190.837 23.1634 198 32 198H361C369.837 198 377 190.837 377 182V118C377 109.163 369.837 102 361 102Z" fill="white"/>
        <path d="M64 180C80.5685 180 94 166.569 94 150C94 133.431 80.5685 120 64 120C47.4315 120 34 133.431 34 150C34 166.569 47.4315 180 64 180Z" fill="#FFE8E8"/>
        <path opacity="0.3" d="M64 154C69.5228 154 74 149.523 74 144C74 138.477 69.5228 134 64 134C58.4772 134 54 138.477 54 144C54 149.523 58.4772 154 64 154Z" fill="#FF6B6B"/>
        <path opacity="0.15" d="M46 166C46 156 54 151 64 151C74 151 82 156 82 166" fill="#FF6B6B"/>
        <path d="M84 180C89.5228 180 94 175.523 94 170C94 164.477 89.5228 160 84 160C78.4772 160 74 164.477 74 170C74 175.523 78.4772 180 84 180Z" fill="#FF6B6B"/>
        <path d="M86.5 168H81.5C80.6716 168 80 168.672 80 169.5V172.5C80 173.328 80.6716 174 81.5 174H86.5C87.3284 174 88 173.328 88 172.5V169.5C88 168.672 87.3284 168 86.5 168Z" stroke="white" stroke-width="1.2"/>
        <path d="M84 172.5C84.8284 172.5 85.5 171.828 85.5 171C85.5 170.172 84.8284 169.5 84 169.5C83.1716 169.5 82.5 170.172 82.5 171C82.5 171.828 83.1716 172.5 84 172.5Z" stroke="white"/>
        <path d="M82 168L83 166H85L86 168H82Z" stroke="white" stroke-width="0.8"/>
        <path d="M120.226 138.418C122.074 138.418 123.502 138.64 124.51 139.084C125.518 139.528 126.022 140.17 126.022 141.01C126.022 141.862 125.518 142.504 124.51 142.936C123.502 143.38 122.074 143.602 120.226 143.602C118.39 143.602 116.968 143.38 115.96 142.936C114.952 142.504 114.448 141.862 114.448 141.01C114.448 140.17 114.952 139.528 115.96 139.084C116.968 138.64 118.39 138.418 120.226 138.418ZM120.244 140.146C119.08 140.146 118.228 140.212 117.688 140.344C117.148 140.476 116.878 140.704 116.878 141.028C116.878 141.328 117.148 141.55 117.688 141.694C118.228 141.826 119.08 141.892 120.244 141.892C121.396 141.892 122.236 141.826 122.764 141.694C123.304 141.55 123.574 141.328 123.574 141.028C123.574 140.704 123.304 140.476 122.764 140.344C122.236 140.212 121.396 140.146 120.244 140.146ZM113.44 128.122H127.03V129.922H113.44V128.122ZM120.262 130.354C122.062 130.354 123.442 130.558 124.402 130.966C125.362 131.362 125.842 131.956 125.842 132.748C125.842 133.528 125.362 134.122 124.402 134.53C123.442 134.926 122.062 135.124 120.262 135.124C118.486 135.124 117.112 134.926 116.14 134.53C115.168 134.122 114.682 133.528 114.682 132.748C114.682 131.956 115.168 131.362 116.14 130.966C117.112 130.558 118.486 130.354 120.262 130.354ZM120.262 131.956C119.242 131.956 118.486 132.022 117.994 132.154C117.502 132.274 117.256 132.472 117.256 132.748C117.256 133.012 117.502 133.204 117.994 133.324C118.486 133.444 119.242 133.504 120.262 133.504C121.306 133.504 122.068 133.444 122.548 133.324C123.04 133.204 123.286 133.012 123.286 132.748C123.286 132.472 123.04 132.274 122.548 132.154C122.068 132.022 121.306 131.956 120.262 131.956ZM119.074 126.79H121.45V129.364H119.074V126.79ZM112.72 135.934H127.804V137.788H112.72V135.934ZM119.074 134.368H121.45V136.708H119.074V134.368ZM140.745 126.916H143.139V135.286H140.745V126.916ZM135.507 127.546H138.135C138.135 129.058 137.853 130.354 137.289 131.434C136.725 132.514 135.867 133.396 134.715 134.08C133.575 134.764 132.123 135.286 130.359 135.646L129.531 133.72C130.647 133.516 131.583 133.258 132.339 132.946C133.107 132.634 133.719 132.268 134.175 131.848C134.643 131.428 134.979 130.972 135.183 130.48C135.399 129.988 135.507 129.466 135.507 128.914V127.546ZM130.413 127.546H137.181V129.436H130.413V127.546ZM132.033 135.97H143.139V140.506H134.445V142.306H132.051V138.778H140.727V137.806H132.033V135.97ZM132.051 141.586H143.553V143.44H132.051V141.586ZM145.873 134.764H160.939V136.654H145.873V134.764ZM152.209 132.262H154.603V135.502H152.209V132.262ZM147.691 131.506H159.229V133.378H147.691V131.506ZM147.691 127.636H159.139V129.526H150.067V132.694H147.691V127.636ZM153.343 137.482C155.143 137.482 156.559 137.752 157.591 138.292C158.623 138.82 159.139 139.576 159.139 140.56C159.139 141.532 158.623 142.282 157.591 142.81C156.559 143.35 155.143 143.62 153.343 143.62C151.543 143.62 150.127 143.35 149.095 142.81C148.075 142.282 147.565 141.532 147.565 140.56C147.565 139.576 148.075 138.82 149.095 138.292C150.127 137.752 151.543 137.482 153.343 137.482ZM153.343 139.3C152.599 139.3 151.975 139.348 151.471 139.444C150.979 139.528 150.607 139.666 150.355 139.858C150.103 140.038 149.977 140.266 149.977 140.542C149.977 140.83 150.103 141.07 150.355 141.262C150.607 141.442 150.979 141.58 151.471 141.676C151.975 141.76 152.599 141.802 153.343 141.802C154.087 141.802 154.705 141.76 155.197 141.676C155.701 141.58 156.079 141.442 156.331 141.262C156.583 141.07 156.709 140.83 156.709 140.542C156.709 140.266 156.583 140.038 156.331 139.858C156.079 139.666 155.701 139.528 155.197 139.444C154.705 139.348 154.087 139.3 153.343 139.3Z" fill="#191F28"/>
        <path d="M112.65 164.596H123.31V165.506H112.65V164.596ZM113.586 156.432H122.309V157.316H113.586V156.432ZM113.612 161.385H122.283V162.269H113.612V161.385ZM115.406 157.238H116.485V161.489H115.406V157.238ZM119.41 157.238H120.476V161.489H119.41V157.238ZM124.609 164.661H135.269V165.558H124.609V164.661ZM129.38 162.152H130.446V165.038H129.38V162.152ZM125.909 156.12H133.943V159.682H127.001V162.035H125.935V158.824H132.877V157.004H125.909V156.12ZM125.935 161.58H134.216V162.464H125.935V161.58ZM145.135 155.249H146.214V161.346H145.135V155.249ZM138.557 161.918H146.214V164.739H139.649V166.507H138.583V163.946H145.148V162.776H138.557V161.918ZM138.583 166.013H146.643V166.884H138.583V166.013ZM137.088 156.055H143.406V156.9H137.088V156.055ZM136.893 160.943L136.763 160.059C137.465 160.05 138.228 160.037 139.051 160.02C139.874 160.003 140.706 159.972 141.547 159.929C142.396 159.877 143.202 159.808 143.965 159.721L144.017 160.501C143.246 160.622 142.44 160.713 141.599 160.774C140.758 160.835 139.935 160.878 139.129 160.904C138.332 160.93 137.586 160.943 136.893 160.943ZM138.245 156.445H139.285V160.436H138.245V156.445ZM141.196 156.445H142.249V160.436H141.196V156.445ZM160.776 155.249H161.855V163.998H160.776V155.249ZM152.534 156.198H158.722V157.082H152.534V156.198ZM152.339 162.23L152.209 161.32C152.859 161.32 153.574 161.316 154.354 161.307C155.143 161.29 155.945 161.259 156.759 161.216C157.574 161.173 158.35 161.112 159.086 161.034L159.138 161.84C158.393 161.961 157.613 162.048 156.798 162.1C155.992 162.152 155.204 162.187 154.432 162.204C153.67 162.221 152.972 162.23 152.339 162.23ZM153.691 156.965H154.744V161.476H153.691V156.965ZM156.512 156.965H157.552V161.476H156.512V156.965ZM158.813 157.485H161.335V158.369H158.813V157.485ZM158.813 159.721H161.335V160.618H158.813V159.721ZM154.328 165.87H162.167V166.754H154.328V165.87ZM154.328 163.283H155.407V166.429H154.328V163.283ZM167.275 156.263H168.159V157.173C168.159 157.858 168.021 158.499 167.743 159.097C167.466 159.695 167.076 160.215 166.573 160.657C166.071 161.09 165.49 161.42 164.831 161.645L164.285 160.787C164.727 160.648 165.13 160.458 165.494 160.215C165.858 159.972 166.17 159.691 166.43 159.37C166.699 159.049 166.907 158.703 167.054 158.33C167.202 157.949 167.275 157.563 167.275 157.173V156.263ZM167.483 156.263H168.367V157.173C168.367 157.546 168.437 157.91 168.575 158.265C168.723 158.62 168.931 158.95 169.199 159.253C169.468 159.556 169.784 159.825 170.148 160.059C170.512 160.284 170.911 160.462 171.344 160.592L170.811 161.437C170.161 161.229 169.585 160.917 169.082 160.501C168.58 160.085 168.185 159.591 167.899 159.019C167.622 158.447 167.483 157.832 167.483 157.173V156.263ZM164.584 156.029H171.019V156.9H164.584V156.029ZM172.696 155.249H173.775V161.619H172.696V155.249ZM166.209 162.191H167.262V163.595H172.709V162.191H173.775V166.858H166.209V162.191ZM167.262 164.453V165.974H172.709V164.453H167.262Z" fill="#FF6B6B"/>
        <path d="M182 160L186 164L182 168" stroke="#FF6B6B" stroke-width="1.2" stroke-linecap="round"/>
        <path d="M31.944 208.076H32.94V218.948H31.944V208.076ZM32.712 212.36H34.716V213.188H32.712V212.36ZM25.068 215.396H25.92C26.584 215.396 27.192 215.388 27.744 215.372C28.304 215.348 28.84 215.308 29.352 215.252C29.872 215.196 30.4 215.12 30.936 215.024L31.056 215.876C30.496 215.972 29.952 216.048 29.424 216.104C28.904 216.16 28.36 216.196 27.792 216.212C27.224 216.228 26.6 216.236 25.92 216.236H25.068V215.396ZM25.068 209.132H30.096V209.948H26.052V215.78H25.068V209.132ZM43.5231 208.076H44.5191V218.948H43.5231V208.076ZM38.7951 208.916C39.3311 208.916 39.8031 209.072 40.2111 209.384C40.6271 209.688 40.9511 210.124 41.1831 210.692C41.4231 211.26 41.5431 211.928 41.5431 212.696C41.5431 213.464 41.4231 214.132 41.1831 214.7C40.9511 215.268 40.6271 215.708 40.2111 216.02C39.8031 216.332 39.3311 216.488 38.7951 216.488C38.2591 216.488 37.7831 216.332 37.3671 216.02C36.9511 215.708 36.6231 215.268 36.3831 214.7C36.1511 214.132 36.0351 213.464 36.0351 212.696C36.0351 211.928 36.1511 211.26 36.3831 210.692C36.6231 210.124 36.9511 209.688 37.3671 209.384C37.7831 209.072 38.2591 208.916 38.7951 208.916ZM38.7951 209.804C38.4351 209.804 38.1191 209.924 37.8471 210.164C37.5831 210.396 37.3751 210.732 37.2231 211.172C37.0711 211.604 36.9951 212.112 36.9951 212.696C36.9951 213.28 37.0711 213.792 37.2231 214.232C37.3751 214.664 37.5831 215 37.8471 215.24C38.1191 215.48 38.4351 215.6 38.7951 215.6C39.1471 215.6 39.4551 215.48 39.7191 215.24C39.9911 215 40.2031 214.664 40.3551 214.232C40.5071 213.792 40.5831 213.28 40.5831 212.696C40.5831 212.112 40.5071 211.604 40.3551 211.172C40.2031 210.732 39.9911 210.396 39.7191 210.164C39.4551 209.924 39.1471 209.804 38.7951 209.804ZM49.5701 208.916C50.0981 208.916 50.5661 209.072 50.9741 209.384C51.3821 209.688 51.6981 210.124 51.9221 210.692C52.1541 211.26 52.2701 211.928 52.2701 212.696C52.2701 213.464 52.1541 214.132 51.9221 214.7C51.6981 215.268 51.3821 215.708 50.9741 216.02C50.5661 216.332 50.0981 216.488 49.5701 216.488C49.0501 216.488 48.5821 216.332 48.1661 216.02C47.7581 215.708 47.4381 215.268 47.2061 214.7C46.9821 214.132 46.8701 213.464 46.8701 212.696C46.8701 211.928 46.9821 211.26 47.2061 210.692C47.4381 210.124 47.7581 209.688 48.1661 209.384C48.5821 209.072 49.0501 208.916 49.5701 208.916ZM49.5701 209.804C49.2261 209.804 48.9221 209.924 48.6581 210.164C48.3941 210.396 48.1861 210.732 48.0341 211.172C47.8901 211.604 47.8181 212.112 47.8181 212.696C47.8181 213.28 47.8901 213.792 48.0341 214.232C48.1861 214.664 48.3941 215 48.6581 215.24C48.9221 215.48 49.2261 215.6 49.5701 215.6C49.9221 215.6 50.2301 215.48 50.4941 215.24C50.7581 215 50.9621 214.664 51.1061 214.232C51.2581 213.792 51.3341 213.28 51.3341 212.696C51.3341 212.112 51.2581 211.604 51.1061 211.172C50.9621 210.732 50.7581 210.396 50.4941 210.164C50.2301 209.924 49.9221 209.804 49.5701 209.804ZM54.6221 208.076H55.6061V218.948H54.6221V208.076ZM51.9461 212.216H55.0661V213.02H51.9461V212.216ZM65.6252 208.076H66.6092V218.948H65.6252V208.076ZM58.3412 215.492H59.2412C59.8572 215.492 60.4492 215.484 61.0172 215.468C61.5932 215.444 62.1732 215.404 62.7572 215.348C63.3492 215.292 63.9652 215.212 64.6052 215.108L64.7012 215.924C63.7252 216.084 62.8052 216.192 61.9412 216.248C61.0772 216.296 60.1772 216.32 59.2412 216.32H58.3412V215.492ZM58.3172 209.084H63.3332V212.96H59.3492V215.804H58.3412V212.156H62.3252V209.9H58.3172V209.084ZM72.7193 208.916H77.5193V209.744H72.7193V208.916ZM74.3513 211.34H75.3353V214.052H74.3513V211.34ZM77.1233 208.916H78.0953V209.492C78.0953 209.852 78.0833 210.3 78.0593 210.836C78.0433 211.372 77.9633 211.996 77.8193 212.708L76.8353 212.612C76.9793 211.892 77.0633 211.28 77.0873 210.776C77.1113 210.272 77.1233 209.844 77.1233 209.492V208.916ZM79.5713 208.076H80.5793V216.248H79.5713V208.076ZM80.1233 211.604H82.1273V212.444H80.1233V211.604ZM73.7153 217.88H80.9273V218.696H73.7153V217.88ZM73.7153 215.504H74.7113V218.12H73.7153V215.504ZM72.1673 214.52L72.0593 213.704C72.6993 213.704 73.4073 213.696 74.1833 213.68C74.9593 213.664 75.7473 213.632 76.5473 213.584C77.3473 213.528 78.1153 213.452 78.8513 213.356L78.9113 214.088C78.1673 214.216 77.3953 214.312 76.5953 214.376C75.7953 214.44 75.0153 214.48 74.2553 214.496C73.5033 214.512 72.8073 214.52 72.1673 214.52ZM91.0783 208.076H92.0623V218.948H91.0783V208.076ZM83.7943 215.492H84.6943C85.3103 215.492 85.9023 215.484 86.4703 215.468C87.0463 215.444 87.6263 215.404 88.2103 215.348C88.8023 215.292 89.4183 215.212 90.0583 215.108L90.1543 215.924C89.1783 216.084 88.2583 216.192 87.3943 216.248C86.5303 216.296 85.6303 216.32 84.6943 216.32H83.7943V215.492ZM83.7703 209.084H88.7863V212.96H84.8023V215.804H83.7943V212.156H87.7783V209.9H83.7703V209.084Z" fill="#8B95A1"/>
        <path d="M361 230H32C23.1634 230 16 237.163 16 246V322C16 330.837 23.1634 338 32 338H361C369.837 338 377 330.837 377 322V246C377 237.163 369.837 230 361 230Z" fill="white"/>
        <path d="M48.75 248H33.25C32.5596 248 32 248.56 32 249.25C32 249.94 32.5596 250.5 33.25 250.5H48.75C49.4404 250.5 50 249.94 50 249.25C50 248.56 49.4404 248 48.75 248Z" fill="#8B95A1"/>
        <path d="M48.75 254H33.25C32.5596 254 32 254.56 32 255.25C32 255.94 32.5596 256.5 33.25 256.5H48.75C49.4404 256.5 50 255.94 50 255.25C50 254.56 49.4404 254 48.75 254Z" fill="#8B95A1"/>
        <path d="M42.75 260H33.25C32.5596 260 32 260.56 32 261.25C32 261.94 32.5596 262.5 33.25 262.5H42.75C43.4404 262.5 44 261.94 44 261.25C44 260.56 43.4404 260 42.75 260Z" fill="#8B95A1"/>
        <path d="M64.085 246.035H72.815V247.055H64.085V246.035ZM62.75 255.155H75.005V256.19H62.75V255.155ZM72.14 246.035H73.37V247.4C73.37 247.97 73.36 248.58 73.34 249.23C73.33 249.87 73.29 250.58 73.22 251.36C73.15 252.14 73.03 253.02 72.86 254L71.6 253.865C71.78 252.945 71.905 252.1 71.975 251.33C72.055 250.56 72.1 249.85 72.11 249.2C72.13 248.55 72.14 247.95 72.14 247.4V246.035ZM76.5338 251.315H88.8338V252.32H76.5338V251.315ZM82.0538 251.675H83.2838V253.985H82.0538V251.675ZM78.1688 253.19H79.3988V254.675H86.0288V253.19H87.2588V257.99H78.1688V253.19ZM79.3988 255.62V257.015H86.0288V255.62H79.3988ZM78.0938 244.88H87.2588V247.985H79.3538V249.785H78.1238V247.07H86.0288V245.84H78.0938V244.88ZM78.1238 249.275H87.5438V250.235H78.1238V249.275ZM96.5577 253.115C97.4777 253.115 98.2677 253.215 98.9277 253.415C99.5977 253.615 100.113 253.9 100.473 254.27C100.833 254.64 101.013 255.09 101.013 255.62C101.013 256.15 100.833 256.605 100.473 256.985C100.113 257.365 99.5977 257.655 98.9277 257.855C98.2677 258.055 97.4777 258.155 96.5577 258.155C95.6377 258.155 94.8427 258.055 94.1727 257.855C93.5027 257.655 92.9877 257.365 92.6277 256.985C92.2677 256.605 92.0877 256.15 92.0877 255.62C92.0877 255.09 92.2677 254.64 92.6277 254.27C92.9877 253.9 93.5027 253.615 94.1727 253.415C94.8427 253.215 95.6377 253.115 96.5577 253.115ZM96.5577 254.105C95.8877 254.105 95.3077 254.165 94.8177 254.285C94.3377 254.405 93.9677 254.58 93.7077 254.81C93.4477 255.03 93.3177 255.3 93.3177 255.62C93.3177 255.95 93.4477 256.23 93.7077 256.46C93.9677 256.69 94.3377 256.865 94.8177 256.985C95.3077 257.105 95.8877 257.165 96.5577 257.165C97.2277 257.165 97.8027 257.105 98.2827 256.985C98.7627 256.865 99.1327 256.69 99.3927 256.46C99.6527 256.23 99.7827 255.95 99.7827 255.62C99.7827 255.3 99.6527 255.03 99.3927 254.81C99.1327 254.58 98.7627 254.405 98.2827 254.285C97.8027 254.165 97.2277 254.105 96.5577 254.105ZM99.6327 244.595H100.878V252.74H99.6327V244.595ZM100.533 248H102.873V249.05H100.533V248ZM90.9027 245.45H92.1327V247.49H95.9577V245.45H97.1877V251.705H90.9027V245.45ZM92.1327 248.48V250.7H95.9577V248.48H92.1327ZM109.94 245.165H119.045V249.77H109.94V245.165ZM117.83 246.155H111.155V248.765H117.83V246.155ZM108.365 251.465H120.62V252.485H108.365V251.465ZM113.87 249.515H115.115V251.855H113.87V249.515ZM109.73 253.88H119.105V258.17H117.86V254.885H109.73V253.88ZM122.149 252.065H134.449V253.085H122.149V252.065ZM123.709 244.94H132.874V248.24H124.969V250.055H123.739V247.31H131.644V245.93H123.709V244.94ZM123.739 249.65H133.159V250.64H123.739V249.65ZM127.684 250.16H128.914V252.56H127.684V250.16ZM123.529 254.12H132.949V258.035H131.704V255.125H123.529V254.12ZM140.182 255.41H152.482V256.445H140.182V255.41ZM145.687 252.155H146.917V255.71H145.687V252.155ZM141.622 245.555H142.867V247.97H149.767V245.555H150.997V252.5H141.622V245.555ZM142.867 248.99V251.48H149.767V248.99H142.867ZM163.865 244.595H165.11V258.17H163.865V244.595ZM159.89 246.065H161.12C161.12 247.045 161 247.99 160.76 248.9C160.53 249.81 160.165 250.675 159.665 251.495C159.165 252.305 158.515 253.06 157.715 253.76C156.915 254.46 155.945 255.085 154.805 255.635L154.145 254.63C155.455 254 156.535 253.265 157.385 252.425C158.235 251.585 158.865 250.65 159.275 249.62C159.685 248.58 159.89 247.46 159.89 246.26V246.065ZM154.775 246.065H160.415V247.07H154.775V246.065Z" fill="#191F28"/>
        <path d="M356 252L361 257L356 262" stroke="#D1D6DB" stroke-width="1.3" stroke-linecap="round" stroke-linejoin="round"/>
        <path d="M62 278H361" stroke="#F2F3F5"/>
        <path d="M43 297H35C33.3431 297 32 298.343 32 300V304C32 305.657 33.3431 307 35 307H43C44.6569 307 46 305.657 46 304V300C46 298.343 44.6569 297 43 297Z" stroke="#8B95A1" stroke-width="1.3"/>
        <path d="M36 301H42" stroke="#8B95A1"/>
        <path d="M36 304H40" stroke="#8B95A1"/>
        <path d="M62.75 303.425H75.05V304.46H62.75V303.425ZM68.27 300.35H69.5V303.98H68.27V300.35ZM68.255 295.445H69.365V295.745C69.365 296.435 69.22 297.065 68.93 297.635C68.64 298.195 68.24 298.695 67.73 299.135C67.22 299.565 66.64 299.925 65.99 300.215C65.34 300.495 64.645 300.695 63.905 300.815L63.425 299.84C64.085 299.73 64.705 299.555 65.285 299.315C65.875 299.075 66.39 298.775 66.83 298.415C67.28 298.055 67.63 297.65 67.88 297.2C68.13 296.75 68.255 296.265 68.255 295.745V295.445ZM68.42 295.445H69.515V295.745C69.515 296.265 69.64 296.75 69.89 297.2C70.14 297.65 70.485 298.055 70.925 298.415C71.375 298.775 71.89 299.075 72.47 299.315C73.06 299.555 73.685 299.73 74.345 299.84L73.865 300.815C73.135 300.695 72.44 300.495 71.78 300.215C71.13 299.925 70.55 299.565 70.04 299.135C69.54 298.695 69.145 298.195 68.855 297.635C68.565 297.065 68.42 296.435 68.42 295.745V295.445ZM63.89 294.74H73.88V295.76H63.89V294.74ZM68.27 292.88H69.5V295.115H68.27V292.88ZM86.8688 292.595H88.0538V306.17H86.8688V292.595ZM84.5738 298.04H87.1838V299.06H84.5738V298.04ZM83.7938 292.895H84.9488V305.465H83.7938V292.895ZM77.0288 301.775H77.9138C78.5838 301.775 79.1888 301.77 79.7288 301.76C80.2788 301.74 80.7988 301.7 81.2888 301.64C81.7888 301.58 82.2988 301.495 82.8188 301.385L82.9388 302.42C82.3988 302.53 81.8738 302.615 81.3638 302.675C80.8638 302.735 80.3338 302.775 79.7738 302.795C79.2238 302.815 78.6038 302.825 77.9138 302.825H77.0288V301.775ZM77.0288 294.245H82.0688V295.265H78.2738V302.255H77.0288V294.245ZM96.0364 293.915H104.631V294.935H96.0364V293.915ZM94.5664 303.29H106.821V304.325H94.5664V303.29ZM104.121 293.915H105.336V295.205C105.336 295.755 105.326 296.34 105.306 296.96C105.296 297.58 105.251 298.26 105.171 299C105.101 299.73 104.971 300.56 104.781 301.49L103.551 301.355C103.831 300.035 103.996 298.88 104.046 297.89C104.096 296.9 104.121 296.005 104.121 295.205V293.915ZM104.406 297.17V298.115L95.8414 298.61L95.6464 297.53L104.406 297.17ZM99.3364 299.78H100.566V303.665H99.3364V299.78ZM109.925 299.105H119.24V300.125H109.925V299.105ZM108.365 303.29H120.665V304.325H108.365V303.29ZM109.925 293.855H119.105V294.875H111.155V299.555H109.925V293.855ZM136.253 292.595H137.498V299.885H136.253V292.595ZM128.768 300.56H129.983V302.195H136.268V300.56H137.498V305.99H128.768V300.56ZM129.983 303.185V304.97H136.268V303.185H129.983ZM130.223 293.24C130.913 293.24 131.523 293.375 132.053 293.645C132.583 293.905 132.998 294.27 133.298 294.74C133.608 295.21 133.763 295.755 133.763 296.375C133.763 296.985 133.608 297.53 133.298 298.01C132.998 298.48 132.583 298.845 132.053 299.105C131.523 299.365 130.913 299.495 130.223 299.495C129.543 299.495 128.933 299.365 128.393 299.105C127.863 298.845 127.443 298.48 127.133 298.01C126.833 297.53 126.683 296.985 126.683 296.375C126.683 295.755 126.833 295.21 127.133 294.74C127.443 294.27 127.863 293.905 128.393 293.645C128.933 293.375 129.543 293.24 130.223 293.24ZM130.223 294.29C129.773 294.29 129.373 294.38 129.023 294.56C128.673 294.73 128.398 294.975 128.198 295.295C127.998 295.605 127.898 295.965 127.898 296.375C127.898 296.775 127.998 297.135 128.198 297.455C128.398 297.765 128.673 298.01 129.023 298.19C129.373 298.37 129.773 298.46 130.223 298.46C130.673 298.46 131.073 298.37 131.423 298.19C131.773 298.01 132.048 297.765 132.248 297.455C132.448 297.135 132.548 296.775 132.548 296.375C132.548 295.965 132.448 295.605 132.248 295.295C132.048 294.975 131.773 294.73 131.423 294.56C131.073 294.38 130.673 294.29 130.223 294.29ZM140.752 299.33H141.712C142.602 299.33 143.362 299.325 143.992 299.315C144.632 299.295 145.212 299.26 145.732 299.21C146.262 299.16 146.797 299.085 147.337 298.985L147.457 300.005C147.047 300.075 146.642 300.135 146.242 300.185C145.842 300.225 145.422 300.255 144.982 300.275C144.542 300.295 144.057 300.31 143.527 300.32C142.997 300.33 142.392 300.335 141.712 300.335H140.752V299.33ZM140.722 293.42H146.557V297.26H141.982V299.93H140.752V296.3H145.327V294.425H140.722V293.42ZM150.097 292.61H151.342V300.95H150.097V292.61ZM147.457 294.62H150.382V295.625H147.457V294.62ZM147.457 297.425H150.382V298.445H147.457V297.425ZM142.267 301.67H151.342V306.185H150.097V302.69H142.267V301.67Z" fill="#191F28"/>
        <path d="M356 300L361 305L356 310" stroke="#D1D6DB" stroke-width="1.3" stroke-linecap="round" stroke-linejoin="round"/>
        <path d="M30.168 352.044H32.952V352.86H30.168V352.044ZM32.532 350.076H33.528V355.68H32.532V350.076ZM26.544 356.232H33.528V358.836H27.54V360.48H26.568V358.08H32.544V357.024H26.544V356.232ZM26.568 359.988H33.924V360.792H26.568V359.988ZM27.312 350.424H28.116V351.432C28.116 352.096 27.992 352.716 27.744 353.292C27.496 353.86 27.148 354.352 26.7 354.768C26.252 355.176 25.724 355.488 25.116 355.704L24.588 354.912C25.132 354.728 25.608 354.464 26.016 354.12C26.424 353.776 26.74 353.376 26.964 352.92C27.196 352.456 27.312 351.96 27.312 351.432V350.424ZM27.468 350.424H28.284V351.432C28.284 351.784 28.348 352.128 28.476 352.464C28.604 352.792 28.784 353.1 29.016 353.388C29.256 353.676 29.54 353.932 29.868 354.156C30.196 354.372 30.556 354.544 30.948 354.672L30.42 355.452C29.836 355.244 29.32 354.944 28.872 354.552C28.432 354.152 28.088 353.688 27.84 353.16C27.592 352.624 27.468 352.048 27.468 351.432V350.424ZM41.4351 352.896H43.8711V353.724H41.4351V352.896ZM43.5711 350.076H44.5671V356.544H43.5711V350.076ZM40.9911 356.88C41.7431 356.88 42.3871 356.96 42.9231 357.12C43.4671 357.28 43.8831 357.512 44.1711 357.816C44.4591 358.112 44.6031 358.476 44.6031 358.908C44.6031 359.548 44.2791 360.044 43.6311 360.396C42.9911 360.748 42.1111 360.924 40.9911 360.924C39.8711 360.924 38.9871 360.748 38.3391 360.396C37.6991 360.044 37.3791 359.548 37.3791 358.908C37.3791 358.476 37.5231 358.112 37.8111 357.816C38.1071 357.512 38.5231 357.28 39.0591 357.12C39.6031 356.96 40.2471 356.88 40.9911 356.88ZM40.9911 357.66C40.4471 357.66 39.9791 357.708 39.5871 357.804C39.1951 357.9 38.8911 358.04 38.6751 358.224C38.4671 358.408 38.3631 358.636 38.3631 358.908C38.3631 359.164 38.4671 359.384 38.6751 359.568C38.8911 359.752 39.1951 359.896 39.5871 360C39.9791 360.096 40.4471 360.144 40.9911 360.144C41.5431 360.144 42.0111 360.096 42.3951 360C42.7871 359.896 43.0871 359.752 43.2951 359.568C43.5111 359.384 43.6191 359.164 43.6191 358.908C43.6191 358.636 43.5111 358.408 43.2951 358.224C43.0871 358.04 42.7871 357.9 42.3951 357.804C42.0111 357.708 41.5431 357.66 40.9911 357.66ZM38.3991 351.18H39.2151V352.056C39.2151 352.72 39.0871 353.344 38.8311 353.928C38.5831 354.504 38.2311 355.012 37.7751 355.452C37.3191 355.884 36.7911 356.216 36.1911 356.448L35.6751 355.656C36.0831 355.512 36.4511 355.316 36.7791 355.068C37.1151 354.82 37.4031 354.536 37.6431 354.216C37.8911 353.896 38.0791 353.552 38.2071 353.184C38.3351 352.816 38.3991 352.44 38.3991 352.056V351.18ZM38.5911 351.18H39.4071V352.044C39.4071 352.508 39.5151 352.96 39.7311 353.4C39.9471 353.84 40.2551 354.228 40.6551 354.564C41.0551 354.9 41.5151 355.164 42.0351 355.356L41.5311 356.148C40.9391 355.932 40.4231 355.62 39.9831 355.212C39.5431 354.796 39.1991 354.316 38.9511 353.772C38.7111 353.228 38.5911 352.652 38.5911 352.044V351.18ZM35.9871 350.868H41.7831V351.684H35.9871V350.868Z" fill="#8B95A1"/>
        <path d="M361 372H32C23.1634 372 16 379.163 16 388V472C16 480.837 23.1634 488 32 488H361C369.837 488 377 480.837 377 472V388C377 379.163 369.837 372 361 372Z" fill="white"/>
        <path d="M41 404.001C41.7 404.001 42.2 403.501 42.2 402.801H39.8C39.8 403.501 40.3 404.001 41 404.001Z" fill="#8B95A1"/>
        <path d="M45 399.501V397.001C45 395.101 44 393.501 42.2 393.101V392.501C42.2 392.101 41.9 391.801 41.5 391.801C41.1 391.801 40.8 392.101 40.8 392.501V393.101C39 393.501 38 395.101 38 397.001V399.501L37 400.501V401.001H45V400.501V399.501Z" stroke="#8B95A1" stroke-width="1.2"/>
        <path d="M72.035 386.595H73.28V393.495H72.035V386.595ZM72.725 389.52H75.275V390.555H72.725V389.52ZM64.655 394.14H73.28V397.47H65.915V399.51H64.7V396.54H72.05V395.13H64.655V394.14ZM64.7 398.985H73.76V399.99H64.7V398.985ZM66.5 387.09C67.18 387.09 67.78 387.215 68.3 387.465C68.83 387.715 69.245 388.07 69.545 388.53C69.845 388.98 69.995 389.505 69.995 390.105C69.995 390.695 69.845 391.22 69.545 391.68C69.245 392.13 68.83 392.485 68.3 392.745C67.78 392.995 67.18 393.12 66.5 393.12C65.83 393.12 65.23 392.995 64.7 392.745C64.17 392.485 63.75 392.13 63.44 391.68C63.14 391.22 62.99 390.69 62.99 390.09C62.99 389.5 63.14 388.98 63.44 388.53C63.75 388.07 64.17 387.715 64.7 387.465C65.23 387.215 65.83 387.09 66.5 387.09ZM66.5 388.11C66.06 388.11 65.665 388.195 65.315 388.365C64.975 388.535 64.705 388.77 64.505 389.07C64.305 389.36 64.205 389.705 64.205 390.105C64.205 390.495 64.305 390.84 64.505 391.14C64.705 391.44 64.975 391.68 65.315 391.86C65.665 392.03 66.06 392.115 66.5 392.115C66.94 392.115 67.33 392.03 67.67 391.86C68.02 391.68 68.295 391.44 68.495 391.14C68.695 390.84 68.795 390.495 68.795 390.105C68.795 389.705 68.695 389.36 68.495 389.07C68.295 388.77 68.02 388.535 67.67 388.365C67.33 388.195 66.94 388.11 66.5 388.11ZM86.4188 386.61H87.6638V394.65H86.4188V386.61ZM77.2538 392.97H78.3488C79.1688 392.97 79.9288 392.96 80.6288 392.94C81.3388 392.92 82.0288 392.88 82.6988 392.82C83.3688 392.75 84.0638 392.66 84.7838 392.55L84.9338 393.57C84.1838 393.69 83.4638 393.785 82.7738 393.855C82.0938 393.915 81.3938 393.955 80.6738 393.975C79.9638 393.995 79.1888 394.005 78.3488 394.005H77.2538V392.97ZM77.2238 387.42H83.3738V391.125H78.4688V393.6H77.2538V390.15H82.1588V388.425H77.2238V387.42ZM78.9038 395.385H87.6638V399.99H78.9038V395.385ZM86.4488 396.39H80.1188V398.97H86.4488V396.39ZM101.526 389.055H105.006V390.075H101.526V389.055ZM104.481 386.595H105.726V393.6H104.481V386.595ZM96.9964 394.29H105.726V397.545H98.2414V399.6H97.0264V396.6H104.496V395.28H96.9964V394.29ZM97.0264 398.985H106.221V399.99H97.0264V398.985ZM97.9564 387.03H98.9614V388.29C98.9614 389.12 98.8064 389.895 98.4964 390.615C98.1864 391.325 97.7514 391.94 97.1914 392.46C96.6314 392.97 95.9714 393.36 95.2114 393.63L94.5514 392.64C95.2314 392.41 95.8264 392.08 96.3364 391.65C96.8464 391.22 97.2414 390.72 97.5214 390.15C97.8114 389.57 97.9564 388.95 97.9564 388.29V387.03ZM98.1514 387.03H99.1714V388.29C99.1714 388.73 99.2514 389.16 99.4114 389.58C99.5714 389.99 99.7964 390.375 100.086 390.735C100.386 391.095 100.741 391.415 101.151 391.695C101.561 391.965 102.011 392.18 102.501 392.34L101.841 393.315C101.111 393.055 100.466 392.68 99.9064 392.19C99.3564 391.69 98.9264 391.11 98.6164 390.45C98.3064 389.78 98.1514 389.06 98.1514 388.29V387.03ZM115.61 390.12H118.655V391.155H115.61V390.12ZM118.28 386.595H119.525V394.68H118.28V386.595ZM115.055 395.1C115.995 395.1 116.8 395.2 117.47 395.4C118.15 395.6 118.67 395.89 119.03 396.27C119.39 396.64 119.57 397.095 119.57 397.635C119.57 398.435 119.165 399.055 118.355 399.495C117.555 399.935 116.455 400.155 115.055 400.155C113.655 400.155 112.55 399.935 111.74 399.495C110.94 399.055 110.54 398.435 110.54 397.635C110.54 397.095 110.72 396.64 111.08 396.27C111.45 395.89 111.97 395.6 112.64 395.4C113.32 395.2 114.125 395.1 115.055 395.1ZM115.055 396.075C114.375 396.075 113.79 396.135 113.3 396.255C112.81 396.375 112.43 396.55 112.16 396.78C111.9 397.01 111.77 397.295 111.77 397.635C111.77 397.955 111.9 398.23 112.16 398.46C112.43 398.69 112.81 398.87 113.3 399C113.79 399.12 114.375 399.18 115.055 399.18C115.745 399.18 116.33 399.12 116.81 399C117.3 398.87 117.675 398.69 117.935 398.46C118.205 398.23 118.34 397.955 118.34 397.635C118.34 397.295 118.205 397.01 117.935 396.78C117.675 396.55 117.3 396.375 116.81 396.255C116.33 396.135 115.745 396.075 115.055 396.075ZM111.815 387.975H112.835V389.07C112.835 389.9 112.675 390.68 112.355 391.41C112.045 392.13 111.605 392.765 111.035 393.315C110.465 393.855 109.805 394.27 109.055 394.56L108.41 393.57C108.92 393.39 109.38 393.145 109.79 392.835C110.21 392.525 110.57 392.17 110.87 391.77C111.18 391.37 111.415 390.94 111.575 390.48C111.735 390.02 111.815 389.55 111.815 389.07V387.975ZM112.055 387.975H113.075V389.055C113.075 389.635 113.21 390.2 113.48 390.75C113.75 391.3 114.135 391.785 114.635 392.205C115.135 392.625 115.71 392.955 116.36 393.195L115.73 394.185C114.99 393.915 114.345 393.525 113.795 393.015C113.245 392.495 112.815 391.895 112.505 391.215C112.205 390.535 112.055 389.815 112.055 389.055V387.975ZM108.8 387.585H116.045V388.605H108.8V387.585Z" fill="#191F28"/>
        <path d="M356 394L361 399L356 404" stroke="#D1D6DB" stroke-width="1.3" stroke-linecap="round" stroke-linejoin="round"/>
        <path d="M62 420H361" stroke="#F2F3F5"/>
        <path d="M43 441H37C35.3431 441 34 442.343 34 444V452C34 453.657 35.3431 455 37 455H43C44.6569 455 46 453.657 46 452V444C46 442.343 44.6569 441 43 441Z" stroke="#8B95A1" stroke-width="1.3"/>
        <path d="M40 449C41.1046 449 42 448.105 42 447C42 445.895 41.1046 445 40 445C38.8954 445 38 445.895 38 447C38 448.105 38.8954 449 40 449Z" stroke="#8B95A1"/>
        <path d="M40 450V453" stroke="#8B95A1" stroke-width="1.3" stroke-linecap="round"/>
        <path d="M73.04 438.595H74.24V452.17H73.04V438.595ZM70.85 444.055H73.46V445.075H70.85V444.055ZM67.355 440.35H68.54C68.54 441.22 68.455 442.07 68.285 442.9C68.115 443.73 67.835 444.53 67.445 445.3C67.065 446.06 66.55 446.775 65.9 447.445C65.25 448.105 64.44 448.71 63.47 449.26L62.75 448.375C63.89 447.735 64.795 447.01 65.465 446.2C66.135 445.39 66.615 444.515 66.905 443.575C67.205 442.625 67.355 441.625 67.355 440.575V440.35ZM63.275 440.35H67.76V441.37H63.275V440.35ZM70.04 438.955H71.21V451.495H70.04V438.955ZM86.4188 438.61H87.6638V448.51H86.4188V438.61ZM78.9488 450.85H88.0838V451.87H78.9488V450.85ZM78.9488 447.505H80.1938V451.195H78.9488V447.505ZM80.3888 439.555C81.0688 439.555 81.6738 439.695 82.2038 439.975C82.7338 440.255 83.1538 440.65 83.4638 441.16C83.7738 441.66 83.9288 442.235 83.9288 442.885C83.9288 443.535 83.7738 444.115 83.4638 444.625C83.1538 445.125 82.7338 445.52 82.2038 445.81C81.6738 446.09 81.0688 446.23 80.3888 446.23C79.7188 446.23 79.1138 446.09 78.5738 445.81C78.0438 445.52 77.6238 445.125 77.3138 444.625C77.0038 444.115 76.8488 443.535 76.8488 442.885C76.8488 442.235 77.0038 441.66 77.3138 441.16C77.6238 440.65 78.0438 440.255 78.5738 439.975C79.1138 439.695 79.7188 439.555 80.3888 439.555ZM80.3888 440.635C79.9488 440.635 79.5538 440.73 79.2038 440.92C78.8538 441.11 78.5738 441.375 78.3638 441.715C78.1638 442.055 78.0638 442.445 78.0638 442.885C78.0638 443.335 78.1638 443.73 78.3638 444.07C78.5738 444.4 78.8538 444.66 79.2038 444.85C79.5538 445.04 79.9488 445.135 80.3888 445.135C80.8288 445.135 81.2238 445.04 81.5738 444.85C81.9338 444.66 82.2138 444.4 82.4138 444.07C82.6138 443.73 82.7138 443.335 82.7138 442.885C82.7138 442.445 82.6138 442.055 82.4138 441.715C82.2138 441.375 81.9338 441.11 81.5738 440.92C81.2238 440.73 80.8288 440.635 80.3888 440.635ZM97.5927 442.12H100.638V443.155H97.5927V442.12ZM100.263 438.595H101.508V446.68H100.263V438.595ZM97.0377 447.1C97.9777 447.1 98.7827 447.2 99.4527 447.4C100.133 447.6 100.653 447.89 101.013 448.27C101.373 448.64 101.553 449.095 101.553 449.635C101.553 450.435 101.148 451.055 100.338 451.495C99.5377 451.935 98.4377 452.155 97.0377 452.155C95.6377 452.155 94.5327 451.935 93.7227 451.495C92.9227 451.055 92.5227 450.435 92.5227 449.635C92.5227 449.095 92.7027 448.64 93.0627 448.27C93.4327 447.89 93.9527 447.6 94.6227 447.4C95.3027 447.2 96.1077 447.1 97.0377 447.1ZM97.0377 448.075C96.3577 448.075 95.7727 448.135 95.2827 448.255C94.7927 448.375 94.4127 448.55 94.1427 448.78C93.8827 449.01 93.7527 449.295 93.7527 449.635C93.7527 449.955 93.8827 450.23 94.1427 450.46C94.4127 450.69 94.7927 450.87 95.2827 451C95.7727 451.12 96.3577 451.18 97.0377 451.18C97.7277 451.18 98.3127 451.12 98.7927 451C99.2827 450.87 99.6577 450.69 99.9177 450.46C100.188 450.23 100.323 449.955 100.323 449.635C100.323 449.295 100.188 449.01 99.9177 448.78C99.6577 448.55 99.2827 448.375 98.7927 448.255C98.3127 448.135 97.7277 448.075 97.0377 448.075ZM93.7977 439.975H94.8177V441.07C94.8177 441.9 94.6577 442.68 94.3377 443.41C94.0277 444.13 93.5877 444.765 93.0177 445.315C92.4477 445.855 91.7877 446.27 91.0377 446.56L90.3927 445.57C90.9027 445.39 91.3627 445.145 91.7727 444.835C92.1927 444.525 92.5527 444.17 92.8527 443.77C93.1627 443.37 93.3977 442.94 93.5577 442.48C93.7177 442.02 93.7977 441.55 93.7977 441.07V439.975ZM94.0377 439.975H95.0577V441.055C95.0577 441.635 95.1927 442.2 95.4627 442.75C95.7327 443.3 96.1177 443.785 96.6177 444.205C97.1177 444.625 97.6927 444.955 98.3427 445.195L97.7127 446.185C96.9727 445.915 96.3277 445.525 95.7777 445.015C95.2277 444.495 94.7977 443.895 94.4877 443.215C94.1877 442.535 94.0377 441.815 94.0377 441.055V439.975ZM90.7827 439.585H98.0277V440.605H90.7827V439.585ZM104.146 449.41H116.446V450.445H104.146V449.41ZM109.651 446.155H110.881V449.71H109.651V446.155ZM105.586 439.555H106.831V441.97H113.731V439.555H114.961V446.5H105.586V439.555ZM106.831 442.99V445.48H113.731V442.99H106.831ZM122.899 439.645H128.899V440.68H122.899V439.645ZM124.939 442.675H126.169V446.065H124.939V442.675ZM128.404 439.645H129.619V440.365C129.619 440.815 129.604 441.375 129.574 442.045C129.554 442.715 129.454 443.495 129.274 444.385L128.044 444.265C128.224 443.365 128.329 442.6 128.359 441.97C128.389 441.34 128.404 440.805 128.404 440.365V439.645ZM131.464 438.595H132.724V448.81H131.464V438.595ZM132.154 443.005H134.659V444.055H132.154V443.005ZM124.144 450.85H133.159V451.87H124.144V450.85ZM124.144 447.88H125.389V451.15H124.144V447.88ZM122.209 446.65L122.074 445.63C122.874 445.63 123.759 445.62 124.729 445.6C125.699 445.58 126.684 445.54 127.684 445.48C128.684 445.41 129.644 445.315 130.564 445.195L130.639 446.11C129.709 446.27 128.744 446.39 127.744 446.47C126.744 446.55 125.769 446.6 124.819 446.62C123.879 446.64 123.009 446.65 122.209 446.65ZM145.848 438.595H147.078V452.185H145.848V438.595ZM136.743 447.865H137.868C138.638 447.865 139.378 447.855 140.088 447.835C140.808 447.805 141.533 447.755 142.263 447.685C143.003 447.615 143.773 447.515 144.573 447.385L144.693 448.405C143.473 448.605 142.323 448.74 141.243 448.81C140.163 448.87 139.038 448.9 137.868 448.9H136.743V447.865ZM136.713 439.855H142.983V444.7H138.003V448.255H136.743V443.695H141.723V440.875H136.713V439.855Z" fill="#191F28"/>
        <path d="M356 446L361 451L356 456" stroke="#D1D6DB" stroke-width="1.3" stroke-linecap="round" stroke-linejoin="round"/>
        <path d="M32.508 498.076H33.504V508.936H32.508V498.076ZM29.328 499.252H30.312C30.312 500.036 30.216 500.792 30.024 501.52C29.84 502.248 29.548 502.94 29.148 503.596C28.748 504.244 28.228 504.848 27.588 505.408C26.948 505.968 26.172 506.468 25.26 506.908L24.732 506.104C25.78 505.6 26.644 505.012 27.324 504.34C28.004 503.668 28.508 502.92 28.836 502.096C29.164 501.264 29.328 500.368 29.328 499.408V499.252ZM25.236 499.252H29.748V500.056H25.236V499.252ZM36.1071 505.492H36.9591C37.6231 505.492 38.2311 505.484 38.7831 505.468C39.3351 505.452 39.8671 505.42 40.3791 505.372C40.8991 505.324 41.4311 505.252 41.9751 505.156L42.0711 505.972C41.5191 506.068 40.9791 506.144 40.4511 506.2C39.9231 506.248 39.3751 506.28 38.8071 506.296C38.2471 506.312 37.6311 506.32 36.9591 506.32H36.1071V505.492ZM36.1071 499.06H41.1591V499.888H37.1031V505.78H36.1071V499.06ZM36.8511 502.108H40.9191V502.912H36.8511V502.108ZM42.9831 498.076H43.9791V508.936H42.9831V498.076ZM43.7511 502.432H45.7551V503.272H43.7511V502.432Z" fill="#8B95A1"/>
        <path d="M361 520H32C23.1634 520 16 527.163 16 536V620C16 628.837 23.1634 636 32 636H361C369.837 636 377 628.837 377 620V536C377 527.163 369.837 520 361 520Z" fill="white"/>
        <path d="M40 551C43.866 551 47 547.866 47 544C47 540.134 43.866 537 40 537C36.134 537 33 540.134 33 544C33 547.866 36.134 551 40 551Z" stroke="#8B95A1" stroke-width="1.3"/>
        <path d="M39.2414 548V542.545H40.7542V548H39.2414ZM40.0013 541.842C39.7764 541.842 39.5835 541.768 39.4225 541.619C39.2639 541.467 39.1846 541.286 39.1846 541.075C39.1846 540.867 39.2639 540.688 39.4225 540.539C39.5835 540.388 39.7764 540.312 40.0013 540.312C40.2262 540.312 40.418 540.388 40.5766 540.539C40.7376 540.688 40.8181 540.867 40.8181 541.075C40.8181 541.286 40.7376 541.467 40.5766 541.619C40.418 541.768 40.2262 541.842 40.0013 541.842Z" fill="#8B95A1"/>
        <path d="M65.96 535.345C66.56 535.345 67.09 535.475 67.55 535.735C68.02 535.995 68.385 536.355 68.645 536.815C68.915 537.275 69.05 537.81 69.05 538.42C69.05 539.02 68.915 539.555 68.645 540.025C68.385 540.485 68.02 540.845 67.55 541.105C67.09 541.365 66.56 541.495 65.96 541.495C65.36 541.495 64.825 541.365 64.355 541.105C63.895 540.845 63.535 540.485 63.275 540.025C63.015 539.555 62.885 539.02 62.885 538.42C62.885 537.81 63.015 537.275 63.275 536.815C63.535 536.355 63.895 535.995 64.355 535.735C64.825 535.475 65.36 535.345 65.96 535.345ZM65.96 536.365C65.59 536.365 65.255 536.455 64.955 536.635C64.665 536.805 64.435 537.045 64.265 537.355C64.095 537.655 64.01 538.01 64.01 538.42C64.01 538.82 64.095 539.175 64.265 539.485C64.435 539.785 64.665 540.025 64.955 540.205C65.255 540.375 65.59 540.46 65.96 540.46C66.33 540.46 66.66 540.375 66.95 540.205C67.25 540.025 67.485 539.785 67.655 539.485C67.825 539.175 67.91 538.82 67.91 538.42C67.91 538.01 67.825 537.655 67.655 537.355C67.485 537.045 67.25 536.805 66.95 536.635C66.66 536.455 66.33 536.365 65.96 536.365ZM72.995 534.61H74.18V541.99H72.995V534.61ZM70.85 537.715H73.415V538.75H70.85V537.715ZM70.085 534.865H71.255V541.9H70.085V534.865ZM65.285 542.605H66.515V544.21H72.965V542.605H74.18V547.99H65.285V542.605ZM66.515 545.215V546.97H72.965V545.215H66.515ZM88.0126 538.12H91.0576V539.155H88.0126V538.12ZM90.6826 534.595H91.9276V542.68H90.6826V534.595ZM87.4576 543.1C88.3976 543.1 89.2026 543.2 89.8726 543.4C90.5526 543.6 91.0726 543.89 91.4326 544.27C91.7926 544.64 91.9726 545.095 91.9726 545.635C91.9726 546.435 91.5676 547.055 90.7576 547.495C89.9576 547.935 88.8576 548.155 87.4576 548.155C86.0576 548.155 84.9526 547.935 84.1426 547.495C83.3426 547.055 82.9426 546.435 82.9426 545.635C82.9426 545.095 83.1226 544.64 83.4826 544.27C83.8526 543.89 84.3726 543.6 85.0426 543.4C85.7226 543.2 86.5276 543.1 87.4576 543.1ZM87.4576 544.075C86.7776 544.075 86.1926 544.135 85.7026 544.255C85.2126 544.375 84.8326 544.55 84.5626 544.78C84.3026 545.01 84.1726 545.295 84.1726 545.635C84.1726 545.955 84.3026 546.23 84.5626 546.46C84.8326 546.69 85.2126 546.87 85.7026 547C86.1926 547.12 86.7776 547.18 87.4576 547.18C88.1476 547.18 88.7326 547.12 89.2126 547C89.7026 546.87 90.0776 546.69 90.3376 546.46C90.6076 546.23 90.7426 545.955 90.7426 545.635C90.7426 545.295 90.6076 545.01 90.3376 544.78C90.0776 544.55 89.7026 544.375 89.2126 544.255C88.7326 544.135 88.1476 544.075 87.4576 544.075ZM84.2176 535.975H85.2376V537.07C85.2376 537.9 85.0776 538.68 84.7576 539.41C84.4476 540.13 84.0076 540.765 83.4376 541.315C82.8676 541.855 82.2076 542.27 81.4576 542.56L80.8126 541.57C81.3226 541.39 81.7826 541.145 82.1926 540.835C82.6126 540.525 82.9726 540.17 83.2726 539.77C83.5826 539.37 83.8176 538.94 83.9776 538.48C84.1376 538.02 84.2176 537.55 84.2176 537.07V535.975ZM84.4576 535.975H85.4776V537.055C85.4776 537.635 85.6126 538.2 85.8826 538.75C86.1526 539.3 86.5376 539.785 87.0376 540.205C87.5376 540.625 88.1126 540.955 88.7626 541.195L88.1326 542.185C87.3926 541.915 86.7476 541.525 86.1976 541.015C85.6476 540.495 85.2176 539.895 84.9076 539.215C84.6076 538.535 84.4576 537.815 84.4576 537.055V535.975ZM81.2026 535.585H88.4476V536.605H81.2026V535.585ZM94.5664 545.41H106.866V546.445H94.5664V545.41ZM100.071 542.155H101.301V545.71H100.071V542.155ZM96.0064 535.555H97.2514V537.97H104.151V535.555H105.381V542.5H96.0064V535.555ZM97.2514 538.99V541.48H104.151V538.99H97.2514Z" fill="#191F28"/>
        <path d="M320.795 544.909L318.173 552H317.065L314.443 544.909H315.625L317.582 550.56H317.656L319.614 544.909H320.795ZM325.539 542.545V552H324.394V543.746H324.339L322.03 545.278V544.115L324.394 542.545H325.539ZM328.512 552.074C328.284 552.074 328.089 551.992 327.926 551.829C327.762 551.666 327.681 551.471 327.681 551.243C327.681 551.015 327.762 550.82 327.926 550.657C328.089 550.493 328.284 550.412 328.512 550.412C328.74 550.412 328.935 550.493 329.098 550.657C329.261 550.82 329.343 551.015 329.343 551.243C329.343 551.394 329.304 551.532 329.227 551.658C329.154 551.785 329.054 551.886 328.927 551.963C328.804 552.037 328.666 552.074 328.512 552.074ZM334.033 552.129C333.338 552.129 332.745 551.94 332.256 551.561C331.767 551.18 331.393 550.627 331.134 549.904C330.876 549.178 330.746 548.301 330.746 547.273C330.746 546.251 330.876 545.378 331.134 544.655C331.396 543.929 331.771 543.375 332.26 542.993C332.753 542.609 333.344 542.416 334.033 542.416C334.723 542.416 335.312 542.609 335.801 542.993C336.294 543.375 336.669 543.929 336.928 544.655C337.189 545.378 337.32 546.251 337.32 547.273C337.32 548.301 337.191 549.178 336.932 549.904C336.674 550.627 336.3 551.18 335.811 551.561C335.321 551.94 334.729 552.129 334.033 552.129ZM334.033 551.114C334.723 551.114 335.258 550.781 335.64 550.116C336.021 549.452 336.212 548.504 336.212 547.273C336.212 546.454 336.124 545.757 335.949 545.181C335.777 544.606 335.527 544.167 335.201 543.866C334.878 543.564 334.489 543.413 334.033 543.413C333.35 543.413 332.816 543.75 332.431 544.424C332.047 545.095 331.854 546.045 331.854 547.273C331.854 548.091 331.94 548.787 332.113 549.359C332.285 549.932 332.533 550.367 332.856 550.666C333.182 550.964 333.575 551.114 334.033 551.114ZM339.557 552.074C339.329 552.074 339.134 551.992 338.971 551.829C338.807 551.666 338.726 551.471 338.726 551.243C338.726 551.015 338.807 550.82 338.971 550.657C339.134 550.493 339.329 550.412 339.557 550.412C339.785 550.412 339.98 550.493 340.143 550.657C340.306 550.82 340.388 551.015 340.388 551.243C340.388 551.394 340.349 551.532 340.272 551.658C340.199 551.785 340.098 551.886 339.972 551.963C339.849 552.037 339.711 552.074 339.557 552.074ZM345.078 552.129C344.383 552.129 343.79 551.94 343.301 551.561C342.811 551.18 342.438 550.627 342.179 549.904C341.92 549.178 341.791 548.301 341.791 547.273C341.791 546.251 341.92 545.378 342.179 544.655C342.441 543.929 342.816 543.375 343.305 542.993C343.798 542.609 344.389 542.416 345.078 542.416C345.768 542.416 346.357 542.609 346.846 542.993C347.339 543.375 347.714 543.929 347.973 544.655C348.234 545.378 348.365 546.251 348.365 547.273C348.365 548.301 348.236 549.178 347.977 549.904C347.719 550.627 347.345 551.18 346.855 551.561C346.366 551.94 345.774 552.129 345.078 552.129ZM345.078 551.114C345.768 551.114 346.303 550.781 346.685 550.116C347.066 549.452 347.257 548.504 347.257 547.273C347.257 546.454 347.169 545.757 346.994 545.181C346.822 544.606 346.572 544.167 346.246 543.866C345.923 543.564 345.534 543.413 345.078 543.413C344.395 543.413 343.861 543.75 343.476 544.424C343.092 545.095 342.899 546.045 342.899 547.273C342.899 548.091 342.985 548.787 343.158 549.359C343.33 549.932 343.578 550.367 343.901 550.666C344.227 550.964 344.62 551.114 345.078 551.114Z" fill="#B0B8C1"/>
        <path d="M356 542L361 547L356 552" stroke="#D1D6DB" stroke-width="1.3" stroke-linecap="round" stroke-linejoin="round"/>
        <path d="M62 568H361" stroke="#F2F3F5"/>
        <path d="M393 782H0V852H393V782Z" fill="white"/>
        <path d="M0 782H393" stroke="#F2F3F5"/>
        <path d="M49 803L40 811V819.5C40 820 40.4 820.4 40.9 820.4H46V814.9H52V820.4H57.1C57.6 820.4 58 820 58 819.5V811L49 803Z" stroke="#B0B8C1" stroke-width="1.4" stroke-linecap="round" stroke-linejoin="round"/>
        <path d="M153 805H141C139.343 805 138 806.343 138 808V817C138 818.657 139.343 820 141 820H153C154.657 820 156 818.657 156 817V808C156 806.343 154.657 805 153 805Z" stroke="#B0B8C1" stroke-width="1.4"/>
        <path d="M143 802V808" stroke="#B0B8C1" stroke-width="1.4" stroke-linecap="round"/>
        <path d="M151 802V808" stroke="#B0B8C1" stroke-width="1.4" stroke-linecap="round"/>
        <path d="M138 811H156" stroke="#B0B8C1" stroke-width="0.8"/>
        <path d="M251 802H239C237.343 802 236 803.343 236 805V819C236 820.657 237.343 822 239 822H251C252.657 822 254 820.657 254 819V805C254 803.343 252.657 802 251 802Z" stroke="#B0B8C1" stroke-width="1.4"/>
        <path d="M241 808H249" stroke="#B0B8C1"/>
        <path d="M241 812H249" stroke="#B0B8C1"/>
        <path d="M241 816H246" stroke="#B0B8C1"/>
        <path d="M349 806H337C333.686 806 331 808.686 331 812V814C331 817.314 333.686 820 337 820H349C352.314 820 355 817.314 355 814V812C355 808.686 352.314 806 349 806Z" stroke="#B0B8C1" stroke-width="1.4"/>
        <path d="M339 815.5C340.381 815.5 341.5 814.381 341.5 813C341.5 811.619 340.381 810.5 339 810.5C337.619 810.5 336.5 811.619 336.5 813C336.5 814.381 337.619 815.5 339 815.5Z" fill="#B0B8C1"/>
        <path d="M347 815.5C348.381 815.5 349.5 814.381 349.5 813C349.5 811.619 348.381 810.5 347 810.5C345.619 810.5 344.5 811.619 344.5 813C344.5 814.381 345.619 815.5 347 815.5Z" fill="#B0B8C1"/>
        <path d="M166.19 840.545C166.147 840.186 165.975 839.906 165.672 839.707C165.368 839.509 164.997 839.409 164.556 839.409C164.234 839.409 163.953 839.461 163.711 839.565C163.472 839.67 163.285 839.813 163.15 839.995C163.018 840.177 162.951 840.384 162.951 840.616C162.951 840.811 162.998 840.978 163.09 841.117C163.185 841.254 163.305 841.369 163.452 841.462C163.599 841.552 163.753 841.626 163.914 841.685C164.075 841.742 164.223 841.788 164.358 841.824L165.096 842.023C165.286 842.072 165.496 842.141 165.728 842.229C165.963 842.316 166.186 842.436 166.4 842.587C166.615 842.737 166.792 842.928 166.932 843.163C167.072 843.397 167.142 843.685 167.142 844.026C167.142 844.419 167.039 844.774 166.833 845.091C166.629 845.408 166.331 845.66 165.938 845.847C165.547 846.034 165.073 846.128 164.514 846.128C163.993 846.128 163.542 846.044 163.161 845.876C162.782 845.708 162.484 845.473 162.266 845.173C162.051 844.872 161.929 844.523 161.9 844.125H162.809C162.833 844.4 162.925 844.627 163.086 844.807C163.25 844.984 163.456 845.117 163.704 845.205C163.955 845.29 164.225 845.332 164.514 845.332C164.85 845.332 165.152 845.278 165.419 845.169C165.687 845.058 165.899 844.904 166.055 844.707C166.211 844.509 166.289 844.277 166.289 844.011C166.289 843.77 166.222 843.573 166.087 843.422C165.952 843.27 165.775 843.147 165.554 843.053C165.334 842.958 165.096 842.875 164.841 842.804L163.946 842.548C163.377 842.385 162.928 842.152 162.596 841.849C162.265 841.546 162.099 841.149 162.099 840.659C162.099 840.252 162.209 839.897 162.429 839.594C162.652 839.288 162.95 839.052 163.324 838.884C163.701 838.713 164.121 838.628 164.585 838.628C165.054 838.628 165.47 838.712 165.835 838.88C166.199 839.046 166.488 839.273 166.701 839.562C166.917 839.851 167.03 840.179 167.042 840.545H166.19ZM170.791 846.099C170.304 846.099 169.873 846.013 169.499 845.84C169.127 845.665 168.837 845.425 168.629 845.119C168.42 844.812 168.317 844.461 168.32 844.068C168.317 843.76 168.378 843.476 168.501 843.216C168.624 842.953 168.792 842.734 169.005 842.559C169.221 842.381 169.461 842.269 169.726 842.222V842.179C169.378 842.089 169.101 841.894 168.895 841.593C168.689 841.29 168.587 840.946 168.59 840.56C168.587 840.19 168.681 839.86 168.87 839.569C169.06 839.278 169.32 839.048 169.651 838.88C169.985 838.712 170.365 838.628 170.791 838.628C171.213 838.628 171.589 838.712 171.921 838.88C172.252 839.048 172.512 839.278 172.702 839.569C172.894 839.86 172.991 840.19 172.993 840.56C172.991 840.946 172.885 841.29 172.677 841.593C172.471 841.894 172.198 842.089 171.857 842.179V842.222C172.119 842.269 172.356 842.381 172.567 842.559C172.778 842.734 172.946 842.953 173.071 843.216C173.197 843.476 173.261 843.76 173.263 844.068C173.261 844.461 173.154 844.812 172.943 845.119C172.735 845.425 172.445 845.665 172.073 845.84C171.704 846.013 171.277 846.099 170.791 846.099ZM170.791 845.318C171.12 845.318 171.405 845.265 171.644 845.158C171.883 845.052 172.067 844.902 172.198 844.707C172.328 844.513 172.394 844.286 172.396 844.026C172.394 843.751 172.323 843.508 172.183 843.298C172.044 843.087 171.853 842.921 171.612 842.8C171.373 842.68 171.099 842.619 170.791 842.619C170.481 842.619 170.204 842.68 169.96 842.8C169.719 842.921 169.528 843.087 169.389 843.298C169.251 843.508 169.184 843.751 169.186 844.026C169.184 844.286 169.247 844.513 169.374 844.707C169.505 844.902 169.691 845.052 169.932 845.158C170.173 845.265 170.46 845.318 170.791 845.318ZM170.791 841.866C171.052 841.866 171.283 841.814 171.484 841.71C171.687 841.606 171.847 841.46 171.963 841.273C172.079 841.086 172.138 840.867 172.141 840.616C172.138 840.37 172.08 840.156 171.967 839.974C171.853 839.789 171.696 839.647 171.494 839.548C171.293 839.446 171.059 839.395 170.791 839.395C170.519 839.395 170.281 839.446 170.078 839.548C169.874 839.647 169.717 839.789 169.605 839.974C169.494 840.156 169.44 840.37 169.442 840.616C169.44 840.867 169.495 841.086 169.609 841.273C169.725 841.46 169.885 841.606 170.088 841.71C170.292 841.814 170.526 841.866 170.791 841.866ZM186.684 841.973V842.754H176.684V841.973H186.684ZM190.377 838.727H191.428L193.9 844.764H193.985L196.456 838.727H197.507V846H196.684V840.474H196.613L194.34 846H193.544L191.272 840.474H191.201V846H190.377V838.727ZM199.699 848.045C199.557 848.045 199.431 848.034 199.319 848.01C199.208 847.989 199.131 847.967 199.089 847.946L199.302 847.207C199.505 847.259 199.685 847.278 199.841 847.264C199.998 847.25 200.136 847.18 200.257 847.055C200.38 846.932 200.492 846.732 200.594 846.455L200.751 846.028L198.733 840.545H199.643L201.148 844.892H201.205L202.711 840.545H203.62L201.305 846.795C201.2 847.077 201.071 847.31 200.917 847.495C200.764 847.682 200.585 847.821 200.381 847.911C200.18 848 199.953 848.045 199.699 848.045ZM207.652 846V838.727H210.11C210.68 838.727 211.146 838.83 211.509 839.036C211.873 839.24 212.143 839.516 212.318 839.864C212.494 840.212 212.581 840.6 212.581 841.028C212.581 841.457 212.494 841.846 212.318 842.197C212.146 842.547 211.878 842.826 211.516 843.035C211.154 843.241 210.69 843.344 210.124 843.344H208.362V842.562H210.095C210.486 842.562 210.8 842.495 211.036 842.36C211.273 842.225 211.445 842.043 211.551 841.813C211.66 841.581 211.715 841.32 211.715 841.028C211.715 840.737 211.66 840.477 211.551 840.247C211.445 840.018 211.272 839.838 211.033 839.707C210.794 839.575 210.477 839.509 210.081 839.509H208.533V846H207.652ZM215.491 846.128C215.146 846.128 214.832 846.063 214.55 845.933C214.269 845.8 214.045 845.609 213.879 845.361C213.713 845.11 213.631 844.807 213.631 844.452C213.631 844.139 213.692 843.886 213.815 843.692C213.938 843.495 214.103 843.341 214.309 843.23C214.515 843.119 214.742 843.036 214.991 842.982C215.242 842.925 215.494 842.88 215.747 842.847C216.078 842.804 216.347 842.772 216.553 842.751C216.761 842.727 216.913 842.688 217.008 842.634C217.105 842.579 217.153 842.484 217.153 842.349V842.321C217.153 841.971 217.057 841.698 216.866 841.504C216.676 841.31 216.389 841.213 216.003 841.213C215.603 841.213 215.289 841.301 215.062 841.476C214.834 841.651 214.675 841.838 214.582 842.037L213.787 841.753C213.929 841.421 214.118 841.163 214.355 840.979C214.594 840.792 214.854 840.661 215.136 840.588C215.42 840.512 215.7 840.474 215.974 840.474C216.149 840.474 216.351 840.496 216.578 840.538C216.808 840.579 217.029 840.663 217.242 840.79C217.457 840.918 217.636 841.111 217.778 841.369C217.92 841.627 217.991 841.973 217.991 842.406V846H217.153V845.261H217.111C217.054 845.38 216.959 845.506 216.827 845.641C216.694 845.776 216.518 845.891 216.297 845.986C216.077 846.08 215.809 846.128 215.491 846.128ZM215.619 845.375C215.951 845.375 216.23 845.31 216.457 845.18C216.687 845.049 216.86 844.881 216.976 844.675C217.094 844.469 217.153 844.253 217.153 844.026V843.259C217.118 843.301 217.04 843.34 216.919 843.376C216.8 843.409 216.663 843.438 216.507 843.464C216.353 843.488 216.203 843.509 216.056 843.528C215.912 843.545 215.794 843.559 215.704 843.571C215.487 843.599 215.283 843.646 215.094 843.71C214.907 843.771 214.755 843.865 214.639 843.99C214.525 844.113 214.469 844.281 214.469 844.494C214.469 844.786 214.576 845.006 214.792 845.155C215.01 845.302 215.285 845.375 215.619 845.375ZM221.723 848.159C221.318 848.159 220.97 848.107 220.679 848.003C220.387 847.901 220.145 847.766 219.951 847.598C219.759 847.432 219.606 847.255 219.493 847.065L220.16 846.597C220.236 846.696 220.332 846.81 220.448 846.938C220.564 847.068 220.722 847.18 220.924 847.275C221.127 847.372 221.394 847.42 221.723 847.42C222.163 847.42 222.526 847.314 222.813 847.101C223.099 846.888 223.243 846.554 223.243 846.099V844.991H223.172C223.11 845.091 223.022 845.214 222.909 845.361C222.797 845.505 222.636 845.634 222.426 845.748C222.217 845.859 221.936 845.915 221.581 845.915C221.14 845.915 220.745 845.811 220.395 845.602C220.047 845.394 219.771 845.091 219.567 844.693C219.366 844.295 219.265 843.812 219.265 843.244C219.265 842.686 219.364 842.199 219.56 841.785C219.757 841.368 220.03 841.046 220.38 840.819C220.731 840.589 221.136 840.474 221.595 840.474C221.95 840.474 222.232 840.534 222.44 840.652C222.651 840.768 222.812 840.901 222.923 841.05C223.037 841.196 223.124 841.317 223.186 841.412H223.271V840.545H224.081V846.156C224.081 846.625 223.974 847.006 223.761 847.3C223.55 847.596 223.266 847.812 222.909 847.95C222.554 848.089 222.158 848.159 221.723 848.159ZM221.694 845.162C222.03 845.162 222.315 845.085 222.547 844.931C222.779 844.777 222.955 844.556 223.076 844.267C223.196 843.978 223.257 843.633 223.257 843.23C223.257 842.837 223.198 842.49 223.079 842.19C222.961 841.889 222.786 841.653 222.554 841.483C222.322 841.312 222.035 841.227 221.694 841.227C221.339 841.227 221.043 841.317 220.806 841.497C220.572 841.677 220.396 841.919 220.277 842.222C220.161 842.525 220.103 842.861 220.103 843.23C220.103 843.609 220.163 843.944 220.281 844.235C220.402 844.524 220.579 844.751 220.814 844.917C221.05 845.08 221.344 845.162 221.694 845.162ZM227.902 846.114C227.376 846.114 226.923 845.998 226.542 845.766C226.163 845.531 225.87 845.205 225.664 844.786C225.461 844.364 225.359 843.874 225.359 843.315C225.359 842.757 225.461 842.264 225.664 841.838C225.87 841.41 226.157 841.076 226.524 840.837C226.893 840.595 227.324 840.474 227.816 840.474C228.1 840.474 228.381 840.522 228.658 840.616C228.935 840.711 229.187 840.865 229.414 841.078C229.642 841.289 229.823 841.568 229.958 841.916C230.093 842.264 230.16 842.693 230.16 843.202V843.557H225.956V842.832H229.308C229.308 842.525 229.246 842.25 229.123 842.009C229.002 841.767 228.83 841.576 228.605 841.437C228.382 841.297 228.119 841.227 227.816 841.227C227.483 841.227 227.194 841.31 226.95 841.476C226.708 841.639 226.523 841.852 226.392 842.115C226.262 842.378 226.197 842.66 226.197 842.96V843.443C226.197 843.855 226.268 844.204 226.41 844.491C226.555 844.775 226.755 844.991 227.01 845.141C227.266 845.287 227.563 845.361 227.902 845.361C228.122 845.361 228.321 845.33 228.498 845.268C228.678 845.205 228.833 845.11 228.963 844.984C229.094 844.857 229.194 844.698 229.265 844.509L230.075 844.736C229.99 845.01 229.846 845.252 229.645 845.46C229.444 845.666 229.195 845.827 228.9 845.943C228.604 846.057 228.271 846.114 227.902 846.114Z" fill="#D1D6DB"/>
    </g>
    <defs>
        <clipPath id="clip0_48_2">
            <rect width="393" height="852" fill="white"/>
        </clipPath>
    </defs>
</svg>
